<svg width="920" height="518" viewBox="0 0 920 518" fill="none" xmlns="http://www.w3.org/2000/svg">
<g clip-path="url(#clip0_24668_49456)">
<rect width="920" height="518" rx="32" fill="white"/>
<path d="M0 0H920V558.979H0V0Z" fill="#F1F7FF"/>
<mask id="mask0_24668_49456" style="mask-type:luminance" maskUnits="userSpaceOnUse" x="431" y="0" width="489" height="559">
<path d="M431.44 558.979C488.248 288.544 807.223 338.102 824.299 27.0928C824.798 17.988 823.943 8.93907 823.245 0H920V305.418V558.979H431.44Z" fill="white"/>
</mask>
<g mask="url(#mask0_24668_49456)">
<path d="M431.44 0H920V558.979H431.44V0Z" fill="url(#paint0_linear_24668_49456)"/>
</g>
<mask id="mask1_24668_49456" style="mask-type:luminance" maskUnits="userSpaceOnUse" x="183" y="0" width="642" height="559">
<path d="M766.082 0H823.243C823.941 8.93907 824.297 17.9741 824.297 27.0928C824.297 345.728 530.462 287.672 473.47 558.979H183.798C274.247 172.949 639.991 348.023 766.082 0Z" fill="white"/>
</mask>
<g mask="url(#mask1_24668_49456)">
<path d="M183.798 0H824.297V558.979H183.798V0Z" fill="url(#paint1_linear_24668_49456)"/>
</g>
<mask id="mask2_24668_49456" style="mask-type:luminance" maskUnits="userSpaceOnUse" x="584" y="226" width="336" height="333">
<path d="M920 226.965V305.418V558.979H584.959C671.718 416.265 857.122 394.544 920 226.965Z" fill="white"/>
</mask>
<g mask="url(#mask2_24668_49456)">
<path d="M584.959 226.863H920V558.878H584.959V226.863Z" fill="url(#paint2_linear_24668_49456)"/>
</g>
<path opacity="0.6" d="M369.365 484.703L234.428 406.774C227.869 402.989 228.691 396.381 236.265 392.011L525.048 225.404C532.621 221.034 544.077 220.559 550.635 224.344L685.572 302.273C692.131 306.056 691.309 312.666 683.736 317.036L394.952 483.643C387.379 488.011 375.924 488.486 369.365 484.703Z" fill="#020230"/>
<path d="M678.621 265.985L678.78 266.175L551.107 192.439C544.595 188.682 533.22 189.153 525.702 193.492L239.683 358.502L230.145 354.863L232.823 368.234L232.836 368.226C233.191 370.236 234.6 372.12 237.129 373.579L368.893 449.675C375.406 453.432 386.781 452.961 394.301 448.622L681.046 283.189C684.584 281.148 686.619 278.616 687.123 276.113L687.139 276.132L689.876 263.119L678.621 265.985Z" fill="url(#paint3_radial_24668_49456)"/>
<path d="M369.365 437.914L234.428 359.985C227.869 356.202 228.691 349.592 236.265 345.222L525.048 178.615C532.621 174.245 544.077 173.77 550.635 177.555L685.572 255.484C692.131 259.267 691.309 265.877 683.736 270.247L394.952 436.852C387.379 441.222 375.924 441.697 369.365 437.914Z" fill="url(#paint4_radial_24668_49456)"/>
<path d="M369.54 429.212L245.224 357.433C238.817 353.736 239.62 347.279 247.019 343.01L525.138 182.52C532.537 178.251 543.731 177.787 550.138 181.484L675.453 253.84C681.86 257.537 681.058 263.995 673.658 268.264L394.539 428.176C387.141 432.446 375.948 432.91 369.54 429.212Z" fill="url(#paint5_radial_24668_49456)"/>
<path opacity="0.4" d="M369.54 429.212L245.224 357.433C238.817 353.736 239.62 347.279 247.019 343.01L525.138 182.52C532.537 178.251 543.731 177.787 550.138 181.484L675.453 253.84C681.86 257.537 681.058 263.995 673.658 268.264L394.539 428.176C387.141 432.446 375.948 432.91 369.54 429.212Z" fill="#06033E"/>
<path opacity="0.4" d="M600.52 210.574L595.68 213.367C591.93 215.53 591.523 218.803 594.771 220.676L597.052 221.993C600.299 223.866 605.97 223.631 609.721 221.468L614.555 218.678L600.52 210.574Z" fill="#06033E"/>
<g opacity="0.2">
<path d="M426.284 311.393L485.531 345.657C492.687 349.751 505.16 349.19 513.389 344.403C521.619 339.615 522.488 332.416 515.332 328.32L456.085 294.055C448.928 289.961 436.456 290.521 428.226 295.309C419.998 300.098 419.127 307.297 426.284 311.393Z" fill="url(#paint6_linear_24668_49456)"/>
</g>
<path d="M446.824 309.178L438.516 304.386C437.282 303.675 437.438 302.431 438.862 301.609C440.287 300.788 442.441 300.699 443.675 301.41L451.983 306.202C453.217 306.913 453.063 308.158 451.637 308.979C450.212 309.8 448.058 309.89 446.824 309.178Z" fill="#0668E1"/>
<path d="M477.723 327.003L455.536 314.202C454.302 313.491 454.458 312.247 455.881 311.426C457.306 310.604 459.461 310.515 460.695 311.226L482.882 324.027C484.116 324.738 483.96 325.982 482.537 326.804C481.112 327.625 478.957 327.714 477.723 327.003Z" fill="#0668E1"/>
<path d="M494.551 336.714L486.489 332.062C485.256 331.351 485.41 330.107 486.835 329.286C488.26 328.464 490.415 328.373 491.648 329.086L499.71 333.738C500.943 334.449 500.788 335.693 499.364 336.515C497.939 337.336 495.784 337.425 494.551 336.714Z" fill="#0668E1"/>
<path d="M443.351 262.544L483.484 285.66C490.641 289.754 503.113 289.193 511.343 284.406C519.573 279.618 520.443 272.418 513.285 268.323L473.152 245.207C465.995 241.113 453.523 241.674 445.293 246.461C437.063 251.25 436.194 258.45 443.351 262.544Z" fill="url(#paint7_linear_24668_49456)"/>
<path d="M683.73 266.746L394.947 433.353C387.374 437.722 375.918 438.197 369.36 434.414L234.421 356.485C232.187 355.196 230.875 353.567 230.329 351.822C229.46 354.836 230.732 357.859 234.421 359.986L369.36 437.915C375.918 441.698 387.374 441.224 394.947 436.856L683.73 270.248C688.724 267.368 690.715 263.525 689.659 260.148C688.983 262.493 687.044 264.834 683.73 266.746Z" fill="white"/>
<path d="M297.53 306.181L372.183 349.039C379.339 353.133 391.812 352.572 400.042 347.785C408.271 342.998 409.14 335.798 401.984 331.702L327.331 288.844C320.175 284.75 307.702 285.31 299.473 290.098C291.243 294.887 290.374 302.087 297.53 306.181Z" fill="url(#paint8_linear_24668_49456)"/>
<g opacity="0.6">
<path d="M297.53 346.995L372.183 389.855C379.339 393.949 391.812 393.389 400.042 388.601C408.271 383.814 409.14 376.614 401.984 372.519L327.331 329.66C320.175 325.566 307.702 326.127 299.473 330.914C291.243 335.702 290.374 342.901 297.53 346.995Z" fill="#020230"/>
</g>
<path d="M348.794 321.022L326.607 308.222C325.373 307.511 325.527 306.266 326.952 305.445C328.377 304.624 330.532 304.535 331.766 305.246L353.953 318.046C355.187 318.758 355.033 320.002 353.608 320.823C352.183 321.645 350.028 321.734 348.794 321.022Z" fill="#0668E1"/>
<path d="M365.624 330.737L357.563 326.085C356.329 325.374 356.485 324.13 357.908 323.308C359.334 322.487 361.488 322.398 362.722 323.109L370.783 327.76C372.017 328.472 371.863 329.716 370.438 330.537C369.013 331.36 366.858 331.449 365.624 330.737Z" fill="#0668E1"/>
<path d="M460.794 257.972L454.172 254.152C452.939 253.44 453.094 252.196 454.518 251.375C455.943 250.553 458.098 250.464 459.331 251.175L465.953 254.996C467.187 255.707 467.033 256.951 465.608 257.773C464.182 258.596 462.028 258.685 460.794 257.972Z" fill="#0668E1"/>
<path d="M486.552 272.837L469.094 262.765C467.861 262.054 468.016 260.809 469.44 259.988C470.865 259.167 473.02 259.078 474.253 259.789L491.711 269.861C492.945 270.572 492.791 271.816 491.366 272.638C489.941 273.459 487.786 273.548 486.552 272.837Z" fill="#0668E1"/>
<path d="M650.109 255.392L648.995 254.749L643.609 251.641C642.352 250.917 640.316 250.916 639.06 251.641C637.803 252.366 637.803 253.542 639.06 254.266L644.445 257.373L645.559 258.017L650.945 261.124C652.202 261.848 654.238 261.848 655.495 261.124C656.751 260.4 656.751 259.224 655.495 258.499L650.109 255.392Z" fill="#0668E1"/>
<path d="M548.917 196.798L547.803 196.154L542.418 193.047C541.161 192.323 539.125 192.323 537.868 193.047C536.612 193.771 536.612 194.947 537.868 195.672L543.254 198.779L544.368 199.422L549.754 202.53C551.01 203.254 553.047 203.254 554.303 202.53C555.56 201.805 555.56 200.629 554.303 199.905L548.917 196.798Z" fill="#E8975B"/>
<path d="M569.995 208.822L568.882 208.178L563.496 205.071C562.239 204.347 560.203 204.345 558.946 205.071C557.69 205.795 557.69 206.971 558.946 207.696L564.332 210.803L565.446 211.446L567.165 212.438C568.421 213.164 570.457 213.162 571.714 212.438C572.97 211.714 572.97 210.537 571.714 209.813L569.995 208.822Z" fill="#E8975B"/>
<path d="M534.012 241.834L544.683 235.678L541.985 234.775L543.676 233.797C545.487 234.319 546.856 234.557 547.78 234.506L549.511 235.506L536.278 243.142L534.012 241.834Z" fill="white"/>
<path d="M539.391 244.938L540.986 244.018L549.277 242.963C549.405 242.945 549.731 242.906 550.263 242.846C550.793 242.786 551.155 242.741 551.348 242.707C551.544 242.676 551.832 242.621 552.215 242.545C552.596 242.467 552.925 242.376 553.198 242.273C553.467 242.169 553.733 242.043 553.987 241.897C554.508 241.595 554.812 241.314 554.9 241.05C554.987 240.787 554.829 240.551 554.425 240.343C553.579 239.899 552.466 240.074 551.088 240.868L550.537 241.186L548.303 239.896L548.87 239.57C549.477 239.219 550.081 238.943 550.686 238.742C551.289 238.542 551.905 238.414 552.533 238.359C553.16 238.303 553.794 238.349 554.436 238.498C555.08 238.647 555.702 238.896 556.309 239.246C557.426 239.891 557.969 240.555 557.935 241.233C557.906 241.911 557.335 242.569 556.228 243.208C555.85 243.426 555.461 243.613 555.052 243.765C554.65 243.92 554.209 244.043 553.737 244.137C553.266 244.233 552.851 244.306 552.5 244.356C552.147 244.403 551.682 244.46 551.104 244.526C551.04 244.531 550.993 244.538 550.955 244.542C550.92 244.547 550.879 244.552 550.829 244.557C550.78 244.562 550.733 244.567 550.688 244.573L543.823 245.393L547.792 247.682L545.965 248.735L539.391 244.938Z" fill="white"/>
<path d="M549.164 249.053L551.311 247.813L553.464 249.056L551.319 250.295L549.164 249.053ZM554.566 245.936L556.723 244.691L558.877 245.936L556.721 247.18L554.566 245.936Z" fill="white"/>
<path d="M554.575 253.914C553.395 253.232 552.85 252.54 552.939 251.837C553.028 251.134 553.67 250.441 554.862 249.752L555.334 249.48L557.597 250.787L557.229 251C556.571 251.393 556.167 251.73 556.015 252.012C555.862 252.292 556.018 252.566 556.48 252.835C556.681 252.949 556.892 253.031 557.107 253.075C557.325 253.119 557.529 253.135 557.722 253.12C557.916 253.106 558.132 253.059 558.364 252.975C558.599 252.892 558.821 252.801 559.029 252.699C559.235 252.595 559.475 252.466 559.753 252.307C560.455 251.902 560.877 251.529 561.015 251.184C561.153 250.841 560.952 250.494 560.418 250.147C560.395 250.134 560.339 250.102 560.246 250.044C560.152 249.987 560.097 249.953 560.079 249.945L561.978 248.848C562.15 248.949 562.253 249.004 562.292 249.018C562.894 249.347 563.455 249.495 563.978 249.462C564.502 249.43 565.097 249.222 565.762 248.837C566.347 248.5 566.699 248.195 566.813 247.923C566.928 247.651 566.757 247.385 566.308 247.124C566.115 247.014 565.916 246.936 565.712 246.891C565.509 246.847 565.308 246.829 565.118 246.842C564.925 246.855 564.723 246.896 564.502 246.962C564.285 247.03 564.079 247.11 563.884 247.197C563.69 247.29 563.474 247.4 563.234 247.533L562.787 247.79L560.522 246.483L561.136 246.126C562.265 245.477 563.439 245.146 564.658 245.133C565.874 245.12 567.035 245.431 568.137 246.066C569.249 246.708 569.799 247.377 569.794 248.072C569.784 248.767 569.219 249.439 568.097 250.086C567.346 250.52 566.56 250.787 565.736 250.888C564.909 250.99 564.15 250.928 563.46 250.708C563.833 251.15 563.907 251.615 563.68 252.1C563.453 252.587 562.905 253.08 562.038 253.58C560.778 254.308 559.515 254.716 558.254 254.805C556.994 254.901 555.765 254.601 554.575 253.914Z" fill="white"/>
<path d="M566.269 259.444C564.974 259.507 563.774 259.219 562.658 258.577C561.549 257.936 561.047 257.243 561.16 256.497C561.269 255.75 561.913 255.042 563.083 254.365L568.904 251.01C570.11 250.312 571.347 249.929 572.615 249.858C573.881 249.787 575.087 250.083 576.237 250.746C577.375 251.402 577.884 252.1 577.766 252.836C577.644 253.57 576.984 254.286 575.783 254.979L569.962 258.336C568.795 259.008 567.563 259.379 566.269 259.444ZM564.609 257.453C565.377 257.895 566.407 257.741 567.705 256.993L573.451 253.677C573.621 253.578 573.771 253.487 573.904 253.4C574.033 253.312 574.166 253.215 574.302 253.11C574.439 253.003 574.538 252.897 574.602 252.799C574.667 252.696 574.709 252.593 574.734 252.487C574.76 252.384 574.73 252.275 574.654 252.172C574.576 252.065 574.455 251.963 574.289 251.867C574.092 251.754 573.881 251.681 573.654 251.643C573.422 251.606 573.208 251.6 573.005 251.624C572.804 251.648 572.585 251.702 572.35 251.784C572.119 251.869 571.911 251.953 571.738 252.037C571.564 252.125 571.368 252.228 571.154 252.35L565.408 255.666C564.108 256.416 563.843 257.012 564.609 257.453Z" fill="white"/>
<path d="M434.082 266.722V223.797C434.082 215.982 429.238 206.686 423.317 203.139L377.061 175.43C374.511 173.902 372.164 173.687 370.313 174.553C371.592 173.269 375.631 171.806 379.393 174.06L425.648 201.77C431.57 205.317 436.344 214.03 436.344 221.846L436.09 266.08C436.09 270.528 434.517 273.569 432.072 274.715C433.179 273.148 434.082 269.572 434.082 266.722Z" fill="#64A1ED"/>
<path d="M412.938 268.254L413.293 268.467L400.84 277.444H400.19L412.938 268.254Z" fill="white"/>
<path d="M434.084 266.72V223.795C434.084 215.98 429.24 206.684 423.318 203.137L377.063 175.428C375.645 174.578 374.292 174.143 373.05 174.064C374.465 174.005 376.044 174.427 377.714 175.428L423.969 203.137C429.89 206.684 434.734 215.98 434.734 223.795V266.72C434.734 272.664 431.929 276.096 427.982 275.844C431.58 275.695 434.084 272.331 434.084 266.72Z" fill="white"/>
<path opacity="0.6" d="M376.801 175.859C373.953 174.153 371.486 174.201 369.746 175.455C368.087 176.651 366.942 179.043 366.805 182.488L366.791 183.191V226.116C366.791 229.928 367.975 234.127 369.896 237.814C371.82 241.506 374.457 244.633 377.313 246.345L387.693 252.563L387.814 252.636L387.88 252.761L400.36 276.711L412.64 267.86L412.907 267.668L413.189 267.837L423.569 274.056C426.417 275.761 428.883 275.713 430.623 274.459C432.392 273.184 433.578 270.547 433.578 266.724V223.799C433.578 219.987 432.394 215.788 430.473 212.101C428.549 208.409 425.913 205.281 423.056 203.569L376.801 175.859Z" fill="#E1FAFF" stroke="#0668E1"/>
<path opacity="0.46" d="M377.255 233.771C374.671 229.709 373.202 225.134 373.202 221.092C373.202 217.228 374.54 214.336 376.97 212.951C379.319 211.612 382.343 211.898 385.48 213.76C386.429 214.322 387.398 215.051 388.36 215.926C388.542 216.09 388.646 216.314 388.689 216.552C388.689 216.534 388.687 216.516 388.687 216.498C388.687 210.701 390.662 206.383 394.251 204.337C397.718 202.361 402.212 202.804 406.906 205.591C416.325 211.183 423.988 224.882 423.988 236.13C423.988 240.433 422.88 243.943 420.776 246.328L422.064 253.475C422.149 253.941 421.929 254.408 421.519 254.641C421.348 254.739 421.157 254.787 420.968 254.787C420.706 254.787 420.447 254.696 420.239 254.515L414.394 249.453C411.713 249.633 408.747 248.804 405.768 247.036C402.143 244.884 398.785 241.526 396.018 237.574C396.008 237.63 396.02 237.687 396.001 237.741C395.243 239.974 393.836 241.527 391.932 242.232C391.195 242.505 390.414 242.64 389.597 242.64C387.955 242.64 386.176 242.089 384.344 241.002C383.086 240.256 381.847 239.269 380.653 238.063L375.203 238.723C374.739 238.778 374.282 238.534 374.07 238.111C373.86 237.687 373.941 237.177 374.27 236.839L377.255 233.771Z" fill="#E1FAFF"/>
<path d="M406.342 206.558C415.476 211.98 422.879 225.224 422.879 236.139C422.879 240.568 421.644 243.91 419.586 245.983L420.973 253.68L414.769 248.308C412.299 248.597 409.424 247.916 406.342 246.087C397.209 240.666 389.806 227.421 389.806 216.507C389.806 205.591 397.209 201.137 406.342 206.558ZM374.321 221.099C374.321 214.105 379.065 211.251 384.917 214.725C385.852 215.28 386.753 215.974 387.616 216.759C387.998 223.623 390.783 231.11 394.951 237.392C393.537 241.56 389.583 242.823 384.917 240.054C383.56 239.247 382.267 238.164 381.074 236.9L375.076 237.627L378.684 233.913C376.043 230.043 374.321 225.304 374.321 221.099Z" fill="#1057DE"/>
<path d="M419.582 245.973L420.969 253.67L420.884 253.596L419.523 246.041C419.543 246.019 419.561 245.994 419.582 245.973Z" fill="#109CF3"/>
<path d="M394.808 237.743C390.75 231.524 388.04 224.173 387.664 217.418C386.801 216.634 385.899 215.939 384.965 215.384C379.112 211.911 374.368 214.764 374.368 221.759C374.368 222.121 374.399 222.492 374.423 222.861C374.36 222.264 374.319 221.672 374.319 221.092C374.319 214.097 379.063 211.244 384.916 214.717C385.85 215.272 386.752 215.966 387.615 216.751C387.996 223.615 390.781 231.102 394.949 237.384C394.907 237.508 394.855 237.623 394.808 237.743Z" fill="#109CF3"/>
<path d="M406.39 207.218C397.258 201.797 389.853 206.25 389.853 217.166C389.853 217.719 389.886 218.281 389.923 218.844C389.851 218.054 389.804 217.27 389.804 216.498C389.804 205.583 397.208 201.129 406.341 206.551C415.011 211.698 422.11 223.891 422.809 234.453C421.864 224.05 414.878 212.257 406.39 207.218Z" fill="#109CF3"/>
<path d="M378.957 234.344L375.864 237.529L375.074 237.625L378.682 233.91C378.775 234.053 378.861 234.202 378.957 234.344Z" fill="#109CF3"/>
<g opacity="0.1">
<path d="M377.057 175.433L405.095 192.229L434.078 248.899V266.725C434.078 274.482 429.304 277.971 423.443 274.554L370.848 174.347C372.606 173.749 374.747 174.049 377.057 175.433Z" fill="#E1FAFF"/>
<path d="M366.293 190.96V183.189C366.293 181.922 366.433 180.782 366.671 179.754L412.289 268.729L408.736 271.29L366.293 190.96Z" fill="#E1FAFF"/>
</g>
<path d="M360.146 160.022L359.089 160.232L361.572 158.771C361.664 158.713 361.758 158.658 361.854 158.605L361.946 158.55L361.951 158.552C364.153 157.383 367.117 157.623 370.38 159.559C377.177 163.595 382.688 173.45 382.688 181.574C382.688 185.433 381.442 188.205 379.408 189.621L379.412 189.62L379.374 189.644C379.162 189.789 378.942 189.921 378.713 190.037L376.286 191.485L376.397 190.671C374.618 190.809 372.566 190.276 370.379 188.978C363.582 184.943 358.071 175.087 358.071 166.963C358.071 163.938 358.837 161.582 360.146 160.022ZM370.379 182.321C374.1 184.53 377.117 182.716 377.117 178.268C377.117 173.82 374.1 168.424 370.379 166.215C366.658 164.006 363.641 165.82 363.641 170.268C363.641 174.716 366.658 180.112 370.379 182.321Z" fill="#9BC8FF"/>
<path d="M367.587 161.21C374.384 165.246 379.895 175.101 379.895 183.225C379.895 191.349 374.384 194.663 367.587 190.629C360.79 186.594 355.28 176.738 355.28 168.614C355.28 160.49 360.79 157.175 367.587 161.21ZM367.587 183.974C371.308 186.182 374.325 184.368 374.325 179.92C374.325 175.473 371.308 170.076 367.587 167.867C363.866 165.658 360.849 167.472 360.849 171.92C360.849 176.367 363.866 181.764 367.587 183.974Z" fill="#53EFFF"/>
<path d="M355.28 168.739C355.28 160.615 360.79 157.301 367.587 161.335C374.384 165.37 379.895 175.226 379.895 183.35C379.895 191.474 374.384 194.788 367.587 190.754C360.789 186.719 355.28 176.863 355.28 168.739ZM374.325 180.045C374.325 175.597 371.308 170.2 367.587 167.992C363.866 165.783 360.849 167.597 360.849 172.045C360.849 176.492 363.866 181.889 367.587 184.098C371.308 186.307 374.325 184.493 374.325 180.045Z" fill="#2467E1"/>
<path d="M356.855 169.541C356.855 162.46 361.658 159.57 367.584 163.088C373.51 166.606 378.312 175.198 378.312 182.279C378.312 189.361 373.51 192.251 367.584 188.733C361.659 185.215 356.855 176.623 356.855 169.541Z" fill="#9BC8FF"/>
<path d="M362.19 165.669C362.443 165.534 362.716 165.565 363.008 165.762C363.31 165.966 363.544 166.153 363.71 166.324C363.875 166.494 364.002 166.65 364.09 166.791C364.177 166.921 364.245 167.09 364.294 167.3C364.343 167.532 364.367 167.86 364.367 168.283V178.102C364.367 178.372 364.357 178.571 364.338 178.699C364.328 178.822 364.284 178.945 364.206 179.068C364.07 179.294 363.69 179.196 363.067 178.776C362.463 178.368 362.087 177.962 361.941 177.558C361.863 177.329 361.815 177.138 361.795 176.984C361.785 176.824 361.781 176.604 361.781 176.322V170.029L361.591 170.112C361.191 170.207 360.85 170.159 360.568 169.968C360.285 169.778 359.988 169.372 359.676 168.75C359.374 168.135 359.223 167.669 359.223 167.352C359.223 167.034 359.398 166.806 359.749 166.667L362.146 165.674L362.19 165.669ZM372.35 181.899C372.749 182.169 373.032 182.418 373.197 182.647C373.373 182.871 373.49 183.121 373.548 183.395C373.607 183.658 373.636 183.977 373.636 184.353C373.636 184.718 373.602 184.988 373.533 185.166C373.475 185.35 373.373 185.433 373.227 185.417C373.012 185.413 372.71 185.28 372.32 185.017L366.606 181.163C366.256 180.927 365.954 180.564 365.7 180.076C365.447 179.588 365.32 179.132 365.32 178.709C365.32 178.075 365.501 177.615 365.861 177.329C366.231 177.038 366.675 176.879 367.191 176.851C367.707 176.811 368.224 176.784 368.74 176.768C369.256 176.74 369.695 176.613 370.055 176.386C370.426 176.165 370.611 175.791 370.611 175.262C370.611 175.156 370.577 174.986 370.508 174.752C370.44 174.506 370.362 174.295 370.275 174.119C370.197 173.937 370.07 173.734 369.895 173.51C369.719 173.286 369.476 173.068 369.164 172.858C368.852 172.648 368.579 172.605 368.346 172.729C368.121 172.848 367.995 173.033 367.966 173.284L367.907 173.65V173.756C367.907 174.014 367.897 174.201 367.878 174.318C367.868 174.44 367.824 174.558 367.746 174.67C367.6 174.853 367.22 174.738 366.606 174.324C365.924 173.864 365.52 173.368 365.393 172.836C365.345 172.615 365.32 172.299 365.32 171.887C365.32 170.665 365.681 169.816 366.402 169.338C367.133 168.856 368.082 169.009 369.252 169.797C370.43 170.592 371.385 171.73 372.116 173.21C372.847 174.678 373.212 176.041 373.212 177.298C373.212 177.968 373.09 178.521 372.847 178.956C372.603 179.391 372.311 179.676 371.97 179.81C371.249 180.099 370.606 180.188 370.041 180.078L369.675 180.007V180.096L372.35 181.899Z" fill="#2467E1"/>
<path d="M508.591 319.611V288.232C508.591 282.519 512.132 275.723 516.461 273.131L550.274 252.874C552.138 251.758 553.854 251.6 555.207 252.234C554.272 251.295 551.32 250.225 548.57 251.874L514.756 272.13C510.427 274.722 506.938 281.092 506.938 286.806L507.123 319.141C507.123 322.394 508.273 324.616 510.06 325.454C509.251 324.308 508.591 321.694 508.591 319.611Z" fill="#64A1ED"/>
<path d="M524.049 320.73L523.789 320.886L532.893 327.449H533.368L524.049 320.73Z" fill="white"/>
<path d="M508.589 319.608V288.229C508.589 282.516 512.13 275.721 516.459 273.128L550.272 252.872C551.309 252.251 552.298 251.933 553.206 251.875C552.171 251.832 551.017 252.141 549.797 252.872L515.983 273.128C511.654 275.721 508.113 282.516 508.113 288.229V319.608C508.113 323.954 510.164 326.462 513.05 326.278C510.419 326.169 508.589 323.71 508.589 319.608Z" fill="white"/>
<path opacity="0.6" d="M550.465 253.188C552.547 251.94 554.35 251.975 555.622 252.892C556.915 253.824 557.782 255.752 557.782 258.547V289.926C557.782 292.712 556.917 295.782 555.512 298.478C554.105 301.176 552.178 303.463 550.09 304.714L542.502 309.259L542.413 309.312L542.365 309.404L533.241 326.911L524.266 320.441L524.07 320.301L523.864 320.425L516.275 324.971C514.194 326.217 512.391 326.183 511.119 325.266C509.826 324.333 508.959 322.405 508.959 319.61V288.231C508.959 285.445 509.825 282.375 511.229 279.68C512.636 276.981 514.563 274.695 516.651 273.444L550.465 253.188Z" fill="#E1FAFF" stroke="#0668E1" stroke-width="0.731019"/>
<path opacity="0.46" d="M550.132 295.523C552.02 292.554 553.095 289.209 553.095 286.254C553.095 283.429 552.116 281.316 550.34 280.303C548.622 279.324 546.412 279.533 544.119 280.894C543.426 281.305 542.717 281.838 542.013 282.478C541.881 282.598 541.805 282.762 541.773 282.935C541.773 282.922 541.775 282.909 541.775 282.896C541.775 278.658 540.331 275.502 537.708 274.006C535.173 272.562 531.888 272.885 528.456 274.923C521.57 279.011 515.969 289.025 515.969 297.248C515.969 300.393 516.779 302.959 518.317 304.703L517.375 309.927C517.313 310.267 517.474 310.609 517.774 310.779C517.899 310.851 518.038 310.886 518.177 310.886C518.368 310.886 518.558 310.819 518.709 310.687L522.983 306.986C524.942 307.119 527.11 306.512 529.288 305.22C531.938 303.647 534.393 301.192 536.416 298.303C536.423 298.344 536.414 298.386 536.428 298.425C536.982 300.057 538.01 301.193 539.402 301.708C539.941 301.908 540.512 302.006 541.109 302.006C542.31 302.006 543.61 301.604 544.949 300.809C545.869 300.264 546.775 299.542 547.648 298.66L551.632 299.143C551.971 299.183 552.305 299.005 552.46 298.695C552.613 298.386 552.555 298.013 552.313 297.765L550.132 295.523Z" fill="#E1FAFF"/>
<path d="M528.87 275.629C522.193 279.592 516.781 289.274 516.781 297.253C516.781 300.49 517.684 302.934 519.189 304.449L518.175 310.076L522.709 306.149C524.515 306.36 526.617 305.862 528.87 304.525C535.547 300.562 540.958 290.88 540.958 282.901C540.958 274.921 535.547 271.666 528.87 275.629ZM552.278 286.259C552.278 281.145 548.81 279.06 544.532 281.599C543.849 282.005 543.19 282.512 542.559 283.085C542.28 288.103 540.244 293.577 537.197 298.169C538.231 301.216 541.121 302.139 544.532 300.114C545.524 299.525 546.47 298.733 547.341 297.809L551.726 298.341L549.089 295.626C551.019 292.797 552.278 289.332 552.278 286.259Z" fill="#1057DE"/>
<path d="M519.19 304.441L518.176 310.068L518.238 310.014L519.233 304.491C519.218 304.476 519.205 304.457 519.19 304.441Z" fill="#109CF3"/>
<path d="M537.303 298.425C540.269 293.879 542.25 288.505 542.525 283.567C543.156 282.994 543.815 282.486 544.498 282.08C548.776 279.541 552.244 281.627 552.244 286.74C552.244 287.005 552.222 287.277 552.204 287.546C552.251 287.109 552.28 286.677 552.28 286.253C552.28 281.14 548.812 279.054 544.534 281.593C543.851 281.999 543.192 282.506 542.561 283.08C542.282 288.097 540.246 293.571 537.199 298.163C537.23 298.253 537.268 298.337 537.303 298.425Z" fill="#109CF3"/>
<path d="M528.834 276.109C535.51 272.146 540.923 275.401 540.923 283.381C540.923 283.785 540.899 284.196 540.872 284.608C540.924 284.03 540.959 283.457 540.959 282.893C540.959 274.914 535.547 271.658 528.87 275.621C522.532 279.384 517.343 288.297 516.832 296.019C517.523 288.414 522.629 279.792 528.834 276.109Z" fill="#109CF3"/>
<path d="M548.887 295.938L551.148 298.267L551.725 298.337L549.088 295.621C549.019 295.725 548.957 295.835 548.887 295.938Z" fill="#109CF3"/>
<g opacity="0.1">
<path d="M550.277 252.874L529.781 265.153L508.594 306.58V319.611C508.594 325.282 512.084 327.832 516.368 325.335L554.816 252.081C553.531 251.644 551.966 251.863 550.277 252.874Z" fill="#E1FAFF"/>
<path d="M558.147 264.227V258.546C558.147 257.62 558.045 256.787 557.871 256.035L524.523 321.078L527.121 322.95L558.147 264.227Z" fill="#E1FAFF"/>
</g>
<path d="M562.639 241.612L563.411 241.765L561.596 240.697C561.528 240.655 561.46 240.615 561.39 240.576L561.322 240.536L561.319 240.538C559.709 239.683 557.543 239.858 555.157 241.274C550.188 244.223 546.16 251.428 546.16 257.367C546.16 260.188 547.071 262.214 548.558 263.25L548.555 263.249L548.582 263.266C548.737 263.372 548.898 263.469 549.065 263.554L550.84 264.612L550.758 264.017C552.059 264.118 553.559 263.728 555.158 262.779C560.127 259.829 564.155 252.625 564.155 246.686C564.155 244.475 563.595 242.752 562.639 241.612ZM555.158 257.913C552.438 259.528 550.232 258.202 550.232 254.95C550.232 251.699 552.438 247.754 555.158 246.139C557.878 244.524 560.084 245.85 560.084 249.102C560.084 252.353 557.878 256.298 555.158 257.913Z" fill="#9BC8FF"/>
<path d="M557.2 242.483C552.231 245.432 548.203 252.637 548.203 258.576C548.203 264.515 552.231 266.937 557.2 263.988C562.169 261.038 566.197 253.834 566.197 247.895C566.197 241.956 562.169 239.533 557.2 242.483ZM557.2 259.123C554.48 260.738 552.274 259.411 552.274 256.16C552.274 252.909 554.48 248.963 557.2 247.349C559.92 245.734 562.126 247.06 562.126 250.312C562.126 253.562 559.92 257.507 557.2 259.123Z" fill="#53EFFF"/>
<path d="M566.197 247.984C566.197 242.046 562.169 239.623 557.2 242.572C552.231 245.522 548.203 252.727 548.203 258.665C548.203 264.604 552.231 267.027 557.2 264.078C562.17 261.129 566.197 253.923 566.197 247.984ZM552.274 256.249C552.274 252.998 554.48 249.053 557.2 247.438C559.92 245.824 562.126 247.15 562.126 250.401C562.126 253.653 559.92 257.598 557.2 259.212C554.48 260.827 552.274 259.501 552.274 256.249Z" fill="#2467E1"/>
<path d="M565.045 248.571C565.045 243.394 561.534 241.281 557.202 243.853C552.87 246.424 549.359 252.706 549.359 257.882C549.359 263.059 552.87 265.172 557.202 262.6C561.533 260.028 565.045 253.747 565.045 248.571Z" fill="#9BC8FF"/>
<path d="M554.589 251.7C555.292 251.278 555.846 251.178 556.252 251.401C556.657 251.624 556.86 252.028 556.86 252.615C556.86 253.195 556.637 253.749 556.192 254.277V254.347C556.249 254.346 556.332 254.369 556.44 254.417C556.554 254.455 556.646 254.507 556.714 254.573C556.903 254.739 556.997 255.003 556.997 255.363C556.997 256.076 556.769 256.803 556.312 257.545C555.854 258.279 555.28 258.854 554.589 259.27C553.903 259.682 553.331 259.792 552.874 259.6C552.703 259.523 552.551 259.377 552.42 259.163C552.374 259.084 552.343 259.016 552.326 258.96L552.309 258.87C552.246 258.688 552.214 258.527 552.214 258.387C552.214 258 552.494 257.638 553.054 257.302C553.283 257.164 553.434 257.107 553.509 257.129C553.606 257.157 553.691 257.279 553.766 257.494C553.823 257.673 553.98 257.739 554.237 257.691C554.346 257.666 554.466 257.614 554.597 257.535C554.9 257.353 555.123 257.149 555.266 256.923C555.409 256.691 555.48 256.484 555.48 256.304C555.48 256.124 555.409 256.011 555.266 255.963C555.129 255.905 554.963 255.935 554.769 256.052C554.58 256.165 554.451 256.236 554.383 256.264C554.314 256.291 554.24 256.303 554.16 256.297C554.006 256.303 553.929 256.093 553.929 255.666C553.929 255.2 554.034 254.86 554.246 254.646C554.343 254.554 554.491 254.448 554.692 254.328C555.126 254.067 555.343 253.807 555.343 253.547C555.343 253.407 555.286 253.308 555.172 253.25C555.057 253.192 554.897 253.224 554.692 253.348C554.491 253.468 554.331 253.604 554.211 253.757C554.091 253.909 554.017 254.033 553.989 254.13L553.937 254.281C553.806 254.694 553.617 254.974 553.371 255.121C553.229 255.207 553.071 255.242 552.9 255.225C552.614 255.203 552.471 255.065 552.471 254.812C552.471 254.705 552.537 254.439 552.669 254.014C552.691 253.94 552.754 253.799 552.857 253.59C552.96 253.375 553.077 253.171 553.209 252.979C553.346 252.783 553.534 252.567 553.774 252.329C554.02 252.088 554.291 251.878 554.589 251.7ZM561.552 253.196C561.787 253.055 561.952 252.989 562.049 252.997C562.152 252.995 562.221 253.051 562.255 253.163C562.289 253.269 562.307 253.429 562.307 253.643C562.307 253.849 562.287 254.028 562.247 254.179C562.212 254.326 562.152 254.449 562.067 254.547C561.941 254.702 561.764 254.849 561.535 254.986L558.184 257C557.978 257.123 557.801 257.14 557.652 257.049C557.504 256.958 557.429 256.793 557.429 256.553C557.429 256.193 557.535 255.8 557.746 255.373C557.964 254.935 558.224 254.519 558.526 254.124C558.829 253.722 559.132 253.327 559.435 252.938C559.738 252.543 559.995 252.148 560.207 251.754C560.424 251.357 560.532 251.009 560.532 250.709C560.532 250.649 560.512 250.577 560.472 250.495C560.432 250.405 560.387 250.343 560.335 250.307C560.289 250.261 560.215 250.239 560.112 250.241C560.009 250.243 559.866 250.299 559.684 250.409C559.501 250.518 559.341 250.695 559.204 250.937C559.072 251.169 558.998 251.367 558.981 251.531L558.946 251.781V251.841C558.946 251.988 558.941 252.102 558.929 252.182C558.924 252.259 558.898 252.357 558.852 252.478C558.766 252.69 558.544 252.904 558.184 253.12C557.784 253.36 557.546 253.376 557.472 253.167C557.444 253.078 557.429 252.916 557.429 252.683C557.429 251.99 557.641 251.243 558.064 250.442C558.492 249.631 559.049 249.02 559.735 248.608C560.427 248.192 560.987 248.136 561.415 248.438C561.844 248.734 562.058 249.239 562.058 249.952C562.058 250.332 561.987 250.735 561.844 251.161C561.701 251.586 561.529 251.963 561.329 252.29C560.907 252.984 560.529 253.507 560.198 253.859L559.984 254.088V254.138L561.552 253.196Z" fill="#2467E1"/>
<path d="M446.52 175.895V123.959C446.52 114.503 452.381 103.255 459.545 98.9632L515.512 65.4357C518.598 63.587 521.437 63.3272 523.676 64.3753C522.127 62.8221 517.242 61.0514 512.69 63.7788L456.723 97.3063C449.559 101.598 443.781 112.141 443.781 121.597L444.089 175.118C444.089 180.501 445.992 184.181 448.95 185.567C447.613 183.669 446.52 179.343 446.52 175.895Z" fill="#70AAEF"/>
<path d="M472.11 177.77L471.68 178.027L486.748 188.888H487.534L472.11 177.77Z" fill="white"/>
<path d="M446.526 175.897V123.961C446.526 114.506 452.387 103.257 459.551 98.9655L515.518 65.438C517.234 64.41 518.87 63.8837 520.373 63.7878C518.662 63.7164 516.752 64.2271 514.731 65.438L458.764 98.9655C451.601 103.257 445.738 114.506 445.738 123.961V175.897C445.738 183.089 449.133 187.243 453.908 186.937C449.554 186.755 446.526 182.686 446.526 175.897Z" fill="white"/>
<path opacity="0.6" d="M515.776 65.8691C519.245 63.7911 522.276 63.836 524.426 65.3857C526.605 66.9566 528.045 70.1871 528.045 74.8311V126.768C528.045 131.4 526.607 136.497 524.275 140.971C521.942 145.448 518.742 149.25 515.264 151.334L502.704 158.857L502.583 158.93L502.518 159.055L487.359 188.14L472.404 177.36L472.137 177.168L471.854 177.337L459.295 184.86C455.826 186.938 452.795 186.894 450.646 185.344C448.467 183.773 447.027 180.543 447.027 175.899V123.963L447.031 123.527C447.118 119.013 448.539 114.095 450.797 109.761C453.13 105.283 456.331 101.48 459.81 99.3965L515.776 65.8691Z" fill="#E1FAFF" stroke="#0668E1"/>
<g clip-path="url(#clip1_24668_49456)">
<path d="M487.118 109.979C487.118 109.647 487.233 109.265 487.438 108.917C487.643 108.569 487.921 108.283 488.211 108.123L494.771 104.487C495.061 104.326 495.339 104.304 495.544 104.424C495.749 104.545 495.864 104.799 495.864 105.131C495.864 105.462 495.749 105.844 495.544 106.192C495.339 106.54 495.061 106.826 494.771 106.987L493.677 107.593V110.268C496.655 109.109 499.44 109.049 501.684 110.095C503.929 111.142 505.533 113.248 506.297 116.152C507.061 119.056 506.95 122.628 505.979 126.422C505.008 130.216 503.219 134.064 500.836 137.485L502.15 138.261C502.355 138.382 502.471 138.636 502.471 138.967C502.471 139.299 502.356 139.681 502.151 140.029C501.946 140.378 501.668 140.664 501.378 140.825C501.088 140.986 500.81 141.009 500.604 140.888L498.973 139.927C496.688 142.66 494.111 144.857 491.491 146.305C488.87 147.762 486.293 148.422 484.008 148.222L482.377 150.991C482.276 151.164 482.155 151.323 482.022 151.459C481.889 151.595 481.747 151.706 481.604 151.786C481.46 151.866 481.318 151.912 481.185 151.922C481.052 151.933 480.932 151.908 480.83 151.848C480.729 151.788 480.648 151.694 480.593 151.573C480.538 151.452 480.51 151.305 480.51 151.14C480.511 150.809 480.626 150.427 480.831 150.078L482.148 147.844C479.765 147.065 477.976 145.2 477.005 142.483C476.034 139.766 475.923 136.317 476.686 132.567C477.45 128.816 479.054 124.931 481.298 121.396C483.542 117.862 486.327 114.834 489.304 112.692V110.017L488.211 110.623C487.921 110.783 487.643 110.806 487.438 110.685C487.233 110.564 487.118 110.31 487.118 109.979ZM492.584 119.449C492.584 119.117 492.469 118.863 492.264 118.742C492.059 118.622 491.781 118.644 491.491 118.805C491.201 118.965 490.923 119.251 490.718 119.599C490.513 119.947 490.397 120.329 490.397 120.661V129.066L487.273 136.748C487.124 137.115 487.079 137.48 487.15 137.763C487.22 138.046 487.399 138.223 487.648 138.256C487.897 138.289 488.195 138.175 488.476 137.938C488.758 137.702 489 137.363 489.149 136.995L492.429 128.927C492.53 128.677 492.584 128.425 492.584 128.199V119.449ZM475.879 128.426C475.313 128.177 474.855 127.741 474.532 127.146C474.209 126.551 474.029 125.81 474.003 124.967C473.977 124.125 474.106 123.2 474.381 122.25C474.655 121.3 475.071 120.345 475.601 119.445C476.131 118.545 476.765 117.719 477.463 117.018C478.16 116.317 478.907 115.756 479.656 115.37C480.406 114.985 481.142 114.782 481.819 114.776C482.495 114.77 483.099 114.96 483.591 115.334C480.268 119.106 477.567 123.691 475.879 128.426ZM499.391 106.576C499.883 105.656 500.486 104.797 501.163 104.053C501.84 103.309 502.576 102.696 503.325 102.25C504.075 101.805 504.821 101.538 505.519 101.466C506.217 101.393 506.85 101.517 507.38 101.829C507.911 102.142 508.326 102.636 508.601 103.281C508.876 103.926 509.004 104.709 508.978 105.58C508.952 106.452 508.772 107.393 508.45 108.346C508.127 109.298 507.668 110.242 507.103 111.118C505.415 108.254 502.714 106.664 499.391 106.576Z" fill="#0668E1"/>
</g>
<g clip-path="url(#clip2_24668_49456)">
<path d="M521.871 132.387C521.871 132.188 521.94 131.959 522.063 131.75C522.186 131.542 522.353 131.37 522.527 131.274L526.462 129.092C526.636 128.996 526.803 128.982 526.926 129.055C527.049 129.127 527.118 129.279 527.118 129.478C527.118 129.677 527.049 129.906 526.926 130.115C526.803 130.324 526.636 130.496 526.462 130.592L525.806 130.956V132.561C527.593 131.865 529.264 131.829 530.611 132.457C531.957 133.085 532.92 134.349 533.378 136.091C533.836 137.834 533.77 139.977 533.187 142.253C532.605 144.53 531.531 146.838 530.102 148.891L530.89 149.357C531.013 149.429 531.083 149.581 531.083 149.78C531.083 149.979 531.014 150.209 530.891 150.418C530.768 150.627 530.601 150.798 530.427 150.895C530.253 150.992 530.086 151.005 529.963 150.933L528.984 150.356C527.613 151.996 526.067 153.314 524.494 154.183C522.922 155.057 521.376 155.453 520.005 155.333L519.026 156.995C518.965 157.098 518.893 157.194 518.813 157.275C518.734 157.357 518.648 157.424 518.562 157.472C518.476 157.519 518.391 157.547 518.311 157.553C518.231 157.56 518.159 157.545 518.098 157.509C518.037 157.473 517.989 157.417 517.956 157.344C517.923 157.271 517.906 157.183 517.906 157.084C517.906 156.885 517.976 156.656 518.099 156.447L518.889 155.106C517.459 154.639 516.386 153.52 515.803 151.89C515.22 150.26 515.154 148.19 515.612 145.94C516.07 143.69 517.032 141.359 518.379 139.238C519.725 137.117 521.396 135.3 523.183 134.015V132.41L522.527 132.774C522.353 132.87 522.186 132.884 522.063 132.811C521.94 132.739 521.871 132.586 521.871 132.387ZM525.15 138.069C525.15 137.87 525.081 137.718 524.958 137.645C524.835 137.573 524.668 137.586 524.494 137.683C524.32 137.779 524.154 137.951 524.031 138.16C523.908 138.368 523.838 138.598 523.838 138.796V143.839L521.964 148.449C521.874 148.669 521.848 148.888 521.89 149.058C521.932 149.228 522.039 149.334 522.189 149.354C522.338 149.373 522.517 149.305 522.686 149.163C522.855 149.021 523 148.818 523.089 148.597L525.057 143.756C525.118 143.606 525.15 143.455 525.15 143.319V138.069ZM515.127 143.456C514.788 143.306 514.513 143.045 514.319 142.688C514.126 142.331 514.018 141.886 514.002 141.38C513.986 140.875 514.063 140.32 514.228 139.75C514.393 139.18 514.643 138.607 514.961 138.067C515.279 137.527 515.659 137.031 516.078 136.611C516.496 136.19 516.944 135.854 517.394 135.622C517.843 135.391 518.285 135.269 518.691 135.266C519.097 135.262 519.459 135.376 519.754 135.6C517.761 137.864 516.14 140.614 515.127 143.456ZM529.234 130.345C529.53 129.794 529.892 129.278 530.298 128.832C530.704 128.386 531.146 128.017 531.595 127.75C532.045 127.483 532.493 127.323 532.911 127.279C533.33 127.236 533.71 127.31 534.028 127.498C534.346 127.685 534.596 127.982 534.761 128.369C534.926 128.756 535.003 129.225 534.987 129.748C534.971 130.271 534.863 130.836 534.67 131.407C534.476 131.979 534.201 132.545 533.862 133.071C532.849 131.353 531.228 130.398 529.234 130.345Z" fill="#0668E1"/>
</g>
<g clip-path="url(#clip3_24668_49456)">
<path d="M540.247 98.5915C540.247 98.4589 540.293 98.3062 540.375 98.167C540.457 98.0277 540.568 97.9134 540.684 97.8491L543.308 96.3947C543.424 96.3304 543.535 96.3214 543.617 96.3697C543.699 96.418 543.746 96.5197 543.746 96.6523C543.746 96.7849 543.699 96.9376 543.617 97.0768C543.535 97.216 543.424 97.3304 543.308 97.3947L542.871 97.6371V98.7071C544.062 98.2434 545.176 98.2194 546.074 98.6381C546.971 99.0567 547.613 99.8994 547.919 101.061C548.224 102.222 548.18 103.651 547.791 105.169C547.403 106.686 546.688 108.225 545.734 109.594L546.26 109.904C546.342 109.953 546.388 110.054 546.388 110.187C546.389 110.32 546.343 110.472 546.261 110.612C546.179 110.751 546.067 110.866 545.951 110.93C545.835 110.994 545.724 111.003 545.642 110.955L544.989 110.571C544.075 111.664 543.044 112.543 541.996 113.122C540.948 113.705 539.917 113.969 539.003 113.889L538.351 114.997C538.31 115.066 538.262 115.129 538.209 115.184C538.156 115.238 538.099 115.283 538.041 115.314C537.984 115.346 537.927 115.365 537.874 115.369C537.821 115.373 537.773 115.363 537.732 115.339C537.691 115.315 537.659 115.278 537.637 115.229C537.615 115.181 537.604 115.122 537.604 115.056C537.604 114.923 537.65 114.771 537.733 114.631L538.259 113.737C537.306 113.426 536.59 112.68 536.202 111.593C535.813 110.506 535.769 109.127 536.075 107.627C536.38 106.127 537.022 104.572 537.919 103.159C538.817 101.745 539.931 100.534 541.122 99.6767V98.6067L540.684 98.8491C540.568 98.9134 540.457 98.9224 540.375 98.8741C540.293 98.8258 540.247 98.7241 540.247 98.5915ZM542.434 102.379C542.434 102.247 542.388 102.145 542.306 102.097C542.224 102.049 542.112 102.058 541.996 102.122C541.88 102.186 541.769 102.301 541.687 102.44C541.605 102.579 541.559 102.732 541.559 102.864V106.226L540.309 109.299C540.249 109.446 540.232 109.592 540.26 109.705C540.288 109.818 540.36 109.889 540.459 109.902C540.559 109.916 540.678 109.87 540.79 109.775C540.903 109.681 541 109.545 541.06 109.398L542.372 106.171C542.412 106.071 542.434 105.97 542.434 105.879V102.379ZM535.752 105.97C535.525 105.871 535.342 105.697 535.213 105.459C535.084 105.221 535.012 104.924 535.001 104.587C534.991 104.25 535.042 103.88 535.152 103.5C535.262 103.12 535.428 102.738 535.64 102.378C535.853 102.018 536.106 101.687 536.385 101.407C536.664 101.127 536.963 100.902 537.263 100.748C537.562 100.594 537.857 100.513 538.127 100.51C538.398 100.508 538.639 100.584 538.836 100.734C537.507 102.242 536.427 104.076 535.752 105.97ZM545.156 97.2303C545.353 96.8624 545.594 96.519 545.865 96.2214C546.136 95.9237 546.43 95.6782 546.73 95.5002C547.03 95.3221 547.329 95.2152 547.608 95.1863C547.887 95.1573 548.14 95.2068 548.352 95.3317C548.564 95.4567 548.73 95.6543 548.84 95.9125C548.95 96.1706 549.002 96.4836 548.991 96.8321C548.981 97.1806 548.909 97.5571 548.78 97.9382C548.651 98.3193 548.467 98.6968 548.241 99.0473C547.566 97.9018 546.486 97.2655 545.156 97.2303Z" fill="#0668E1"/>
</g>
<g clip-path="url(#clip4_24668_49456)">
<path d="M548.279 132.495C548.279 132.412 548.308 132.316 548.359 132.229C548.411 132.142 548.48 132.071 548.553 132.031L550.193 131.122C550.265 131.081 550.335 131.076 550.386 131.106C550.437 131.136 550.466 131.2 550.466 131.283C550.466 131.366 550.437 131.461 550.386 131.548C550.335 131.635 550.265 131.706 550.193 131.747L549.919 131.898V132.567C550.664 132.277 551.36 132.262 551.921 132.524C552.482 132.785 552.883 133.312 553.074 134.038C553.265 134.764 553.237 135.657 552.995 136.605C552.752 137.554 552.305 138.516 551.709 139.371L552.038 139.565C552.089 139.595 552.118 139.659 552.118 139.742C552.118 139.825 552.089 139.92 552.038 140.007C551.987 140.094 551.917 140.166 551.845 140.206C551.772 140.246 551.702 140.252 551.651 140.222L551.243 139.982C550.672 140.665 550.028 141.214 549.373 141.576C548.718 141.94 548.073 142.106 547.502 142.056L547.094 142.748C547.069 142.791 547.039 142.831 547.006 142.865C546.972 142.899 546.937 142.927 546.901 142.947C546.865 142.966 546.829 142.978 546.796 142.981C546.763 142.983 546.733 142.977 546.708 142.962C546.682 142.947 546.662 142.924 546.648 142.893C546.635 142.863 546.628 142.826 546.628 142.785C546.628 142.702 546.657 142.607 546.708 142.52L547.037 141.961C546.441 141.766 545.994 141.3 545.751 140.621C545.508 139.941 545.481 139.079 545.672 138.142C545.862 137.204 546.263 136.233 546.824 135.349C547.385 134.465 548.082 133.709 548.826 133.173V132.504L548.553 132.656C548.48 132.696 548.411 132.701 548.359 132.671C548.308 132.641 548.279 132.578 548.279 132.495ZM549.646 134.862C549.646 134.779 549.617 134.716 549.566 134.686C549.515 134.655 549.445 134.661 549.373 134.701C549.3 134.741 549.231 134.813 549.179 134.9C549.128 134.987 549.099 135.082 549.099 135.165V137.266L548.318 139.187C548.281 139.279 548.27 139.37 548.287 139.441C548.305 139.511 548.35 139.556 548.412 139.564C548.474 139.572 548.549 139.544 548.619 139.485C548.689 139.425 548.75 139.341 548.787 139.249L549.607 137.232C549.633 137.169 549.646 137.106 549.646 137.05V134.862ZM545.47 137.107C545.328 137.044 545.214 136.935 545.133 136.787C545.052 136.638 545.007 136.452 545.001 136.242C544.994 136.031 545.026 135.8 545.095 135.562C545.164 135.325 545.268 135.086 545.4 134.861C545.533 134.636 545.691 134.43 545.866 134.254C546.04 134.079 546.227 133.939 546.414 133.843C546.601 133.746 546.785 133.696 546.955 133.694C547.124 133.692 547.275 133.74 547.398 133.833C546.567 134.776 545.892 135.923 545.47 137.107ZM551.348 131.644C551.471 131.414 551.622 131.199 551.791 131.013C551.96 130.827 552.144 130.674 552.331 130.563C552.519 130.451 552.705 130.385 552.88 130.366C553.054 130.348 553.213 130.379 553.345 130.457C553.478 130.535 553.582 130.659 553.65 130.82C553.719 130.982 553.751 131.177 553.745 131.395C553.738 131.613 553.693 131.848 553.612 132.086C553.532 132.325 553.417 132.561 553.276 132.78C552.854 132.064 552.178 131.666 551.348 131.644Z" fill="#0668E1"/>
</g>
<g opacity="0.1">
<path d="M515.52 65.4365L481.596 85.7588L446.527 154.327V175.896C446.527 185.281 452.304 189.504 459.395 185.369L523.032 64.123C520.905 63.3993 518.316 63.7628 515.52 65.4365Z" fill="#E1FAFF"/>
<path d="M528.539 84.2316V74.8287C528.539 73.2955 528.371 71.9162 528.082 70.6719L472.887 178.327L477.186 181.427L528.539 84.2316Z" fill="#E1FAFF"/>
</g>
<path d="M535.988 46.7999L537.267 47.053L534.262 45.2857C534.151 45.2154 534.037 45.1497 533.921 45.085L533.81 45.0192L533.806 45.0214C531.141 43.6065 527.554 43.8964 523.606 46.239C515.382 51.1206 508.715 63.0468 508.715 72.8757C508.715 77.5454 510.222 80.8983 512.683 82.6121L512.678 82.611L512.724 82.6388C512.981 82.815 513.247 82.9744 513.523 83.1149L516.46 84.8655L516.325 83.881C518.479 84.0482 520.961 83.4037 523.607 81.8327C531.831 76.9511 538.498 65.0249 538.498 55.196C538.497 51.5387 537.572 48.6876 535.988 46.7999ZM523.606 73.7811C519.103 76.4538 515.453 74.2584 515.453 68.8762C515.453 63.494 519.103 56.9644 523.606 54.2917C528.109 51.619 531.759 53.8145 531.759 59.1967C531.759 64.5789 528.109 71.1084 523.606 73.7811Z" fill="#9BC8FF"/>
<path d="M526.985 48.2271C518.761 53.1086 512.094 65.0349 512.094 74.8638C512.094 84.6927 518.761 88.7034 526.985 83.8218C535.209 78.9403 541.876 67.014 541.876 57.1851C541.876 47.3551 535.209 43.3455 526.985 48.2271ZM526.985 75.7692C522.482 78.4419 518.832 76.2464 518.832 70.8642C518.832 65.4831 522.482 58.9536 526.985 56.2797C531.488 53.6059 535.138 55.8025 535.138 61.1847C535.138 66.5658 531.488 73.0953 526.985 75.7692Z" fill="#0668E1"/>
<path d="M541.876 57.3373C541.876 47.5084 535.209 43.4977 526.985 48.3792C518.761 53.2608 512.094 65.187 512.094 75.0159C512.094 84.8448 518.761 88.8555 526.985 83.974C535.209 79.0913 541.876 67.1662 541.876 57.3373ZM518.832 71.0163C518.832 65.6341 522.482 59.1057 526.985 56.4319C531.488 53.7592 535.138 55.9547 535.138 61.3369C535.138 66.7191 531.487 73.2475 526.985 75.9213C522.482 78.594 518.832 76.3974 518.832 71.0163Z" fill="#0668E1"/>
<path d="M539.963 58.324C539.963 49.755 534.151 46.2595 526.982 50.5155C519.812 54.7715 514 65.168 514 73.7358C514 82.3036 519.812 85.8003 526.982 81.5443C534.151 77.2893 539.963 66.8929 539.963 58.324Z" fill="#9BC8FF"/>
<path d="M527.767 54.3621C529.603 53.0754 531.052 52.6987 532.112 53.2321C533.172 53.7654 533.702 54.8342 533.702 56.4384C533.702 58.0244 533.119 59.5809 531.955 61.1078V61.2992C532.104 61.2857 532.321 61.3346 532.604 61.4457C532.903 61.5282 533.142 61.6525 533.321 61.8186C533.814 62.2391 534.06 62.9415 534.06 63.9259C534.06 65.8765 533.463 67.9083 532.268 70.0212C531.074 72.116 529.574 73.7962 527.767 75.062C525.975 76.3173 524.483 76.7254 523.288 76.2861C522.84 76.1078 522.445 75.7378 522.101 75.1763C521.982 74.9683 521.9 74.7889 521.855 74.638L521.81 74.3959C521.646 73.9094 521.564 73.4747 521.564 73.0919C521.564 72.0346 522.295 70.9933 523.758 69.9681C524.356 69.5497 524.751 69.3636 524.945 69.4099C525.199 69.4691 525.423 69.7861 525.617 70.3611C525.766 70.8399 526.177 70.9897 526.849 70.8106C527.133 70.7213 527.446 70.5563 527.789 70.3157C528.581 69.7612 529.163 69.1618 529.536 68.5175C529.909 67.8549 530.096 67.2775 530.096 66.7853C530.096 66.2931 529.909 65.9955 529.536 65.8924C529.178 65.7606 528.745 65.8726 528.237 66.2283C527.745 66.5735 527.409 66.7906 527.23 66.8797C527.05 66.9688 526.856 67.0136 526.647 67.0142C526.244 67.0597 526.043 66.4991 526.043 65.3324C526.043 64.0563 526.319 63.1062 526.871 62.4822C527.125 62.2132 527.513 61.8956 528.036 61.5295C529.17 60.7345 529.738 59.9815 529.738 59.2705C529.738 58.8877 529.588 58.6277 529.29 58.4905C528.991 58.3534 528.573 58.4731 528.036 58.8497C527.513 59.2158 527.095 59.6181 526.782 60.0566C526.468 60.495 526.274 60.8497 526.199 61.1208L526.065 61.5431C525.722 62.6952 525.229 63.4961 524.587 63.946C524.214 64.2075 523.803 64.3311 523.355 64.3168C522.609 64.3112 522.236 63.962 522.236 63.2693C522.236 62.9776 522.407 62.2375 522.751 61.0489C522.81 60.843 522.975 60.4454 523.243 59.856C523.512 59.2484 523.818 58.6694 524.162 58.1189C524.52 57.5579 525.013 56.9301 525.64 56.2356C526.282 55.5305 526.991 54.906 527.767 54.3621Z" fill="#0668E1"/>
<path d="M586.667 234.436V198.556C586.667 192.023 582.618 184.253 577.669 181.288L539.004 158.125C536.873 156.849 534.91 156.668 533.363 157.393C534.433 156.319 537.809 155.097 540.954 156.98L579.619 180.143C584.569 183.107 588.559 190.391 588.559 196.924L588.348 233.899C588.348 237.617 587.033 240.16 584.99 241.117C585.912 239.807 586.667 236.818 586.667 234.436Z" fill="#64A1ED"/>
<path d="M568.988 235.715L569.285 235.893L558.876 243.396H558.332L568.988 235.715Z" fill="white"/>
<path d="M586.663 234.436V198.556C586.663 192.023 582.613 184.253 577.664 181.288L538.999 158.126C537.814 157.415 536.683 157.052 535.645 156.985C536.827 156.936 538.147 157.288 539.543 158.126L578.208 181.288C583.158 184.253 587.206 192.023 587.206 198.556V234.436C587.206 239.405 584.861 242.274 581.562 242.063C584.57 241.938 586.663 239.126 586.663 234.436Z" fill="white"/>
<path opacity="0.6" d="M532.939 158.216C534.36 157.192 536.385 157.143 538.747 158.558L577.411 181.72C579.783 183.14 581.978 185.741 583.581 188.818C585.182 191.891 586.167 195.388 586.167 198.559V234.439C586.167 237.621 585.18 239.794 583.731 240.839C582.311 241.863 580.287 241.912 577.926 240.497L569.249 235.301L568.967 235.131L568.699 235.323L558.512 242.666L548.122 222.731L548.058 222.606L547.937 222.533L539.26 217.336C536.888 215.916 534.694 213.315 533.091 210.238C531.489 207.165 530.504 203.668 530.504 200.497V164.617C530.504 161.435 531.49 159.261 532.939 158.216Z" fill="#E1FAFF" stroke="#64A1ED"/>
<path opacity="0.6" d="M574.05 197.436L540.357 177.294L539.879 177.008V180.392V204.773L574.527 225.487V200.502V197.723L574.05 197.436Z" fill="#E1FAFF" stroke="#E1FAFF" stroke-width="2.23301" stroke-miterlimit="10" stroke-linecap="round" stroke-linejoin="round"/>
<path d="M574.527 225.487L539.879 204.773V177.008L574.527 197.723V225.487Z" fill="#FFD500"/>
<path d="M539.879 204.772L557.203 201.246L574.527 225.485L539.879 204.772Z" fill="#FF9900"/>
<path opacity="0.5" d="M539.879 177.008V180.392L557.203 205.395L574.527 200.502V197.723L539.879 177.008Z" fill="#FFC400"/>
<path d="M539.879 177.008L557.203 205.395L574.527 197.723L539.879 177.008Z" fill="#FFFF00"/>
<path d="M557.203 204.897L540.357 177.294L539.879 177.008L557.203 205.395L574.527 197.723L574.05 197.436L557.203 204.897Z" fill="#FFFF8E"/>
<g opacity="0.1">
<path d="M539.006 158.128L562.442 172.168L586.669 219.539V234.44C586.669 240.924 582.679 243.841 577.78 240.985L533.816 157.222C535.286 156.721 537.074 156.971 539.006 158.128Z" fill="#E1FAFF"/>
<path d="M530.004 171.107V164.611C530.004 163.551 530.121 162.598 530.32 161.738L568.452 236.113L565.481 238.254L530.004 171.107Z" fill="#E1FAFF"/>
</g>
<path d="M575.145 180.036C575.145 186.827 579.75 195.066 585.432 198.438C587.26 199.523 588.975 199.969 590.462 199.853L590.369 200.534L592.397 199.324C592.589 199.227 592.772 199.116 592.949 198.995L592.981 198.976H592.977C594.678 197.793 595.719 195.476 595.719 192.25C595.719 185.46 591.113 177.221 585.431 173.848C582.704 172.229 580.226 172.029 578.384 173.006L578.381 173.005L578.304 173.051C578.225 173.095 578.146 173.141 578.069 173.189L575.993 174.41L576.877 174.235C575.783 175.538 575.145 177.508 575.145 180.036ZM579.799 182.799C579.799 179.081 582.322 177.564 585.432 179.411C588.543 181.257 591.065 185.768 591.065 189.486C591.065 193.203 588.543 194.721 585.432 192.875C582.322 191.028 579.799 186.517 579.799 182.799Z" fill="#FF8500"/>
<path d="M572.809 181.414C572.809 188.204 577.414 196.443 583.096 199.816C588.778 203.189 593.384 200.418 593.384 193.628C593.384 186.837 588.778 178.598 583.096 175.225C577.414 171.852 572.809 174.623 572.809 181.414ZM577.463 184.178C577.463 180.459 579.986 178.943 583.096 180.789C586.207 182.636 588.729 187.147 588.729 190.865C588.729 194.582 586.207 196.1 583.096 194.253C579.985 192.407 577.463 187.895 577.463 184.178Z" fill="#FFF54A"/>
<path d="M583.096 199.921C588.778 203.294 593.384 200.523 593.384 193.733C593.384 186.943 588.778 178.704 583.096 175.331C577.414 171.958 572.809 174.729 572.809 181.519C572.809 188.31 577.414 196.548 583.096 199.921ZM583.096 194.359C579.986 192.512 577.463 188.001 577.463 184.283C577.463 180.566 579.986 179.048 583.096 180.895C586.207 182.741 588.729 187.253 588.729 190.97C588.729 194.687 586.207 196.205 583.096 194.359Z" fill="#FFD500"/>
<path d="M583.094 198.235C588.047 201.175 592.062 198.76 592.062 192.841C592.062 186.921 588.047 179.739 583.094 176.799C578.14 173.859 574.125 176.274 574.125 182.193C574.125 188.113 578.14 195.295 583.094 198.235Z" fill="#FF8500"/>
<path d="M581.885 180.593C582.112 180.472 582.357 180.499 582.619 180.675C582.89 180.857 583.099 181.024 583.248 181.176C583.396 181.329 583.51 181.468 583.589 181.595C583.667 181.71 583.728 181.862 583.772 182.049C583.816 182.257 583.838 182.551 583.838 182.93V191.723C583.838 191.965 583.829 192.143 583.811 192.258C583.803 192.368 583.763 192.478 583.694 192.589C583.571 192.791 583.23 192.704 582.671 192.329C582.129 191.965 581.793 191.603 581.662 191.241C581.592 191.036 581.548 190.865 581.531 190.727C581.522 190.584 581.518 190.387 581.518 190.134V184.498L581.347 184.573C580.989 184.659 580.683 184.617 580.43 184.447C580.176 184.277 579.91 183.914 579.63 183.358C579.359 182.807 579.224 182.39 579.224 182.106C579.224 181.822 579.381 181.617 579.696 181.491L581.845 180.598L581.885 180.593Z" fill="#FFFF66"/>
<path d="M379.024 374.436V338.556C379.024 332.023 383.074 324.253 388.023 321.288L426.687 298.125C428.819 296.849 430.782 296.668 432.328 297.393C431.259 296.319 427.883 295.097 424.738 296.98L386.073 320.143C381.123 323.107 377.132 330.391 377.132 336.924L377.344 373.899C377.344 377.617 378.659 380.16 380.702 381.117C379.779 379.807 379.024 376.818 379.024 374.436Z" fill="#64A1ED"/>
<path d="M396.703 375.715L396.407 375.893L406.816 383.396H407.359L396.703 375.715Z" fill="white"/>
<path d="M379.029 374.436V338.556C379.029 332.023 383.079 324.253 388.027 321.288L426.692 298.126C427.878 297.415 429.009 297.052 430.047 296.985C428.865 296.936 427.545 297.288 426.149 298.126L387.484 321.288C382.534 324.253 378.485 332.023 378.485 338.556V374.436C378.485 379.405 380.83 382.274 384.129 382.063C381.121 381.938 379.029 379.126 379.029 374.436Z" fill="white"/>
<path opacity="0.6" d="M432.752 298.216C431.332 297.192 429.307 297.143 426.944 298.558L388.28 321.72C385.909 323.14 383.714 325.741 382.11 328.818C380.509 331.891 379.525 335.388 379.524 338.559V374.439C379.524 377.621 380.511 379.794 381.96 380.839C383.38 381.863 385.404 381.912 387.766 380.497L396.442 375.301L396.725 375.131L396.992 375.323L407.18 382.666L417.569 362.731L417.634 362.606L417.755 362.533L426.432 357.336C428.803 355.916 430.997 353.315 432.601 350.238C434.202 347.165 435.187 343.668 435.188 340.497V304.617C435.188 301.435 434.201 299.261 432.752 298.216Z" fill="#E1FAFF" stroke="#64A1ED"/>
<path opacity="0.6" d="M391.642 337.436L425.335 317.294L425.812 317.008V320.392V344.773L391.164 365.487V340.502V337.723L391.642 337.436Z" fill="#E1FAFF" stroke="#E1FAFF" stroke-width="2.23301" stroke-miterlimit="10" stroke-linecap="round" stroke-linejoin="round"/>
<path d="M391.164 365.487L425.812 344.773V317.008L391.164 337.723V365.487Z" fill="#FFD500"/>
<path d="M425.812 344.772L408.488 341.246L391.164 365.485L425.812 344.772Z" fill="#FF9900"/>
<path opacity="0.5" d="M425.812 317.008V320.392L408.488 345.395L391.164 340.502V337.723L425.812 317.008Z" fill="#FFC400"/>
<path d="M425.812 317.008L408.488 345.395L391.164 337.723L425.812 317.008Z" fill="#FFFF00"/>
<path d="M408.488 344.897L425.335 317.294L425.812 317.008L408.488 345.395L391.164 337.723L391.642 337.436L408.488 344.897Z" fill="#FFFF8E"/>
<g opacity="0.1">
<path d="M426.686 298.128L403.249 312.168L379.022 359.539V374.44C379.022 380.924 383.013 383.841 387.911 380.985L431.875 297.222C430.406 296.721 428.617 296.971 426.686 298.128Z" fill="#E1FAFF"/>
<path d="M435.688 311.107V304.611C435.688 303.551 435.571 302.598 435.371 301.738L397.24 376.113L400.21 378.254L435.688 311.107Z" fill="#E1FAFF"/>
</g>
<path d="M390.547 320.036C390.547 326.827 385.941 335.066 380.259 338.438C378.431 339.523 376.716 339.969 375.229 339.853L375.323 340.534L373.294 339.324C373.102 339.227 372.92 339.116 372.742 338.995L372.71 338.976H372.715C371.013 337.793 369.973 335.476 369.973 332.25C369.973 325.46 374.578 317.221 380.26 313.848C382.988 312.229 385.465 312.029 387.307 313.006L387.31 313.005L387.387 313.051C387.466 313.095 387.545 313.141 387.622 313.189L389.698 314.41L388.814 314.235C389.909 315.538 390.547 317.508 390.547 320.036ZM385.892 322.799C385.892 319.081 383.37 317.564 380.259 319.411C377.149 321.257 374.626 325.768 374.626 329.486C374.626 333.203 377.149 334.721 380.259 332.875C383.37 331.028 385.892 326.517 385.892 322.799Z" fill="#FF8500"/>
<path d="M392.883 321.41C392.883 328.2 388.277 336.439 382.595 339.812C376.913 343.185 372.308 340.414 372.308 333.624C372.308 326.833 376.913 318.594 382.595 315.221C388.277 311.848 392.883 314.619 392.883 321.41ZM388.228 324.174C388.228 320.455 385.706 318.939 382.595 320.785C379.485 322.632 376.962 327.143 376.962 330.861C376.962 334.578 379.485 336.096 382.595 334.249C385.707 332.403 388.228 327.891 388.228 324.174Z" fill="#FFF54A"/>
<path d="M382.595 339.917C376.913 343.29 372.308 340.52 372.308 333.729C372.308 326.939 376.913 318.7 382.595 315.327C388.277 311.954 392.883 314.725 392.883 321.515C392.883 328.306 388.277 336.545 382.595 339.917ZM382.595 334.355C385.706 332.508 388.228 327.997 388.228 324.279C388.228 320.562 385.706 319.044 382.595 320.891C379.485 322.737 376.962 327.249 376.962 330.966C376.962 334.684 379.485 336.201 382.595 334.355Z" fill="#FFD500"/>
<path d="M382.598 338.231C377.645 341.172 373.629 338.756 373.629 332.837C373.629 326.917 377.645 319.735 382.598 316.795C387.551 313.855 391.566 316.27 391.566 322.189C391.566 328.109 387.551 335.291 382.598 338.231Z" fill="#FF8500"/>
<path d="M379.314 326.377C379.497 326.072 379.695 325.863 379.907 325.75C380.126 325.634 380.296 325.563 380.416 325.54C380.536 325.516 380.628 325.515 380.691 325.537C380.755 325.551 380.804 325.609 380.839 325.71C380.875 325.827 380.892 326.03 380.892 326.318V333.002C380.892 333.186 380.885 333.33 380.871 333.433C380.864 333.525 380.832 333.646 380.776 333.796C380.677 334.065 380.401 334.319 379.949 334.559C379.511 334.792 379.24 334.833 379.134 334.681C379.077 334.591 379.042 334.502 379.028 334.414C379.021 334.313 379.017 334.167 379.017 333.975V329.691L378.879 329.908C378.59 330.31 378.342 330.566 378.138 330.675C377.933 330.784 377.717 330.758 377.491 330.598C377.272 330.435 377.163 330.245 377.163 330.029C377.163 329.813 377.29 329.509 377.544 329.118L379.282 326.418L379.314 326.377ZM382.389 325.462C382.594 325.025 382.88 324.601 383.247 324.19C383.621 323.767 384.052 323.426 384.54 323.167C385.027 322.908 385.451 322.79 385.811 322.815C386.178 322.835 386.464 322.951 386.669 323.162C386.881 323.37 387.051 323.656 387.178 324.02C387.39 324.627 387.496 325.335 387.496 326.143C387.496 327.591 387.22 328.885 386.669 330.026C386.464 330.455 386.178 330.871 385.811 331.275C385.451 331.674 385.031 332.002 384.55 332.257C384.07 332.513 383.643 332.636 383.268 332.627C382.901 332.606 382.611 332.496 382.399 332.297C382.195 332.094 382.025 331.812 381.891 331.451C381.686 330.872 381.584 330.147 381.584 329.275C381.584 328.475 381.665 327.747 381.827 327.093C381.997 326.435 382.184 325.891 382.389 325.462ZM384.529 330.132C385.257 329.746 385.62 328.768 385.62 327.2V327.128C385.62 325.52 385.26 324.908 384.54 325.291C383.819 325.674 383.459 326.673 383.459 328.289C383.459 329.897 383.816 330.512 384.529 330.132Z" fill="#FFFF66"/>
</g>
<rect x="0.5" y="0.5" width="919" height="517" rx="31.5" stroke="#0668E1"/>
<defs>
<linearGradient id="paint0_linear_24668_49456" x1="673.69" y1="376.779" x2="680.463" y2="52.8225" gradientUnits="userSpaceOnUse">
<stop stop-color="#DDECFF"/>
<stop offset="1" stop-color="#EAF3FF"/>
</linearGradient>
<linearGradient id="paint1_linear_24668_49456" x1="623.314" y1="167.615" x2="279.387" y2="489.604" gradientUnits="userSpaceOnUse">
<stop stop-color="#DEEDFF"/>
<stop offset="1" stop-color="#F3F8FF"/>
</linearGradient>
<linearGradient id="paint2_linear_24668_49456" x1="898.654" y1="278.087" x2="653.866" y2="469.936" gradientUnits="userSpaceOnUse">
<stop stop-color="#D6E8FF"/>
<stop offset="1" stop-color="#CFE4FF"/>
</linearGradient>
<radialGradient id="paint3_radial_24668_49456" cx="0" cy="0" r="1" gradientUnits="userSpaceOnUse" gradientTransform="translate(234.874 290.661) scale(451.167 450.838)">
<stop stop-color="#E39A65"/>
<stop offset="0.2827" stop-color="#A92FFB"/>
<stop offset="0.3347" stop-color="#891CFB"/>
<stop offset="0.3984" stop-color="#6507FA"/>
<stop offset="0.5405" stop-color="#0D0C6F"/>
</radialGradient>
<radialGradient id="paint4_radial_24668_49456" cx="0" cy="0" r="1" gradientUnits="userSpaceOnUse" gradientTransform="translate(311.234 159.649) scale(595.562 595.128)">
<stop stop-color="#E39A65"/>
<stop offset="0.4146" stop-color="#A92FFB"/>
<stop offset="0.5547" stop-color="#891CFB"/>
<stop offset="0.7262" stop-color="#6507FA"/>
<stop offset="0.7367" stop-color="#6308F8"/>
<stop offset="1" stop-color="#3919BB"/>
</radialGradient>
<radialGradient id="paint5_radial_24668_49456" cx="0" cy="0" r="1" gradientUnits="userSpaceOnUse" gradientTransform="translate(334.386 175.236) scale(374.124 373.851)">
<stop stop-color="#6507FA"/>
<stop offset="1" stop-color="#3919BB"/>
</radialGradient>
<linearGradient id="paint6_linear_24668_49456" x1="492.675" y1="357.57" x2="448.678" y2="282.297" gradientUnits="userSpaceOnUse">
<stop stop-color="#ADD2FF"/>
<stop offset="1" stop-color="#4096FF"/>
</linearGradient>
<linearGradient id="paint7_linear_24668_49456" x1="495.953" y1="295.781" x2="460.588" y2="235.143" gradientUnits="userSpaceOnUse">
<stop stop-color="#ADD2FF"/>
<stop offset="1" stop-color="#4096FF"/>
</linearGradient>
<linearGradient id="paint8_linear_24668_49456" x1="375.036" y1="362.333" x2="324.533" y2="275.52" gradientUnits="userSpaceOnUse">
<stop stop-color="#ADD2FF"/>
<stop offset="1" stop-color="#4096FF"/>
</linearGradient>
<clipPath id="clip0_24668_49456">
<rect width="920" height="518" rx="32" fill="white"/>
</clipPath>
<clipPath id="clip1_24668_49456">
<rect width="40" height="40" fill="white" transform="matrix(0.87462 -0.48481 0 1 474 116)"/>
</clipPath>
<clipPath id="clip2_24668_49456">
<rect width="24" height="24" fill="white" transform="matrix(0.87462 -0.48481 0 1 514 136)"/>
</clipPath>
<clipPath id="clip3_24668_49456">
<rect width="16" height="16" fill="white" transform="matrix(0.87462 -0.48481 0 1 535 101)"/>
</clipPath>
<clipPath id="clip4_24668_49456">
<rect width="10" height="10" fill="white" transform="matrix(0.87462 -0.48481 0 1 545 134)"/>
</clipPath>
</defs>
</svg>
