<svg width="920" height="518" viewBox="0 0 920 518" fill="none" xmlns="http://www.w3.org/2000/svg">
<g clip-path="url(#clip0_24752_42141)">
<rect width="920" height="518" rx="32" fill="white"/>
<path d="M0 0H920V558.979H0V0Z" fill="#F1F7FF"/>
<mask id="mask0_24752_42141" style="mask-type:luminance" maskUnits="userSpaceOnUse" x="431" y="0" width="489" height="559">
<path d="M431.44 558.979C488.248 288.544 807.223 338.102 824.299 27.0928C824.798 17.988 823.943 8.93907 823.245 0H920V305.418V558.979H431.44Z" fill="white"/>
</mask>
<g mask="url(#mask0_24752_42141)">
<path d="M431.44 0H920V558.979H431.44V0Z" fill="url(#paint0_linear_24752_42141)"/>
</g>
<mask id="mask1_24752_42141" style="mask-type:luminance" maskUnits="userSpaceOnUse" x="183" y="0" width="642" height="559">
<path d="M766.082 0H823.243C823.941 8.93907 824.297 17.9741 824.297 27.0928C824.297 345.728 530.462 287.672 473.47 558.979H183.798C274.247 172.949 639.991 348.023 766.082 0Z" fill="white"/>
</mask>
<g mask="url(#mask1_24752_42141)">
<path d="M183.798 0H824.297V558.979H183.798V0Z" fill="url(#paint1_linear_24752_42141)"/>
</g>
<mask id="mask2_24752_42141" style="mask-type:luminance" maskUnits="userSpaceOnUse" x="584" y="226" width="336" height="333">
<path d="M920 226.965V305.418V558.979H584.959C671.718 416.265 857.122 394.544 920 226.965Z" fill="white"/>
</mask>
<g mask="url(#mask2_24752_42141)">
<path d="M584.959 226.863H920V558.878H584.959V226.863Z" fill="url(#paint2_linear_24752_42141)"/>
</g>
<path fill-rule="evenodd" clip-rule="evenodd" d="M569.649 51.4053L568.566 29.1289L569.101 29.8715L569.936 51.4183L569.649 51.4053Z" fill="#54554F"/>
<path fill-rule="evenodd" clip-rule="evenodd" d="M595.868 41.7252C595.868 41.7252 590.713 43.3015 587.125 43.4579C586.629 43.4839 586.172 43.4839 585.742 43.4579C582.531 43.1713 582.323 39.7321 580.652 38.3382C580.548 38.247 580.444 38.1819 580.313 38.1037C578.317 36.9313 569.235 39.9666 569.235 39.9666L568.543 29.1541C568.543 29.1541 575.602 27.8904 579.021 28.0077C579.817 28.0337 580.444 28.2291 580.953 28.5418C582.649 29.5319 583.132 31.6423 584.306 32.3457C584.789 32.6453 586.042 32.7496 587.516 32.7626C590.648 32.7626 594.771 32.3457 594.771 32.3457L595.855 41.7383L595.868 41.7252Z" fill="#0668E1"/>
<g opacity="0.8" style="mix-blend-mode:multiply">
<path fill-rule="evenodd" clip-rule="evenodd" d="M587.537 32.7468L587.132 43.4551C586.637 43.4812 586.18 43.4812 585.749 43.4551C582.539 43.1685 582.33 39.7294 580.66 38.3355C580.751 35.1568 580.96 30.9361 580.973 28.5391C582.67 29.5291 583.153 31.6395 584.327 32.343C584.81 32.6426 586.062 32.7468 587.537 32.7599V32.7468Z" fill="#0668E1"/>
</g>
<path d="M357.185 458.062C373.301 458.141 378.886 459.99 373.209 463.938C372.766 464.25 372.544 464.407 372.087 464.719C365.236 464.667 361.883 464.641 355.358 464.589C356.011 464.172 356.337 463.964 356.976 463.56C359.743 461.814 357.616 461.202 352.331 461.176C347.046 461.15 343.105 461.723 340.274 463.456C332.118 468.445 365.68 470.321 352.344 479.01C340.404 486.8 323.48 487.934 309.048 487.999C291.34 488.09 291.888 484.065 300.422 478.593C301.727 477.746 302.379 477.342 303.632 476.535C308.813 476.587 311.657 476.6 317.751 476.665C316.264 477.603 315.507 478.072 313.941 479.049C310.039 481.498 311.631 482.501 317.268 482.527C322.906 482.553 328.321 481.615 332.066 479.179C342.831 472.184 313.367 470.529 324.184 463.612C330.239 459.743 341.057 457.932 357.185 458.01V458.062Z" fill="#0668E1"/>
<path d="M386.427 458.531C404.409 458.701 422.39 458.961 440.359 459.222C439.654 460.368 439.341 460.993 438.714 462.309C430.755 462.205 426.801 462.153 418.997 462.062L397.101 487.634H371.316L400.533 461.853C392.899 461.775 389.141 461.736 381.73 461.671C383.635 460.355 384.561 459.717 386.427 458.531Z" fill="#0668E1"/>
<path d="M519.266 487.673C508.018 487.673 502.302 487.673 490.858 487.659L485.026 481.862C472.068 481.784 467.318 481.745 454.452 481.667L446.283 487.633C435.948 487.633 430.807 487.633 420.707 487.633L455.496 459.469C466.013 459.638 471.324 459.742 481.998 459.938L519.279 487.686L519.266 487.673ZM457.805 477.394C467.357 477.485 472.172 477.524 481.789 477.616L469.797 464.341L457.805 477.394Z" fill="#0668E1"/>
<path d="M586.876 487.714C584.723 486.997 583.418 486.567 580.508 484.209C578.264 482.386 577.063 481.461 574.571 479.598C570.891 476.862 565.084 475.82 554.802 475.69C551.67 475.651 550.104 475.638 546.933 475.598L559.056 487.688C548.512 487.688 543.097 487.688 532.096 487.675L509.195 460.422C520.339 460.63 525.95 460.748 537.225 460.969C549.634 461.06 562.527 461.425 574.075 466.362C575.432 467.118 576.124 467.509 577.533 468.316C582.139 470.948 581.239 472.824 573.24 473.618C585.258 474.7 592.213 476.914 596.911 479.937C599.69 481.721 601.047 482.62 603.605 484.366C605.614 485.734 607.206 486.724 610.834 487.714C601.713 487.714 596.885 487.714 586.889 487.701L586.876 487.714ZM531.809 463.718C535.567 466.453 537.76 468.082 542.014 471.508C545.419 471.547 547.116 471.573 550.482 471.625C558.521 471.729 562.187 471.039 558.938 468.942C557.333 467.899 556.537 467.404 554.997 466.44C552.205 464.695 548.107 463.991 541.204 463.874C537.446 463.809 535.567 463.783 531.809 463.718Z" fill="#0668E1"/>
<path d="M572 461.656C591.521 462.034 611.043 462.399 630.564 462.751C632.012 463.688 632.887 464.249 634.779 465.473C627.328 465.343 623.544 465.278 615.871 465.148L660.198 487.763C653.895 487.763 645.348 487.763 637.78 487.75L597.328 464.835C589.486 464.705 585.532 464.626 577.546 464.496C575.171 463.246 574.049 462.672 572.013 461.669L572 461.656Z" fill="#0668E1"/>
<path fill-rule="evenodd" clip-rule="evenodd" d="M565.496 51.1211L565.705 239.611L608.91 247.323L634.904 93.5244L565.496 51.1211Z" fill="url(#paint3_linear_24752_42141)"/>
<path fill-rule="evenodd" clip-rule="evenodd" d="M670.673 421.809L648.268 102.059L612.096 125.455L524.524 199.28L521.066 221.257L670.673 421.809Z" fill="url(#paint4_linear_24752_42141)"/>
<path fill-rule="evenodd" clip-rule="evenodd" d="M673.036 338.154L673.388 319.499L285.324 317.988L287.725 338.154H673.036Z" fill="url(#paint5_linear_24752_42141)"/>
<path fill-rule="evenodd" clip-rule="evenodd" d="M643.207 313.577L643.154 297.098L312.141 297.788L313.759 314.723L643.207 313.577Z" fill="url(#paint6_linear_24752_42141)"/>
<path fill-rule="evenodd" clip-rule="evenodd" d="M626.707 296.21V284.498L332.727 282.844L333.131 296.21H626.707Z" fill="url(#paint7_linear_24752_42141)"/>
<path fill-rule="evenodd" clip-rule="evenodd" d="M347.723 281.779L609.46 282.848V270.394L595.106 270.472V259.933L586.716 259.959L586.076 252.625L573.601 252.547L573.38 243.636H565.302L564.885 237.135L557.186 237.083L556.82 230.908L548.025 230.856V224.017H539.818L539.948 221.255V216.201H539.935L648.268 102.057L572.819 51.6161L565.498 51.1211L616.82 93.1596L416.779 224.017H410.28V230.023L402.451 229.984V236.041L394.334 235.976V243.636H384.339L384.548 251.387L374.474 251.322L374.565 260.636L362.156 260.675L362.534 271.67L347.371 271.749L347.723 281.779Z" fill="url(#paint8_linear_24752_42141)"/>
<path fill-rule="evenodd" clip-rule="evenodd" d="M781.998 404.061L712.356 381.733L246.011 377.238L172.297 404.035L781.998 404.061Z" fill="#6DAEFF"/>
<path fill-rule="evenodd" clip-rule="evenodd" d="M241.547 350.597L287.897 338.156H673.038L712.955 350.597H241.547Z" fill="#6DAEFF"/>
<path fill-rule="evenodd" clip-rule="evenodd" d="M285.324 317.99L315.846 314.668L643.206 313.574L673.388 319.502L285.324 317.99Z" fill="#6DAEFF"/>
<path fill-rule="evenodd" clip-rule="evenodd" d="M626.707 284.501L609.457 282.846L347.772 281.777L332.727 282.846L626.707 284.501Z" fill="#6DAEFF"/>
<path fill-rule="evenodd" clip-rule="evenodd" d="M347.371 271.745L362.521 270.285L595.106 268.695L609.46 270.389L347.371 271.745Z" fill="#6DAEFF"/>
<path fill-rule="evenodd" clip-rule="evenodd" d="M643.154 297.094L626.713 295.152L330.031 296.208L312.141 297.785L643.154 297.094Z" fill="#6DAEFF"/>
<path fill-rule="evenodd" clip-rule="evenodd" d="M176.86 442.635L138 456.548H772.285L781.994 404.061L172.293 404.035L176.86 442.635Z" fill="#0668E1"/>
<path fill-rule="evenodd" clip-rule="evenodd" d="M246.011 377.238L231.344 382.566L712.356 381.732L712.956 350.598H241.548L246.011 377.238Z" fill="#0665DD"/>
<g opacity="0.5" style="mix-blend-mode:multiply">
<path fill-rule="evenodd" clip-rule="evenodd" d="M673.038 338.154L278.41 340.708L287.727 338.154L285.326 317.988L673.39 319.499L673.038 338.154Z" fill="white"/>
</g>
<g opacity="0.2" style="mix-blend-mode:multiply">
<path fill-rule="evenodd" clip-rule="evenodd" d="M313.756 314.723L307.91 315.531L645.331 314.007L643.204 313.577L643.152 297.098L312.138 297.788L313.756 314.723Z" fill="white"/>
</g>
<path d="M191.178 311.83L186.023 311.113L187.981 366.583L191.178 366.166V311.83Z" fill="#0054BC"/>
<path d="M288.413 274.112L267.822 257.164L267.143 267.416L191.172 311.826V366.162L264.572 310.81L264.755 304.01L263.75 319.499L288.413 274.112Z" fill="url(#paint9_linear_24752_42141)"/>
<path d="M186.023 311.109L265.427 267.026L266.066 257.164H267.828L267.149 267.416L191.178 311.826L186.023 311.109Z" fill="#0676FF"/>
<path d="M265.427 267.031L267.149 267.422L191.178 311.832L186.023 311.115L265.427 267.031Z" fill="#0676FF"/>
<path d="M263.757 319.502H262.23L262.987 311.998L264.578 310.812L263.757 319.502Z" fill="#0676FF"/>
<path d="M531.037 124.686L529.485 124.387L529.211 141.244L530.189 141.166L531.037 124.686Z" fill="#0054BC"/>
<path d="M561.104 114.755L555.128 109.297L554.763 112.397L531.04 124.682L530.191 141.161L553.314 125.503L553.471 123.457L552.923 128.134L561.104 114.755Z" fill="url(#paint10_linear_24752_42141)"/>
<path d="M529.488 124.385L554.242 112.244L554.595 109.273L555.13 109.299L554.764 112.4L531.041 124.685L529.488 124.385Z" fill="#0676FF"/>
<path d="M554.242 112.246L554.764 112.402L531.041 124.687L529.488 124.387L554.242 112.246Z" fill="#0676FF"/>
<path d="M552.921 128.136L552.465 128.11L552.804 125.843L553.312 125.504L552.921 128.136Z" fill="#0676FF"/>
<path d="M669.109 241.603L674.251 240.887L672.293 296.356L669.109 295.939V241.603Z" fill="#0054BC"/>
<path d="M571.855 203.89L592.46 186.941L593.125 197.194L669.11 241.603V295.939L595.696 240.574L595.513 233.787L596.531 249.276L571.855 203.89Z" fill="url(#paint11_linear_24752_42141)"/>
<path d="M674.244 240.887L594.841 196.803L594.202 186.941H592.453L593.119 197.194L669.103 241.603L674.244 240.887Z" fill="#0676FF"/>
<path d="M594.847 196.805L593.125 197.196L669.109 241.605L674.251 240.888L594.847 196.805Z" fill="#0676FF"/>
<path d="M596.53 249.276H598.043L597.287 241.773L595.695 240.574L596.53 249.276Z" fill="#0676FF"/>
<g opacity="0.7" style="mix-blend-mode:multiply">
<path fill-rule="evenodd" clip-rule="evenodd" d="M413.895 380.105L371.368 404.062L367.754 450.256L554.824 453.174L548.117 404.062L507.469 381.642L503.842 350.599L490.78 347.055L487.531 340.711H479.362L473.046 345.622L417.575 350.599L413.895 380.105Z" fill="#B8D8FF"/>
</g>
</g>
<rect x="0.5" y="0.5" width="919" height="517" rx="31.5" stroke="#0668E1"/>
<defs>
<linearGradient id="paint0_linear_24752_42141" x1="673.69" y1="376.779" x2="680.463" y2="52.8225" gradientUnits="userSpaceOnUse">
<stop stop-color="#DDECFF"/>
<stop offset="1" stop-color="#EAF3FF"/>
</linearGradient>
<linearGradient id="paint1_linear_24752_42141" x1="623.314" y1="167.615" x2="279.387" y2="489.604" gradientUnits="userSpaceOnUse">
<stop stop-color="#E0EEFF"/>
<stop offset="1" stop-color="#F9F9F9"/>
</linearGradient>
<linearGradient id="paint2_linear_24752_42141" x1="898.654" y1="278.087" x2="653.866" y2="469.936" gradientUnits="userSpaceOnUse">
<stop stop-color="#D6E8FF"/>
<stop offset="1" stop-color="#CFE4FF"/>
</linearGradient>
<linearGradient id="paint3_linear_24752_42141" x1="600.206" y1="247.323" x2="600.206" y2="51.1211" gradientUnits="userSpaceOnUse">
<stop offset="0.02" stop-color="#0668E1"/>
<stop offset="1" stop-color="#B8D8FF"/>
</linearGradient>
<linearGradient id="paint4_linear_24752_42141" x1="595.876" y1="421.809" x2="595.876" y2="102.059" gradientUnits="userSpaceOnUse">
<stop offset="0.02" stop-color="#83BAFF"/>
<stop offset="1" stop-color="#ECF4FF"/>
</linearGradient>
<linearGradient id="paint5_linear_24752_42141" x1="459.502" y1="445.954" x2="528.267" y2="32.7089" gradientUnits="userSpaceOnUse">
<stop stop-color="#0668E1"/>
<stop offset="1" stop-color="#F4F2F8"/>
</linearGradient>
<linearGradient id="paint6_linear_24752_42141" x1="454.401" y1="445.112" x2="523.153" y2="31.867" gradientUnits="userSpaceOnUse">
<stop stop-color="#0668E1"/>
<stop offset="1" stop-color="#F4F2F8"/>
</linearGradient>
<linearGradient id="paint7_linear_24752_42141" x1="476" y1="328.5" x2="482.97" y2="272.496" gradientUnits="userSpaceOnUse">
<stop stop-color="#6DAEFF"/>
<stop offset="1" stop-color="#8CBFFF"/>
</linearGradient>
<linearGradient id="paint8_linear_24752_42141" x1="454.699" y1="445.166" x2="523.464" y2="31.9208" gradientUnits="userSpaceOnUse">
<stop stop-color="#4A9BFF"/>
<stop offset="1" stop-color="#F1F7FF"/>
</linearGradient>
<linearGradient id="paint9_linear_24752_42141" x1="191.172" y1="311.67" x2="288.413" y2="311.67" gradientUnits="userSpaceOnUse">
<stop stop-color="#0072FF"/>
<stop offset="1" stop-color="#0050B3"/>
</linearGradient>
<linearGradient id="paint10_linear_24752_42141" x1="530.191" y1="125.231" x2="561.104" y2="125.231" gradientUnits="userSpaceOnUse">
<stop stop-color="#0072FF"/>
<stop offset="1" stop-color="#0050B3"/>
</linearGradient>
<linearGradient id="paint11_linear_24752_42141" x1="571.855" y1="241.447" x2="669.11" y2="241.447" gradientUnits="userSpaceOnUse">
<stop stop-color="#0050B3"/>
<stop offset="1" stop-color="#0072FF"/>
</linearGradient>
<clipPath id="clip0_24752_42141">
<rect width="920" height="518" rx="32" fill="white"/>
</clipPath>
</defs>
</svg>
