<svg width="920" height="518" viewBox="0 0 920 518" fill="none" xmlns="http://www.w3.org/2000/svg">
<g clip-path="url(#clip0_24689_33640)">
<rect width="920" height="518" rx="32" fill="white"/>
<path d="M0 0H920V558.979H0V0Z" fill="#F1F7FF"/>
<mask id="mask0_24689_33640" style="mask-type:luminance" maskUnits="userSpaceOnUse" x="431" y="0" width="489" height="559">
<path d="M431.44 558.979C488.248 288.544 807.223 338.102 824.299 27.0928C824.798 17.988 823.943 8.93907 823.245 0H920V305.418V558.979H431.44Z" fill="white"/>
</mask>
<g mask="url(#mask0_24689_33640)">
<path d="M431.44 0H920V558.979H431.44V0Z" fill="url(#paint0_linear_24689_33640)"/>
</g>
<mask id="mask1_24689_33640" style="mask-type:luminance" maskUnits="userSpaceOnUse" x="183" y="0" width="642" height="559">
<path d="M766.082 0H823.243C823.941 8.93907 824.297 17.9741 824.297 27.0928C824.297 345.728 530.462 287.672 473.47 558.979H183.798C274.247 172.949 639.991 348.023 766.082 0Z" fill="white"/>
</mask>
<g mask="url(#mask1_24689_33640)">
<path d="M183.798 0H824.297V558.979H183.798V0Z" fill="url(#paint1_linear_24689_33640)"/>
</g>
<mask id="mask2_24689_33640" style="mask-type:luminance" maskUnits="userSpaceOnUse" x="584" y="226" width="336" height="333">
<path d="M920 226.965V305.418V558.979H584.959C671.718 416.265 857.122 394.544 920 226.965Z" fill="white"/>
</mask>
<g mask="url(#mask2_24689_33640)">
<path d="M584.959 226.863H920V558.878H584.959V226.863Z" fill="url(#paint2_linear_24689_33640)"/>
</g>
<ellipse cx="460" cy="454" rx="150" ry="5" fill="#CBDAEB"/>
<path d="M432.216 124.431C457.082 120.046 482.633 121.609 506.779 128.991C530.926 136.374 552.982 149.366 571.145 166.906C589.308 184.446 603.062 206.035 611.283 229.909C619.503 253.783 621.957 279.264 618.443 304.268L594.676 300.928C597.663 279.674 595.578 258.016 588.591 237.723C581.603 217.43 569.912 199.079 554.474 184.17C539.035 169.261 520.287 158.217 499.763 151.943C479.238 145.668 457.52 144.339 436.384 148.066L432.216 124.431Z" fill="#5B9DF0"/>
<path d="M610.107 337.389C601.366 361.077 587.143 382.361 568.6 399.499C550.058 416.637 527.722 429.144 503.42 435.996C479.118 442.848 453.539 443.851 428.775 438.924C404.011 433.996 380.765 423.277 360.937 407.644L375.796 388.798C392.65 402.086 412.409 411.197 433.459 415.385C454.508 419.574 476.25 418.721 496.907 412.896C517.564 407.072 536.549 396.441 552.31 381.874C568.071 367.306 580.161 349.216 587.591 329.08L610.107 337.389Z" fill="#5B9DF0"/>
<path d="M336.765 384.045C320.661 364.597 309.389 341.614 303.869 316.975C298.35 292.336 298.74 266.74 305.008 242.281C311.276 217.822 323.244 195.193 339.934 176.245C356.623 157.298 377.559 142.569 401.032 133.263L409.877 155.573C389.925 163.483 372.129 176.003 357.944 192.109C343.758 208.214 333.585 227.448 328.257 248.239C322.929 269.029 322.598 290.785 327.289 311.729C331.98 332.672 341.562 352.207 355.25 368.738L336.765 384.045Z" fill="#5B9DF0"/>
<path d="M361.262 395.157L328.999 387.479L360.553 362.001L361.262 395.157Z" fill="#5B9DF0"/>
<path d="M606.471 309.344L617.522 340.612L579.001 327.925L606.471 309.344Z" fill="#5B9DF0"/>
<path d="M411.185 141.15L433.915 117L440.287 157.052L411.185 141.15Z" fill="#5B9DF0"/>
<g clip-path="url(#clip1_24689_33640)">
<path fill-rule="evenodd" clip-rule="evenodd" d="M409.164 272.307C411.276 271.718 412.984 270.539 414.194 270.539C415.428 270.539 416.424 270.987 418.132 271.6C419.247 272.001 421.928 271.411 423.138 271.6L423.423 277.871C422.165 277.73 421.454 277.753 421.169 278.154C419.485 280.559 416.614 280.181 413.126 280.983C412.747 281.077 411.276 280.983 410.469 280.841C409.829 280.511 409.473 279.521 408.88 277.871C408.073 275.561 407.385 272.802 409.117 272.307H409.164Z" fill="#FFA9A9"/>
<path fill-rule="evenodd" clip-rule="evenodd" d="M416.869 277.678C416.442 278.032 414.188 280.743 413.785 280.837C412.456 281.144 411.294 281.144 410.606 280.861C409.064 281.214 407.355 274.896 407.379 273.411C409.704 273.741 411.317 272.727 412.788 272.562C413.975 272.421 417.201 272.562 417.984 273.529C418.221 273.812 418.079 273.788 418.079 274.213C418.103 275.934 418.696 276.193 416.845 277.702L416.869 277.678Z" fill="#FFBDBD"/>
<path fill-rule="evenodd" clip-rule="evenodd" d="M414.934 272.135L414.459 272.63C413.51 272.465 412.917 272.512 412.134 272.7C410.901 273.007 409.382 273.361 408.457 272.842C410.569 273.03 411.778 272.276 413.178 272.111C413.842 272.04 414.412 272.064 414.934 272.111V272.135Z" fill="#EEBE69"/>
<path fill-rule="evenodd" clip-rule="evenodd" d="M407.426 270.84C408.256 270.746 409.086 270.675 409.917 270.558C412.076 270.251 413.072 269.567 414.282 269.732C414.946 269.827 415.729 270.039 416.441 270.487L418.885 272.255C418.149 274.165 416.512 275.555 413.476 273.292C412.977 272.915 412.099 272.42 411.649 272.467C409.846 272.656 407.663 272.703 407.45 270.864L407.426 270.84Z" fill="#FFA9A9"/>
<path fill-rule="evenodd" clip-rule="evenodd" d="M410.728 281.033C410.254 280.868 409.827 280.655 409.423 280.231C409.02 279.783 408.688 279.099 408.949 278.604C410.064 278.392 411.297 278.204 412.436 278.015C412.887 277.944 413.219 278.557 413.077 279.052C412.958 279.477 411.938 279.783 411.179 280.019C410.728 280.16 410.609 280.231 410.657 280.42C410.704 280.679 410.728 280.844 410.704 281.033H410.728ZM408.901 278.534L409.115 278.463L409.471 278.392L411.891 277.991C412.673 277.897 413.789 277.803 414.144 277.355C414.358 277.096 414.477 276.836 414.216 276.365C414.026 276.011 413.765 275.799 413.362 275.893C411.63 276.294 410.064 276.483 408.308 276.695C407.929 276.93 408.047 277.308 408.142 277.638C408.237 277.968 408.356 278.486 408.901 278.51V278.534ZM408.356 276.6C407.929 276.506 407.763 276.341 407.644 275.987C407.549 275.657 407.454 275.115 407.644 274.856C408 274.361 409.162 274.384 409.732 274.337C410.942 274.219 412.413 274.078 413.006 274.172C413.931 274.314 414.287 275.516 413.385 275.846C411.535 276.2 410.04 276.412 408.356 276.624V276.6ZM407.336 274.219C407.525 274.431 408.498 274.361 409.494 274.266C410.182 274.196 410.87 274.149 411.226 274.101C411.938 273.984 412.033 273.465 411.962 273.064C411.772 272.192 410.752 272.145 409.637 272.168C408.901 272.168 408.142 272.286 407.573 272.31C406.766 272.357 406.932 273.748 407.336 274.219Z" fill="#FFA9A9"/>
<path fill-rule="evenodd" clip-rule="evenodd" d="M419.531 271.175L421.595 279.403C434.098 277.375 444.3 278.342 456.992 274.405C462.662 272.637 458.155 259.576 452.745 260.967C441.69 263.819 432.034 269.383 419.531 271.175Z" fill="#0346A0"/>
<path d="M471.428 212.432L473.664 217.987C473.664 217.987 466.367 227.241 462.707 226.644C459.047 226.047 462.483 223.549 462.483 223.549L460.247 216.883L469.391 211.015L471.428 209.105V212.432Z" fill="#FFA9A9"/>
<path d="M461.876 221.621C461.876 221.621 470.024 216.395 469.272 215.391C468.018 213.128 460.242 216.901 460.242 216.901L461.876 221.621Z" fill="url(#paint3_linear_24689_33640)"/>
<path d="M457.108 216.094C454.776 213.37 454.03 208.183 453.84 204.474C453.712 202.034 454.049 199.894 455.65 198.097C458.258 195.165 463.628 192.798 467.295 195.607C470.364 197.955 471.53 201.818 471.43 205.516C471.353 208.409 470.857 210.441 469.276 212.822C467.687 215.204 463.993 217.682 461.183 217.734C459.436 217.751 458.216 217.388 457.108 216.094Z" fill="#FFA9A9"/>
<path d="M448.513 201.403C448.462 201.322 448.413 201.248 448.361 201.158C447.538 199.723 447.817 197.688 449.088 196.68C449.67 196.219 450.4 195.972 450.973 195.512C452.176 194.529 452.457 192.758 453.482 191.581C455.376 189.384 458.552 190.715 461.012 190.5C462.193 190.395 463.363 190.195 464.555 190.105C466.398 189.962 468.313 190.123 470.006 190.923C472.881 192.277 474.749 195.318 475.354 198.459C475.959 201.601 475.452 209.237 472.546 214.665C470.31 211.332 470.854 204.463 469.447 202.727C469.293 202.538 470.137 202.3 469.941 202.156C469.686 201.981 469.411 201.848 469.119 201.757C468.277 201.457 467.401 201.145 466.525 201.259C465.784 201.355 465.074 201.752 464.334 201.623C463.43 201.46 462.814 200.552 462.567 199.652C462.365 198.908 462.163 197.922 461.415 197.787C460.395 197.598 459.957 199.212 458.952 199.439C458.617 199.515 458.267 199.415 457.93 199.355C457.175 199.228 456.355 199.278 455.669 199.616C455.114 199.913 454.691 200.417 454.506 201.027C454.219 201.892 453.772 202.279 452.896 202.698C451.376 203.401 449.419 202.739 448.513 201.403Z" fill="#1B140F"/>
<path d="M467.813 204.406C467.959 203.078 469.018 202.033 469.976 201.941C471.395 201.805 472.428 203.012 472.828 204.221C473.199 205.273 473.181 206.423 472.788 207.462C472.404 208.507 471.379 209.804 470.233 209.881C469.453 209.926 468.804 209.143 468.557 208.484" fill="#FFA9A9"/>
<path d="M470.233 207.104C470.216 207.22 470.109 207.302 469.992 207.285C469.875 207.269 469.794 207.161 469.81 207.044L470.021 207.074L470.233 207.104ZM471.26 205.151C471.369 205.105 471.494 205.156 471.54 205.265C471.586 205.373 471.536 205.498 471.427 205.544L471.344 205.348L471.26 205.151ZM470.021 207.074C469.81 207.044 469.81 207.044 469.81 207.044C469.81 207.044 469.81 207.044 469.81 207.044C469.81 207.044 469.81 207.044 469.81 207.044C469.81 207.044 469.81 207.043 469.81 207.043C469.81 207.043 469.81 207.042 469.81 207.041C469.811 207.039 469.811 207.037 469.811 207.034C469.812 207.028 469.814 207.019 469.815 207.008C469.819 206.985 469.824 206.954 469.832 206.915C469.846 206.837 469.868 206.73 469.9 206.61C469.96 206.379 470.062 206.072 470.225 205.859L470.395 205.989L470.564 206.119C470.456 206.26 470.371 206.496 470.312 206.719C470.284 206.826 470.264 206.924 470.251 206.994C470.245 207.029 470.24 207.057 470.237 207.076C470.235 207.086 470.234 207.093 470.234 207.098C470.233 207.1 470.233 207.102 470.233 207.103C470.233 207.103 470.233 207.104 470.233 207.104C470.233 207.104 470.233 207.104 470.233 207.104C470.233 207.104 470.233 207.104 470.233 207.104C470.233 207.104 470.233 207.104 470.233 207.104C470.233 207.104 470.233 207.104 470.021 207.074ZM470.395 205.989L470.225 205.859C470.389 205.645 470.658 205.468 470.865 205.35C470.972 205.289 471.07 205.239 471.141 205.205C471.177 205.188 471.206 205.175 471.227 205.166C471.237 205.161 471.245 205.158 471.251 205.155C471.254 205.154 471.256 205.153 471.257 205.152C471.258 205.152 471.259 205.152 471.259 205.152C471.26 205.152 471.26 205.151 471.26 205.151C471.26 205.151 471.26 205.151 471.26 205.151C471.26 205.151 471.26 205.151 471.26 205.151C471.26 205.151 471.26 205.151 471.344 205.348C471.427 205.544 471.427 205.544 471.427 205.544C471.427 205.544 471.427 205.544 471.427 205.544C471.427 205.544 471.427 205.544 471.427 205.544C471.427 205.544 471.427 205.544 471.427 205.544C471.427 205.544 471.427 205.544 471.426 205.545C471.425 205.545 471.424 205.546 471.422 205.547C471.417 205.548 471.41 205.551 471.402 205.555C471.384 205.563 471.358 205.575 471.326 205.59C471.262 205.621 471.174 205.665 471.077 205.72C470.878 205.834 470.673 205.977 470.564 206.119L470.395 205.989Z" fill="#1B1C17"/>
<path d="M470.741 209.801L470.671 209.6L470.672 209.599L470.741 209.801ZM468.57 208.788L468.741 208.66C468.868 208.828 469.095 209.155 469.429 209.397C469.754 209.632 470.164 209.776 470.671 209.6L470.741 209.801L470.812 210.003C470.138 210.237 469.584 210.035 469.179 209.742C468.783 209.455 468.516 209.069 468.4 208.916L468.57 208.788ZM470.741 209.801L470.672 209.599C470.761 209.569 470.925 209.463 471.143 209.257C471.354 209.058 471.597 208.783 471.845 208.446C472.34 207.77 472.844 206.853 473.138 205.801L473.344 205.859L473.549 205.917C473.239 207.026 472.71 207.988 472.189 208.698C471.929 209.053 471.669 209.348 471.436 209.568C471.21 209.781 470.99 209.942 470.81 210.003L470.741 209.801Z" fill="black"/>
<path d="M456.51 205.602C456.518 205.484 456.619 205.395 456.737 205.403C456.855 205.411 456.944 205.513 456.936 205.63L456.723 205.616L456.51 205.602ZM456.932 209.75L457.145 209.737L457.145 209.739L456.932 209.75ZM457.279 210.556L457.198 210.753L457.188 210.749L457.179 210.745L457.279 210.556ZM457.835 210.581L457.773 210.377L457.78 210.375L457.788 210.373L457.835 210.581ZM459.427 209.758C459.53 209.701 459.66 209.738 459.717 209.841C459.774 209.944 459.737 210.074 459.634 210.131L459.53 209.944L459.427 209.758ZM456.723 205.616L456.936 205.63C456.912 206.002 456.951 206.823 457.004 207.666C457.056 208.488 457.122 209.353 457.145 209.737L456.932 209.75L456.719 209.762C456.695 209.357 456.632 208.544 456.578 207.691C456.526 206.859 456.484 206.007 456.51 205.602L456.723 205.616ZM456.932 209.75L457.145 209.739C457.153 209.883 457.171 210.026 457.213 210.143C457.254 210.26 457.31 210.331 457.379 210.368L457.279 210.556L457.179 210.745C456.981 210.639 456.872 210.459 456.81 210.284C456.749 210.109 456.727 209.919 456.719 209.76L456.932 209.75ZM457.279 210.556L457.36 210.359C457.491 210.413 457.633 210.419 457.773 210.377L457.835 210.581L457.898 210.785C457.668 210.855 457.423 210.846 457.198 210.753L457.279 210.556ZM457.835 210.581L457.788 210.373C458.361 210.244 458.916 210.041 459.427 209.758L459.53 209.944L459.634 210.131C459.085 210.435 458.492 210.652 457.883 210.789L457.835 210.581Z" fill="black"/>
<path d="M462.969 201.735C463.187 201.826 463.29 202.076 463.199 202.293C463.109 202.511 462.859 202.613 462.642 202.522L462.805 202.129L462.969 201.735ZM458.687 201.818C458.452 201.83 458.251 201.649 458.239 201.414C458.226 201.179 458.407 200.978 458.643 200.967L458.665 201.393L458.687 201.818ZM462.805 202.129L462.642 202.522C461.391 201.999 460.04 201.751 458.687 201.818L458.665 201.393L458.643 200.967C460.127 200.893 461.605 201.165 462.969 201.735L462.805 202.129Z" fill="black"/>
<path d="M455.235 202.034C455.447 201.932 455.702 202.02 455.805 202.232C455.909 202.444 455.821 202.699 455.609 202.802L455.422 202.418L455.235 202.034ZM453.295 204.562C453.178 204.766 452.917 204.835 452.712 204.717C452.508 204.599 452.438 204.338 452.556 204.134L452.925 204.348L453.295 204.562ZM455.422 202.418L455.609 202.802C454.644 203.269 453.782 203.718 453.295 204.562L452.925 204.348L452.556 204.134C453.191 203.032 454.3 202.487 455.235 202.034L455.422 202.418Z" fill="black"/>
<path d="M459.34 205.149C459.401 205.608 459.673 205.966 459.957 205.937C460.243 205.917 460.423 205.516 460.37 205.057C460.318 204.598 460.038 204.24 459.753 204.269C459.467 204.29 459.287 204.682 459.34 205.149Z" fill="black"/>
<path d="M454.477 206.833C454.538 207.291 454.809 207.65 455.094 207.621C455.38 207.6 455.56 207.199 455.507 206.74C455.454 206.281 455.175 205.924 454.89 205.952C454.604 205.973 454.424 206.366 454.477 206.833Z" fill="black"/>
<path d="M457.926 213.219C457.926 213.219 459.557 212.966 460.38 212.648C461.283 212.299 462.022 211.676 462.022 211.676C462.022 211.676 462.941 213.328 460.897 214.219C458.853 215.11 457.926 213.219 457.926 213.219Z" fill="white"/>
<path d="M454.693 210.196C453.748 210.27 452.876 209.036 452.746 207.44C452.617 205.844 453.278 204.49 454.223 204.415C455.168 204.341 456.039 205.575 456.169 207.171C456.298 208.767 455.638 210.121 454.693 210.196Z" stroke="#F17D52" stroke-width="0.458305" stroke-miterlimit="10"/>
<path d="M462.259 204.215C462.561 205.774 461.832 207.419 460.636 207.895C459.44 208.371 458.225 207.491 457.931 205.93C457.637 204.37 458.358 202.726 459.554 202.25C460.749 201.767 461.963 202.646 462.259 204.215Z" stroke="#F17D52" stroke-width="0.458305" stroke-miterlimit="10"/>
<path d="M455.791 205.607L455.706 205.394L457.825 204.549L457.91 204.762L457.996 204.975L455.877 205.82L455.791 205.607Z" fill="#F17D52"/>
<path d="M462.094 203.317L462.093 203.088L468.204 203.07L468.206 203.299L468.207 203.528L462.095 203.546L462.094 203.317Z" fill="#F17D52"/>
<path fill-rule="evenodd" clip-rule="evenodd" d="M459.882 223.102C441.59 235.596 447.783 271.714 450.701 289.065C451.768 295.43 451.531 301.866 451.46 307.666L475.469 308.373L469.301 227.487L459.882 223.125V223.102Z" fill="#032747"/>
<path fill-rule="evenodd" clip-rule="evenodd" d="M411.579 413.13C416.47 417.354 425.612 416.083 431.153 416.472C432.796 417.994 435.932 417.665 437.094 417.623C439.684 417.536 440.194 411.406 440.087 407.633C439.999 404.606 440.951 402.4 441.541 399.2L431.601 394.813C431.17 400.191 431.393 402.142 429.654 404.167C426.059 408.339 419.942 407.661 415.844 407.134C409.415 406.307 408.297 410.349 411.552 413.149L411.579 413.13Z" fill="#141313"/>
<path fill-rule="evenodd" clip-rule="evenodd" d="M435.459 346.824L428.078 403.271L442.235 407.202L451.659 370.493L451.054 349.085C449.962 333.525 436.526 337.272 435.463 346.8L435.459 346.824Z" fill="#05387D"/>
<path fill-rule="evenodd" clip-rule="evenodd" d="M468.957 331.766C474.396 325.802 476.202 323.382 477.837 318.423C479.848 312.236 479.805 307.805 479.891 301.483L458.894 295.46L448.977 311.377L436.109 343.7C431.614 353.746 447.389 357.64 450.185 350.797C456.066 341.799 462.916 338.442 468.976 331.793L468.957 331.766Z" fill="#05387D"/>
<path fill-rule="evenodd" clip-rule="evenodd" d="M544.343 389.141C549.301 385.109 549.562 375.892 550.867 370.493C552.646 369.149 552.836 366.014 552.978 364.858C553.334 362.312 547.356 360.638 543.631 360.025C540.642 359.53 538.625 358.21 535.564 357.008L529.586 365.966C534.805 367.381 536.751 367.546 538.459 369.621C541.994 373.935 540.286 379.852 539.099 383.766C537.225 389.942 541.021 391.781 544.319 389.117L544.343 389.141Z" fill="#1F1C1D"/>
<path fill-rule="evenodd" clip-rule="evenodd" d="M483.033 354.82L537.362 370.709L541.3 362.788L543.91 357.555L508.584 341.995L487.398 336.761C473.733 335.865 473.709 352.651 483.057 354.796L483.033 354.82Z" fill="#0346A0"/>
<path fill-rule="evenodd" clip-rule="evenodd" d="M480.814 290.313C480.387 289.063 480.126 288.285 480.078 288.238L479.39 288.592L479.153 288.309L475.025 290.784L458.086 295.264L461.241 316.623L475.737 347.648L476.354 349.416C479.58 356.489 496.021 351.962 494.005 343.428L493.934 342.933C492.249 332.678 490.256 327.538 490.28 318.768C490.019 312.12 489.117 307.169 487.172 302.006C485.82 298.352 484.064 294.533 480.79 290.313H480.814Z" fill="#0346A0"/>
<path fill-rule="evenodd" clip-rule="evenodd" d="M473.217 215.887C455.495 223.454 452.482 230.645 450.323 241.23C447.856 253.371 449.706 264.735 450.822 279.658C451.367 286.942 452.459 290.738 452.957 298.046C463.158 297.056 471.889 297.598 482.636 294.156C480.097 284.019 484.653 266.408 485.768 256.012C487.547 239.391 481.521 226.354 473.194 215.91L473.217 215.887Z" fill="white"/>
<path d="M462.5 223L473 216L475 217.5L461.5 232L462.5 223Z" fill="#EFEDED"/>
<path fill-rule="evenodd" clip-rule="evenodd" d="M474.873 217.492C462.726 225.602 457.934 237.437 456.511 249.602C454.897 263.346 464.007 295.951 466.38 310.685L491.741 307.856C490.033 301.255 482.773 288.972 484.695 278.812C488.467 258.89 491.718 235.551 474.873 217.469V217.492Z" fill="#05387D"/>
<path d="M459.5 223.5L462 222C462 222 465.258 219.707 467.5 218.5C469.577 217.381 473 216 473 216L475 218C473.5 218 466.833 224.5 464 228L463 223L459.5 223.5Z" fill="white" stroke="black" stroke-width="0.2" stroke-linecap="round"/>
<path fill-rule="evenodd" clip-rule="evenodd" d="M473.052 240.314L479.149 261.485C482.21 269.571 485.602 272.282 489.066 270.467C491.177 269.382 493.313 268.062 492.933 262.593C492.055 255.001 491.438 246.42 489.588 239.017C488.425 234.42 486.954 228.998 483.87 225.344C482.02 223.175 479.363 222.538 476.611 219.992C470.608 220.299 470.774 233.548 473.028 240.29L473.052 240.314Z" fill="#0346A0"/>
<path d="M501.594 310.969H462.875C461.788 310.969 460.906 311.845 460.906 312.925V340.697C460.906 341.778 461.788 342.654 462.875 342.654H501.594C502.681 342.654 503.563 341.778 503.563 340.697V312.925C503.563 311.845 502.681 310.969 501.594 310.969Z" fill="#823008"/>
<path fill-rule="evenodd" clip-rule="evenodd" d="M486.783 305.316H477.72C473.924 305.316 470.816 308.405 470.816 312.177V315.383C470.816 319.155 473.924 322.243 477.72 322.243H486.783C490.579 322.243 493.687 319.155 493.687 315.383V312.177C493.687 308.405 490.579 305.316 486.783 305.316ZM486.427 307.627C489.037 307.627 490.436 309.749 490.769 312.318L491.148 315.289C491.48 317.858 489.013 319.98 486.427 319.98H478.076C475.466 319.98 473.046 317.858 473.355 315.289L473.687 312.413C473.995 309.843 475.466 307.65 478.076 307.65H486.427V307.627Z" fill="#823008"/>
<path fill-rule="evenodd" clip-rule="evenodd" d="M482.236 305.316H477.705C473.909 305.316 470.801 308.405 470.801 312.177V315.383C470.801 319.155 473.909 322.243 477.705 322.243H482.236V319.957H478.06C475.451 319.957 473.031 317.835 473.339 315.265L473.671 312.389C473.98 309.819 475.451 307.627 478.06 307.627H482.236V305.34V305.316Z" fill="#662505"/>
<path fill-rule="evenodd" clip-rule="evenodd" d="M501.617 310.969H462.875C461.808 310.969 460.906 311.841 460.906 312.925V318.419L480.74 330.513C481.665 331.078 482.59 331.078 483.516 330.513L503.563 318.088V312.949C503.563 311.888 502.685 310.992 501.594 310.992L501.617 310.969Z" fill="#9B3B0B"/>
<path fill-rule="evenodd" clip-rule="evenodd" d="M480.047 330.629C480.047 330.794 480.047 330.959 480.047 331.148C480.047 333.034 481.043 334.59 482.253 334.59C483.463 334.59 484.46 333.057 484.46 331.148C484.46 330.983 484.46 330.794 484.436 330.629H480.071H480.047Z" fill="#F5A82C"/>
<path d="M479.865 328.859H484.61C484.61 328.859 484.728 328.907 484.728 328.977V330.769C484.728 330.769 484.681 330.887 484.61 330.887H479.865C479.865 330.887 479.746 330.84 479.746 330.769V328.977C479.746 328.977 479.794 328.859 479.865 328.859Z" fill="#FAB647"/>
<path fill-rule="evenodd" clip-rule="evenodd" d="M488.136 299.864L488.041 307.055C488.041 307.88 487.376 308.469 486.522 308.469H478.432C477.602 308.469 476.961 306.725 477.056 305.923L477.151 299.864C477.246 299.063 477.863 298.45 478.503 297.931L479.263 291.637C481.279 292.085 484.434 292.438 486.427 292.886L486.854 298.096C487.756 298.591 488.136 299.534 488.136 299.864Z" fill="#FFA9A9"/>
<path fill-rule="evenodd" clip-rule="evenodd" d="M485.382 307.667L485.097 303.376C485.026 302.291 486.07 301.23 487.043 301.23C487.992 301.23 487.826 304.366 487.897 305.45L488.063 307.69C488.229 309.859 485.595 310.637 485.406 307.667H485.382Z" fill="#FFA9A9"/>
<path fill-rule="evenodd" clip-rule="evenodd" d="M482.659 308.309L482.398 304.207C482.327 303.17 483.442 302.156 484.438 302.156C485.434 302.156 485.221 305.15 485.292 306.188L485.434 308.333C485.577 310.408 482.849 311.162 482.659 308.333V308.309Z" fill="#FFA9A9"/>
<path fill-rule="evenodd" clip-rule="evenodd" d="M479.934 308.632L479.72 305.095C479.673 304.199 480.788 303.445 481.784 303.563C482.781 303.681 482.52 306.203 482.591 307.123L482.709 308.962C482.828 310.753 480.076 311.083 479.934 308.632Z" fill="#FFA9A9"/>
<path fill-rule="evenodd" clip-rule="evenodd" d="M477.343 309.035L477.058 306.088C476.987 305.334 478.007 304.697 478.932 304.745C479.858 304.815 479.692 306.937 479.763 307.668L479.929 309.2C480.095 310.686 477.556 311.063 477.343 309.012V309.035Z" fill="#FFA9A9"/>
<path fill-rule="evenodd" clip-rule="evenodd" d="M493.296 265.484C493.13 268.667 493.13 268.714 492.608 271.048L488.266 298.254L477.234 297.334L481.149 263.74C480.485 256.879 493.414 254.357 493.296 265.484Z" fill="#0346A0"/>
</g>
<ellipse cx="767" cy="267" rx="70" ry="2" fill="#CBDAEB"/>
<path d="M751.845 122.063C762.724 120.145 773.902 120.829 784.466 124.059C795.03 127.288 804.68 132.973 812.626 140.646C820.572 148.32 826.59 157.765 830.186 168.21C833.783 178.655 834.856 189.803 833.319 200.742L822.921 199.281C824.228 189.982 823.315 180.507 820.258 171.629C817.201 162.751 812.087 154.722 805.332 148.199C798.578 141.677 790.376 136.845 781.396 134.1C772.417 131.355 762.915 130.773 753.668 132.404L751.845 122.063Z" fill="#9FCAFF"/>
<path d="M829.079 216.781C825.011 227.051 818.57 236.213 810.282 243.517C801.994 250.82 792.096 256.059 781.395 258.804C770.695 261.549 759.497 261.723 748.717 259.311C737.937 256.899 727.88 251.971 719.37 244.927L726.065 236.838C733.298 242.825 741.846 247.015 751.009 249.065C760.173 251.115 769.691 250.967 778.786 248.634C787.881 246.3 796.295 241.847 803.34 235.639C810.384 229.431 815.859 221.644 819.318 212.914L829.079 216.781Z" fill="#9FCAFF"/>
<path d="M710.085 235.645C703.039 227.136 698.108 217.081 695.693 206.301C693.278 195.522 693.449 184.324 696.191 173.623C698.933 162.922 704.169 153.022 711.471 144.732C718.772 136.443 727.932 129.999 738.201 125.928L742.071 135.688C733.342 139.149 725.557 144.626 719.35 151.672C713.144 158.719 708.693 167.134 706.362 176.229C704.032 185.325 703.886 194.844 705.939 204.006C707.991 213.169 712.183 221.716 718.172 228.948L710.085 235.645Z" fill="#9FCAFF"/>
<path fill-rule="evenodd" clip-rule="evenodd" d="M753.563 172.89C752.761 176.579 751.839 180.155 750.972 183.732C750.733 184.715 750.382 187.111 751.738 188.347C752.687 187.664 755.481 185.735 755.73 184.668C756.366 181.925 756.873 179.725 757.5 176.972C757.915 173.967 757.159 170.438 755.988 170.325C755.453 170.269 754.292 170.41 753.572 172.881L753.563 172.89Z" fill="#0668E1"/>
<path fill-rule="evenodd" clip-rule="evenodd" d="M767.697 161.352C766.387 167.906 767.051 169.525 771.92 169.216C767.623 172.896 762.339 172.896 760.357 166.558C760.301 166.38 758.752 160.219 758.808 159.995C758.872 159.77 758.688 157.42 758.752 157.214C759.158 155.969 759.471 155.024 760.421 154.172C762.459 152.346 765.475 151.616 767.171 153.226C769.301 155.258 768.195 158.862 767.697 161.343V161.352Z" fill="#171616"/>
<path fill-rule="evenodd" clip-rule="evenodd" d="M792.984 227.063L793.741 227.288L794.119 225.453C792.376 224.891 790.781 223.478 789.757 222.841C789.315 222.57 789.167 222.626 788.66 222.551L792.984 227.063Z" fill="#032340"/>
<path fill-rule="evenodd" clip-rule="evenodd" d="M783.574 225.602L787.226 227.39C790.306 229.3 791.228 229.31 792.408 232.034C793.884 232.923 794.068 232.259 794.234 229.441C794.308 228.196 794.483 227.54 793.782 226.604C791.8 225.565 789.642 223.384 789.107 223.121C788.489 222.812 787.715 222.504 786.11 222.981L783.593 221.68L783.574 225.602Z" fill="#F0C17D"/>
<path fill-rule="evenodd" clip-rule="evenodd" d="M792.913 227.354C793.503 229.882 791.825 230.425 791.327 230.275C791.612 230.697 791.861 231.258 792.193 231.914C792.424 232.372 792.737 232.532 793.263 232.588C794.249 232.71 794.904 231.755 795.033 229.536C795.107 228.291 794.563 227.261 793.862 226.334C791.898 225.304 790.137 223.076 789.206 222.692C788.561 222.43 787.731 222.505 786.117 222.982C789.095 223.451 792.627 226.119 792.913 227.354Z" fill="#05345E"/>
<path fill-rule="evenodd" clip-rule="evenodd" d="M766.54 213.832C769.546 214.478 770.791 214.357 773.041 215.265C777.062 216.884 781.239 220.554 786.163 223.026L785.14 226.349L770.33 220.685L765.046 219.637C757.9 216.501 761.201 211.37 766.54 213.823V213.832Z" fill="#F0C17D"/>
<path fill-rule="evenodd" clip-rule="evenodd" d="M757.024 189.738C756.48 193.09 754.608 199.858 755.935 203.172L759.578 212.319C760.823 216.476 763.801 218.564 765.47 218.648C766.789 218.713 766.162 218.114 765.977 213.386L765.424 198.913L760.5 189.008L757.014 189.747L757.024 189.738Z" fill="#F0C17D"/>
<path fill-rule="evenodd" clip-rule="evenodd" d="M766.989 191.435C767.837 195.077 770.271 200.451 769.469 203.606C768.27 208.268 763.863 212.584 758.56 220.298C756.467 223.116 752.603 221.291 752.908 218.529C754.964 213.539 757.103 209.373 759.575 204.589L761.696 190.434L766.998 191.426L766.989 191.435Z" fill="#FFDBA7"/>
<path fill-rule="evenodd" clip-rule="evenodd" d="M753.181 249.454V250.25L755.016 250.119C755.071 248.256 755.984 246.327 756.298 245.148C756.436 244.642 756.344 244.511 756.27 243.996L753.172 249.445L753.181 249.454Z" fill="#032340"/>
<path fill-rule="evenodd" clip-rule="evenodd" d="M752.004 239.863L751.303 243.916C750.335 247.446 750.575 248.354 748.316 250.245C747.873 251.93 748.556 251.93 751.275 251.322C752.474 251.05 753.147 251.041 753.839 250.105C754.281 247.886 755.766 245.18 755.867 244.59C755.996 243.898 756.07 243.064 755.176 241.623L755.72 238.805L752.004 239.853V239.863Z" fill="#FFDBA7"/>
<path fill-rule="evenodd" clip-rule="evenodd" d="M752.891 249.461C750.66 250.725 749.692 249.236 749.692 248.712C749.369 249.105 748.908 249.498 748.382 250.004C748.014 250.36 747.949 250.706 748.032 251.23C748.189 252.232 749.268 252.607 751.407 252.129C752.605 251.858 753.426 251.043 754.118 250.107C754.56 247.907 756.192 245.576 756.303 244.565C756.376 243.863 756.081 243.067 755.187 241.625C755.556 244.658 753.988 248.843 752.9 249.461H752.891Z" fill="#05345E"/>
<path fill-rule="evenodd" clip-rule="evenodd" d="M758.509 220.012C758.721 223.129 759.173 224.3 758.933 226.752C758.5 231.124 756.148 236.199 755.153 241.685L751.723 241.591L753.05 225.582L752.599 220.134C753.622 212.298 759.385 214.123 758.509 220.012Z" fill="#FFDBA7"/>
<path fill-rule="evenodd" clip-rule="evenodd" d="M756.553 155.41C752.283 158.387 756.34 165.212 759.476 165.698C762.943 164.65 767.664 167.14 763.552 156.833C762.224 153.509 758.849 153.799 756.543 155.41H756.553Z" fill="#2B2828"/>
<path fill-rule="evenodd" clip-rule="evenodd" d="M758.946 164.786L758.891 164.486C759.223 166.939 759.61 168.325 758.559 169.167C757.185 170.272 756.189 171.461 754.963 175.215C754.843 175.571 755.378 181.113 755.378 181.113L760.136 181.591C760.136 181.591 763.244 174.195 763.308 173.904C763.363 173.605 769.33 171.311 769.33 171.311C766.047 169.888 764.977 169.42 764.488 168.418C764.073 167.566 763.926 166.153 763.714 163.082L758.974 164.777L758.946 164.786Z" fill="#F0C17D"/>
<path fill-rule="evenodd" clip-rule="evenodd" d="M755.403 158.643C754.979 161.667 756.353 166.835 759.709 168.473C760.641 168.932 763.536 165.964 763.748 164.738C763.868 164.906 763.868 164.972 764.292 164.803C764.716 164.635 764.633 163.755 764.726 163.455C764.818 163.146 764.772 162.837 764.882 162.397C765.021 161.817 765.058 160.974 764.633 160.88C764.431 160.834 764.265 160.88 764.126 160.974C764.366 158.54 763.933 156.527 760.807 155.507C758.612 154.786 755.845 155.507 755.403 158.652V158.643Z" fill="#FFDBA7"/>
<path fill-rule="evenodd" clip-rule="evenodd" d="M758.671 157.449C753.194 158.741 757.537 166.811 758.403 167.935C756.836 166.568 754.992 163.123 754.946 160.099C754.918 157.983 755.905 156.036 758.118 155.277L758.92 156.363L758.662 157.459L758.671 157.449Z" fill="#2B2828"/>
<path fill-rule="evenodd" clip-rule="evenodd" d="M757.677 157.744C760.157 160.983 762.554 159.467 763.246 162.678C763.587 161.405 764.168 161.348 764.444 161.835C764.749 162.369 764.666 163.277 764.675 163.717C765.311 163.071 766.058 158.334 764.085 155.75C762.49 153.672 759.816 153.353 757.962 155.385C758.156 156.078 757.317 156.827 757.677 157.753V157.744Z" fill="#2B2828"/>
<path fill-rule="evenodd" clip-rule="evenodd" d="M756.654 191.213C756.11 194.564 754.874 199.582 754.838 203.158C754.745 210.948 754.459 213.007 751.684 218.643C751.38 221.395 756.949 223.109 759.042 220.281C761.237 217.342 760.878 218.4 765.479 218.624C766.798 218.69 770.32 218.091 770.136 213.363C768.836 212.305 767.812 210.039 769.463 203.589C770.274 200.434 767.83 195.051 766.982 191.418L761.68 190.426L761.569 191.138L760.499 188.984L756.645 191.213H756.654Z" fill="#0374FF"/>
<path fill-rule="evenodd" clip-rule="evenodd" d="M765.56 192.46C765.016 195.812 763.172 200.83 763.126 204.406C763.033 212.186 756.772 212.644 753.996 218.28C753.692 221.033 756.947 223.111 759.041 220.293C761.235 217.353 760.876 218.411 765.477 218.636C766.796 218.702 770.318 218.102 770.134 213.375C768.834 212.317 767.81 210.051 769.461 203.601C770.272 200.446 767.828 195.063 766.98 191.43L761.678 190.438L761.567 191.149L760.497 188.996L765.551 192.46H765.56Z" fill="#0668E1"/>
<path fill-rule="evenodd" clip-rule="evenodd" d="M751.683 218.66C751.378 221.412 756.948 223.126 759.041 220.298C760.203 217.958 761.107 216.703 762.684 214.616C765.514 210.871 767.838 208.015 769 205.179C770.024 202.679 769.646 200.114 768.908 197.53C768.373 195.629 767.58 193.738 767.11 191.95L767.064 191.772L767.018 191.594L766.981 191.426L761.678 190.434L759.558 204.589C757.197 209.158 753.72 214.466 751.664 218.651L751.683 218.66Z" fill="#0374FF"/>
<path fill-rule="evenodd" clip-rule="evenodd" d="M764.825 168.734C765.618 169.792 767.647 170.251 769.085 170.916C772.507 172.741 767.675 182.777 767.287 185.502C767.029 187.28 766.725 190.258 767.315 192.589C767.536 194.096 756.738 194.873 756.461 192.542C756.876 189.902 755.733 186.775 755.161 184.865C754.626 183.086 753.926 181.85 753.511 180.203C753.096 178.564 753.188 178.143 753.704 175.101C754.009 173.312 754.211 171.805 755.078 170.785C755.539 170.242 756.517 170.101 757.826 169.577C758.186 169.437 758.73 169.025 758.748 169.025L760.399 171.384L764.834 168.734H764.825Z" fill="#0374FF"/>
<path fill-rule="evenodd" clip-rule="evenodd" d="M760.817 187.379C760.532 187.856 760.771 188.072 761.02 188.343C761.306 188.652 762.855 189.691 763.003 188.867C763.021 188.746 761.583 187.576 761.583 187.576C761.583 187.576 760.817 187.454 760.817 187.379Z" fill="#F0C17D"/>
<path fill-rule="evenodd" clip-rule="evenodd" d="M756.352 183.723C757.938 183.76 758.758 183.694 759.422 183.694H761.829C762.483 183.694 762.548 183.629 762.981 184.106L764.908 186.344C765.065 186.662 764.89 187.074 764.392 187.037C764.567 187.505 764.198 187.842 763.793 187.823C763.912 188.16 763.544 188.591 763.304 188.516L763.166 188.488C763.341 188.834 762.981 189.274 762.492 188.9C761.727 188.31 761.266 187.861 760.621 187.168C758.85 187.233 758.86 187.102 758.002 186.306L755.992 186.288L756.352 183.723Z" fill="#FFDBA7"/>
<path fill-rule="evenodd" clip-rule="evenodd" d="M758.685 183.528C756.924 184.183 757.118 185.999 758.113 186.795C757.035 187.403 756.076 188.63 754.462 188.911C753.531 189.07 751.908 189.023 751.438 188.049C751.189 187.525 751.493 186.243 751.89 185.428C752.756 183.668 755.338 183.471 758.685 183.528Z" fill="#0374FF"/>
<path fill-rule="evenodd" clip-rule="evenodd" d="M758.617 184.085C759.354 184.085 759.954 183.935 759.954 183.757C759.954 183.579 759.354 183.43 758.617 183.43C757.879 183.43 757.289 183.579 757.289 183.757C757.289 183.935 757.888 184.085 758.617 184.085Z" fill="black"/>
<path fill-rule="evenodd" clip-rule="evenodd" d="M758.617 183.818L759.954 183.752V184.145C759.954 184.323 759.354 184.473 758.617 184.473C757.879 184.473 757.289 184.323 757.289 184.145V183.762C757.51 183.649 758.091 183.846 758.617 183.818Z" fill="black"/>
<path fill-rule="evenodd" clip-rule="evenodd" d="M758.616 184.006C759.243 184.006 759.759 183.893 759.759 183.753C759.759 183.612 759.243 183.5 758.616 183.5C757.989 183.5 757.473 183.612 757.473 183.753C757.473 183.893 757.989 184.006 758.616 184.006Z" fill="#E6E6E6"/>
<path fill-rule="evenodd" clip-rule="evenodd" d="M758.254 184.416C758.078 184.65 757.949 185.128 757.968 185.624C757.986 186.008 758.088 186.391 758.337 186.672C758.244 186.71 757.848 186.803 757.802 186.719C757.608 186.401 757.525 186.017 757.507 185.652C757.479 185.053 757.654 184.453 757.885 184.145L758.254 184.425V184.416Z" fill="black"/>
<path fill-rule="evenodd" clip-rule="evenodd" d="M773.488 175.738C775.563 178.322 777.795 180.7 779.261 183.34C780.082 184.819 779.445 187.244 777.905 186.457L775.056 185.016C773.959 183.424 768.786 179.342 767.891 177.226C766.951 175.223 767.172 169.99 768.878 170.804C770.39 171.525 772.861 175.008 773.488 175.728V175.738Z" fill="#0668E1"/>
<path fill-rule="evenodd" clip-rule="evenodd" d="M782.376 202.664L780.532 204.78C780.329 205.014 780.218 205.285 780.744 205.959L787.411 214.235C787.881 214.797 788.222 214.722 788.462 214.591L790.814 213.252L782.376 202.673V202.664Z" fill="#752B06"/>
<path fill-rule="evenodd" clip-rule="evenodd" d="M786.702 196.952C785.725 197.645 784.729 198.357 783.705 199.087C782.386 200.023 782.064 201.811 783.041 203.019C783.318 203.365 783.594 203.712 783.871 204.049C784.848 205.257 786.702 205.388 787.956 204.358C788.924 203.562 789.874 202.785 790.796 202.036C791.921 201.109 792.096 199.48 791.202 198.375C790.953 198.067 790.695 197.748 790.446 197.439C789.551 196.335 787.882 196.11 786.693 196.952H786.702ZM787.145 197.73C787.956 197.14 788.906 197.449 789.616 198.132C789.883 198.394 790.16 198.656 790.437 198.918C791.147 199.593 790.925 200.81 790.142 201.437C789.284 202.13 788.408 202.832 787.504 203.553C786.647 204.245 785.282 204.217 784.729 203.328C784.526 202.991 784.314 202.663 784.111 202.326C783.558 201.437 783.521 200.36 784.406 199.714C785.337 199.04 786.25 198.375 787.145 197.73Z" fill="#823008"/>
<path fill-rule="evenodd" clip-rule="evenodd" d="M791.627 196.076C790.29 197.031 788.879 198.042 787.394 199.09C785.827 200.204 784.176 201.384 782.433 202.629C782.129 202.844 782.12 203.312 782.415 203.668C783.669 205.222 784.923 206.776 786.168 208.33C787.422 209.885 788.676 211.439 789.93 213.002C790.216 213.358 790.668 213.433 790.926 213.171C792.438 211.626 793.868 210.165 795.223 208.78C796.505 207.469 797.722 206.224 798.884 205.044C799.069 204.857 799.032 204.455 798.783 204.146C797.732 202.844 796.671 201.534 795.62 200.232C794.569 198.931 793.517 197.63 792.466 196.328C792.226 196.029 791.848 195.907 791.627 196.066V196.076Z" fill="#823008"/>
<path fill-rule="evenodd" clip-rule="evenodd" d="M791.627 196.076C790.29 197.031 788.879 198.033 787.394 199.091C785.827 200.205 784.176 201.385 782.433 202.63C782.129 202.845 782.12 203.313 782.415 203.678C782.913 204.296 783.402 204.905 783.9 205.513C785.329 205.485 786.721 205.457 788.068 205.429C789.377 205.401 790.659 205.373 791.894 205.354C792.236 205.354 792.438 205.167 792.494 204.821C792.697 203.575 792.89 202.349 793.084 201.169C793.268 200.018 793.453 198.885 793.628 197.79C793.241 197.312 792.853 196.825 792.457 196.348C792.217 196.048 791.839 195.927 791.618 196.086L791.627 196.076Z" fill="#9B3B0B"/>
<path fill-rule="evenodd" clip-rule="evenodd" d="M791.762 205.533C791.799 205.589 791.845 205.645 791.882 205.692C792.352 206.281 792.951 206.553 793.209 206.31C793.467 206.066 793.08 205.149 792.831 204.83C792.573 204.512 792.748 204.727 792.702 204.681C792.389 204.961 792.075 205.242 791.762 205.523V205.533Z" fill="#F5A82C"/>
<path fill-rule="evenodd" clip-rule="evenodd" d="M792.321 204.121C791.98 204.42 791.638 204.72 791.288 205.029C791.27 205.038 791.279 205.066 791.288 205.095C791.436 205.282 791.583 205.46 791.74 205.647C791.758 205.666 791.786 205.675 791.795 205.666C792.136 205.357 792.487 205.048 792.819 204.748C792.837 204.739 792.828 204.711 792.819 204.683C792.671 204.505 792.524 204.317 792.385 204.14C792.367 204.121 792.339 204.111 792.33 204.121H792.321Z" fill="#FAB647"/>
<path fill-rule="evenodd" clip-rule="evenodd" d="M787.492 197.088C787.797 197.537 788.193 197.79 787.815 198.342C787.612 198.632 786.93 199.082 786.414 199.531C785.99 199.906 785.722 199.971 785.446 199.887L784.616 199.569C784.883 199.344 785.114 199.185 785.372 198.979C785.427 198.979 785.455 198.941 785.519 198.951L786.165 198.305C785.086 197.228 784.044 197.537 783.491 196.919C783.196 196.592 782.928 196.311 782.643 195.337C782.606 195.215 781.49 194.101 781.453 193.961L783.518 192.191C783.62 192.276 784.459 193.905 784.551 193.98C785.86 195.103 786.441 195.552 787.502 197.097L787.492 197.088Z" fill="#FFDBA7"/>
<path fill-rule="evenodd" clip-rule="evenodd" d="M782.594 195.072C782.456 195.914 782.548 196.448 782.732 196.916C782.889 197.337 783.147 197.515 783.378 197.796C783.627 198.096 783.746 198.62 784.161 199.098C784.456 199.444 784.844 199.341 784.964 199.041C785.074 198.798 784.973 198.423 784.751 197.937L784.466 197.328L783.959 196.167L782.585 195.062L782.594 195.072Z" fill="#FFDBA7"/>
<path fill-rule="evenodd" clip-rule="evenodd" d="M782.13 195.426C783.393 194.855 783.578 194.499 784.786 193.91C782.858 190.38 781.365 186.111 778.847 182.591C778.69 182.366 778.229 181.645 777.907 181.486C775.666 180.4 774.19 183.265 775.048 184.726C776.966 187.983 780.682 192.945 782.13 195.426Z" fill="#0668E1"/>
<path d="M828.309 203.459L832.666 218.348L815.001 211.431L828.309 203.459Z" fill="#9FCAFF"/>
<path d="M740.854 129.701L751.041 118L754.746 136.606L740.854 129.701Z" fill="#9FCAFF"/>
<path d="M722.004 240.728L706.868 237.328L721.476 225.223L722.004 240.728Z" fill="#9FCAFF"/>
<ellipse cx="168" cy="306" rx="100" ry="3" fill="#CBDAEB"/>
<path d="M144.372 122.363C158.359 119.897 172.731 120.776 186.313 124.929C199.896 129.081 212.303 136.389 222.519 146.256C232.736 156.122 240.473 168.266 245.097 181.695C249.721 195.124 251.101 209.457 249.124 223.522L235.756 221.643C237.436 209.688 236.263 197.505 232.332 186.09C228.402 174.675 221.826 164.353 213.141 155.967C204.457 147.58 193.911 141.368 182.366 137.839C170.821 134.309 158.605 133.562 146.716 135.658L144.372 122.363Z" fill="#9FCAFF"/>
<path d="M243.674 244.143C238.443 257.348 230.161 269.127 219.505 278.517C208.85 287.908 196.123 294.643 182.366 298.173C168.608 301.702 154.211 301.926 140.35 298.825C126.49 295.724 113.561 289.387 102.619 280.331L111.226 269.931C120.526 277.628 131.517 283.015 143.298 285.651C155.079 288.286 167.317 288.096 179.011 285.096C190.705 282.096 201.522 276.371 210.579 268.389C219.637 260.407 226.676 250.395 231.123 239.171L243.674 244.143Z" fill="#9FCAFF"/>
<path d="M90.6803 268.396C81.6219 257.457 75.2812 244.529 72.1765 230.669C69.0719 216.81 69.2914 202.412 72.8172 188.654C76.343 174.896 83.075 162.167 92.4626 151.509C101.85 140.851 113.627 132.566 126.83 127.331L131.806 139.881C120.583 144.33 110.573 151.373 102.593 160.432C94.6137 169.492 88.8916 180.311 85.8946 192.005C82.8977 203.7 82.7111 215.938 85.3501 227.718C87.989 239.499 93.3786 250.488 101.078 259.786L90.6803 268.396Z" fill="#9FCAFF"/>
<path d="M130.807 131.963L144.115 117.356L148.298 141.156L130.807 131.963Z" fill="#9FCAFF"/>
<path d="M105.425 274.71L86.0018 271.076L104.042 254.999L105.425 274.71Z" fill="#9FCAFF"/>
<path d="M242.95 227.401L248.499 246.367L225.998 237.556L242.95 227.401Z" fill="#9FCAFF"/>
<g clip-path="url(#clip2_24689_33640)">
<path d="M160.456 193.825C158.273 191.96 154.35 193.269 152.938 195.919C151.51 198.569 153.201 199.485 151.805 200.172C150.41 200.86 148.276 204.132 149.245 207.649C149.245 207.649 146.208 205.179 142.268 205.179C138.312 205.179 138.279 203.003 136.983 202.168C135.686 201.334 134.586 199.256 133.519 198.995C132.452 198.733 130.367 197.457 129.432 198.716C127.905 200.778 128.578 202.299 130.252 203.461C131.927 204.622 132.994 204.213 134.126 205.048C135.259 205.882 140.643 210.07 143.352 211.035C146.06 212.001 149.967 217.04 151.264 214.586C152.577 212.148 156.122 208.86 156.927 207.698C157.731 206.536 157.977 204.05 158.24 203.33C158.503 202.61 164.691 197.44 160.456 193.825Z" fill="#FDB171"/>
<path d="M170.338 246.305C171.635 246.633 172.045 248.727 172.964 250.739C173.539 251.999 172.751 254.796 175.87 254.338C178.808 253.913 180.154 253.013 184.602 255.091C189.051 257.185 191.398 255.745 192.941 255.647C194.501 255.549 196.979 255.712 196.979 255.712C196.979 255.712 198.096 260.359 197.899 261.144C197.685 261.929 195.978 263.009 195.978 263.009C195.978 263.009 191.415 260.768 189.56 260.948C187.705 261.128 174.031 261.487 172.767 261.749C169.402 262.436 168.253 260.768 166.333 258.804C163.263 255.663 162.393 251.213 162.393 251.213L170.338 246.289V246.305Z" fill="#FDB171"/>
<path d="M137.782 201.148L134.335 207.12L151.702 217.214L151.801 207.545L137.782 201.148Z" fill="#5188FF"/>
<path d="M159.322 186.36C159.322 186.36 157.795 188.143 151.361 190.303C151.361 190.303 147.454 194.704 147.766 201.689C148.078 208.691 150.392 214.466 151.262 217.46C152.132 220.438 153.823 228.405 153.823 228.405C153.823 228.405 162.03 227.194 168.219 224.773C168.219 224.773 166.085 220.258 166.462 216.528C166.84 212.798 167.776 203.473 166.741 198.139C165.707 192.822 161.357 187.62 159.322 186.344V186.36Z" fill="#5188FF"/>
<path d="M148.607 171.02C148.099 171.412 147.491 172.459 147.311 173.441C147.114 174.422 146.424 174.962 146.802 175.682C147.179 176.402 146.785 177.351 145.981 178.12C145.111 178.987 144.734 179.543 145.538 179.919C146.359 180.296 146.227 180.214 146.162 180.443C146.096 180.672 145.702 180.966 146.162 181.424C146.162 181.424 145.735 181.817 146.063 182.193C146.391 182.586 146.523 182.733 146.277 183.093C146.03 183.437 145.505 184.582 146.523 185.105C147.54 185.629 149.74 185.334 149.986 185.662C150.233 186.005 149.806 186.022 150.807 187.363C151.808 188.705 151.267 190.913 151.267 190.913C151.267 190.913 156.881 190.21 159.605 187.052C159.605 187.052 158.489 184.467 158.801 183.78C158.801 183.78 157.554 184.009 157.701 183.42C157.701 183.42 157.143 182.635 157.324 182.21C157.324 182.21 157.061 181.114 157.537 180.623C157.537 180.623 157.389 180.132 157.701 179.805C158.013 179.478 158.243 179.15 158.358 178.545C158.456 177.923 155.715 175.568 155.633 175.306C155.535 175.044 155.026 174.488 155.239 174.177C155.452 173.85 155.387 173.621 155.19 173.457C154.993 173.294 148.607 171.02 148.607 171.02Z" fill="#FDB171"/>
<path d="M158.849 184.354C158.439 182.08 160.146 179.675 161.131 177.745C162.116 175.798 162.28 170.693 158.16 169.466C154.023 168.239 149.345 169.025 149.131 166.996C149.131 166.996 147.227 169.794 148.409 171.413C148.409 171.413 153.432 173.606 153.186 178.824L154.171 179.102C154.171 179.102 154.253 176.599 155.615 176.828C156.912 177.041 156.026 178.432 156.075 179.119C156.124 179.79 156.929 180.984 155.5 180.869C155.5 180.869 155.074 181.916 157.191 183.421C158.176 184.125 158.833 184.37 158.833 184.37L158.849 184.354Z" fill="black"/>
<path d="M147.993 185.434C147.993 185.434 150.275 185.417 151.966 184.534C153.854 183.552 154.543 181.867 154.543 181.867C154.543 181.867 153.164 185.581 150.111 186.383C150.111 186.072 150.111 185.826 149.996 185.695C149.848 185.483 148.913 185.515 147.993 185.45V185.434Z" fill="#F09F5B"/>
<path d="M139.086 279.68C139.726 280.466 141.926 281.676 143.091 281.529C144.24 281.366 145.931 280.237 146.161 281.104C146.39 281.971 146.702 284.343 146.161 285.521C146.161 285.521 146.423 285.832 146.161 286.453C145.898 287.075 144.339 287.075 142.336 286.846C140.35 286.617 134.276 286.437 132.668 285.766C131.059 285.096 129.631 284.278 129.483 283.46C129.352 282.658 129.04 280.957 130.501 281.333C131.962 281.725 133.718 281.873 134.539 281.529C135.343 281.169 137.067 280.629 137.805 280.057C138.544 279.484 138.807 279.337 139.069 279.648L139.086 279.68Z" fill="#303741"/>
<path d="M193.416 262.011C193.859 261.177 194.106 258.854 193.548 257.921C192.989 256.989 191.414 255.958 192.07 255.451C192.727 254.944 194.664 253.815 195.879 253.847C195.879 253.847 196.059 253.504 196.683 253.504C197.307 253.504 197.881 254.829 198.406 256.629C198.932 258.396 201 263.647 201 265.283C201 266.903 200.819 268.424 200.179 268.833C199.539 269.242 198.177 270.109 197.98 268.719C197.783 267.328 197.29 265.757 196.683 265.201C196.076 264.645 194.992 263.369 194.237 262.944C193.482 262.535 193.252 262.338 193.433 262.011H193.416Z" fill="#303741"/>
<path d="M169.255 235.098C169.255 235.098 172.735 251.114 174.212 253.323L192.449 254.664C196.34 258.345 193.007 263.564 193.007 263.564C193.007 263.564 169.518 262.615 168.713 262.337C166.251 261.47 161.77 253.486 159.291 245.126L169.239 235.098H169.255Z" fill="#102B8C"/>
<path d="M143.076 253.935C143.667 252.233 146.917 245.411 146.917 245.378C147.984 243.023 149.314 240.061 149.872 238.671C150.873 236.135 153.828 228.413 153.828 228.413L168.224 224.781C169.012 225.73 170.161 228.233 170.965 230.9C172.311 235.301 167.567 239.129 163.874 241.583C160.181 244.037 152.942 257.55 152.942 257.55L147.755 281.812C147.755 281.812 142.551 282.417 137.627 279.522C137.627 279.522 142.617 255.243 143.076 253.935Z" fill="#2A4FC6"/>
<path d="M149.366 237.394L139.983 234.739C139.27 234.538 138.852 233.789 139.056 233.077L140.954 226.432C141.158 225.72 141.909 225.302 142.622 225.504L152.005 228.158C152.718 228.36 153.136 229.109 152.933 229.82L151.034 236.466C150.831 237.178 150.079 237.596 149.366 237.394ZM142.282 226.746L140.329 233.422L149.743 236.131C149.743 236.131 149.793 236.115 149.798 236.101L151.696 229.455L142.282 226.746Z" fill="#823008"/>
<path d="M137.92 227.463L154.99 232.292C155.36 232.397 155.574 232.78 155.469 233.15L151.757 246.143C151.651 246.513 151.266 246.727 150.895 246.622L133.826 241.793C133.455 241.688 133.241 241.305 133.347 240.935L137.059 227.942C137.165 227.572 137.549 227.358 137.92 227.463Z" fill="#823008"/>
<path d="M137.917 227.463L154.991 232.295C155.362 232.4 155.576 232.784 155.47 233.154L154.299 237.255C154.193 237.625 153.808 237.84 153.437 237.735L136.363 232.903C135.992 232.798 135.778 232.414 135.884 232.044L137.055 227.943C137.161 227.572 137.546 227.358 137.917 227.463Z" fill="#9B3B0B"/>
<path d="M144.272 233.33L146.482 233.955C146.852 234.06 147.067 234.444 146.961 234.814L146.331 237.019C146.225 237.389 145.84 237.603 145.47 237.498L143.259 236.873C142.889 236.768 142.675 236.385 142.78 236.015L143.41 233.809C143.516 233.439 143.901 233.225 144.272 233.33Z" fill="#EE6101"/>
<path d="M144.514 234.222L145.797 234.585C146.011 234.646 146.148 234.869 146.083 235.097L145.717 236.377C145.656 236.591 145.436 236.713 145.222 236.652L143.939 236.289C143.725 236.229 143.588 236.006 143.653 235.778L144.019 234.497C144.08 234.284 144.3 234.162 144.514 234.222Z" fill="#EE8602"/>
<path d="M144.536 228.067C143.879 226.169 145.16 225.76 146.161 224.762C147.162 223.765 150.281 223.912 152.087 223.028C153.006 222.587 153.794 222.243 154.68 221.441C155.6 222.93 156.601 224.37 157.668 225.76C155.633 226.448 153.909 226.987 153.236 227.266C151.529 227.969 151.184 228.869 148.755 229.965C146.325 231.045 145.127 229.769 144.536 228.067Z" fill="#FDB171"/>
<path d="M163.095 191.42C163.095 191.42 177.147 213.571 176.999 214.847C176.868 216.14 158.466 226.43 154.56 228.59L150.751 221.669L164.753 213.08C164.753 213.08 159.32 206.193 157.235 203.461C155.134 200.745 152.918 196.524 152.918 196.524C152.918 196.524 152.688 192.582 156.431 190.602C160.009 188.704 163.112 191.404 163.112 191.404L163.095 191.42Z" fill="#5188FF"/>
<path d="M149.331 194.227C148.254 196.227 146.654 201.796 148.87 208.073C151.085 214.35 151.946 218.688 152.099 220.073" stroke="white" stroke-width="0.184615" stroke-linecap="round"/>
<path d="M153.945 194.688C153.945 194.688 153.42 196.928 153.945 198.38C154.868 200.929 157.102 203.812 159.022 206.226C161.217 208.986 164.56 213.149 164.56 213.149L151.176 221.457L154.868 228.38L171.022 219.149C173.022 218.072 177.022 215.734 177.022 214.995" stroke="white" stroke-width="0.184615" stroke-linecap="round"/>
<path d="M126.869 205.636C126.885 205.98 127.197 206.258 127.542 206.241L132.926 205.947C133.271 205.93 133.55 205.62 133.517 205.276L132.959 194.969C132.942 194.626 132.63 194.348 132.286 194.364L126.902 194.658C126.557 194.658 126.278 194.986 126.294 195.329L126.852 205.636H126.869Z" fill="#00265F"/>
<path d="M132.357 195.613L132.809 203.879L127.432 204.171L126.98 195.905L132.357 195.613Z" fill="white"/>
<path d="M128.643 195.2C128.643 195.2 128.692 195.282 128.741 195.282L130.383 195.184C130.383 195.184 130.465 195.135 130.465 195.086C130.465 195.086 130.416 195.004 130.366 195.004L128.725 195.086C128.725 195.086 128.643 195.135 128.643 195.184V195.2Z" fill="#4985E2"/>
<path d="M129.693 205.374C129.693 205.505 129.808 205.603 129.939 205.586L130.465 205.554C130.596 205.554 130.694 205.439 130.678 205.308L130.645 204.785C130.645 204.654 130.53 204.556 130.399 204.572L129.874 204.605C129.742 204.605 129.644 204.719 129.66 204.85L129.693 205.374Z" fill="#4985E2"/>
<path d="M130.451 199.358V199.145H130.287L130.32 199.03H130.648L130.681 199.112H130.55V199.325L131.059 199.292V199.079H130.944L130.681 198.392H130.747V198.18L130.123 198.212L129.893 199.145H129.778V199.358L130.418 199.325L130.451 199.358ZM130.353 198.85L130.435 198.507L130.566 198.85H130.353Z" fill="#D93116"/>
<path d="M129.677 198.657C129.677 198.657 129.463 198.559 129.315 198.559C129.118 198.559 128.889 198.657 128.889 198.919V199.229H128.807V199.442L129.168 199.426L129.2 199.344C129.2 199.344 129.365 199.442 129.43 199.442C129.578 199.442 129.742 199.344 129.742 199.148C129.742 198.968 129.578 198.853 129.397 198.869C129.299 198.869 129.25 198.919 129.233 198.935V198.886C129.233 198.886 129.299 198.788 129.381 198.788C129.48 198.788 129.562 198.82 129.627 198.853L129.693 198.657H129.677ZM129.233 199.131C129.233 199.131 129.266 199.082 129.332 199.082C129.397 199.082 129.43 199.115 129.43 199.164C129.43 199.213 129.397 199.246 129.348 199.246C129.299 199.246 129.25 199.213 129.233 199.197V199.131Z" fill="#AD1800"/>
<path d="M134.438 199.622C134.438 199.622 133.009 198.247 132.812 197.282C132.681 196.71 132.189 196.775 132.107 196.906C132.024 197.037 131.631 199.229 133.272 200.718L134.438 199.605V199.622Z" fill="#FDB171"/>
<path d="M126.579 197.716C127.252 197.847 127.317 198.911 127.399 200.285C127.481 201.659 127.087 203.082 126.579 202.837C126.086 202.608 125.594 197.52 126.579 197.7V197.716Z" fill="#FDB171"/>
</g>
</g>
<rect x="0.5" y="0.5" width="919" height="517" rx="31.5" stroke="#0668E1"/>
<defs>
<linearGradient id="paint0_linear_24689_33640" x1="673.69" y1="376.779" x2="680.463" y2="52.8225" gradientUnits="userSpaceOnUse">
<stop stop-color="#DDECFF"/>
<stop offset="1" stop-color="#EAF3FF"/>
</linearGradient>
<linearGradient id="paint1_linear_24689_33640" x1="623.314" y1="167.615" x2="279.387" y2="489.604" gradientUnits="userSpaceOnUse">
<stop stop-color="#DEEDFF"/>
<stop offset="1" stop-color="#F3F8FF"/>
</linearGradient>
<linearGradient id="paint2_linear_24689_33640" x1="898.654" y1="278.087" x2="653.866" y2="469.936" gradientUnits="userSpaceOnUse">
<stop stop-color="#D6E8FF"/>
<stop offset="1" stop-color="#CFE4FF"/>
</linearGradient>
<linearGradient id="paint3_linear_24689_33640" x1="461.296" y1="221.827" x2="467.402" y2="214.915" gradientUnits="userSpaceOnUse">
<stop stop-color="#FFA9A9"/>
<stop offset="1" stop-color="#FF9494"/>
</linearGradient>
<clipPath id="clip0_24689_33640">
<rect width="920" height="518" rx="32" fill="white"/>
</clipPath>
<clipPath id="clip1_24689_33640">
<rect width="146" height="230" fill="white" transform="translate(407 188)"/>
</clipPath>
<clipPath id="clip2_24689_33640">
<rect width="75" height="120" fill="white" transform="matrix(-1 0 0 1 201 166.996)"/>
</clipPath>
</defs>
</svg>
