<svg width="60" height="60" viewBox="0 0 60 60" fill="none" xmlns="http://www.w3.org/2000/svg">
<rect width="60" height="60" rx="12" fill="#F2F8FF" style="fill:#F2F8FF;fill:color(display-p3 0.9490 0.9709 1.0000);fill-opacity:1;"/>
<circle cx="30" cy="30" r="20" fill="#0668E1" style="fill:#0668E1;fill:color(display-p3 0.0235 0.4078 0.8824);fill-opacity:1;"/>
<path d="M49.0984 29.9984C49.0984 40.5471 40.5471 49.0984 29.9984 49.0984C19.4498 49.0984 10.8984 40.5471 10.8984 29.9984C10.8984 19.4498 19.4498 10.8984 29.9984 10.8984C40.5471 10.8984 49.0984 19.4498 49.0984 29.9984ZM12.8084 29.9984C12.8084 39.4922 20.5047 47.1884 29.9984 47.1884C39.4922 47.1884 47.1884 39.4922 47.1884 29.9984C47.1884 20.5047 39.4922 12.8084 29.9984 12.8084C20.5047 12.8084 12.8084 20.5047 12.8084 29.9984Z" fill="#B1D4FF" fill-opacity="0.2" style="fill:#B1D4FF;fill:color(display-p3 0.6941 0.8314 1.0000);fill-opacity:0.2;"/>
<path d="M44.5761 23.2012C44.7827 23.1049 45.0288 23.1941 45.1199 23.403C46.6841 26.9886 46.9232 31.0142 45.7946 34.7599C45.7289 34.9781 45.4951 35.0958 45.2786 35.0246L30.9863 30.3256C30.6311 30.2088 30.6019 29.7175 30.9408 29.5595L44.5761 23.2012Z" fill="white" style="fill:white;fill-opacity:1;"/>
<path d="M44.912 36.0264C45.1233 36.1118 45.2259 36.3526 45.1353 36.5617C43.5796 40.1511 40.7986 43.0714 37.2895 44.8005C37.0851 44.9013 36.8396 44.8106 36.7439 44.6037L30.4333 30.9462C30.2765 30.6068 30.6158 30.2504 30.9626 30.3905L44.912 36.0264Z" fill="white" style="fill:white;fill-opacity:1;"/>
<path d="M35.7613 44.9172C35.8429 45.13 35.7368 45.3693 35.522 45.4456C31.836 46.7558 27.8035 46.7136 24.1458 45.3265C23.9326 45.2456 23.8315 45.0042 23.9176 44.7932L29.6022 30.8635C29.7435 30.5173 30.2356 30.5224 30.3696 30.8716L35.7613 44.9172Z" fill="white" style="fill:white;fill-opacity:1;"/>
<path d="M22.9439 44.4592C22.844 44.664 22.5966 44.7496 22.3943 44.6446C18.9222 42.8423 16.203 39.8644 14.7228 36.2432C14.6366 36.0322 14.7442 35.7936 14.9573 35.7127L29.0217 30.3701C29.3713 30.2374 29.7031 30.6008 29.5392 30.9369L22.9439 44.4592Z" fill="white" style="fill:white;fill-opacity:1;"/>
<path d="M14.6576 34.8509C14.4403 34.9197 14.2079 34.7993 14.1446 34.5803C13.0585 30.8222 13.3434 26.7995 14.9481 23.2319C15.0416 23.024 15.2886 22.9376 15.4941 23.0362L29.0565 29.5488C29.3936 29.7107 29.3588 30.2015 29.0023 30.3143L14.6576 34.8509Z" fill="white" style="fill:white;fill-opacity:1;"/>
<path d="M39.3342 25.6423C40.0682 27.2164 40.3922 28.9505 40.2762 30.6834C40.1602 32.4164 39.6078 34.0918 38.6705 35.554C37.7332 37.0161 36.4414 38.2175 34.9152 39.0465C33.389 39.8754 31.6779 40.3049 29.9412 40.2951C28.2044 40.2854 26.4983 39.8366 24.9815 38.9905C23.4648 38.1444 22.1866 36.9285 21.2658 35.4559C20.3451 33.9832 19.8116 32.3017 19.7151 30.5676C19.6186 28.8335 19.9622 27.1031 20.7139 25.5374L21.6424 25.9832C20.9659 27.3923 20.6567 28.9496 20.7435 30.5103C20.8304 32.071 21.3105 33.5844 22.1392 34.9098C22.9678 36.2352 24.1182 37.3295 25.4833 38.091C26.8484 38.8524 28.3839 39.2564 29.947 39.2652C31.5101 39.274 33.05 38.8874 34.4236 38.1413C35.7972 37.3953 36.9598 36.314 37.8034 34.9981C38.647 33.6821 39.1441 32.1743 39.2485 30.6146C39.3529 29.055 39.0613 27.4943 38.4007 26.0776L39.3342 25.6423Z" fill="#0668E1" style="fill:#0668E1;fill:color(display-p3 0.0235 0.4078 0.8824);fill-opacity:1;"/>
<path d="M42.5063 24.1671C43.4897 26.2761 43.9239 28.5995 43.7684 30.9214C43.6129 33.2432 42.8728 35.488 41.6169 37.447C40.361 39.4061 38.6301 41.0157 36.5852 42.1263C34.5402 43.2368 32.2477 43.8122 29.9207 43.799C27.5937 43.7858 25.3078 43.1843 23.2757 42.0505C21.2435 40.9168 19.5311 39.2875 18.2976 37.3143C17.064 35.3412 16.3495 33.0881 16.2205 30.7646C16.0914 28.4412 16.552 26.1228 17.5593 24.0251L18.8033 24.6225C17.8967 26.5105 17.4822 28.597 17.5983 30.6881C17.7145 32.7792 18.3576 34.807 19.4677 36.5828C20.5779 38.3587 22.1191 39.825 23.948 40.8454C25.777 41.8658 27.8343 42.4071 29.9285 42.419C32.0228 42.4309 34.0861 41.9131 35.9266 40.9136C37.767 39.9141 39.3248 38.4654 40.4551 36.7023C41.5854 34.9391 42.2515 32.9188 42.3915 30.8292C42.5314 28.7395 42.1407 26.6484 41.2556 24.7503L42.5063 24.1671Z" fill="#0668E1" style="fill:#0668E1;fill:color(display-p3 0.0235 0.4078 0.8824);fill-opacity:1;"/>
<path d="M16.2428 22.0615C15.9467 21.8905 15.8443 21.5112 16.0262 21.2217C17.4387 18.9744 19.3744 17.0982 21.6714 15.7559C24.1468 14.3094 26.9564 13.5329 29.8233 13.5029C32.6902 13.4728 35.5155 14.1904 38.0206 15.5847C40.3453 16.8786 42.3198 18.7138 43.779 20.9311C43.967 21.2167 43.8725 21.5981 43.5801 21.7752L30.3092 29.8123C30.1161 29.9293 29.8746 29.9318 29.679 29.8189L16.2428 22.0615Z" fill="white" style="fill:white;fill-opacity:1;"/>
<path d="M20.2695 19.1214C20.3873 19.0152 20.5068 18.9109 20.628 18.8086L22.0417 20.4831C21.9387 20.57 21.8371 20.6587 21.737 20.7489L20.2695 19.1214Z" fill="#1B1C17" style="fill:#1B1C17;fill:color(display-p3 0.1059 0.1098 0.0902);fill-opacity:1;"/>
<path d="M22.4977 20.877C22.5865 20.877 22.6617 20.8867 22.7234 20.9062C22.7851 20.9246 22.8348 20.956 22.8727 21.0003C22.9106 21.0436 22.9377 21.1031 22.9539 21.1789C22.9712 21.2536 22.9799 21.3472 22.9799 21.4597C22.9799 21.5712 22.9712 21.6648 22.9539 21.7405C22.9377 21.8152 22.9106 21.8747 22.8727 21.9191C22.8348 21.9635 22.7851 21.9949 22.7234 22.0133C22.6617 22.0317 22.5865 22.0409 22.4977 22.0409C22.409 22.0409 22.3338 22.0317 22.2721 22.0133C22.2115 21.9949 22.1623 21.9635 22.1244 21.9191C22.0865 21.8747 22.0589 21.8152 22.0416 21.7405C22.0243 21.6648 22.0156 21.5712 22.0156 21.4597C22.0156 21.3472 22.0243 21.2536 22.0416 21.1789C22.0589 21.1031 22.0865 21.0436 22.1244 21.0003C22.1623 20.956 22.2115 20.9246 22.2721 20.9062C22.3338 20.8867 22.409 20.877 22.4977 20.877ZM22.4166 22.0749C22.4891 22.1042 22.5648 22.1274 22.6438 22.1447C22.7228 22.1631 22.8078 22.1788 22.8987 22.1918L22.8338 22.4061C22.7364 22.3812 22.6482 22.3509 22.5692 22.3152C22.4902 22.2795 22.4204 22.2416 22.3598 22.2016L22.4166 22.0749ZM22.4977 21.0717C22.4415 21.0717 22.3971 21.0831 22.3646 21.1058C22.3322 21.1286 22.3094 21.1681 22.2965 21.2243C22.2835 21.2806 22.277 21.3591 22.277 21.4597C22.277 21.5593 22.2835 21.6372 22.2965 21.6935C22.3094 21.7497 22.3322 21.7892 22.3646 21.812C22.3971 21.8347 22.4415 21.8461 22.4977 21.8461C22.5551 21.8461 22.5995 21.8347 22.6309 21.812C22.6633 21.7892 22.686 21.7497 22.699 21.6935C22.7131 21.6372 22.7201 21.5593 22.7201 21.4597C22.7201 21.3591 22.7131 21.2806 22.699 21.2243C22.686 21.1681 22.6633 21.1286 22.6309 21.1058C22.5995 21.0831 22.5551 21.0717 22.4977 21.0717Z" fill="#1B1C17" style="fill:#1B1C17;fill:color(display-p3 0.1059 0.1098 0.0902);fill-opacity:1;"/>
<path d="M23.6088 20.8997V22.0197H23.3621V21.2243C23.3621 21.2038 23.3626 21.1838 23.3637 21.1643C23.3659 21.1437 23.3691 21.1237 23.3735 21.1042L23.1073 21.1724L23.0764 21.0117L23.3621 20.8997H23.6088Z" fill="#1B1C17" style="fill:#1B1C17;fill:color(display-p3 0.1059 0.1098 0.0902);fill-opacity:1;"/>
<path d="M26.0195 15.9284C26.172 15.8846 26.3251 15.8434 26.4789 15.8047L27.014 17.9298C26.8833 17.9627 26.7532 17.9977 26.6236 18.0349L26.0195 15.9284Z" fill="#1B1C17" style="fill:#1B1C17;fill:color(display-p3 0.1059 0.1098 0.0902);fill-opacity:1;"/>
<path d="M26.8766 18.5234C26.9654 18.5234 27.0406 18.5332 27.1023 18.5527C27.164 18.5711 27.2138 18.6024 27.2516 18.6468C27.2895 18.6901 27.3166 18.7496 27.3328 18.8254C27.3501 18.9 27.3588 18.9937 27.3588 19.1062C27.3588 19.2177 27.3501 19.3113 27.3328 19.387C27.3166 19.4617 27.2895 19.5212 27.2516 19.5656C27.2138 19.61 27.164 19.6413 27.1023 19.6597C27.0406 19.6781 26.9654 19.6873 26.8766 19.6873C26.7879 19.6873 26.7127 19.6781 26.651 19.6597C26.5904 19.6413 26.5412 19.61 26.5033 19.5656C26.4654 19.5212 26.4378 19.4617 26.4205 19.387C26.4032 19.3113 26.3945 19.2177 26.3945 19.1062C26.3945 18.9937 26.4032 18.9 26.4205 18.8254C26.4378 18.7496 26.4654 18.6901 26.5033 18.6468C26.5412 18.6024 26.5904 18.5711 26.651 18.5527C26.7127 18.5332 26.7879 18.5234 26.8766 18.5234ZM26.7955 19.7214C26.868 19.7506 26.9437 19.7739 27.0227 19.7912C27.1017 19.8096 27.1867 19.8253 27.2776 19.8383L27.2127 20.0526C27.1153 20.0277 27.0271 19.9974 26.9481 19.9617C26.8691 19.926 26.7993 19.8881 26.7387 19.848L26.7955 19.7214ZM26.8766 18.7182C26.8204 18.7182 26.776 18.7296 26.7435 18.7523C26.7111 18.775 26.6883 18.8145 26.6754 18.8708C26.6624 18.9271 26.6559 19.0056 26.6559 19.1062C26.6559 19.2058 26.6624 19.2837 26.6754 19.34C26.6883 19.3962 26.7111 19.4357 26.7435 19.4585C26.776 19.4812 26.8204 19.4925 26.8766 19.4925C26.934 19.4925 26.9784 19.4812 27.0098 19.4585C27.0422 19.4357 27.065 19.3962 27.0779 19.34C27.092 19.2837 27.099 19.2058 27.099 19.1062C27.099 19.0056 27.092 18.9271 27.0779 18.8708C27.065 18.8145 27.0422 18.775 27.0098 18.7523C26.9784 18.7296 26.934 18.7182 26.8766 18.7182Z" fill="#1B1C17" style="fill:#1B1C17;fill:color(display-p3 0.1059 0.1098 0.0902);fill-opacity:1;"/>
<path d="M27.8968 18.5267C27.9748 18.5267 28.0419 18.5337 28.0981 18.5478C28.1544 18.5608 28.1982 18.5862 28.2296 18.6241C28.261 18.6609 28.2767 18.715 28.2767 18.7864C28.2767 18.8297 28.2713 18.8697 28.2605 18.9065C28.2507 18.9422 28.2323 18.9796 28.2053 19.0185C28.1793 19.0575 28.1414 19.1035 28.0916 19.1565L27.7978 19.4601C27.8249 19.4557 27.8519 19.453 27.879 19.452C27.9071 19.4498 27.9353 19.4487 27.9634 19.4487H28.3092V19.6662H27.5073V19.5331C27.5073 19.5136 27.51 19.4958 27.5154 19.4796C27.5208 19.4622 27.53 19.4465 27.543 19.4325L27.8222 19.1338C27.8882 19.0656 27.9385 19.005 27.9731 18.952C28.0078 18.8979 28.0245 18.8513 28.0235 18.8124C28.0235 18.7886 28.0175 18.7718 28.0056 18.7621C27.9937 18.7512 27.9764 18.7442 27.9537 18.741C27.932 18.7366 27.9039 18.7345 27.8693 18.7345C27.8325 18.7345 27.7973 18.735 27.7637 18.7361C27.7313 18.7361 27.6961 18.7372 27.6582 18.7393C27.6214 18.7415 27.5781 18.7447 27.5284 18.7491L27.517 18.5656C27.5711 18.5537 27.6193 18.5451 27.6615 18.5397C27.7048 18.5343 27.7453 18.531 27.7832 18.5299C27.8211 18.5278 27.859 18.5267 27.8968 18.5267Z" fill="#1B1C17" style="fill:#1B1C17;fill:color(display-p3 0.1059 0.1098 0.0902);fill-opacity:1;"/>
<path d="M33.5897 15.7969C33.7435 15.8353 33.8968 15.8762 34.0493 15.9197L33.4493 18.0274C33.3196 17.9905 33.1894 17.9557 33.0586 17.923L33.5897 15.7969Z" fill="#1B1C17" style="fill:#1B1C17;fill:color(display-p3 0.1059 0.1098 0.0902);fill-opacity:1;"/>
<path d="M32.8063 18.5234C32.8951 18.5234 32.9703 18.5332 33.032 18.5527C33.0937 18.5711 33.1434 18.6024 33.1813 18.6468C33.2192 18.6901 33.2462 18.7496 33.2625 18.8254C33.2798 18.9 33.2885 18.9937 33.2885 19.1062C33.2885 19.2177 33.2798 19.3113 33.2625 19.387C33.2462 19.4617 33.2192 19.5212 33.1813 19.5656C33.1434 19.61 33.0937 19.6413 33.032 19.6597C32.9703 19.6781 32.8951 19.6873 32.8063 19.6873C32.7176 19.6873 32.6424 19.6781 32.5807 19.6597C32.5201 19.6413 32.4709 19.61 32.433 19.5656C32.3951 19.5212 32.3675 19.4617 32.3502 19.387C32.3329 19.3113 32.3242 19.2177 32.3242 19.1062C32.3242 18.9937 32.3329 18.9 32.3502 18.8254C32.3675 18.7496 32.3951 18.6901 32.433 18.6468C32.4709 18.6024 32.5201 18.5711 32.5807 18.5527C32.6424 18.5332 32.7176 18.5234 32.8063 18.5234ZM32.7252 19.7214C32.7977 19.7506 32.8734 19.7739 32.9524 19.7912C33.0314 19.8096 33.1164 19.8253 33.2073 19.8383L33.1424 20.0526C33.045 20.0277 32.9568 19.9974 32.8778 19.9617C32.7988 19.926 32.729 19.8881 32.6684 19.848L32.7252 19.7214ZM32.8063 18.7182C32.7501 18.7182 32.7057 18.7296 32.6732 18.7523C32.6408 18.775 32.618 18.8145 32.605 18.8708C32.5921 18.9271 32.5856 19.0056 32.5856 19.1062C32.5856 19.2058 32.5921 19.2837 32.605 19.34C32.618 19.3962 32.6408 19.4357 32.6732 19.4585C32.7057 19.4812 32.7501 19.4925 32.8063 19.4925C32.8637 19.4925 32.9081 19.4812 32.9394 19.4585C32.9719 19.4357 32.9946 19.3962 33.0076 19.34C33.0217 19.2837 33.0287 19.2058 33.0287 19.1062C33.0287 19.0056 33.0217 18.9271 33.0076 18.8708C32.9946 18.8145 32.9719 18.775 32.9394 18.7523C32.9081 18.7296 32.8637 18.7182 32.8063 18.7182Z" fill="#1B1C17" style="fill:#1B1C17;fill:color(display-p3 0.1059 0.1098 0.0902);fill-opacity:1;"/>
<path d="M33.8071 18.5234C33.8958 18.5234 33.9667 18.5316 34.0197 18.5478C34.0738 18.5629 34.1128 18.5895 34.1366 18.6273C34.1615 18.6652 34.1739 18.7177 34.1739 18.7848C34.1739 18.8357 34.1691 18.8811 34.1593 18.9211C34.1496 18.9601 34.1323 18.992 34.1074 19.0169C34.0825 19.0418 34.0468 19.0586 34.0002 19.0672V19.0737C34.0771 19.0856 34.1301 19.1149 34.1593 19.1614C34.1885 19.2079 34.2037 19.2723 34.2048 19.3546C34.2058 19.4325 34.1939 19.4963 34.1691 19.5461C34.1442 19.5948 34.103 19.6305 34.0457 19.6532C33.9894 19.676 33.9137 19.6873 33.8184 19.6873C33.7535 19.6873 33.688 19.6841 33.622 19.6776C33.556 19.6722 33.4921 19.6657 33.4305 19.6581L33.4402 19.4763C33.4846 19.4796 33.5235 19.4823 33.5571 19.4844C33.5917 19.4855 33.6242 19.4866 33.6545 19.4877C33.6859 19.4888 33.7183 19.4893 33.7519 19.4893C33.8038 19.4893 33.8449 19.485 33.8752 19.4763C33.9055 19.4666 33.9272 19.4498 33.9402 19.426C33.9532 19.4011 33.9596 19.3665 33.9596 19.3221C33.9596 19.2875 33.9553 19.2582 33.9467 19.2344C33.938 19.2106 33.9212 19.1928 33.8963 19.1809C33.8714 19.169 33.8347 19.163 33.786 19.163L33.5749 19.1646V19.0023H33.786C33.8217 19.0023 33.8498 18.9985 33.8704 18.9909C33.892 18.9823 33.9077 18.9715 33.9174 18.9585C33.9283 18.9444 33.9348 18.9282 33.9369 18.9098C33.9402 18.8903 33.9418 18.8703 33.9418 18.8497C33.9418 18.8129 33.9364 18.7859 33.9256 18.7686C33.9147 18.7502 33.8963 18.7377 33.8704 18.7312C33.8455 18.7247 33.8103 18.7215 33.7649 18.7215C33.7086 18.7215 33.6539 18.722 33.6009 18.7231C33.549 18.7242 33.503 18.7258 33.4629 18.728L33.4532 18.5543C33.5138 18.5435 33.5733 18.5359 33.6317 18.5316C33.6902 18.5261 33.7486 18.5234 33.8071 18.5234Z" fill="#1B1C17" style="fill:#1B1C17;fill:color(display-p3 0.1059 0.1098 0.0902);fill-opacity:1;"/>
<path d="M39.436 18.7793C39.5575 18.8812 39.6773 18.9851 39.7954 19.091L38.3328 20.723C38.2324 20.633 38.1306 20.5447 38.0273 20.458L39.436 18.7793Z" fill="#1B1C17" style="fill:#1B1C17;fill:color(display-p3 0.1059 0.1098 0.0902);fill-opacity:1;"/>
<path d="M36.9391 21.123C37.0279 21.123 37.1031 21.1328 37.1648 21.1523C37.2265 21.1707 37.2763 21.202 37.3141 21.2464C37.352 21.2897 37.3791 21.3492 37.3953 21.425C37.4126 21.4997 37.4213 21.5933 37.4213 21.7058C37.4213 21.8173 37.4126 21.9109 37.3953 21.9866C37.3791 22.0613 37.352 22.1208 37.3141 22.1652C37.2763 22.2096 37.2265 22.241 37.1648 22.2594C37.1031 22.2777 37.0279 22.2869 36.9391 22.2869C36.8504 22.2869 36.7752 22.2777 36.7135 22.2594C36.6529 22.241 36.6037 22.2096 36.5658 22.1652C36.5279 22.1208 36.5003 22.0613 36.483 21.9866C36.4657 21.9109 36.457 21.8173 36.457 21.7058C36.457 21.5933 36.4657 21.4997 36.483 21.425C36.5003 21.3492 36.5279 21.2897 36.5658 21.2464C36.6037 21.202 36.6529 21.1707 36.7135 21.1523C36.7752 21.1328 36.8504 21.123 36.9391 21.123ZM36.858 22.321C36.9305 22.3503 37.0062 22.3735 37.0852 22.3908C37.1642 22.4092 37.2492 22.4249 37.3401 22.4379L37.2752 22.6522C37.1778 22.6273 37.0896 22.597 37.0106 22.5613C36.9316 22.5256 36.8618 22.4877 36.8012 22.4477L36.858 22.321ZM36.9391 21.3178C36.8829 21.3178 36.8385 21.3292 36.806 21.3519C36.7736 21.3747 36.7508 21.4142 36.7379 21.4704C36.7249 21.5267 36.7184 21.6052 36.7184 21.7058C36.7184 21.8054 36.7249 21.8833 36.7379 21.9396C36.7508 21.9958 36.7736 22.0353 36.806 22.0581C36.8385 22.0808 36.8829 22.0922 36.9391 22.0922C36.9965 22.0922 37.0409 22.0808 37.0723 22.0581C37.1047 22.0353 37.1275 21.9958 37.1404 21.9396C37.1545 21.8833 37.1615 21.8054 37.1615 21.7058C37.1615 21.6052 37.1545 21.5267 37.1404 21.4704C37.1275 21.4142 37.1047 21.3747 37.0723 21.3519C37.0409 21.3292 36.9965 21.3178 36.9391 21.3178Z" fill="#1B1C17" style="fill:#1B1C17;fill:color(display-p3 0.1059 0.1098 0.0902);fill-opacity:1;"/>
<path d="M38.0762 21.1458L37.8068 21.7902C37.7992 21.8075 37.7992 21.8211 37.8068 21.8308C37.8143 21.8395 37.8257 21.8438 37.8408 21.8438H38.4837V21.9915L38.3457 22.0142H37.6623C37.632 22.0142 37.606 22.0061 37.5844 21.9899C37.5638 21.9737 37.5497 21.9525 37.5422 21.9266C37.5357 21.8995 37.5378 21.8719 37.5487 21.8438L37.8441 21.1458H38.0762ZM38.3473 21.3633V22.2658H38.1201V21.5419L38.1606 21.3633H38.3473Z" fill="#1B1C17" style="fill:#1B1C17;fill:color(display-p3 0.1059 0.1098 0.0902);fill-opacity:1;"/>
<circle cx="30.0008" cy="29.9969" r="6.75429" fill="white" stroke="#0668E1" style="fill:white;fill-opacity:1;stroke:#0668E1;stroke:color(display-p3 0.0235 0.4078 0.8824);stroke-opacity:1;" stroke-width="0.891429"/>
<path d="M28.0888 28.4536C28.2764 28.4536 28.4675 28.4553 28.662 28.4587C28.8564 28.4587 29.0475 28.4621 29.2351 28.469C29.4228 28.4758 29.5985 28.4877 29.7622 28.5048L29.7264 29.0728H28.3703C28.285 29.0728 28.2202 29.095 28.1758 29.1393C28.1349 29.1803 28.1144 29.2451 28.1144 29.3338V31.1351C28.1144 31.2204 28.1349 31.2853 28.1758 31.3296C28.2202 31.374 28.285 31.3961 28.3703 31.3961H29.7264L29.7622 31.9642C29.5985 31.9778 29.4228 31.9881 29.2351 31.9949C29.0475 32.0017 28.8564 32.0051 28.662 32.0051C28.4675 32.0085 28.2764 32.0102 28.0888 32.0102C27.8636 32.0102 27.6811 31.9454 27.5412 31.8158C27.4048 31.6861 27.3348 31.5155 27.3314 31.304V29.1649C27.3348 28.95 27.4048 28.7777 27.5412 28.6481C27.6811 28.5184 27.8636 28.4536 28.0888 28.4536ZM27.4235 29.8865H29.537V30.4392H27.4235V29.8865ZM31.6673 28.4075C31.8344 28.4075 31.976 28.4127 32.092 28.4229C32.2114 28.4297 32.3206 28.4417 32.4195 28.4587C32.5185 28.4758 32.6208 28.498 32.7266 28.5252L32.6652 29.1035C32.5526 29.0967 32.4485 29.0916 32.353 29.0882C32.2609 29.0848 32.1603 29.0813 32.0511 29.0779C31.9453 29.0745 31.8174 29.0728 31.6673 29.0728C31.4933 29.0728 31.3568 29.1086 31.2579 29.1803C31.1623 29.2485 31.0941 29.3662 31.0532 29.5334C31.0122 29.7006 30.9918 29.9343 30.9918 30.2345C30.9918 30.5313 31.0122 30.765 31.0532 30.9356C31.0941 31.1027 31.1623 31.2204 31.2579 31.2887C31.3568 31.3569 31.4933 31.391 31.6673 31.391C31.9027 31.391 32.1006 31.3876 32.2609 31.3808C32.4212 31.374 32.5799 31.362 32.7368 31.345L32.8033 31.9181C32.6396 31.9693 32.4724 32.0051 32.3018 32.0256C32.1313 32.0495 31.9197 32.0614 31.6673 32.0614C31.3022 32.0614 31.0105 32.0034 30.7922 31.8874C30.5738 31.768 30.4152 31.5753 30.3163 31.3091C30.2207 31.043 30.173 30.6848 30.173 30.2345C30.173 29.7841 30.2207 29.4259 30.3163 29.1598C30.4152 28.8937 30.5738 28.7026 30.7922 28.5867C31.0105 28.4672 31.3022 28.4075 31.6673 28.4075Z" fill="#0668E1" style="fill:#0668E1;fill:color(display-p3 0.0235 0.4078 0.8824);fill-opacity:1;"/>
</svg>
