<svg width="66" height="66" viewBox="0 0 66 66" fill="none" xmlns="http://www.w3.org/2000/svg">
<rect x="0.5" y="0.5" width="65" height="65" rx="13.5" fill="#F2F8FF" style="fill:#F2F8FF;fill:color(display-p3 0.9490 0.9725 1.0000);fill-opacity:1;"/>
<rect x="0.5" y="0.5" width="65" height="65" rx="13.5" stroke="#0668E1" style="stroke:#0668E1;stroke:color(display-p3 0.0235 0.4078 0.8824);stroke-opacity:1;"/>
<path d="M33.4727 22C34.8527 22 36.1047 22.56 37.0087 23.464C37.1964 23.6516 37.3018 23.9061 37.3018 24.1715C37.3018 24.4369 37.1964 24.6914 37.0087 24.879C36.8211 25.0667 36.5666 25.1721 36.3012 25.1721C36.0358 25.1721 35.7814 25.0667 35.5937 24.879C35.0312 24.3164 34.2683 24.0002 33.4727 24C32.6437 24 31.8957 24.335 31.3517 24.879C31.1641 25.0667 30.9096 25.1721 30.6442 25.1721C30.3788 25.1721 30.1244 25.0667 29.9367 24.879C29.7491 24.6914 29.6437 24.4369 29.6437 24.1715C29.6437 23.9061 29.7491 23.6516 29.9367 23.464C30.4011 22.9997 30.9524 22.6315 31.5591 22.3803C32.1658 22.1291 32.8161 21.9999 33.4727 22ZM33.4727 18C34.6548 17.9989 35.8254 18.2312 36.9175 18.6835C38.0096 19.1359 39.0016 19.7994 39.8367 20.636C40.0189 20.8246 40.1197 21.0772 40.1174 21.3394C40.1151 21.6016 40.0099 21.8524 39.8245 22.0378C39.6391 22.2232 39.3883 22.3284 39.1261 22.3307C38.8639 22.333 38.6113 22.2322 38.4227 22.05C37.7733 21.3991 37.0017 20.883 36.1522 20.5312C35.3028 20.1794 34.3922 19.9989 33.4727 20C32.5533 19.9989 31.6427 20.1794 30.7932 20.5312C29.9437 20.883 29.1721 21.3991 28.5227 22.05C28.3341 22.2322 28.0815 22.333 27.8193 22.3307C27.5571 22.3284 27.3063 22.2232 27.1209 22.0378C26.9355 21.8524 26.8303 21.6016 26.828 21.3394C26.8258 21.0772 26.9266 20.8246 27.1087 20.636C27.9438 19.7994 28.9358 19.1359 30.0279 18.6835C31.12 18.2312 32.2906 17.9989 33.4727 18ZM33.4727 14C37.0627 14 40.3127 15.456 42.6647 17.808C42.8469 17.9966 42.9477 18.2492 42.9454 18.5114C42.9431 18.7736 42.8379 19.0244 42.6525 19.2098C42.4671 19.3952 42.2163 19.5004 41.9541 19.5027C41.6919 19.505 41.4393 19.4042 41.2507 19.222C40.2306 18.1988 39.0183 17.3873 37.6834 16.8344C36.3486 16.2814 34.9176 15.9979 33.4727 16C32.0279 15.9979 30.5969 16.2814 29.262 16.8344C27.9272 17.3873 26.7148 18.1988 25.6947 19.222C25.5061 19.4042 25.2535 19.505 24.9913 19.5027C24.7291 19.5004 24.4783 19.3952 24.2929 19.2098C24.1075 19.0244 24.0023 18.7736 24 18.5114C23.9978 18.2492 24.0986 17.9966 24.2807 17.808C25.4865 16.5991 26.9193 15.6403 28.4967 14.9868C30.0742 14.3333 31.7652 13.9979 33.4727 14Z" fill="#0668E1" style="fill:#0668E1;fill:color(display-p3 0.0235 0.4078 0.8824);fill-opacity:1;"/>
<g clip-path="url(#clip0_21986_27916)">
<path d="M52.7315 65.9859C50.7948 60.4505 47.0894 52.7495 45.6569 51.9414L42.3998 60.3859C42.0076 59.6586 43.7523 63.0122 45.2008 65.9859H52.7315Z" fill="#FFA98F" style="fill:#FFA98F;fill:color(display-p3 1.0000 0.6627 0.5608);fill-opacity:1;"/>
<path d="M23.0909 65.9816H41.5855C41.7856 65.0281 42.0097 64.1715 42.2017 63.4685C42.2017 63.4604 42.2017 63.4604 42.2017 63.4523L42.2097 63.4361C42.3458 62.9594 42.4738 62.5472 42.5779 62.2159L45.675 51.9129C43.6102 49.7149 36.0715 47.832 36.0715 47.832L34.591 47.6785C32.3582 47.4442 30.5896 47.4442 27.9406 48.2038C25.3397 48.9472 22.0025 50.0058 20.57 51.3149C16.9927 54.6038 22.3306 61.4483 22.3306 61.4483C22.4347 61.9977 22.8668 63.3957 23.0909 65.9816Z" fill="#0568E0" style="fill:#0568E0;fill:color(display-p3 0.0196 0.4078 0.8784);fill-opacity:1;"/>
<path d="M20.6422 65.9865C21.3704 63.7158 22.1307 61.5582 22.2507 61.5905L20.298 51.3359C18.8175 52.1763 15.1122 60.3057 13.3516 65.9865H20.6422Z" fill="#FFA98F" style="fill:#FFA98F;fill:color(display-p3 1.0000 0.6627 0.5608);fill-opacity:1;"/>
<path d="M20.9548 65.9841C21.0669 65.5477 21.1789 65.1518 21.2589 64.8932C21.2669 64.8932 21.2669 64.8932 21.2749 64.9013C21.2029 65.2649 21.1949 65.6285 21.2189 65.9922H43.4589C43.6509 65.1437 43.883 64.3922 43.971 64.0204C43.987 64.0204 43.987 64.0204 43.979 64.0204H43.987C44.0991 64.3356 44.3872 65.176 44.7073 66.0003H52.0539C52.1259 65.976 52.19 65.9518 52.254 65.9275C52.8462 65.7255 53.1503 65.1114 52.9262 64.5619C50.8855 59.479 47.1082 52.6669 46.4599 51.883C44.6673 49.7497 38.8572 48.4971 38.5691 48.4163C37.7288 48.1982 36.8885 47.9961 36.0322 47.8184C35.424 49.1517 34.0795 51.18 33.3032 52.9578C31.9347 51.0911 29.9821 49.0062 29.4459 47.8184C28.5976 47.9961 27.7493 48.1901 26.909 48.4163C26.6209 48.4891 20.8108 49.7416 19.0181 51.883C18.0818 52.9901 15.705 57.281 13.9043 62.4447C13.7843 62.8245 13.5362 63.98 13 65.9841H20.9548Z" fill="#3886E8" style="fill:#3886E8;fill:color(display-p3 0.2196 0.5255 0.9098);fill-opacity:1;"/>
<path d="M21.2695 64.8945C21.2855 64.9025 21.3015 64.9025 21.2695 64.8945V64.8945Z" fill="#3886E8" style="fill:#3886E8;fill:color(display-p3 0.2196 0.5255 0.9098);fill-opacity:1;"/>
<path d="M29.8784 65.9843C30.3184 59.8106 31.9184 52.9984 31.9424 52.9015L31.8064 52.8691C31.7824 52.9661 30.1744 59.7944 29.7344 65.9843H29.8784Z" fill="white" style="fill:white;fill-opacity:1;"/>
<path d="M32.5755 65.9839C32.1515 61.588 32.5355 52.8768 32.5435 52.7718L32.3995 52.7637C32.3835 53.192 32.0075 61.6284 32.4315 65.9759H32.5755V65.9839Z" fill="white" style="fill:white;fill-opacity:1;"/>
<path d="M32.3581 53.2976C35.4122 53.2976 37.8881 51.7129 37.8881 49.7582C37.8881 47.8034 35.4122 46.2188 32.3581 46.2188C29.304 46.2188 26.8281 47.8034 26.8281 49.7582C26.8281 51.7129 29.304 53.2976 32.3581 53.2976Z" fill="#3886E8" style="fill:#3886E8;fill:color(display-p3 0.2196 0.5255 0.9098);fill-opacity:1;"/>
<path d="M37.7193 48.7734C37.9834 49.7431 37.8233 50.8502 37.1671 51.6017C37.1031 51.7068 36.991 51.7795 36.911 51.8684C36.815 51.9492 36.7429 52.0462 36.6309 52.1108C36.4228 52.2401 36.2308 52.4017 35.9987 52.4987C35.7746 52.6038 35.5585 52.725 35.3104 52.7815L34.9583 52.8947L34.7822 52.9512L34.5982 52.9836L33.8699 53.129C33.6218 53.1613 33.3737 53.1775 33.1257 53.2098L32.7575 53.2502C32.6375 53.2583 32.5094 53.2502 32.3894 53.2502L32.0213 53.2421C31.9012 53.2341 31.7732 53.226 31.6531 53.2098C31.157 53.1533 30.6688 53.0563 30.1886 52.9027C29.7084 52.7573 29.2523 52.5553 28.8281 52.2724C29.6444 52.8785 30.6368 53.1775 31.6291 53.3149C31.7572 53.331 31.8772 53.3472 32.0053 53.3553L32.3814 53.3634C32.5094 53.3634 32.6375 53.3714 32.7575 53.3634L33.1337 53.331C33.3817 53.3068 33.6378 53.2906 33.8859 53.2583L34.6302 53.1128L34.8143 53.0724L34.9983 53.0159L35.3585 52.9027C35.6065 52.8381 35.8306 52.7169 36.0547 52.6038C36.2948 52.5068 36.4869 52.3371 36.7029 52.1997C36.815 52.1351 36.895 52.03 36.991 51.9492C37.0791 51.8522 37.1831 51.7795 37.2551 51.6664C37.5912 51.2704 37.7753 50.7694 37.8553 50.2684C37.9194 49.7755 37.8793 49.2502 37.7193 48.7734Z" fill="#226CBC" style="fill:#226CBC;fill:color(display-p3 0.1333 0.4235 0.7373);fill-opacity:1;"/>
<path d="M27.321 48.3301C27.113 48.5321 26.953 48.7745 26.825 49.0412C26.697 49.3079 26.625 49.5988 26.625 49.8978C26.625 50.0513 26.657 50.1968 26.689 50.3422C26.745 50.4796 26.793 50.625 26.889 50.7382C26.969 50.8675 27.081 50.9644 27.177 51.0695C27.289 51.1665 27.409 51.2392 27.529 51.32C27.321 51.118 27.113 50.924 26.977 50.6816C26.833 50.4473 26.753 50.1725 26.761 49.8978C26.753 49.623 26.825 49.3483 26.921 49.0816C27.017 48.823 27.153 48.5725 27.321 48.3301Z" fill="#226CBC" style="fill:#226CBC;fill:color(display-p3 0.1333 0.4235 0.7373);fill-opacity:1;"/>
<path d="M35.5042 43.6161L31.1347 38.5332L29.142 43.3575L29.4861 44.3514L29.0859 47.8827C30.6385 50.6787 34.856 50.3312 35.5202 48.6343L35.5042 43.6161Z" fill="#FFA98F" style="fill:#FFA98F;fill:color(display-p3 1.0000 0.6627 0.5608);fill-opacity:1;"/>
<path d="M37.3523 35.7201C38.5288 37.5544 39.0009 41.7726 37.2803 44.8029C36.5441 46.0959 32.7027 46.0312 31.5023 44.9726C30.4539 44.0514 28.7173 38.5726 30.0778 36.9888C31.4222 35.3968 36.1039 33.0534 37.3523 35.7201Z" fill="#FFA98F" style="fill:#FFA98F;fill:color(display-p3 1.0000 0.6627 0.5608);fill-opacity:1;"/>
<path d="M31.7756 37.5495C31.5195 37.4283 31.2874 37.2829 31.0553 37.1293C30.207 36.5556 29.4068 35.8364 28.9026 34.9717C28.8546 34.8829 28.8065 34.794 28.7585 34.7051C28.6545 34.7536 28.5505 34.802 28.4544 34.8586C27.5661 35.3758 26.9339 36.2647 26.7818 37.2344C26.6538 38.0344 26.5497 39.3596 27.382 40.192C27.7742 40.5879 28.1743 41.0243 28.3424 41.5415L29.2227 43.6021C29.2227 43.6021 30.191 42.7294 30.2951 42.6243C30.6712 42.2526 30.7672 41.8243 31.0393 41.396C31.7436 40.3132 32.1037 38.8425 32.2958 37.792C32.1357 37.7112 31.9517 37.6303 31.7756 37.5495Z" fill="#061728" style="fill:#061728;fill:color(display-p3 0.0235 0.0902 0.1569);fill-opacity:1;"/>
<path d="M31.7276 40.796C31.4636 40.4727 31.1276 40.1172 30.7196 40.1333C30.5116 40.1414 30.3276 40.2626 30.1996 40.4162C29.5436 41.2 29.6956 42.5172 30.6076 43.0829C30.9916 43.3172 31.4796 43.3899 31.7276 42.9455L31.8236 41.0303C31.8476 40.9576 31.7836 40.8687 31.7276 40.796Z" fill="#FFA98F" style="fill:#FFA98F;fill:color(display-p3 1.0000 0.6627 0.5608);fill-opacity:1;"/>
<path d="M35.578 45.7662C35.546 45.7662 32.737 46.0491 31.3125 44.6101L31.4085 44.5293C32.793 45.9198 35.538 45.653 35.562 45.6449L35.578 45.7662Z" fill="#061728" style="fill:#061728;fill:color(display-p3 0.0235 0.0902 0.1569);fill-opacity:1;"/>
<path d="M35.3205 41.9299L35.3125 41.8087L35.7365 41.7764C35.9045 41.7602 36.0565 41.6794 36.1525 41.542C36.2485 41.4127 36.2725 41.243 36.2165 41.0976L35.6165 39.3763L35.7365 39.3359L36.3365 41.0572C36.4005 41.243 36.3685 41.445 36.2565 41.6067C36.1365 41.7683 35.9525 41.8733 35.7445 41.8895L35.3205 41.9299Z" fill="#061728" style="fill:#061728;fill:color(display-p3 0.0235 0.0902 0.1569);fill-opacity:1;"/>
<path d="M34.1365 39.3417C34.1925 39.4629 34.1925 39.6408 34.2005 39.7378C34.2245 39.9237 34.0165 40.0288 33.8325 39.9884C33.4885 39.9076 33.5125 39.1638 33.9285 39.1881C34.0325 39.1962 34.0965 39.2608 34.1365 39.3417Z" fill="#061728" style="fill:#061728;fill:color(display-p3 0.0235 0.0902 0.1569);fill-opacity:1;"/>
<path d="M37.242 39.2772C37.298 39.3985 37.298 39.5763 37.306 39.6733C37.33 39.8593 37.122 39.9644 36.938 39.9239C36.594 39.8431 36.618 39.0994 37.034 39.1236C37.146 39.1317 37.202 39.1883 37.242 39.2772Z" fill="#061728" style="fill:#061728;fill:color(display-p3 0.0235 0.0902 0.1569);fill-opacity:1;"/>
<path d="M36.4897 42.721L33.9297 42.4219C33.9297 42.4219 34.1857 43.8689 35.1777 43.9578C36.3297 44.071 36.4897 42.721 36.4897 42.721Z" fill="white" style="fill:white;fill-opacity:1;"/>
<path d="M36.5961 35.6575L38.1641 37.5565C38.1641 37.5565 37.5481 35.2535 36.9721 34.9464C36.3961 34.6393 36.5961 35.6575 36.5961 35.6575Z" fill="#061728" style="fill:#061728;fill:color(display-p3 0.0235 0.0902 0.1569);fill-opacity:1;"/>
<path d="M31.3602 43.2453C30.7202 43.3342 30.1842 42.8007 30.1602 42.7683L30.2562 42.6875C30.2642 42.6956 30.9202 43.3504 31.5842 43.0513L31.6402 43.1564C31.5442 43.2049 31.4482 43.2372 31.3602 43.2453Z" fill="#061728" style="fill:#061728;fill:color(display-p3 0.0235 0.0902 0.1569);fill-opacity:1;"/>
<path d="M29.7004 33.4828C28.8041 33.7253 28.4119 33.8626 28.0038 34.1536C27.6597 34.396 26.8594 35.1879 26.8594 35.8424C26.8514 36.998 29.2683 38.0081 31.429 38C31.8372 38 32.6375 37.8223 33.7819 37.4748C36.3028 36.7152 39.0958 35.2687 38.4395 32.2465C38.4395 32.2465 38.0794 32.8687 37.6312 32.9657C37.6312 32.9657 38.2234 31.002 35.8866 30C36.0147 30.0566 35.0703 31.1636 35.0063 31.2121C34.11 32.0121 33.2297 32.5535 32.3894 32.8525C31.5811 33.1354 31.5811 32.9818 29.7004 33.4828Z" fill="#061728" style="fill:#061728;fill:color(display-p3 0.0235 0.0902 0.1569);fill-opacity:1;"/>
<path d="M32.8828 38.4384C32.9388 38.301 33.0508 38.1878 33.1788 38.0989C33.3068 38.0099 33.4588 37.9533 33.6188 37.9291C33.9388 37.8725 34.2908 37.9776 34.4828 38.212C34.3228 38.212 34.1868 38.204 34.0508 38.212C33.9228 38.212 33.7948 38.2282 33.6748 38.2444C33.4268 38.2929 33.1868 38.3656 32.8828 38.4384Z" fill="#061728" style="fill:#061728;fill:color(display-p3 0.0235 0.0902 0.1569);fill-opacity:1;"/>
<path d="M36.3867 38.0912C36.4027 37.9619 36.4827 37.8568 36.5787 37.7759C36.6827 37.6951 36.8187 37.6385 36.9547 37.6304C37.0907 37.6223 37.2347 37.6466 37.3547 37.7032C37.4187 37.7274 37.4667 37.7759 37.5147 37.8083C37.5627 37.8568 37.6027 37.8972 37.6347 37.9538C37.5627 37.9619 37.5067 37.9538 37.4427 37.9538C37.3867 37.9538 37.3307 37.9457 37.2747 37.9457C37.1707 37.9376 37.0747 37.9457 36.9867 37.9538C36.8107 37.9619 36.6427 38.0104 36.3867 38.0912Z" fill="#061728" style="fill:#061728;fill:color(display-p3 0.0235 0.0902 0.1569);fill-opacity:1;"/>
</g>
<defs>
<clipPath id="clip0_21986_27916">
<rect width="40" height="40" fill="white" style="fill:white;fill-opacity:1;" transform="translate(13 26)"/>
</clipPath>
</defs>
</svg>
