<svg width="32" height="32" viewBox="0 0 32 32" fill="none" xmlns="http://www.w3.org/2000/svg">
<rect width="32" height="32" rx="8" fill="#E6F0FC" style="fill:#E6F0FC;fill:color(display-p3 0.9020 0.9412 0.9882);fill-opacity:1;"/>
<path d="M22.6469 10.1099C22.6367 10.2111 22.6308 10.3266 22.6281 10.4519L21.1904 11.1385C20.989 11.1055 19.9904 11.1636 18.5009 10.4286C18.1232 10.2422 17.7543 10.1432 17.3999 10.1432C17.0792 10.1436 16.7631 10.22 16.4777 10.3664C16.1016 10.285 15.5598 10.0765 15.2429 10.0772C14.5259 10.081 12.8958 10.6649 12.4443 10.7148C12.0025 10.7631 11.5476 10.8846 11.0898 11.0781C10.2576 10.8359 9.21438 10.4402 8.65562 10.2216L4.75 7.375V16.5287L7.62025 17.8945C7.66188 17.8457 7.7095 17.7708 7.76125 17.6777L7.85013 17.719C7.89363 17.8315 7.94163 17.9435 7.99412 18.055C7.67913 18.5852 7.64162 19.1826 7.89325 19.702C8.10888 20.1464 8.5105 20.4584 8.95787 20.5458C8.98225 20.8225 9.07525 21.0903 9.232 21.3224C9.51325 21.7375 9.96025 21.9854 10.4286 21.9854C10.4711 21.9854 10.5134 21.9831 10.5554 21.9786C10.6221 22.159 10.72 22.327 10.8471 22.4725C11.1299 22.7976 11.5259 22.984 11.9331 22.984C11.9631 22.984 11.9928 22.983 12.022 22.981C12.0738 23.1775 12.1619 23.3635 12.2849 23.5292C12.568 23.9117 13.0049 24.1394 13.4541 24.1394C13.7331 24.1394 13.9998 24.0539 14.2349 23.8937C14.6894 24.1855 15.0846 24.3906 15.4352 24.5166C15.6111 24.5882 15.7941 24.625 15.9809 24.625C16.4226 24.625 16.8512 24.4187 17.1572 24.058C17.2709 23.9237 17.3631 23.7737 17.4306 23.6132C17.5628 23.6531 17.7001 23.6736 17.8383 23.674C18.3077 23.674 18.7529 23.4441 19.0607 23.0421C19.2071 22.8517 19.3131 22.6333 19.372 22.4005C19.4043 22.4028 19.4363 22.4039 19.468 22.4039C20.0106 22.4039 20.53 22.0855 20.8221 21.5729C20.9752 21.3062 21.0565 21.0044 21.058 20.6969C21.5942 20.617 22.0664 20.2356 22.2962 19.6795C22.5228 19.1316 22.4613 18.5271 22.1451 18.0231L23.6058 17.2C23.6433 17.3282 23.68 17.4464 23.7156 17.5424L27.25 15.6617V7.99075L22.6469 10.1099ZM22.6465 11.2487C22.6698 11.6545 22.7121 12.1131 22.7669 12.592C22.4669 12.088 22.0881 11.8581 21.6179 11.7437L22.6465 11.2487ZM20.686 20.1572C19.8805 19.8801 18.2039 17.9091 18.2039 17.9091H18.2369C18.4075 17.8971 18.7761 17.7175 19.1898 17.8034C18.5402 17.2454 17.8259 17.7175 17.3395 17.4284C17.4524 17.7902 17.995 17.9043 18.1341 17.9088L19.7406 19.777C20.4681 20.6226 19.9615 21.6689 19.2321 21.8354C18.7428 21.5972 17.3609 19.9536 17.3609 19.9536C17.4081 19.945 17.6883 19.8573 17.9736 19.8948C17.3148 19.402 16.5677 19.8295 16.1245 19.5201C16.3758 20.1407 17.2034 19.9817 17.29 19.9667L18.1495 21.064C18.8372 21.9415 18.2969 22.9551 17.5664 23.0924C16.9187 22.8647 16.4984 22.0548 16.4984 22.0548C16.5636 22.0442 16.7819 21.9471 17.0924 21.9921C16.54 21.508 15.8969 21.9471 15.5103 21.6715C15.7491 22.192 16.3446 22.0735 16.378 22.0697C16.9735 23.0076 16.3559 23.9856 15.6179 24.0149H15.6171L15.6164 24.0153C15.1731 23.9384 14.7089 23.584 14.1846 23.2203C14.3646 23.0208 14.5236 22.6701 14.5236 22.6701C15.0501 21.7169 14.3669 20.8739 13.6615 20.9462C14.2338 21.1026 14.6628 21.8331 14.2161 22.6442L14.02 22.9742C13.807 23.3624 13.4744 23.5968 13.2299 23.5679C12.8534 23.5221 12.3227 22.9724 12.5459 22.1969C12.6321 22.1181 13.4639 20.8458 13.4639 20.8458C14.0357 19.9248 13.3938 19.0431 12.6865 19.0731C13.2498 19.2633 13.6446 20.0185 13.159 20.8022L12.4829 21.8564C12.2523 22.2291 11.9538 22.4402 11.6691 22.4012C11.2274 22.3412 10.9176 21.8024 10.9885 21.2463C10.9847 21.2496 11.4753 20.701 11.4753 20.701C12.127 19.8494 11.569 18.8984 10.8629 18.8485C11.4055 19.1013 11.7287 19.8977 11.1749 20.6226L10.9356 20.9159C10.6731 21.2601 10.357 21.4353 10.0803 21.3663C9.59725 21.2451 9.346 20.3414 9.57438 20.095C9.754 19.9011 10.2584 19.2872 10.2584 19.2872C10.9097 18.4352 10.3525 17.4846 9.64563 17.434C10.1886 17.6875 10.5119 18.484 9.958 19.2092L9.71875 19.5018C9.45475 19.849 9.1375 20.0234 8.85887 19.9525C8.27837 19.8055 7.9885 18.9093 8.54387 18.1818C8.54387 18.1818 8.35525 17.5825 8.27012 17.3264L7.99038 17.1966C8.64625 15.6685 9.637 12.2958 9.68275 11.1753C10.1658 11.3474 11.4407 11.7141 11.5761 11.7149L11.5754 11.7156C12.9479 11.2844 14.3864 11.332 15.0426 11.0785C15.2552 10.9975 15.6783 10.9922 16.1268 11.2487C15.8466 11.4944 15.5819 11.7869 15.307 12.0595C14.65 12.7116 12.2073 13.7286 12.6783 14.7981C13.0848 15.721 14.2296 16.6652 16.15 15.1829L17.23 15.0344L18.9096 15.8631L21.0621 18.0737C21.8298 18.8605 21.3951 19.9285 20.686 20.1572ZM21.226 17.7216C20.9792 17.2604 20.2101 16.504 19.4841 15.8856L19.4796 15.8811C19.8145 15.8946 20.1659 15.3554 20.62 15.3138C20.3027 15.0715 19.777 15.3513 19.6131 15.3955C18.7097 15.6385 17.3057 14.5019 17.3057 14.5019L15.9625 14.6954C15.9625 14.6954 14.365 16.645 13.0191 15.0389C12.2883 14.1666 14.9369 13.0274 15.5894 12.379C16.4253 11.5484 17.17 10.5321 18.5451 11.2244C19.6874 11.8004 20.1374 11.7648 21.6696 12.0314C22.1264 12.1112 22.4429 12.3205 22.7822 12.7289C22.942 14.0729 23.2004 15.5635 23.4482 16.6007C23.3204 16.7084 22.2243 17.4456 21.226 17.7216Z" fill="#0668E1" style="fill:#0668E1;fill:color(display-p3 0.0235 0.4078 0.8824);fill-opacity:1;"/>
</svg>
