<svg xmlns="http://www.w3.org/2000/svg" width="300" height="300" fill="none" xmlns:v="https://vecta.io/nano"><style><![CDATA[.B{fill:#fff}.C{fill:#ffa98f}.D{fill:#8dade0}.E{stroke-miterlimit:10}.F{stroke:#8dade0}.G{stroke-linecap:round}.H{fill:#071a22}.I{fill:#0745b4}.J{opacity:.55}.K{opacity:.51}.L{stroke-width:.055}.M{fill:#3886e8}.N{stroke-width:.06}.O{fill:#c82400}.P{fill:#061728}.Q{fill:#030d11}.R{fill:#05387d}]]></style><path d="M168.667 206.313h14.298l-26.809 45.873-26.809-45.873h14.299l1.787-24.701h21.447l1.787 24.701zm21.104-54.791l25.363.097-3.574-5.293 39.319 12.35-26.809 10.586-3.575-5.293-26.847.131 5.399 17.508h-85.788l5.397-17.508-26.844-.131-3.574 5.293-26.809-10.586 39.319-12.35-3.574 5.293 25.359-.097 3.236-10.493h60.766l3.235 10.493z" class="B"/><path d="M168.667 206.313l-.298.022.02.277h.278v-.299zm14.298 0l.258.151.263-.449h-.521v.298zm-26.809 45.873l-.258.15.258.442.258-.442-.258-.15zm-26.809-45.873v-.298h-.521l.263.449.258-.151zm14.299 0v.299h.277l.021-.277-.298-.022zm1.787-24.701v-.298h-.278l-.02.277.298.021zm21.447 0l.298-.021-.02-.277h-.278v.298zm22.891-30.09l-.286.088.065.21.219.001.002-.299zm25.363.097l-.001.299.565.002-.317-.468-.247.167zm-3.574-5.293l.089-.285-.815-.256.478.708.248-.167zm39.319 12.35l.11.278.785-.31-.806-.253-.089.285zm-26.809 10.586l-.247.167.134.199.223-.088-.11-.278zm-3.575-5.293l.248-.167-.09-.133-.159.001.001.299zm-26.847.131l-.001-.299-.403.002.119.385.285-.088zm5.399 17.508v.299h.405l-.12-.387-.285.088zm-85.788 0l-.286-.088-.119.387h.405v-.299zm5.397-17.508l.286.088.118-.385-.402-.002-.002.299zm-26.844-.131l.001-.299-.16-.001-.089.133.248.167zm-3.574 5.293l-.11.278.223.088.134-.199-.248-.167zM61.43 158.676l-.089-.285-.805.253.785.31.11-.278zm39.319-12.35l.248.167.478-.708-.816.256.09.285zm-3.574 5.293l-.248-.167-.316.468.565-.002-.001-.299zm25.359-.097l.001.299.22-.001.065-.209-.286-.089zm3.236-10.493v-.299h-.221l-.065.211.286.088zm60.766 0l.286-.088-.065-.211h-.221v.299zm-17.869 65.284v.299h14.298v-.299-.298h-14.298v.298zm14.298 0l-.258-.15-26.809 45.872.258.151.258.15 26.809-45.872-.258-.151zm-26.809 45.873l.258-.151-26.809-45.872-.258.15-.258.151 26.809 45.872.258-.15zm-26.809-45.873v.299h14.299v-.299-.298h-14.299v.298zm14.299 0l.298.022 1.787-24.701-.298-.022-.298-.021-1.788 24.701.299.021zm1.787-24.701v.299h21.447v-.299-.298h-21.447v.298zm21.447 0l-.298.022 1.787 24.701.298-.022.298-.021-1.787-24.701-.298.021zm22.891-30.09l-.002.299 25.364.097.001-.299.001-.299-25.363-.096-.001.298zm25.363.097l.247-.167-3.574-5.293-.247.167-.248.167 3.574 5.293.248-.167zm-3.574-5.293l-.09.285 39.319 12.35.09-.285.089-.285-39.319-12.35-.089.285zm39.319 12.35l-.11-.278-26.808 10.586.109.278.11.278 26.809-10.586-.11-.278zm-26.809 10.586l.248-.168-3.575-5.292-.248.167-.247.167 3.575 5.293.247-.167zm-3.575-5.293l-.001-.299-26.847.131.001.299.002.298 26.847-.13-.002-.299zm-26.847.131l-.285.088 5.398 17.508.286-.088.285-.088-5.398-17.508-.286.088zm5.399 17.508v-.298h-85.788v.298.299h85.788v-.299zm-85.788 0l.285.088 5.398-17.508-.286-.088-.285-.088-5.398 17.508.286.088zm5.397-17.508l.002-.299-26.844-.131-.001.299-.001.299 26.844.13.001-.298zm-26.844-.131l-.248-.167-3.574 5.292.248.168.248.167 3.574-5.293-.248-.167zm-3.574 5.293l.11-.278-26.809-10.586-.11.278-.11.278 26.809 10.586.11-.278zM61.43 158.676l.09.285 39.32-12.35-.09-.285-.09-.285-39.319 12.35.089.285zm39.319-12.35l-.248-.167-3.574 5.293.248.167.248.167 3.575-5.293-.248-.167zm-3.574 5.293l.001.299 25.359-.097-.001-.299-.001-.298-25.359.096.001.299zm25.359-.097l.286.089 3.235-10.494-.285-.088-.286-.088-3.235 10.493.285.088zm3.236-10.493v.299h60.766v-.299-.299H125.77v.299zm60.766 0l-.285.088 3.234 10.493.286-.088.285-.088-3.234-10.493-.286.088z" class="O"/><path d="M182.208 146.59h-52.099l-8.289 27.788h67.492l-7.104-27.788z" fill="#fff4f2" stroke="#c82400" stroke-width=".598"/><path d="M208.848 27.425c-1.429-4.754-3.944-9.119-7.544-13.109-3.607-3.99-8.526-7.285-14.758-9.89S172.396.518 162.791.518c-7.661 0-15.469 1.033-23.424 3.099-7.962 2.074-14.868 5.024-20.726 8.857l7.624 20.934-4.086 3.311 5.927 1.742c5.85-3.062 11.18-5.285 15.99-6.671 4.802-1.378 9.905-2.066 15.316-2.066 5.403 0 9.494 1.303 12.273 3.908 2.778 2.613 4.164 5.75 4.164 9.433 0 4.447-1.43 8.393-4.274 11.844-2.86 3.451-6.012 6.94-9.466 10.466-2.397 2.448-4.728 4.979-6.979 7.584-2.251 2.613-4.245 5.405-5.968 8.4-1.73 2.987-3.116 6.207-4.164 9.658-1.056 3.451-1.577 7.322-1.577 11.612a119.07 119.07 0 0 0 .11 4.949l.053 1.038h-5.603l6.115 4.135h29.729c-.154-.921-.227-1.992-.227-3.219v-2.763c0-2.605.528-5.173 1.577-7.704a39.84 39.84 0 0 1 3.944-7.247 53.54 53.54 0 0 1 5.293-6.551l5.631-5.87c2.398-2.448 4.876-5.054 7.427-7.816s4.81-5.667 6.76-8.737 3.563-6.401 4.839-10.01c1.275-3.601 1.92-7.547 1.92-11.844 0-4.29-.718-8.812-2.141-13.566z" class="O"/><path d="M153.117 28.265c-5.347 0-10.39.667-15.136 2-4.753 1.34-10.021 3.492-15.803 6.456l-9.354-25.149c5.789-3.71 12.615-6.564 20.483-8.572 7.862-2 15.578-3 23.15-3 9.492 0 17.317 1.261 23.476 3.782s11.02 5.709 14.585 9.571c3.557 3.862 6.043 8.086 7.456 12.687 1.405 4.601 2.115 8.977 2.115 13.129 0 4.159-.637 7.977-1.898 11.462-1.261 3.492-2.855 6.717-4.782 9.687s-4.159 5.782-6.68 8.456l-7.34 7.564-5.565 5.68a52 52 0 0 0-5.231 6.34c-1.558 2.232-2.862 4.565-3.898 7.014s-1.558 4.934-1.558 7.456v2.674c0 1.188.072 2.224.225 3.115h-29.381c-.304-1.485-.486-3.152-.558-5.006a111.34 111.34 0 0 1-.109-4.79c0-4.152.515-7.898 1.558-11.238 1.036-3.34 2.405-6.456 4.115-9.347 1.703-2.898 3.674-5.601 5.898-8.13 2.225-2.521 4.529-4.97 6.898-7.34 3.413-3.413 6.528-6.789 9.354-10.129 2.811-3.34 4.224-7.159 4.224-11.462 0-3.565-1.369-6.601-4.115-9.129-2.746-2.521-6.789-3.782-12.129-3.782z" fill="#ff6e53"/><path d="M175.857 141.609c0 5.36-1.735 9.496-5.206 12.414s-7.392 4.379-11.771 4.379c-4.386 0-8.308-1.456-11.778-4.379-3.464-2.918-5.2-7.054-5.2-12.414 0-5.354 1.736-9.49 5.2-12.413 5.342-4.508 13.245-5.513 19.499-2.349 5.55 2.808 9.256 8.509 9.256 14.762z" class="O"/><path d="M170.044 141.61c0 5.36-1.735 9.495-5.205 12.413-3.47 2.924-7.392 4.38-11.772 4.38-4.385 0-8.307-1.456-11.778-4.38-3.464-2.918-5.199-7.053-5.199-12.413 0-5.354 1.735-9.49 5.199-12.414 3.471-2.918 7.393-4.38 11.778-4.38 4.38 0 8.302 1.462 11.772 4.38 3.47 2.924 5.205 7.06 5.205 12.414z" fill="#ff6e53"/><path d="M182.118 194.446l-3.923-2.569c-.167-.101-.255-.311-.213-.513l2.235-11.661.317.025c.072.006.157.01.23.051l4.254 2.577c.167.101.255.312.214.509l-2.3 11.308c-.033.153-.142.26-.268.291l-.546-.018z" fill="#060c16"/><path d="M182.001 194.396l-4.209-2.549c-.167-.101-.255-.312-.213-.513l2.31-11.364c.047-.228.281-.338.472-.221l4.254 2.577c.167.101.255.311.214.509l-2.3 11.308c-.052.254-.316.378-.528.253z" fill="#0a172b"/><path d="M177.731 190.585l4.918 2.978 2.032-10.011-4.918-2.977-2.032 10.01zm2.305 1.941c-.011.142-.108.224-.217.184s-.19-.183-.179-.324.105-.225.217-.184.19.183.179.324z" class="D"/><path d="M181.828 181.186l.864.534" class="E F G L"/><g class="J"><mask id="A" maskUnits="userSpaceOnUse" x="179" y="182" width="2" height="2"><path d="M179.93 182.861l-.36.063.088.502.36-.062-.088-.503z" class="B"/></mask><g mask="url(#A)" class="D"><path d="M179.993 183.213c-.01.134-.101.21-.203.175s-.181-.173-.171-.307.102-.21.203-.175.181.174.171.307z"/></g></g><g class="K"><mask id="B" maskUnits="userSpaceOnUse" x="179" y="181" width="6" height="6"><path d="M183.568 181.933l-3.693.643.619 3.559 3.693-.643-.619-3.559z" class="B"/></mask><g mask="url(#B)" class="B"><path d="M183.715 184.043l-2.589-1.569c-.278-.169-.622-.009-.688.323l-.152.762-.22.079 3.165 1.906c.278.169.618.008.688-.323l.099-.462c.053-.281-.07-.575-.303-.716z"/></g></g><path d="M180.914 182.994l2.607 1.577m-2.72-1.003l1.498.907" class="E F G L"/><g class="J"><mask id="C" maskUnits="userSpaceOnUse" x="178" y="189" width="1" height="1"><path d="M178.516 189.211l-.36.062.088.503.36-.063-.088-.502z" class="B"/></mask><g mask="url(#C)" class="D"><path d="M178.579 189.565c-.01.134-.101.209-.203.175s-.181-.174-.171-.308.101-.209.203-.174.181.173.171.307z"/></g></g><g class="K"><mask id="D" maskUnits="userSpaceOnUse" x="178" y="188" width="5" height="5"><path d="M182.127 188.26l-3.693.642.619 3.559 3.693-.642-.619-3.559z" class="B"/></mask><g mask="url(#D)" class="B"><path d="M182.293 190.373l-2.589-1.569c-.278-.169-.622-.009-.688.323l-.152.762-.22.079 3.165 1.906c.278.169.618.008.688-.323l.099-.462a.69.69 0 0 0-.303-.716z"/></g></g><path d="M179.488 189.332l2.612 1.574m-2.725-1l1.498.907" class="E F G L"/><g class="J"><mask id="E" maskUnits="userSpaceOnUse" x="182" y="188" width="2" height="1"><path d="M183.266 188.431l-.36.063.088.503.36-.063-.088-.503z" class="B"/></mask><g mask="url(#E)" class="D"><path d="M183.333 188.776c-.01.134-.102.209-.204.175s-.18-.174-.17-.308.101-.209.203-.174.18.177.171.307z"/></g></g><g class="K"><mask id="F" maskUnits="userSpaceOnUse" x="178" y="184" width="6" height="6"><path d="M182.385 184.819l-3.487.607.705 4.054 3.487-.607-.705-4.054z" class="B"/></mask><g mask="url(#F)" class="B"><path d="M182.621 187.051l-2.801-1.698c-.233-.141-.518-.005-.574.271l-.147.72a.48.48 0 0 0 .21.504l3.447 2.072-.139-.347.215-1.017c.045-.197-.044-.404-.211-.505z"/></g></g><path d="M179.703 185.936l2.612 1.573m-2.725-.999l1.499.903m.223.159l.581.35" class="E F G L"/><path d="M179.062 192.005l.256-1.61c.066-.37.07-.912.446-1.511s1.392-2.906 1.66-2.79.594.718.486 1.579-.388 1.451-.38 1.666 1.464.084 2.313-.303c.468-.215.038-1.473.358-1.898.335-.043.906 1.777.811 3.257-.089 1.38-.94 2.976-.94 2.976" class="C"/><path d="M150.108 282.246s.179.758-.066 1.528-.68 1.305-1.182 1.862-1.326 1.238-1.906 1.578a16.92 16.92 0 0 0-1.594 1.116c-.462.44-1.136 1.483-1.136 1.483v.312s-.652.809-1.583 1.243c-.691.324-1.661.541-2.92.168-1.109-.329-1.326-1.467-1.36-1.695s0-1.082 0-1.082" fill="#f2f2f2"/><path d="M143.003 283.406s2.229-.713 3.483-1.611c1.733-1.244 2.998-.926 3.427-.19.44.753.613 3.234-3.076 5.387-1.449.847-2.095 1.555-2.547 2.252-.345.536-.997 1.194-1.733 1.562-.624.312-1.304.379-1.923.329-2.524-.207-3.053-2.766-1.822-4.701s4.191-3.028 4.191-3.028z" class="H"/><path d="M170.586 295.525v.095c0 .402-.123.803-.385 1.11-1.159 1.36-3.895 1.929-4.463 2.041-.034.011-.067.011-.101.016-1.549.24-3.282.335-4.034.413-.942.1-1.505.262-1.505.262v.173c-.295.072-1.276.307-2.129.357h-.011c-.819.028-1.806-.095-2.307-.513-.156-.14-.524-.558-.635-1.076v-.051l.011-.407v-.189l2.017-.14 1.009-.072.925-.056.858-.056 10.75-1.907z" fill="#f2f2f2"/><path d="M161.828 293.393s1.945.724 3.355.724 4.157-.033 4.859.458c.351.245.552.546.552.881-.006 1.89-4.458 3.027-7.133 3.239l-4.085.385c-1.265.212-2.586.312-3.383-.084-1.382-.685-1.476-2.771-.629-4.143.841-1.366 6.464-1.46 6.464-1.46z" class="H"/><path d="M156.026 291.669l-.128 2.482c-.028.373-.229.713-.168 1.048.089.535 1.355 1.071 3.088.881 1.727-.19 3.143-1.154 3.46-1.684s-.167-.691-.245-.914c-.128-.352 0-3.485-.234-2.42m-22.623-6.523l-.095 1.901s-.256.441-.162.82c.123.518 1.583 1.511 3.584.451 2.24-1.182 1.995-2.938 2.012-3.039.117-.797-.329-.044-.329-.68" class="C"/><path d="M169.229 251.978c-.714 6.368-2.987 17.147-3.768 22.567l-2.312 17.888s-.808 1.277-3.734 1.667c-2.881.385-4.096-1.361-4.096-1.361s-.958-17.347-.758-20.503c.201-3.167 1.126-8.977.992-12.077-.089-2.231-.067-7.534-1.164-12.212-.156.496-.324.942-.485 1.333-1.667 3.769-4.821 11.871-5.701 14.943-.842 2.989-3.021 20.593-3.021 20.593-.128.267-.429.585-.891.909-.557.384-1.349.769-2.274 1.026-2.625.736-3.538-.77-3.538-.77-.312-1.834.15-22.003.808-25.482a109.51 109.51 0 0 0 1.532-12.05c.201-3.301 1.221-10.701.819-15.005-.156-1.623.028-3.084.323-4.255.469-1.951 1.226-3.156 1.226-3.156s25.2 1.377 26.047 5.208c.24 1.093.413 2.348.524 3.708.44 5.225.039 11.972-.529 17.029z" class="I"/><path d="M161.01 180.642c-.625.402-1.249.608-1.767.753l-.111.028c-.045.011-.09.028-.14.045l-.479.172c-.184.09-.312.196-.368.341-.228.596 0 4.137 0 4.137l-1.12-.385-6.793-2.342v-3.501c-.089-1.679-.229-10.639 2-12.184s8.638-.597 9.363.268l.652 3.914c.44 2.548.039 7.924-1.237 8.754z" class="C"/><path d="M157.422 182.288c.329-.296.741-.508 1.092-.642-.184.09-.312.196-.368.341-.228.596 0 4.137 0 4.137l-1.12-.385c-.083-1.132-.172-2.955.396-3.451z" fill="#f1bf9c"/><path d="M157.037 164.091s-3.026-.117-5.021.575c-4.074 1.411-5.01 5.046-4.831 7.589.183 2.576 1.604 4.394 1.967 5.247.362.847.395 2.364.668 2.849s4.86 1.244 5.345.943 1.683-2.002 1.777-2.733c.09-.725-.027-2.515.151-3.15.184-.636.997-1.456 1.454-1.366s.725.881.909 1.667.574.786.758.608c.184-.184.089-2.153.211-2.76s.363-.759.301-2.549.48-1.31 1.327-2.336c4.631-4.255-5.016-4.584-5.016-4.584z" class="P"/><path d="M168.234 211.737l.542.541c.086.104.46.31.732.456 1.16.626 1.971 1.166 4.014 1.416.012-.003.69.129 1.512.241 2.834.106 4.669-2.095 4.72-4.033l.003.005s1.533-13.466 2.242-14.205.645-.772 1.391-1.631c.746-.851.786-1.619.786-1.619s-3.522-.876-4.943-2.03c-.287.95-.619 2.944-1.007 4.068-.402 1.159-2.548 6.82-3.881 10.566l-1.797-.899c.011.021-7.018 3.88-7.018 3.88s2.704 3.377 2.704 3.244z" class="C"/><path d="M173.737 205.851c-.613.647-1.778 1.745-3.221 2.487 2.006-1.132 2.981-3.017 2.992-3.039l.229.552z" fill="#f4ccb0"/><path d="M154.385 247.957l-.49 1.338c-1.661 3.769-4.821 11.866-5.696 14.938-.852 2.994-3.02 20.598-3.02 20.598-.123.262-.429.585-.886.903.362-4.226 1.761-17.932 2.296-20.252.658-2.855.936-3.959 1.778-5.877.841-1.924 4.87-11.269 2.563-15.825-1.505-2.983-2.14-5.743-2.391-7.288.82 3.758 4.369 6.825 4.369 6.825l1.477 4.64z" fill="#064093"/><path d="M141.45 231.151c1.533 1.255 12.923 8.688 18.791 8.978a.57.57 0 0 1 .095.005 11.14 11.14 0 0 0 1.154.006c3.956-.178 5.505-2.766 6.118-4.907 0 0 .441-1.957.669-2.041.184 0 1.494 4.126 1.638 4.751.301 1.349.207-3.491.023-6.451v-.012c-.101-2.487-.357-6.1-.992-9.139-1.159-5.442-.881-9.15-.881-9.15v-.011c-.133-.223-1.582-2.627-2.145-3.697-.117-.223-.234-.463-.357-.714v-.005l.028.005c.006.011.022.011.028.028.011 0 .033.006.061.022.039.023.084.039.151.073a.75.75 0 0 0 .189.078c.541.189 1.538.39 2.959-.011.206-.05.424-.117.641-.207a7.86 7.86 0 0 1 .485-.189c.139-.067.279-.134.412-.218 1.449-.741 2.614-1.845 3.221-2.487l.496-.552c-1.432-4.115-3.338-7.745-4.413-9.746-1.733-3.173-5.3-5.432-9.752-7.483v-.006c.997-2.342-.379-4.472-2.798-5.264-2.162-.708-4.425-1.182-6.202-1.483-1.739-.296-3.193.502-3.193 2.264-3.712-1.417-5.935.396-7.1 1.539-3.767 3.674-2.162 12.301 1.427 18.535 2.892 5.029 2.842 8.297 1.699 12.735-2.062 7.952-4.257 13.277-2.452 14.754z" class="M"/><path d="M168.477 219.755c-.195-1.015-1.025-3.335-2.34-6.318-1.717-3.886-3.433-7.109-4.821-11.041l3.16 5.671 1.092.72s.012.011.023.033a9.56 9.56 0 0 0 .334.68c.557 1.065 2.001 3.469 2.134 3.686l.012.011c-.006.006-.201 2.571.406 6.558z" fill="#2776cc"/><path d="M152.64 164.713c-1.231.329-1.755.513-2.312.909-.468.329-1.561 1.4-1.566 2.286-.006 1.567 3.299 2.939 6.258 2.928.563 0 1.655-.24 3.215-.708 3.444-1.026 7.267-2.995 6.359-7.087 0 0-.49.847-1.103.975 0 0 .808-2.659-2.386-4.02.173.073-1.114 1.573-1.198 1.645-1.237 1.082-2.441 1.818-3.594 2.214-1.109.384-1.104.173-3.673.858z" class="P"/><path d="M139.621 194.117s3.249 20.425 2.162 24.908c-.758 3.14-1.259 7.5-1.493 9.836a2.64 2.64 0 0 0 1.226 2.499l5.16 3.228 10.41-18.813-3.867-16.862-13.598-4.796z" class="M"/><path d="M146.805 184.506l4.04 1.533 4.074 1.405c-.725-.039-1.444-.189-2.146-.368-.708-.172-1.393-.418-2.073-.669-1.343-.524-2.664-1.137-3.895-1.901z" fill="#58a3f4"/><path d="M27.051 196.875s.168.816-.064 1.647-.624 1.41-1.097 2.011c-.464.602-1.233 1.331-1.761 1.695a13.7 13.7 0 0 0-1.473 1.204c-.432.475-1.049 1.599-1.049 1.599v.341s-.608.871-1.465 1.338c-.64.348-1.537.586-2.706.174-1.025-.356-1.225-1.584-1.265-1.829-.032-.246 0-1.164 0-1.164" fill="#939393"/><path d="M20.463 198.135s2.065-.768 3.226-1.742c1.601-1.338 2.778-.998 3.178-.206.408.808.568 3.484-2.85 5.804-1.345.911-1.937 1.679-2.353 2.431-.32.578-.929 1.283-1.609 1.687-.576.332-1.209.412-1.777.356-2.337-.222-2.826-2.977-1.689-5.068s3.874-3.262 3.874-3.262z" class="Q"/><path d="M46.023 211.189v.103c0 .428-.112.863-.352 1.196-1.073 1.465-3.61 2.083-4.139 2.201-.032.008-.064.016-.096.016-1.433.262-3.042.357-3.738.444-.873.111-1.393.285-1.393.285v.182c-.272.079-1.185.332-1.977.38h-.008c-.761.032-1.673-.103-2.137-.554-.144-.151-.488-.602-.584-1.164v-.056l.008-.443v-.206l1.865-.151.929-.079.857-.063.792-.063 9.974-2.028z" fill="#939393"/><path d="M37.911 208.889s1.801.784 3.106.784 3.85-.04 4.499.491c.328.269.512.586.512.95-.008 2.035-4.13 3.27-6.612 3.492l-3.786.42c-1.177.229-2.394.332-3.138-.088-1.281-.736-1.369-2.985-.584-4.466.793-1.48 6.004-1.583 6.004-1.583z" class="Q"/><path d="M32.535 207.033l-.12 2.676c-.024.404-.208.768-.16 1.133.088.578 1.257 1.156 2.858.95s2.914-1.243 3.202-1.813c.296-.571-.152-.745-.232-.982-.12-.38 0-3.754-.216-2.606m-20.95-7.042l-.088 2.051s-.24.475-.152.887c.112.554 1.465 1.623 3.322.491 2.081-1.275 1.849-3.167 1.865-3.27.112-.855-.304-.048-.304-.729" class="C"/><path d="M44.753 164.247c-.664 6.866-2.77 18.482-3.49 24.326l-2.145 19.282s-.745 1.377-3.458 1.797c-2.666.412-3.794-1.465-3.794-1.465s-.889-18.703-.704-22.1c.184-3.413 1.041-9.677.921-13.018-.088-2.4-.056-8.117-1.081-13.161-.144.531-.296 1.022-.448 1.433-1.545 4.063-4.467 12.797-5.283 16.107-.785 3.222-2.794 22.195-2.794 22.195-.12.285-.4.634-.825.982a6.85 6.85 0 0 1-2.105 1.109c-2.425.792-3.282-.832-3.282-.832-.288-1.979.136-23.716.753-27.469.68-4.205 1.233-9.439 1.417-12.986.184-3.564 1.129-11.538.753-16.17-.144-1.75.024-3.326.296-4.585.432-2.106 1.137-3.405 1.137-3.405s23.342 1.481 24.127 5.614c.224 1.18.384 2.534.48 3.999.432 5.622.056 12.899-.472 18.347z" class="Q"/><path d="M31.008 159.906l-.456 1.441c-1.537 4.062-4.467 12.788-5.275 16.106-.793 3.231-2.802 22.204-2.802 22.204-.112.277-.4.633-.825.974.336-4.561 1.633-19.329 2.129-21.832.608-3.08.864-4.268 1.649-6.335.776-2.074 4.507-12.146 2.369-17.064-1.393-3.215-1.985-6.192-2.217-7.855.761 4.054 4.042 7.356 4.042 7.356l1.385 5.005z" fill="#010405"/><path d="M75.973 109.232c.056.182.024.38-.096.53l-9.862 12.488c-.224.277-.608.364-.88.19l-12.183-7.784c-.232-.143-.272-.467-.088-.705l10.262-12.978c.2-.254.544-.333.784-.175l11.231 7.191-.056.19.648.308.24.745z" fill="#0b457f"/><path d="M52.362 114.307l12.183 7.776c.272.174.656.087.881-.19l10.206-12.915c.192-.246.152-.586-.088-.737l-12.215-7.8c-.248-.15-.592-.079-.793.175l-10.262 12.986c-.184.238-.144.554.088.705z" fill="#032d5f"/><path d="M53.197 114.189l11.183 7.158c.256.159.616.079.825-.182l9.574-12.115c.184-.23.144-.547-.08-.689l-11.215-7.174c-.232-.143-.552-.072-.736.158l-9.63 12.179c-.168.222-.136.53.08.665z" fill="#8aa5ee"/><path d="M73.106 109.242l-.408.523-7.316-4.545.408-.523 7.317 4.545zm-.809 1.03l-.416.522-7.317-4.545.416-.522 7.316 4.545zm-.82 1.029l-.416.523-7.316-4.546.408-.522 7.325 4.545zm-.817 1.031l-.408.515-9.854-6.114.408-.514 9.854 6.113zm-.816 1.029l-.408.531-9.854-6.121.416-.523 9.846 6.113zm-4.871-1.497l-.416.523-5.787-3.595.416-.515 5.788 3.587zm3.246 3.554l-.408.522-9.854-6.113.408-.522 9.854 6.113zm-.809 1.039l-.416.515-9.854-6.121.416-.515 9.854 6.121zm-.812 1.031l-.408.523-9.862-6.121.416-.523 9.854 6.121zm-.813 1.028l-.408.522-9.862-6.121.408-.522 9.862 6.121zm-.812 1.031l-.408.515-9.862-6.114.416-.522 9.854 6.121zm.024-15.122l-1.993 2.526c-.04.048-.104.056-.152.024l-1.617-1.006c-.056-.039-.072-.11-.032-.166l1.993-2.526c.04-.047.104-.055.152-.024l1.617 1.006c.056.04.072.119.032.166z" class="B"/><g class="C"><path d="M64.752 118.376s.592-.658.72-1.077.2-1.038.72-1.671 1.993-3.152 2.289-2.985c.296.174.592.902.36 1.876s-.64 1.616-.656 1.861 1.217.119 2.257-.222c.568-.19 2.049-2.32 2.474-2.771.392-.008.128 3.365-.104 4.268-.192.744-2.201 3.682-2.201 3.682m-42.598-16.191l7.829-.895 1.177.404s-.488-4.237-.12-7.444c.024-.214.376-.491.833-.752 2.065-1.204 3.474-3.286 3.61-5.646.072-1.156.056-2.328.016-3.294l-.392-5.955c-.768-.903-7.845-.04-10.19 1.576-2.361 1.608-2.209 10.983-2.121 12.741.096 1.758 0 5.923 0 5.923l-.64 3.342z"/><path d="M49.701 117.145s.696-.357 1.089-.365.937.072 1.601-.221 3.17-.966 3.09-1.251c-.08-.293-.64-.705-1.529-.729-.897-.024-1.537.174-1.753.135s.176-1.053.696-1.853c.288-.436 2.353-2.811 2.65-3.247.096-.332-2.545.744-3.394.911-.672.134-3.666 1.021-3.666 1.021"/><path d="M33.666 129.175c-1.873-2.074-2.529-3.072.248-5.297h-.008s12.423-7.832 12.784-8.774c.36-.95.24-1.148.688-2.17.44-1.021 1.113-1.377 1.113-1.377s2.289 2.747 3.938 3.515l-3.21 2.621c-.864.848-5.876 6.161-8.653 8.933"/></g><path d="M22.492 127.196c.376 5.227-2.321 10.366-2.321 10.366s5.747 4.466 14.801 5.654c6.692.886 10.935-1.719 10.935-1.719s-1.057-5.242-1.497-9.534c-.144-1.417-.224-2.716-.176-3.713.08-1.687.52-4.854.929-8.149.552-4.481 1.041-9.241.456-10.991-1.009-3.056-8.629-7.823-8.629-7.823s-9.133.61-8.917-1.98c0 0-4.939-.721-7.212.341-2.273 1.045-2.65 7.214-1.953 12.392.68 5.171 3.21 9.914 3.586 15.156z" class="M"/><path d="M37.008 114.996s1.417 6.731 3.346 12.25c0 0 .761.048 1.865 0l2.177 4.727c-.144-1.417-.224-2.716-.176-3.713.08-1.687.52-4.854.929-8.149l-.36-1.187-7.781-3.928z" fill="#1f72cc"/><path d="M41.792 123.205s3.514 6.945 4.923 9.067c1.753 2.645 2.666 3.643 5.956 1.283v.008s12.328-11.197 13.472-11.308c1.161-.111 1.345.071 2.609-.111s1.857-.807 1.857-.807-2.377-3.287-2.746-5.298c-.936.594-2.69 2.043-3.842 2.716-1.193.689-8.557 4.577-12.44 6.778-.312-.704-1.585-4.426-1.857-5.091-.008.024-7.757 2.866-7.933 2.763z" class="C"/><path d="M45.613 109.119l5.051 12.369s-4.283 4.395-8.949 4.395c0 0-4.875-9.067-5.147-13.185" class="M"/><path d="M28.096 97.789l-.44 1.465s0 1.512 1.697 2.178c2.89 1.14 7.188.546 8.229.237l-.632-1.98c-.008 0-5.916.856-8.853-1.9z" fill="#5699d1"/><g class="P"><path d="M23.458 84.202c.729-5.028 4.563-9.344 13.112-7.927 1.793.301 5.748 1.837 5.347 5.028-.072.562-.24.998-.464 1.354-2.089.055-3.242.76-4.643 8.077.096.982-.945.958-1.169 2.669-.344 2.668-2.946 4.395-6.428 3.888-2.746-.396-7.06-4.054-5.756-13.089z"/><path d="M23.277 86.6s-2.65 22.765-1.977 30.312c.296 3.294 2.313 6.24 5.347 7.609l.312.127c4.443 1.758 9.278-1.52 9.406-6.248l.656-30.399m2.844-10.519s4.123 2.288 3.634 6.2l-6.932.38 3.298-6.58z"/></g><g class="I"><path d="M258.375 113.643s7.596 2.083 7.937 3.483c.232.928-.752 8.869-3.274 14.88-1.99-.922-5.426-2.597-6.78-3.449.445-3.466 2.447-14.547 2.447-14.547"/><path d="M263.505 121.365l-5.802-1.832c.388-6.424 1.498-11.472 2.187-14.092.486-1.849 1.33-3.594 2.58-5.035 1.255-1.459 3.02-2.772 5.044-2.194 4.05 1.138-4.009 23.153-4.009 23.153z"/></g><g class="C"><path d="M247.735 113.935c.021.968-.243 1.996-.837 2.768-.542.703-.973 1.338-1.807 1.626-.245-.658-.828-1.439-1.062-2.077-.678-1.63-1.104-2.245-1.828-3.671-.816-1.598-2.265-1.977-2.668-3.011-.283-.734-.848-4.611.065-5.791.747-.962 1.112 1.242 1.571 1.359.79.201.75 1.603 1.205 1.91s2.201 1.102 2.201 1.102l3.011 4.628c.088.385.142.77.149 1.157z"/><path d="M242.273 112.572l2.402-3.524s-4.438-9.461-4.795-9.353c-.733.222 1.427 5.103 1.427 5.103s-2.741-5.08-2.989-4.813c-.444.479 1.772 5.69 1.772 5.69s-2.492-5.063-2.789-4.644 2.212 7.538 2.212 7.538l2.76 4.003z"/><path d="M245.374 109.376l-.748-1.216s-.372-2.147-1.048-3.682-1.139-2.262-1.429-2.24.193 2.456.193 2.456-.334 2.153.499 3.467"/></g><path d="M241.138 109.174l2.809-3.1c.121-.125.15-.327.07-.493l-4.497-9.619-.267.092c-.061.021-.133.044-.187.096l-3.092 3.182a.44.44 0 0 0-.072.489l4.475 9.298c.062.125.18.194.295.193l.466-.138z" fill="#060c16"/><path d="M241.221 109.108l3.06-3.148a.44.44 0 0 0 .07-.492l-4.497-9.344c-.09-.187-.316-.231-.454-.087l-3.092 3.182c-.122.125-.151.327-.072.489l4.475 9.298c.1.208.355.258.51.102z" fill="#0a172b"/><path d="M242.499 107.042c.041.12.143.17.228.111s.123-.201.082-.321-.139-.171-.227-.111-.123.201-.083.321z" class="D"/><path d="M238.453 97.606l-.625.656" class="E F G N"/><path d="M244.056 104.854l-3.576 3.677-3.958-8.232 3.576-3.677 3.958 8.232z" class="D"/><g class="K"><mask id="G" maskUnits="userSpaceOnUse" x="237" y="98" width="4" height="4"><path d="M237.129 98.629l3.32-.264.253 3.225-3.32.264-.253-3.225z" class="B"/></mask><g mask="url(#G)" class="B"><path d="M237.465 100.5l1.882-1.937c.202-.208.533-.146.664.127l.298.627.207.019-2.303 2.358c-.202.208-.53.145-.663-.127l-.187-.379c-.108-.231-.067-.514.102-.688z"/></g></g><g class="K"><mask id="H" maskUnits="userSpaceOnUse" x="239" y="103" width="5" height="5"><path d="M239.75 103.821l3.32-.264.253 3.225-3.32.264-.253-3.225z" class="B"/></mask><g mask="url(#H)" class="B"><path d="M240.086 105.691l1.882-1.937c.202-.208.533-.146.664.127l.298.627.207.02-2.303 2.358c-.202.208-.53.144-.663-.128l-.187-.378c-.109-.235-.067-.515.102-.689z"/></g></g><g class="J"><mask id="I" maskUnits="userSpaceOnUse" x="240" y="98" width="1" height="2"><path d="M240.461 98.643l.324-.026.036.456-.324.026-.036-.456z" class="B"/></mask><g mask="url(#I)" class="D"><path d="M240.484 98.96c.038.114.134.159.214.106s.117-.191.079-.305-.133-.159-.214-.106-.116.191-.079.305z"/></g></g><path d="M239.633 98.969l-1.896 1.948m2.126-1.472l-1.089 1.12m3.714 4.066l-1.089 1.12" class="E F G N"/><g class="K"><mask id="J" maskUnits="userSpaceOnUse" x="238" y="100" width="5" height="5"><path d="M238.791 100.884l3.135-.249.288 3.674-3.135.249-.288-3.674z" class="B"/></mask><g mask="url(#J)" class="B"><path d="M239.079 102.879l2.035-2.097c.169-.174.445-.119.554.108l.286.592c.079.162.048.361-.07.484l-2.509 2.565.043-.333-.409-.835c-.082-.16-.052-.359.07-.484z"/></g></g><g class="J"><mask id="K" maskUnits="userSpaceOnUse" x="238" y="104" width="2" height="1"><path d="M238.797 104.211l.324-.025.036.455-.324.026-.036-.456z" class="B"/></mask><g mask="url(#K)" class="D"><path d="M238.824 104.523c.038.113.134.159.214.106s.117-.191.079-.305-.134-.159-.214-.106-.115.194-.079.305z"/></g></g><path d="M241.34 101.26l-1.9 1.946m2.119-1.477l-1.091 1.116m-.152.186l-.422.433" class="E F G N"/><g class="J"><mask id="L" maskUnits="userSpaceOnUse" x="243" y="103" width="1" height="2"><path d="M243.083 103.844l.323-.026.036.456-.324.026-.035-.456z" class="B"/></mask><g mask="url(#L)" class="D"><path d="M243.109 104.157c.038.114.134.159.214.107s.117-.191.079-.305-.133-.159-.214-.106-.116.19-.079.304z"/></g></g><path d="M242.27 104.152l-1.9 1.947" class="E F G N"/><path d="M242.346 112.645s-3.094-1.928-4.309-5.568c-.326-.977-1.232-3.661-.798-3.694s1.667 2.508 1.818 2.937c.905.399 2.205 1.148 2.31 2.67" class="C"/><path d="M259.923 126.467c-2.12-2.725-5.245-6.77-8.213-10.058-3.089-3.428-4.592-5.755-4.592-5.755l-4.619 3.296 5.93 10.122 4.2 6.699" class="I"/><path d="M259.823 206.743c1.597.023 6.375-1.972 9.117-3.7h.006v-.005l.365-.24.642-.466a4.5 4.5 0 0 0 .509-.432c.208-.21.353-.397.428-.566-.023-.852-.075-1.669-.191-2.41-.133-.951-.359-1.786-.711-2.416l-.336-3.139-.11-1.021h-7.104l.156 2.065.197 2.48s-.075.123-.243.356c-.538.747-2.094 2.632-5.426 4.972-1.285.898-1.394 4.522 2.701 4.522z" class="H"/><path d="M262.041 141.096l-1.799 23.235c.399 12.429 1.695 17.844 2.204 32.181.104 2.9 8.967 4.108 8.759 1.89.596-9.599 1.03-21.52-.318-30.091 1.874-6.769 3.158-17.208 3.193-23.586l-12.039-3.629z" class="R"/><path d="M274.759 218.001c1.597.017 6.376-1.973 9.118-3.7v-.006a3.39 3.39 0 0 0 .37-.245c.237-.151.451-.315.642-.467.121-.087.237-.18.336-.268l.179-.169c.208-.204.359-.397.428-.566-.017-.852-.069-1.669-.191-2.41-.006-.029-.006-.064-.012-.093-.133-.911-.358-1.71-.7-2.329l-.335-3.133-.11-1.021h-7.104l.15 2.065.197 2.48s-.075.129-.243.362l-.139.187c-.642.846-2.204 2.614-5.287 4.79-1.29.893-1.394 4.523 2.701 4.523z" class="H"/><path d="M269.04 152.202l3.124 21.526c2.458 12.569 3.344 18.223 4.906 34.065l.034.286c.023.21.11.42.243.619.897 1.231 3.934 2.235 6.202 2.094.85-.052 1.596-.274 2.088-.706.151-.134.272-.285.359-.461.144-.245.22-.542.22-.881-.133-3.261-.145-17.727-.614-22.383-.034-.298-.052-.607-.086-.916l-.151-1.29c0-.111-.023-.221-.034-.321-.012-.146-.035-.274-.053-.42-.109-.916-.243-1.838-.404-2.766-.047-.233-.076-.472-.122-.706 0-.023-.012-.035-.012-.052-.046-.245-.086-.496-.144-.735-.046-.251-.087-.496-.145-.741-.052-.234-.098-.473-.162-.707a15.17 15.17 0 0 0-.208-.857c-.22-.846-.457-1.652-.735-2.41 1.117-6.512 1.29-13.748.787-19.875l-.098-1.126c1.203-3.699 1.215-7.702.231-12.341l-3.234-.805-9.643-2.41-8.903-2.223-.342-.088c-.434 9.126-.139 12.697 6.896 16.63z" class="R"/><path d="M284.229 140.257c.005.041.057 2.118.011 2.912-6.826 4.848-20.93-1.051-22.197-5.649.035-.957-.121-1.89.012-3.139 4.194 5.765 17.065 8.788 22.174 5.876z" class="H"/><path d="M266.281 141.127c.694.595 1.666.963 2.818 1.407v-1.792c-1.071-.432-2.014-.805-2.818-1.406v1.791z" class="I"/><path d="M262.02 135.232c3.598 5.007 16.151 9.745 22.226 5.246 1.261-.939.885-2.106 1.255-4.89l.821-8.192c.874-9.739 1.071-15.959.937-19.18v-.012c-.011-.612.076-.805.035-1.208-2.47-2.941-6.89-6.319-10.453-8.612-4.831-2.2-4.264-2.188-6.827-1.908-5.923.659-9.169 37.117-7.994 38.756z" fill="#f6f6f6"/><path d="M270.934 150.338c.063 2.398 1.533 4.569 3.783 5.397.862.327 1.759.537 2.702.631 1.556.186 3.21.076 4.957-.286l1.759-.438c1.209-.35 2.464-.817 3.76-1.371l-.434-33.482-.034-2.853-.139-10.929c-1.932-2.638-5.369-5.223-8.429-7.335-3.708 5.111-5.727 14.156-6.896 23.725l-.584 14.483-.445 12.458zm.43-51.807c-2.667 6.932-5.247 12.423-5.872 21.455l-1.845 23.481c.023 2.077 0 5.724-3.408 4.055l-1.602-.91 2.574-36.067c1.145-10.567 3.465-14.628 10.153-12.014z" class="I"/><path d="M269.928 104.839c-1.898 4.633-3.518 20.796-4.408 26.439l1.469 2.883 2.002-1.862c-.018-5.222 1.232-21.572 2.233-27.016l1.909-2.825-2.957-1.067-.248 3.448z" class="R"/><path d="M279.854 100.195c.943 2.282-4.414 5.853-6.988 5.853-.677-1.01-.683-2.544-1.296-3.717-.85.589-1.811 1.523-2.864 2.27-.948-7.469 7.561-9.914 9.47-6.827.382.607 1.406 1.768 1.678 2.421z" fill="#6aa8e5"/><path d="M272.402 123.287l-.191-.082 6.288-14.862-2.73-2.235 3.019.339c1.007-2.328 1.441-4.155 1.354-5.73l.203-.012c.086 1.628-.359 3.501-1.4 5.894l-.029.07-.075-.012-2.401-.269 2.308 1.891-.029.07-6.317 14.938zm-7.308-1.702c-.573-7.043-.613-13.327-.116-18.678l.012-.111 1.944.304-1.701-1.331.052-.082 4.35-6.576.07.017 2.001.484-.046.204-1.932-.467-4.217 6.377 2.169 1.698-2.505-.385c-.48 5.316-.44 11.554.127 18.532l-.208.012z" fill="#1d1d1b"/><path d="M269.842 101.051c-.018-.041-.029-.088-.041-.129l-.208-2.719-.226-3.991 8.238-2.083.573 5.281c.977 5.286-7.422 6.313-8.336 3.641z" class="C"/><path d="M269.843 101.047c-.018-.041-.029-.088-.041-.129l-.486-6.652 6.798-1.675c.416 3.349-2.916 9.307-6.271 8.455z" fill="#ef947f"/><path d="M282.369 156.083l1.759-.437c1.209-.35 2.464-.817 3.76-1.372l-.434-33.481-.034-2.854-7.162-3.343 3.997 16.577c1.348 9.465 1.585 18.282-1.886 24.91z" fill="#073266"/><path d="M266.446 84.758s-1.059 3.758-.903 7.393c.156 3.641.255 4.47 1.539 5.345s2.534 1.173 5.154.076 4.351-3.344 4.351-3.344.295.28 1.307-.519c1.579-1.254 1.967-1.955 2.331-3.985s.319-4.674-.775-7.609-6.051-2.964-8.434-2.235c-2.384.735-3.749 2.69-4.57 4.878z" class="C"/><path d="M281.004 82.646c-.017-1.955-1.943-3.88-4.957-4.405 0 0-3.836-.969-6.231.98l-.416.338c-.18.788-.307 1.587.168 2.27.41.595 1.18 1.079 1.839 1.336.573.228 1.227.28 1.736.654.439.321.711.84.752 1.383.046.636-.203 1.138-.515 1.669l-.689 1.109c.255 1.581 1.36 1.978 1.875 2.392.549.455.353 2.386.353 2.386l.804.058s.295-1.809.74-2.672c.446-.852 2.06-1.284 2.661.187.492 1.202-.387 2.392-1.064 3.239 0 0 1.342.694 2.765-5.106.006 0 3.338-3.262.179-5.818z" class="H"/><path d="M291.735 120.754l1.66 8.957c0 1.295-4.252 3.542-6.687 2.941-.96-.543-4.188-8.146-4.188-8.146" fill="#ffd1a4"/><path d="M289.248 114.644l-.283-2.095.283 2.095zm-.771-5.367l.023.164.012.011-.035-.175z" fill="#ea6157"/><path d="M288.516 109.472c-.005-.076-.028-.14-.034-.192l.029.163c-.006-.035-.029-.07-.047-.093-.156-.409-.329-.788-.503-1.132a14.32 14.32 0 0 0-.752-1.424l-.202-.321c-.822-.216-1.655-.373-2.511-.397l.035.035c-2.511.082-6.15 1.821-6.133 5.351.006 3.419 5.433 16.805 6.971 20.802 0 0 2.176 1.465 4.738.321 3.344-1.488 3.894-3.682 3.894-3.682-.423-1.721-5.12-18.538-5.485-19.431z" class="I"/><g class="C"><path d="M287.338 150.731s.087 2.369-.225 2.748-1.29 2.27-1.371 2.544c-.087.269-.324 1.529-.417 1.768-.087.245.503.625.914.111.255-.321.417-.899.596-1.301s.735-1.681.885-1.447.11 1.943.139 2.38c.023.438-.278 1.792-.417 2.352s-.948 2.906-.624 3.034.595.094 1.012-.537c0 0 .659.339 1.047-.431 0 0 .59.198.954-.811 0 0 .423-.216.585-.578s1.388-3.408 1.382-4.668-.393-2.077-.335-2.97l.098-4.476-4.223 2.282z"/><path d="M293.392 129.711c.434.846-.197 9.103-1.29 15.533l-1.169 7.504-3.366.017s-.267-5.496-.608-8.886c-.353-3.472-.752-11.198-.752-11.198"/></g><path d="M285.375 132.269l1.203 20.563 5.259-.525 2.169-23.393-8.631 3.355z" class="I"/><path d="M272.218 88.487c-.903-.42-1.869-.642-2.8-.642l-.023-.233a7.05 7.05 0 0 1 2.898.665l-.075.21zm-6.161-.816l-.092-.228c.74-.245 1.51-.012 2.187.193l-.041.228c-.642-.198-1.377-.42-2.054-.193zm.34 2.285c-.047.315.075.613.26.671.191.058.376-.152.423-.467s-.076-.613-.261-.671c-.185-.052-.376.152-.422.467zm3.488.351c-.046.315.075.613.26.671.191.058.377-.152.423-.467s-.075-.613-.261-.671c-.191-.053-.376.157-.422.467z" fill="#000"/><path d="M277.812 84.073l.718-2.013c-.903-.601-1.944-.969-2.997-1.173l-2.493-.391c-1.724-.309-3.645-1.821-5.351-.665-.92.624-1.441 1.786-2.448 2.235l-1.081.438c-1.059.455-1.632 1.797-1.337 2.947l.058.193c.37 1.085 1.163 1.926 2.326 1.716.677-.123 1.058-.303 1.417-.846.249-.373.619-.665 1.059-.753.532-.105 1.099.017 1.596.245.226.105.446.233.683.251.729.041 1.331-.998 1.99-.677.486.239.44.945.44 1.5 0 .665.248 1.406.839 1.686.48.227 1.041.087 1.567.157.388.052.747.228 1.088.432.497-1.797 1.284-3.519 1.926-5.281z" class="H"/><g fill="#183862"><path d="M264.964 89.581c.174-1.044.926-1.71 1.678-1.494s1.22 1.243 1.041 2.287-.926 1.71-1.678 1.494c-.752-.222-1.22-1.249-1.041-2.287zm.139.041c-.162.963.254 1.908.931 2.101.671.198 1.354-.426 1.516-1.389s-.255-1.908-.931-2.101-1.36.426-1.516 1.389zm3.744.44c.289-1.167 1.197-1.856 2.025-1.54s1.266 1.517.977 2.684-1.197 1.856-2.025 1.541-1.266-1.517-.977-2.684zm.127.047c-.272 1.091.127 2.212.885 2.497s1.597-.368 1.869-1.459-.128-2.211-.885-2.497-1.597.368-1.869 1.459z"/><path d="M267.621 90.298l1.209.181.006-.134-1.215-.181v.134zm8.718.129c-.011.023-.017.047-.029.076l-4.419.473.023-.157 4.472-.461a.48.48 0 0 0-.047.07z"/></g><path d="M277.216 91.683l-.185-.093c.064-.128.619-1.243 1.238-1.126l-.034.204c-.018-.006-.035-.006-.053-.006-.376 0-.821.729-.966 1.021z" class="H"/><g fill="#000"><path d="M268.716 95.019c-.636 0-1.111-.35-1.134-.362l.122-.169c.052.041 1.359.986 2.487-.548l.168.123c-.399.543-.868.858-1.389.934a1.28 1.28 0 0 1-.254.023z"/><path d="M269.945 93.768a2.22 2.22 0 0 1 .654.484c-.248-.123-.463-.28-.654-.484z"/></g><path d="M259.996 126.238c.504 2.7-.749 6.723-2.795 7.112s-4.56-1.376-5.057-4.075.749-5.206 2.803-5.595 4.545-.142 5.049 2.558z" class="I"/><g stroke-width=".141" class="E"><path d="M259.504 134.368s.862-13.858 1.336-17.143" stroke="#1d1d1b"/><path d="M268.154 90.494s-.388 2.853-.052 2.853.948-.531.948-.531" stroke="#000"/></g></svg>