<svg width="66" height="66" viewBox="0 0 66 66" fill="none" xmlns="http://www.w3.org/2000/svg">
<rect x="0.5" y="0.5" width="65" height="65" rx="13.5" fill="#F2F8FF" style="fill:#F2F8FF;fill:color(display-p3 0.9490 0.9725 1.0000);fill-opacity:1;"/>
<rect x="0.5" y="0.5" width="65" height="65" rx="13.5" stroke="#0668E1" style="stroke:#0668E1;stroke:color(display-p3 0.0235 0.4078 0.8824);stroke-opacity:1;"/>
<path d="M32.9727 22C34.3527 22 35.6047 22.56 36.5087 23.464C36.6964 23.6516 36.8018 23.9061 36.8018 24.1715C36.8018 24.4369 36.6964 24.6914 36.5087 24.879C36.3211 25.0667 36.0666 25.1721 35.8012 25.1721C35.5358 25.1721 35.2814 25.0667 35.0937 24.879C34.5312 24.3164 33.7683 24.0002 32.9727 24C32.1437 24 31.3957 24.335 30.8517 24.879C30.6641 25.0667 30.4096 25.1721 30.1442 25.1721C29.8788 25.1721 29.6244 25.0667 29.4367 24.879C29.2491 24.6914 29.1437 24.4369 29.1437 24.1715C29.1437 23.9061 29.2491 23.6516 29.4367 23.464C29.9011 22.9997 30.4524 22.6315 31.0591 22.3803C31.6658 22.1291 32.3161 21.9999 32.9727 22ZM32.9727 18C34.1548 17.9989 35.3254 18.2312 36.4175 18.6835C37.5096 19.1359 38.5016 19.7994 39.3367 20.636C39.5189 20.8246 39.6197 21.0772 39.6174 21.3394C39.6151 21.6016 39.5099 21.8524 39.3245 22.0378C39.1391 22.2232 38.8883 22.3284 38.6261 22.3307C38.3639 22.333 38.1113 22.2322 37.9227 22.05C37.2733 21.3991 36.5017 20.883 35.6522 20.5312C34.8028 20.1794 33.8922 19.9989 32.9727 20C32.0533 19.9989 31.1427 20.1794 30.2932 20.5312C29.4437 20.883 28.6721 21.3991 28.0227 22.05C27.8341 22.2322 27.5815 22.333 27.3193 22.3307C27.0571 22.3284 26.8063 22.2232 26.6209 22.0378C26.4355 21.8524 26.3303 21.6016 26.328 21.3394C26.3258 21.0772 26.4266 20.8246 26.6087 20.636C27.4438 19.7994 28.4358 19.1359 29.5279 18.6835C30.62 18.2312 31.7906 17.9989 32.9727 18ZM32.9727 14C36.5627 14 39.8127 15.456 42.1647 17.808C42.3469 17.9966 42.4477 18.2492 42.4454 18.5114C42.4431 18.7736 42.3379 19.0244 42.1525 19.2098C41.9671 19.3952 41.7163 19.5004 41.4541 19.5027C41.1919 19.505 40.9393 19.4042 40.7507 19.222C39.7306 18.1988 38.5183 17.3873 37.1834 16.8344C35.8486 16.2814 34.4176 15.9979 32.9727 16C31.5279 15.9979 30.0969 16.2814 28.762 16.8344C27.4272 17.3873 26.2148 18.1988 25.1947 19.222C25.0061 19.4042 24.7535 19.505 24.4913 19.5027C24.2291 19.5004 23.9783 19.3952 23.7929 19.2098C23.6075 19.0244 23.5023 18.7736 23.5 18.5114C23.4978 18.2492 23.5986 17.9966 23.7807 17.808C24.9865 16.5991 26.4193 15.6403 27.9967 14.9868C29.5742 14.3333 31.2652 13.9979 32.9727 14Z" fill="#0668E1" style="fill:#0668E1;fill:color(display-p3 0.0235 0.4078 0.8824);fill-opacity:1;"/>
<g clip-path="url(#clip0_22193_37461)">
<path d="M39.2754 36.547C39.8765 34.1562 39.0051 33.0427 38.219 32.4499C37.846 31.5699 37.4205 30.9357 36.9853 30.6965C36.1917 30.2603 35.2406 30.2128 34.5754 30.2508C34.7467 30.0798 35.0836 30.0175 35.0836 30.0175C34.6712 29.9582 33.7504 30.3538 33.7504 30.3538C28.0123 28.216 27.1105 36.3855 27.2312 38.2836C27.3507 40.1814 27.3349 42.4167 24.3495 43.9121C18.6535 46.7654 26.2425 57.5178 26.2425 57.5178C26.0977 55.9842 33.4164 47.89 37.2346 45.4661C38.1641 44.1428 38.4945 41.8053 38.5192 41.6213C38.3587 43.4747 38.0309 44.5143 37.7379 45.0997C39.4781 43.551 39.736 39.8319 39.2754 36.547Z" fill="#1B1C17" style="fill:#1B1C17;fill:color(display-p3 0.1059 0.1098 0.0902);fill-opacity:1;"/>
<path d="M37.0116 45.5855C37.0308 45.5938 35.1679 46.529 33.7669 46.1586C32.4489 45.811 31.5877 44.1586 31.606 44.155C32.1641 44.0478 32.3251 43.3062 32.3132 40.1191L32.5655 40.1672L36.808 40.9795C36.808 40.9795 36.7115 42.2706 36.7086 43.4867C36.7056 44.508 36.7699 45.4766 37.0116 45.5855Z" fill="#FFB27D" style="fill:#FFB27D;fill:color(display-p3 1.0000 0.6980 0.4902);fill-opacity:1;"/>
<path d="M36.8047 40.9822C36.8047 40.9822 36.7082 42.2733 36.7053 43.4895C34.3312 43.4248 33.0764 41.3307 32.5622 40.1699L36.8047 40.9822Z" fill="#ED975D" style="fill:#ED975D;fill:color(display-p3 0.9294 0.5922 0.3647);fill-opacity:1;"/>
<path d="M41.3427 60.8191C41.3083 67.0845 42.2932 69.7725 42.2932 69.7725C42.2932 69.7725 36.4633 72.6367 29.5342 70.5282C29.4527 70.5035 23.7971 69.2554 23.7971 69.2554C23.913 69.0017 24.9442 64.7793 25.0571 64.5467C26.5201 61.5089 27.6309 60.1769 27.8044 59.243C28.1263 57.4994 28.1333 55.6953 27.973 53.9938C27.5503 49.4896 26.2928 45.7505 26.2928 45.7505C28.1807 45.3351 29.9487 44.6054 31.9138 43.8928C32.3658 44.437 33.7475 45.0064 34.9461 44.9804C36.3262 44.951 36.7738 44.3796 36.7023 43.7559C38.1731 44.5472 39.3468 45.2948 39.3468 45.2948C40.5968 47.3944 43.132 49.4335 43.3157 52.6543C43.361 53.4463 41.3437 60.6436 41.3427 60.8191Z" fill="white" style="fill:white;fill-opacity:1;"/>
<path d="M29.6301 61.5153C29.0349 62.33 27.8937 67.2809 25.0546 67.9034C26.5176 64.3746 27.6285 62.8274 27.8019 61.7425C28.1238 59.7173 28.1309 57.6217 27.9705 55.6452C28.9209 54.0346 29.6301 52.9301 29.6301 52.9301C29.7048 52.6696 31.1404 48.3772 31.6006 52.2141C32.0595 56.052 30.2951 60.604 29.6301 61.5153Z" fill="#5F9AA8" style="fill:#5F9AA8;fill:color(display-p3 0.3725 0.6039 0.6588);fill-opacity:1;"/>
<path d="M37.594 42.1316C37.594 42.1316 31.9772 42.2212 31.9733 38.8379C31.9695 35.4547 31.2419 33.1877 34.828 32.9875C38.4141 32.7873 39.1123 34.0775 39.3977 35.2064C39.683 36.3355 39.055 42.0212 37.594 42.1316Z" fill="#FFB27D" style="fill:#FFB27D;fill:color(display-p3 1.0000 0.6980 0.4902);fill-opacity:1;"/>
<path d="M37.3906 32.9044C37.3906 32.9044 35.8527 36.8736 33.4927 37.4605C31.1324 38.0474 30.1086 37.4359 30.1086 37.4359C30.1086 37.4359 31.919 36.0453 32.2947 33.6177C32.2947 33.6177 36.2306 31.0153 37.3906 32.9044Z" fill="#1B1C17" style="fill:#1B1C17;fill:color(display-p3 0.1059 0.1098 0.0902);fill-opacity:1;"/>
<path d="M37.0076 33.2293C37.0076 33.2293 38.1561 34.1154 38.436 34.977C38.7162 35.8386 38.8421 37.6121 39.3766 37.5517C39.3766 37.5517 40.5352 34.8539 39.2332 33.3278C37.8524 31.7094 37.0076 33.2293 37.0076 33.2293Z" fill="#1B1C17" style="fill:#1B1C17;fill:color(display-p3 0.1059 0.1098 0.0902);fill-opacity:1;"/>
<path d="M46.433 65.166L49.0859 72.9871L47.5727 73.5738L43.1863 66.6638L46.433 65.166Z" fill="#FFB27D" style="fill:#FFB27D;fill:color(display-p3 1.0000 0.6980 0.4902);fill-opacity:1;"/>
<path d="M39.2816 44.8301C39.2816 44.8301 42.4098 46.0304 43.3151 47.9017C44.2204 49.773 45.5913 62.3255 46.1373 63.6146C46.6833 64.9036 47.0938 65.9243 47.0938 65.9243C47.0938 65.9243 45.5166 67.2092 43.9304 67.3038C42.3442 67.3984 39.2816 44.8301 39.2816 44.8301Z" fill="#0374FF" style="fill:#0374FF;fill:color(display-p3 0.0106 0.4533 1.0000);fill-opacity:1;"/>
<path d="M36.7087 43.7559C36.7087 43.7559 39.9584 51.5188 40.0539 53.09C40.1494 54.661 40.4363 78.7815 40.4363 78.7815C40.4363 78.7815 40.2452 79.8905 42.4433 79.4283C44.6415 78.9661 45.2148 78.5041 45.2148 78.5041C45.2148 78.5041 43.1123 63.6253 43.6857 58.45C44.2593 53.2747 39.2894 44.8342 39.2894 44.8342L36.7087 43.7559Z" fill="#0374FF" style="fill:#0374FF;fill:color(display-p3 0.0106 0.4533 1.0000);fill-opacity:1;"/>
<path d="M31.6398 78.3192C31.6398 78.3192 30.8113 81.2146 27.944 80.8449C25.0768 80.4753 20.9997 78.8118 20.9997 78.8118C20.9997 78.8118 22.225 75.0681 23.7483 70.1497C25.593 64.1954 27.8761 56.5194 28.9523 51.6778C29.2542 50.321 29.4608 49.1881 29.5372 48.3767L31.9159 43.9141C31.9159 43.9141 35.4627 51.6114 35.6538 53.552C35.8449 55.4927 31.6398 78.3192 31.6398 78.3192Z" fill="#0374FF" style="fill:#0374FF;fill:color(display-p3 0.0106 0.4533 1.0000);fill-opacity:1;"/>
<path d="M28.7694 53.259L31.9089 43.9102C31.9004 43.9139 27.9437 45.0485 25.9534 46.0209C25.9534 46.0209 24.7093 47.5718 23.9396 51.1498C23.9396 51.1498 23.1264 59.74 24.9422 62.8821C24.9422 62.8821 30.6767 63.9911 39.8516 60.9413V58.9082C39.8516 58.9082 29.8164 59.4165 27.7616 59.6475L28.7694 53.259Z" fill="#FFB27D" style="fill:#FFB27D;fill:color(display-p3 1.0000 0.6980 0.4902);fill-opacity:1;"/>
<path d="M31.5053 57.6162C31.3773 60.7584 30.6126 66.8577 23.7954 70.1228C23.7773 70.1311 23.7592 70.1404 23.741 70.1477C25.5856 64.1934 27.8688 56.5173 28.945 51.6758C30.1969 53.4852 31.575 55.8863 31.5053 57.6162Z" fill="#0668E1" style="fill:#0668E1;fill:color(display-p3 0.0235 0.4078 0.8824);fill-opacity:1;"/>
<path d="M31.9175 43.9102C31.9175 43.9102 26.0977 44.3067 24.6959 47.3255C23.2943 50.3444 22.8481 60.3869 24.6323 63.3441C24.6323 63.3441 27.0884 64.0205 31.4326 63.235C31.4859 63.2254 31.5394 63.2155 31.5932 63.2055C31.5932 63.2055 32.979 59.9248 31.7365 59.2779C31.7365 59.2779 28.0729 59.4627 28.4553 58.292C28.8374 57.1216 31.9175 43.9102 31.9175 43.9102Z" fill="#0374FF" style="fill:#0374FF;fill:color(display-p3 0.0106 0.4533 1.0000);fill-opacity:1;"/>
<path d="M46.5078 60.1655L46.3363 60.6983L36.7867 57.8257C36.7867 57.8257 36.6593 57.6853 36.7222 57.4991C36.7916 57.2934 36.9581 57.293 36.9581 57.293L46.5078 60.1655Z" fill="#263238" style="fill:#263238;fill:color(display-p3 0.1490 0.1961 0.2196);fill-opacity:1;"/>
<path d="M47.1992 60.6714L46.5086 60.168L46.3372 60.7007L47.1992 60.6714Z" fill="#263238" style="fill:#263238;fill:color(display-p3 0.1490 0.1961 0.2196);fill-opacity:1;"/>
<path d="M39.8529 58.9093C39.8529 58.9093 42.0193 57.6192 42.9282 57.8176C43.8371 58.0161 46.1533 59.6383 45.0391 59.9895C43.925 60.3407 43.0228 59.9722 42.5943 60.2273C42.1658 60.4824 41.8495 60.9488 39.8528 60.9424C37.8562 60.9361 39.8529 58.9093 39.8529 58.9093Z" fill="#FFB27D" style="fill:#FFB27D;fill:color(display-p3 1.0000 0.6980 0.4902);fill-opacity:1;"/>
</g>
<defs>
<clipPath id="clip0_22193_37461">
<rect width="40" height="40" fill="white" style="fill:white;fill-opacity:1;" transform="translate(13 26)"/>
</clipPath>
</defs>
</svg>
