<svg width="32" height="32" viewBox="0 0 32 32" fill="none" xmlns="http://www.w3.org/2000/svg">
<rect width="32" height="32" rx="8" fill="#E6F0FC" style="fill:#E6F0FC;fill:color(display-p3 0.9020 0.9412 0.9882);fill-opacity:1;"/>
<path d="M15.1899 15.6388C12.158 17.3348 7 19.5988 7 19.5988C7 19.5988 9.62245 19.0695 11.14 18.6088C13.101 18.0135 14.1365 17.482 15.9999 16.6288C18.8309 15.3327 23.0198 12.8489 23.0198 12.8489L23.6498 13.6589L24.9998 9.87891L21.0399 10.4189L21.7598 11.4989C21.7598 11.4989 17.8366 14.1584 15.1899 15.6388Z" fill="#0668E1" style="fill:#0668E1;fill:color(display-p3 0.0235 0.4078 0.8824);fill-opacity:1;"/>
<path d="M14.7689 10.9613C14.7689 10.9613 13.3667 11.4921 12.429 11.5013C11.5329 11.5101 11.0259 11.3442 10.179 11.0513C9.36195 10.7688 8.91902 10.4214 8.199 10.0614C7.86042 9.89207 7.48726 10.0929 7.29901 10.4213C7.1036 10.7623 7.13782 11.2164 7.47901 11.4113C8.10911 11.7713 10.449 12.7613 10.719 13.3913C10.9432 13.9145 10.809 17.3513 10.809 17.3513L14.0489 15.5513C14.0489 15.5513 14.0489 14.2013 14.2289 13.3013C14.3067 12.9123 14.939 12.6763 15.489 12.4013C16.2089 12.0413 16.6589 11.8613 17.3789 11.3213C17.6656 11.1063 17.7224 10.7403 17.5589 10.4213C17.3862 10.0845 17.0048 9.90761 16.6589 10.0614C15.849 10.4213 14.7689 10.9613 14.7689 10.9613Z" fill="#0668E1" style="fill:#0668E1;fill:color(display-p3 0.0235 0.4078 0.8824);fill-opacity:1;"/>
<circle cx="12.4287" cy="8.70998" r="1.70998" fill="#0668E1" style="fill:#0668E1;fill:color(display-p3 0.0235 0.4078 0.8824);fill-opacity:1;"/>
<path d="M11.8594 13.39L12.1294 11.5H12.6694L12.9394 13.39L12.3994 14.2L11.8594 13.39Z" fill="white" style="fill:white;fill-opacity:1;"/>
<rect x="8.44141" y="21.0391" width="2.15998" height="3.95996" fill="#0668E1" style="fill:#0668E1;fill:color(display-p3 0.0235 0.4078 0.8824);fill-opacity:1;"/>
<rect x="11.5" y="19.9609" width="2.15998" height="5.03995" fill="#0668E1" style="fill:#0668E1;fill:color(display-p3 0.0235 0.4078 0.8824);fill-opacity:1;"/>
<rect x="14.5586" y="18.5195" width="2.15998" height="6.47993" fill="#0668E1" style="fill:#0668E1;fill:color(display-p3 0.0235 0.4078 0.8824);fill-opacity:1;"/>
<rect x="17.8008" y="17.2617" width="2.15998" height="7.73992" fill="#0668E1" style="fill:#0668E1;fill:color(display-p3 0.0235 0.4078 0.8824);fill-opacity:1;"/>
<rect x="21.0391" y="15.8203" width="2.15998" height="8.99991" fill="#0668E1" style="fill:#0668E1;fill:color(display-p3 0.0235 0.4078 0.8824);fill-opacity:1;"/>
</svg>
