<svg width="60" height="60" viewBox="0 0 60 60" fill="none" xmlns="http://www.w3.org/2000/svg">
<rect width="60" height="60" rx="12" fill="#F2F8FF" style="fill:#F2F8FF;fill:color(display-p3 0.9490 0.9725 1.0000);fill-opacity:1;"/>
<g clip-path="url(#clip0_20318_67335)">
<path d="M28.9529 47.5703C38.6178 47.6082 46.4843 39.804 46.5231 30.1391C46.562 20.4741 38.7585 12.6085 29.0936 12.5706C19.4287 12.5327 11.5623 20.3369 11.5234 30.0018C11.4845 39.6667 19.288 47.5324 28.9529 47.5703Z" fill="white" style="fill:white;fill-opacity:1;"/>
<path d="M45.2019 21.3516C45.2019 21.3516 36.3126 28.0579 29.7257 28.0579C23.1388 28.0579 14.2495 21.3516 14.2495 21.3516C14.2495 21.3516 11.6701 25.2206 11.6701 30.6373C11.6701 36.0539 14.2495 39.923 14.2495 39.923C14.2495 39.923 23.1388 33.2166 29.7257 33.2166C36.3126 33.2166 45.2019 39.923 45.2019 39.923C45.2019 39.923 47.7812 36.1986 47.7812 30.6373C47.7812 25.076 45.2019 21.3516 45.2019 21.3516Z" fill="#B3D1F6" style="fill:#B3D1F6;fill:color(display-p3 0.7020 0.8196 0.9647);fill-opacity:1;"/>
<path d="M49.0898 30.002C49.0898 18.957 40.1348 10.002 29.0898 10.002C18.0448 10.002 9.08984 18.957 9.08984 30.002C9.08984 41.047 18.0448 50.002 29.0898 50.002C40.1348 50.002 49.0898 41.047 49.0898 30.002ZM11.6209 30.002C11.6209 20.3542 19.4421 12.533 29.0898 12.533C38.3705 12.533 45.9549 19.771 46.5203 28.9066L44.1579 30.002L46.5203 31.0973C45.9549 40.2358 38.3675 47.4709 29.0898 47.4709C19.4421 47.4709 11.6209 39.6497 11.6209 30.002Z" fill="#0668E1" fill-opacity="0.8" style="fill:#0668E1;fill:color(display-p3 0.0235 0.4078 0.8824);fill-opacity:0.8;"/>
<path d="M40.6328 19.1641L39.1408 20.6142" stroke="#2A4B72" style="stroke:#2A4B72;stroke:color(display-p3 0.1647 0.2941 0.4471);stroke-opacity:1;" stroke-width="0.515873" stroke-miterlimit="10"/>
<path d="M33.5859 15.0664L33.0264 17.0604" stroke="#2A4B72" style="stroke:#2A4B72;stroke:color(display-p3 0.1647 0.2941 0.4471);stroke-opacity:1;" stroke-width="0.515873" stroke-miterlimit="10"/>
<path d="M25.4135 15.0039L25.9375 17.0037" stroke="#2A4B72" style="stroke:#2A4B72;stroke:color(display-p3 0.1647 0.2941 0.4471);stroke-opacity:1;" stroke-width="0.515873" stroke-miterlimit="10"/>
<path d="M18.2895 18.9805L19.7578 20.4569" stroke="#2A4B72" style="stroke:#2A4B72;stroke:color(display-p3 0.1647 0.2941 0.4471);stroke-opacity:1;" stroke-width="0.515873" stroke-miterlimit="10"/>
<path d="M14.1412 25.9414L16.1602 26.494" stroke="#2A4B72" style="stroke:#2A4B72;stroke:color(display-p3 0.1647 0.2941 0.4471);stroke-opacity:1;" stroke-width="0.515873" stroke-miterlimit="10"/>
<path d="M14.0728 34.0243L16.0977 33.5039" stroke="#2A4B72" style="stroke:#2A4B72;stroke:color(display-p3 0.1647 0.2941 0.4471);stroke-opacity:1;" stroke-width="0.515873" stroke-miterlimit="10"/>
<path d="M18.0988 41.0478L19.5938 39.5977" stroke="#2A4B72" style="stroke:#2A4B72;stroke:color(display-p3 0.1647 0.2941 0.4471);stroke-opacity:1;" stroke-width="0.515873" stroke-miterlimit="10"/>
<path d="M25.1436 45.1463L25.7031 43.1523" stroke="#2A4B72" style="stroke:#2A4B72;stroke:color(display-p3 0.1647 0.2941 0.4471);stroke-opacity:1;" stroke-width="0.515873" stroke-miterlimit="10"/>
<path d="M33.3281 45.2176L32.8012 43.2148" stroke="#2A4B72" style="stroke:#2A4B72;stroke:color(display-p3 0.1647 0.2941 0.4471);stroke-opacity:1;" stroke-width="0.515873" stroke-miterlimit="10"/>
<path d="M40.4453 41.2392L38.977 39.7656" stroke="#2A4B72" style="stroke:#2A4B72;stroke:color(display-p3 0.1647 0.2941 0.4471);stroke-opacity:1;" stroke-width="0.515873" stroke-miterlimit="10"/>
<path d="M44.5938 34.2752L42.5748 33.7227" stroke="#2A4B72" style="stroke:#2A4B72;stroke:color(display-p3 0.1647 0.2941 0.4471);stroke-opacity:1;" stroke-width="0.515873" stroke-miterlimit="10"/>
<path d="M43.0859 22.3086L41.2742 23.3407" stroke="#2A4B72" style="stroke:#2A4B72;stroke:color(display-p3 0.1647 0.2941 0.4471);stroke-opacity:1;" stroke-width="0.515873" stroke-miterlimit="10"/>
<path d="M37.3047 16.5898L36.2567 18.3821" stroke="#2A4B72" style="stroke:#2A4B72;stroke:color(display-p3 0.1647 0.2941 0.4471);stroke-opacity:1;" stroke-width="0.515873" stroke-miterlimit="10"/>
<path d="M29.4023 14.5039V16.571" stroke="#2A4B72" style="stroke:#2A4B72;stroke:color(display-p3 0.1647 0.2941 0.4471);stroke-opacity:1;" stroke-width="0.515873" stroke-miterlimit="10"/>
<path d="M21.4989 16.5898L22.5469 18.3821" stroke="#2A4B72" style="stroke:#2A4B72;stroke:color(display-p3 0.1647 0.2941 0.4471);stroke-opacity:1;" stroke-width="0.515873" stroke-miterlimit="10"/>
<path d="M15.7127 22.3086L17.5273 23.3407" stroke="#2A4B72" style="stroke:#2A4B72;stroke:color(display-p3 0.1647 0.2941 0.4471);stroke-opacity:1;" stroke-width="0.515873" stroke-miterlimit="10"/>
<path d="M13.5985 30.1055H15.6914" stroke="#2A4B72" style="stroke:#2A4B72;stroke:color(display-p3 0.1647 0.2941 0.4471);stroke-opacity:1;" stroke-width="0.515873" stroke-miterlimit="10"/>
<path d="M42.8992 30.1055H44.9922" stroke="#2A4B72" style="stroke:#2A4B72;stroke:color(display-p3 0.1647 0.2941 0.4471);stroke-opacity:1;" stroke-width="0.515873" stroke-miterlimit="10"/>
<path d="M15.7127 37.9139L17.5273 36.8789" stroke="#2A4B72" style="stroke:#2A4B72;stroke:color(display-p3 0.1647 0.2941 0.4471);stroke-opacity:1;" stroke-width="0.515873" stroke-miterlimit="10"/>
<path d="M21.4989 43.6213L22.5469 41.832" stroke="#2A4B72" style="stroke:#2A4B72;stroke:color(display-p3 0.1647 0.2941 0.4471);stroke-opacity:1;" stroke-width="0.515873" stroke-miterlimit="10"/>
<path d="M29.4023 45.7116V43.6445" stroke="#2A4B72" style="stroke:#2A4B72;stroke:color(display-p3 0.1647 0.2941 0.4471);stroke-opacity:1;" stroke-width="0.515873" stroke-miterlimit="10"/>
<path d="M37.3047 43.6213L36.2567 41.832" stroke="#2A4B72" style="stroke:#2A4B72;stroke:color(display-p3 0.1647 0.2941 0.4471);stroke-opacity:1;" stroke-width="0.515873" stroke-miterlimit="10"/>
<path d="M43.0859 37.9139L41.2742 36.8789" stroke="#2A4B72" style="stroke:#2A4B72;stroke:color(display-p3 0.1647 0.2941 0.4471);stroke-opacity:1;" stroke-width="0.515873" stroke-miterlimit="10"/>
<path d="M44.5938 26.207L42.5748 26.7596" stroke="#2A4B72" style="stroke:#2A4B72;stroke:color(display-p3 0.1647 0.2941 0.4471);stroke-opacity:1;" stroke-width="0.515873" stroke-miterlimit="10"/>
<path d="M11.0898 30.002C11.0898 39.9435 19.1483 48.002 29.0898 48.002C39.0314 48.002 47.0898 39.9435 47.0898 30.002C47.0898 20.0604 39.0314 12.002 29.0898 12.002C19.1483 12.002 11.0898 20.0604 11.0898 30.002ZM46.0549 30.002C46.0549 39.3714 38.4593 46.967 29.0898 46.967C20.0769 46.967 12.7084 39.9406 12.1593 31.0657L14.4564 30.002L12.1593 28.9382C12.7084 20.0633 20.0769 13.0369 29.0898 13.0369C38.4593 13.0369 46.0549 20.6325 46.0549 30.002Z" fill="#0668E1" fill-opacity="0.6" style="fill:#0668E1;fill:color(display-p3 0.0235 0.4078 0.8824);fill-opacity:0.6;"/>
<path opacity="0.08" d="M46.5898 30.002C46.5898 20.3371 38.7547 12.502 29.0898 12.502C19.425 12.502 11.5898 20.3371 11.5898 30.002C11.5898 39.6668 19.425 47.502 29.0898 47.502C38.7547 47.502 46.5898 39.6668 46.5898 30.002ZM12.7909 30.002C12.7909 21.0014 20.0892 13.703 29.0898 13.703C38.0904 13.703 45.3888 21.0014 45.3888 30.002C45.3888 39.0026 38.0904 46.3009 29.0898 46.3009C20.0892 46.3009 12.7909 39.0055 12.7909 30.002Z" fill="#11171C" style="fill:#11171C;fill:color(display-p3 0.0667 0.0902 0.1098);fill-opacity:1;"/>
<path d="M20.4345 22.3837L21.9203 24.0476L21.6692 24.2718L20.1835 22.6079L20.4345 22.3837Z" fill="#C1C1C1" style="fill:#C1C1C1;fill:color(display-p3 0.7569 0.7569 0.7569);fill-opacity:1;"/>
<path d="M22.6268 21.9378L23.1579 22.7773L22.8827 22.9514L21.9882 21.5375L22.2524 21.3704L22.398 21.6005L22.4155 21.5895C22.4006 21.494 22.4135 21.4017 22.4541 21.3124C22.4954 21.2227 22.5691 21.1443 22.6752 21.0771C22.7716 21.0162 22.8687 20.983 22.9668 20.9777C23.0644 20.9718 23.1582 20.9958 23.2482 21.0497C23.3382 21.1037 23.42 21.1889 23.4938 21.3055L24.0627 22.2048L23.7875 22.3789L23.2395 21.5128C23.1747 21.4103 23.0973 21.3471 23.0075 21.3232C22.9172 21.2987 22.8254 21.3159 22.7322 21.3749C22.6683 21.4153 22.6203 21.465 22.5881 21.5241C22.5565 21.5828 22.5431 21.6479 22.548 21.7195C22.5532 21.7902 22.5795 21.8629 22.6268 21.9378Z" fill="#C1C1C1" style="fill:#C1C1C1;fill:color(display-p3 0.7569 0.7569 0.7569);fill-opacity:1;"/>
<path d="M25.2013 19.7402L25.2852 19.9878L24.4198 20.2813L24.3358 20.0337L25.2013 19.7402ZM24.4392 19.5754L24.7476 19.4708L25.2559 20.9696C25.2762 21.0294 25.3004 21.0714 25.3286 21.0956C25.3565 21.1191 25.3864 21.1316 25.4183 21.133C25.4507 21.1335 25.4837 21.1281 25.5174 21.1167C25.5422 21.1083 25.5633 21.0992 25.5807 21.0895C25.5981 21.0797 25.6116 21.0721 25.6212 21.0665L25.7633 21.3024C25.7477 21.3153 25.7246 21.3308 25.694 21.3489C25.6635 21.3677 25.6237 21.3858 25.5744 21.4033C25.4937 21.4322 25.4132 21.4434 25.3328 21.4369C25.2524 21.4305 25.1798 21.4029 25.115 21.3544C25.0502 21.3058 25.0016 21.2337 24.9692 21.1381L24.4392 19.5754Z" fill="#C1C1C1" style="fill:#C1C1C1;fill:color(display-p3 0.7569 0.7569 0.7569);fill-opacity:1;"/>
<path d="M27.4381 20.9139C27.2755 20.9408 27.1297 20.9292 27.0007 20.8792C26.8723 20.8283 26.7658 20.7447 26.681 20.6284C26.5969 20.5114 26.5407 20.3672 26.5123 20.196C26.4844 20.0269 26.4912 19.8727 26.533 19.7333C26.5754 19.5938 26.6476 19.4784 26.7495 19.3872C26.8522 19.2959 26.9801 19.2376 27.1335 19.2122C27.2266 19.1968 27.3194 19.1973 27.4119 19.2136C27.5044 19.23 27.5908 19.2654 27.6712 19.3198C27.7516 19.3742 27.8206 19.4507 27.8781 19.5494C27.9356 19.6474 27.9767 19.7712 28.0014 19.9209L28.0203 20.0348L26.7082 20.2519L26.6684 20.0112L27.6656 19.8462C27.6516 19.7617 27.622 19.6897 27.5769 19.6302C27.5316 19.5699 27.4746 19.526 27.406 19.4983C27.3381 19.4706 27.2626 19.4635 27.1795 19.4773C27.0893 19.4922 27.0141 19.5275 26.9541 19.583C26.8947 19.6378 26.8526 19.7036 26.8278 19.7806C26.8036 19.8567 26.7983 19.936 26.812 20.0183L26.8431 20.2064C26.8613 20.3167 26.8962 20.4074 26.9477 20.4784C26.9999 20.5492 27.0645 20.5992 27.1414 20.6285C27.2183 20.657 27.3036 20.6635 27.3975 20.6479C27.4584 20.6379 27.5125 20.6201 27.5598 20.5946C27.6069 20.5684 27.6459 20.5347 27.6766 20.4936C27.7074 20.4524 27.7281 20.4044 27.7389 20.3497L28.0521 20.3542C28.0426 20.4477 28.0119 20.5334 27.9599 20.6112C27.9086 20.6881 27.8388 20.753 27.7504 20.8059C27.6626 20.858 27.5585 20.894 27.4381 20.9139Z" fill="#C1C1C1" style="fill:#C1C1C1;fill:color(display-p3 0.7569 0.7569 0.7569);fill-opacity:1;"/>
<path d="M29.3168 20.628L29.3254 18.955L29.6402 18.9566L29.6388 19.2224L29.6562 19.2225C29.6872 19.1326 29.7413 19.0621 29.8185 19.0109C29.8965 18.959 29.9845 18.9334 30.0825 18.9339C30.1029 18.934 30.1268 18.9348 30.1544 18.9364C30.1827 18.938 30.2048 18.9399 30.2208 18.9422L30.2192 19.2537C30.2062 19.25 30.1829 19.2459 30.1496 19.2414C30.1162 19.2361 30.0828 19.2334 30.0494 19.2332C29.9724 19.2328 29.9037 19.2488 29.8433 19.2812C29.7836 19.3128 29.7362 19.3572 29.701 19.4144C29.6659 19.4709 29.6481 19.5354 29.6477 19.608L29.6425 20.6297L29.3168 20.628Z" fill="#C1C1C1" style="fill:#C1C1C1;fill:color(display-p3 0.7569 0.7569 0.7569);fill-opacity:1;"/>
<path d="M33.072 19.2507L32.1893 20.796L31.8458 20.7366L31.5318 18.9845L31.8763 19.0441L32.0746 20.3849L32.0918 20.3878L32.7275 19.1911L33.072 19.2507Z" fill="#C1C1C1" style="fill:#C1C1C1;fill:color(display-p3 0.7569 0.7569 0.7569);fill-opacity:1;"/>
<path d="M33.8855 21.1627L34.4159 19.576L34.7247 19.6792L34.1944 21.266L33.8855 21.1627ZM34.6537 19.3833C34.6 19.3653 34.5598 19.332 34.5332 19.2833C34.5075 19.2341 34.5031 19.1844 34.5199 19.1341C34.5369 19.0832 34.5704 19.0461 34.6202 19.023C34.671 18.9994 34.7232 18.9965 34.777 19.0145C34.8307 19.0325 34.8704 19.066 34.8961 19.1152C34.9227 19.1639 34.9274 19.2137 34.9104 19.2647C34.8936 19.3149 34.8598 19.3519 34.809 19.3755C34.7592 19.3986 34.7074 19.4012 34.6537 19.3833Z" fill="#C1C1C1" style="fill:#C1C1C1;fill:color(display-p3 0.7569 0.7569 0.7569);fill-opacity:1;"/>
<path d="M36.0182 22.0242C35.8716 21.9488 35.7615 21.8525 35.6878 21.7354C35.6151 21.618 35.5794 21.4873 35.5808 21.3435C35.5831 21.1993 35.624 21.05 35.7034 20.8957C35.7818 20.7433 35.8793 20.6237 35.9959 20.5367C36.1132 20.45 36.2399 20.4005 36.3761 20.3881C36.513 20.376 36.6505 20.4056 36.7887 20.4767C36.8726 20.5198 36.9468 20.5756 37.0113 20.6439C37.0758 20.7122 37.1241 20.7921 37.1562 20.8838C37.1882 20.9754 37.1979 21.078 37.1852 21.1915C37.1729 21.3044 37.132 21.4283 37.0626 21.5632L37.0098 21.6659L35.8272 21.0574L35.9388 20.8405L36.8376 21.3029C36.8768 21.2267 36.896 21.1513 36.8953 21.0766C36.8948 21.0012 36.8753 20.932 36.8368 20.8689C36.7988 20.8061 36.7424 20.7554 36.6675 20.7169C36.5862 20.675 36.5048 20.6585 36.4236 20.6673C36.3432 20.6758 36.2702 20.7035 36.2044 20.7505C36.1395 20.7972 36.088 20.8576 36.0498 20.9319L35.9626 21.1014C35.9114 21.2008 35.8853 21.2944 35.8843 21.382C35.884 21.47 35.9059 21.5487 35.9503 21.6181C35.995 21.6868 36.0596 21.7429 36.1442 21.7864C36.199 21.8147 36.2531 21.8327 36.3062 21.8404C36.3598 21.8476 36.4111 21.8438 36.4603 21.8291C36.5095 21.8144 36.5548 21.7883 36.5962 21.7507L36.8448 21.9412C36.7814 22.0106 36.7056 22.061 36.6175 22.0925C36.5305 22.1236 36.4357 22.1341 36.3332 22.1238C36.2317 22.1132 36.1266 22.08 36.0182 22.0242Z" fill="#C1C1C1" style="fill:#C1C1C1;fill:color(display-p3 0.7569 0.7569 0.7569);fill-opacity:1;"/>
<path d="M37.9695 23.0883L38.6589 21.4864L38.9179 21.7014L38.3857 22.8562L38.3982 22.8667L39.4359 22.1312L39.695 22.3461L39.1654 23.4961L39.1779 23.5065L40.2096 22.7732L40.4686 22.9881L39.0223 23.9619L38.7666 23.7498L39.2764 22.6032L39.2571 22.5872L38.2243 23.2998L37.9695 23.0883Z" fill="#C1C1C1" style="fill:#C1C1C1;fill:color(display-p3 0.7569 0.7569 0.7569);fill-opacity:1;"/>
<path d="M26.2272 42.0615C26.1342 42.2831 26.0137 42.4566 25.8656 42.582C25.7179 42.7067 25.5554 42.7824 25.3782 42.8089C25.2019 42.835 25.0242 42.8105 24.8452 42.7353C24.6655 42.6599 24.5229 42.5499 24.4174 42.4055C24.3129 42.2607 24.2536 42.0916 24.2394 41.8981C24.2253 41.7046 24.2646 41.4974 24.3574 41.2764C24.4504 41.0548 24.5708 40.8817 24.7186 40.7569C24.8666 40.6315 25.0287 40.5557 25.205 40.5296C25.3822 40.5031 25.5607 40.5276 25.7404 40.603C25.9195 40.6782 26.0613 40.7882 26.1658 40.933C26.2712 41.0774 26.331 41.2464 26.3452 41.4398C26.3596 41.6327 26.3203 41.8399 26.2272 42.0615ZM25.9171 41.9313C25.988 41.7624 26.0204 41.6087 26.0142 41.4701C26.0089 41.3312 25.9714 41.2122 25.9018 41.113C25.8332 41.0135 25.7394 40.9387 25.6204 40.8888C25.5009 40.8386 25.3815 40.8238 25.2623 40.8445C25.1434 40.8646 25.0323 40.9212 24.9287 41.0144C24.8262 41.1073 24.7394 41.2382 24.6685 41.4071C24.5976 41.576 24.5648 41.7299 24.57 41.8688C24.5763 42.0073 24.6137 42.1263 24.6824 42.2259C24.7513 42.3248 24.8456 42.3993 24.9652 42.4495C25.0841 42.4995 25.203 42.5144 25.3219 42.4944C25.4417 42.474 25.5529 42.4173 25.6555 42.3245C25.759 42.2313 25.8462 42.1002 25.9171 41.9313Z" fill="#C1C1C1" style="fill:#C1C1C1;fill:color(display-p3 0.7569 0.7569 0.7569);fill-opacity:1;"/>
<path d="M28.1217 42.2056L28.0761 42.4654L27.1364 42.3002L27.1821 42.0404L28.1217 42.2056ZM27.1474 43.7485L27.4736 41.893C27.4918 41.7891 27.5297 41.7068 27.5873 41.6462C27.6449 41.5849 27.7142 41.5439 27.7953 41.5232C27.8764 41.5018 27.961 41.4988 28.0491 41.5142C28.114 41.5257 28.1686 41.5408 28.2129 41.5598C28.2573 41.578 28.29 41.5934 28.3108 41.606L28.189 41.8547C28.1746 41.8477 28.156 41.8392 28.1332 41.8292C28.1105 41.8186 28.0822 41.8102 28.0483 41.8043C27.9696 41.7904 27.9099 41.8 27.8691 41.833C27.8291 41.8662 27.8026 41.9196 27.7897 41.9932L27.4711 43.8054L27.1474 43.7485Z" fill="#C1C1C1" style="fill:#C1C1C1;fill:color(display-p3 0.7569 0.7569 0.7569);fill-opacity:1;"/>
<path d="M30.2192 42.3851L30.2427 42.6479L29.2925 42.7329L29.269 42.4701L30.2192 42.3851ZM29.68 44.1284L29.5121 42.2519C29.5027 42.1468 29.5179 42.0576 29.5577 41.9841C29.5974 41.9099 29.6536 41.8523 29.7265 41.8112C29.7993 41.7694 29.8802 41.7445 29.9692 41.7365C30.0349 41.7307 30.0916 41.7311 30.1393 41.7379C30.1869 41.7439 30.2224 41.7503 30.2458 41.757L30.1929 42.0288C30.1772 42.0258 30.157 42.0225 30.1324 42.0188C30.1077 42.0144 30.0782 42.0137 30.0439 42.0168C29.9644 42.0239 29.9092 42.0487 29.8784 42.0912C29.8484 42.1336 29.8367 42.192 29.8434 42.2665L30.0073 44.0991L29.68 44.1284Z" fill="#C1C1C1" style="fill:#C1C1C1;fill:color(display-p3 0.7569 0.7569 0.7569);fill-opacity:1;"/>
<path d="M32.5177 43.429C32.3566 43.4704 32.209 43.4717 32.0749 43.4327C31.9413 43.3929 31.8268 43.3183 31.7314 43.2089C31.6365 43.0987 31.5672 42.9587 31.5236 42.7891C31.4806 42.6216 31.4739 42.466 31.5035 42.3222C31.5338 42.1782 31.5962 42.0558 31.6906 41.9552C31.7858 41.8543 31.9093 41.7843 32.0611 41.7453C32.1534 41.7216 32.2467 41.7139 32.3412 41.7221C32.4356 41.7304 32.5256 41.7583 32.6112 41.8059C32.6969 41.8535 32.773 41.9244 32.8395 42.0185C32.9059 42.1119 32.9581 42.2328 32.9963 42.3811L33.0253 42.494L31.7254 42.828L31.6641 42.5896L32.652 42.3357C32.6305 42.2519 32.5944 42.1821 32.5438 42.1263C32.4929 42.0698 32.4318 42.0306 32.3604 42.0089C32.2897 41.9869 32.2132 41.9866 32.1308 42.0077C32.0414 42.0307 31.969 42.0728 31.9136 42.1339C31.8587 42.1942 31.8222 42.2641 31.8041 42.3436C31.7865 42.4223 31.7881 42.5025 31.8091 42.5841L31.857 42.7704C31.8851 42.8797 31.9281 42.9677 31.9862 43.0345C32.0449 43.1011 32.1142 43.1457 32.1942 43.1683C32.274 43.1902 32.3603 43.1892 32.4533 43.1653C32.5136 43.1498 32.5664 43.1271 32.6117 43.0973C32.6569 43.0668 32.693 43.0295 32.7203 42.9854C32.7476 42.9414 32.7642 42.8913 32.7702 42.8353L33.0855 42.8121C33.0841 42.9071 33.0608 42.9959 33.0155 43.0787C32.9707 43.1605 32.9062 43.232 32.822 43.2929C32.7384 43.353 32.6369 43.3984 32.5177 43.429Z" fill="#C1C1C1" style="fill:#C1C1C1;fill:color(display-p3 0.7569 0.7569 0.7569);fill-opacity:1;"/>
<path d="M34.6397 42.67L33.8098 41.1997L34.0864 41.0436L34.2183 41.2771L34.2336 41.2685C34.2157 41.1742 34.2278 41.0854 34.2699 41.0019C34.3122 40.9174 34.3765 40.8508 34.4626 40.8022C34.4805 40.7921 34.5019 40.7809 34.5269 40.7685C34.5525 40.7557 34.5729 40.7463 34.588 40.7403L34.7425 41.014C34.7292 41.0173 34.7068 41.0254 34.6753 41.0381C34.6434 41.0502 34.6128 41.0645 34.5835 41.0811C34.5158 41.1193 34.4636 41.1677 34.4269 41.2263C34.3904 41.2839 34.371 41.3466 34.3689 41.4143C34.3663 41.4813 34.3831 41.5468 34.4191 41.6106L34.9259 42.5084L34.6397 42.67Z" fill="#C1C1C1" style="fill:#C1C1C1;fill:color(display-p3 0.7569 0.7569 0.7569);fill-opacity:1;"/>
<path d="M20.8276 29.4014C20.9204 29.4014 20.9999 29.4034 21.0659 29.4076C21.132 29.4117 21.1928 29.4189 21.2485 29.4292C21.3043 29.4375 21.362 29.4499 21.4219 29.4664L21.3909 29.6985C21.329 29.6923 21.2712 29.6882 21.2176 29.6861C21.1639 29.682 21.1062 29.6789 21.0443 29.6768C20.9844 29.6748 20.9122 29.6737 20.8276 29.6737C20.6955 29.6737 20.5913 29.6995 20.515 29.7511C20.4386 29.8027 20.3839 29.8894 20.3509 30.0111C20.32 30.1308 20.3045 30.2959 20.3045 30.5064C20.3045 30.7168 20.32 30.8829 20.3509 31.0047C20.3839 31.1244 20.4386 31.21 20.515 31.2616C20.5913 31.3132 20.6955 31.339 20.8276 31.339C20.9617 31.339 21.0742 31.3369 21.165 31.3328C21.2578 31.3266 21.3476 31.3173 21.4343 31.3049L21.4652 31.5371C21.3744 31.5639 21.2805 31.5825 21.1835 31.5928C21.0886 31.6052 20.97 31.6114 20.8276 31.6114C20.6212 31.6114 20.4551 31.5763 20.3293 31.5061C20.2054 31.4339 20.1157 31.3173 20.06 31.1564C20.0043 30.9954 19.9764 30.7787 19.9764 30.5064C19.9764 30.234 20.0043 30.0173 20.06 29.8564C20.1157 29.6954 20.2054 29.5799 20.3293 29.5097C20.4551 29.4375 20.6212 29.4014 20.8276 29.4014ZM22.4564 30.0266C22.6339 30.0266 22.7752 30.0524 22.8805 30.104C22.9878 30.1556 23.0641 30.2402 23.1095 30.3578C23.157 30.4733 23.1807 30.6271 23.1807 30.819C23.1807 31.0129 23.157 31.1687 23.1095 31.2864C23.0641 31.4019 22.9878 31.4855 22.8805 31.5371C22.7752 31.5887 22.6339 31.6145 22.4564 31.6145C22.281 31.6145 22.1397 31.5887 22.0324 31.5371C21.9271 31.4855 21.8508 31.4019 21.8033 31.2864C21.7559 31.1687 21.7321 31.0129 21.7321 30.819C21.7321 30.6271 21.7559 30.4733 21.8033 30.3578C21.8508 30.2402 21.9271 30.1556 22.0324 30.104C22.1397 30.0524 22.281 30.0266 22.4564 30.0266ZM22.4564 30.268C22.3533 30.268 22.2718 30.2845 22.2119 30.3176C22.1521 30.3506 22.1098 30.4073 22.085 30.4878C22.0602 30.5662 22.0479 30.6766 22.0479 30.819C22.0479 30.9614 22.0602 31.0728 22.085 31.1533C22.1098 31.2337 22.1521 31.2905 22.2119 31.3235C22.2718 31.3545 22.3533 31.3699 22.4564 31.3699C22.5596 31.3699 22.6411 31.3545 22.701 31.3235C22.7629 31.2905 22.8062 31.2337 22.831 31.1533C22.8557 31.0728 22.8681 30.9614 22.8681 30.819C22.8681 30.6766 22.8557 30.5662 22.831 30.4878C22.8062 30.4073 22.7629 30.3506 22.701 30.3176C22.6411 30.2845 22.5596 30.268 22.4564 30.268ZM24.5187 30.0266C24.7931 30.0266 24.9304 30.1649 24.9304 30.4414V31.5742H24.6301V30.528C24.6301 30.4331 24.6146 30.3681 24.5837 30.333C24.5527 30.2959 24.5001 30.2773 24.4258 30.2773C24.3371 30.2773 24.2484 30.299 24.1596 30.3423C24.0709 30.3836 23.9646 30.4414 23.8408 30.5156L23.8284 30.3145C23.944 30.2216 24.0596 30.1504 24.1751 30.1009C24.2907 30.0514 24.4052 30.0266 24.5187 30.0266ZM23.8223 30.0637L23.8501 30.3547L23.8718 30.398V31.5742H23.5746V30.0637H23.8223ZM26.3293 30.0266C26.6037 30.0266 26.7409 30.1649 26.7409 30.4414V31.5742H26.4407V30.528C26.4407 30.4331 26.4252 30.3681 26.3943 30.333C26.3633 30.2959 26.3107 30.2773 26.2364 30.2773C26.1477 30.2773 26.059 30.299 25.9702 30.3423C25.8815 30.3836 25.7752 30.4414 25.6514 30.5156L25.639 30.3145C25.7546 30.2216 25.8702 30.1504 25.9857 30.1009C26.1013 30.0514 26.2158 30.0266 26.3293 30.0266ZM25.6328 30.0637L25.6607 30.3547L25.6824 30.398V31.5742H25.3852V30.0637H25.6328ZM31.2642 30.0266C31.4974 30.0266 31.6655 30.0689 31.7687 30.1535C31.874 30.236 31.9266 30.3588 31.9266 30.5218C31.9286 30.658 31.8987 30.7633 31.8368 30.8376C31.777 30.9118 31.679 30.949 31.5428 30.949H30.6699V30.7354H31.4654C31.5335 30.7354 31.5778 30.7137 31.5985 30.6704C31.6191 30.6271 31.6294 30.5776 31.6294 30.5218C31.6274 30.429 31.5995 30.3629 31.5459 30.3237C31.4943 30.2845 31.4045 30.2649 31.2766 30.2649C31.1713 30.2649 31.0888 30.2804 31.029 30.3114C30.9691 30.3423 30.9268 30.396 30.9021 30.4723C30.8794 30.5487 30.868 30.656 30.868 30.7942C30.868 30.949 30.8825 31.0676 30.9113 31.1502C30.9423 31.2306 30.9908 31.2864 31.0568 31.3173C31.1249 31.3483 31.2147 31.3637 31.3261 31.3637C31.4045 31.3637 31.4922 31.3606 31.5892 31.3545C31.6882 31.3462 31.778 31.3369 31.8585 31.3266L31.8894 31.5216C31.8399 31.5422 31.7801 31.5598 31.7099 31.5742C31.6398 31.5866 31.5675 31.5959 31.4932 31.6021C31.419 31.6083 31.3509 31.6114 31.289 31.6114C31.1115 31.6114 30.9691 31.5845 30.8618 31.5309C30.7545 31.4772 30.6761 31.3926 30.6266 31.2771C30.5771 31.1595 30.5523 31.0057 30.5523 30.8159C30.5523 30.6178 30.5771 30.461 30.6266 30.3454C30.6761 30.2299 30.7535 30.1483 30.8587 30.1009C30.964 30.0514 31.0991 30.0266 31.2642 30.0266ZM32.9604 30.0266C33.0078 30.0266 33.0594 30.0287 33.1151 30.0328C33.1729 30.0369 33.2317 30.0441 33.2916 30.0545C33.3535 30.0648 33.4102 30.0803 33.4618 30.1009L33.4247 30.2928C33.3524 30.2866 33.2781 30.2825 33.2018 30.2804C33.1275 30.2763 33.0635 30.2742 33.0099 30.2742C32.8943 30.2742 32.8025 30.2907 32.7344 30.3237C32.6684 30.3547 32.6209 30.4094 32.592 30.4878C32.5631 30.5662 32.5487 30.6756 32.5487 30.8159C32.5487 30.9562 32.5631 31.0666 32.592 31.1471C32.6209 31.2276 32.6684 31.2833 32.7344 31.3142C32.8025 31.3452 32.8943 31.3606 33.0099 31.3606C33.0408 31.3606 33.0811 31.3596 33.1306 31.3576C33.1801 31.3555 33.2338 31.3524 33.2916 31.3483C33.3493 31.3441 33.405 31.3379 33.4587 31.3297L33.4866 31.5278C33.4102 31.5567 33.3256 31.5773 33.2327 31.5897C33.1399 31.6041 33.0481 31.6114 32.9573 31.6114C32.7798 31.6114 32.6374 31.5856 32.5301 31.534C32.4249 31.4824 32.3485 31.3988 32.3011 31.2833C32.2536 31.1677 32.2299 31.0119 32.2299 30.8159C32.2299 30.6219 32.2536 30.4672 32.3011 30.3516C32.3506 30.236 32.428 30.1535 32.5332 30.104C32.6405 30.0524 32.7829 30.0266 32.9604 30.0266ZM34.2485 29.6211V31.144C34.2485 31.2141 34.2629 31.2647 34.2918 31.2956C34.3228 31.3245 34.3744 31.339 34.4466 31.339H34.6694L34.7035 31.5587C34.6684 31.5691 34.6282 31.5773 34.5828 31.5835C34.5394 31.5897 34.4951 31.5938 34.4497 31.5959C34.4063 31.6 34.3713 31.6021 34.3444 31.6021C34.2165 31.6021 34.1185 31.567 34.0504 31.4968C33.9823 31.4267 33.9483 31.3256 33.9483 31.1935V29.6211H34.2485ZM34.719 30.0637V30.2866H33.6759V30.0792L33.973 30.0637H34.719ZM36.1378 29.4292C36.2513 29.4292 36.3669 29.4303 36.4845 29.4323C36.6021 29.4323 36.7177 29.4344 36.8312 29.4385C36.9446 29.4426 37.0509 29.4499 37.15 29.4602L37.1283 29.8037H36.3081C36.2565 29.8037 36.2173 29.8172 36.1904 29.844C36.1657 29.8687 36.1533 29.9079 36.1533 29.9616V31.0511C36.1533 31.1027 36.1657 31.1419 36.1904 31.1687C36.2173 31.1956 36.2565 31.209 36.3081 31.209H37.1283L37.15 31.5526C37.0509 31.5608 36.9446 31.567 36.8312 31.5711C36.7177 31.5753 36.6021 31.5773 36.4845 31.5773C36.3669 31.5794 36.2513 31.5804 36.1378 31.5804C36.0016 31.5804 35.8912 31.5412 35.8066 31.4628C35.7241 31.3844 35.6818 31.2812 35.6797 31.1533V29.8595C35.6818 29.7295 35.7241 29.6253 35.8066 29.5468C35.8912 29.4684 36.0016 29.4292 36.1378 29.4292ZM35.7354 30.2959H37.0138V30.6302L35.7354 30.6302V30.2959ZM38.3022 29.4014C38.4033 29.4014 38.489 29.4045 38.5591 29.4106C38.6313 29.4148 38.6974 29.422 38.7572 29.4323C38.8171 29.4426 38.879 29.456 38.9429 29.4726L38.9058 29.8223C38.8377 29.8182 38.7748 29.8151 38.717 29.813C38.6613 29.811 38.6004 29.8089 38.5344 29.8068C38.4704 29.8048 38.393 29.8037 38.3022 29.8037C38.197 29.8037 38.1144 29.8254 38.0546 29.8687C37.9968 29.91 37.9555 29.9812 37.9308 30.0823C37.906 30.1834 37.8936 30.3248 37.8936 30.5064C37.8936 30.6859 37.906 30.8272 37.9308 30.9304C37.9555 31.0315 37.9968 31.1027 38.0546 31.144C38.1144 31.1853 38.197 31.2059 38.3022 31.2059C38.4446 31.2059 38.5643 31.2038 38.6613 31.1997C38.7582 31.1956 38.8542 31.1883 38.9491 31.178L38.9894 31.5247C38.8903 31.5556 38.7892 31.5773 38.686 31.5897C38.5828 31.6041 38.4549 31.6114 38.3022 31.6114C38.0814 31.6114 37.905 31.5763 37.7729 31.5061C37.6409 31.4339 37.5449 31.3173 37.4851 31.1564C37.4273 30.9954 37.3984 30.7787 37.3984 30.5064C37.3984 30.234 37.4273 30.0173 37.4851 29.8564C37.5449 29.6954 37.6409 29.5799 37.7729 29.5097C37.905 29.4375 38.0814 29.4014 38.3022 29.4014Z" fill="#1B1C17" style="fill:#1B1C17;fill:color(display-p3 0.1059 0.1098 0.0902);fill-opacity:1;"/>
<g filter="url(#filter0_d_20318_67335)">
<path d="M29.732 42.3047L29.732 30.646H31.4805L29.732 42.3047Z" fill="#589AEB" style="fill:#589AEB;fill:color(display-p3 0.3451 0.6039 0.9216);fill-opacity:1;"/>
<path d="M29.725 42.3047L29.725 30.646H27.9766L29.725 42.3047Z" fill="#2371D2" style="fill:#2371D2;fill:color(display-p3 0.1373 0.4431 0.8235);fill-opacity:1;"/>
<path d="M29.725 18.9746L29.725 30.6333H27.9766L29.725 18.9746Z" fill="#589AEB" style="fill:#589AEB;fill:color(display-p3 0.3451 0.6039 0.9216);fill-opacity:1;"/>
<path d="M29.732 18.9746L29.732 30.6333H31.4805L29.732 18.9746Z" fill="#2371D2" style="fill:#2371D2;fill:color(display-p3 0.1373 0.4431 0.8235);fill-opacity:1;"/>
<ellipse cx="29.732" cy="30.7108" rx="1.74842" ry="1.8654" transform="rotate(180 29.732 30.7108)" fill="url(#paint0_radial_20318_67335)"/>
</g>
</g>
<defs>
<filter id="filter0_d_20318_67335" x="22.1472" y="13.1452" width="15.1626" height="34.9888" filterUnits="userSpaceOnUse" color-interpolation-filters="sRGB">
<feFlood flood-opacity="0" result="BackgroundImageFix"/>
<feColorMatrix in="SourceAlpha" type="matrix" values="0 0 0 0 0 0 0 0 0 0 0 0 0 0 0 0 0 0 127 0" result="hardAlpha"/>
<feOffset/>
<feGaussianBlur stdDeviation="2.91468"/>
<feComposite in2="hardAlpha" operator="out"/>
<feColorMatrix type="matrix" values="0 0 0 0 1 0 0 0 0 1 0 0 0 0 1 0 0 0 0.2 0"/>
<feBlend mode="normal" in2="BackgroundImageFix" result="effect1_dropShadow_20318_67335"/>
<feBlend mode="normal" in="SourceGraphic" in2="effect1_dropShadow_20318_67335" result="shape"/>
</filter>
<radialGradient id="paint0_radial_20318_67335" cx="0" cy="0" r="1" gradientUnits="userSpaceOnUse" gradientTransform="translate(29.7321 30.7108) rotate(90) scale(1.8654 1.74842)">
<stop stop-color="#589AEB" style="stop-color:#589AEB;stop-color:color(display-p3 0.3451 0.6039 0.9216);stop-opacity:1;"/>
<stop offset="1" stop-color="#055FCD" style="stop-color:#055FCD;stop-color:color(display-p3 0.0196 0.3725 0.8039);stop-opacity:1;"/>
</radialGradient>
<clipPath id="clip0_20318_67335">
<rect width="40" height="40" fill="white" style="fill:white;fill-opacity:1;" transform="translate(9.09375 10)"/>
</clipPath>
</defs>
</svg>
