<svg width="60" height="60" viewBox="0 0 60 60" fill="none" xmlns="http://www.w3.org/2000/svg">
<path d="M18.7313 52.496C15.6534 52.496 12.5799 52.5005 9.50199 52.496C8.07101 52.496 7.49052 51.929 7.50402 50.4981C7.52652 48.6263 7.42302 46.7365 7.65701 44.8916C8.02151 41.9759 10.6405 39.7171 13.5879 39.6586C17.0124 39.5911 20.4368 39.5911 23.8613 39.6541C27.2002 39.7171 29.9137 42.5114 29.9857 45.8726C30.0217 47.4519 29.9992 49.0313 29.9902 50.6061C29.9812 51.8795 29.3872 52.4825 28.1182 52.487C24.9908 52.5005 21.8588 52.496 18.7313 52.496Z" fill="#0668E1" style="fill:#0668E1;fill:color(display-p3 0.0235 0.4078 0.8824);fill-opacity:1;"/>
<path d="M25.1721 31.5967C25.1721 35.1334 22.2787 38.0311 18.7462 38.0311C15.2138 38.0311 12.3203 35.1334 12.3203 31.5967C12.3203 28.0465 15.1868 25.1758 18.7462 25.1758C22.2967 25.1803 25.1721 28.051 25.1721 31.5967Z" fill="#0668E1" style="fill:#0668E1;fill:color(display-p3 0.0235 0.4078 0.8824);fill-opacity:1;"/>
<path d="M44.4536 52.496C42.4196 52.496 40.3901 52.5005 38.3562 52.496C36.9837 52.4915 36.4077 51.9156 36.4167 50.5252C36.4257 49.2698 36.3537 47.9964 36.5382 46.768C36.8712 44.5452 38.7521 42.9299 40.9886 42.8759C43.2881 42.8174 45.5875 42.8174 47.887 42.8759C50.389 42.9389 52.3644 44.9547 52.4679 47.4655C52.5129 48.5589 52.4949 49.6568 52.4769 50.7547C52.4589 51.8616 51.8334 52.4645 50.713 52.5005C50.686 52.5005 50.659 52.5005 50.632 52.5005C48.571 52.496 46.5145 52.496 44.4536 52.496Z" fill="#0668E1" style="fill:#0668E1;fill:color(display-p3 0.0235 0.4078 0.8824);fill-opacity:1;"/>
<path d="M44.4672 31.6035C47.1221 31.6125 49.2551 33.7499 49.2641 36.3956C49.2731 39.0684 47.0906 41.2552 44.4222 41.2417C41.7582 41.2282 39.5983 39.0279 39.6253 36.3551C39.6567 33.7094 41.8122 31.5945 44.4672 31.6035Z" fill="#0668E1" style="fill:#0668E1;fill:color(display-p3 0.0235 0.4078 0.8824);fill-opacity:1;"/>
<path d="M34.9858 25.4997C34.9858 24.144 34.9858 23.0182 34.9858 21.7332C34.3727 21.7332 33.8505 21.7449 33.3284 21.7332C31.8592 21.6919 30.9485 20.9079 30.9303 19.5109C30.8878 16.2572 30.8878 13.0034 30.9303 9.75556C30.9485 8.30552 31.8653 7.50977 33.3952 7.50977C38.9139 7.49798 44.4326 7.49798 49.9513 7.50387C51.6087 7.50387 52.4829 8.37036 52.489 9.99134C52.5011 13.0801 52.5011 16.1688 52.489 19.2634C52.4829 20.8726 51.6026 21.7273 49.933 21.7332C46.9703 21.7449 44.0137 21.7155 41.0509 21.7567C40.5592 21.7626 39.9946 21.9513 39.5878 22.2224C38.0821 23.2304 36.6311 24.3149 34.9858 25.4997ZM40.0796 15.8092C39.5028 15.1726 39.1021 14.5714 38.5435 14.1823C38.2339 13.9642 37.5479 13.9348 37.2261 14.1234C36.6979 14.4417 36.7647 15.0311 37.2018 15.4732C37.9243 16.2041 38.665 16.9115 39.4117 17.6129C39.8671 18.0432 40.3892 18.0845 40.8445 17.6483C42.5019 16.0745 44.1654 14.5065 45.7439 12.8679C45.7986 12.8089 45.8289 12.7264 45.8411 12.6321C45.9139 12.0485 45.3857 11.5475 44.7786 11.5829C44.6451 11.5887 44.5176 11.6064 44.3901 11.6359C44.1715 11.6831 44.0015 11.9719 43.8133 12.1605C42.6355 13.3099 41.4516 14.4653 40.0796 15.8092Z" fill="#0668E1" style="fill:#0668E1;fill:color(display-p3 0.0235 0.4078 0.8824);fill-opacity:1;"/>
</svg>
