<svg width="32" height="32" viewBox="0 0 32 32" fill="none" xmlns="http://www.w3.org/2000/svg">
<rect width="32" height="32" rx="8" fill="#E6F0FC" style="fill:#E6F0FC;fill:color(display-p3 0.9020 0.9412 0.9882);fill-opacity:1;"/>
<g clip-path="url(#clip0_20392_84545)">
<path d="M20.5383 15.7383L20.5268 15.7685L20.5369 15.7409L20.5383 15.7383ZM19.3227 21.6053L18.9908 22.0157C19.4396 22.07 19.874 22.1336 20.2808 22.2106L18.9658 22.6001L20.721 23.0669L22.0292 22.6544C22.8327 22.9239 23.9454 23.2534 24.314 23.628H21.6908L21.9514 24.3903H24.6735C24.6654 24.8199 23.8974 25.1688 23.1639 25.4516L21.3037 25.0493L19.551 25.6774L21.423 26.1046C20.33 26.4022 18.495 26.5832 16.9758 26.6664L16.9119 25.7928H15.0865L15.0224 26.6664C13.5032 26.5832 11.6684 26.4024 10.5752 26.1048L12.4474 25.6774L10.6947 25.0493L8.83424 25.4516C8.11136 25.232 7.33304 24.8199 7.32488 24.3903H10.0472L10.3078 23.628H7.68464C8.05328 23.2534 9.16592 22.9239 9.96944 22.6544L11.2777 23.0669L13.0328 22.6001L11.7178 22.2106C12.1425 22.1322 12.5696 22.0676 12.9985 22.0169L12.6714 21.6058C9.12296 21.9747 6.17384 22.7602 5.40056 24.0008C4.1672 25.9779 8.71712 27.9668 15.848 27.9977C15.9541 28.003 16.0587 27.9992 16.1576 27.9977C23.2844 27.9651 27.8302 25.9769 26.5978 24.0008C25.8241 22.7597 22.8733 21.974 19.3227 21.6053Z" fill="#0668E1" style="fill:#0668E1;fill:color(display-p3 0.0235 0.4078 0.8824);fill-opacity:1;"/>
<path d="M15.9623 4C15.3 4.00915 14.668 4.27868 14.2029 4.75028C13.7378 5.22189 13.4771 5.85764 13.4771 6.52C13.4771 7.18835 13.7426 7.82932 14.2152 8.30191C14.6878 8.7745 15.3288 9.04 15.9971 9.04C16.6655 9.04 17.3065 8.7745 17.7791 8.30191C18.2516 7.82932 18.5171 7.18835 18.5171 6.52C18.5171 5.85165 18.2516 5.21068 17.7791 4.73809C17.3065 4.2655 16.6655 4 15.9971 4H15.9623ZM15.9487 9.66208C14.0685 9.66256 12.2056 10.4704 12.4015 12.0851L12.8815 15.5951C12.9657 16.2126 13.3831 17.2 14.0063 17.2H14.0507L14.5612 23.0874C14.5833 23.3526 14.7753 23.5674 15.0412 23.5674H16.9612C17.2271 23.5674 17.4191 23.3526 17.4412 23.0874L17.9517 17.2002H17.9963C18.6196 17.2002 19.0367 16.2126 19.1212 15.5951L19.6012 12.0851C19.727 10.469 17.8291 9.66184 15.9487 9.66208ZM-34.2229 18.8361L-34.2344 18.8663C-34.2305 18.8572 -34.2279 18.8481 -34.2241 18.8387C-34.2239 18.8378 -34.2234 18.837 -34.2226 18.8363L-34.2229 18.8361Z" fill="#0668E1" style="fill:#0668E1;fill:color(display-p3 0.0235 0.4078 0.8824);fill-opacity:1;"/>
</g>
<defs>
<clipPath id="clip0_20392_84545">
<rect width="24" height="24" fill="white" style="fill:white;fill-opacity:1;" transform="translate(4 4)"/>
</clipPath>
</defs>
</svg>
