<svg width="32" height="32" viewBox="0 0 32 32" fill="none" xmlns="http://www.w3.org/2000/svg">
<rect width="32" height="32" rx="8" fill="#E6F0FC" style="fill:#E6F0FC;fill:color(display-p3 0.9020 0.9412 0.9882);fill-opacity:1;"/>
<path d="M14.1231 6.00052H14.2794C14.3628 6.03387 14.4498 6.04012 14.5384 6.04012C15.5574 6.20632 16.3843 6.92895 16.4744 8.09912C16.4874 8.26792 16.5489 8.35493 16.6958 8.4211C17.4674 8.76861 18.177 9.21927 18.7882 9.8028C19.6775 10.6515 20.284 11.6617 20.4648 12.9017C20.6018 13.8421 20.5064 14.769 20.3366 15.6932C20.1298 16.8207 19.7869 17.9174 19.5801 19.0449C19.4624 19.6862 19.38 20.3317 19.4129 20.9845C19.4426 21.5717 19.5426 22.1479 19.7531 22.7007C19.7786 22.7679 19.8088 22.8325 19.8609 22.8846C19.8948 22.9315 19.949 22.9784 19.862 23.0258C19.7869 23.0561 19.7083 23.0587 19.6312 23.0477C19.2691 22.9946 18.9044 23.0165 18.5412 23.0159C16.2082 23.0139 13.8757 23.017 11.5426 23.0118C11.2764 23.0112 11.0138 23.092 10.7476 23.0347C10.7163 23.018 10.6538 22.9941 10.6913 22.9586C10.8533 22.8055 10.7908 22.6012 10.8122 22.4241C10.9221 21.517 11.2988 20.7511 11.9693 20.1301C12.124 19.9743 12.3001 19.843 12.47 19.705C13.5896 18.7552 14.4404 17.6001 15.076 16.2825C15.274 15.8725 15.4444 15.4505 15.5757 14.9982C15.4902 14.9909 15.4512 15.0488 15.4027 15.0821C15.0995 15.291 14.7754 15.4531 14.4138 15.5328C13.9705 15.6302 13.5792 15.4666 13.1978 15.2764C12.557 14.9571 12.5231 14.955 11.9511 15.3765C11.7573 15.5198 11.5624 15.6609 11.3587 15.7896C10.9731 16.0329 10.5886 16.0335 10.2005 15.7943C9.95511 15.6432 9.72691 15.4755 9.5529 15.2395C9.09129 14.6132 9.08816 13.9833 9.53414 13.344C9.75713 13.0242 10.0317 12.7579 10.3344 12.5224C10.8221 12.1426 11.1842 11.6742 11.453 11.1178C11.7593 10.4837 12.1266 9.88251 12.6002 9.3563C12.9561 8.96086 13.3708 8.63627 13.8611 8.42162C14.0226 8.35076 14.0778 8.25229 14.0752 8.07724C14.0653 7.47183 14.0705 6.86643 14.0721 6.26102C14.0721 6.17193 14.0523 6.07659 14.121 6L14.1231 6.00052Z" fill="#0668E1" style="fill:#0668E1;fill:color(display-p3 0.0235 0.4078 0.8824);fill-opacity:1;"/>
<path d="M20.4151 21.9411C20.2426 22.2803 20.0379 22.6002 19.8232 22.9143C19.7769 22.8956 19.7555 22.856 19.7388 22.8127C19.5632 22.3433 19.4419 21.8624 19.3924 21.3612C19.3647 21.0825 19.3543 20.8043 19.3595 20.5255C19.3736 19.7638 19.5169 19.0198 19.6852 18.2805C19.8951 17.3589 20.153 16.4477 20.3177 15.5156C20.3922 15.0951 20.4281 14.6695 20.462 14.2428C20.5136 13.5947 20.4542 12.9606 20.2932 12.337C20.0921 11.556 19.6914 10.8792 19.1626 10.2722C18.4436 9.44799 17.5532 8.86812 16.569 8.41797C16.4773 8.37629 16.4299 8.33722 16.4263 8.22312C16.3903 7.1014 15.7313 6.40638 14.7252 6.11931C14.657 6.10003 14.5861 6.08961 14.5163 6.07502C14.4918 6.05575 14.4522 6.04481 14.4762 6H14.9451C14.9883 6.03751 15.0399 6.01303 15.0873 6.02032C15.1191 6.01771 15.1535 6.02866 15.1795 6H15.3358C15.552 6.09118 15.7886 6.06252 16.0116 6.11566C16.1371 6.14536 16.2643 6.16933 16.3903 6.1959C16.6597 6.28447 16.7853 6.52361 16.9364 6.73045C17.0682 6.91071 17.1526 7.11911 17.1802 7.34158C17.2036 7.52758 17.2943 7.64324 17.4568 7.7339C18.2691 8.1856 19.012 8.7337 19.6534 9.40736C20.5485 10.3478 21.1804 11.4283 21.3446 12.7428C21.4248 13.3842 21.4128 14.0255 21.3498 14.6684C21.2247 15.935 20.9059 17.1646 20.6501 18.4066C20.487 19.197 20.3573 19.9926 20.3515 20.8027C20.3494 21.0893 20.3901 21.3732 20.4349 21.6556C20.4505 21.7541 20.4562 21.8489 20.4161 21.9422L20.4151 21.9411Z" fill="#E6F0FC" style="fill:#E6F0FC;fill:color(display-p3 0.9020 0.9412 0.9882);fill-opacity:1;"/>
<path d="M9.40027 26.0004C9.3961 25.9379 9.30753 25.9196 9.32004 25.8483C9.28513 25.7284 9.319 25.605 9.3018 25.4851C9.27679 25.3116 9.34661 25.2309 9.51958 25.2345C9.69933 25.2022 9.88064 25.1934 10.063 25.1934C13.5667 25.1944 17.0705 25.1939 20.5742 25.1934C20.7435 25.1934 20.9123 25.1949 21.0785 25.2309C21.2489 25.2319 21.3198 25.3116 21.2953 25.4851C21.277 25.6175 21.3119 25.754 21.277 25.8868C21.25 25.9243 21.2234 25.9618 21.1963 25.9994H9.40027V26.0004Z" fill="#0668E1" style="fill:#0668E1;fill:color(display-p3 0.0235 0.4078 0.8824);fill-opacity:1;"/>
<path d="M14.4766 6C14.4902 6.02501 14.5032 6.05002 14.5167 6.07502C14.4292 6.07867 14.35 6.05627 14.2812 6C14.3464 6 14.4115 6 14.4766 6Z" fill="#0668E1" style="fill:#0668E1;fill:color(display-p3 0.0235 0.4078 0.8824);fill-opacity:1;"/>
<path d="M15.1057 6.03439C15.0499 6.03595 14.99 6.05731 14.9473 6H15.1036C15.1155 6.00677 15.1202 6.01407 15.1166 6.02188C15.1129 6.03022 15.1093 6.03387 15.1057 6.03387V6.03439Z" fill="#0668E1" style="fill:#0668E1;fill:color(display-p3 0.0235 0.4078 0.8824);fill-opacity:1;"/>
<path d="M15.1036 6.03439C15.1021 6.02292 15.1016 6.01146 15.1016 6H15.1797C15.1672 6.04012 15.1354 6.03699 15.1036 6.03439Z" fill="#0668E1" style="fill:#0668E1;fill:color(display-p3 0.0235 0.4078 0.8824);fill-opacity:1;"/>
<path d="M10.188 23.3435C10.2933 23.1445 10.4475 23.0132 10.6783 22.9866C10.9258 23.022 11.1685 22.9522 11.4145 22.9522C14.0289 22.9522 16.6432 22.9533 19.2576 22.9512C19.478 22.9512 19.6937 23.0262 19.9157 22.9845C20.148 23.0111 20.3121 23.1314 20.4101 23.3424C20.3075 23.5488 20.1246 23.6342 19.911 23.6707C19.8406 23.6827 19.7682 23.678 19.6968 23.678C16.7724 23.678 13.8486 23.678 10.9242 23.679C10.7054 23.679 10.4949 23.6623 10.3204 23.5092C10.2662 23.4618 10.2167 23.4112 10.1875 23.3435H10.188Z" fill="#0668E1" style="fill:#0668E1;fill:color(display-p3 0.0235 0.4078 0.8824);fill-opacity:1;"/>
<path d="M20.4145 21.9405C20.3639 21.4977 20.2727 21.0574 20.2962 20.6088C20.3269 20.0212 20.3947 19.4376 20.5056 18.8593C20.7344 17.6667 21.047 16.4898 21.2225 15.2873C21.3142 14.66 21.3689 14.0265 21.3491 13.3898C21.3075 12.0503 20.8333 10.877 19.9825 9.85014C19.5037 9.27235 18.9426 8.78365 18.3315 8.3507C18.0033 8.11781 17.6693 7.8943 17.3093 7.71351C17.191 7.65412 17.153 7.54888 17.141 7.4452C17.0811 6.91065 16.7737 6.53084 16.3887 6.19531C17.1118 6.31462 17.799 6.55116 18.4487 6.88304C20.7661 8.06727 22.1265 9.97987 22.6318 12.5057C22.9783 14.2401 22.7381 15.9469 22.2682 17.6308C22.1004 18.2315 21.8837 18.815 21.6675 19.3991C21.6555 19.6247 21.5586 19.8154 21.4231 19.9899C21.1303 20.5833 20.8568 21.1861 20.5265 21.7603C20.491 21.8217 20.4514 21.8806 20.4139 21.9405H20.4145Z" fill="#0668E1" style="fill:#0668E1;fill:color(display-p3 0.0235 0.4078 0.8824);fill-opacity:1;"/>
<path d="M10.1914 23.3443C10.258 23.3458 10.294 23.3964 10.3336 23.4381C10.4576 23.5704 10.6134 23.6178 10.7895 23.6178C13.8055 23.6178 16.8216 23.6157 19.8377 23.6209C20.0852 23.6209 20.2326 23.4584 20.4134 23.3438C20.6182 23.7454 20.4629 24.1226 19.968 24.3597C20.1727 24.3597 20.3452 24.3555 20.5171 24.3607C20.9016 24.3722 21.21 24.6379 21.2804 25.011C21.2991 25.1752 21.2328 25.2701 21.0813 25.2954C20.8771 25.248 20.6692 25.2579 20.4619 25.2579C17.2994 25.2579 14.1374 25.2563 10.9749 25.26C10.4888 25.2605 10.0007 25.2235 9.51613 25.2954C9.44788 25.2418 9.24782 25.3449 9.31711 25.1277C9.33691 24.7067 9.65576 24.3805 10.0746 24.3613C10.2497 24.3535 10.4253 24.3597 10.6613 24.3597C10.4175 24.2586 10.256 24.143 10.1705 23.9434C10.083 23.7392 10.0866 23.5402 10.1914 23.3438V23.3443Z" fill="#0668E1" style="fill:#0668E1;fill:color(display-p3 0.0235 0.4078 0.8824);fill-opacity:1;"/>
<path d="M21.0781 25.2962C21.2469 25.2733 21.3022 25.1706 21.2771 25.0117C21.3272 25.304 21.3418 25.5963 21.2745 25.888C21.2745 25.7536 21.2626 25.6182 21.2761 25.4848C21.2923 25.3248 21.2219 25.278 21.0786 25.2957L21.0781 25.2962Z" fill="#0668E1" style="fill:#0668E1;fill:color(display-p3 0.0235 0.4078 0.8824);fill-opacity:1;"/>
<path d="M9.31309 25.1289C9.28704 25.2946 9.45689 25.2274 9.51212 25.2967C9.36467 25.2753 9.30476 25.3326 9.31987 25.4863C9.33133 25.6056 9.3183 25.7275 9.3157 25.8484C9.27037 25.6087 9.28079 25.3686 9.31257 25.1289H9.31309Z" fill="#0668E1" style="fill:#0668E1;fill:color(display-p3 0.0235 0.4078 0.8824);fill-opacity:1;"/>
</svg>
