<svg width="60" height="60" viewBox="0 0 60 60" fill="none" xmlns="http://www.w3.org/2000/svg">
<rect width="60" height="60" rx="12" fill="#F2F8FF" style="fill:#F2F8FF;fill:color(display-p3 0.9490 0.9725 1.0000);fill-opacity:1;"/>
<g clip-path="url(#clip0_20392_84605)">
<path d="M29.7429 48.75C28.048 48.75 26.5958 48.2132 25.4192 47.1603C24.1933 46.0575 23.5433 44.5801 23.5433 42.8822C23.5433 41.1842 24.1933 39.7069 25.4192 38.6041C25.6002 38.4418 25.7895 38.2919 25.9828 38.1505H24.4524V36.0697C24.4524 33.606 24.7363 31.6709 25.3246 30.1477C25.9376 28.5622 26.9331 27.1764 28.2907 26.0278C29.2574 25.2079 29.9856 24.4713 30.4546 23.8346C30.7549 23.4268 30.8989 23.0148 30.8989 22.5362C30.8989 21.2336 30.6397 21.2336 30.0761 21.2336C29.7635 21.2336 29.6359 21.3169 29.5002 21.4792C29.2657 21.7622 29.134 22.2282 29.1176 22.8608L29.0641 24.8875H17.5L17.5206 22.7859C17.5576 19.2069 18.7259 16.3438 20.9927 14.2796C23.2018 12.2696 26.2584 11.25 30.0761 11.25C33.8485 11.25 36.8681 12.1905 39.0526 14.0466C41.3399 15.99 42.5 18.7367 42.5 22.2033C42.5 23.7555 42.1832 25.1996 41.562 26.4939C40.9738 27.7215 40.044 28.9658 38.7975 30.1894L36.2181 32.6197C35.7409 33.0816 35.4036 33.5561 35.2308 34.0055C35.095 34.3593 34.9305 35.0126 34.9017 36.1279L34.8482 38.1546H33.503C33.6963 38.2919 33.8856 38.4418 34.0666 38.6041C35.2925 39.7069 35.9425 41.1884 35.9425 42.8822C35.9425 44.5801 35.2925 46.0575 34.0666 47.1603C32.89 48.2132 31.4378 48.75 29.7429 48.75Z" fill="#C8E0FF" style="fill:#C8E0FF;fill:color(display-p3 0.7833 0.8803 1.0000);fill-opacity:1;"/>
<path d="M26.5061 36.069C26.5061 33.8883 26.7488 32.1654 27.2384 30.9044C27.7238 29.6435 28.5137 28.549 29.608 27.6209C30.7022 26.6929 31.5291 25.8481 32.101 25.0782C32.6687 24.3083 32.9525 23.4635 32.9525 22.5355C32.9525 20.2799 31.994 19.1521 30.0728 19.1521C29.1883 19.1521 28.4725 19.4809 27.9254 20.1384C27.3782 20.796 27.0903 21.6824 27.0615 22.806H19.5742C19.603 19.818 20.5328 17.4917 22.3634 15.827C24.1941 14.1624 26.7612 13.3301 30.0687 13.3301C33.3598 13.3301 35.9104 14.1 37.7205 15.6356C39.5306 17.1754 40.4316 19.3644 40.4316 22.1984C40.4316 23.4386 40.1888 24.5663 39.6993 25.5818C39.2138 26.5972 38.4281 27.6376 37.3503 28.6946L34.8038 31.0917C34.0797 31.795 33.5778 32.515 33.2981 33.2557C33.0184 33.9965 32.862 34.9328 32.8332 36.069H26.5061ZM25.5969 42.8815C25.5969 41.7745 25.9919 40.8673 26.7817 40.1598C27.5716 39.4523 28.5589 39.0944 29.7396 39.0944C30.9203 39.0944 31.9076 39.4482 32.6975 40.1598C33.4873 40.8714 33.8823 41.7786 33.8823 42.8815C33.8823 43.9884 33.4873 44.8957 32.6975 45.6031C31.9076 46.3148 30.9203 46.6685 29.7396 46.6685C28.5589 46.6685 27.5716 46.3148 26.7817 45.6031C25.9919 44.8915 25.5969 43.9843 25.5969 42.8815Z" fill="#0072FF" style="fill:#0072FF;fill:color(display-p3 0.0000 0.4475 1.0000);fill-opacity:1;"/>
</g>
<defs>
<clipPath id="clip0_20392_84605">
<rect width="40" height="40" fill="white" style="fill:white;fill-opacity:1;" transform="translate(10 10)"/>
</clipPath>
</defs>
</svg>
