<svg width="66" height="66" viewBox="0 0 66 66" fill="none" xmlns="http://www.w3.org/2000/svg">
<rect x="0.5" y="0.5" width="65" height="65" rx="13.5" fill="#F2F8FF" style="fill:#F2F8FF;fill:color(display-p3 0.9490 0.9725 1.0000);fill-opacity:1;"/>
<rect x="0.5" y="0.5" width="65" height="65" rx="13.5" stroke="#0668E1" style="stroke:#0668E1;stroke:color(display-p3 0.0235 0.4078 0.8824);stroke-opacity:1;"/>
<path d="M32.9727 22C34.3527 22 35.6047 22.56 36.5087 23.464C36.6964 23.6516 36.8018 23.9061 36.8018 24.1715C36.8018 24.4369 36.6964 24.6914 36.5087 24.879C36.3211 25.0667 36.0666 25.1721 35.8012 25.1721C35.5358 25.1721 35.2814 25.0667 35.0937 24.879C34.5312 24.3164 33.7683 24.0002 32.9727 24C32.1437 24 31.3957 24.335 30.8517 24.879C30.6641 25.0667 30.4096 25.1721 30.1442 25.1721C29.8788 25.1721 29.6244 25.0667 29.4367 24.879C29.2491 24.6914 29.1437 24.4369 29.1437 24.1715C29.1437 23.9061 29.2491 23.6516 29.4367 23.464C29.9011 22.9997 30.4524 22.6315 31.0591 22.3803C31.6658 22.1291 32.3161 21.9999 32.9727 22ZM32.9727 18C34.1548 17.9989 35.3254 18.2312 36.4175 18.6835C37.5096 19.1359 38.5016 19.7994 39.3367 20.636C39.5189 20.8246 39.6197 21.0772 39.6174 21.3394C39.6151 21.6016 39.5099 21.8524 39.3245 22.0378C39.1391 22.2232 38.8883 22.3284 38.6261 22.3307C38.3639 22.333 38.1113 22.2322 37.9227 22.05C37.2733 21.3991 36.5017 20.883 35.6522 20.5312C34.8028 20.1794 33.8922 19.9989 32.9727 20C32.0533 19.9989 31.1427 20.1794 30.2932 20.5312C29.4437 20.883 28.6721 21.3991 28.0227 22.05C27.8341 22.2322 27.5815 22.333 27.3193 22.3307C27.0571 22.3284 26.8063 22.2232 26.6209 22.0378C26.4355 21.8524 26.3303 21.6016 26.328 21.3394C26.3258 21.0772 26.4266 20.8246 26.6087 20.636C27.4438 19.7994 28.4358 19.1359 29.5279 18.6835C30.62 18.2312 31.7906 17.9989 32.9727 18ZM32.9727 14C36.5627 14 39.8127 15.456 42.1647 17.808C42.3469 17.9966 42.4477 18.2492 42.4454 18.5114C42.4431 18.7736 42.3379 19.0244 42.1525 19.2098C41.9671 19.3952 41.7163 19.5004 41.4541 19.5027C41.1919 19.505 40.9393 19.4042 40.7507 19.222C39.7306 18.1988 38.5183 17.3873 37.1834 16.8344C35.8486 16.2814 34.4176 15.9979 32.9727 16C31.5279 15.9979 30.0969 16.2814 28.762 16.8344C27.4272 17.3873 26.2148 18.1988 25.1947 19.222C25.0061 19.4042 24.7535 19.505 24.4913 19.5027C24.2291 19.5004 23.9783 19.3952 23.7929 19.2098C23.6075 19.0244 23.5023 18.7736 23.5 18.5114C23.4978 18.2492 23.5986 17.9966 23.7807 17.808C24.9865 16.5991 26.4193 15.6403 27.9967 14.9868C29.5742 14.3333 31.2652 13.9979 32.9727 14Z" fill="#0668E1" style="fill:#0668E1;fill:color(display-p3 0.0235 0.4078 0.8824);fill-opacity:1;"/>
<g clip-path="url(#clip0_20230_68991)">
<path d="M37.4232 35.582C37.4232 35.582 38.5272 37.9101 37.516 40.426L36.0039 40.1725L36.1616 36.5114L37.4232 35.582Z" fill="#071A22" style="fill:#071A22;fill:color(display-p3 0.0275 0.1020 0.1333);fill-opacity:1;"/>
<path d="M21.7742 78.2008H39.9473C39.9009 76.4923 39.8917 74.9715 39.9288 74.2017C40.1236 70.7565 40.773 67.6493 41.2925 65.6216C41.2925 65.6122 41.2925 65.6122 41.2925 65.6122L41.3017 65.5934C41.4409 65.0677 41.5708 64.6077 41.6728 64.2416L44.8176 52.8264C42.7211 50.3857 35.476 48.5833 35.476 48.5833L30.7077 48.2266C30.7077 48.2266 21.4959 51.362 19.3438 52.1693C20.0859 57.2855 21.1249 63.3967 21.1249 63.3967C21.329 64.4951 22.5999 68.6443 21.7742 78.2008Z" fill="white" style="fill:white;fill-opacity:1;"/>
<path d="M33.1106 31.7438C33.1106 31.7438 37.517 32.2414 37.1923 39.6575C37.1089 41.6758 37.146 43.0558 36.4966 44.201C35.17 46.5385 32.387 47.0173 31.7933 46.9516C31.2181 46.8858 28.7134 46.2381 28.0919 44.6047C27.2755 42.455 26.7746 41.1876 26.9137 37.5641C26.923 37.5735 27.4054 31.0304 33.1106 31.7438Z" fill="#FFA98F" style="fill:#FFA98F;fill:color(display-p3 1.0000 0.6627 0.5608);fill-opacity:1;"/>
<path d="M35.1407 44.81C35.1407 44.81 34.983 47.8421 35.2613 48.5086C35.5489 49.1657 31.5228 51.2592 29.0273 48.8747C29.0273 48.8747 29.5376 45.2324 29.3799 44.059C29.2222 42.8949 35.1407 44.81 35.1407 44.81Z" fill="#FFA98F" style="fill:#FFA98F;fill:color(display-p3 1.0000 0.6627 0.5608);fill-opacity:1;"/>
<path d="M28.5547 48.9394C28.5547 48.9394 29.807 51.1361 32.1726 51.3426C33.6754 51.474 34.9742 49.5496 35.5864 48.6014C35.5864 48.6108 32.219 47.1464 28.5547 48.9394Z" fill="#FFA98F" style="fill:#FFA98F;fill:color(display-p3 1.0000 0.6627 0.5608);fill-opacity:1;"/>
<path d="M32.1772 50.5273L33.5408 52.1138C33.5408 52.1138 31.9638 52.8179 30.9062 52.1326L32.1772 50.5273Z" fill="#05387D" style="fill:#05387D;fill:color(display-p3 0.0196 0.2196 0.4902);fill-opacity:1;"/>
<path d="M36.2355 78.2023H42.154C41.4676 75.7991 40.9481 73.6963 40.9759 72.8702C41.0594 70.4857 46.0781 52.4993 46.0781 52.4993C46.0781 52.4993 43.2858 50.6594 35.5861 48.6035C35.5861 48.6035 34.2224 58.9297 34.408 67.8385C34.4636 70.7861 35.2336 74.5224 36.2355 78.2023Z" fill="#0745B4" style="fill:#0745B4;fill:color(display-p3 0.0275 0.2706 0.7059);fill-opacity:1;"/>
<path d="M20.9299 78.2044H27.6463C27.8411 74.4963 28.0081 70.7601 28.0637 67.8406C28.2493 58.9319 28.24 49.0469 28.24 49.0469C19.6776 51.3562 17.2656 52.9708 17.2656 52.9708C17.2656 52.9708 21.4216 70.4973 21.5051 72.8817C21.5329 73.6327 21.2824 75.7167 20.9299 78.2044Z" fill="#0745B4" style="fill:#0745B4;fill:color(display-p3 0.0275 0.2706 0.7059);fill-opacity:1;"/>
<path d="M32.9521 78.2024C32.8129 70.805 32.581 55.7475 32.8037 51.955L31.6533 51.7578C31.6533 51.7578 30.0485 57.2964 29.9093 68.2892C29.8537 72.8046 29.8722 75.9963 29.9186 78.193H32.9521V78.2024Z" fill="#05387D" style="fill:#05387D;fill:color(display-p3 0.0196 0.2196 0.4902);fill-opacity:1;"/>
<path d="M45.9739 72.4015C45.9832 72.9741 44.8514 75.4524 43.5063 78.2029H50.2597C51.5214 76.025 52.4583 74.3071 52.4954 73.9692C52.5975 73.021 48.0519 53.7204 46.0759 52.5L42.4766 63.1642C42.7085 63.0985 45.9553 71.3501 45.9739 72.4015Z" fill="#0745B4" style="fill:#0745B4;fill:color(display-p3 0.0275 0.2706 0.7059);fill-opacity:1;"/>
<path d="M12.5 78.2023H18.5855C18.7061 76.9913 18.7803 76.1277 18.7896 75.8554C18.8082 74.804 20.58 63.6611 20.8119 63.7362L17.2775 52.9688C15.3016 54.1985 12.4165 74.3441 12.5186 75.3016C12.5371 75.5269 12.5278 76.6346 12.5 78.2023Z" fill="#0745B4" style="fill:#0745B4;fill:color(display-p3 0.0275 0.2706 0.7059);fill-opacity:1;"/>
<path d="M27.514 75.413L26.1225 64.73L27.31 63.2937L25.7422 63.1717L27.6439 50.0762L27.7923 50.1043L25.9184 63.0215L27.6254 63.1529L26.2895 64.777L27.6717 75.3942L27.514 75.413Z" fill="#0A1726" style="fill:#0A1726;fill:color(display-p3 0.0392 0.0902 0.1490);fill-opacity:1;"/>
<path d="M35.7387 74.6442L35.581 74.6255L36.5829 64.7968L35.2656 64.0645L36.5273 63.1258L35.7758 49.3356L35.9335 49.3262L36.685 63.2009L35.5532 64.0458L36.7499 64.7123V64.7592L35.7387 74.6442Z" fill="#0A1726" style="fill:#0A1726;fill:color(display-p3 0.0392 0.0902 0.1490);fill-opacity:1;"/>
<path d="M29.1346 48.209C29.1346 48.209 30.3499 49.7485 32.1774 50.5277L30.0809 53.2407L27.3906 49.2416L29.1346 48.209Z" fill="#6AA8E5" style="fill:#6AA8E5;fill:color(display-p3 0.4157 0.6588 0.8980);fill-opacity:1;"/>
<path d="M35.1497 47.918C35.1497 47.918 34.1942 49.1759 32.1719 50.5277L34.1571 52.837L36.8937 48.9037L35.1497 47.918Z" fill="#6AA8E5" style="fill:#6AA8E5;fill:color(display-p3 0.4157 0.6588 0.8980);fill-opacity:1;"/>
<path d="M28.1504 35.8231C28.2896 35.7668 28.4287 35.7011 28.5679 35.6635C28.9946 35.5509 29.4306 35.4288 29.8573 35.5227C30.2191 35.5978 30.5438 35.8325 30.9149 35.7949C31.3602 35.7574 31.7034 35.3256 31.8611 34.8937C31.991 34.5276 32.1301 34.0583 32.5012 34.0207C33.0114 33.9738 33.1598 34.7905 33.633 34.9407C33.7907 34.9876 33.9669 34.9595 34.1339 34.9407C34.505 34.9125 34.9039 34.9688 35.2285 35.166C35.4883 35.3256 35.6646 35.6072 35.7388 35.9076C35.8408 36.3488 36.0449 36.5553 36.4624 36.7994C37.1674 37.2218 37.8817 36.8651 38.3826 36.2455C38.4105 36.208 38.4383 36.1704 38.4661 36.1329C38.93 35.457 38.8743 34.4431 38.2899 33.8893C38.0208 33.6358 37.9559 33.5983 37.6869 33.3448C37.1396 32.8097 37.0746 31.9273 36.6201 31.2983C35.7852 30.1343 34.1803 30.66 32.9836 30.4441C32.4084 30.3408 31.8425 30.1906 31.2674 30.0967C30.3768 29.9465 29.4306 29.9465 28.5679 30.2751C27.1114 30.8196 26.6198 31.8804 26.193 33.4011C25.7663 34.9219 23.6883 36.1986 26.8331 40.5732L27.6866 40.4793C27.6959 40.4887 26.8424 36.3019 28.1504 35.8231Z" fill="#071A22" style="fill:#071A22;fill:color(display-p3 0.0275 0.1020 0.1333);fill-opacity:1;"/>
<path d="M26.8651 39.0358C26.8651 39.0358 25.3994 38.895 25.6499 40.6974C25.9004 42.4998 27.6537 42.021 27.6537 42.021L26.8651 39.0358Z" fill="#FFA98F" style="fill:#FFA98F;fill:color(display-p3 1.0000 0.6627 0.5608);fill-opacity:1;"/>
<path d="M37.3041 38.278C37.3041 38.278 38.7699 38.1372 38.5194 39.9395C38.2689 41.7419 36.5156 41.2632 36.5156 41.2632L37.3041 38.278Z" fill="#FFA98F" style="fill:#FFA98F;fill:color(display-p3 1.0000 0.6627 0.5608);fill-opacity:1;"/>
<path d="M36.8433 36.7464C36.8433 36.7464 37.1772 38.8023 36.7969 39.8537L37.3164 39.9475C37.3164 39.9475 37.5854 38.5113 37.6132 38.0231C37.6318 37.6476 37.4555 36.5117 37.4555 36.5117L36.8433 36.7464Z" fill="#071A22" style="fill:#071A22;fill:color(display-p3 0.0275 0.1020 0.1333);fill-opacity:1;"/>
<path d="M28.9292 36.8408C29.7177 36.6342 30.5619 36.6061 31.3504 36.7657L31.3875 36.5685C30.5712 36.4089 29.7084 36.4371 28.8828 36.653L28.9292 36.8408Z" fill="#2C2C2C" style="fill:#2C2C2C;fill:color(display-p3 0.1725 0.1725 0.1725);fill-opacity:1;"/>
<path d="M33.5381 37.047C34.3544 36.9438 35.1801 37.0189 35.95 37.2723L36.015 37.0846C35.2264 36.8217 34.3637 36.7466 33.5195 36.8593L33.5381 37.047Z" fill="#2C2C2C" style="fill:#2C2C2C;fill:color(display-p3 0.1725 0.1725 0.1725);fill-opacity:1;"/>
<path d="M30.8828 43.0172L33.9905 43.0078C33.9905 43.0078 33.972 44.369 32.3671 44.3127C31.9218 44.2939 30.9941 43.9184 30.8828 43.0172Z" fill="#E5F4F6" style="fill:#E5F4F6;fill:color(display-p3 0.8980 0.9569 0.9647);fill-opacity:1;"/>
<path d="M32.3105 41.819C32.3012 41.819 32.3012 41.819 32.2919 41.819C32.1621 41.819 32.0322 41.8189 31.9301 41.7345C31.7632 41.5937 31.7724 41.3402 31.791 41.1618C31.8003 41.0586 31.8188 40.9084 31.8374 40.73C31.9116 40.0729 32.0229 39.0872 32.1157 38.7305L32.2641 38.768C32.1806 39.1154 32.0693 40.101 31.9951 40.7488C31.9765 40.9271 31.958 41.0773 31.9487 41.1806C31.9301 41.3214 31.9209 41.5279 32.0322 41.6218C32.0971 41.6688 32.1806 41.6781 32.3012 41.6781C32.6537 41.6688 32.997 41.603 33.3309 41.4904L33.3773 41.6312C33.0155 41.7345 32.663 41.8002 32.3105 41.819Z" fill="#2C2C2C" style="fill:#2C2C2C;fill:color(display-p3 0.1725 0.1725 0.1725);fill-opacity:1;"/>
<path d="M30.4985 39.3373C30.5171 39.6095 30.3594 39.8442 30.1645 39.863C29.9605 39.8817 29.7842 39.6752 29.7749 39.403C29.7564 39.1307 29.9141 38.896 30.1089 38.8773C30.3037 38.8679 30.48 39.065 30.4985 39.3373Z" fill="#2C2C2C" style="fill:#2C2C2C;fill:color(display-p3 0.1725 0.1725 0.1725);fill-opacity:1;"/>
<path d="M34.9204 39.3373C34.9389 39.6095 34.7812 39.8442 34.5864 39.863C34.3823 39.8817 34.2061 39.6752 34.1968 39.403C34.1782 39.1307 34.3359 38.896 34.5308 38.8773C34.7348 38.8679 34.9111 39.065 34.9204 39.3373Z" fill="#2C2C2C" style="fill:#2C2C2C;fill:color(display-p3 0.1725 0.1725 0.1725);fill-opacity:1;"/>
<path d="M30.1483 41.4505C29.332 41.4505 28.6641 40.6432 28.6641 39.6481C28.6641 38.653 29.332 37.8457 30.1483 37.8457C30.9647 37.8457 31.6326 38.653 31.6326 39.6481C31.6326 40.6432 30.974 41.4505 30.1483 41.4505ZM30.1483 38.0147C29.4155 38.0147 28.8218 38.7469 28.8218 39.6575C28.8218 40.5681 29.4155 41.3003 30.1483 41.3003C30.8812 41.3003 31.4749 40.5681 31.4749 39.6575C31.4749 38.7469 30.8905 38.0147 30.1483 38.0147Z" fill="#183862" style="fill:#183862;fill:color(display-p3 0.0941 0.2196 0.3843);fill-opacity:1;"/>
<path d="M34.5858 41.4134C33.7695 41.4134 33.1016 40.6061 33.1016 39.611C33.1016 38.6159 33.7695 37.8086 34.5858 37.8086C35.4022 37.8086 36.0701 38.6159 36.0701 39.611C36.0701 40.6061 35.4115 41.4134 34.5858 41.4134ZM34.5858 37.9682C33.853 37.9682 33.2593 38.7004 33.2593 39.611C33.2593 40.5216 33.853 41.2538 34.5858 41.2538C35.3187 41.2538 35.9124 40.5216 35.9124 39.611C35.9124 38.7004 35.328 37.9682 34.5858 37.9682Z" fill="#183862" style="fill:#183862;fill:color(display-p3 0.0941 0.2196 0.3843);fill-opacity:1;"/>
<path d="M31.5898 39.3752V39.2063C31.6548 39.2063 33.1391 39.1875 33.1391 39.1875V39.3471C33.1391 39.3471 31.6455 39.3752 31.5898 39.3752Z" fill="#183862" style="fill:#183862;fill:color(display-p3 0.0941 0.2196 0.3843);fill-opacity:1;"/>
<path d="M27.343 38.8962L27.2969 39.0488L28.6808 39.4769L28.7269 39.3243L27.343 38.8962Z" fill="#183862" style="fill:#183862;fill:color(display-p3 0.0941 0.2196 0.3843);fill-opacity:1;"/>
<path d="M37.0475 38.6958L35.9219 39.293L35.9951 39.4343L37.1207 38.8372L37.0475 38.6958Z" fill="#183862" style="fill:#183862;fill:color(display-p3 0.0941 0.2196 0.3843);fill-opacity:1;"/>
<path d="M32.3334 46.9978C31.1274 46.9978 30.3296 46.4064 30.3203 46.397L30.4131 46.2656C30.4316 46.275 32.1014 47.5142 34.2536 46.3032L34.3279 46.444C33.6043 46.857 32.9178 46.9978 32.3334 46.9978Z" fill="#2C2C2C" style="fill:#2C2C2C;fill:color(display-p3 0.1725 0.1725 0.1725);fill-opacity:1;"/>
</g>
<defs>
<clipPath id="clip0_20230_68991">
<rect width="40" height="40" fill="white" style="fill:white;fill-opacity:1;" transform="translate(12.5 26)"/>
</clipPath>
</defs>
</svg>
