<svg width="518" height="198" viewBox="0 0 518 198" fill="none" xmlns="http://www.w3.org/2000/svg">
<rect x="0.5" y="0.5" width="517" height="197" rx="15.5" fill="#F9FCFF" style="fill:#F9FCFF;fill:color(display-p3 0.9779 0.9877 1.0000);fill-opacity:1;"/>
<rect x="0.5" y="0.5" width="517" height="197" rx="15.5" stroke="#0668E1" style="stroke:#0668E1;stroke:color(display-p3 0.0235 0.4078 0.8824);stroke-opacity:1;"/>
<path d="M219.262 33.3887H298.297C303.082 33.3887 306.961 37.268 306.961 42.0527V161.562C306.961 166.346 303.082 170.225 298.298 170.225H219.262C214.477 170.225 210.598 166.346 210.598 161.562V42.0527C210.598 37.268 214.477 33.3887 219.262 33.3887Z" fill="white" stroke="#0668E1" style="fill:white;fill-opacity:1;stroke:#0668E1;stroke:color(display-p3 0.0235 0.4078 0.8824);stroke-opacity:1;"/>
<path d="M301.997 100.024H217.984V97.2681C217.984 94.6637 220.095 92.5527 222.7 92.5527H297.281C299.885 92.5527 301.996 94.6642 301.996 97.2681V100.024H301.997Z" fill="#8FC1FF" style="fill:#8FC1FF;fill:color(display-p3 0.5625 0.7564 1.0000);fill-opacity:1;"/>
<path d="M296.991 125.553H222.989C220.225 125.553 217.984 123.312 217.984 120.548V100.023H301.997V120.548C301.996 123.312 299.755 125.553 296.991 125.553Z" fill="#F4F9FF" style="fill:#F4F9FF;fill:color(display-p3 0.9587 0.9772 1.0000);fill-opacity:1;"/>
<path d="M301.922 137.323H217.91V134.567C217.91 131.963 220.021 129.852 222.626 129.852H297.207C299.811 129.852 301.922 131.963 301.922 134.567V137.323Z" fill="#8FC1FF" style="fill:#8FC1FF;fill:color(display-p3 0.5625 0.7564 1.0000);fill-opacity:1;"/>
<path d="M296.917 162.852H222.915C220.151 162.852 217.91 160.61 217.91 157.847V137.322H301.922V157.847C301.922 160.61 299.682 162.852 296.917 162.852Z" fill="#F4F9FF" style="fill:#F4F9FF;fill:color(display-p3 0.9587 0.9772 1.0000);fill-opacity:1;"/>
<path d="M297.595 141.289H222.773V142.748H297.595V141.289Z" fill="#8FC1FF" style="fill:#8FC1FF;fill:color(display-p3 0.5625 0.7564 1.0000);fill-opacity:1;"/>
<path d="M297.595 145.4H222.773V146.859H297.595V145.4Z" fill="#8FC1FF" style="fill:#8FC1FF;fill:color(display-p3 0.5625 0.7564 1.0000);fill-opacity:1;"/>
<path d="M297.595 149.514H222.773V150.972H297.595V149.514Z" fill="#8FC1FF" style="fill:#8FC1FF;fill:color(display-p3 0.5625 0.7564 1.0000);fill-opacity:1;"/>
<path d="M297.595 153.627H222.773V155.086H297.595V153.627Z" fill="#8FC1FF" style="fill:#8FC1FF;fill:color(display-p3 0.5625 0.7564 1.0000);fill-opacity:1;"/>
<path d="M254.87 85.9482H222.459C221.287 85.9482 220.336 84.9976 220.336 83.8249V47.1286C220.336 45.9559 221.287 45.0059 222.459 45.0059H254.87C256.043 45.0059 256.994 45.9565 256.994 47.1286V83.8255C256.994 84.9976 256.043 85.9482 254.87 85.9482Z" fill="white" style="fill:white;fill-opacity:1;"/>
<path d="M251.734 69.2435C251.102 68.792 243.562 66.0664 243.562 66.0664L238.665 67.9777L233.767 66.0664C233.767 66.0664 226.227 68.792 225.595 69.2435C224.963 69.6949 226.769 85.9476 226.769 85.9476H238.505H238.823H250.56C250.56 85.9476 252.366 69.6949 251.734 69.2435Z" fill="#CE6B4C" style="fill:#CE6B4C;fill:color(display-p3 0.8078 0.4196 0.2980);fill-opacity:1;"/>
<path d="M241.889 60.5137L238.823 60.8748L235.758 60.5137C235.758 60.5137 235.951 64.246 235.016 66.1421L238.823 68.0382L242.63 66.1421C241.694 64.246 241.889 60.5137 241.889 60.5137Z" fill="#F28F8F" style="fill:#F28F8F;fill:color(display-p3 0.9490 0.5608 0.5608);fill-opacity:1;"/>
<path d="M245.493 55.6102C245.347 54.2194 244.331 54.442 244.002 54.5525V52.0137H238.909H233.815V54.5525C233.486 54.4426 232.47 54.2194 232.324 55.6102C232.165 57.1278 233.291 57.8115 233.815 58.0453V58.0902C233.815 60.9902 236.079 64.2766 238.909 64.2766C241.62 64.2766 244.002 60.9902 244.002 58.0902V58.0453C244.526 57.8109 245.652 57.1273 245.493 55.6102Z" fill="#FFB2AE" style="fill:#FFB2AE;fill:color(display-p3 1.0000 0.6980 0.6824);fill-opacity:1;"/>
<path d="M246.828 50.6934C246.356 50.7169 245.505 50.5285 245.505 50.5285C246.163 50.3636 246.356 49.1842 246.356 49.1842C244.989 49.5616 238.905 47.463 236.028 47.9812C233.151 48.5 233.41 49.8914 233.41 49.8914C230.486 50.9996 232.521 54.9175 232.521 54.9175C232.928 54.2372 233.811 54.5524 233.811 54.5524L234.259 56.6594C234.259 56.6594 235.069 55.277 234.747 53.9405C234.747 53.9389 234.746 53.9383 234.746 53.9366C235.608 53.1044 235.698 52.0141 235.698 52.0141L242.867 52.0377C242.781 52.7011 243.092 53.3545 243.409 53.8295C243.35 53.9142 243.296 54.0404 243.252 54.2232C242.93 55.5602 243.74 56.9421 243.74 56.9421L244.401 54.4806C244.926 54.4593 245.173 54.756 245.173 54.756C246.135 53.8906 246.004 52.0136 246.004 52.0136C246.805 51.7309 246.828 50.6934 246.828 50.6934Z" fill="#686DA4" style="fill:#686DA4;fill:color(display-p3 0.4078 0.4275 0.6431);fill-opacity:1;"/>
<path d="M235.612 63.916L238.822 68.0397L236.519 70.1916L233.766 66.0662L235.612 63.916Z" fill="#E9AB72" style="fill:#E9AB72;fill:color(display-p3 0.9137 0.6706 0.4471);fill-opacity:1;"/>
<path d="M242.03 63.916L238.82 68.0397L241.123 70.1916L243.877 66.0662L242.03 63.916Z" fill="#E9AB72" style="fill:#E9AB72;fill:color(display-p3 0.9137 0.6706 0.4471);fill-opacity:1;"/>
<path d="M225.596 69.2441C225.596 69.2441 222.797 71.0629 222.797 76.0077L222.074 85.9488H226.769L225.596 69.2441Z" fill="#E9AB72" style="fill:#E9AB72;fill:color(display-p3 0.9137 0.6706 0.4471);fill-opacity:1;"/>
<path d="M251.6 69.2441C251.6 69.2441 254.399 71.0629 254.399 76.0077L255.121 85.9488H250.426L251.6 69.2441Z" fill="#E9AB72" style="fill:#E9AB72;fill:color(display-p3 0.9137 0.6706 0.4471);fill-opacity:1;"/>
<path d="M264.318 58.6562L265.412 60.8726L267.858 61.2282L266.088 62.9538L266.506 65.3901L264.318 64.2398L262.13 65.3901L262.548 62.9538L260.777 61.2282L263.224 60.8726L264.318 58.6562Z" fill="white" style="fill:white;fill-opacity:1;"/>
<path d="M272.634 58.6562L273.728 60.8726L276.174 61.2282L274.404 62.9538L274.822 65.3901L272.634 64.2398L270.446 65.3901L270.864 62.9538L269.094 61.2282L271.54 60.8726L272.634 58.6562Z" fill="white" style="fill:white;fill-opacity:1;"/>
<path d="M280.955 58.6562L282.048 60.8726L284.494 61.2282L282.724 62.9538L283.142 65.3901L280.955 64.2398L278.766 65.3901L279.184 62.9538L277.414 61.2282L279.86 60.8726L280.955 58.6562Z" fill="white" style="fill:white;fill-opacity:1;"/>
<path d="M289.275 58.6562L290.369 60.8726L292.815 61.2282L291.045 62.9538L291.463 65.3901L289.275 64.2398L287.087 65.3901L287.505 62.9538L285.734 61.2282L288.181 60.8726L289.275 58.6562Z" fill="white" style="fill:white;fill-opacity:1;"/>
<path d="M297.591 58.6562L298.685 60.8726L301.131 61.2282L299.361 62.9538L299.779 65.3901L297.591 64.2398L295.403 65.3901L295.821 62.9538L294.051 61.2282L296.497 60.8726L297.591 58.6562Z" fill="white" style="fill:white;fill-opacity:1;"/>
<path d="M298.349 86.7388H263.791C262.535 86.7388 261.512 85.7158 261.512 84.459V69.333C261.512 68.0757 262.535 67.0527 263.791 67.0527H298.349C299.606 67.0527 300.629 68.0757 300.629 69.333V84.459C300.629 85.7164 299.606 86.7388 298.349 86.7388ZM263.791 68.1749C263.152 68.1749 262.633 68.6948 262.633 69.3336V84.4596C262.633 85.0983 263.153 85.6177 263.791 85.6177H298.348C298.987 85.6177 299.506 85.0978 299.506 84.4596V69.3336C299.506 68.6948 298.986 68.1749 298.348 68.1749H263.791Z" fill="#8FC1FF" style="fill:#8FC1FF;fill:color(display-p3 0.5625 0.7564 1.0000);fill-opacity:1;"/>
<path d="M296.173 72.6558H265.816C265.575 72.6558 265.379 72.4601 265.379 72.2189V72.0619C265.379 71.8207 265.575 71.625 265.816 71.625H296.173C296.414 71.625 296.61 71.8207 296.61 72.0619V72.2189C296.609 72.4601 296.414 72.6558 296.173 72.6558Z" fill="#8FC1FF" style="fill:#8FC1FF;fill:color(display-p3 0.5625 0.7564 1.0000);fill-opacity:1;"/>
<path d="M296.173 75.6695H265.816C265.575 75.6695 265.379 75.4737 265.379 75.2326V75.0756C265.379 74.8344 265.575 74.6387 265.816 74.6387H296.173C296.414 74.6387 296.61 74.8344 296.61 75.0756V75.2326C296.609 75.4737 296.414 75.6695 296.173 75.6695Z" fill="#8FC1FF" style="fill:#8FC1FF;fill:color(display-p3 0.5625 0.7564 1.0000);fill-opacity:1;"/>
<path d="M296.173 78.689H265.816C265.575 78.689 265.379 78.4933 265.379 78.2521V78.0951C265.379 77.8539 265.575 77.6582 265.816 77.6582H296.173C296.414 77.6582 296.61 77.8539 296.61 78.0951V78.2521C296.609 78.4933 296.414 78.689 296.173 78.689Z" fill="#8FC1FF" style="fill:#8FC1FF;fill:color(display-p3 0.5625 0.7564 1.0000);fill-opacity:1;"/>
<path d="M296.173 81.7046H265.816C265.575 81.7046 265.379 81.5089 265.379 81.2677V81.1107C265.379 80.8696 265.575 80.6738 265.816 80.6738H296.173C296.414 80.6738 296.61 80.8696 296.61 81.1107V81.2677C296.609 81.5089 296.414 81.7046 296.173 81.7046Z" fill="#8FC1FF" style="fill:#8FC1FF;fill:color(display-p3 0.5625 0.7564 1.0000);fill-opacity:1;"/>
<path d="M287.277 51.9352C288.097 48.4426 285.931 44.9465 282.438 44.1263C278.946 43.3062 275.45 45.4726 274.63 48.9652C273.809 52.4578 275.976 55.9539 279.468 56.7741C282.961 57.5942 286.457 55.4278 287.277 51.9352Z" fill="white" style="fill:white;fill-opacity:1;"/>
<path d="M274.152 50.3292L276.315 48.3086L279.079 50.9837L285.433 43.8164L287.762 46.1792L279.51 55.629L274.152 50.3292Z" fill="#0668E1" style="fill:#0668E1;fill:color(display-p3 0.0235 0.4078 0.8824);fill-opacity:1;"/>
<path d="M297.595 103.756H222.773V105.214H297.595V103.756Z" fill="#8FC1FF" style="fill:#8FC1FF;fill:color(display-p3 0.5625 0.7564 1.0000);fill-opacity:1;"/>
<path d="M297.595 107.869H222.773V109.327H297.595V107.869Z" fill="#8FC1FF" style="fill:#8FC1FF;fill:color(display-p3 0.5625 0.7564 1.0000);fill-opacity:1;"/>
<path d="M297.595 111.982H222.773V113.441H297.595V111.982Z" fill="#8FC1FF" style="fill:#8FC1FF;fill:color(display-p3 0.5625 0.7564 1.0000);fill-opacity:1;"/>
<path d="M297.595 116.096H222.773V117.554H297.595V116.096Z" fill="#8FC1FF" style="fill:#8FC1FF;fill:color(display-p3 0.5625 0.7564 1.0000);fill-opacity:1;"/>
<path d="M210.098 39.8883H307.204V34.2823C307.204 30.2606 303.944 27 299.922 27H217.38C213.358 27 210.098 30.2606 210.098 34.2823V39.8883Z" fill="#0668E1" style="fill:#0668E1;fill:color(display-p3 0.0235 0.4078 0.8824);fill-opacity:1;"/>
<path d="M132.22 64.6387H184.367C188.63 64.6388 192.087 68.0953 192.087 72.3584V151.655C192.087 155.919 188.63 159.376 184.367 159.376H132.22C127.957 159.376 124.5 155.919 124.5 151.656V72.3584C124.5 68.0952 127.957 64.6387 132.22 64.6387Z" fill="white" stroke="#FFA98F" style="fill:white;fill-opacity:1;stroke:#FFA98F;stroke:color(display-p3 1.0000 0.6627 0.5608);stroke-opacity:1;"/>
<path d="M187.245 111.819H129.391V109.921C129.391 108.127 130.844 106.674 132.638 106.674H183.997C185.791 106.674 187.245 108.127 187.245 109.921V111.819H187.245Z" fill="#FFA98F" style="fill:#FFA98F;fill:color(display-p3 1.0000 0.6627 0.5608);fill-opacity:1;"/>
<path d="M183.798 129.399H132.837C130.934 129.399 129.391 127.856 129.391 125.952V111.818H187.245V125.952C187.245 127.856 185.702 129.399 183.798 129.399Z" fill="#FFF6FB" style="fill:#FFF6FB;fill:color(display-p3 1.0000 0.9647 0.9843);fill-opacity:1;"/>
<path d="M187.194 137.504H129.34V135.607C129.34 133.813 130.793 132.359 132.587 132.359H183.947C185.74 132.359 187.194 133.813 187.194 135.607V137.504H187.194Z" fill="#FFA98F" style="fill:#FFA98F;fill:color(display-p3 1.0000 0.6627 0.5608);fill-opacity:1;"/>
<path d="M183.748 155.085H132.787C130.883 155.085 129.34 153.542 129.34 151.638V137.504H187.194V151.638C187.194 153.541 185.651 155.085 183.748 155.085Z" fill="#FFF6FB" style="fill:#FFF6FB;fill:color(display-p3 1.0000 0.9647 0.9843);fill-opacity:1;"/>
<path d="M156.084 103.758H131.182C130.282 103.758 129.551 103.028 129.551 102.127V73.9322C129.551 73.0315 130.281 72.3008 131.182 72.3008H156.084C156.985 72.3008 157.716 73.031 157.716 73.9322V102.127C157.715 103.027 156.985 103.758 156.084 103.758Z" fill="white" style="fill:white;fill-opacity:1;"/>
<path d="M153.674 90.9237C153.188 90.5771 147.396 88.4824 147.396 88.4824L143.632 89.9512L139.87 88.4824C139.87 88.4824 134.077 90.5765 133.591 90.9237C133.106 91.2703 134.493 103.758 134.493 103.758H143.511H143.755H152.773C152.773 103.758 154.16 91.2703 153.674 90.9237Z" fill="#9092C2" style="fill:#9092C2;fill:color(display-p3 0.5647 0.5725 0.7608);fill-opacity:1;"/>
<path d="M146.108 84.2168L143.753 84.4944L141.398 84.2168C141.398 84.2168 141.547 87.0843 140.828 88.5413L143.753 89.9983L146.679 88.5413C145.959 87.0843 146.108 84.2168 146.108 84.2168Z" fill="#C3C6E2" style="fill:#C3C6E2;fill:color(display-p3 0.7647 0.7765 0.8863);fill-opacity:1;"/>
<path d="M148.88 80.4487C148.768 79.3798 147.987 79.5514 147.734 79.6361V77.6855H143.821H139.907V79.6361C139.655 79.5514 138.874 79.3798 138.762 80.4487C138.639 81.6147 139.504 82.1402 139.907 82.3196V82.3538C139.907 84.582 141.647 87.1068 143.821 87.1068C145.904 87.1068 147.734 84.582 147.734 82.3538V82.3196C148.137 82.1402 149.002 81.6147 148.88 80.4487Z" fill="#DEDFF3" style="fill:#DEDFF3;fill:color(display-p3 0.8706 0.8745 0.9529);fill-opacity:1;"/>
<path d="M141.29 86.8301L143.756 89.9987L141.987 91.652L139.871 88.4823L141.29 86.8301Z" fill="#ACAAD1" style="fill:#ACAAD1;fill:color(display-p3 0.6745 0.6667 0.8196);fill-opacity:1;"/>
<path d="M146.22 86.8301L143.754 89.9987L145.523 91.652L147.639 88.4823L146.22 86.8301Z" fill="#ACAAD1" style="fill:#ACAAD1;fill:color(display-p3 0.6745 0.6667 0.8196);fill-opacity:1;"/>
<path d="M133.593 90.9219C133.593 90.9219 131.442 92.3194 131.442 96.1185L130.887 103.756H134.494L133.593 90.9219Z" fill="#ACAAD1" style="fill:#ACAAD1;fill:color(display-p3 0.6745 0.6667 0.8196);fill-opacity:1;"/>
<path d="M153.57 90.9219C153.57 90.9219 155.721 92.3194 155.721 96.1185L156.276 103.756H152.668L153.57 90.9219Z" fill="#ACAAD1" style="fill:#ACAAD1;fill:color(display-p3 0.6745 0.6667 0.8196);fill-opacity:1;"/>
<path d="M139.783 79.7116L140.215 80.956C140.215 80.956 141.085 79.2034 140.721 77.7324C140.721 77.7324 142.462 77.6847 143.754 77.7324C145.045 77.7801 146.901 77.7324 146.901 77.7324C146.901 77.7324 146.617 79.9364 147.47 80.5763C147.47 80.5763 148.229 79.227 148.252 77.7324C148.276 76.2378 147.517 75.2653 146.261 74.8621C145.004 74.4589 140.797 74.1981 139.783 75.9529C138.768 77.7077 139.783 79.7116 139.783 79.7116Z" fill="#9092C2" style="fill:#9092C2;fill:color(display-p3 0.5647 0.5725 0.7608);fill-opacity:1;"/>
<path d="M161.301 83.332L162.054 84.8586L163.739 85.1031L162.52 86.2915L162.808 87.9689L161.301 87.177L159.794 87.9689L160.082 86.2915L158.863 85.1031L160.548 84.8586L161.301 83.332Z" fill="#FFA98F" style="fill:#FFA98F;fill:color(display-p3 1.0000 0.6627 0.5608);fill-opacity:1;"/>
<path d="M167.028 83.332L167.781 84.8586L169.466 85.1031L168.246 86.2915L168.534 87.9689L167.028 87.177L165.521 87.9689L165.809 86.2915L164.59 85.1031L166.274 84.8586L167.028 83.332Z" fill="#FFA98F" style="fill:#FFA98F;fill:color(display-p3 1.0000 0.6627 0.5608);fill-opacity:1;"/>
<path d="M184.737 102.845H160.94C159.978 102.845 159.195 102.062 159.195 101.1V90.6842C159.195 89.7218 159.978 88.9395 160.94 88.9395H184.737C185.7 88.9395 186.482 89.7218 186.482 90.6842V101.1C186.482 102.062 185.7 102.845 184.737 102.845ZM160.94 90.0611C160.596 90.0611 160.317 90.3409 160.317 90.6842V101.1C160.317 101.444 160.596 101.723 160.94 101.723H184.737C185.081 101.723 185.361 101.444 185.361 101.1V90.6842C185.361 90.3404 185.081 90.0611 184.737 90.0611H160.94Z" fill="#FFA98F" style="fill:#FFA98F;fill:color(display-p3 1.0000 0.6627 0.5608);fill-opacity:1;"/>
<path d="M183.237 92.9712H162.332C162.166 92.9712 162.031 92.8366 162.031 92.6706V92.5623C162.031 92.3963 162.166 92.2617 162.332 92.2617H183.237C183.403 92.2617 183.538 92.3963 183.538 92.5623V92.6706C183.538 92.8366 183.403 92.9712 183.237 92.9712Z" fill="#FFA98F" style="fill:#FFA98F;fill:color(display-p3 1.0000 0.6627 0.5608);fill-opacity:1;"/>
<path d="M183.237 95.0493H162.332C162.166 95.0493 162.031 94.9147 162.031 94.7487V94.6405C162.031 94.4744 162.166 94.3398 162.332 94.3398H183.237C183.403 94.3398 183.538 94.4744 183.538 94.6405V94.7487C183.538 94.9141 183.403 95.0493 183.237 95.0493Z" fill="#FFA98F" style="fill:#FFA98F;fill:color(display-p3 1.0000 0.6627 0.5608);fill-opacity:1;"/>
<path d="M183.237 97.1274H162.332C162.166 97.1274 162.031 96.9928 162.031 96.8268V96.7186C162.031 96.5526 162.166 96.418 162.332 96.418H183.237C183.403 96.418 183.538 96.5526 183.538 96.7186V96.8268C183.538 96.9928 183.403 97.1274 183.237 97.1274Z" fill="#FFA98F" style="fill:#FFA98F;fill:color(display-p3 1.0000 0.6627 0.5608);fill-opacity:1;"/>
<path d="M183.237 99.2036H162.332C162.166 99.2036 162.031 99.069 162.031 98.903V98.7947C162.031 98.6287 162.166 98.4941 162.332 98.4941H183.237C183.403 98.4941 183.538 98.6287 183.538 98.7947V98.903C183.538 99.069 183.403 99.2036 183.237 99.2036Z" fill="#FFA98F" style="fill:#FFA98F;fill:color(display-p3 1.0000 0.6627 0.5608);fill-opacity:1;"/>
<path d="M178.913 76.8063C179.372 73.9837 177.456 71.3233 174.633 70.864C171.811 70.4047 169.15 72.3205 168.691 75.1431C168.232 77.9657 170.148 80.6262 172.97 81.0855C175.793 81.5448 178.453 79.6289 178.913 76.8063Z" fill="white" style="fill:white;fill-opacity:1;"/>
<path d="M179.758 72.5035L176.655 69.7168L173.805 72.8742L170.955 69.7168L167.852 72.5035L170.972 76.0132L167.852 79.4701L171.049 82.2989L173.805 79.1992L176.562 82.2989L179.758 79.4701L176.638 76.0132L179.758 72.5035Z" fill="#FFA98F" style="fill:#FFA98F;fill:color(display-p3 1.0000 0.6627 0.5608);fill-opacity:1;"/>
<path d="M334.462 64.6387H386.609C390.872 64.6388 394.329 68.0953 394.329 72.3584V151.655C394.329 155.919 390.873 159.376 386.609 159.376H334.462C330.198 159.376 326.742 155.919 326.742 151.656V72.3584C326.742 68.2284 329.986 64.8552 334.064 64.6484L334.462 64.6387Z" fill="white" stroke="#FFA98F" style="fill:white;fill-opacity:1;stroke:#FFA98F;stroke:color(display-p3 1.0000 0.6627 0.5608);stroke-opacity:1;"/>
<path d="M389.491 111.819H331.637V109.921C331.637 108.127 333.09 106.674 334.884 106.674H386.244C388.037 106.674 389.491 108.127 389.491 109.921V111.819Z" fill="#FFA98F" style="fill:#FFA98F;fill:color(display-p3 1.0000 0.6627 0.5608);fill-opacity:1;"/>
<path d="M386.459 129.581H335.498C333.594 129.581 332.051 128.038 332.051 126.134V112H389.905V126.134C389.905 128.037 388.362 129.581 386.459 129.581Z" fill="#FFF6FB" style="fill:#FFF6FB;fill:color(display-p3 1.0000 0.9663 0.9856);fill-opacity:1;"/>
<path d="M389.44 137.504H331.586V135.607C331.586 133.813 333.04 132.359 334.833 132.359H386.193C387.986 132.359 389.44 133.813 389.44 135.607V137.504Z" fill="#FFA98F" style="fill:#FFA98F;fill:color(display-p3 1.0000 0.6627 0.5608);fill-opacity:1;"/>
<path d="M386.408 155.266H335.447C333.543 155.266 332 153.723 332 151.819V137.686H389.854V151.819C389.854 153.723 388.311 155.266 386.408 155.266Z" fill="#FFF6FB" style="fill:#FFF6FB;fill:color(display-p3 1.0000 0.9663 0.9856);fill-opacity:1;"/>
<path d="M358.448 103.758H333.545C332.645 103.758 331.914 103.028 331.914 102.127V73.9322C331.914 73.0315 332.644 72.3008 333.545 72.3008H358.448C359.348 72.3008 360.079 73.031 360.079 73.9322V102.127C360.079 103.027 359.349 103.758 358.448 103.758Z" fill="white" style="fill:white;fill-opacity:1;"/>
<path d="M351 78.549C350.092 75.7393 346.495 75.4454 346.062 75.4202V75.418C346.062 75.418 346.047 75.4185 346.04 75.4191C346.033 75.4185 346.018 75.418 346.018 75.418V75.4202C345.585 75.4454 341.988 75.7393 341.08 78.549C340.114 81.5399 340.452 92.2623 340.452 92.2623C340.452 92.2623 344.807 92.0453 344.773 87.0494C344.744 82.9223 345.471 80.1373 346.04 79.2916C346.609 80.1373 347.273 83.021 347.244 87.1481C347.21 92.1434 351.627 92.2617 351.627 92.2617C351.627 92.2617 351.966 81.5399 351 78.549Z" fill="#686DA4" style="fill:#686DA4;fill:color(display-p3 0.4078 0.4275 0.6431);fill-opacity:1;"/>
<path d="M354.913 90.4689C354.428 90.1223 349.639 88.4824 349.639 88.4824L345.876 89.9512L342.113 88.4824C342.113 88.4824 337.649 89.9922 337.163 90.3393C336.678 90.6865 339.047 103.758 339.047 103.758H345.754H345.999H353.441C353.441 103.758 355.399 90.816 354.913 90.4689Z" fill="#ACAAD1" style="fill:#ACAAD1;fill:color(display-p3 0.6745 0.6667 0.8196);fill-opacity:1;"/>
<path d="M347.331 85.3952L345.986 85.0312L344.614 85.5181C344.614 85.5181 344.597 87.4119 343.32 88.7181L345.985 90.0456L348.651 88.7181C347.523 87.5387 347.331 85.3952 347.331 85.3952Z" fill="#CECED8" style="fill:#CECED8;fill:color(display-p3 0.8078 0.8078 0.8471);fill-opacity:1;"/>
<path d="M350.651 81.3476C350.549 80.374 349.838 80.5299 349.608 80.6073V78.8301H346.042H342.476V80.6073C342.246 80.5305 341.535 80.374 341.433 81.3476C341.321 82.4098 342.11 82.8882 342.476 83.052V83.0834C342.476 85.1135 344.723 87.414 346.042 87.414C347.574 87.414 349.608 85.1135 349.608 83.0834V83.052C349.975 82.8882 350.762 82.4098 350.651 81.3476Z" fill="#E6E6E7" style="fill:#E6E6E7;fill:color(display-p3 0.9020 0.9020 0.9059);fill-opacity:1;"/>
<path d="M337.237 90.3555C337.237 90.3555 335.086 91.753 335.086 95.5521L334.531 103.757H339.047L337.237 90.3555Z" fill="#9092C2" style="fill:#9092C2;fill:color(display-p3 0.5647 0.5725 0.7608);fill-opacity:1;"/>
<path d="M354.833 90.3555C354.833 90.3555 356.984 91.753 356.984 95.5521L357.539 103.757H353.441L354.833 90.3555Z" fill="#9092C2" style="fill:#9092C2;fill:color(display-p3 0.5647 0.5725 0.7608);fill-opacity:1;"/>
<path d="M343.752 87.0508L342.112 88.4826C342.112 88.4826 341.041 91.4028 342.801 92.1503C344.56 92.8979 345.997 89.999 345.997 89.999L343.752 87.0508Z" fill="#9092C2" style="fill:#9092C2;fill:color(display-p3 0.5647 0.5725 0.7608);fill-opacity:1;"/>
<path d="M348.205 86.9395L349.858 88.4823C349.858 88.4823 350.929 91.4025 349.169 92.1501C347.409 92.8976 345.973 89.9987 345.973 89.9987L348.205 86.9395Z" fill="#9092C2" style="fill:#9092C2;fill:color(display-p3 0.5647 0.5725 0.7608);fill-opacity:1;"/>
<path d="M349.002 79.135C349.002 79.135 348.147 79.947 346.137 80.2274C344.127 80.5079 342.926 80.4551 342.926 80.4551C342.926 80.4551 343.044 82.6637 342.155 83.4813C341.267 84.299 340.647 80.8875 341.424 79.3918C342.202 77.8961 347.811 77.2422 347.951 77.2422C348.091 77.2422 348.862 77.4761 348.862 77.4761C348.862 77.4761 350.358 78.0447 350.778 80.4243C351.199 82.8039 349.844 83.842 349.844 83.842C349.844 83.842 348.815 81.5185 349.002 79.135Z" fill="#686DA4" style="fill:#686DA4;fill:color(display-p3 0.4078 0.4275 0.6431);fill-opacity:1;"/>
<path d="M348.784 81.5488H346.959C346.649 81.5488 346.396 81.8012 346.396 82.1113V82.1971H345.876V82.173C345.876 81.8629 345.624 81.6105 345.313 81.6105H343.489C343.178 81.6105 342.926 81.8629 342.926 82.173V82.6071C342.926 82.9172 343.178 83.1696 343.489 83.1696H345.313C345.624 83.1696 345.876 82.9172 345.876 82.6071V82.5039H346.396V82.546C346.396 82.8561 346.649 83.1085 346.959 83.1085H348.784C349.094 83.1085 349.347 82.8561 349.347 82.546V82.1119C349.347 81.8012 349.094 81.5488 348.784 81.5488ZM345.596 82.6071C345.596 82.7624 345.47 82.8892 345.314 82.8892H343.489C343.334 82.8892 343.207 82.7624 343.207 82.6071V82.173C343.207 82.0177 343.334 81.8909 343.489 81.8909H345.314C345.47 81.8909 345.596 82.0177 345.596 82.173V82.6071ZM349.066 82.546C349.066 82.7013 348.939 82.8281 348.784 82.8281H346.959C346.803 82.8281 346.677 82.7013 346.677 82.546V82.1119C346.677 81.9565 346.803 81.8298 346.959 81.8298H348.784C348.939 81.8298 349.066 81.9565 349.066 82.1119V82.546Z" fill="#9092C2" style="fill:#9092C2;fill:color(display-p3 0.5647 0.5725 0.7608);fill-opacity:1;"/>
<path d="M363.543 83.332L364.297 84.8586L365.981 85.1031L364.762 86.2915L365.05 87.9689L363.543 87.177L362.036 87.9689L362.324 86.2915L361.105 85.1031L362.79 84.8586L363.543 83.332Z" fill="#FFA98F" style="fill:#FFA98F;fill:color(display-p3 1.0000 0.6627 0.5608);fill-opacity:1;"/>
<path d="M369.27 83.332L370.024 84.8586L371.708 85.1031L370.489 86.2915L370.777 87.9689L369.27 87.177L367.764 87.9689L368.051 86.2915L366.832 85.1031L368.517 84.8586L369.27 83.332Z" fill="#FFA98F" style="fill:#FFA98F;fill:color(display-p3 1.0000 0.6627 0.5608);fill-opacity:1;"/>
<path d="M375 83.332L375.754 84.8586L377.438 85.1031L376.22 86.2915L376.507 87.9689L375 87.177L373.494 87.9689L373.782 86.2915L372.562 85.1031L374.247 84.8586L375 83.332Z" fill="#FFA98F" style="fill:#FFA98F;fill:color(display-p3 1.0000 0.6627 0.5608);fill-opacity:1;"/>
<path d="M386.98 102.845H363.182C362.22 102.845 361.438 102.062 361.438 101.1V90.6842C361.438 89.7218 362.22 88.9395 363.182 88.9395H386.98C387.942 88.9395 388.724 89.7218 388.724 90.6842V101.1C388.724 102.062 387.942 102.845 386.98 102.845ZM363.182 90.0611C362.839 90.0611 362.559 90.3409 362.559 90.6842V101.1C362.559 101.444 362.839 101.723 363.182 101.723H386.98C387.323 101.723 387.603 101.444 387.603 101.1V90.6842C387.603 90.3404 387.323 90.0611 386.98 90.0611H363.182Z" fill="#FFA98F" style="fill:#FFA98F;fill:color(display-p3 1.0000 0.6627 0.5608);fill-opacity:1;"/>
<path d="M385.479 92.9712H364.574C364.408 92.9712 364.273 92.8366 364.273 92.6706V92.5623C364.273 92.3963 364.408 92.2617 364.574 92.2617H385.479C385.645 92.2617 385.78 92.3963 385.78 92.5623V92.6706C385.78 92.8366 385.645 92.9712 385.479 92.9712Z" fill="#FFA98F" style="fill:#FFA98F;fill:color(display-p3 1.0000 0.6627 0.5608);fill-opacity:1;"/>
<path d="M385.479 95.0493H364.574C364.408 95.0493 364.273 94.9147 364.273 94.7487V94.6405C364.273 94.4744 364.408 94.3398 364.574 94.3398H385.479C385.645 94.3398 385.78 94.4744 385.78 94.6405V94.7487C385.78 94.9141 385.645 95.0493 385.479 95.0493Z" fill="#FFA98F" style="fill:#FFA98F;fill:color(display-p3 1.0000 0.6627 0.5608);fill-opacity:1;"/>
<path d="M385.479 97.1274H364.574C364.408 97.1274 364.273 96.9928 364.273 96.8268V96.7186C364.273 96.5526 364.408 96.418 364.574 96.418H385.479C385.645 96.418 385.78 96.5526 385.78 96.7186V96.8268C385.78 96.9928 385.645 97.1274 385.479 97.1274Z" fill="#FFA98F" style="fill:#FFA98F;fill:color(display-p3 1.0000 0.6627 0.5608);fill-opacity:1;"/>
<path d="M385.479 99.2036H364.574C364.408 99.2036 364.273 99.069 364.273 98.903V98.7947C364.273 98.6287 364.408 98.4941 364.574 98.4941H385.479C385.645 98.4941 385.78 98.6287 385.78 98.7947V98.903C385.78 99.069 385.645 99.2036 385.479 99.2036Z" fill="#FFA98F" style="fill:#FFA98F;fill:color(display-p3 1.0000 0.6627 0.5608);fill-opacity:1;"/>
<path d="M380.127 77.1829C380.786 74.4004 379.065 71.6098 376.283 70.9501C373.5 70.2903 370.71 72.0112 370.05 74.7938C369.39 77.5763 371.111 80.3669 373.894 81.0266C376.676 81.6864 379.467 79.9655 380.127 77.1829Z" fill="white" style="fill:white;fill-opacity:1;"/>
<path d="M381.036 72.5035L377.932 69.7168L375.082 72.8742L372.233 69.7168L369.129 72.5035L372.249 76.0132L369.129 79.4701L372.326 82.2989L375.082 79.1992L377.838 82.2989L381.036 79.4701L377.915 76.0132L381.036 72.5035Z" fill="#FFA98F" style="fill:#FFA98F;fill:color(display-p3 1.0000 0.6627 0.5608);fill-opacity:1;"/>
</svg>
