<svg width="60" height="60" viewBox="0 0 60 60" fill="none" xmlns="http://www.w3.org/2000/svg">
<rect width="60" height="60" rx="12" fill="#F2F8FF" style="fill:#F2F8FF;fill:color(display-p3 0.9490 0.9725 1.0000);fill-opacity:1;"/>
<g clip-path="url(#clip0_20318_67016)">
<rect x="10" y="10" width="40" height="40" rx="20" fill="url(#paint0_radial_20318_67016)"/>
<path d="M50.3512 30.1128C50.6305 40.9961 42.0342 50.0452 31.1508 50.3244C20.2675 50.6037 11.2184 42.0073 10.9392 31.124C10.66 20.2407 19.2563 11.1916 30.1396 10.9124C41.023 10.6331 50.072 19.2295 50.3512 30.1128ZM13.8951 31.0482C14.1324 40.299 21.8241 47.6059 31.075 47.3685C40.3258 47.1312 47.6327 39.4395 47.3953 30.1886C47.158 20.9378 39.4663 13.6309 30.2155 13.8683C20.9646 14.1056 13.6577 21.7973 13.8951 31.0482Z" fill="url(#paint1_radial_20318_67016)"/>
<path d="M49.6245 30.6345C49.6245 41.1191 41.125 49.6186 30.6404 49.6186C20.1557 49.6186 11.6562 41.1191 11.6562 30.6345C11.6562 20.1499 20.1557 11.6504 30.6404 11.6504C41.125 11.6504 49.6245 20.1499 49.6245 30.6345ZM12.0359 30.6345C12.0359 40.9095 20.3654 49.2389 30.6404 49.2389C40.9153 49.2389 49.2448 40.9095 49.2448 30.6345C49.2448 20.3596 40.9153 12.0301 30.6404 12.0301C20.3654 12.0301 12.0359 20.3596 12.0359 30.6345Z" fill="white" style="fill:white;fill-opacity:1;"/>
<path d="M20.7344 23.8281C20.7344 23.8281 21.5946 24.4298 30.6391 24.4298C39.6836 24.4298 40.5439 23.8281 40.5439 23.8281L38.6839 26.1675C38.6839 26.1675 34.5093 26.4281 30.6391 26.4281C26.769 26.4281 22.5944 26.1675 22.5944 26.1675L20.7344 23.8281Z" fill="#B2D0F6" style="fill:#B2D0F6;fill:color(display-p3 0.6980 0.8157 0.9647);fill-opacity:1;"/>
<ellipse cx="30.6391" cy="23.8261" rx="9.90476" ry="0.619048" fill="#589AEB" style="fill:#589AEB;fill:color(display-p3 0.3451 0.6039 0.9216);fill-opacity:1;"/>
<ellipse cx="30.7703" cy="27.4191" rx="8.04762" ry="0.495238" fill="#3886E7" style="fill:#3886E7;fill:color(display-p3 0.2196 0.5255 0.9059);fill-opacity:1;"/>
<path d="M22.7227 27.4141C22.7227 27.4141 23.4216 27.7964 30.7703 27.7964C38.1189 27.7964 38.8179 27.4141 38.8179 27.4141L37.3066 29.1865C37.3066 29.1865 33.9148 29.395 30.7703 29.395C27.6258 29.395 24.2339 29.1865 24.2339 29.1865L22.7227 27.4141Z" fill="#8CBAF1" style="fill:#8CBAF1;fill:color(display-p3 0.5490 0.7294 0.9451);fill-opacity:1;"/>
<path d="M24.1953 30.5156C24.1953 30.5156 24.7545 30.7263 30.6334 30.7263C36.5123 30.7263 37.0715 30.5156 37.0715 30.5156L35.8625 31.9427C35.8625 31.9427 33.149 32.1251 30.6334 32.1251C28.1178 32.1251 25.4043 31.9427 25.4043 31.9427L24.1953 30.5156Z" fill="#589AEB" style="fill:#589AEB;fill:color(display-p3 0.3451 0.6039 0.9216);fill-opacity:1;"/>
<ellipse cx="30.6334" cy="30.5121" rx="6.43809" ry="0.371429" fill="#0668E1" style="fill:#0668E1;fill:color(display-p3 0.0235 0.4078 0.8824);fill-opacity:1;"/>
<ellipse cx="30.8135" cy="33.0548" rx="5.34082" ry="0.300891" fill="#055FCD" style="fill:#055FCD;fill:color(display-p3 0.0196 0.3725 0.8039);fill-opacity:1;"/>
<path d="M25.4727 33.0566C25.4727 33.0566 25.9365 33.3325 30.8135 33.3325C35.6904 33.3325 36.1543 33.0566 36.1543 33.0566L35.1513 34.3354C35.1513 34.3354 32.9003 34.4859 30.8135 34.4859C28.7266 34.4859 26.4756 34.3354 26.4756 34.3354L25.4727 33.0566Z" fill="#3886E7" style="fill:#3886E7;fill:color(display-p3 0.2196 0.5255 0.9059);fill-opacity:1;"/>
<ellipse cx="30.8101" cy="35.2025" rx="4.35699" ry="0.245464" fill="#044AA0" style="fill:#044AA0;fill:color(display-p3 0.0157 0.2902 0.6275);fill-opacity:1;"/>
<path d="M26.4531 35.2109C26.4531 35.2109 26.8315 35.4359 30.8101 35.4359C34.7887 35.4359 35.1671 35.2109 35.1671 35.2109L34.3489 36.2542C34.3489 36.2542 32.5125 36.3769 30.8101 36.3769C29.1077 36.3769 27.2713 36.2542 27.2713 36.2542L26.4531 35.2109Z" fill="#0668E1" style="fill:#0668E1;fill:color(display-p3 0.0235 0.4078 0.8824);fill-opacity:1;"/>
<ellipse cx="30.8145" cy="37.0404" rx="3.56055" ry="0.200594" fill="#044AA0" style="fill:#044AA0;fill:color(display-p3 0.0157 0.2902 0.6275);fill-opacity:1;"/>
<path d="M27.2539 37.0449C27.2539 37.0449 27.5632 37.2288 30.8145 37.2288C34.0658 37.2288 34.375 37.0449 34.375 37.0449L33.7064 37.8974C33.7064 37.8974 32.2057 37.9977 30.8145 37.9977C29.4232 37.9977 27.9226 37.8974 27.9226 37.8974L27.2539 37.0449Z" fill="#055FCD" style="fill:#055FCD;fill:color(display-p3 0.0196 0.3725 0.8039);fill-opacity:1;"/>
<ellipse cx="30.8109" cy="38.6285" rx="2.90466" ry="0.163643" fill="#03397C" style="fill:#03397C;fill:color(display-p3 0.0118 0.2235 0.4863);fill-opacity:1;"/>
<path d="M27.9062 38.6406C27.9062 38.6406 28.1585 38.7812 30.8109 38.7812C33.4633 38.7812 33.7156 38.6406 33.7156 38.6406L33.1701 39.8982C33.1701 39.8982 31.9459 40.0461 30.8109 40.0461C29.676 40.0461 28.4517 39.8982 28.4517 39.8982L27.9062 38.6406Z" fill="#044AA0" style="fill:#044AA0;fill:color(display-p3 0.0157 0.2902 0.6275);fill-opacity:1;"/>
<g clip-path="url(#clip1_20318_67016)">
<path d="M29.8809 22.3184C29.9111 22.3191 29.9456 22.3336 29.9775 22.3516H29.9785C30.0073 22.3672 30.0359 22.3848 30.0645 22.4033C30.0927 22.4216 30.1212 22.4414 30.1504 22.459C30.3287 22.5677 30.522 22.6257 30.7354 22.5957C30.864 22.5773 30.9838 22.5319 31.0947 22.4629L31.2041 22.3926C31.3182 22.2972 31.4432 22.3079 31.5811 22.3496C31.7583 22.4035 31.8833 22.52 31.9736 22.6807C32.0969 22.8998 32.142 23.1405 32.1572 23.3906C32.164 23.5091 32.1644 23.6295 32.1445 23.7432C32.1069 23.9577 31.9467 24.1217 31.7402 24.1768L31.6494 24.1934C31.5907 24.1992 31.5312 24.2021 31.4727 24.2021H31.4717C31.1883 24.203 30.9047 24.2031 30.6221 24.2031H29.7393C29.6363 24.2031 29.537 24.1921 29.4443 24.1523C29.251 24.0686 29.1365 23.9268 29.1016 23.7344L29.0918 23.6484C29.0758 23.3678 29.1083 23.0917 29.209 22.8291C29.286 22.6285 29.4002 22.4622 29.6016 22.374C29.6911 22.3354 29.785 22.3177 29.8809 22.3193V22.3184Z" fill="#2A89FF" stroke="#0668E1" style="fill:#2A89FF;fill:color(display-p3 0.1633 0.5377 1.0000);fill-opacity:1;stroke:#0668E1;stroke:color(display-p3 0.0235 0.4078 0.8824);stroke-opacity:1;" stroke-width="0.051096"/>
<path d="M30.6006 20.5117C31.0871 20.5117 31.4783 20.9014 31.4785 21.3887C31.4785 21.8753 31.0881 22.2656 30.6006 22.2656C30.1133 22.2654 29.7246 21.876 29.7246 21.3887C29.7248 20.9015 30.1135 20.512 30.6006 20.5117Z" fill="#2A89FF" stroke="#0668E1" style="fill:#2A89FF;fill:color(display-p3 0.1633 0.5377 1.0000);fill-opacity:1;stroke:#0668E1;stroke:color(display-p3 0.0235 0.4078 0.8824);stroke-opacity:1;" stroke-width="0.051096"/>
</g>
<g clip-path="url(#clip2_20318_67016)">
<path d="M36.7217 23.5732C36.7833 23.5921 36.8272 23.6331 36.8594 23.6904C36.8817 23.7301 36.8968 23.772 36.9072 23.8154L36.9258 23.9502C36.9283 23.9941 36.928 24.0375 36.9209 24.0781C36.9061 24.1624 36.8366 24.2241 36.75 24.2334C36.7284 24.2356 36.706 24.2373 36.6846 24.2373H36.0352C35.9977 24.2373 35.9626 24.2335 35.9307 24.2197C35.8536 24.1863 35.8136 24.1274 35.8086 24.0449C35.8027 23.9416 35.8139 23.8401 35.8506 23.7441C35.8786 23.671 35.92 23.6128 35.9902 23.582C36.0059 23.5753 36.0219 23.5706 36.0381 23.5674L36.0879 23.5625C36.0953 23.5627 36.1052 23.567 36.1162 23.5732H36.1172C36.1274 23.5788 36.1378 23.5849 36.1484 23.5918C36.1588 23.5985 36.1695 23.6065 36.1807 23.6133C36.2497 23.6554 36.3258 23.6778 36.4102 23.666H36.4111C36.4615 23.6587 36.5085 23.6412 36.5518 23.6143C36.5632 23.6072 36.5809 23.5982 36.5947 23.5869C36.6312 23.5564 36.6715 23.558 36.7217 23.5732Z" fill="#2A89FF" stroke="#0668E1" style="fill:#2A89FF;fill:color(display-p3 0.1633 0.5377 1.0000);fill-opacity:1;stroke:#0668E1;stroke:color(display-p3 0.0235 0.4078 0.8824);stroke-opacity:1;" stroke-width="0.051096"/>
<path d="M36.3574 22.8809C36.5311 22.8809 36.6709 23.0204 36.6709 23.1943C36.6707 23.3678 36.5313 23.5068 36.3574 23.5068C36.1837 23.5067 36.0451 23.3681 36.0449 23.1943C36.0449 23.0204 36.1836 22.881 36.3574 22.8809Z" fill="#2A89FF" stroke="#0668E1" style="fill:#2A89FF;fill:color(display-p3 0.1633 0.5377 1.0000);fill-opacity:1;stroke:#0668E1;stroke:color(display-p3 0.0235 0.4078 0.8824);stroke-opacity:1;" stroke-width="0.051096"/>
</g>
<g clip-path="url(#clip3_20318_67016)">
<path d="M33.5459 23.2119C33.563 23.2212 33.5803 23.2319 33.5977 23.2432C33.6147 23.2542 33.6324 23.2665 33.6504 23.2773C33.7598 23.344 33.8788 23.3799 34.0107 23.3613C34.0902 23.35 34.164 23.3218 34.2324 23.2793C34.2521 23.2671 34.2785 23.2536 34.2998 23.2363V23.2354C34.3649 23.181 34.437 23.1869 34.5195 23.2119C34.6236 23.2437 34.6974 23.3119 34.751 23.4072C34.8246 23.5381 34.8512 23.6831 34.8604 23.834C34.8644 23.9054 34.8654 23.9773 34.8535 24.0449C34.8283 24.1886 34.7091 24.294 34.5625 24.3096C34.5272 24.3131 34.4911 24.3144 34.4561 24.3145C34.2845 24.315 34.1125 24.3154 33.9414 24.3154H33.4062C33.3756 24.3154 33.3454 24.3132 33.3164 24.3086L33.2314 24.2852C33.1011 24.2287 33.0326 24.1278 33.0244 23.9883C33.0148 23.8196 33.0335 23.6544 33.0938 23.4971C33.1399 23.3768 33.2083 23.2785 33.3271 23.2266C33.3799 23.2039 33.4349 23.1925 33.4912 23.1934L33.5459 23.2119Z" fill="#2A89FF" stroke="#0668E1" style="fill:#2A89FF;fill:color(display-p3 0.1633 0.5377 1.0000);fill-opacity:1;stroke:#0668E1;stroke:color(display-p3 0.0235 0.4078 0.8824);stroke-opacity:1;" stroke-width="0.051096"/>
<path d="M33.9248 22.0879C34.214 22.0879 34.4463 22.3197 34.4463 22.6094C34.4463 22.8986 34.2145 23.1299 33.9248 23.1299C33.6353 23.1297 33.4043 22.899 33.4043 22.6094C33.4043 22.3197 33.6353 22.0881 33.9248 22.0879Z" fill="#2A89FF" stroke="#0668E1" style="fill:#2A89FF;fill:color(display-p3 0.1633 0.5377 1.0000);fill-opacity:1;stroke:#0668E1;stroke:color(display-p3 0.0235 0.4078 0.8824);stroke-opacity:1;" stroke-width="0.051096"/>
</g>
<g clip-path="url(#clip4_20318_67016)">
<path d="M30.6514 41.7822C30.6685 41.7915 30.6858 41.8022 30.7031 41.8135C30.7202 41.8245 30.7379 41.8368 30.7559 41.8477C30.8653 41.9143 30.9842 41.9502 31.1162 41.9316C31.1957 41.9203 31.2695 41.8921 31.3379 41.8496C31.3576 41.8374 31.384 41.824 31.4053 41.8066V41.8057C31.4704 41.7513 31.5424 41.7572 31.625 41.7822C31.7291 41.814 31.8028 41.8822 31.8564 41.9775C31.9301 42.1085 31.9566 42.2535 31.9658 42.4043C31.9699 42.4757 31.9708 42.5476 31.959 42.6152C31.9338 42.7589 31.8145 42.8643 31.668 42.8799C31.6327 42.8834 31.5966 42.8848 31.5615 42.8848C31.3899 42.8853 31.218 42.8857 31.0469 42.8857H30.5117C30.481 42.8857 30.4509 42.8835 30.4219 42.8789L30.3369 42.8555C30.2065 42.799 30.1381 42.6981 30.1299 42.5586C30.1203 42.3899 30.139 42.2247 30.1992 42.0674C30.2453 41.9471 30.3138 41.8488 30.4326 41.7969C30.4854 41.7742 30.5403 41.7628 30.5967 41.7637L30.6514 41.7822Z" fill="#2A89FF" stroke="#0668E1" style="fill:#2A89FF;fill:color(display-p3 0.1633 0.5377 1.0000);fill-opacity:1;stroke:#0668E1;stroke:color(display-p3 0.0235 0.4078 0.8824);stroke-opacity:1;" stroke-width="0.051096"/>
<path d="M31.0342 40.6602C31.3234 40.6602 31.5557 40.8919 31.5557 41.1816C31.5556 41.4708 31.3239 41.7021 31.0342 41.7021C30.7446 41.7019 30.5137 41.4712 30.5137 41.1816C30.5137 40.892 30.7447 40.6604 31.0342 40.6602Z" fill="#2A89FF" stroke="#0668E1" style="fill:#2A89FF;fill:color(display-p3 0.1633 0.5377 1.0000);fill-opacity:1;stroke:#0668E1;stroke:color(display-p3 0.0235 0.4078 0.8824);stroke-opacity:1;" stroke-width="0.051096"/>
</g>
<g clip-path="url(#clip5_20318_67016)">
<path d="M26.9482 23.2119C26.9654 23.2212 26.9827 23.2319 27 23.2432C27.017 23.2542 27.0348 23.2665 27.0527 23.2773C27.1621 23.344 27.2811 23.3799 27.4131 23.3613C27.4925 23.35 27.5664 23.3218 27.6348 23.2793C27.6544 23.2671 27.6809 23.2536 27.7021 23.2363V23.2354C27.7673 23.181 27.8393 23.1869 27.9219 23.2119C28.0259 23.2437 28.0997 23.3119 28.1533 23.4072C28.227 23.5381 28.2535 23.6831 28.2627 23.834C28.2668 23.9054 28.2677 23.9773 28.2559 24.0449C28.2306 24.1886 28.1114 24.294 27.9648 24.3096C27.9295 24.3131 27.8935 24.3144 27.8584 24.3145C27.6868 24.315 27.5149 24.3154 27.3438 24.3154H26.8086C26.7779 24.3154 26.7478 24.3132 26.7188 24.3086L26.6338 24.2852C26.5034 24.2287 26.435 24.1278 26.4268 23.9883C26.4172 23.8196 26.4359 23.6544 26.4961 23.4971C26.5422 23.3768 26.6107 23.2785 26.7295 23.2266C26.7822 23.2039 26.8372 23.1925 26.8936 23.1934L26.9482 23.2119Z" fill="#2A89FF" stroke="#0668E1" style="fill:#2A89FF;fill:color(display-p3 0.1633 0.5377 1.0000);fill-opacity:1;stroke:#0668E1;stroke:color(display-p3 0.0235 0.4078 0.8824);stroke-opacity:1;" stroke-width="0.051096"/>
<path d="M27.3311 22.0879C27.6203 22.0879 27.8525 22.3197 27.8525 22.6094C27.8525 22.8986 27.6208 23.1299 27.3311 23.1299C27.0415 23.1297 26.8106 22.899 26.8105 22.6094C26.8105 22.3197 27.0415 22.0881 27.3311 22.0879Z" fill="#2A89FF" stroke="#0668E1" style="fill:#2A89FF;fill:color(display-p3 0.1633 0.5377 1.0000);fill-opacity:1;stroke:#0668E1;stroke:color(display-p3 0.0235 0.4078 0.8824);stroke-opacity:1;" stroke-width="0.051096"/>
</g>
<g clip-path="url(#clip6_20318_67016)">
<path d="M24.7451 23.5732C24.8067 23.5921 24.8506 23.6331 24.8828 23.6904C24.9051 23.7301 24.9203 23.772 24.9307 23.8154L24.9492 23.9502C24.9517 23.9941 24.9515 24.0375 24.9443 24.0781C24.9295 24.1624 24.8601 24.2241 24.7734 24.2334C24.7518 24.2356 24.7294 24.2373 24.708 24.2373H24.0586C24.0211 24.2373 23.9861 24.2335 23.9541 24.2197C23.877 24.1863 23.837 24.1274 23.832 24.0449C23.8261 23.9416 23.8373 23.8401 23.874 23.7441C23.9021 23.671 23.9434 23.6128 24.0137 23.582C24.0293 23.5753 24.0453 23.5706 24.0615 23.5674L24.1113 23.5625C24.1187 23.5627 24.1286 23.567 24.1396 23.5732H24.1406C24.1508 23.5788 24.1612 23.5849 24.1719 23.5918C24.1822 23.5985 24.1929 23.6065 24.2041 23.6133C24.2732 23.6554 24.3492 23.6778 24.4336 23.666H24.4346C24.485 23.6587 24.5319 23.6412 24.5752 23.6143C24.5867 23.6072 24.6044 23.5982 24.6182 23.5869C24.6546 23.5564 24.6949 23.558 24.7451 23.5732Z" fill="#2A89FF" stroke="#0668E1" style="fill:#2A89FF;fill:color(display-p3 0.1633 0.5377 1.0000);fill-opacity:1;stroke:#0668E1;stroke:color(display-p3 0.0235 0.4078 0.8824);stroke-opacity:1;" stroke-width="0.051096"/>
<path d="M24.3848 22.8809C24.5584 22.8809 24.6982 23.0204 24.6982 23.1943C24.6981 23.3678 24.5586 23.5068 24.3848 23.5068C24.211 23.5067 24.0725 23.3681 24.0723 23.1943C24.0723 23.0204 24.211 22.881 24.3848 22.8809Z" fill="#2A89FF" stroke="#0668E1" style="fill:#2A89FF;fill:color(display-p3 0.1633 0.5377 1.0000);fill-opacity:1;stroke:#0668E1;stroke:color(display-p3 0.0235 0.4078 0.8824);stroke-opacity:1;" stroke-width="0.051096"/>
</g>
</g>
<defs>
<radialGradient id="paint0_radial_20318_67016" cx="0" cy="0" r="1" gradientUnits="userSpaceOnUse" gradientTransform="translate(30 30) rotate(90) scale(20)">
<stop stop-color="#D9EAFF" style="stop-color:#D9EAFF;stop-color:color(display-p3 0.8525 0.9185 1.0000);stop-opacity:1;"/>
<stop offset="1" stop-color="#CEE2FB" style="stop-color:#CEE2FB;stop-color:color(display-p3 0.8063 0.8855 0.9833);stop-opacity:1;"/>
</radialGradient>
<radialGradient id="paint1_radial_20318_67016" cx="0" cy="0" r="1" gradientUnits="userSpaceOnUse" gradientTransform="translate(31.1379 30.6058) rotate(-66.4958) scale(19.843)">
<stop offset="0.738847" stop-color="#03254F" style="stop-color:#03254F;stop-color:color(display-p3 0.0118 0.1451 0.3098);stop-opacity:1;"/>
<stop offset="0.855796" stop-color="#3991FE" style="stop-color:#3991FE;stop-color:color(display-p3 0.2218 0.5685 0.9967);stop-opacity:1;"/>
<stop offset="1" stop-color="#0056C1" style="stop-color:#0056C1;stop-color:color(display-p3 0.0000 0.3386 0.7567);stop-opacity:1;"/>
</radialGradient>
<clipPath id="clip0_20318_67016">
<rect x="10" y="10" width="40" height="40" rx="20" fill="white" style="fill:white;fill-opacity:1;"/>
</clipPath>
<clipPath id="clip1_20318_67016">
<rect width="4.08768" height="4.08768" fill="white" style="fill:white;fill-opacity:1;" transform="translate(28.5742 20.3164)"/>
</clipPath>
<clipPath id="clip2_20318_67016">
<rect width="1.53288" height="1.53288" fill="white" style="fill:white;fill-opacity:1;" transform="translate(35.5938 22.793)"/>
</clipPath>
<clipPath id="clip3_20318_67016">
<rect width="2.47619" height="2.47619" fill="white" style="fill:white;fill-opacity:1;" transform="translate(32.7031 21.9688)"/>
</clipPath>
<clipPath id="clip4_20318_67016">
<rect width="2.47619" height="2.47619" fill="white" style="fill:white;fill-opacity:1;" transform="translate(29.8086 40.543)"/>
</clipPath>
<clipPath id="clip5_20318_67016">
<rect width="2.47619" height="2.47619" fill="white" style="fill:white;fill-opacity:1;" transform="translate(26.1055 21.9688)"/>
</clipPath>
<clipPath id="clip6_20318_67016">
<rect width="1.53288" height="1.53288" fill="white" style="fill:white;fill-opacity:1;" transform="translate(23.625 22.793)"/>
</clipPath>
</defs>
</svg>
