<svg width="32" height="32" viewBox="0 0 32 32" fill="none" xmlns="http://www.w3.org/2000/svg">
<rect width="32" height="32" rx="8" fill="#E6F0FC" style="fill:#E6F0FC;fill:color(display-p3 0.9020 0.9412 0.9882);fill-opacity:1;"/>
<path d="M10 12C10 9.79 11.79 8 14 8C16.21 8 18 9.79 18 12C18 14.21 16.21 16 14 16C11.79 16 10 14.21 10 12ZM16 22.2C16 21.24 16.5 20.34 17.2 19.74V18.5C17.2 18.45 17.22 18.39 17.22 18.34C16.23 18.12 15.15 18 14 18C9.58 18 6 19.79 6 22V24H16V22.2ZM26 22.3V25.8C26 26.4 25.4 27 24.7 27H19.2C18.6 27 18 26.4 18 25.7V22.2C18 21.6 18.6 21 19.2 21V18.5C19.2 17.1 20.6 16 22 16C23.4 16 24.8 17.1 24.8 18.5V19H23.5V18.5C23.5 17.7 22.8 17.2 22 17.2C21.2 17.2 20.5 17.7 20.5 18.5V21H24.8C25.4 21 26 21.6 26 22.3Z" fill="#0668E1" style="fill:#0668E1;fill:color(display-p3 0.0235 0.4078 0.8824);fill-opacity:1;"/>
</svg>
