<svg xmlns="http://www.w3.org/2000/svg" width="228" height="228" fill="none" xmlns:v="https://vecta.io/nano"><g clip-path="url(#A)"><rect width="228" height="228" rx="12" fill="#eaf0ff"/><path fill-rule="evenodd" d="M124.563 198.238h12.077L113.998 223l-22.642-24.762h12.076l1.509-13.333h18.114l1.508 13.333zm17.826-29.575l21.42.052-3.02-2.858 33.208 6.667-22.642 5.714-3.018-2.857-22.674.07 4.56 9.453H77.771l4.56-9.453-22.67-.07-3.019 2.857L34 172.524l33.207-6.667-3.018 2.858 21.416-.052L88.337 163h51.32l2.732 5.663z" fill="#fff"/><g fill="#0668e1"><path d="M124.563 198.238l-.496.057.05.443h.446v-.5zm12.077 0l.369.338.765-.838h-1.134v.5zM113.998 223l-.369.337.369.404.369-.404-.369-.337zm-22.642-24.762v-.5h-1.135l.766.838.369-.338zm12.076 0v.5h.446l.05-.443-.496-.057zm1.509-13.333v-.5h-.446l-.05.444.496.056zm18.114 0l.497-.056-.051-.444h-.446v.5zm19.334-16.242l-.451.217.136.282.313.001.002-.5zm21.42.052l-.002.5 1.261.003-.916-.866-.343.363zm-3.02-2.858l.098-.49-1.705-.342 1.263 1.196.344-.364zm33.208 6.667l.122.485-.024-.975-.098.49zm-22.642 5.714l-.343.363.199.189.267-.067-.123-.485zm-3.018-2.857l.344-.363-.146-.138-.2.001.002.5zm-22.674.07l-.001-.5-.794.003.345.714.45-.217zm4.56 9.453v.5h.796l-.346-.717-.45.217zm-72.453 0l-.45-.217-.346.717h.796v-.5zm4.56-9.453l.45.217.345-.714-.794-.003-.001.5zm-22.67-.07l.002-.5-.2-.001-.145.138.344.363zm-3.019 2.857l-.122.485.266.067.2-.189-.344-.363zM34 172.524l-.098-.49-.024.975.122-.485zm33.207-6.667l.344.364 1.263-1.196-1.705.342.098.49zm-3.018 2.858l-.344-.363-.915.866 1.26-.003-.001-.5zm21.416-.052l.001.5.313-.001.136-.282-.45-.217zM88.337 163v-.5h-.314l-.136.283.45.217zm51.32 0l.451-.217-.137-.283h-.314v.5zm-15.094 35.238v.5h12.077v-.5-.5h-12.077v.5zm12.077 0l-.369-.337-22.642 24.762.369.337.369.337 22.642-24.761-.369-.338zM113.998 223l.369-.337-22.642-24.762-.369.337-.369.338 22.642 24.761.369-.337zm-22.642-24.762v.5h12.076v-.5-.5H91.356v.5zm12.076 0l.496.057 1.51-13.333-.497-.057-.496-.056-1.51 13.333.497.056zm1.509-13.333v.5h18.114v-.5-.5h-18.114v.5zm18.114 0l-.497.056 1.509 13.334.496-.057.497-.056-1.508-13.333-.497.056zm19.334-16.242l-.002.5 21.42.052.002-.5.001-.5-21.42-.052-.001.5zm21.42.052l.343-.363-3.019-2.858-.344.363-.344.364 3.02 2.857.344-.363zm-3.02-2.858l-.098.491 33.208 6.667.098-.491.098-.49-33.208-6.667-.098.49zm33.208 6.667l-.122-.484-22.642 5.713.122.485.123.485 22.641-5.714-.122-.485zm-22.642 5.714l.344-.363-3.018-2.857-.344.363-.344.363 3.019 2.857.343-.363zm-3.018-2.857l-.002-.5-22.673.07.001.5.002.5 22.673-.07-.001-.5zm-22.674.07l-.45.217 4.559 9.454.451-.218.45-.217-4.56-9.453-.45.217zm4.56 9.453v-.5H77.771v.5.5h72.453v-.5zm-72.453 0l.45.218 4.56-9.454-.45-.217-.45-.217-4.559 9.453.45.217zm4.56-9.453l.001-.5-22.67-.07-.002.5-.002.5 22.67.07.002-.5zm-22.67-.07l-.344-.363-3.019 2.857.344.363.344.363 3.019-2.857-.344-.363zm-3.019 2.857l.122-.485-22.642-5.713-.122.484-.122.485 22.642 5.714.122-.485zM34 172.524l.098.491 33.207-6.667-.099-.491-.098-.49-33.207 6.667.098.49zm33.207-6.667l-.344-.363-3.019 2.858.344.363.344.363 3.019-2.857-.344-.364zm-3.018 2.858l.001.5 21.416-.052-.001-.5-.001-.5-21.416.052.001.5zm21.416-.052l.45.217 2.732-5.663-.45-.217-.45-.217-2.732 5.663.45.217zM88.337 163v.5h51.32v-.5-.5h-51.32v.5zm51.32 0l-.45.217 2.731 5.663.451-.217.45-.217-2.731-5.663-.451.217z"/><path opacity=".4" d="M136 166H92l-7 15h57l-6-15z"/></g><path d="M118.032 18.401s1.605 3.334.138 6.939l-2.201-.363.231-5.247 1.832-1.329z" fill="#071a22"/><path d="M104.107 166.521l-.056 2.592s3.962.428 6.815-.535l-.257-2.761-6.502.704z" fill="#ffa98f"/><path d="M98.647 175.781s-.431 4.111 4.393 3.04c4.83-1.071 5.631-3.774 5.94-4.392.222-.445 1.176-1.818 1.698-2.306.222-.208.349-.48.357-.769l.048-1.292-12.436 5.719z" fill="#bfbfbf"/><path d="M111.007 167.847s-2.177 2.864-6.941-.12c0 0-1.825 2.176-3.218 3.269-1.546 1.209-4.516 6.703.431 6.591s6.715-3.296 6.715-3.296 1.454-2.392 2.539-2.816c.814-.324.474-3.628.474-3.628z" fill="#061728"/><path d="M125.811 166.521l.056 2.592s-3.963.428-6.815-.535l.257-2.761 6.502.704z" fill="#ffa98f"/><path d="M131.267 175.781s.432 4.111-4.393 3.04-5.631-3.774-5.94-4.392c-.222-.445-1.176-1.818-1.698-2.306-.222-.208-.349-.48-.357-.769l-.048-1.292 12.436 5.719z" fill="#bfbfbf"/><path d="M118.911 167.847s2.177 2.864 6.941-.12c0 0 1.825 2.176 3.218 3.269 1.546 1.209 4.516 6.703-.431 6.591s-6.715-3.296-6.715-3.296-1.454-2.392-2.539-2.816c-.814-.324-.474-3.628-.474-3.628z" fill="#061728"/><path d="M102.04 166.247s5.877 1.213 10.144 0c-.817-9.298-.228-20.63-1.349-34.093-1.119-13.43-.683-34.498-.683-34.498s3.412 14.05 4.915 23.178c2.89 17.554 3.414 45.413 3.414 45.413s4.234 2.156 8.465 0c.685-8.624 1.097-21.429 1.092-35.171-.005-13.584 1.019-23.496.374-34.528-.41-7.007-1.867-13.984-1.867-13.984s-10.298 1.528-16.939 1.482c-6.16-.042-15.702-1.482-15.702-1.482s-.898 8.365-.956 13.745c-.171 15.831 6.554 40.022 6.554 40.022l2.538 29.916z" fill="#05387d"/><path d="M128.822 43.072l-4.584 16.349-.546 1.941-.009.028c-.768 2.934-1.716 7.376-1.998 12.311-.19 3.366.434 16.891.434 16.891s-6.938 2.575-17.317 1.922c0 0-11.166-.258-10.255-7.064 2.41-18.013.051-25.435-.264-27.247l-2.6-16.077c3.141-1.163 16.564-5.647 16.564-5.647l6.952.515c.004.005 10.569 2.594 13.622 6.079z" fill="#fff"/><g fill="#ffa98f"><path d="M111.04 12.899s6.42.713 5.953 11.327c-.125 2.883-.26 4.223-1.659 7.345-.992 2.212-5.339 3.205-6.2 3.108-.832-.092-4.486-1.026-5.393-3.352-1.193-3.072-1.915-4.893-1.716-10.08.005 0 .703-9.363 9.015-8.347z"/><path d="M115.334 30.546c-.349 2.413-.416 5.95 0 6.898s-6.588 3.412-10.229 0c0 0 .736-5.22.509-6.898s9.974-1.749 9.72 0z"/><path d="M105.113 37.535s1.818 3.151 5.269 3.445c2.188.189 4.084-2.571 4.972-3.923 0 0-4.903-2.088-10.241.478z"/></g><path d="M110.381 39.803l1.985 2.277s-2.294 1.012-3.835.023l1.85-2.3z" fill="#05387d"/><path d="M94.172 93.747s8.515 3.123 27.767.179l-.255-3.468s-11.161 3.275-27.17.469l-.342 2.819z" fill="#071a22"/><g fill="#0745b4"><path d="M115.351 37.057s-1.989 14.785-1.716 27.537 9.963 35.916 9.963 35.916 4.237-4.07 6.078-6.379c0 0-6.591-18.915-6.471-22.327s7.443-29.174 7.443-29.174-4.075-2.64-15.297-5.574zm-10.687.622l-.259 26.916c-.273 12.752-1.961 36.495-1.961 36.495s-9.482-1.494-11.328-3.798c0 0 3.839-22.074 3.719-25.486S88.66 43.294 88.66 43.294s3.525-2.304 16.004-5.615zm6.353 53.849h-5.232v3.868h5.232v-3.868z"/></g><path d="M109.64 41.582s-2.336 7.928-2.54 23.674.287 20.262.287 20.262l1.822 3.587 2.429-3.743-.329-43.504-1.669-.276z" fill="#05387d"/><path d="M123.068 100.645s.569-.377.727-.649l.439-.865.167-.267c.185-.248.684-.74.943-1.439s.477-3.95.477-3.95l-2.008-.584-1.785-.782s-3.909 2.98-4.237 3.605a1.49 1.49 0 0 0-.083.184c-.218.552-.111 1.044-.185 1.343-.028.11-.213 1.228.05 1.476.366.345.782.455 1.148.4 0 0 .749.648 1.461.704 0 0 .671.617 1.582.47 0 .004.759.561 1.304.354z" fill="#ffa98f"/><g fill="#0745b4"><path d="M120.504 91.751a21.07 21.07 0 0 0 6.513 3.647s12.821-20.543 12.979-22.019c.148-1.361-6.471-28.99-9.358-30.747L125.393 57.9c.347-.101 5.079 11.727 5.102 13.231.032 2.019-9.991 20.621-9.991 20.621zM85.25 72.505c-1.939-.347-3.117-1.142-4.198-2.775-.854-1.291-.887-2.344-1.049-3.816-.148-1.361 4.899-21.161 9.098-22.895l4.749 15.424c-.347-.101-.905 10.246-3.004 12.327-1.619 1.606-3.343 2.137-5.597 1.734z"/></g><path d="M117.206 94.652l8.099 4.171-3.183 5.859-6.892-7.326 1.976-2.704z" fill="#05387d"/><g stroke="#0a1726" stroke-width=".168" stroke-miterlimit="10"><path d="M103.704 75.421l-2.017-15.245 1.836-2.189-2.386-.184 2.752-18.62m11.57 35.143l1.471-14.15-1.836-1.003 1.744-1.278-1.101-19.811"/></g><g fill="#6aa8e5"><path d="M105.945 36.482s1.767 2.198 4.44 3.32l-3.057 3.881-3.918-5.721 2.535-1.481z"/><path d="M114.726 36.06s-1.387 1.807-4.343 3.739l2.895 3.307 3.997-5.629-2.549-1.416z"/></g><path d="M102.739 19.082c-.687 1.531-.699 2.43-.699 2.43-1.847-2.881-1.398-5.515-1.398-6.887-.001-.699.177-1.119.698-1.439-1.477-.768-.041-1.64.699-2.081.586-.348 1.749-.348 1.749-.348s.744-.244 1.4-.692c.899-.615 1.752-.52 2.448-.693 1.073-.267.996-.432 2.099-.348 1.349.103 1.412.389 2.832.663 1.893.229 6.105 1.262 7.809 3.567 2.13 2.881.994 8.094.568 9.603-.341 1.207-3.512 5.247-4.911 6.981.35-2.081.368-6.185.368-6.295s.122-2.459-.02-3.419-1.374-1.374-1.749-2.428c-.201-.566-1.049-.94-2.798-1.387-1.191-.305-2.23 0-3.498 0-.862 0-1.749-.694-2.799-.694s-1.619.939-2.098 1.387-.272 1.127-.7 2.081z" fill="#071a22"/><g fill="#ffa98f"><path d="M102.65 23.353s-2.137-.207-1.767 2.373 2.914 1.895 2.914 1.895l-1.147-4.268zm14.432-.801c.983.294 1.703.757 1.399 2.082-.349 1.521-1.398 2.429-2.556 1.876-.925-.441-.653-1.624-.32-2.586.284-.821.639-1.622 1.477-1.371z"/></g><g fill="#000"><path d="M103.515 19.972a8.09 8.09 0 0 1 3.524-.115l.056-.28c-1.189-.23-2.452-.188-3.65.115l.07.28zm6.96-.191c1.184-.152 2.396-.046 3.51.318l.088-.271c-1.152-.373-2.41-.488-3.635-.327l.037.281z"/></g><path d="M105.543 28.463l4.524-.014s-.023 1.95-2.364 1.867c-.652-.023-1.998-.556-2.16-1.854z" fill="#e5f4f6"/><g fill="#000"><path d="M107.781 26.643h-.028c-.185.005-.379-.005-.532-.129-.25-.198-.236-.566-.203-.823l.074-.621.402-2.865.208.055c-.129.497-.291 1.904-.398 2.838l-.074.626c-.027.207-.041.497.125.63.093.073.222.087.389.078a5.36 5.36 0 0 0 1.498-.267l.07.202a5.42 5.42 0 0 1-1.531.276zm-1.949-4.244c.023.391-.199.727-.495.754s-.55-.267-.574-.658.199-.727.495-.754.551.267.574.658zm6.457-.001c.023.391-.199.727-.495.754s-.55-.267-.574-.658.199-.727.495-.754.555.267.574.658z"/></g><g stroke-width=".168" stroke-miterlimit="10" stroke="#183862"><use href="#B"/><path d="M111.105 25.245c1.134 0 2.053-1.104 2.053-2.465s-.919-2.465-2.053-2.465-2.054 1.104-2.054 2.465.919 2.465 2.054 2.465z"/><path d="M106.727 22.323l2.266-.032m-6.25.608l-.7-1.388m14.344 1.041h-3.148"/></g><path d="M114.637 31.225c-3.555 2.924-6.97 2.555-8.234 2.005-.392 1.297-.314 3.632 3.137 2.594s4.836-3.498 5.097-4.599z" fill="#d68b6f"/><path d="M102.781 43.94c-.251.425-.569 1.129-.569 1.129l-.142-1.553.711-3.811-.996-3.105 1.566-2.399s2.127-.781 2.989 0c.459.416.553.816.711 1.411.199.746.114 1.213 0 1.976-.092.622-.284 1.206-.569 1.411-.407.294-.687.063-1.139.282-.249.121-.387.215-.569.423-.51.585.101 1.241-.142 1.976-.357 1.08-1.272 1.278-1.851 2.258z" fill="#d78a6e"/><path d="M96.234 42.81s1.85-.705 1.993-1.129c.427-1.27.06-2.868.427-4.658.277-1.35.359-2.163.996-3.388.654-1.254 1.003-1.911 2.278-2.54.473-.234 1.85-.565 3.131-.565.401 0 .96.31.996.706.032.352-.218.648-.569.706-.854.141-1.631.002-2.42.423-.727.388-1.423 1.27-1.423 1.27s.986-.662 1.708-.847c.638-.163 1.565-.141 2.277 0 1.029.204 1.85.377 1.993.988.075.322-.111.742-.427.847-.427.141-.799-.34-1.851-.424-.893-.071-2.277.282-2.277.282s1.333-.127 1.993.283c.509.317.858.43 1.138.988 0 0 .694.824.285 1.129-.379.283-1.139-.282-1.139-.282s-.481-.441-.854-.565c-.182-.06-.86.03-1.262.092.324-.035.846-.042 1.262.19.721.402 2.135 1.411 1.851 1.976s-.997.141-1.281-.141c-.318-.316-.419-.457-.854-.565-.569-.141-1.17.228-1.281.847-.132.73.737.697.996 1.27.277.612.536 1.071.285 1.694-.285.706-1.566 2.117-1.566 2.117l-.711 2.541-5.694-3.246z" fill="#ffa98f"/><path d="M96.373 42.246L80.574 64.688c-.712 3.105.312 5.022 2.276 6.775 1.424 1.27 6.594 1.395 7.972-1.27l12.098-24.277-6.547-3.67z" fill="#0745b4"/><g stroke="#000" stroke-width=".173"><path d="M82.449 61.751l13.992-19.426 6.297 3.469-9.095 18.732"/><g stroke-linecap="round"><path d="M128.975 45.1c-1.166 2.313-3.498 7.215-3.498 8.325 0 1.388.349 5.203.699 5.897m4.898 11.795s2.076-1.146 3.498-1.041c1.342.099 3.148 1.388 3.148 1.388"/></g></g></g><defs><clipPath id="A"><rect width="228" height="228" rx="12" fill="#fff"/></clipPath><path id="B" d="M104.64 25.306c1.134 0 2.053-1.104 2.053-2.465s-.919-2.465-2.053-2.465-2.054 1.104-2.054 2.465.919 2.465 2.054 2.465z"/></defs></svg>