<svg width="32" height="32" viewBox="0 0 32 32" fill="none" xmlns="http://www.w3.org/2000/svg">
<g clip-path="url(#clip0_19311_60607)">
<path d="M15.7943 31C14.4384 31 13.2766 30.5705 12.3354 29.7282C11.3546 28.846 10.8346 27.6641 10.8346 26.3057C10.8346 24.9474 11.3546 23.7655 12.3354 22.8833C12.4802 22.7534 12.6316 22.6336 12.7862 22.5204H11.562V20.8557C11.562 18.8848 11.789 17.3367 12.2597 16.1182C12.75 14.8497 13.5465 13.7411 14.6325 12.8222C15.406 12.1664 15.9885 11.5771 16.3637 11.0677C16.6039 10.7414 16.7191 10.4118 16.7191 10.029C16.7191 8.98691 16.5118 8.9869 16.0609 8.9869C15.8108 8.9869 15.7087 9.05349 15.6001 9.18333C15.4125 9.40972 15.3072 9.7826 15.2941 10.2886L15.2513 11.91H6L6.01646 10.2287C6.04608 7.36555 6.98075 5.07502 8.79414 3.4237C10.5615 1.81567 13.0067 1 16.0609 1C19.0788 1 21.4945 1.75241 23.2421 3.23727C25.0719 4.79203 26 6.98935 26 9.76262C26 11.0044 25.7466 12.1597 25.2496 13.1951C24.779 14.1772 24.0352 15.1727 23.038 16.1515L20.9745 18.0958C20.5927 18.4653 20.3229 18.8449 20.1846 19.2044C20.076 19.4874 19.9444 20.0101 19.9213 20.9023L19.8786 22.5237H18.8024C18.9571 22.6336 19.1084 22.7534 19.2533 22.8833C20.234 23.7655 20.754 24.9507 20.754 26.3057C20.754 27.6641 20.234 28.846 19.2533 29.7282C18.312 30.5705 17.1502 31 15.7943 31Z" fill="white" style="fill:white;fill-opacity:1;"/>
<path d="M13.2057 20.8552C13.2057 19.1106 13.3998 17.7323 13.7915 16.7235C14.1798 15.7148 14.8117 14.8392 15.6871 14.0968C16.5626 13.3543 17.2241 12.6785 17.6815 12.0626C18.1357 11.4467 18.3628 10.7708 18.3628 10.0284C18.3628 8.22393 17.596 7.3217 16.059 7.3217C15.3515 7.3217 14.7788 7.58471 14.3411 8.11074C13.9034 8.63676 13.673 9.3459 13.65 10.2448H7.66016C7.68319 7.85439 8.42698 5.99333 9.89152 4.66162C11.3561 3.32992 13.4097 2.66406 16.0557 2.66406C18.6886 2.66406 20.7291 3.27998 22.1772 4.50847C23.6253 5.7403 24.346 7.4915 24.346 9.75872C24.346 10.7508 24.1518 11.6531 23.7602 12.4654C23.3719 13.2778 22.7433 14.1101 21.881 14.9557L19.8438 16.8734C19.2646 17.436 18.8631 18.012 18.6393 18.6046C18.4155 19.1972 18.2904 19.9463 18.2674 20.8552H13.2057ZM12.4783 26.3052C12.4783 25.4196 12.7943 24.6938 13.4262 24.1278C14.0581 23.5619 14.8479 23.2755 15.7925 23.2755C16.737 23.2755 17.5269 23.5585 18.1588 24.1278C18.7906 24.6971 19.1066 25.4229 19.1066 26.3052C19.1066 27.1908 18.7906 27.9165 18.1588 28.4825C17.5269 29.0518 16.737 29.3348 15.7925 29.3348C14.8479 29.3348 14.0581 29.0518 13.4262 28.4825C12.7943 27.9132 12.4783 27.1874 12.4783 26.3052Z" fill="#0072FF" style="fill:#0072FF;fill:color(display-p3 0.0000 0.4475 1.0000);fill-opacity:1;"/>
</g>
<defs>
<clipPath id="clip0_19311_60607">
<rect width="32" height="32" fill="white" style="fill:white;fill-opacity:1;"/>
</clipPath>
</defs>
</svg>
