<svg width="24" height="24" viewBox="0 0 24 24" fill="none" xmlns="http://www.w3.org/2000/svg">
<circle cx="12" cy="12" r="12" fill="#CED8F2" style="fill:#CED8F2;fill:color(display-p3 0.8078 0.8471 0.9490);fill-opacity:1;"/>
<mask id="mask0_20392_80430" style="mask-type:alpha" maskUnits="userSpaceOnUse" x="0" y="0" width="24" height="24">
<path d="M12 24C18.6274 24 24 18.6274 24 12C24 5.37258 18.6274 0 12 0C5.37258 0 0 5.37258 0 12C0 18.6274 5.37258 24 12 24Z" fill="white" style="fill:white;fill-opacity:1;"/>
</mask>
<g mask="url(#mask0_20392_80430)">
<path d="M23.832 23.9904C22.6704 20.7038 20.448 16.1312 19.5888 15.6514L17.6352 20.6654C17.4 20.2335 18.4464 22.2247 19.3152 23.9904H23.832Z" fill="#FFA98F" style="fill:#FFA98F;fill:color(display-p3 1.0000 0.6627 0.5608);fill-opacity:1;"/>
<path d="M6.05297 23.9903H17.1458C17.2658 23.4241 17.4002 22.9155 17.5154 22.4981C17.5154 22.4933 17.5154 22.4933 17.5154 22.4885L17.5202 22.4789C17.6018 22.1958 17.6786 21.9511 17.741 21.7544L19.5986 15.6368C18.3602 14.3318 13.8386 13.2138 13.8386 13.2138L12.9506 13.1226C11.6114 12.9835 10.5506 12.9835 8.96177 13.4345C7.40177 13.8759 5.40017 14.5045 4.54097 15.2818C2.39537 17.2346 5.59697 21.2986 5.59697 21.2986C5.65937 21.6249 5.91857 22.4549 6.05297 23.9903Z" fill="#0568E0" style="fill:#0568E0;fill:color(display-p3 0.0196 0.4078 0.8784);fill-opacity:1;"/>
<path d="M4.58374 23.9909C5.02054 22.6427 5.47654 21.3616 5.54854 21.3808L4.37734 15.292C3.48934 15.791 1.26694 20.6179 0.210938 23.9909H4.58374Z" fill="#FFA98F" style="fill:#FFA98F;fill:color(display-p3 1.0000 0.6627 0.5608);fill-opacity:1;"/>
<path d="M4.7712 23.9902C4.8384 23.7311 4.9056 23.496 4.9536 23.3425C4.9584 23.3425 4.9584 23.3425 4.9632 23.3472C4.92 23.5632 4.9152 23.7791 4.9296 23.995H18.2688C18.384 23.4912 18.5232 23.045 18.576 22.8243C18.5856 22.8243 18.5856 22.8243 18.5808 22.8243H18.5856C18.6528 23.0114 18.8256 23.5104 19.0176 23.9998H23.424C23.4672 23.9854 23.5056 23.971 23.544 23.9566C23.8992 23.8367 24.0816 23.472 23.9472 23.1457C22.7232 20.1277 20.4576 16.083 20.0688 15.6175C18.9936 14.3508 15.5088 13.6071 15.336 13.5592C14.832 13.4296 14.328 13.3097 13.8144 13.2041C13.4496 13.9958 12.6432 15.2001 12.1776 16.2557C11.3568 15.1473 10.1856 13.9094 9.864 13.2041C9.3552 13.3097 8.8464 13.4248 8.3424 13.5592C8.1696 13.6023 4.6848 14.346 3.6096 15.6175C3.048 16.2749 1.6224 18.8227 0.5424 21.8886C0.4704 22.1141 0.3216 22.8003 0 23.9902H4.7712Z" fill="#3886E8" style="fill:#3886E8;fill:color(display-p3 0.2196 0.5255 0.9098);fill-opacity:1;"/>
<path d="M4.95703 23.3428C4.96663 23.3476 4.97623 23.3476 4.95703 23.3428V23.3428Z" fill="#3886E8" style="fill:#3886E8;fill:color(display-p3 0.2196 0.5255 0.9098);fill-opacity:1;"/>
<path d="M10.1255 23.9904C10.3895 20.3247 11.3495 16.2799 11.3639 16.2223L11.2823 16.2031C11.2679 16.2607 10.3031 20.3151 10.0391 23.9904H10.1255Z" fill="white" style="fill:white;fill-opacity:1;"/>
<path d="M11.7422 23.9913C11.4878 21.3811 11.7182 16.2088 11.723 16.1464L11.6366 16.1416C11.627 16.3959 11.4014 21.4051 11.6558 23.9865H11.7422V23.9913Z" fill="white" style="fill:white;fill-opacity:1;"/>
<path d="M11.6098 16.457C13.4416 16.457 14.9266 15.5161 14.9266 14.3555C14.9266 13.1948 13.4416 12.2539 11.6098 12.2539C9.77795 12.2539 8.29297 13.1948 8.29297 14.3555C8.29297 15.5161 9.77795 16.457 11.6098 16.457Z" fill="#3886E8" style="fill:#3886E8;fill:color(display-p3 0.2196 0.5255 0.9098);fill-opacity:1;"/>
<path d="M14.8289 13.7705C14.9873 14.3463 14.8913 15.0036 14.4977 15.4498C14.4593 15.5122 14.3921 15.5554 14.3441 15.6082C14.2865 15.6562 14.2433 15.7137 14.1761 15.7521C14.0513 15.8289 13.9361 15.9248 13.7969 15.9824C13.6625 16.0448 13.5329 16.1168 13.3841 16.1504L13.1729 16.2175L13.0673 16.2511L12.9569 16.2703L12.5201 16.3567C12.3713 16.3759 12.2225 16.3855 12.0737 16.4047L11.8529 16.4286C11.7809 16.4334 11.7041 16.4286 11.6321 16.4286L11.4113 16.4238C11.3393 16.419 11.2625 16.4143 11.1905 16.4047C10.8929 16.3711 10.6001 16.3135 10.3121 16.2223C10.0241 16.136 9.75049 16.016 9.49609 15.8481C9.98569 16.2079 10.5809 16.3855 11.1761 16.467C11.2529 16.4766 11.3249 16.4862 11.4017 16.491L11.6273 16.4958C11.7041 16.4958 11.7809 16.5006 11.8529 16.4958L12.0785 16.4766C12.2273 16.4622 12.3809 16.4526 12.5297 16.4334L12.9761 16.3471L13.0865 16.3231L13.1969 16.2895L13.4129 16.2223C13.5617 16.1839 13.6961 16.112 13.8305 16.0448C13.9745 15.9872 14.0897 15.8865 14.2193 15.8049C14.2865 15.7665 14.3345 15.7041 14.3921 15.6562C14.4449 15.5986 14.5073 15.5554 14.5505 15.4882C14.7521 15.2531 14.8625 14.9556 14.9105 14.6582C14.9489 14.3655 14.9249 14.0536 14.8289 13.7705Z" fill="#226CBC" style="fill:#226CBC;fill:color(display-p3 0.1333 0.4235 0.7373);fill-opacity:1;"/>
<path d="M8.59338 13.5068C8.46858 13.6268 8.37258 13.7707 8.29578 13.9291C8.21898 14.0874 8.17578 14.2601 8.17578 14.4377C8.17578 14.5288 8.19498 14.6152 8.21418 14.7016C8.24778 14.7831 8.27658 14.8695 8.33418 14.9367C8.38218 15.0134 8.44938 15.071 8.50698 15.1334C8.57418 15.191 8.64618 15.2341 8.71818 15.2821C8.59338 15.1622 8.46858 15.047 8.38698 14.9031C8.30058 14.7639 8.25258 14.6008 8.25738 14.4377C8.25258 14.2745 8.29578 14.1114 8.35338 13.9531C8.41098 13.7995 8.49258 13.6508 8.59338 13.5068Z" fill="#226CBC" style="fill:#226CBC;fill:color(display-p3 0.1333 0.4235 0.7373);fill-opacity:1;"/>
<path d="M13.498 10.7094L10.8772 7.69141L9.68204 10.5559L9.88844 11.146L9.64844 13.2428C10.5796 14.9029 13.1092 14.6966 13.5076 13.689L13.498 10.7094Z" fill="#FFA98F" style="fill:#FFA98F;fill:color(display-p3 1.0000 0.6627 0.5608);fill-opacity:1;"/>
<path d="M14.6082 6.02136C15.3138 7.11053 15.597 9.61513 14.565 11.4144C14.1234 12.1821 11.8194 12.1437 11.0994 11.5152C10.4706 10.9682 9.42898 7.71509 10.245 6.77466C11.0514 5.82944 13.8594 4.43799 14.6082 6.02136Z" fill="#FFA98F" style="fill:#FFA98F;fill:color(display-p3 1.0000 0.6627 0.5608);fill-opacity:1;"/>
<path d="M11.2619 7.10592C11.1083 7.03395 10.9691 6.94758 10.8299 6.85642C10.3211 6.51575 9.84113 6.08872 9.53873 5.57533C9.50993 5.52255 9.48113 5.46977 9.45233 5.41699C9.38993 5.44578 9.32753 5.47457 9.26993 5.50816C8.73713 5.81523 8.35793 6.34302 8.26673 6.91879C8.18993 7.3938 8.12753 8.18069 8.62673 8.67489C8.86193 8.91 9.10193 9.16909 9.20273 9.47617L9.73073 10.6997C9.73073 10.6997 10.3115 10.1815 10.3739 10.1191C10.5995 9.8984 10.6571 9.6441 10.8203 9.38981C11.2427 8.74686 11.4587 7.87361 11.5739 7.24986C11.4779 7.20188 11.3675 7.1539 11.2619 7.10592Z" fill="#061728" style="fill:#061728;fill:color(display-p3 0.0235 0.0902 0.1569);fill-opacity:1;"/>
<path d="M11.2326 9.03536C11.0742 8.84344 10.8726 8.63232 10.6278 8.64192C10.503 8.64672 10.3926 8.71869 10.3158 8.80985C9.92225 9.27526 10.0134 10.0574 10.5606 10.3932C10.791 10.5324 11.0838 10.5755 11.2326 10.3116L11.2902 9.1745C11.3046 9.13132 11.2662 9.07854 11.2326 9.03536Z" fill="#FFA98F" style="fill:#FFA98F;fill:color(display-p3 1.0000 0.6627 0.5608);fill-opacity:1;"/>
<path d="M13.5428 11.9854C13.5236 11.9854 11.8388 12.1534 10.9844 11.299L11.042 11.251C11.8724 12.0766 13.5188 11.9182 13.5332 11.9134L13.5428 11.9854Z" fill="#061728" style="fill:#061728;fill:color(display-p3 0.0235 0.0902 0.1569);fill-opacity:1;"/>
<path d="M13.3876 9.70718L13.3828 9.63521L13.6372 9.61601C13.738 9.60642 13.8292 9.55844 13.8868 9.47687C13.9444 9.4001 13.9588 9.29934 13.9252 9.21297L13.5652 8.19098L13.6372 8.16699L13.9972 9.18898C14.0356 9.29934 14.0164 9.41929 13.9492 9.51525C13.8772 9.61122 13.7668 9.67359 13.642 9.68319L13.3876 9.70718Z" fill="#061728" style="fill:#061728;fill:color(display-p3 0.0235 0.0902 0.1569);fill-opacity:1;"/>
<path d="M12.6772 8.17162C12.7108 8.24362 12.7108 8.34922 12.7156 8.40682C12.73 8.51722 12.6052 8.57962 12.4948 8.55562C12.2884 8.50762 12.3028 8.06602 12.5524 8.08042C12.6148 8.08522 12.6532 8.12362 12.6772 8.17162Z" fill="#061728" style="fill:#061728;fill:color(display-p3 0.0235 0.0902 0.1569);fill-opacity:1;"/>
<path d="M14.5405 8.13256C14.5741 8.20456 14.5741 8.31016 14.5789 8.36776C14.5933 8.47816 14.4685 8.54056 14.3581 8.51656C14.1517 8.46856 14.1661 8.02696 14.4157 8.04136C14.4829 8.04616 14.5165 8.07976 14.5405 8.13256Z" fill="#061728" style="fill:#061728;fill:color(display-p3 0.0235 0.0902 0.1569);fill-opacity:1;"/>
<path d="M14.0907 10.1766L12.5547 9.99902C12.5547 9.99902 12.7083 10.8582 13.3035 10.911C13.9947 10.9782 14.0907 10.1766 14.0907 10.1766Z" fill="white" style="fill:white;fill-opacity:1;"/>
<path d="M14.153 5.98287L15.0938 7.11042C15.0938 7.11042 14.7242 5.74297 14.3786 5.56064C14.033 5.37831 14.153 5.98287 14.153 5.98287Z" fill="#061728" style="fill:#061728;fill:color(display-p3 0.0235 0.0902 0.1569);fill-opacity:1;"/>
<path d="M11.013 10.4884C10.629 10.5412 10.3074 10.2244 10.293 10.2052L10.3506 10.1572C10.3554 10.162 10.749 10.5508 11.1474 10.3732L11.181 10.4356C11.1234 10.4644 11.0658 10.4836 11.013 10.4884Z" fill="#061728" style="fill:#061728;fill:color(display-p3 0.0235 0.0902 0.1569);fill-opacity:1;"/>
<path d="M10.0126 4.69297C9.47501 4.83692 9.23981 4.91848 8.99501 5.09122C8.78861 5.23516 8.30861 5.70537 8.30861 6.09401C8.30381 6.78014 9.75341 7.3799 11.0494 7.3751C11.2942 7.3751 11.7742 7.26955 12.4606 7.06323C13.9726 6.61221 15.6478 5.75335 15.2542 3.95887C15.2542 3.95887 15.0382 4.32832 14.7694 4.3859C14.7694 4.3859 15.1246 3.21996 13.723 2.625C13.7998 2.65859 13.2334 3.31592 13.195 3.34471C12.6574 3.81972 12.1294 4.14119 11.6254 4.31872C11.1406 4.48666 11.1406 4.39549 10.0126 4.69297Z" fill="#061728" style="fill:#061728;fill:color(display-p3 0.0235 0.0902 0.1569);fill-opacity:1;"/>
<path d="M11.9258 7.63457C11.9594 7.55297 12.0266 7.48577 12.1034 7.43297C12.1802 7.38017 12.2714 7.34657 12.3674 7.33217C12.5594 7.29857 12.7706 7.36097 12.8858 7.50017C12.7898 7.50017 12.7082 7.49537 12.6266 7.50017C12.5498 7.50017 12.473 7.50977 12.401 7.51937C12.2522 7.54817 12.1082 7.59137 11.9258 7.63457Z" fill="#061728" style="fill:#061728;fill:color(display-p3 0.0235 0.0902 0.1569);fill-opacity:1;"/>
<path d="M14.0273 7.42782C14.0369 7.35102 14.0849 7.28862 14.1425 7.24062C14.2049 7.19262 14.2865 7.15902 14.3681 7.15422C14.4497 7.14942 14.5361 7.16382 14.6081 7.19742C14.6465 7.21182 14.6753 7.24062 14.7041 7.25982C14.7329 7.28862 14.7569 7.31262 14.7761 7.34622C14.7329 7.35102 14.6993 7.34622 14.6609 7.34622C14.6273 7.34622 14.5937 7.34142 14.5601 7.34142C14.4977 7.33662 14.4401 7.34142 14.3873 7.34622C14.2817 7.35102 14.1809 7.37982 14.0273 7.42782Z" fill="#061728" style="fill:#061728;fill:color(display-p3 0.0235 0.0902 0.1569);fill-opacity:1;"/>
</g>
<mask id="mask1_20392_80430" style="mask-type:alpha" maskUnits="userSpaceOnUse" x="0" y="0" width="24" height="24">
<path d="M12 24C18.6274 24 24 18.6274 24 12C24 5.37258 18.6274 0 12 0C5.37258 0 0 5.37258 0 12C0 18.6274 5.37258 24 12 24Z" fill="white" style="fill:white;fill-opacity:1;"/>
</mask>
<g mask="url(#mask1_20392_80430)">
</g>
</svg>
