<svg width="24" height="24" viewBox="0 0 24 24" fill="none" xmlns="http://www.w3.org/2000/svg">
<circle cx="12" cy="12" r="9.5" stroke="#0668E1" style="stroke:#0668E1;stroke:color(display-p3 0.0235 0.4078 0.8824);stroke-opacity:1;"/>
<path d="M13.3623 9.67105C13.3623 9.29386 13.2259 8.99123 12.9531 8.76316C12.6804 8.53509 12.3188 8.42105 11.8682 8.42105C11.5905 8.42105 11.3392 8.47596 11.1143 8.58579C10.8894 8.69561 10.6954 8.85561 10.5322 9.06579C10.379 9.26754 10.1706 9.38386 9.90701 9.41473C9.64344 9.44561 9.41608 9.38193 9.22491 9.22368C9.09083 9.10965 9.0167 8.9693 9.00253 8.80263C8.98836 8.63596 9.03375 8.47807 9.13872 8.32895C9.44519 7.90789 9.83556 7.58123 10.3098 7.34895C10.7841 7.11667 11.3036 7.00035 11.8682 7C12.7972 7 13.5515 7.24123 14.1312 7.72368C14.7108 8.20614 15.0004 8.83772 15 9.61842C15 10.0132 14.909 10.3684 14.727 10.6842C14.5451 11 14.2099 11.3728 13.7214 11.8026C13.3671 12.1096 13.1276 12.3488 13.0031 12.52C12.8786 12.6912 12.7972 12.8863 12.7589 13.1053C12.7206 13.3158 12.6223 13.4912 12.4641 13.6316C12.3059 13.7719 12.1169 13.8421 11.897 13.8421C11.6771 13.8421 11.488 13.7742 11.3298 13.6384C11.1716 13.5026 11.0925 13.3337 11.0925 13.1316C11.0925 12.7895 11.1739 12.476 11.3367 12.191C11.4995 11.9061 11.7725 11.6056 12.1556 11.2895C12.644 10.8947 12.9673 10.59 13.1255 10.3753C13.2838 10.1605 13.3627 9.92579 13.3623 9.67105ZM11.8682 17C11.5522 17 11.2817 16.897 11.0569 16.691C10.832 16.4851 10.7193 16.2372 10.719 15.9474C10.7186 15.6575 10.8312 15.4098 11.0569 15.2042C11.2825 14.9986 11.553 14.8954 11.8682 14.8947C12.1835 14.894 12.4542 14.9972 12.6802 15.2042C12.9062 15.4112 13.0187 15.6589 13.0175 15.9474C13.0164 16.2358 12.9039 16.4837 12.6802 16.691C12.4565 16.8984 12.1858 17.0014 11.8682 17Z" fill="#0668E1" style="fill:#0668E1;fill:color(display-p3 0.0235 0.4078 0.8824);fill-opacity:1;"/>
</svg>
