<svg width="40" height="40" viewBox="0 0 40 40" fill="none" xmlns="http://www.w3.org/2000/svg">
<rect width="40" height="40" rx="20" fill="#F1F1F1" style="fill:#F1F1F1;fill:color(display-p3 0.9451 0.9451 0.9451);fill-opacity:1;"/>
<path d="M20.0013 11.668C24.6038 11.668 28.3346 15.3988 28.3346 20.0013C28.3346 24.6038 24.6038 28.3346 20.0013 28.3346C15.3988 28.3346 11.668 24.6038 11.668 20.0013C11.668 15.3988 15.3988 11.668 20.0013 11.668ZM20.0013 23.3346C19.7803 23.3346 19.5683 23.4224 19.412 23.5787C19.2558 23.735 19.168 23.947 19.168 24.168C19.168 24.389 19.2558 24.6009 19.412 24.7572C19.5683 24.9135 19.7803 25.0013 20.0013 25.0013C20.2223 25.0013 20.4343 24.9135 20.5906 24.7572C20.7468 24.6009 20.8346 24.389 20.8346 24.168C20.8346 23.947 20.7468 23.735 20.5906 23.5787C20.4343 23.4224 20.2223 23.3346 20.0013 23.3346ZM20.0013 15.418C19.2001 15.418 18.4318 15.7362 17.8653 16.3028C17.2987 16.8693 16.9805 17.6376 16.9805 18.4388C16.9805 18.6598 17.0683 18.8718 17.2245 19.0281C17.3808 19.1843 17.5928 19.2721 17.8138 19.2721C18.0348 19.2721 18.2468 19.1843 18.4031 19.0281C18.5593 18.8718 18.6471 18.6598 18.6471 18.4388C18.6474 18.193 18.7146 17.9519 18.8415 17.7414C18.9683 17.5308 19.1501 17.3588 19.3673 17.2437C19.5845 17.1287 19.8289 17.0749 20.0744 17.0881C20.3198 17.1014 20.557 17.1812 20.7606 17.319C20.9641 17.4568 21.1263 17.6475 21.2297 17.8704C21.3332 18.0934 21.374 18.3403 21.3477 18.5847C21.3215 18.8292 21.2293 19.0618 21.0809 19.2578C20.9325 19.4537 20.7336 19.6056 20.5055 19.6971C19.9421 19.9221 19.168 20.4988 19.168 21.4596V21.668C19.168 21.889 19.2558 22.1009 19.412 22.2572C19.5683 22.4135 19.7803 22.5013 20.0013 22.5013C20.2223 22.5013 20.4343 22.4135 20.5906 22.2572C20.7468 22.1009 20.8346 21.889 20.8346 21.668C20.8346 21.4646 20.8763 21.363 21.0521 21.2763L21.1246 21.243C21.7753 20.9812 22.3147 20.5013 22.6502 19.8854C22.9858 19.2695 23.0967 18.5561 22.9639 17.8675C22.8311 17.1788 22.4629 16.5578 21.9223 16.1109C21.3818 15.664 20.7027 15.419 20.0013 15.418Z" fill="#9F9F9F" style="fill:#9F9F9F;fill:color(display-p3 0.6235 0.6235 0.6235);fill-opacity:1;"/>
</svg>
