<svg width="24" height="24" viewBox="0 0 24 24" fill="none" xmlns="http://www.w3.org/2000/svg">
<circle cx="12" cy="12" r="12" fill="#CED8F2" style="fill:#CED8F2;fill:color(display-p3 0.8078 0.8471 0.9490);fill-opacity:1;"/>
<mask id="mask0_20392_80492" style="mask-type:alpha" maskUnits="userSpaceOnUse" x="0" y="0" width="24" height="24">
<path d="M12 24C18.6274 24 24 18.6274 24 12C24 5.37258 18.6274 0 12 0C5.37258 0 0 5.37258 0 12C0 18.6274 5.37258 24 12 24Z" fill="#CED8F2" style="fill:#CED8F2;fill:color(display-p3 0.8078 0.8471 0.9490);fill-opacity:1;"/>
</mask>
<g mask="url(#mask0_20392_80492)">
<mask id="mask1_20392_80492" style="mask-type:luminance" maskUnits="userSpaceOnUse" x="0" y="0" width="24" height="25">
<path d="M24 0.283203H0V24.5664H24V0.283203Z" fill="white" style="fill:white;fill-opacity:1;"/>
</mask>
<g mask="url(#mask1_20392_80492)">
<path d="M14.8321 4.78027C14.8321 4.78027 15.4033 5.9991 14.8801 7.31622L14.0977 7.18353L14.1793 5.26682L14.8321 4.78027Z" fill="#071A22" style="fill:#071A22;fill:color(display-p3 0.0275 0.1020 0.1333);fill-opacity:1;"/>
<path d="M6.73416 27.0928H16.1374C16.1134 26.1983 16.1086 25.4022 16.1278 24.9992C16.2286 23.1955 16.5646 21.5688 16.8334 20.5072C16.8334 20.5023 16.8334 20.5023 16.8334 20.5023L16.8382 20.4925C16.9102 20.2172 16.9774 19.9764 17.0302 19.7847L18.6574 13.8086C17.5726 12.5308 13.8238 11.5871 13.8238 11.5871L11.3566 11.4004C11.3566 11.4004 6.59016 13.0419 5.47656 13.4645C5.86056 16.143 6.39816 19.3424 6.39816 19.3424C6.50376 19.9174 7.16136 22.0897 6.73416 27.0928Z" fill="white" style="fill:white;fill-opacity:1;"/>
<path d="M12.5973 2.76968C12.5973 2.76968 14.8773 3.03015 14.7093 6.91271C14.6661 7.96936 14.6853 8.69181 14.3493 9.29139C13.6629 10.5151 12.2229 10.7658 11.9157 10.7314C11.6181 10.697 10.3221 10.3579 10.0005 9.50272C9.57807 8.37727 9.31887 7.7138 9.39087 5.81675C9.39567 5.82166 9.64527 2.39617 12.5973 2.76968Z" fill="#FFA98F" style="fill:#FFA98F;fill:color(display-p3 1.0000 0.6627 0.5608);fill-opacity:1;"/>
<path d="M13.6515 9.61117C13.6515 9.61117 13.5699 11.1986 13.7139 11.5475C13.8627 11.8916 11.7795 12.9875 10.4883 11.7392C10.4883 11.7392 10.7523 9.83232 10.6707 9.218C10.5891 8.60858 13.6515 9.61117 13.6515 9.61117Z" fill="#FFA98F" style="fill:#FFA98F;fill:color(display-p3 1.0000 0.6627 0.5608);fill-opacity:1;"/>
<path d="M10.2422 11.7739C10.2422 11.7739 10.8902 12.9239 12.1142 13.032C12.8918 13.1008 13.5638 12.0934 13.8806 11.597C13.8806 11.6019 12.1382 10.8352 10.2422 11.7739Z" fill="#FFA98F" style="fill:#FFA98F;fill:color(display-p3 1.0000 0.6627 0.5608);fill-opacity:1;"/>
<path d="M12.1146 12.6035L12.8202 13.4341C12.8202 13.4341 12.0042 13.8027 11.457 13.4439L12.1146 12.6035Z" fill="#05387D" style="fill:#05387D;fill:color(display-p3 0.0196 0.2196 0.4902);fill-opacity:1;"/>
<path d="M14.2163 27.0925H17.2787C16.9235 25.8344 16.6547 24.7335 16.6691 24.301C16.7123 23.0527 19.3091 13.6363 19.3091 13.6363C19.3091 13.6363 17.8643 12.673 13.8803 11.5967C13.8803 11.5967 13.1747 17.0028 13.2707 21.6668C13.2995 23.2099 13.6979 25.166 14.2163 27.0925Z" fill="#0745B4" style="fill:#0745B4;fill:color(display-p3 0.0275 0.2706 0.7059);fill-opacity:1;"/>
<path d="M6.29834 27.093H9.77354C9.87434 25.1517 9.96074 23.1957 9.98954 21.6672C10.0855 17.0032 10.0807 11.8281 10.0807 11.8281C5.65034 13.0371 4.40234 13.8824 4.40234 13.8824C4.40234 13.8824 6.55274 23.0581 6.59594 24.3064C6.61034 24.6995 6.48074 25.7906 6.29834 27.093Z" fill="#0745B4" style="fill:#0745B4;fill:color(display-p3 0.0275 0.2706 0.7059);fill-opacity:1;"/>
<path d="M12.5179 27.0926C12.4459 23.2198 12.3259 15.3368 12.4411 13.3513L11.8459 13.248C11.8459 13.248 11.0155 16.1477 10.9435 21.9027C10.9147 24.2666 10.9243 25.9376 10.9483 27.0876H12.5179V27.0926Z" fill="#05387D" style="fill:#05387D;fill:color(display-p3 0.0196 0.2196 0.4902);fill-opacity:1;"/>
<path d="M19.2549 24.0548C19.2597 24.3545 18.6741 25.652 17.9781 27.092H21.4725C22.1253 25.9518 22.6101 25.0524 22.6293 24.8755C22.6821 24.3791 20.3301 14.2746 19.3077 13.6357L17.4453 19.2188C17.5653 19.1844 19.2453 23.5043 19.2549 24.0548Z" fill="#0745B4" style="fill:#0745B4;fill:color(display-p3 0.0275 0.2706 0.7059);fill-opacity:1;"/>
<path d="M1.93359 27.0924H5.08239C5.14479 26.4584 5.18319 26.0062 5.18799 25.8637C5.19759 25.3133 6.11439 19.4796 6.23439 19.5189L4.40559 13.8818C3.38319 14.5257 1.89039 25.0724 1.94319 25.5737C1.95279 25.6917 1.94799 26.2716 1.93359 27.0924Z" fill="#0745B4" style="fill:#0745B4;fill:color(display-p3 0.0275 0.2706 0.7059);fill-opacity:1;"/>
<path d="M9.70586 25.6327L8.98586 20.0399L9.60026 19.288L8.78906 19.2241L9.77306 12.3682L9.84986 12.3829L8.88026 19.1454L9.76346 19.2142L9.07226 20.0645L9.78746 25.6229L9.70586 25.6327Z" fill="#0A1726" style="fill:#0A1726;fill:color(display-p3 0.0392 0.0902 0.1490);fill-opacity:1;"/>
<path d="M13.9557 25.2303L13.8741 25.2205L14.3925 20.0749L13.7109 19.6916L14.3637 19.2001L13.9749 11.9805L14.0565 11.9756L14.4453 19.2394L13.8597 19.6817L14.4789 20.0307V20.0552L13.9557 25.2303Z" fill="#0A1726" style="fill:#0A1726;fill:color(display-p3 0.0392 0.0902 0.1490);fill-opacity:1;"/>
<path d="M10.5391 11.3906C10.5391 11.3906 11.1679 12.1966 12.1135 12.6045L11.0287 14.0249L9.63672 11.9312L10.5391 11.3906Z" fill="#6AA8E5" style="fill:#6AA8E5;fill:color(display-p3 0.4157 0.6588 0.8980);fill-opacity:1;"/>
<path d="M13.6541 11.2383C13.6541 11.2383 13.1597 11.8968 12.1133 12.6045L13.1405 13.8135L14.5565 11.7543L13.6541 11.2383Z" fill="#6AA8E5" style="fill:#6AA8E5;fill:color(display-p3 0.4157 0.6588 0.8980);fill-opacity:1;"/>
<path d="M10.0303 4.90306C10.1023 4.87357 10.1743 4.83917 10.2463 4.81951C10.4671 4.76054 10.6927 4.69665 10.9135 4.74579C11.1007 4.78511 11.2687 4.90797 11.4607 4.88832C11.6911 4.86866 11.8687 4.64258 11.9503 4.41651C12.0175 4.22484 12.0895 3.97911 12.2815 3.95945C12.5455 3.93488 12.6223 4.36245 12.8671 4.44109C12.9487 4.46566 13.0399 4.45091 13.1263 4.44109C13.3183 4.42634 13.5247 4.45583 13.6927 4.55904C13.8271 4.64258 13.9183 4.79002 13.9567 4.94729C14.0095 5.17828 14.1151 5.2864 14.3311 5.41418C14.6959 5.63534 15.0655 5.44858 15.3247 5.12422C15.3391 5.10456 15.3535 5.0849 15.3679 5.06524C15.6079 4.71139 15.5791 4.18061 15.2767 3.89065C15.1375 3.75795 15.1039 3.73829 14.9647 3.6056C14.6815 3.32546 14.6479 2.86349 14.4127 2.53421C13.9807 1.9248 13.1503 2.20001 12.5311 2.08698C12.2335 2.03292 11.9407 1.95428 11.6431 1.90514C11.1823 1.8265 10.6927 1.8265 10.2463 1.99851C9.49267 2.28356 9.23827 2.83892 9.01747 3.63509C8.79667 4.43126 7.72147 5.09965 9.34867 7.38986L9.79027 7.34072C9.79507 7.34563 9.35347 5.15371 10.0303 4.90306Z" fill="#071A22" style="fill:#071A22;fill:color(display-p3 0.0275 0.1020 0.1333);fill-opacity:1;"/>
<path d="M9.36636 6.58826C9.36636 6.58826 8.60796 6.51454 8.73756 7.45815C8.86716 8.40176 9.77436 8.15111 9.77436 8.15111L9.36636 6.58826Z" fill="#FFA98F" style="fill:#FFA98F;fill:color(display-p3 1.0000 0.6627 0.5608);fill-opacity:1;"/>
<path d="M14.7674 6.18982C14.7674 6.18982 15.5258 6.1161 15.3962 7.05971C15.2666 8.00332 14.3594 7.75267 14.3594 7.75267L14.7674 6.18982Z" fill="#FFA98F" style="fill:#FFA98F;fill:color(display-p3 1.0000 0.6627 0.5608);fill-opacity:1;"/>
<path d="M14.5279 5.38947C14.5279 5.38947 14.7007 6.46577 14.5039 7.01621L14.7727 7.06536C14.7727 7.06536 14.9119 6.31342 14.9263 6.05786C14.9359 5.86127 14.8447 5.2666 14.8447 5.2666L14.5279 5.38947Z" fill="#071A22" style="fill:#071A22;fill:color(display-p3 0.0275 0.1020 0.1333);fill-opacity:1;"/>
<path d="M10.4342 5.43895C10.8422 5.33083 11.279 5.31608 11.687 5.39963L11.7062 5.29643C11.2838 5.21288 10.8374 5.22762 10.4102 5.34066L10.4342 5.43895Z" fill="black" style="fill:black;fill-opacity:1;"/>
<path d="M12.8182 5.54671C13.2406 5.49265 13.6678 5.53196 14.0662 5.66466L14.0998 5.56636C13.6918 5.42876 13.2454 5.38944 12.8086 5.44841L12.8182 5.54671Z" fill="black" style="fill:black;fill-opacity:1;"/>
<path d="M11.4453 8.67191L13.0533 8.66699C13.0533 8.66699 13.0437 9.37961 12.2133 9.35013C11.9829 9.3403 11.5029 9.14371 11.4453 8.67191Z" fill="#E5F4F6" style="fill:#E5F4F6;fill:color(display-p3 0.8980 0.9569 0.9647);fill-opacity:1;"/>
<path d="M12.184 8.04855C12.1792 8.04855 12.1792 8.04855 12.1744 8.04855C12.1072 8.04855 12.04 8.04855 11.9872 8.00432C11.9008 7.9306 11.9056 7.79791 11.9152 7.70453C11.92 7.65047 11.9296 7.57183 11.9392 7.47846C11.9776 7.13443 12.0352 6.6184 12.0832 6.43164L12.16 6.4513C12.1168 6.63314 12.0592 7.14918 12.0208 7.48829C12.0112 7.58166 12.0016 7.6603 11.9968 7.71436C11.9872 7.78808 11.9824 7.8962 12.04 7.94535C12.0736 7.96992 12.1168 7.97483 12.1792 7.97483C12.3616 7.96992 12.5392 7.93552 12.712 7.87654L12.736 7.95026C12.5488 8.00432 12.3664 8.03872 12.184 8.04855Z" fill="black" style="fill:black;fill-opacity:1;"/>
<path d="M11.2463 6.74587C11.2559 6.88839 11.1743 7.01126 11.0735 7.02109C10.9679 7.03092 10.8767 6.92279 10.8719 6.78027C10.8623 6.63775 10.9439 6.51488 11.0447 6.50505C11.1455 6.50014 11.2367 6.60334 11.2463 6.74587Z" fill="black" style="fill:black;fill-opacity:1;"/>
<path d="M13.5353 6.74587C13.5449 6.88839 13.4633 7.01126 13.3625 7.02109C13.2569 7.03092 13.1657 6.92279 13.1609 6.78027C13.1513 6.63775 13.2329 6.51488 13.3337 6.50505C13.4393 6.50014 13.5305 6.60334 13.5353 6.74587Z" fill="black" style="fill:black;fill-opacity:1;"/>
<path d="M11.0688 7.85206C10.6464 7.85206 10.3008 7.4294 10.3008 6.90845C10.3008 6.3875 10.6464 5.96484 11.0688 5.96484C11.4912 5.96484 11.8368 6.3875 11.8368 6.90845C11.8368 7.4294 11.496 7.85206 11.0688 7.85206ZM11.0688 6.05331C10.6896 6.05331 10.3824 6.43665 10.3824 6.91337C10.3824 7.39009 10.6896 7.77343 11.0688 7.77343C11.448 7.77343 11.7552 7.39009 11.7552 6.91337C11.7552 6.43665 11.4528 6.05331 11.0688 6.05331Z" fill="#183862" style="fill:#183862;fill:color(display-p3 0.0941 0.2196 0.3843);fill-opacity:1;"/>
<path d="M13.3618 7.83155C12.9394 7.83155 12.5938 7.4089 12.5938 6.88794C12.5938 6.36699 12.9394 5.94434 13.3618 5.94434C13.7842 5.94434 14.1298 6.36699 14.1298 6.88794C14.1298 7.4089 13.789 7.83155 13.3618 7.83155ZM13.3618 6.02788C12.9826 6.02788 12.6754 6.41123 12.6754 6.88794C12.6754 7.36466 12.9826 7.748 13.3618 7.748C13.741 7.748 14.0482 7.36466 14.0482 6.88794C14.0482 6.41123 13.7458 6.02788 13.3618 6.02788Z" fill="#183862" style="fill:#183862;fill:color(display-p3 0.0941 0.2196 0.3843);fill-opacity:1;"/>
<path d="M11.8125 6.76528V6.67682C11.8461 6.67682 12.6141 6.66699 12.6141 6.66699V6.75054C12.6141 6.75054 11.8413 6.76528 11.8125 6.76528Z" fill="#183862" style="fill:#183862;fill:color(display-p3 0.0941 0.2196 0.3843);fill-opacity:1;"/>
<path d="M9.6137 6.51483L9.58984 6.59473L10.3059 6.81883L10.3298 6.73893L9.6137 6.51483Z" fill="#183862" style="fill:#183862;fill:color(display-p3 0.0941 0.2196 0.3843);fill-opacity:1;"/>
<path d="M14.6371 6.40809L14.0547 6.7207L14.0926 6.7947L14.675 6.48209L14.6371 6.40809Z" fill="#183862" style="fill:#183862;fill:color(display-p3 0.0941 0.2196 0.3843);fill-opacity:1;"/>
<path d="M12.1978 10.7554C11.5739 10.7554 11.161 10.4458 11.1562 10.4409L11.2043 10.3721C11.2139 10.377 12.0778 11.0257 13.1914 10.3917L13.2298 10.4654C12.8554 10.6817 12.5002 10.7554 12.1978 10.7554Z" fill="black" style="fill:black;fill-opacity:1;"/>
</g>
</g>
</svg>
