<svg width="32" height="32" viewBox="0 0 32 32" fill="none" xmlns="http://www.w3.org/2000/svg">
<circle cx="16" cy="16" r="16" fill="#CED8F2" style="fill:#CED8F2;fill:color(display-p3 0.8078 0.8471 0.9490);fill-opacity:1;"/>
<mask id="mask0_21698_28444" style="mask-type:alpha" maskUnits="userSpaceOnUse" x="0" y="0" width="32" height="32">
<path d="M16 32C24.8366 32 32 24.8366 32 16C32 7.16344 24.8366 0 16 0C7.16344 0 0 7.16344 0 16C0 24.8366 7.16344 32 16 32Z" fill="#CED8F2" style="fill:#CED8F2;fill:color(display-p3 0.8078 0.8471 0.9490);fill-opacity:1;"/>
</mask>
<g mask="url(#mask0_21698_28444)">
<mask id="mask1_21698_28444" style="mask-type:luminance" maskUnits="userSpaceOnUse" x="0" y="0" width="32" height="33">
<path d="M32 0.375H0V32.7526H32V0.375Z" fill="white" style="fill:white;fill-opacity:1;"/>
</mask>
<g mask="url(#mask1_21698_28444)">
<path d="M19.7722 6.375C19.7722 6.375 20.5338 8.0001 19.8362 9.75626L18.793 9.57934L18.9018 7.02373L19.7722 6.375Z" fill="#071A22" style="fill:#071A22;fill:color(display-p3 0.0275 0.1020 0.1333);fill-opacity:1;"/>
<path d="M8.97758 36.1224H21.5152C21.4832 34.9298 21.4768 33.8683 21.5024 33.3309C21.6368 30.926 22.0848 28.757 22.4432 27.3416C22.4432 27.3351 22.4432 27.3351 22.4432 27.3351L22.4496 27.322C22.5456 26.955 22.6352 26.6339 22.7056 26.3784L24.8752 18.4101C23.4288 16.7064 18.4304 15.4482 18.4304 15.4482L15.1408 15.1992C15.1408 15.1992 8.78558 17.3879 7.30078 17.9514C7.81278 21.5227 8.52958 25.7886 8.52958 25.7886C8.67038 26.5553 9.54718 29.4516 8.97758 36.1224Z" fill="white" style="fill:white;fill-opacity:1;"/>
<path d="M16.799 3.69421C16.799 3.69421 19.839 4.04151 19.615 9.21825C19.5574 10.6271 19.583 11.5904 19.135 12.3898C18.2198 14.0215 16.2998 14.3557 15.8902 14.3098C15.4934 14.2639 13.7654 13.8118 13.3366 12.6716C12.7734 11.171 12.4278 10.2864 12.5238 7.75697C12.5302 7.76352 12.863 3.19619 16.799 3.69421Z" fill="#FFA98F" style="fill:#FFA98F;fill:color(display-p3 1.0000 0.6627 0.5608);fill-opacity:1;"/>
<path d="M18.1981 12.8175C18.1981 12.8175 18.0893 14.9341 18.2813 15.3993C18.4797 15.858 15.7021 17.3193 13.9805 15.6549C13.9805 15.6549 14.3325 13.1124 14.2237 12.2933C14.1149 11.4807 18.1981 12.8175 18.1981 12.8175Z" fill="#FFA98F" style="fill:#FFA98F;fill:color(display-p3 1.0000 0.6627 0.5608);fill-opacity:1;"/>
<path d="M13.6562 15.6972C13.6562 15.6972 14.5202 17.2306 16.1522 17.3748C17.189 17.4665 18.085 16.1232 18.5074 15.4613C18.5074 15.4679 16.1842 14.4456 13.6562 15.6972Z" fill="#FFA98F" style="fill:#FFA98F;fill:color(display-p3 1.0000 0.6627 0.5608);fill-opacity:1;"/>
<path d="M16.1502 16.8086L17.091 17.916C17.091 17.916 16.003 18.4075 15.2734 17.9291L16.1502 16.8086Z" fill="#05387D" style="fill:#05387D;fill:color(display-p3 0.0196 0.2196 0.4902);fill-opacity:1;"/>
<path d="M18.9525 36.1259H23.0357C22.5621 34.4484 22.2037 32.9806 22.2229 32.4039C22.2805 30.7395 25.7429 18.1843 25.7429 18.1843C25.7429 18.1843 23.8165 16.8999 18.5045 15.4648C18.5045 15.4648 17.5637 22.673 17.6917 28.8916C17.7301 30.9492 18.2613 33.5572 18.9525 36.1259Z" fill="#0745B4" style="fill:#0745B4;fill:color(display-p3 0.0275 0.2706 0.7059);fill-opacity:1;"/>
<path d="M8.39519 36.1226H13.0288C13.1632 33.5343 13.2784 30.9262 13.3168 28.8883C13.4448 22.6697 13.4384 15.7695 13.4384 15.7695C7.53119 17.3815 5.86719 18.5086 5.86719 18.5086C5.86719 18.5086 8.73439 30.7428 8.79199 32.4072C8.81119 32.9314 8.63839 34.3861 8.39519 36.1226Z" fill="#0745B4" style="fill:#0745B4;fill:color(display-p3 0.0275 0.2706 0.7059);fill-opacity:1;"/>
<path d="M16.6893 36.1234C16.5933 30.9598 16.4333 20.449 16.5869 17.8017L15.7933 17.6641C15.7933 17.6641 14.6861 21.5302 14.5901 29.2036C14.5517 32.3555 14.5645 34.5835 14.5965 36.1169H16.6893V36.1234Z" fill="#05387D" style="fill:#05387D;fill:color(display-p3 0.0196 0.2196 0.4902);fill-opacity:1;"/>
<path d="M25.6745 32.0756C25.6809 32.4753 24.9001 34.2053 23.9721 36.1253H28.6313C29.5017 34.605 30.1481 33.4058 30.1737 33.1699C30.2441 32.5081 27.1081 19.0355 25.7449 18.1836L23.2617 25.6276C23.4217 25.5817 25.6617 31.3417 25.6745 32.0756Z" fill="#0745B4" style="fill:#0745B4;fill:color(display-p3 0.0275 0.2706 0.7059);fill-opacity:1;"/>
<path d="M2.57812 36.1257H6.77653C6.85973 35.2804 6.91093 34.6776 6.91733 34.4875C6.93013 33.7536 8.15252 25.9754 8.31252 26.0278L5.87413 18.5117C4.51093 19.3701 2.52052 33.4325 2.59092 34.1009C2.60372 34.2582 2.59733 35.0314 2.57812 36.1257Z" fill="#0745B4" style="fill:#0745B4;fill:color(display-p3 0.0275 0.2706 0.7059);fill-opacity:1;"/>
<path d="M12.9372 34.1783L11.9772 26.7212L12.7964 25.7186L11.7148 25.6334L13.0268 16.4922L13.1292 16.5118L11.8364 25.5286L13.014 25.6203L12.0924 26.7539L13.046 34.1652L12.9372 34.1783Z" fill="#0A1726" style="fill:#0A1726;fill:color(display-p3 0.0392 0.0902 0.1490);fill-opacity:1;"/>
<path d="M18.6077 33.6418L18.4989 33.6287L19.1901 26.7678L18.2812 26.2567L19.1517 25.6014L18.6333 15.9753L18.7421 15.9688L19.2605 25.6538L18.4796 26.2436L19.3053 26.7089V26.7416L18.6077 33.6418Z" fill="#0A1726" style="fill:#0A1726;fill:color(display-p3 0.0392 0.0902 0.1490);fill-opacity:1;"/>
<path d="M14.0548 15.1875C14.0548 15.1875 14.8932 16.2622 16.154 16.8061L14.7076 18.6998L12.8516 15.9083L14.0548 15.1875Z" fill="#6AA8E5" style="fill:#6AA8E5;fill:color(display-p3 0.4157 0.6588 0.8980);fill-opacity:1;"/>
<path d="M18.2067 14.9844C18.2067 14.9844 17.5475 15.8625 16.1523 16.8061L17.5219 18.4181L19.4099 15.6724L18.2067 14.9844Z" fill="#6AA8E5" style="fill:#6AA8E5;fill:color(display-p3 0.4157 0.6588 0.8980);fill-opacity:1;"/>
<path d="M13.3763 6.54132C13.4723 6.502 13.5683 6.45613 13.6643 6.42992C13.9587 6.35129 14.2595 6.2661 14.5539 6.33163C14.8035 6.38405 15.0275 6.54787 15.2835 6.52166C15.5907 6.49545 15.8275 6.19402 15.9363 5.89259C16.0259 5.63703 16.1219 5.30939 16.3779 5.28317C16.7299 5.25041 16.8323 5.82051 17.1587 5.92535C17.2675 5.95812 17.3891 5.93846 17.5043 5.92535C17.7603 5.90569 18.0355 5.94501 18.2595 6.08262C18.4387 6.19402 18.5603 6.3906 18.6115 6.6003C18.6819 6.90828 18.8227 7.05244 19.1107 7.22282C19.5971 7.51769 20.0899 7.26868 20.4355 6.8362C20.4547 6.80999 20.4739 6.78377 20.4931 6.75756C20.8131 6.28576 20.7747 5.57805 20.3715 5.19144C20.1859 5.01451 20.1411 4.9883 19.9555 4.81137C19.5779 4.43786 19.5331 3.82189 19.2195 3.38285C18.6435 2.5703 17.5363 2.93726 16.7107 2.78654C16.3139 2.71446 15.9235 2.60962 15.5267 2.54409C14.9123 2.43924 14.2595 2.43924 13.6643 2.66859C12.6595 3.04866 12.3203 3.78913 12.0259 4.85069C11.7315 5.91225 10.2979 6.80343 12.4675 9.85706L13.0563 9.79153C13.0627 9.79808 12.4739 6.87551 13.3763 6.54132Z" fill="#071A22" style="fill:#071A22;fill:color(display-p3 0.0275 0.1020 0.1333);fill-opacity:1;"/>
<path d="M12.4911 8.78695C12.4911 8.78695 11.4799 8.68866 11.6527 9.9468C11.8255 11.2049 13.0351 10.8708 13.0351 10.8708L12.4911 8.78695Z" fill="#FFA98F" style="fill:#FFA98F;fill:color(display-p3 1.0000 0.6627 0.5608);fill-opacity:1;"/>
<path d="M19.6924 8.2557C19.6924 8.2557 20.7036 8.15741 20.5308 9.41555C20.358 10.6737 19.1484 10.3395 19.1484 10.3395L19.6924 8.2557Z" fill="#FFA98F" style="fill:#FFA98F;fill:color(display-p3 1.0000 0.6627 0.5608);fill-opacity:1;"/>
<path d="M19.3679 7.18726C19.3679 7.18726 19.5983 8.62233 19.3359 9.35625L19.6943 9.42178C19.6943 9.42178 19.8799 8.41919 19.8991 8.07845C19.9119 7.81633 19.7903 7.02344 19.7903 7.02344L19.3679 7.18726Z" fill="#071A22" style="fill:#071A22;fill:color(display-p3 0.0275 0.1020 0.1333);fill-opacity:1;"/>
<path d="M13.9109 7.25324C14.4549 7.10907 15.0373 7.08942 15.5813 7.20081L15.6069 7.0632C15.0437 6.95181 14.4485 6.97146 13.8789 7.12218L13.9109 7.25324Z" fill="#2C2C2C" style="fill:#2C2C2C;fill:color(display-p3 0.1725 0.1725 0.1725);fill-opacity:1;"/>
<path d="M17.0948 7.39691C17.658 7.32483 18.2276 7.37725 18.7588 7.55418L18.8036 7.42312C18.2596 7.23964 17.6644 7.18722 17.082 7.26585L17.0948 7.39691Z" fill="#2C2C2C" style="fill:#2C2C2C;fill:color(display-p3 0.1725 0.1725 0.1725);fill-opacity:1;"/>
<path d="M15.2617 11.5651L17.4057 11.5586C17.4057 11.5586 17.3929 12.5088 16.2857 12.4694C15.9785 12.4563 15.3385 12.1942 15.2617 11.5651Z" fill="#E5F4F6" style="fill:#E5F4F6;fill:color(display-p3 0.8980 0.9569 0.9647);fill-opacity:1;"/>
<path d="M16.2479 10.7262C16.2415 10.7262 16.2415 10.7262 16.2351 10.7262C16.1455 10.7262 16.0559 10.7262 15.9855 10.6672C15.8703 10.5689 15.8767 10.392 15.8895 10.2675C15.8959 10.1954 15.9087 10.0906 15.9215 9.96607C15.9727 9.50737 16.0495 8.81932 16.1135 8.57031L16.2159 8.59652C16.1583 8.83898 16.0815 9.52703 16.0303 9.97917C16.0175 10.1037 16.0047 10.2085 15.9983 10.2806C15.9855 10.3789 15.9791 10.5231 16.0559 10.5886C16.1007 10.6214 16.1583 10.6279 16.2415 10.6279C16.4847 10.6214 16.7215 10.5755 16.9519 10.4968L16.9839 10.5951C16.7343 10.6672 16.4911 10.7131 16.2479 10.7262Z" fill="#2C2C2C" style="fill:#2C2C2C;fill:color(display-p3 0.1725 0.1725 0.1725);fill-opacity:1;"/>
<path d="M14.9924 8.99709C15.0052 9.18713 14.8964 9.35095 14.762 9.36405C14.6212 9.37716 14.4996 9.233 14.4932 9.04296C14.4804 8.85293 14.5892 8.68911 14.7236 8.67601C14.858 8.66945 14.9796 8.80706 14.9924 8.99709Z" fill="#2C2C2C" style="fill:#2C2C2C;fill:color(display-p3 0.1725 0.1725 0.1725);fill-opacity:1;"/>
<path d="M18.0471 8.99709C18.0599 9.18713 17.9511 9.35095 17.8167 9.36405C17.6759 9.37716 17.5543 9.233 17.5479 9.04296C17.5351 8.85293 17.6439 8.68911 17.7783 8.67601C17.9191 8.66945 18.0407 8.80706 18.0471 8.99709Z" fill="#2C2C2C" style="fill:#2C2C2C;fill:color(display-p3 0.1725 0.1725 0.1725);fill-opacity:1;"/>
<path d="M14.7545 10.4694C14.1913 10.4694 13.7305 9.90587 13.7305 9.21127C13.7305 8.51667 14.1913 7.95312 14.7545 7.95312C15.3177 7.95312 15.7785 8.51667 15.7785 9.21127C15.7785 9.90587 15.3241 10.4694 14.7545 10.4694ZM14.7545 8.07108C14.2489 8.07108 13.8393 8.5822 13.8393 9.21782C13.8393 9.85345 14.2489 10.3646 14.7545 10.3646C15.2601 10.3646 15.6697 9.85345 15.6697 9.21782C15.6697 8.5822 15.2665 8.07108 14.7545 8.07108Z" fill="#183862" style="fill:#183862;fill:color(display-p3 0.0941 0.2196 0.3843);fill-opacity:1;"/>
<path d="M17.817 10.4421C17.2538 10.4421 16.793 9.87853 16.793 9.18393C16.793 8.48933 17.2538 7.92578 17.817 7.92578C18.3802 7.92578 18.841 8.48933 18.841 9.18393C18.841 9.87853 18.3866 10.4421 17.817 10.4421ZM17.817 8.03718C17.3114 8.03718 16.9018 8.5483 16.9018 9.18393C16.9018 9.81955 17.3114 10.3307 17.817 10.3307C18.3226 10.3307 18.7322 9.81955 18.7322 9.18393C18.7322 8.5483 18.329 8.03718 17.817 8.03718Z" fill="#183862" style="fill:#183862;fill:color(display-p3 0.0941 0.2196 0.3843);fill-opacity:1;"/>
<path d="M15.75 9.02168V8.90373C15.7948 8.90373 16.8188 8.89062 16.8188 8.89062V9.00202C16.8188 9.00202 15.7884 9.02168 15.75 9.02168Z" fill="#183862" style="fill:#183862;fill:color(display-p3 0.0941 0.2196 0.3843);fill-opacity:1;"/>
<path d="M12.8209 8.68644L12.7891 8.79297L13.7438 9.09177L13.7756 8.98524L12.8209 8.68644Z" fill="#183862" style="fill:#183862;fill:color(display-p3 0.0941 0.2196 0.3843);fill-opacity:1;"/>
<path d="M19.5149 8.54802L18.7383 8.96484L18.7888 9.06351L19.5654 8.64669L19.5149 8.54802Z" fill="#183862" style="fill:#183862;fill:color(display-p3 0.0941 0.2196 0.3843);fill-opacity:1;"/>
<path d="M16.2599 14.3432C15.4279 14.3432 14.8775 13.9303 14.8711 13.9238L14.9351 13.832C14.9479 13.8386 16.0999 14.7036 17.5847 13.8582L17.6359 13.9565C17.1367 14.2449 16.6631 14.3432 16.2599 14.3432Z" fill="#2C2C2C" style="fill:#2C2C2C;fill:color(display-p3 0.1725 0.1725 0.1725);fill-opacity:1;"/>
</g>
</g>
</svg>
