<svg width="40" height="40" viewBox="0 0 40 40" fill="none" xmlns="http://www.w3.org/2000/svg">
<path d="M15.1756 9.07968C16.1722 6.16301 20.2022 6.07468 21.3839 8.81468L21.4839 9.08134L22.8289 13.0147C23.1372 13.9167 23.6353 14.7422 24.2896 15.4354C24.944 16.1286 25.7394 16.6734 26.6222 17.033L26.9839 17.168L30.9172 18.5113C33.8339 19.508 33.9222 23.538 31.1839 24.7197L30.9172 24.8197L26.9839 26.1647C26.0815 26.4727 25.2558 26.9707 24.5623 27.6251C23.8688 28.2795 23.3237 29.075 22.9639 29.958L22.8289 30.318L21.4856 34.253C20.4889 37.1697 16.4589 37.258 15.2789 34.5197L15.1756 34.253L13.8322 30.3197C13.5242 29.4173 13.0262 28.5915 12.3718 27.898C11.7174 27.2046 10.9219 26.6595 10.0389 26.2997L9.67891 26.1647L5.74558 24.8213C2.82724 23.8247 2.73891 19.7947 5.47891 18.6147L5.74558 18.5113L9.67891 17.168C10.581 16.8598 11.4064 16.3617 12.0996 15.7073C12.7928 15.0529 13.3376 14.2575 13.6972 13.3747L13.8322 13.0147L15.1756 9.07968ZM31.6639 3.33301C31.9757 3.33301 32.2813 3.42047 32.5458 3.58546C32.8104 3.75045 33.0234 3.98635 33.1606 4.26634L33.2406 4.46134L33.8239 6.17134L35.5356 6.75467C35.848 6.86083 36.122 7.05737 36.3226 7.31937C36.5233 7.58137 36.6416 7.89704 36.6627 8.22638C36.6838 8.55571 36.6066 8.88389 36.4409 9.16932C36.2753 9.45475 36.0286 9.68457 35.7322 9.82967L35.5356 9.90968L33.8256 10.493L33.2422 12.2047C33.1359 12.5171 32.9392 12.7908 32.6771 12.9913C32.415 13.1918 32.0993 13.31 31.77 13.3309C31.4407 13.3518 31.1125 13.2744 30.8272 13.1086C30.5419 12.9429 30.3122 12.6961 30.1672 12.3997L30.0872 12.2047L29.5039 10.4947L27.7922 9.91134C27.4798 9.80518 27.2059 9.60865 27.0052 9.34665C26.8045 9.08465 26.6862 8.76898 26.6651 8.43964C26.6441 8.1103 26.7212 7.78212 26.8869 7.4967C27.0525 7.21127 27.2992 6.98144 27.5956 6.83634L27.7922 6.75634L29.5022 6.17301L30.0856 4.46134C30.198 4.13205 30.4106 3.84619 30.6936 3.64384C30.9767 3.44149 31.316 3.3328 31.6639 3.33301Z" fill="url(#paint0_linear_24006_42898)"/>
<defs>
<linearGradient id="paint0_linear_24006_42898" x1="5.5" y1="11.5" x2="33.5" y2="35" gradientUnits="userSpaceOnUse">
<stop stop-color="#0072FF" style="stop-color:#0072FF;stop-color:color(display-p3 0.0000 0.4475 1.0000);stop-opacity:1;"/>
<stop offset="1" stop-color="#1E128C" style="stop-color:#1E128C;stop-color:color(display-p3 0.1188 0.0709 0.5500);stop-opacity:1;"/>
</linearGradient>
</defs>
</svg>
