<svg width="60" height="60" viewBox="0 0 60 60" fill="none" xmlns="http://www.w3.org/2000/svg">
<g clip-path="url(#clip0_22899_29661)">
<path d="M51.17 19.5821V22.9953C51.17 29.6403 50.0559 35.4507 47.8574 40.2628C46.0999 44.1096 43.6501 47.3315 40.5754 49.8403C35.4027 54.0593 30.3251 54.7952 30.0002 54.8385C29.6711 54.7944 24.5956 54.0572 19.4242 49.8403C16.3495 47.3315 13.9001 44.1096 12.1426 40.2628C9.94409 35.4503 8.8292 29.6403 8.8292 22.9953V14.9578L29.9998 5.4468L43.4114 11.4721L47.2605 7.75357L29.9998 0L4 11.6792V22.4789C4 30.094 5.29866 36.7977 7.85922 42.4024C9.95887 46.9996 12.8971 50.8592 16.5933 53.8736C22.9235 59.0374 29.3251 59.9114 29.5955 59.947L30.0002 59.998L30.4049 59.947C30.6749 59.9114 37.0761 59.0374 43.4063 53.8736C47.1025 50.8588 50.0415 46.9996 52.1416 42.4024C54.7013 36.7977 56 30.094 56 22.4789V11.9597L51.17 19.5816V19.5821Z" fill="#334860" style="fill:#334860;fill:color(display-p3 0.2000 0.2824 0.3765);fill-opacity:1;"/>
<path d="M54.3985 8.18827L33.042 41.891C31.7344 43.9525 28.8004 44.0541 27.3615 42.0836L13.7526 23.4754C13.1527 22.6537 14.0543 21.57 14.9529 22.0349L29.5195 29.5856L52.9393 6.96305C53.7555 6.17311 55.0098 7.22379 54.3985 8.18827Z" fill="#0668E1" style="fill:#0668E1;fill:color(display-p3 0.0235 0.4078 0.8824);fill-opacity:1;"/>
<path d="M55.9998 11.9629V22.4821C55.9998 30.0972 54.7011 36.8009 52.1414 42.4055C50.0413 47.0028 47.1018 50.8624 43.4061 53.8768C37.0759 59.0406 30.6743 59.9145 30.4047 59.9501L30 60.0012V54.8413C30.3245 54.798 35.4021 54.0625 40.5752 49.843C43.6499 47.3343 46.1002 44.1123 47.8572 40.2656C50.0557 35.453 51.1697 29.643 51.1697 22.998V19.5848L55.9998 11.9629Z" fill="#1E2F3F" style="fill:#1E2F3F;fill:color(display-p3 0.1176 0.1843 0.2471);fill-opacity:1;"/>
<path d="M47.2607 7.75357L43.4116 11.4721L30 5.4468V0L47.2607 7.75357Z" fill="#1E2F3F" style="fill:#1E2F3F;fill:color(display-p3 0.1176 0.1843 0.2471);fill-opacity:1;"/>
</g>
<defs>
<clipPath id="clip0_22899_29661">
<rect width="60" height="60" fill="white" style="fill:white;fill-opacity:1;"/>
</clipPath>
</defs>
</svg>
