<svg width="40" height="40" viewBox="0 0 40 40" fill="none" xmlns="http://www.w3.org/2000/svg">
<g clip-path="url(#clip0_21996_34380)">
<rect width="40" height="40" rx="8" fill="#E6F0FC" style="fill:#E6F0FC;fill:color(display-p3 0.9020 0.9412 0.9882);fill-opacity:1;"/>
<path d="M39.7334 39.9859C37.7967 34.4505 34.0914 26.7495 32.6589 25.9414L29.4017 34.3859C29.0096 33.6586 30.7542 37.0122 32.2027 39.9859H39.7334Z" fill="#FFA98F" style="fill:#FFA98F;fill:color(display-p3 1.0000 0.6627 0.5608);fill-opacity:1;"/>
<path d="M10.0909 39.9816H28.5855C28.7856 39.0281 29.0097 38.1715 29.2017 37.4685C29.2017 37.4604 29.2017 37.4604 29.2017 37.4523L29.2097 37.4361C29.3458 36.9594 29.4738 36.5472 29.5779 36.2159L32.675 25.9129C30.6102 23.7149 23.0715 21.832 23.0715 21.832L21.591 21.6785C19.3582 21.4442 17.5896 21.4442 14.9406 22.2038C12.3397 22.9472 9.00253 24.0058 7.57002 25.3149C3.99274 28.6038 9.33064 35.4483 9.33064 35.4483C9.43468 35.9977 9.86684 37.3957 10.0909 39.9816Z" fill="#0568E0" style="fill:#0568E0;fill:color(display-p3 0.0196 0.4078 0.8784);fill-opacity:1;"/>
<path d="M7.64411 39.9865C8.37237 37.7158 9.13264 35.5582 9.25269 35.5905L7.29999 25.3359C5.81946 26.1763 2.11414 34.3057 0.353516 39.9865H7.64411Z" fill="#FFA98F" style="fill:#FFA98F;fill:color(display-p3 1.0000 0.6627 0.5608);fill-opacity:1;"/>
<path d="M7.95483 39.9841C8.06687 39.5477 8.17892 39.1518 8.25894 38.8932C8.26695 38.8932 8.26695 38.8932 8.27495 38.9013C8.20292 39.2649 8.19492 39.6285 8.21893 39.9922H30.4589C30.6509 39.1437 30.883 38.3922 30.971 38.0204C30.987 38.0204 30.987 38.0204 30.979 38.0204H30.987C31.0991 38.3356 31.3872 39.176 31.7073 40.0003H39.0539C39.1259 39.976 39.19 39.9518 39.254 39.9275C39.8462 39.7255 40.1503 39.1114 39.9262 38.5619C37.8855 33.479 34.1082 26.6669 33.4599 25.883C31.6673 23.7497 25.8572 22.4971 25.5691 22.4163C24.7288 22.1982 23.8885 21.9961 23.0322 21.8184C22.424 23.1517 21.0795 25.18 20.3032 26.9578C18.9347 25.0911 16.9821 23.0062 16.4459 21.8184C15.5976 21.9961 14.7493 22.1901 13.909 22.4163C13.6209 22.4891 7.81078 23.7416 6.01814 25.883C5.08181 26.9901 2.70496 31.281 0.904322 36.4447C0.78428 36.8245 0.536191 37.98 0 39.9841H7.95483Z" fill="#3886E8" style="fill:#3886E8;fill:color(display-p3 0.2196 0.5255 0.9098);fill-opacity:1;"/>
<path d="M8.26953 38.8945C8.28553 38.9025 8.30153 38.9025 8.26953 38.8945V38.8945Z" fill="#3886E8" style="fill:#3886E8;fill:color(display-p3 0.2196 0.5255 0.9098);fill-opacity:1;"/>
<path d="M16.8784 39.9843C17.3184 33.8106 18.9184 26.9984 18.9424 26.9015L18.8064 26.8691C18.7824 26.9661 17.1744 33.7944 16.7344 39.9843H16.8784Z" fill="white" style="fill:white;fill-opacity:1;"/>
<path d="M19.5755 39.9839C19.1515 35.588 19.5355 26.8768 19.5435 26.7718L19.3995 26.7637C19.3835 27.192 19.0075 35.6284 19.4315 39.9759H19.5755V39.9839Z" fill="white" style="fill:white;fill-opacity:1;"/>
<path d="M19.36 27.2976C22.4142 27.2976 24.89 25.7129 24.89 23.7582C24.89 21.8034 22.4142 20.2188 19.36 20.2188C16.3059 20.2188 13.8301 21.8034 13.8301 23.7582C13.8301 25.7129 16.3059 27.2976 19.36 27.2976Z" fill="#3886E8" style="fill:#3886E8;fill:color(display-p3 0.2196 0.5255 0.9098);fill-opacity:1;"/>
<path d="M24.7212 22.7734C24.9853 23.7431 24.8253 24.8502 24.169 25.6017C24.105 25.7068 23.993 25.7795 23.913 25.8684C23.8169 25.9492 23.7449 26.0462 23.6329 26.1108C23.4248 26.2401 23.2327 26.4017 23.0006 26.4987C22.7766 26.6038 22.5605 26.725 22.3124 26.7815L21.9603 26.8947L21.7842 26.9512L21.6001 26.9836L20.8719 27.129C20.6238 27.1613 20.3757 27.1775 20.1276 27.2098L19.7595 27.2502C19.6394 27.2583 19.5114 27.2502 19.3913 27.2502L19.0232 27.2421C18.9032 27.2341 18.7751 27.226 18.6551 27.2098C18.1589 27.1533 17.6707 27.0563 17.1906 26.9027C16.7104 26.7573 16.2542 26.5553 15.8301 26.2724C16.6464 26.8785 17.6387 27.1775 18.6311 27.3149C18.7591 27.331 18.8792 27.3472 19.0072 27.3553L19.3833 27.3634C19.5114 27.3634 19.6394 27.3714 19.7595 27.3634L20.1356 27.331C20.3837 27.3068 20.6398 27.2906 20.8879 27.2583L21.6321 27.1128L21.8162 27.0724L22.0003 27.0159L22.3604 26.9027C22.6085 26.8381 22.8326 26.7169 23.0567 26.6038C23.2967 26.5068 23.4888 26.3371 23.7049 26.1997C23.8169 26.1351 23.897 26.03 23.993 25.9492C24.081 25.8522 24.1851 25.7795 24.2571 25.6664C24.5932 25.2704 24.7773 24.7694 24.8573 24.2684C24.9213 23.7755 24.8813 23.2502 24.7212 22.7734Z" fill="#226CBC" style="fill:#226CBC;fill:color(display-p3 0.1333 0.4235 0.7373);fill-opacity:1;"/>
<path d="M14.323 22.3301C14.115 22.5321 13.955 22.7745 13.827 23.0412C13.699 23.3079 13.627 23.5988 13.627 23.8978C13.627 24.0513 13.659 24.1968 13.691 24.3422C13.747 24.4796 13.795 24.625 13.891 24.7382C13.971 24.8675 14.083 24.9644 14.179 25.0695C14.291 25.1665 14.411 25.2392 14.531 25.32C14.323 25.118 14.115 24.924 13.979 24.6816C13.835 24.4473 13.755 24.1725 13.763 23.8978C13.755 23.623 13.827 23.3483 13.923 23.0816C14.019 22.823 14.155 22.5725 14.323 22.3301Z" fill="#226CBC" style="fill:#226CBC;fill:color(display-p3 0.1333 0.4235 0.7373);fill-opacity:1;"/>
<path d="M22.5042 17.6161L18.1347 12.5332L16.142 17.3575L16.4861 18.3514L16.0859 21.8827C17.6385 24.6787 21.856 24.3312 22.5202 22.6343L22.5042 17.6161Z" fill="#FFA98F" style="fill:#FFA98F;fill:color(display-p3 1.0000 0.6627 0.5608);fill-opacity:1;"/>
<path d="M24.3523 9.72006C25.5288 11.5544 26.0009 15.7726 24.2803 18.8029C23.5441 20.0959 19.7027 20.0312 18.5023 18.9726C17.4539 18.0514 15.7173 12.5726 17.0778 10.9888C18.4222 9.39683 23.1039 7.05339 24.3523 9.72006Z" fill="#FFA98F" style="fill:#FFA98F;fill:color(display-p3 1.0000 0.6627 0.5608);fill-opacity:1;"/>
<path d="M18.7736 11.5495C18.5176 11.4283 18.2855 11.2829 18.0534 11.1293C17.2051 10.5556 16.4048 9.8364 15.9006 8.97175C15.8526 8.88286 15.8046 8.79397 15.7566 8.70508C15.6525 8.75356 15.5485 8.80205 15.4525 8.85861C14.5641 9.37579 13.9319 10.2647 13.7799 11.2344C13.6518 12.0344 13.5478 13.3596 14.3801 14.192C14.7722 14.5879 15.1724 15.0243 15.3404 15.5415L16.2207 17.6021C16.2207 17.6021 17.1891 16.7294 17.2931 16.6243C17.6693 16.2526 17.7653 15.8243 18.0374 15.396C18.7416 14.3132 19.1018 12.8425 19.2938 11.792C19.1338 11.7112 18.9497 11.6303 18.7736 11.5495Z" fill="#061728" style="fill:#061728;fill:color(display-p3 0.0235 0.0902 0.1569);fill-opacity:1;"/>
<path d="M18.7276 14.796C18.4636 14.4727 18.1276 14.1172 17.7196 14.1333C17.5116 14.1414 17.3276 14.2626 17.1996 14.4162C16.5436 15.2 16.6956 16.5172 17.6076 17.0829C17.9916 17.3172 18.4796 17.3899 18.7276 16.9455L18.8236 15.0303C18.8476 14.9576 18.7836 14.8687 18.7276 14.796Z" fill="#FFA98F" style="fill:#FFA98F;fill:color(display-p3 1.0000 0.6627 0.5608);fill-opacity:1;"/>
<path d="M22.5761 19.7662C22.5441 19.7662 19.7351 20.0491 18.3105 18.6101L18.4066 18.5293C19.7911 19.9198 22.5361 19.653 22.5601 19.6449L22.5761 19.7662Z" fill="#061728" style="fill:#061728;fill:color(display-p3 0.0235 0.0902 0.1569);fill-opacity:1;"/>
<path d="M22.3205 15.9299L22.3125 15.8087L22.7365 15.7764C22.9045 15.7602 23.0565 15.6794 23.1525 15.542C23.2485 15.4127 23.2725 15.243 23.2165 15.0976L22.6165 13.3763L22.7365 13.3359L23.3365 15.0572C23.4005 15.243 23.3685 15.445 23.2565 15.6067C23.1365 15.7683 22.9525 15.8733 22.7445 15.8895L22.3205 15.9299Z" fill="#061728" style="fill:#061728;fill:color(display-p3 0.0235 0.0902 0.1569);fill-opacity:1;"/>
<path d="M21.1365 13.3417C21.1925 13.4629 21.1925 13.6408 21.2005 13.7378C21.2245 13.9237 21.0165 14.0288 20.8325 13.9884C20.4885 13.9076 20.5125 13.1638 20.9285 13.1881C21.0325 13.1962 21.0965 13.2608 21.1365 13.3417Z" fill="#061728" style="fill:#061728;fill:color(display-p3 0.0235 0.0902 0.1569);fill-opacity:1;"/>
<path d="M24.24 13.2772C24.296 13.3985 24.296 13.5763 24.304 13.6733C24.328 13.8593 24.12 13.9644 23.936 13.9239C23.592 13.8431 23.616 13.0994 24.032 13.1236C24.144 13.1317 24.2 13.1883 24.24 13.2772Z" fill="#061728" style="fill:#061728;fill:color(display-p3 0.0235 0.0902 0.1569);fill-opacity:1;"/>
<path d="M23.4897 16.721L20.9297 16.4219C20.9297 16.4219 21.1857 17.8689 22.1777 17.9578C23.3297 18.071 23.4897 16.721 23.4897 16.721Z" fill="white" style="fill:white;fill-opacity:1;"/>
<path d="M23.5922 9.65751L25.1602 11.5565C25.1602 11.5565 24.5442 9.25346 23.9682 8.94639C23.3922 8.63932 23.5922 9.65751 23.5922 9.65751Z" fill="#061728" style="fill:#061728;fill:color(display-p3 0.0235 0.0902 0.1569);fill-opacity:1;"/>
<path d="M18.3582 17.2453C17.7182 17.3342 17.1822 16.8007 17.1582 16.7683L17.2542 16.6875C17.2622 16.6956 17.9182 17.3504 18.5822 17.0513L18.6382 17.1564C18.5422 17.2049 18.4462 17.2372 18.3582 17.2453Z" fill="#061728" style="fill:#061728;fill:color(display-p3 0.0235 0.0902 0.1569);fill-opacity:1;"/>
<path d="M16.6965 7.48284C15.8002 7.72527 15.408 7.86264 14.9999 8.15355C14.6558 8.39598 13.8555 9.1879 13.8555 9.84245C13.8475 10.998 16.2643 12.0081 18.4251 12C18.8333 12 19.6335 11.8223 20.778 11.4748C23.2989 10.7152 26.0919 9.26871 25.4356 6.24647C25.4356 6.24647 25.0755 6.8687 24.6273 6.96567C24.6273 6.96567 25.2195 5.00202 22.8827 4C23.0108 4.05657 22.0664 5.16364 22.0024 5.21213C21.1061 6.01213 20.2258 6.55355 19.3855 6.85254C18.5772 7.13537 18.5772 6.98183 16.6965 7.48284Z" fill="#061728" style="fill:#061728;fill:color(display-p3 0.0235 0.0902 0.1569);fill-opacity:1;"/>
<path d="M19.8809 12.4384C19.9369 12.301 20.0489 12.1878 20.1769 12.0989C20.3049 12.0099 20.4569 11.9533 20.6169 11.9291C20.9369 11.8725 21.2889 11.9776 21.4809 12.212C21.3209 12.212 21.1849 12.204 21.0489 12.212C20.9209 12.212 20.7929 12.2282 20.6729 12.2444C20.4249 12.2929 20.1849 12.3656 19.8809 12.4384Z" fill="#061728" style="fill:#061728;fill:color(display-p3 0.0235 0.0902 0.1569);fill-opacity:1;"/>
<path d="M23.3848 12.0912C23.4008 11.9619 23.4808 11.8568 23.5768 11.7759C23.6808 11.6951 23.8168 11.6385 23.9528 11.6304C24.0888 11.6223 24.2328 11.6466 24.3528 11.7032C24.4168 11.7274 24.4648 11.7759 24.5128 11.8083C24.5608 11.8568 24.6008 11.8972 24.6328 11.9538C24.5608 11.9619 24.5048 11.9538 24.4408 11.9538C24.3848 11.9538 24.3288 11.9457 24.2728 11.9457C24.1688 11.9376 24.0728 11.9457 23.9848 11.9538C23.8088 11.9619 23.6408 12.0104 23.3848 12.0912Z" fill="#061728" style="fill:#061728;fill:color(display-p3 0.0235 0.0902 0.1569);fill-opacity:1;"/>
</g>
<defs>
<clipPath id="clip0_21996_34380">
<rect width="40" height="40" rx="8" fill="white" style="fill:white;fill-opacity:1;"/>
</clipPath>
</defs>
</svg>
