<svg width="60" height="60" viewBox="0 0 60 60" fill="none" xmlns="http://www.w3.org/2000/svg">
<g filter="url(#filter0_i_24015_43885)">
<rect width="60" height="60" rx="30" fill="#0668E1"/>
<path d="M28.7461 21.248H24.9961L29.9961 16.248L34.9961 21.248H31.2461V26.7855C30.3086 27.3605 29.4711 28.073 28.7461 28.898V21.248ZM42.4961 28.748L37.4961 23.748V27.498C35.3249 27.4088 33.2031 28.161 31.5729 29.5978C29.9427 31.0347 28.9301 33.0453 28.7461 35.2105C27.8088 35.5433 27.0417 36.2341 26.6129 37.1315C26.1841 38.029 26.1286 39.0598 26.4586 39.998C26.7914 40.9353 27.4822 41.7024 28.3796 42.1312C29.277 42.56 30.3078 42.6155 31.2461 42.2855C32.1825 41.9517 32.9488 41.2607 33.3774 40.3637C33.806 39.4666 33.8622 38.4364 33.5336 37.498C33.1586 36.423 32.3086 35.5855 31.2461 35.2105C31.8336 30.2105 36.8336 29.9605 37.4336 29.9605V33.7105L42.4961 28.748ZM28.2836 29.4855C26.6251 28.2054 24.5912 27.5069 22.4961 27.498V23.748L17.4961 28.748L22.4961 33.748V29.998C24.1711 30.0355 25.7836 30.623 27.0461 31.748C27.3586 30.948 27.7711 30.1855 28.2836 29.4855Z" fill="white"/>
</g>
<defs>
<filter id="filter0_i_24015_43885" x="-1.5" y="-3.75" width="61.5" height="63.75" filterUnits="userSpaceOnUse" color-interpolation-filters="sRGB">
<feFlood flood-opacity="0" result="BackgroundImageFix"/>
<feBlend mode="normal" in="SourceGraphic" in2="BackgroundImageFix" result="shape"/>
<feColorMatrix in="SourceAlpha" type="matrix" values="0 0 0 0 0 0 0 0 0 0 0 0 0 0 0 0 0 0 127 0" result="hardAlpha"/>
<feOffset dx="-1.5" dy="-6"/>
<feGaussianBlur stdDeviation="1.875"/>
<feComposite in2="hardAlpha" operator="arithmetic" k2="-1" k3="1"/>
<feColorMatrix type="matrix" values="0 0 0 0 0 0 0 0 0 0 0 0 0 0 0 0 0 0 0.25 0"/>
<feBlend mode="normal" in2="shape" result="effect1_innerShadow_24015_43885"/>
</filter>
</defs>
</svg>
