<svg width="80" height="80" viewBox="0 0 80 80" fill="none" xmlns="http://www.w3.org/2000/svg">
<g filter="url(#filter0_i_22985_30444)">
<rect width="80" height="80" rx="40" fill="#0668E1"/>
<rect x="0.4" y="0.4" width="79.2" height="79.2" rx="39.6" stroke="#0668E1" stroke-width="0.8"/>
<path d="M57.3154 22.9882C57.3011 22.9191 57.2674 22.8555 57.2183 22.8048C57.1692 22.7542 57.1066 22.7186 57.038 22.7022C52.4622 21.5835 41.8896 25.5702 36.1615 31.296C35.1398 32.3094 34.2084 33.4099 33.3779 34.585C31.6115 34.4288 29.845 34.5593 28.3396 35.2155C24.0919 37.085 22.8552 41.9632 22.5107 44.0616C22.4911 44.1765 22.4985 44.2943 22.5322 44.4058C22.5659 44.5173 22.625 44.6195 22.7049 44.7043C22.7848 44.7891 22.8833 44.8542 22.9926 44.8945C23.1019 44.9349 23.2191 44.9492 23.3349 44.9366L30.156 44.1843C30.1608 44.6985 30.1919 45.2122 30.249 45.7233C30.2833 46.0783 30.4408 46.41 30.6943 46.6608L33.3357 49.296C33.5868 49.549 33.9184 49.7065 34.2732 49.7413C34.7814 49.7981 35.2922 49.8291 35.8036 49.8343L35.0552 56.6468C35.0427 56.7625 35.0572 56.8796 35.0976 56.9889C35.1379 57.0981 35.2031 57.1965 35.2878 57.2764C35.3726 57.3562 35.4747 57.4153 35.5862 57.4491C35.6976 57.4829 35.8154 57.4903 35.9302 57.471C38.0247 57.135 42.9115 55.8983 44.77 51.6507C45.4263 50.1452 45.5607 48.3874 45.4091 46.6296C46.5871 45.799 47.6905 44.8673 48.7068 43.8452C54.4529 38.128 58.4169 27.7913 57.3154 22.9882ZM42.974 37.0249C42.4493 36.5005 42.0919 35.8323 41.947 35.1049C41.8021 34.3774 41.8762 33.6232 42.16 32.9379C42.4437 32.2525 42.9244 31.6667 43.5411 31.2545C44.1578 30.8424 44.8829 30.6224 45.6247 30.6224C46.3665 30.6224 47.0916 30.8424 47.7084 31.2545C48.3251 31.6667 48.8058 32.2525 49.0895 32.9379C49.3733 33.6232 49.4474 34.3774 49.3025 35.1049C49.1576 35.8323 48.8002 36.5005 48.2755 37.0249C47.9276 37.3733 47.5144 37.6497 47.0595 37.8383C46.6047 38.0269 46.1171 38.124 45.6247 38.124C45.1323 38.124 44.6448 38.0269 44.1899 37.8383C43.7351 37.6497 43.3219 37.3733 42.974 37.0249Z" fill="white"/>
<path d="M33.1562 51.2055C32.7281 51.6344 32.0414 51.8016 31.2148 51.9445C29.3578 52.2609 27.718 50.6563 28.0516 48.7789C28.1789 48.0672 28.5555 47.0695 28.7898 46.8352C28.8411 46.7849 28.8752 46.7198 28.8873 46.6491C28.8994 46.5784 28.889 46.5056 28.8574 46.4412C28.8258 46.3768 28.7748 46.3239 28.7114 46.2902C28.6481 46.2564 28.5758 46.2434 28.5047 46.2531C27.4662 46.3802 26.5001 46.851 25.7602 47.5906C23.9234 49.4289 23.75 56.25 23.75 56.25C23.75 56.25 30.575 56.0766 32.4117 54.2383C33.1536 53.4989 33.625 52.5313 33.75 51.4914C33.7789 51.1648 33.3812 50.9703 33.1562 51.2055Z" fill="white"/>
</g>
<defs>
<filter id="filter0_i_22985_30444" x="-1.6" y="-4" width="81.6" height="84" filterUnits="userSpaceOnUse" color-interpolation-filters="sRGB">
<feFlood flood-opacity="0" result="BackgroundImageFix"/>
<feBlend mode="normal" in="SourceGraphic" in2="BackgroundImageFix" result="shape"/>
<feColorMatrix in="SourceAlpha" type="matrix" values="0 0 0 0 0 0 0 0 0 0 0 0 0 0 0 0 0 0 127 0" result="hardAlpha"/>
<feOffset dx="-1.6" dy="-6.4"/>
<feGaussianBlur stdDeviation="2"/>
<feComposite in2="hardAlpha" operator="arithmetic" k2="-1" k3="1"/>
<feColorMatrix type="matrix" values="0 0 0 0 0 0 0 0 0 0 0 0 0 0 0 0 0 0 0.25 0"/>
<feBlend mode="normal" in2="shape" result="effect1_innerShadow_22985_30444"/>
</filter>
</defs>
</svg>
