<svg width="60" height="60" viewBox="0 0 60 60" fill="none" xmlns="http://www.w3.org/2000/svg">
<g filter="url(#filter0_i_24015_43895)">
<rect width="60" height="60" rx="30" fill="#0668E1"/>
<rect x="0.3" y="0.3" width="59.4" height="59.4" rx="29.7" stroke="#0668E1" stroke-width="0.6"/>
<path d="M29.293 29.8736C25.4188 32.0406 18.8281 34.9335 18.8281 34.9335C18.8281 34.9335 22.179 34.2572 24.1181 33.6686C26.6238 32.9079 27.947 32.2287 30.328 31.1386C33.9454 29.4824 39.2979 26.3086 39.2979 26.3086L40.1029 27.3436L41.8279 22.5137L36.7679 23.2037L37.6879 24.5837C37.6879 24.5837 32.6749 27.9819 29.293 29.8736Z" fill="white"/>
<path d="M28.7521 23.8944C28.7521 23.8944 26.9604 24.5727 25.7621 24.5844C24.6172 24.5956 23.9692 24.3836 22.8871 24.0094C21.8431 23.6484 21.2772 23.2044 20.3571 22.7444C19.9245 22.5281 19.4477 22.7848 19.2072 23.2044C18.9575 23.64 19.0012 24.2203 19.4372 24.4694C20.2423 24.9294 23.2321 26.1944 23.5771 26.9994C23.8636 27.6679 23.6921 32.0593 23.6921 32.0593L27.8321 29.7593C27.8321 29.7593 27.8321 28.0343 28.0621 26.8844C28.1615 26.3873 28.9694 26.0857 29.6721 25.7344C30.5921 25.2744 31.1671 25.0444 32.087 24.3544C32.4534 24.0796 32.526 23.612 32.317 23.2044C32.0963 22.774 31.609 22.548 31.167 22.7444C30.1321 23.2044 28.7521 23.8944 28.7521 23.8944Z" fill="white"/>
<circle cx="25.767" cy="21.019" r="2.18498" fill="white"/>
<path d="M25.0312 26.997L25.3762 24.582H26.0662L26.4112 26.997L25.7212 28.032L25.0312 26.997Z" fill="#0668E1"/>
<rect x="20.6797" y="36.7734" width="2.75997" height="5.05995" fill="white"/>
<rect x="24.582" y="35.3945" width="2.75997" height="6.43993" fill="white"/>
<rect x="28.4883" y="33.5547" width="2.75997" height="8.27991" fill="white"/>
<rect x="32.6328" y="31.9434" width="2.75997" height="9.8899" fill="white"/>
<rect x="36.7695" y="30.1016" width="2.75997" height="11.4999" fill="white"/>
</g>
<defs>
<filter id="filter0_i_24015_43895" x="-1.2" y="-3" width="61.2" height="63" filterUnits="userSpaceOnUse" color-interpolation-filters="sRGB">
<feFlood flood-opacity="0" result="BackgroundImageFix"/>
<feBlend mode="normal" in="SourceGraphic" in2="BackgroundImageFix" result="shape"/>
<feColorMatrix in="SourceAlpha" type="matrix" values="0 0 0 0 0 0 0 0 0 0 0 0 0 0 0 0 0 0 127 0" result="hardAlpha"/>
<feOffset dx="-1.2" dy="-4.8"/>
<feGaussianBlur stdDeviation="1.5"/>
<feComposite in2="hardAlpha" operator="arithmetic" k2="-1" k3="1"/>
<feColorMatrix type="matrix" values="0 0 0 0 0 0 0 0 0 0 0 0 0 0 0 0 0 0 0.25 0"/>
<feBlend mode="normal" in2="shape" result="effect1_innerShadow_24015_43895"/>
</filter>
</defs>
</svg>
