<svg width="60" height="60" viewBox="0 0 60 60" fill="none" xmlns="http://www.w3.org/2000/svg">
<g filter="url(#filter0_i_24015_43873)">
<rect width="60" height="60" rx="30" fill="#0668E1"/>
<path d="M29.5273 35.625C30.1489 35.625 30.7451 35.3781 31.1846 34.9385C31.6242 34.499 31.8711 33.9029 31.8711 33.2812C31.8711 32.6596 31.6242 32.0635 31.1846 31.624C30.7451 31.1844 30.1489 30.9375 29.5273 30.9375C28.9057 30.9375 28.3096 31.1844 27.8701 31.624C27.4305 32.0635 27.1836 32.6596 27.1836 33.2812C27.1836 33.9029 27.4305 34.499 27.8701 34.9385C28.3096 35.3781 28.9057 35.625 29.5273 35.625Z" fill="white"/>
<path fill-rule="evenodd" clip-rule="evenodd" d="M22.0312 16.875H26.25C27.4932 16.875 28.6855 17.3689 29.5646 18.2479C30.4436 19.127 30.9375 20.3193 30.9375 21.5625V23.9062C30.9375 25.2012 31.9875 26.25 33.2812 26.25H35.625C36.8682 26.25 38.0605 26.7439 38.9396 27.6229C39.8186 28.502 40.3125 29.6943 40.3125 30.9375V40.7812C40.3125 42.075 39.2625 43.125 37.9687 43.125H22.0312C21.4096 43.125 20.8135 42.8781 20.374 42.4385C19.9344 41.999 19.6875 41.4028 19.6875 40.7812V19.2187C19.6875 17.9237 20.7375 16.875 22.0312 16.875ZM29.5312 37.5C30.3562 37.5 31.1275 37.2625 31.7775 36.8525L33.0875 38.1625C33.2652 38.3281 33.5003 38.4182 33.7432 38.414C33.986 38.4097 34.2178 38.3113 34.3895 38.1395C34.5613 37.9678 34.6597 37.736 34.664 37.4931C34.6683 37.2503 34.5781 37.0152 34.4125 36.8375L33.1037 35.5275C33.6018 34.7357 33.8226 33.8007 33.7314 32.8697C33.6401 31.9387 33.242 31.0644 32.5996 30.3844C31.9573 29.7043 31.1071 29.257 30.1828 29.1129C29.2585 28.9687 28.3125 29.1359 27.4936 29.588C26.6746 30.0402 26.0292 30.7517 25.6588 31.6107C25.2884 32.4698 25.214 33.4275 25.4473 34.3334C25.6806 35.2393 26.2084 36.042 26.9477 36.6152C27.6869 37.1884 28.5958 37.4997 29.5312 37.5Z" fill="white"/>
<path d="M32.8097 21.564C32.8119 19.9872 32.2441 18.4627 31.2109 17.2715C33.3024 17.8217 35.2103 18.9174 36.7396 20.4466C38.2688 21.9759 39.3645 23.8837 39.9147 25.9752C38.7235 24.9421 37.199 24.3743 35.6222 24.3765H33.2784C33.1541 24.3765 33.0349 24.3271 32.947 24.2392C32.8591 24.1513 32.8097 24.0321 32.8097 23.9077V21.564Z" fill="white"/>
</g>
<defs>
<filter id="filter0_i_24015_43873" x="-3" y="-7.5" width="63" height="67.5" filterUnits="userSpaceOnUse" color-interpolation-filters="sRGB">
<feFlood flood-opacity="0" result="BackgroundImageFix"/>
<feBlend mode="normal" in="SourceGraphic" in2="BackgroundImageFix" result="shape"/>
<feColorMatrix in="SourceAlpha" type="matrix" values="0 0 0 0 0 0 0 0 0 0 0 0 0 0 0 0 0 0 127 0" result="hardAlpha"/>
<feOffset dx="-3" dy="-12"/>
<feGaussianBlur stdDeviation="3.75"/>
<feComposite in2="hardAlpha" operator="arithmetic" k2="-1" k3="1"/>
<feColorMatrix type="matrix" values="0 0 0 0 0 0 0 0 0 0 0 0 0 0 0 0 0 0 0.25 0"/>
<feBlend mode="normal" in2="shape" result="effect1_innerShadow_24015_43873"/>
</filter>
</defs>
</svg>
