<svg width="40" height="40" viewBox="0 0 40 40" fill="none" xmlns="http://www.w3.org/2000/svg">
<g filter="url(#filter0_i_22985_30404)">
<rect width="40" height="40" rx="20" fill="#0668E1" style="fill:#0668E1;fill:color(display-p3 0.0235 0.4078 0.8824);fill-opacity:1;"/>
<path d="M18.1231 10.0005H18.2794C18.3628 10.0339 18.4498 10.0401 18.5384 10.0401C19.5574 10.2063 20.3843 10.9289 20.4744 12.0991C20.4874 12.2679 20.5489 12.3549 20.6958 12.4211C21.4674 12.7686 22.1771 13.2193 22.7882 13.8028C23.6775 14.6515 24.284 15.6617 24.4648 16.9017C24.6018 17.8421 24.5065 18.769 24.3366 19.6933C24.1298 20.8207 23.7869 21.9174 23.5801 23.0449C23.4624 23.6862 23.38 24.3317 23.4129 24.9846C23.4426 25.5717 23.5426 26.1479 23.7531 26.7007C23.7786 26.7679 23.8088 26.8325 23.8609 26.8846C23.8948 26.9315 23.949 26.9784 23.862 27.0258C23.7869 27.0561 23.7083 27.0587 23.6312 27.0477C23.2691 26.9946 22.9044 27.0165 22.5412 27.0159C20.2082 27.0139 17.8757 27.017 15.5426 27.0118C15.2764 27.0112 15.0138 27.092 14.7476 27.0347C14.7163 27.018 14.6538 26.9941 14.6913 26.9586C14.8533 26.8055 14.7908 26.6012 14.8122 26.4241C14.9221 25.517 15.2988 24.7511 15.9693 24.1301C16.124 23.9743 16.3001 23.843 16.47 23.705C17.5896 22.7552 18.4404 21.6001 19.076 20.2825C19.274 19.8725 19.4444 19.4505 19.5757 18.9982C19.4902 18.9909 19.4512 19.0488 19.4027 19.0821C19.0995 19.291 18.7754 19.4531 18.4138 19.5328C17.9705 19.6302 17.5792 19.4666 17.1978 19.2764C16.557 18.9571 16.5231 18.955 15.9511 19.3765C15.7573 19.5198 15.5624 19.6609 15.3587 19.7896C14.9731 20.0329 14.5887 20.0335 14.2005 19.7943C13.9551 19.6432 13.7269 19.4755 13.5529 19.2395C13.0913 18.6132 13.0882 17.9833 13.5341 17.3441C13.7571 17.0242 14.0317 16.7579 14.3344 16.5224C14.8221 16.1426 15.1842 15.6742 15.453 15.1178C15.7593 14.4837 16.1266 13.8825 16.6002 13.3563C16.9561 12.9609 17.3708 12.6363 17.8611 12.4216C18.0226 12.3508 18.0778 12.2523 18.0752 12.0772C18.0653 11.4718 18.0705 10.8664 18.0721 10.261C18.0721 10.1719 18.0523 10.0766 18.121 10L18.1231 10.0005Z" fill="white" style="fill:white;fill-opacity:1;"/>
<path d="M24.4151 25.9431C24.2426 26.2822 24.0379 26.6021 23.8232 26.9163C23.7769 26.8975 23.7555 26.8579 23.7388 26.8147C23.5632 26.3453 23.4419 25.8644 23.3924 25.3632C23.3647 25.0845 23.3543 24.8062 23.3595 24.5275C23.3736 23.7658 23.5169 23.0218 23.6852 22.2825C23.8951 21.3608 24.153 20.4496 24.3177 19.5175C24.3922 19.0971 24.4281 18.6714 24.462 18.2447C24.5136 17.5966 24.4542 16.9625 24.2932 16.3389C24.0921 15.5579 23.6914 14.8811 23.1626 14.2742C22.4436 13.4499 21.5532 12.8701 20.569 12.4199C20.4773 12.3782 20.4299 12.3392 20.4263 12.2251C20.3903 11.1034 19.7313 10.4083 18.7252 10.1213C18.657 10.102 18.5861 10.0916 18.5163 10.077C18.4918 10.0577 18.4522 10.0468 18.4762 10.002H18.9451C18.9883 10.0395 19.0399 10.015 19.0873 10.0223C19.1191 10.0197 19.1535 10.0306 19.1795 10.002H19.3358C19.552 10.0931 19.7886 10.0645 20.0116 10.1176C20.1371 10.1473 20.2643 10.1713 20.3903 10.1979C20.6597 10.2864 20.7853 10.5256 20.9364 10.7324C21.0682 10.9127 21.1526 11.1211 21.1802 11.3435C21.2036 11.5295 21.2943 11.6452 21.4568 11.7358C22.2691 12.1876 23.012 12.7357 23.6534 13.4093C24.5485 14.3497 25.1804 15.4303 25.3446 16.7448C25.4248 17.3861 25.4128 18.0275 25.3498 18.6704C25.2247 19.9369 24.9059 21.1665 24.6501 22.4086C24.487 23.1989 24.3573 23.9945 24.3515 24.8047C24.3494 25.0912 24.3901 25.3752 24.4349 25.6576C24.4505 25.756 24.4562 25.8508 24.4161 25.9441L24.4151 25.9431Z" fill="#0668E1" style="fill:#0668E1;fill:color(display-p3 0.0235 0.4078 0.8824);fill-opacity:1;"/>
<path d="M13.4003 30.0004C13.3961 29.9379 13.3075 29.9196 13.32 29.8483C13.2851 29.7284 13.319 29.605 13.3018 29.4851C13.2768 29.3116 13.3466 29.2309 13.5196 29.2345C13.6993 29.2022 13.8806 29.1934 14.063 29.1934C17.5667 29.1944 21.0705 29.1939 24.5742 29.1934C24.7435 29.1934 24.9123 29.1949 25.0785 29.2309C25.2489 29.2319 25.3198 29.3116 25.2953 29.4851C25.277 29.6175 25.312 29.754 25.277 29.8868C25.25 29.9243 25.2234 29.9618 25.1963 29.9994H13.4003V30.0004Z" fill="white" style="fill:white;fill-opacity:1;"/>
<path d="M18.4766 10.002C18.4902 10.027 18.5032 10.052 18.5167 10.077C18.4292 10.0806 18.35 10.0582 18.2812 10.002C18.3464 10.002 18.4115 10.002 18.4766 10.002Z" fill="#3F637E" style="fill:#3F637E;fill:color(display-p3 0.2471 0.3882 0.4941);fill-opacity:1;"/>
<path d="M19.1037 10.0363C19.048 10.0379 18.988 10.0593 18.9453 10.002H19.1016C19.1136 10.0087 19.1183 10.016 19.1146 10.0238C19.111 10.0322 19.1073 10.0358 19.1037 10.0358V10.0363Z" fill="#6B8394" style="fill:#6B8394;fill:color(display-p3 0.4196 0.5137 0.5804);fill-opacity:1;"/>
<path d="M19.1036 10.0363C19.1021 10.0249 19.1016 10.0134 19.1016 10.002H19.1797C19.1672 10.0421 19.1354 10.0389 19.1036 10.0363Z" fill="#8D9FAC" style="fill:#8D9FAC;fill:color(display-p3 0.5529 0.6235 0.6745);fill-opacity:1;"/>
<path d="M14.188 27.3454C14.2933 27.1464 14.4475 27.0151 14.6783 26.9886C14.9258 27.024 15.1685 26.9542 15.4145 26.9542C18.0289 26.9542 20.6432 26.9552 23.2576 26.9531C23.478 26.9531 23.6937 27.0282 23.9157 26.9865C24.148 27.013 24.3121 27.1334 24.4101 27.3444C24.3075 27.5507 24.1246 27.6362 23.911 27.6726C23.8406 27.6846 23.7682 27.6799 23.6968 27.6799C20.7724 27.6799 17.8486 27.6799 14.9242 27.681C14.7054 27.681 14.4949 27.6643 14.3204 27.5111C14.2662 27.4637 14.2167 27.4132 14.1875 27.3454H14.188Z" fill="white" style="fill:white;fill-opacity:1;"/>
<path d="M24.4125 25.9425C24.362 25.4996 24.2708 25.0594 24.2942 24.6108C24.325 24.0231 24.3927 23.4396 24.5037 22.8613C24.7324 21.6687 25.045 20.4918 25.2206 19.2893C25.3123 18.662 25.367 18.0285 25.3472 17.3918C25.3055 16.0523 24.8314 14.879 23.9806 13.8521C23.5018 13.2743 22.9407 12.7856 22.3295 12.3527C22.0013 12.1198 21.6673 11.8963 21.3073 11.7155C21.1891 11.6561 21.151 11.5508 21.139 11.4472C21.0791 10.9126 20.7717 10.5328 20.3867 10.1973C21.1099 10.3166 21.7971 10.5531 22.4468 10.885C24.7642 12.0692 26.1245 13.9818 26.6299 16.5076C26.9764 18.2421 26.7362 19.9489 26.2662 21.6327C26.0985 22.2335 25.8817 22.817 25.6655 23.401C25.6535 23.6266 25.5566 23.8173 25.4212 23.9918C25.1284 24.5853 24.8548 25.1881 24.5245 25.7622C24.4891 25.8237 24.4495 25.8826 24.412 25.9425H24.4125Z" fill="white" style="fill:white;fill-opacity:1;"/>
<path d="M14.1855 27.3443C14.2522 27.3458 14.2881 27.3964 14.3277 27.4381C14.4517 27.5704 14.6075 27.6178 14.7836 27.6178C17.7997 27.6178 20.8158 27.6157 23.8319 27.6209C24.0793 27.6209 24.2268 27.4584 24.4076 27.3438C24.6123 27.7454 24.4571 28.1226 23.9621 28.3597C24.1669 28.3597 24.3393 28.3555 24.5112 28.3607C24.8957 28.3722 25.2042 28.6379 25.2745 29.011C25.2933 29.1752 25.2269 29.2701 25.0755 29.2954C24.8713 29.248 24.6634 29.2579 24.456 29.2579C21.2935 29.2579 18.1316 29.2564 14.9691 29.26C14.483 29.2605 13.9948 29.2235 13.5103 29.2954C13.442 29.2418 13.242 29.3449 13.3113 29.1277C13.331 28.7067 13.6499 28.3805 14.0688 28.3613C14.2438 28.3535 14.4194 28.3597 14.6554 28.3597C14.4116 28.2586 14.2501 28.143 14.1647 27.9434C14.0771 27.7392 14.0808 27.5402 14.1855 27.3438V27.3443Z" fill="white" style="fill:white;fill-opacity:1;"/>
<path d="M25.0781 29.2962C25.2469 29.2733 25.3022 29.1706 25.2771 29.0117C25.3272 29.304 25.3418 29.5963 25.2745 29.888C25.2745 29.7536 25.2626 29.6182 25.2761 29.4848C25.2923 29.3248 25.2219 29.278 25.0786 29.2957L25.0781 29.2962Z" fill="#4E6C83" style="fill:#4E6C83;fill:color(display-p3 0.3059 0.4235 0.5137);fill-opacity:1;"/>
<path d="M13.3131 29.127C13.287 29.2926 13.4569 29.2254 13.5121 29.2947C13.3647 29.2734 13.3048 29.3307 13.3199 29.4844C13.3313 29.6037 13.3183 29.7256 13.3157 29.8465C13.2704 29.6068 13.2808 29.3666 13.3126 29.127H13.3131Z" fill="#4E6B82" style="fill:#4E6B82;fill:color(display-p3 0.3059 0.4196 0.5098);fill-opacity:1;"/>
</g>
<defs>
<filter id="filter0_i_22985_30404" x="-1.33333" y="-3.33333" width="41.3333" height="43.3333" filterUnits="userSpaceOnUse" color-interpolation-filters="sRGB">
<feFlood flood-opacity="0" result="BackgroundImageFix"/>
<feBlend mode="normal" in="SourceGraphic" in2="BackgroundImageFix" result="shape"/>
<feColorMatrix in="SourceAlpha" type="matrix" values="0 0 0 0 0 0 0 0 0 0 0 0 0 0 0 0 0 0 127 0" result="hardAlpha"/>
<feOffset dx="-1.33333" dy="-5.33333"/>
<feGaussianBlur stdDeviation="1.66667"/>
<feComposite in2="hardAlpha" operator="arithmetic" k2="-1" k3="1"/>
<feColorMatrix type="matrix" values="0 0 0 0 0 0 0 0 0 0 0 0 0 0 0 0 0 0 0.25 0"/>
<feBlend mode="normal" in2="shape" result="effect1_innerShadow_22985_30404"/>
</filter>
</defs>
</svg>
