<svg width="24" height="24" viewBox="0 0 24 24" fill="none" xmlns="http://www.w3.org/2000/svg">
<g clip-path="url(#clip0_26044_39191)">
<path d="M13.8313 12.9187C13.9862 12.9187 14.1062 12.9187 14.2312 12.9187C16.4913 12.9187 18.7562 12.9137 21.0162 12.9187C21.4512 12.9187 21.8512 12.8287 22.2062 12.5787C22.3812 12.4537 22.5912 12.3587 22.7562 12.5187C22.8862 12.6387 22.9912 12.8537 22.9912 13.0237C23.0062 15.1137 23.0012 17.2037 23.0012 19.2937C23.0012 19.4237 22.9862 19.5587 22.9562 19.6887C22.7862 20.5287 22.1062 21.1137 21.2512 21.1637C21.1663 21.1687 21.0812 21.1687 20.9912 21.1687C14.9962 21.1687 9.00125 21.1687 3.00625 21.1687C2.18625 21.1687 1.55125 20.8587 1.19125 20.1137C1.07625 19.8737 1.01125 19.5837 1.01125 19.3137C0.99625 17.2137 0.99625 15.1137 1.01125 13.0137C1.01125 12.8437 1.12625 12.6287 1.25125 12.5087C1.41625 12.3537 1.62125 12.4537 1.80125 12.5787C2.15125 12.8237 2.53625 12.9187 2.96125 12.9187C5.25125 12.9137 7.54125 12.9187 9.83625 12.9137C10.0863 12.9137 10.1963 12.9637 10.1763 13.2437C10.1513 13.5637 10.1663 13.8937 10.1713 14.2187C10.1763 14.5687 10.3313 14.7437 10.6713 14.7487C11.5613 14.7587 12.4462 14.7587 13.3363 14.7487C13.6663 14.7437 13.8212 14.5737 13.8313 14.2437C13.8363 13.8087 13.8313 13.3837 13.8313 12.9187Z" fill="#F0431D" style="fill:#F0431D;fill:color(display-p3 0.9430 0.2632 0.1140);fill-opacity:1;"/>
<path d="M7.42 5.57867C7.42 5.26867 7.42 4.99367 7.42 4.71867C7.43 3.62367 8.205 2.83867 9.3 2.83367C11.105 2.82367 12.91 2.82367 14.71 2.83367C15.8 2.83867 16.57 3.62867 16.58 4.72867C16.585 4.99367 16.58 5.25867 16.58 5.55867C16.71 5.56867 16.82 5.57867 16.93 5.57867C18.285 5.57867 19.64 5.57867 20.995 5.57867C22.235 5.57867 22.995 6.33867 23 7.57367C23 8.41367 23.005 9.25367 23 10.0937C22.995 11.2087 22.225 11.9937 21.11 11.9987C18.76 12.0087 16.415 12.0037 14.065 11.9987C14 11.9987 13.935 11.9887 13.83 11.9787C13.83 11.8337 13.835 11.6937 13.83 11.5537C13.815 11.2587 13.655 11.0887 13.36 11.0837C12.455 11.0737 11.545 11.0737 10.64 11.0837C10.35 11.0887 10.19 11.2637 10.175 11.5587C10.17 11.6887 10.175 11.8237 10.175 11.9987C10.05 11.9987 9.95 11.9987 9.845 11.9987C7.565 11.9987 5.285 11.9987 3 11.9987C1.755 11.9987 1.005 11.2437 1 9.99867C1 9.16867 1 8.33867 1 7.50867C1.005 6.36367 1.775 5.58367 2.925 5.57867C4.3 5.57367 5.675 5.57867 7.05 5.57867C7.16 5.57867 7.27 5.57867 7.42 5.57867ZM9.265 5.55367C11.1 5.55367 12.915 5.55367 14.72 5.55367C14.72 5.24867 14.72 4.96867 14.72 4.69367C12.89 4.69367 11.085 4.69367 9.265 4.69367C9.265 4.98367 9.265 5.25867 9.265 5.55367Z" fill="#F0431D" style="fill:#F0431D;fill:color(display-p3 0.9430 0.2632 0.1140);fill-opacity:1;"/>
</g>
<defs>
<clipPath id="clip0_26044_39191">
<rect width="24" height="24" fill="white" style="fill:white;fill-opacity:1;"/>
</clipPath>
</defs>
</svg>
