<svg width="100" height="100" viewBox="0 0 100 100" fill="none" xmlns="http://www.w3.org/2000/svg">
<g filter="url(#filter0_i_22985_30451)">
<rect width="100" height="100" rx="50" fill="#0668E1"/>
<rect x="0.5" y="0.5" width="99" height="99" rx="49.5" stroke="#0668E1"/>
<g clip-path="url(#clip0_22985_30451)">
<path d="M59.5833 30.0684H40.4167C39.3587 30.0684 38.5 30.927 38.5 31.985V47.3184C38.5 48.3764 39.3587 49.235 40.4167 49.235H59.5833C60.6413 49.235 61.5 48.3764 61.5 47.3184V31.985C61.5 30.927 60.6413 30.0684 59.5833 30.0684ZM44.25 31.985C44.25 32.1959 44.0775 32.3684 43.8667 32.3684C43.6558 32.3684 43.4833 32.1959 43.4833 31.985C43.4833 31.7742 43.6558 31.6017 43.8667 31.6017C44.0775 31.6017 44.25 31.7742 44.25 31.985ZM42.7167 31.985C42.7167 32.1959 42.5442 32.3684 42.3333 32.3684C42.1225 32.3684 41.95 32.1959 41.95 31.985C41.95 31.7742 42.1225 31.6017 42.3333 31.6017C42.5442 31.6017 42.7167 31.7742 42.7167 31.985ZM40.8 31.6017C41.0108 31.6017 41.1833 31.7742 41.1833 31.985C41.1833 32.1959 41.0108 32.3684 40.8 32.3684C40.5892 32.3684 40.4167 32.1959 40.4167 31.985C40.4167 31.7742 40.5892 31.6017 40.8 31.6017ZM60.7333 47.3184C60.7333 47.9509 60.2158 48.4684 59.5833 48.4684H40.4167C39.7842 48.4684 39.2667 47.9509 39.2667 47.3184V33.9017H60.7333V47.3184Z" fill="white"/>
<path d="M42.3336 46.9316H58.4336C58.6444 46.9316 58.8169 46.7591 58.8169 46.5483C58.8169 46.3375 58.6444 46.165 58.4336 46.165H57.2836V40.0316C57.2836 39.61 56.9386 39.265 56.5169 39.265H55.7503C55.3286 39.265 54.9836 39.61 54.9836 40.0316V46.165H54.2169V41.9483C54.2169 41.5266 53.8719 41.1816 53.4503 41.1816H52.6836C52.2619 41.1816 51.9169 41.5266 51.9169 41.9483V46.165H51.1503V41.9483C51.1503 41.5266 50.8053 41.1816 50.3836 41.1816H49.6169C49.1953 41.1816 48.8503 41.5266 48.8503 41.9483V46.165H48.0836V43.865C48.0836 43.4433 47.7386 43.0983 47.3169 43.0983H46.5503C46.1286 43.0983 45.7836 43.4433 45.7836 43.865V46.165H45.0169V44.6316C45.0169 44.21 44.6719 43.865 44.2503 43.865H43.4836C43.0619 43.865 42.7169 44.21 42.7169 44.6316V46.165H42.3336C42.1228 46.165 41.9503 45.9925 41.9503 45.7816V35.815C41.9503 35.6041 41.7778 35.4316 41.5669 35.4316C41.3561 35.4316 41.1836 35.6041 41.1836 35.815V45.7816C41.1836 46.4141 41.7011 46.9316 42.3336 46.9316Z" fill="white"/>
<path d="M43.8671 43.0985C43.94 43.0985 44.009 43.0793 44.0741 43.0372L49.345 39.6485H53.0671C53.1591 39.6485 53.2511 39.614 53.3201 39.5527L56.3868 36.8693C56.5478 36.7313 56.5631 36.486 56.4213 36.3288C56.2833 36.1678 56.038 36.1525 55.8808 36.2943L52.9215 38.8818H49.2338C49.161 38.8818 49.0881 38.901 49.0268 38.9432L43.6601 42.3932C43.4838 42.5082 43.4301 42.7458 43.5451 42.9222C43.618 43.0372 43.7406 43.0985 43.8671 43.0985Z" fill="white"/>
<path d="M32.7645 54.2713C32.8151 54.6208 32.8197 54.8232 32.8703 55.0118C33.8271 58.5306 34.8207 62.0401 35.7269 65.5726C35.9523 66.4603 36.4675 66.6995 37.2449 66.8743C41.7207 67.877 46.1919 68.8982 50.654 69.9561C51.8638 70.2413 52.9126 70.1171 53.9844 69.4271C57.3884 67.2377 60.8384 65.1126 64.2701 62.9646C66.8829 61.3317 69.4957 59.6989 72.0993 58.0568C72.9733 57.5048 73.2447 56.8241 72.7525 56.1525C71.4599 54.3725 69.8499 53.2226 67.2141 54.2253C65.7237 54.791 64.3023 55.5362 62.8302 56.1525C61.9562 56.5159 61.3904 56.8747 61.3904 58.0522C61.395 59.6345 60.0472 60.7752 58.2118 61.1294C54.334 61.8699 50.424 61.5479 46.5232 61.3915C45.9942 61.3685 45.5709 61.0834 45.5985 60.4808C45.6261 59.8644 46.0494 59.6805 46.6106 59.7081C47.6916 59.7541 48.7772 59.8553 49.8582 59.8231C52.5032 59.7449 55.1482 59.6253 57.7932 59.4735C58.5706 59.4275 59.2054 59.0273 59.532 58.2684C60.0242 57.1093 59.279 55.7846 57.9588 55.7386C55.2264 55.642 52.4848 55.7018 49.7478 55.6512C48.9014 55.6374 48.0274 55.5776 47.2224 55.3476C45.3317 54.8094 43.4917 54.1011 41.6011 53.5629C40.6305 53.2869 39.5679 52.9834 38.5973 53.103C36.6607 53.3329 34.7609 53.8527 32.7645 54.2713ZM30.2805 53.9355C29.1857 54.2299 28.2886 54.4047 27.4468 54.7404C27.1984 54.837 26.9868 55.3798 27.0006 55.7064C27.019 56.2353 27.2352 56.7551 27.3778 57.2794C28.399 61.0144 29.4157 64.7447 30.4507 68.475C30.7037 69.3811 31.0625 69.5651 31.9641 69.3489C32.5161 69.2155 33.0681 69.0775 33.6201 68.9258C34.5125 68.682 34.7517 68.3416 34.5033 67.4217C33.3717 63.2176 32.2263 59.0181 31.0395 54.8278C30.9383 54.4691 30.5151 54.2023 30.2805 53.9355Z" fill="white"/>
<path d="M32.7656 54.2727C34.7574 53.8541 36.6618 53.3343 38.6031 53.0951C39.5737 52.9756 40.6363 53.2791 41.6069 53.5551C43.4975 54.0933 45.3375 54.8016 47.2281 55.3398C48.0331 55.5698 48.9071 55.625 49.7535 55.6434C52.4905 55.694 55.2276 55.6388 57.9646 55.7307C59.2848 55.7767 60.0346 57.106 59.5378 58.2606C59.2112 59.0241 58.5764 59.4243 57.799 59.4657C55.1586 59.6175 52.5135 59.737 49.8639 59.8152C48.7829 59.8474 47.6973 59.7462 46.6163 59.7002C46.0551 59.6772 45.6319 59.8612 45.6043 60.473C45.5767 61.0755 45.9999 61.3653 46.5289 61.3837C50.4297 61.5401 54.3398 61.8621 58.2176 61.1215C60.053 60.772 61.4008 59.6313 61.3962 58.0444C61.3962 56.8669 61.962 56.5081 62.836 56.1447C64.308 55.5284 65.7294 54.7832 67.2198 54.2175C69.8556 53.2147 71.4656 54.3647 72.7583 56.1447C73.2459 56.8163 72.9791 57.497 72.1051 58.049C69.4968 59.691 66.884 61.3193 64.2758 62.9568C60.8442 65.1048 57.3942 67.2299 53.9901 69.4193C52.9183 70.1093 51.8695 70.2334 50.6597 69.9483C46.1977 68.8903 41.7265 67.8692 37.2507 66.8665C36.4732 66.6917 35.958 66.4525 35.7326 65.5648C34.8264 62.0323 33.8328 58.5227 32.876 55.004C32.8208 54.8292 32.8162 54.6268 32.7656 54.2727Z" fill="white"/>
<path d="M30.2805 53.9355C30.5151 54.2023 30.9429 54.4691 31.0441 54.8233C32.2309 59.0136 33.3763 63.213 34.5079 67.4171C34.7563 68.3325 34.5171 68.6774 33.6247 68.9212C33.0773 69.0684 32.5253 69.2064 31.9687 69.3444C31.0625 69.5652 30.7037 69.3766 30.4553 68.4704C29.4203 64.7401 28.4036 61.0098 27.3824 57.2749C27.2352 56.7505 27.0236 56.2308 27.0006 55.7018C26.9868 55.3752 27.1984 54.8325 27.4468 54.7359C28.284 54.4047 29.1857 54.2299 30.2805 53.9355Z" fill="white"/>
</g>
</g>
<defs>
<filter id="filter0_i_22985_30451" x="-2" y="-5" width="102" height="105" filterUnits="userSpaceOnUse" color-interpolation-filters="sRGB">
<feFlood flood-opacity="0" result="BackgroundImageFix"/>
<feBlend mode="normal" in="SourceGraphic" in2="BackgroundImageFix" result="shape"/>
<feColorMatrix in="SourceAlpha" type="matrix" values="0 0 0 0 0 0 0 0 0 0 0 0 0 0 0 0 0 0 127 0" result="hardAlpha"/>
<feOffset dx="-2" dy="-8"/>
<feGaussianBlur stdDeviation="2.5"/>
<feComposite in2="hardAlpha" operator="arithmetic" k2="-1" k3="1"/>
<feColorMatrix type="matrix" values="0 0 0 0 0 0 0 0 0 0 0 0 0 0 0 0 0 0 0.25 0"/>
<feBlend mode="normal" in2="shape" result="effect1_innerShadow_22985_30451"/>
</filter>
<clipPath id="clip0_22985_30451">
<rect width="46" height="46" fill="white" transform="translate(27 27)"/>
</clipPath>
</defs>
</svg>
