<svg width="40" height="40" viewBox="0 0 40 40" fill="none" xmlns="http://www.w3.org/2000/svg">
<path d="M37.3193 2.98816C37.305 2.91906 37.2713 2.85547 37.2222 2.80482C37.1731 2.75418 37.1105 2.71859 37.0419 2.70222C32.4661 1.58347 21.8935 5.57019 16.1654 11.296C15.1437 12.3094 14.2123 13.4099 13.3818 14.585C11.6154 14.4288 9.84895 14.5593 8.34348 15.2155C4.09583 17.085 2.85911 21.9632 2.51458 24.0616C2.49503 24.1765 2.50241 24.2943 2.53611 24.4058C2.56982 24.5173 2.62894 24.6195 2.70882 24.7043C2.78871 24.7891 2.88718 24.8542 2.99649 24.8945C3.1058 24.9349 3.22298 24.9492 3.3388 24.9366L10.1599 24.1843C10.1647 24.6985 10.1958 25.2122 10.2529 25.7233C10.2872 26.0783 10.4447 26.41 10.6982 26.6608L13.3396 29.296C13.5907 29.549 13.9223 29.7065 14.2771 29.7413C14.7853 29.7981 15.2961 29.8291 15.8075 29.8343L15.0591 36.6468C15.0466 36.7625 15.0611 36.8796 15.1015 36.9889C15.1419 37.0981 15.207 37.1965 15.2917 37.2764C15.3765 37.3562 15.4786 37.4153 15.5901 37.4491C15.7015 37.4829 15.8193 37.4903 15.9341 37.471C18.0286 37.135 22.9154 35.8983 24.774 31.6507C25.4302 30.1452 25.5646 28.3874 25.413 26.6296C26.591 25.799 27.6944 24.8673 28.7107 23.8452C34.4568 18.128 38.4208 7.79128 37.3193 2.98816ZM22.9779 17.0249C22.4532 16.5005 22.0958 15.8323 21.9509 15.1049C21.806 14.3774 21.8801 13.6232 22.1639 12.9379C22.4476 12.2525 22.9283 11.6667 23.545 11.2545C24.1617 10.8424 24.8869 10.6224 25.6286 10.6224C26.3704 10.6224 27.0955 10.8424 27.7123 11.2545C28.329 11.6667 28.8097 12.2525 29.0934 12.9379C29.3772 13.6232 29.4513 14.3774 29.3064 15.1049C29.1615 15.8323 28.8041 16.5005 28.2794 17.0249C27.9315 17.3733 27.5183 17.6497 27.0634 17.8383C26.6086 18.0269 26.121 18.124 25.6286 18.124C25.1362 18.124 24.6487 18.0269 24.1938 17.8383C23.739 17.6497 23.3258 17.3733 22.9779 17.0249Z" fill="white" style="fill:white;fill-opacity:1;"/>
<path d="M13.1602 31.2055C12.732 31.6344 12.0453 31.8016 11.2188 31.9445C9.36172 32.2609 7.72187 30.6563 8.05547 28.7789C8.18281 28.0672 8.55938 27.0695 8.79375 26.8352C8.84498 26.7849 8.87908 26.7198 8.8912 26.6491C8.90333 26.5784 8.89286 26.5056 8.86129 26.4412C8.82972 26.3768 8.77866 26.3239 8.71534 26.2902C8.65203 26.2564 8.57969 26.2434 8.50859 26.2531C7.47012 26.3802 6.50401 26.851 5.76406 27.5906C3.92734 29.4289 3.75391 36.25 3.75391 36.25C3.75391 36.25 10.5789 36.0766 12.4156 34.2383C13.1575 33.4989 13.6289 32.5313 13.7539 31.4914C13.7828 31.1648 13.3852 30.9703 13.1602 31.2055Z" fill="white" style="fill:white;fill-opacity:1;"/>
</svg>
