<svg width="40" height="40" viewBox="0 0 40 40" fill="none" xmlns="http://www.w3.org/2000/svg">
<g clip-path="url(#clip0_24015_43930)">
<path d="M28.0659 4.45508H12.7326C11.8862 4.45508 11.1992 5.14201 11.1992 5.98841V18.2551C11.1992 19.1015 11.8862 19.7884 12.7326 19.7884H28.0659C28.9123 19.7884 29.5992 19.1015 29.5992 18.2551V5.98841C29.5992 5.14201 28.9123 4.45508 28.0659 4.45508ZM15.7992 5.98841C15.7992 6.15708 15.6612 6.29508 15.4926 6.29508C15.3239 6.29508 15.1859 6.15708 15.1859 5.98841C15.1859 5.81974 15.3239 5.68174 15.4926 5.68174C15.6612 5.68174 15.7992 5.81974 15.7992 5.98841ZM14.5726 5.98841C14.5726 6.15708 14.4346 6.29508 14.2659 6.29508C14.0972 6.29508 13.9592 6.15708 13.9592 5.98841C13.9592 5.81974 14.0972 5.68174 14.2659 5.68174C14.4346 5.68174 14.5726 5.81974 14.5726 5.98841ZM13.0392 5.68174C13.2079 5.68174 13.3459 5.81974 13.3459 5.98841C13.3459 6.15708 13.2079 6.29508 13.0392 6.29508C12.8706 6.29508 12.7326 6.15708 12.7326 5.98841C12.7326 5.81974 12.8706 5.68174 13.0392 5.68174ZM28.9859 18.2551C28.9859 18.7611 28.5719 19.1751 28.0659 19.1751H12.7326C12.2266 19.1751 11.8126 18.7611 11.8126 18.2551V7.52174H28.9859V18.2551Z" fill="white" style="fill:white;fill-opacity:1;"/>
<path d="M14.2638 17.9461H27.1438C27.3124 17.9461 27.4504 17.8081 27.4504 17.6394C27.4504 17.4708 27.3124 17.3328 27.1438 17.3328H26.2238V12.4261C26.2238 12.0888 25.9478 11.8128 25.6104 11.8128H24.9971C24.6597 11.8128 24.3837 12.0888 24.3837 12.4261V17.3328H23.7704V13.9594C23.7704 13.6221 23.4944 13.3461 23.1571 13.3461H22.5437C22.2064 13.3461 21.9304 13.6221 21.9304 13.9594V17.3328H21.3171V13.9594C21.3171 13.6221 21.0411 13.3461 20.7038 13.3461H20.0904C19.7531 13.3461 19.4771 13.6221 19.4771 13.9594V17.3328H18.8637V15.4928C18.8637 15.1554 18.5877 14.8794 18.2504 14.8794H17.6371C17.2998 14.8794 17.0238 15.1554 17.0238 15.4928V17.3328H16.4104V16.1061C16.4104 15.7688 16.1344 15.4928 15.7971 15.4928H15.1838C14.8464 15.4928 14.5704 15.7688 14.5704 16.1061V17.3328H14.2638C14.0951 17.3328 13.9571 17.1948 13.9571 17.0261V9.05276C13.9571 8.88409 13.8191 8.74609 13.6504 8.74609C13.4817 8.74609 13.3438 8.88409 13.3438 9.05276V17.0261C13.3438 17.5321 13.7578 17.9461 14.2638 17.9461Z" fill="white" style="fill:white;fill-opacity:1;"/>
<path d="M15.4937 14.8784C15.552 14.8784 15.6072 14.8631 15.6593 14.8294L19.876 12.1184H22.8537C22.9273 12.1184 23.0009 12.0908 23.0561 12.0418L25.5094 9.89509C25.6382 9.78469 25.6505 9.58842 25.5371 9.46269C25.4267 9.33389 25.2304 9.32162 25.1046 9.43509L22.7372 11.5051H19.787C19.7288 11.5051 19.6705 11.5204 19.6214 11.5542L15.3281 14.3142C15.187 14.4062 15.1441 14.5963 15.2361 14.7374C15.2944 14.8294 15.3925 14.8784 15.4937 14.8784Z" fill="white" style="fill:white;fill-opacity:1;"/>
<path d="M6.61158 23.8174C6.65206 24.0971 6.65574 24.259 6.69622 24.4098C7.46166 27.2248 8.25655 30.0325 8.98151 32.8585C9.16183 33.5687 9.574 33.76 10.1959 33.8998C13.7766 34.702 17.3536 35.5189 20.9232 36.3653C21.891 36.5934 22.7301 36.494 23.5875 35.9421C26.3107 34.1905 29.0707 32.4905 31.816 30.7721C33.9063 29.4658 35.9966 28.1595 38.0794 26.8458C38.7786 26.4043 38.9958 25.8597 38.602 25.3224C37.5679 23.8984 36.2799 22.9784 34.1713 23.7806C32.9789 24.2332 31.8418 24.8293 30.6642 25.3224C29.965 25.6131 29.5124 25.9001 29.5124 26.8421C29.516 28.108 28.4378 29.0205 26.9695 29.3039C23.8672 29.8963 20.7392 29.6387 17.6185 29.5136C17.1953 29.4952 16.8568 29.2671 16.8788 28.785C16.9009 28.2919 17.2395 28.1448 17.6884 28.1668C18.5532 28.2036 19.4217 28.2846 20.2865 28.2588C22.4026 28.1963 24.5186 28.1006 26.6346 27.9792C27.2565 27.9424 27.7643 27.6222 28.0256 27.0151C28.4194 26.0878 27.8232 25.028 26.7671 24.9912C24.5811 24.914 22.3878 24.9618 20.1982 24.9213C19.5211 24.9103 18.8219 24.8625 18.1779 24.6785C16.6654 24.2479 15.1934 23.6813 13.6809 23.2507C12.9044 23.0299 12.0543 22.7871 11.2778 22.8828C9.72856 23.0667 8.20871 23.4826 6.61158 23.8174ZM4.62437 23.5488C3.74852 23.7843 3.03092 23.9241 2.35747 24.1927C2.15875 24.27 1.98947 24.7042 2.00051 24.9655C2.01523 25.3886 2.18819 25.8045 2.30227 26.2239C3.11924 29.2119 3.93252 32.1961 4.76053 35.1804C4.96293 35.9053 5.24997 36.0525 5.97125 35.8795C6.41286 35.7728 6.85446 35.6624 7.29606 35.541C8.00999 35.346 8.20135 35.0737 8.00263 34.3377C7.09734 30.9745 6.18102 27.6149 5.23157 24.2627C5.15061 23.9756 4.81205 23.7622 4.62437 23.5488Z" fill="white" style="fill:white;fill-opacity:1;"/>
<path d="M6.60938 23.8189C8.20282 23.4841 9.72635 23.0682 11.2793 22.8769C12.0558 22.7812 12.9059 23.0241 13.6824 23.2449C15.1949 23.6754 16.6669 24.2421 18.1794 24.6726C18.8234 24.8566 19.5226 24.9007 20.1997 24.9155C22.3893 24.9559 24.5789 24.9118 26.7685 24.9854C27.8247 25.0222 28.4245 26.0856 28.0271 27.0092C27.7658 27.6201 27.258 27.9402 26.636 27.9733C24.5237 28.0947 22.4077 28.1904 20.288 28.253C19.4232 28.2787 18.5547 28.1978 17.6899 28.161C17.241 28.1426 16.9024 28.2898 16.8803 28.7792C16.8582 29.2612 17.1968 29.493 17.62 29.5078C20.7407 29.6329 23.8687 29.8904 26.9709 29.298C28.4393 29.0184 29.5175 28.1058 29.5138 26.8363C29.5138 25.8943 29.9665 25.6073 30.6657 25.3166C31.8433 24.8235 32.9804 24.2274 34.1727 23.7748C36.2814 22.9726 37.5694 23.8925 38.6035 25.3166C38.9936 25.8538 38.7801 26.3984 38.0809 26.84C35.9943 28.1536 33.9041 29.4562 31.8175 30.7662C29.0722 32.4846 26.3122 34.1847 23.589 35.9362C22.7315 36.4882 21.8925 36.5875 20.9247 36.3594C17.355 35.5131 13.7781 34.6962 10.1974 33.894C9.57547 33.7542 9.16331 33.5628 8.98299 32.8526C8.25802 30.0266 7.46314 27.219 6.6977 24.404C6.65354 24.2642 6.64986 24.1022 6.60938 23.8189Z" fill="white" style="fill:white;fill-opacity:1;"/>
<path d="M4.62437 23.5488C4.81205 23.7623 5.15429 23.9757 5.23525 24.259C6.1847 27.6112 7.10102 30.9708 8.00631 34.3341C8.20503 35.0664 8.01367 35.3423 7.29974 35.5374C6.86182 35.6551 6.42022 35.7655 5.97493 35.8759C5.24997 36.0525 4.96293 35.9016 4.76421 35.1767C3.9362 32.1925 3.12292 29.2082 2.30595 26.2203C2.18819 25.8008 2.01891 25.385 2.00051 24.9618C1.98947 24.7006 2.15875 24.2664 2.35747 24.1891C3.02724 23.9242 3.74852 23.7843 4.62437 23.5488Z" fill="white" style="fill:white;fill-opacity:1;"/>
</g>
<defs>
<clipPath id="clip0_24015_43930">
<rect width="36.8" height="36.8" fill="white" style="fill:white;fill-opacity:1;" transform="translate(2 2)"/>
</clipPath>
</defs>
</svg>
