<svg width="40" height="40" viewBox="0 0 40 40" fill="none" xmlns="http://www.w3.org/2000/svg">
<g clip-path="url(#clip0_21996_34435)">
<rect width="40" height="40" rx="8" fill="#E6F0FC" style="fill:#E6F0FC;fill:color(display-p3 0.9020 0.9412 0.9882);fill-opacity:1;"/>
<path d="M24.9232 9.58203C24.9232 9.58203 26.0272 11.9101 25.016 14.426L23.5039 14.1725L23.6616 10.5114L24.9232 9.58203Z" fill="#071A22" style="fill:#071A22;fill:color(display-p3 0.0275 0.1020 0.1333);fill-opacity:1;"/>
<path d="M9.27425 52.2008H27.4473C27.4009 50.4923 27.3917 48.9715 27.4288 48.2017C27.6236 44.7565 28.273 41.6493 28.7925 39.6216C28.7925 39.6122 28.7925 39.6122 28.7925 39.6122L28.8017 39.5934C28.9409 39.0677 29.0708 38.6077 29.1728 38.2416L32.3176 26.8264C30.2211 24.3857 22.976 22.5833 22.976 22.5833L18.2077 22.2266C18.2077 22.2266 8.99595 25.362 6.84375 26.1693C7.58589 31.2855 8.62488 37.3967 8.62488 37.3967C8.82897 38.4951 10.0999 42.6443 9.27425 52.2008Z" fill="white" style="fill:white;fill-opacity:1;"/>
<path d="M20.6106 5.74383C20.6106 5.74383 25.017 6.24137 24.6923 13.6575C24.6089 15.6758 24.646 17.0558 23.9966 18.201C22.67 20.5385 19.887 21.0173 19.2933 20.9516C18.7181 20.8858 16.2134 20.2381 15.5919 18.6047C14.7755 16.455 14.2746 15.1876 14.4137 11.5641C14.423 11.5735 14.9054 5.03038 20.6106 5.74383Z" fill="#FFA98F" style="fill:#FFA98F;fill:color(display-p3 1.0000 0.6627 0.5608);fill-opacity:1;"/>
<path d="M22.6407 18.81C22.6407 18.81 22.483 21.8421 22.7613 22.5086C23.0489 23.1657 19.0228 25.2592 16.5273 22.8747C16.5273 22.8747 17.0376 19.2324 16.8799 18.059C16.7222 16.8949 22.6407 18.81 22.6407 18.81Z" fill="#FFA98F" style="fill:#FFA98F;fill:color(display-p3 1.0000 0.6627 0.5608);fill-opacity:1;"/>
<path d="M16.0566 22.9394C16.0566 22.9394 17.309 25.1361 19.6746 25.3426C21.1774 25.474 22.4761 23.5496 23.0884 22.6014C23.0884 22.6108 19.7209 21.1464 16.0566 22.9394Z" fill="#FFA98F" style="fill:#FFA98F;fill:color(display-p3 1.0000 0.6627 0.5608);fill-opacity:1;"/>
<path d="M19.6752 24.5273L21.0389 26.1138C21.0389 26.1138 19.4618 26.8179 18.4043 26.1326L19.6752 24.5273Z" fill="#05387D" style="fill:#05387D;fill:color(display-p3 0.0196 0.2196 0.4902);fill-opacity:1;"/>
<path d="M23.7374 52.2023H29.656C28.9695 49.7991 28.45 47.6963 28.4778 46.8702C28.5613 44.4857 33.58 26.4993 33.58 26.4993C33.58 26.4993 30.7877 24.6594 23.0881 22.6035C23.0881 22.6035 21.7244 32.9297 21.9099 41.8385C21.9656 44.7861 22.7356 48.5224 23.7374 52.2023Z" fill="#0745B4" style="fill:#0745B4;fill:color(display-p3 0.0275 0.2706 0.7059);fill-opacity:1;"/>
<path d="M8.43188 52.2044H15.1482C15.343 48.4963 15.51 44.7601 15.5657 41.8406C15.7512 32.9319 15.7419 23.0469 15.7419 23.0469C7.17952 25.3562 4.76758 26.9708 4.76758 26.9708C4.76758 26.9708 8.92354 44.4973 9.00704 46.8817C9.03487 47.6327 8.78439 49.7167 8.43188 52.2044Z" fill="#0745B4" style="fill:#0745B4;fill:color(display-p3 0.0275 0.2706 0.7059);fill-opacity:1;"/>
<path d="M20.4521 52.2024C20.3129 44.805 20.081 29.7475 20.3037 25.955L19.1533 25.7578C19.1533 25.7578 17.5485 31.2964 17.4093 42.2892C17.3537 46.8046 17.3722 49.9963 17.4186 52.193H20.4521V52.2024Z" fill="#05387D" style="fill:#05387D;fill:color(display-p3 0.0196 0.2196 0.4902);fill-opacity:1;"/>
<path d="M33.4758 46.4015C33.4851 46.9741 32.3534 49.4524 31.0082 52.2029H37.7617C39.0233 50.025 39.9603 48.3071 39.9974 47.9692C40.0994 47.021 35.5538 27.7204 33.5779 26.5L29.9785 37.1642C30.2104 37.0985 33.4573 45.3501 33.4758 46.4015Z" fill="#0745B4" style="fill:#0745B4;fill:color(display-p3 0.0275 0.2706 0.7059);fill-opacity:1;"/>
<path d="M0 52.2023H6.08552C6.20612 50.9913 6.28034 50.1277 6.28961 49.8554C6.30817 48.804 8.08002 37.6611 8.31193 37.7362L4.77751 26.9688C2.80157 28.1985 -0.0834904 48.3441 0.0185534 49.3016C0.0371068 49.5269 0.0278301 50.6346 0 52.2023Z" fill="#0745B4" style="fill:#0745B4;fill:color(display-p3 0.0275 0.2706 0.7059);fill-opacity:1;"/>
<path d="M15.016 49.413L13.6245 38.73L14.8119 37.2937L13.2441 37.1717L15.1459 24.0762L15.2943 24.1043L13.4204 37.0215L15.1273 37.1529L13.7915 38.777L15.1737 49.3942L15.016 49.413Z" fill="#0A1726" style="fill:#0A1726;fill:color(display-p3 0.0392 0.0902 0.1490);fill-opacity:1;"/>
<path d="M23.2368 48.6442L23.0791 48.6255L24.081 38.7968L22.7637 38.0645L24.0253 37.1258L23.2739 23.3356L23.4316 23.3262L24.183 37.2009L23.0512 38.0458L24.2479 38.7123V38.7592L23.2368 48.6442Z" fill="#0A1726" style="fill:#0A1726;fill:color(display-p3 0.0392 0.0902 0.1490);fill-opacity:1;"/>
<path d="M16.6327 22.209C16.6327 22.209 17.8479 23.7485 19.6755 24.5277L17.5789 27.2407L14.8887 23.2416L16.6327 22.209Z" fill="#6AA8E5" style="fill:#6AA8E5;fill:color(display-p3 0.4157 0.6588 0.8980);fill-opacity:1;"/>
<path d="M22.6517 21.918C22.6517 21.918 21.6962 23.1759 19.6738 24.5277L21.659 26.837L24.3957 22.9037L22.6517 21.918Z" fill="#6AA8E5" style="fill:#6AA8E5;fill:color(display-p3 0.4157 0.6588 0.8980);fill-opacity:1;"/>
<path d="M15.6485 9.8231C15.7876 9.76678 15.9268 9.70107 16.0659 9.66352C16.4926 9.55087 16.9286 9.42883 17.3554 9.5227C17.7172 9.5978 18.0419 9.83249 18.4129 9.79494C18.8582 9.75739 19.2014 9.32557 19.3591 8.89374C19.489 8.52763 19.6282 8.05825 19.9992 8.02071C20.5095 7.97377 20.6579 8.79048 21.131 8.94068C21.2887 8.98762 21.465 8.95945 21.6319 8.94068C22.003 8.91252 22.4019 8.96884 22.7266 9.16598C22.9863 9.32557 23.1626 9.60719 23.2368 9.90759C23.3389 10.3488 23.5429 10.5553 23.9604 10.7994C24.6654 11.2218 25.3797 10.8651 25.8807 10.2455C25.9085 10.208 25.9363 10.1704 25.9642 10.1329C26.428 9.45699 26.3723 8.44314 25.7879 7.88928C25.5189 7.63582 25.4539 7.59827 25.1849 7.34481C24.6376 6.80972 24.5727 5.9273 24.1181 5.29833C23.2832 4.13429 21.6783 4.65999 20.4816 4.44407C19.9065 4.34081 19.3406 4.19061 18.7654 4.09674C17.8749 3.94654 16.9286 3.94654 16.0659 4.2751C14.6095 4.81957 14.1178 5.88036 13.6911 7.40113C13.2643 8.9219 11.1864 10.1986 14.3312 14.5732L15.1846 14.4793C15.1939 14.4887 14.3404 10.3019 15.6485 9.8231Z" fill="#071A22" style="fill:#071A22;fill:color(display-p3 0.0275 0.1020 0.1333);fill-opacity:1;"/>
<path d="M14.3651 13.0358C14.3651 13.0358 12.8994 12.895 13.1499 14.6974C13.4004 16.4998 15.1537 16.021 15.1537 16.021L14.3651 13.0358Z" fill="#FFA98F" style="fill:#FFA98F;fill:color(display-p3 1.0000 0.6627 0.5608);fill-opacity:1;"/>
<path d="M24.8041 12.278C24.8041 12.278 26.2699 12.1372 26.0194 13.9395C25.7689 15.7419 24.0156 15.2632 24.0156 15.2632L24.8041 12.278Z" fill="#FFA98F" style="fill:#FFA98F;fill:color(display-p3 1.0000 0.6627 0.5608);fill-opacity:1;"/>
<path d="M24.3413 10.7464C24.3413 10.7464 24.6753 12.8023 24.2949 13.8537L24.8144 13.9475C24.8144 13.9475 25.0834 12.5113 25.1113 12.0231C25.1298 11.6476 24.9536 10.5117 24.9536 10.5117L24.3413 10.7464Z" fill="#071A22" style="fill:#071A22;fill:color(display-p3 0.0275 0.1020 0.1333);fill-opacity:1;"/>
<path d="M16.4272 10.8408C17.2158 10.6342 18.0599 10.6061 18.8485 10.7657L18.8856 10.5685C18.0692 10.4089 17.2065 10.4371 16.3809 10.653L16.4272 10.8408Z" fill="#2C2C2C" style="fill:#2C2C2C;fill:color(display-p3 0.1725 0.1725 0.1725);fill-opacity:1;"/>
<path d="M21.0381 11.047C21.8544 10.9438 22.6801 11.0189 23.45 11.2723L23.515 11.0846C22.7264 10.8217 21.8637 10.7466 21.0195 10.8593L21.0381 11.047Z" fill="#2C2C2C" style="fill:#2C2C2C;fill:color(display-p3 0.1725 0.1725 0.1725);fill-opacity:1;"/>
<path d="M18.3828 17.0172L21.4905 17.0078C21.4905 17.0078 21.472 18.369 19.8671 18.3127C19.4218 18.2939 18.4941 17.9184 18.3828 17.0172Z" fill="#E5F4F6" style="fill:#E5F4F6;fill:color(display-p3 0.8980 0.9569 0.9647);fill-opacity:1;"/>
<path d="M19.8105 15.819C19.8012 15.819 19.8012 15.819 19.7919 15.819C19.6621 15.819 19.5322 15.8189 19.4301 15.7345C19.2632 15.5937 19.2724 15.3402 19.291 15.1618C19.3003 15.0586 19.3188 14.9084 19.3374 14.73C19.4116 14.0729 19.5229 13.0872 19.6157 12.7305L19.7641 12.768C19.6806 13.1154 19.5693 14.101 19.4951 14.7488C19.4765 14.9271 19.458 15.0773 19.4487 15.1806C19.4301 15.3214 19.4209 15.5279 19.5322 15.6218C19.5971 15.6688 19.6806 15.6781 19.8012 15.6781C20.1537 15.6688 20.497 15.603 20.8309 15.4904L20.8773 15.6312C20.5155 15.7345 20.163 15.8002 19.8105 15.819Z" fill="#2C2C2C" style="fill:#2C2C2C;fill:color(display-p3 0.1725 0.1725 0.1725);fill-opacity:1;"/>
<path d="M17.9966 13.3373C18.0151 13.6095 17.8574 13.8442 17.6626 13.863C17.4585 13.8817 17.2822 13.6752 17.273 13.403C17.2544 13.1307 17.4121 12.896 17.6069 12.8773C17.8017 12.8679 17.978 13.065 17.9966 13.3373Z" fill="#2C2C2C" style="fill:#2C2C2C;fill:color(display-p3 0.1725 0.1725 0.1725);fill-opacity:1;"/>
<path d="M22.4223 13.3373C22.4409 13.6095 22.2832 13.8442 22.0884 13.863C21.8843 13.8817 21.708 13.6752 21.6988 13.403C21.6802 13.1307 21.8379 12.896 22.0327 12.8773C22.2368 12.8679 22.4131 13.065 22.4223 13.3373Z" fill="#2C2C2C" style="fill:#2C2C2C;fill:color(display-p3 0.1725 0.1725 0.1725);fill-opacity:1;"/>
<path d="M17.6503 15.4505C16.8339 15.4505 16.166 14.6432 16.166 13.6481C16.166 12.653 16.8339 11.8457 17.6503 11.8457C18.4666 11.8457 19.1346 12.653 19.1346 13.6481C19.1346 14.6432 18.4759 15.4505 17.6503 15.4505ZM17.6503 12.0147C16.9174 12.0147 16.3237 12.7469 16.3237 13.6575C16.3237 14.5681 16.9174 15.3003 17.6503 15.3003C18.3832 15.3003 18.9769 14.5681 18.9769 13.6575C18.9769 12.7469 18.3924 12.0147 17.6503 12.0147Z" fill="#183862" style="fill:#183862;fill:color(display-p3 0.0941 0.2196 0.3843);fill-opacity:1;"/>
<path d="M22.0858 15.4134C21.2695 15.4134 20.6016 14.6061 20.6016 13.611C20.6016 12.6159 21.2695 11.8086 22.0858 11.8086C22.9022 11.8086 23.5701 12.6159 23.5701 13.611C23.5701 14.6061 22.9115 15.4134 22.0858 15.4134ZM22.0858 11.9682C21.353 11.9682 20.7593 12.7004 20.7593 13.611C20.7593 14.5216 21.353 15.2538 22.0858 15.2538C22.8187 15.2538 23.4124 14.5216 23.4124 13.611C23.4124 12.7004 22.828 11.9682 22.0858 11.9682Z" fill="#183862" style="fill:#183862;fill:color(display-p3 0.0941 0.2196 0.3843);fill-opacity:1;"/>
<path d="M19.0898 13.3752V13.2063C19.1548 13.2063 20.6391 13.1875 20.6391 13.1875V13.3471C20.6391 13.3471 19.1455 13.3752 19.0898 13.3752Z" fill="#183862" style="fill:#183862;fill:color(display-p3 0.0941 0.2196 0.3843);fill-opacity:1;"/>
<path d="M14.843 12.8962L14.7969 13.0488L16.1808 13.4769L16.2269 13.3243L14.843 12.8962Z" fill="#183862" style="fill:#183862;fill:color(display-p3 0.0941 0.2196 0.3843);fill-opacity:1;"/>
<path d="M24.5475 12.6958L23.4219 13.293L23.4951 13.4343L24.6207 12.8372L24.5475 12.6958Z" fill="#183862" style="fill:#183862;fill:color(display-p3 0.0941 0.2196 0.3843);fill-opacity:1;"/>
<path d="M19.8314 20.9978C18.6254 20.9978 17.8276 20.4064 17.8184 20.397L17.9111 20.2656C17.9297 20.275 19.5995 21.5142 21.7517 20.3032L21.8259 20.444C21.1023 20.857 20.4158 20.9978 19.8314 20.9978Z" fill="#2C2C2C" style="fill:#2C2C2C;fill:color(display-p3 0.1725 0.1725 0.1725);fill-opacity:1;"/>
</g>
<defs>
<clipPath id="clip0_21996_34435">
<rect width="40" height="40" rx="8" fill="white" style="fill:white;fill-opacity:1;"/>
</clipPath>
</defs>
</svg>
