<svg width="28" height="28" viewBox="0 0 28 28" fill="none" xmlns="http://www.w3.org/2000/svg">
<g clip-path="url(#clip0_22899_29415)">
<g clip-path="url(#clip1_22899_29415)">
<path d="M19.5523 1.8418H8.05234C7.41754 1.8418 6.90234 2.357 6.90234 2.9918V12.1918C6.90234 12.8266 7.41754 13.3418 8.05234 13.3418H19.5523C20.1871 13.3418 20.7023 12.8266 20.7023 12.1918V2.9918C20.7023 2.357 20.1871 1.8418 19.5523 1.8418ZM10.3523 2.9918C10.3523 3.1183 10.2488 3.2218 10.1223 3.2218C9.99584 3.2218 9.89234 3.1183 9.89234 2.9918C9.89234 2.8653 9.99584 2.7618 10.1223 2.7618C10.2488 2.7618 10.3523 2.8653 10.3523 2.9918ZM9.43234 2.9918C9.43234 3.1183 9.32884 3.2218 9.20234 3.2218C9.07584 3.2218 8.97234 3.1183 8.97234 2.9918C8.97234 2.8653 9.07584 2.7618 9.20234 2.7618C9.32884 2.7618 9.43234 2.8653 9.43234 2.9918ZM8.28234 2.7618C8.40884 2.7618 8.51234 2.8653 8.51234 2.9918C8.51234 3.1183 8.40884 3.2218 8.28234 3.2218C8.15584 3.2218 8.05234 3.1183 8.05234 2.9918C8.05234 2.8653 8.15584 2.7618 8.28234 2.7618ZM20.2423 12.1918C20.2423 12.5713 19.9318 12.8818 19.5523 12.8818H8.05234C7.67284 12.8818 7.36234 12.5713 7.36234 12.1918V4.1418H20.2423V12.1918Z" fill="white" style="fill:white;fill-opacity:1;"/>
<path d="M9.20172 11.9605H18.8617C18.9882 11.9605 19.0917 11.857 19.0917 11.7305C19.0917 11.604 18.9882 11.5005 18.8617 11.5005H18.1717V7.82055C18.1717 7.56755 17.9647 7.36055 17.7117 7.36055H17.2517C16.9987 7.36055 16.7917 7.56755 16.7917 7.82055V11.5005H16.3317V8.97055C16.3317 8.71755 16.1247 8.51055 15.8717 8.51055H15.4117C15.1587 8.51055 14.9517 8.71755 14.9517 8.97055V11.5005H14.4917V8.97055C14.4917 8.71755 14.2847 8.51055 14.0317 8.51055H13.5717C13.3187 8.51055 13.1117 8.71755 13.1117 8.97055V11.5005H12.6517V10.1205C12.6517 9.86755 12.4447 9.66055 12.1917 9.66055H11.7317C11.4787 9.66055 11.2717 9.86755 11.2717 10.1205V11.5005H10.8117V10.5805C10.8117 10.3275 10.6047 10.1205 10.3517 10.1205H9.89172C9.63872 10.1205 9.43172 10.3275 9.43172 10.5805V11.5005H9.20172C9.07522 11.5005 8.97172 11.397 8.97172 11.2705V5.29055C8.97172 5.16405 8.86822 5.06055 8.74172 5.06055C8.61522 5.06055 8.51172 5.16405 8.51172 5.29055V11.2705C8.51172 11.65 8.82222 11.9605 9.20172 11.9605Z" fill="white" style="fill:white;fill-opacity:1;"/>
<path d="M10.1203 9.66028C10.164 9.66028 10.2054 9.64878 10.2445 9.62348L13.407 7.59028H15.6403C15.6955 7.59028 15.7507 7.56958 15.7921 7.53278L17.6321 5.92278C17.7287 5.83998 17.7379 5.69278 17.6528 5.59848C17.57 5.50188 17.4228 5.49268 17.3285 5.57778L15.5529 7.13028H13.3403C13.2966 7.13028 13.2529 7.14178 13.2161 7.16708L9.99609 9.23708C9.89029 9.30608 9.85809 9.44868 9.92709 9.55448C9.97079 9.62348 10.0444 9.66028 10.1203 9.66028Z" fill="white" style="fill:white;fill-opacity:1;"/>
<path d="M3.45868 16.3635C3.48904 16.5733 3.4918 16.6947 3.52216 16.8079C4.09625 18.9191 4.69241 21.0248 5.23613 23.1444C5.37137 23.677 5.6805 23.8205 6.14694 23.9254C8.83243 24.527 11.5152 25.1397 14.1924 25.7744C14.9183 25.9455 15.5476 25.871 16.1906 25.4571C18.233 24.1434 20.3031 22.8684 22.362 21.5795C23.9297 20.5998 25.4974 19.6201 27.0596 18.6349C27.584 18.3037 27.7468 17.8952 27.4515 17.4923C26.6759 16.4243 25.7099 15.7343 24.1284 16.3359C23.2342 16.6754 22.3814 17.1225 21.4981 17.4923C20.9737 17.7103 20.6343 17.9256 20.6343 18.6321C20.637 19.5815 19.8283 20.2659 18.7271 20.4784C16.4004 20.9227 14.0544 20.7295 11.7139 20.6357C11.3965 20.6219 11.1426 20.4508 11.1591 20.0893C11.1757 19.7194 11.4296 19.6091 11.7663 19.6256C12.4149 19.6532 13.0663 19.7139 13.7149 19.6946C15.3019 19.6477 16.8889 19.5759 18.4759 19.4849C18.9424 19.4573 19.3233 19.2172 19.5192 18.7618C19.8145 18.0663 19.3674 17.2715 18.5753 17.2439C16.9358 17.186 15.2909 17.2218 13.6487 17.1915C13.1408 17.1832 12.6164 17.1473 12.1334 17.0093C10.999 16.6864 9.89504 16.2614 8.76067 15.9385C8.17831 15.7729 7.54075 15.5908 6.95838 15.6626C5.79642 15.8005 4.65653 16.1124 3.45868 16.3635ZM1.96827 16.1621C1.31139 16.3387 0.773188 16.4436 0.268105 16.645C0.119064 16.703 -0.00789653 17.0287 0.000383517 17.2246C0.0114236 17.542 0.141144 17.8538 0.226705 18.1684C0.839428 20.4094 1.44939 22.6476 2.0704 24.8858C2.2222 25.4295 2.43748 25.5398 2.97844 25.4101C3.30964 25.3301 3.64084 25.2473 3.97205 25.1562C4.50749 25.01 4.65101 24.8057 4.50197 24.2538C3.82301 21.7313 3.13576 19.2116 2.42368 16.6975C2.36296 16.4822 2.10904 16.3221 1.96827 16.1621Z" fill="white" style="fill:white;fill-opacity:1;"/>
<path d="M3.46094 16.3652C4.65602 16.114 5.79867 15.8022 6.9634 15.6587C7.54576 15.5869 8.18333 15.769 8.76569 15.9346C9.90006 16.2575 11.0041 16.6825 12.1384 17.0054C12.6214 17.1434 13.1458 17.1765 13.6537 17.1876C15.2959 17.2179 16.9381 17.1848 18.5803 17.24C19.3724 17.2676 19.8223 18.0652 19.5242 18.7579C19.3283 19.216 18.9474 19.4561 18.4809 19.481C16.8967 19.572 15.3097 19.6438 13.7199 19.6907C13.0713 19.71 12.4199 19.6493 11.7713 19.6217C11.4346 19.6079 11.1807 19.7183 11.1641 20.0854C11.1476 20.4469 11.4015 20.6208 11.7189 20.6318C14.0594 20.7256 16.4054 20.9188 18.7321 20.4745C19.8334 20.2647 20.642 19.5803 20.6393 18.6282C20.6393 17.9217 20.9788 17.7064 21.5032 17.4884C22.3864 17.1186 23.2392 16.6715 24.1335 16.332C25.7149 15.7304 26.681 16.4204 27.4565 17.4884C27.7491 17.8913 27.589 18.2998 27.0646 18.6309C25.4997 19.6162 23.932 20.5932 22.367 21.5756C20.3081 22.8645 18.2381 24.1395 16.1957 25.4531C15.5526 25.8671 14.9233 25.9416 14.1974 25.7705C11.5202 25.1358 8.83745 24.5231 6.15195 23.9215C5.68551 23.8166 5.37639 23.6731 5.24115 23.1404C4.69742 21.0209 4.10126 18.9152 3.52718 16.804C3.49406 16.6991 3.4913 16.5777 3.46094 16.3652Z" fill="white" style="fill:white;fill-opacity:1;"/>
<path d="M1.96827 16.1621C2.10904 16.3222 2.36572 16.4822 2.42644 16.6947C3.13852 19.2089 3.82577 21.7286 4.50473 24.2511C4.65377 24.8003 4.51025 25.0072 3.97481 25.1535C3.64636 25.2418 3.31516 25.3246 2.9812 25.4074C2.43748 25.5399 2.2222 25.4267 2.07316 24.883C1.45215 22.6449 0.842188 20.4067 0.229465 18.1657C0.141144 17.8511 0.0141836 17.5392 0.000383517 17.2219C-0.00789653 17.0259 0.119064 16.7003 0.268105 16.6423C0.770428 16.4436 1.31139 16.3387 1.96827 16.1621Z" fill="white" style="fill:white;fill-opacity:1;"/>
</g>
</g>
<defs>
<clipPath id="clip0_22899_29415">
<rect width="28" height="28" fill="white" style="fill:white;fill-opacity:1;"/>
</clipPath>
<clipPath id="clip1_22899_29415">
<rect width="27.6" height="27.6" fill="white" style="fill:white;fill-opacity:1;"/>
</clipPath>
</defs>
</svg>
