<svg width="52" height="52" viewBox="0 0 52 52" fill="none" xmlns="http://www.w3.org/2000/svg">
<path d="M30.6826 49.4009C29.8413 49.4009 29.1284 48.8183 28.972 47.9925C28.882 47.5139 28.8043 47.0335 28.7239 46.5531C28.5553 45.5503 28.3884 44.5475 28.2207 43.5447C28.0599 42.5839 27.8983 41.6241 27.7358 40.6634C27.5497 39.5617 27.3636 38.4609 27.1776 37.3593C27.0395 36.5403 26.9015 35.7214 26.7661 34.9016C26.739 34.7358 26.6918 34.5794 26.5721 34.4548C26.3616 34.2357 26.1073 34.1325 25.8033 34.2167C25.4984 34.301 25.2992 34.5003 25.2389 34.8105C25.1717 35.1551 25.1193 35.5023 25.0607 35.8477C24.8877 36.8712 24.7139 37.8955 24.5427 38.9189C24.3583 40.0206 24.1766 41.1231 23.9914 42.2247C23.8271 43.1992 23.6568 44.1728 23.4925 45.1473C23.337 46.065 23.1806 46.9828 23.0339 47.9023C22.8819 48.8578 22.0676 49.4877 21.0935 49.3915C20.1238 49.2952 19.4091 48.3706 19.569 47.4168C19.7411 46.3856 19.9106 45.3544 20.0853 44.3232C20.3326 42.8615 20.5859 41.4015 20.8314 39.9398C21.0429 38.6826 21.2621 37.4272 21.4543 36.1674C21.7409 34.2889 21.8842 32.3984 21.9051 30.4985C21.9182 29.292 21.8335 28.0941 21.6195 26.9074C21.3111 25.1991 20.7633 23.5663 19.9901 22.0058C19.286 20.5836 18.5888 19.1589 17.8881 17.735C17.543 17.0329 17.1936 16.3326 16.8546 15.628C16.5191 14.931 16.8913 14.1353 17.6374 13.936C18.1633 13.795 18.7329 14.021 19.0003 14.5022C19.2021 14.8657 19.3751 15.2456 19.5594 15.6185C20.4025 17.332 21.2403 19.0472 22.0886 20.7581C22.8923 22.3796 24.589 23.3352 26.4122 23.1496C28.0267 22.9854 29.2123 22.1588 29.9313 20.7272C30.8364 18.9243 31.7161 17.1086 32.6064 15.2988C32.7269 15.0539 32.8405 14.8064 32.9689 14.5658C33.2197 14.0958 33.6757 13.8423 34.1876 13.9042C34.7153 13.9677 35.0657 14.2634 35.2273 14.7609C35.3243 15.0599 35.2867 15.3556 35.1487 15.6374C34.5572 16.8422 33.9614 18.0452 33.3725 19.2517C32.7924 20.4384 32.2062 21.6217 31.6454 22.817C31.2085 23.7485 30.8949 24.7247 30.645 25.7207C30.3803 26.7725 30.1995 27.8389 30.1462 28.9208C30.1069 29.7139 30.1069 30.5096 30.1191 31.3037C30.1427 32.8229 30.2772 34.3353 30.486 35.84C30.6022 36.6761 30.7507 37.5088 30.8897 38.3423C31.1657 39.9948 31.4453 41.6473 31.7231 43.2998C31.9546 44.6764 32.1905 46.053 32.4168 47.4305C32.5863 48.4668 31.7581 49.4026 30.6826 49.4018V49.4009Z" fill="white" style="fill:white;fill-opacity:1;"/>
<path d="M25.9966 22.0423C24.2904 22.0311 22.9275 20.6802 22.9415 19.0149C22.9555 17.3461 24.3402 16.0073 26.0351 16.0236C27.7142 16.0399 29.0684 17.4011 29.0587 19.063C29.0483 20.7034 27.6618 22.0534 25.9975 22.0423H25.9966Z" fill="white" style="fill:white;fill-opacity:1;"/>
<path d="M37.2324 14.5131C36.8201 14.5123 36.5038 14.3009 36.3824 13.9907C36.2513 13.6573 36.3308 13.3007 36.5929 13.0661C36.6462 13.0179 36.7056 12.975 36.7685 12.9389C37.9025 12.2944 39.0356 11.649 40.1722 11.0097C40.54 10.8026 40.9297 10.8628 41.2118 11.1472C41.5604 11.4995 41.536 12.0546 41.1472 12.364C41.0188 12.4663 40.8676 12.5436 40.7235 12.6261C39.6969 13.2104 38.6695 13.7922 37.643 14.3757C37.4945 14.4599 37.3399 14.514 37.2342 14.5114L37.2324 14.5131Z" fill="white" style="fill:white;fill-opacity:1;"/>
<path d="M11.4085 29.1534C11.0372 29.15 10.7227 28.9343 10.5995 28.6198C10.472 28.2958 10.5488 27.9452 10.8057 27.7141C10.8747 27.6522 10.9542 27.5981 11.0355 27.5525C12.124 26.9312 13.2143 26.3134 14.3029 25.6921C14.5982 25.5237 14.8961 25.4644 15.2141 25.6277C15.7269 25.8906 15.8352 26.5557 15.4211 26.9527C15.3242 27.0464 15.2027 27.1186 15.0839 27.1865C14.0338 27.7863 12.9811 28.3826 11.9292 28.9807C11.7571 29.0787 11.5815 29.1629 11.4085 29.1543V29.1534Z" fill="white" style="fill:white;fill-opacity:1;"/>
<path d="M41.4593 28.3216C41.4575 28.9257 40.8049 29.333 40.2467 29.0717C40.0632 28.9858 39.892 28.875 39.7155 28.7753C38.7449 28.2245 37.7751 27.6728 36.8036 27.1237C36.6001 27.0085 36.4428 26.8564 36.3694 26.6347C36.2524 26.2841 36.3485 25.9842 36.6158 25.7367C36.8613 25.5099 37.2396 25.4609 37.5523 25.6216C37.8293 25.7642 38.0975 25.9241 38.3683 26.0779C39.2376 26.5711 40.1069 27.0661 40.977 27.5585C41.2775 27.7286 41.4514 27.9735 41.4601 28.3216H41.4593Z" fill="white" style="fill:white;fill-opacity:1;"/>
<path d="M14.7603 14.5132C14.645 14.5166 14.486 14.453 14.3314 14.3654C13.4254 13.8481 12.5168 13.3351 11.61 12.8195C11.3959 12.6983 11.1793 12.5797 10.9687 12.4534C10.7014 12.2936 10.5529 12.0581 10.5398 11.7479C10.5162 11.1816 11.0954 10.7545 11.6423 10.9341C11.7375 10.9659 11.8301 11.0115 11.9184 11.0613C13.0087 11.6791 14.0981 12.2996 15.1884 12.9166C15.3841 13.0274 15.5379 13.1718 15.6174 13.384C15.8227 13.9349 15.4217 14.5063 14.7612 14.514L14.7603 14.5132Z" fill="white" style="fill:white;fill-opacity:1;"/>
<path d="M25.1431 5.36381C25.1431 4.74166 25.1448 4.11866 25.1422 3.49651C25.1422 3.31949 25.1806 3.15536 25.2724 3.00498C25.4707 2.6793 25.8516 2.53149 26.2351 2.62946C26.5593 2.71195 26.8266 3.04021 26.851 3.38652C26.8537 3.42175 26.8519 3.45784 26.8519 3.49393C26.8519 4.75369 26.8502 6.0126 26.8528 7.27236C26.8528 7.55507 26.7593 7.79311 26.5409 7.97442C26.2771 8.19355 25.9695 8.2305 25.6611 8.09988C25.3423 7.96497 25.171 7.7046 25.1457 7.36087C25.1361 7.23283 25.1431 7.10307 25.1431 6.97417C25.1431 6.4371 25.1431 5.90089 25.1431 5.36381Z" fill="white" style="fill:white;fill-opacity:1;"/>
<path d="M33.0208 31.0888C33.3013 31.1025 33.5538 31.2374 33.7198 31.5107C33.9102 31.8235 34.0945 32.1406 34.2798 32.4559C34.4038 32.6665 34.5331 32.8744 34.6449 33.091C34.9044 33.5971 34.6231 34.1746 34.0614 34.2923C33.7503 34.3576 33.4882 34.2579 33.269 34.0379C33.2436 34.0122 33.22 33.9847 33.2017 33.9537C32.8723 33.3977 32.5194 32.8529 32.2215 32.2806C31.9375 31.7367 32.3709 31.087 33.0208 31.0879V31.0888Z" fill="white" style="fill:white;fill-opacity:1;"/>
<path d="M17.2383 33.4333C17.2697 33.3319 17.2872 33.1987 17.3492 33.0904C17.6585 32.5473 17.9625 32 18.3006 31.4749C18.6501 30.931 19.4285 30.9636 19.7483 31.517C19.9046 31.7877 19.9011 32.0721 19.75 32.3385C19.4521 32.8636 19.1454 33.3835 18.8301 33.8982C18.6448 34.2007 18.3565 34.3442 17.9983 34.3012C17.6515 34.2591 17.4139 34.058 17.2951 33.7349C17.2636 33.649 17.2601 33.5536 17.2392 33.4342L17.2383 33.4333Z" fill="white" style="fill:white;fill-opacity:1;"/>
<path d="M34.7723 6.58931C34.7269 6.72336 34.7024 6.86859 34.6334 6.98889C34.3355 7.51308 34.035 8.03726 33.7152 8.54856C33.4217 9.01775 32.8241 9.09165 32.417 8.72987C32.1313 8.47637 32.0527 8.05445 32.2493 7.70814C32.5472 7.18396 32.8529 6.66321 33.1683 6.14848C33.3789 5.80475 33.7659 5.66124 34.1258 5.76608C34.5067 5.87779 34.747 6.1923 34.7723 6.58845V6.58931Z" fill="white" style="fill:white;fill-opacity:1;"/>
<path d="M40.8907 19.1924C41.2034 19.1924 41.5162 19.1847 41.8289 19.1942C42.1941 19.2062 42.5086 19.4519 42.6056 19.7811C42.7541 20.282 42.4204 20.7856 41.8936 20.8552C41.8508 20.8612 41.8062 20.8638 41.7634 20.8638C41.1816 20.8638 40.5997 20.869 40.0179 20.8604C39.8834 20.8587 39.7409 20.8277 39.6178 20.7753C39.2701 20.6266 39.0744 20.2537 39.1364 19.8971C39.2045 19.5095 39.5147 19.2165 39.9087 19.1984C40.2354 19.1838 40.563 19.195 40.8907 19.195C40.8907 19.1942 40.8907 19.1924 40.8907 19.1916V19.1924Z" fill="white" style="fill:white;fill-opacity:1;"/>
<path d="M18.0741 5.73242C18.4008 5.75133 18.6367 5.86132 18.7975 6.09849C18.8901 6.23512 18.9713 6.37949 19.0552 6.52214C19.2815 6.90539 19.5104 7.28779 19.7314 7.67448C20.0564 8.24078 19.7262 8.88269 19.0709 8.94885C18.718 8.98495 18.4506 8.82168 18.2707 8.52865C18.0706 8.20468 17.8828 7.87385 17.6897 7.54559C17.5805 7.35997 17.4652 7.1778 17.363 6.98789C17.1009 6.49722 17.3289 5.93694 17.8574 5.77109C17.9396 5.74531 18.0278 5.74016 18.0741 5.73242Z" fill="white" style="fill:white;fill-opacity:1;"/>
<path d="M11.1024 20.8623C10.7967 20.8623 10.4909 20.8735 10.186 20.8597C9.76315 20.8408 9.44776 20.5693 9.37088 20.1809C9.2774 19.7065 9.61987 19.2494 10.1074 19.1987C10.151 19.1944 10.1947 19.1909 10.2384 19.1909C10.8272 19.1909 11.4169 19.1866 12.0058 19.1927C12.4112 19.1961 12.7108 19.4152 12.8288 19.777C12.9843 20.2531 12.6724 20.7601 12.17 20.8451C12.0774 20.8606 11.9822 20.8632 11.8878 20.864C11.6257 20.8666 11.3645 20.8649 11.1024 20.8649C11.1024 20.864 11.1024 20.8632 11.1024 20.8623Z" fill="white" style="fill:white;fill-opacity:1;"/>
</svg>
