<svg width="24" height="24" viewBox="0 0 24 24" fill="none" xmlns="http://www.w3.org/2000/svg">
<path d="M10.55 5.80948H7.7L11.5 2L15.3 5.80948H12.45V10.0285C11.7375 10.4666 11.101 11.0094 10.55 11.638V5.80948ZM21 11.5237L17.2 7.71422V10.5713C15.5499 10.5033 13.9373 11.0764 12.6984 12.1711C11.4594 13.2659 10.6898 14.7978 10.55 16.4475C9.83767 16.701 9.25467 17.2273 8.92879 17.9111C8.60291 18.5948 8.56073 19.3802 8.8115 20.095C9.06441 20.8091 9.58942 21.3936 10.2715 21.7203C10.9535 22.047 11.7369 22.0893 12.45 21.8379C13.1617 21.5835 13.744 21.0571 14.0698 20.3736C14.3955 19.6901 14.4382 18.9052 14.1885 18.1903C13.9035 17.3713 13.2575 16.7332 12.45 16.4475C12.8965 12.638 16.6965 12.4475 17.1525 12.4475V15.3046L21 11.5237ZM10.1985 12.0856C8.93804 11.1102 7.39228 10.5781 5.8 10.5713V7.71422L2 11.5237L5.8 15.3332V12.4761C7.073 12.5046 8.2985 12.9523 9.258 13.8094C9.4955 13.1999 9.809 12.6189 10.1985 12.0856Z" fill="#0668E1" style="fill:#0668E1;fill:color(display-p3 0.0235 0.4078 0.8824);fill-opacity:1;"/>
<circle cx="19" cy="19" r="5" fill="#E6F0FC" style="fill:#E6F0FC;fill:color(display-p3 0.9020 0.9412 0.9882);fill-opacity:1;"/>
<path d="M19.0006 19.583L20.209 20.7913C20.2854 20.8677 20.3826 20.9059 20.5006 20.9059C20.6187 20.9059 20.7159 20.8677 20.7923 20.7913C20.8687 20.715 20.9069 20.6177 20.9069 20.4997C20.9069 20.3816 20.8687 20.2844 20.7923 20.208L19.584 18.9997L20.7923 17.7913C20.8687 17.715 20.9069 17.6177 20.9069 17.4997C20.9069 17.3816 20.8687 17.2844 20.7923 17.208C20.7159 17.1316 20.6187 17.0934 20.5006 17.0934C20.3826 17.0934 20.2854 17.1316 20.209 17.208L19.0006 18.4163L17.7923 17.208C17.7159 17.1316 17.6187 17.0934 17.5006 17.0934C17.3826 17.0934 17.2854 17.1316 17.209 17.208C17.1326 17.2844 17.0944 17.3816 17.0944 17.4997C17.0944 17.6177 17.1326 17.715 17.209 17.7913L18.4173 18.9997L17.209 20.208C17.1326 20.2844 17.0944 20.3816 17.0944 20.4997C17.0944 20.6177 17.1326 20.715 17.209 20.7913C17.2854 20.8677 17.3826 20.9059 17.5006 20.9059C17.6187 20.9059 17.7159 20.8677 17.7923 20.7913L19.0006 19.583ZM19.0006 23.1663C18.4243 23.1663 17.8826 23.0569 17.3756 22.838C16.8687 22.6191 16.4277 22.3223 16.0527 21.9476C15.6777 21.5729 15.3809 21.1319 15.1623 20.6247C14.9437 20.1175 14.8343 19.5758 14.834 18.9997C14.8337 18.4236 14.9432 17.8819 15.1623 17.3747C15.3815 16.8675 15.6783 16.4265 16.0527 16.0518C16.4272 15.677 16.8682 15.3802 17.3756 15.1613C17.8831 14.9425 18.4248 14.833 19.0006 14.833C19.5765 14.833 20.1181 14.9425 20.6256 15.1613C21.1331 15.3802 21.5741 15.677 21.9486 16.0518C22.323 16.4265 22.62 16.8675 22.8394 17.3747C23.0588 17.8819 23.1681 18.4236 23.1673 18.9997C23.1665 19.5758 23.057 20.1175 22.839 20.6247C22.6209 21.1319 22.3241 21.5729 21.9486 21.9476C21.573 22.3223 21.132 22.6193 20.6256 22.8384C20.1193 23.0576 19.5776 23.1669 19.0006 23.1663Z" fill="#0668E1" style="fill:#0668E1;fill:color(display-p3 0.0235 0.4078 0.8824);fill-opacity:1;"/>
</svg>
