<svg width="24" height="24" viewBox="0 0 24 24" fill="none" xmlns="http://www.w3.org/2000/svg">
<path d="M7.42549 18H19.9995C19.9965 18.93 19.9775 19.623 19.8865 20.17C19.7765 20.823 19.5765 21.168 19.2705 21.414C18.9635 21.66 18.5335 21.821 17.7205 21.908C16.8835 21.998 15.7745 22 14.1845 22H9.75449C8.16449 22 7.05449 21.999 6.21849 21.908C5.40549 21.821 4.97549 21.66 4.66849 21.414C4.36149 21.168 4.16249 20.823 4.05249 20.171L4.03049 20.02C3.99049 19.729 3.97049 19.583 4.09649 19.24C4.22349 18.896 4.27749 18.843 4.38749 18.735C4.74403 18.3955 5.18965 18.1642 5.67249 18.068C5.96249 18.006 6.34249 18 7.42549 18Z" fill="#B9D8FF" style="fill:#B9D8FF;fill:color(display-p3 0.7240 0.8475 1.0000);fill-opacity:1;"/>
<path d="M4.727 2.74542C5.033 2.4322 5.461 2.22881 6.271 2.11695C7.105 2.00203 8.209 2 9.793 2H14.207C15.791 2 16.895 2.00203 17.729 2.11695C18.539 2.22881 18.967 2.4322 19.273 2.74542C19.578 3.05864 19.777 3.49797 19.886 4.32881C19.998 5.18305 20 6.31695 20 7.94102V18.2712H7.426C6.342 18.2712 5.964 18.2773 5.673 18.3403C5.16 18.4522 4.713 18.6932 4.388 19.0186C4.278 19.1285 4.224 19.1824 4.097 19.5322C4.03698 19.6808 4.00411 19.8394 4 20V7.94102C4 6.31695 4.002 5.18407 4.114 4.32881C4.223 3.49898 4.422 3.05864 4.727 2.74542Z" fill="#0668E1" style="fill:#0668E1;fill:color(display-p3 0.0235 0.4078 0.8824);fill-opacity:1;"/>
<path d="M7.25 7C7.25 6.80109 7.32902 6.61032 7.46967 6.46967C7.61032 6.32902 7.80109 6.25 8 6.25H16C16.1989 6.25 16.3897 6.32902 16.5303 6.46967C16.671 6.61032 16.75 6.80109 16.75 7C16.75 7.19891 16.671 7.38968 16.5303 7.53033C16.3897 7.67098 16.1989 7.75 16 7.75H8C7.80109 7.75 7.61032 7.67098 7.46967 7.53033C7.32902 7.38968 7.25 7.19891 7.25 7ZM8 9.75C7.80109 9.75 7.61032 9.82902 7.46967 9.96967C7.32902 10.1103 7.25 10.3011 7.25 10.5C7.25 10.6989 7.32902 10.8897 7.46967 11.0303C7.61032 11.171 7.80109 11.25 8 11.25H13C13.1989 11.25 13.3897 11.171 13.5303 11.0303C13.671 10.8897 13.75 10.6989 13.75 10.5C13.75 10.3011 13.671 10.1103 13.5303 9.96967C13.3897 9.82902 13.1989 9.75 13 9.75H8Z" fill="white" style="fill:white;fill-opacity:1;"/>
<circle cx="19" cy="19" r="5" fill="#E6F0FC" style="fill:#E6F0FC;fill:color(display-p3 0.9020 0.9412 0.9882);fill-opacity:1;"/>
<path d="M19.0006 19.583L20.209 20.7913C20.2854 20.8677 20.3826 20.9059 20.5006 20.9059C20.6187 20.9059 20.7159 20.8677 20.7923 20.7913C20.8687 20.715 20.9069 20.6177 20.9069 20.4997C20.9069 20.3816 20.8687 20.2844 20.7923 20.208L19.584 18.9997L20.7923 17.7913C20.8687 17.715 20.9069 17.6177 20.9069 17.4997C20.9069 17.3816 20.8687 17.2844 20.7923 17.208C20.7159 17.1316 20.6187 17.0934 20.5006 17.0934C20.3826 17.0934 20.2854 17.1316 20.209 17.208L19.0006 18.4163L17.7923 17.208C17.7159 17.1316 17.6187 17.0934 17.5006 17.0934C17.3826 17.0934 17.2854 17.1316 17.209 17.208C17.1326 17.2844 17.0944 17.3816 17.0944 17.4997C17.0944 17.6177 17.1326 17.715 17.209 17.7913L18.4173 18.9997L17.209 20.208C17.1326 20.2844 17.0944 20.3816 17.0944 20.4997C17.0944 20.6177 17.1326 20.715 17.209 20.7913C17.2854 20.8677 17.3826 20.9059 17.5006 20.9059C17.6187 20.9059 17.7159 20.8677 17.7923 20.7913L19.0006 19.583ZM19.0006 23.1663C18.4243 23.1663 17.8826 23.0569 17.3756 22.838C16.8687 22.6191 16.4277 22.3223 16.0527 21.9476C15.6777 21.5729 15.3809 21.1319 15.1623 20.6247C14.9437 20.1175 14.8343 19.5758 14.834 18.9997C14.8337 18.4236 14.9432 17.8819 15.1623 17.3747C15.3815 16.8675 15.6783 16.4265 16.0527 16.0518C16.4272 15.677 16.8682 15.3802 17.3756 15.1613C17.8831 14.9425 18.4248 14.833 19.0006 14.833C19.5765 14.833 20.1181 14.9425 20.6256 15.1613C21.1331 15.3802 21.5741 15.677 21.9486 16.0518C22.323 16.4265 22.62 16.8675 22.8394 17.3747C23.0588 17.8819 23.1681 18.4236 23.1673 18.9997C23.1665 19.5758 23.057 20.1175 22.839 20.6247C22.6209 21.1319 22.3241 21.5729 21.9486 21.9476C21.573 22.3223 21.132 22.6193 20.6256 22.8384C20.1193 23.0576 19.5776 23.1669 19.0006 23.1663Z" fill="#0668E1" style="fill:#0668E1;fill:color(display-p3 0.0235 0.4078 0.8824);fill-opacity:1;"/>
</svg>
