<svg width="24" height="24" viewBox="0 0 24 24" fill="none" xmlns="http://www.w3.org/2000/svg">
<path d="M17.1803 12.0562L11.3809 17.7384C11.043 18.0696 10.8032 18.4843 10.6869 18.9384L10.2366 20.7007C10.1922 20.876 10.1948 21.0595 10.2442 21.2335C10.2936 21.4075 10.3881 21.566 10.5185 21.6937C10.6489 21.8213 10.8107 21.9137 10.9884 21.962C11.166 22.0102 11.3533 22.0126 11.5322 21.9689L13.3308 21.5289C13.7943 21.415 14.2176 21.18 14.5555 20.849L20.3549 15.1667C20.7705 14.753 21.0024 14.1951 21 13.6146C20.9976 13.0341 20.7611 12.478 20.3421 12.0676C19.923 11.6572 19.3554 11.4257 18.763 11.4236C18.1705 11.4215 17.6012 11.6489 17.1791 12.0562M6.6021 2.58822C6.6021 2.43222 6.53885 2.2826 6.42626 2.17229C6.31367 2.06197 6.16097 2 6.00175 2C5.84253 2 5.68983 2.06197 5.57724 2.17229C5.46465 2.2826 5.4014 2.43222 5.4014 2.58822V3.17644H4.80105C4.32338 3.17644 3.86528 3.36236 3.52751 3.6933C3.18975 4.02424 3 4.47309 3 4.9411V19.0584C3 19.5264 3.18975 19.9753 3.52751 20.3062C3.86528 20.6371 4.32338 20.8231 4.80105 20.8231H9.0071C9.0151 20.689 9.03672 20.5529 9.07194 20.4148L9.5222 18.6525C9.69084 17.9915 10.0394 17.3877 10.5308 16.9055L16.3302 11.2233C16.6405 10.9206 17.0063 10.6779 17.4084 10.508V4.9411C17.4084 4.47309 17.2186 4.02424 16.8809 3.6933C16.5431 3.36236 16.085 3.17644 15.6073 3.17644H15.007V2.58822C15.007 2.43222 14.9437 2.2826 14.8312 2.17229C14.7186 2.06197 14.5659 2 14.4066 2C14.2474 2 14.0947 2.06197 13.9821 2.17229C13.8695 2.2826 13.8063 2.43222 13.8063 2.58822V3.17644H10.8045V2.58822C10.8045 2.43222 10.7413 2.2826 10.6287 2.17229C10.5161 2.06197 10.3634 2 10.2042 2C10.045 2 9.89227 2.06197 9.77969 2.17229C9.6671 2.2826 9.60385 2.43222 9.60385 2.58822V3.17644H6.6021V2.58822ZM7.20245 7.88221H13.2059C13.3652 7.88221 13.5179 7.94418 13.6305 8.0545C13.743 8.16481 13.8063 8.31442 13.8063 8.47043C13.8063 8.62644 13.743 8.77605 13.6305 8.88637C13.5179 8.99668 13.3652 9.05865 13.2059 9.05865H7.20245C7.04323 9.05865 6.89052 8.99668 6.77794 8.88637C6.66535 8.77605 6.6021 8.62644 6.6021 8.47043C6.6021 8.31442 6.66535 8.16481 6.77794 8.0545C6.89052 7.94418 7.04323 7.88221 7.20245 7.88221ZM13.8063 11.9998C13.8063 12.1558 13.743 12.3054 13.6305 12.4157C13.5179 12.526 13.3652 12.588 13.2059 12.588H7.20245C7.04323 12.588 6.89052 12.526 6.77794 12.4157C6.66535 12.3054 6.6021 12.1558 6.6021 11.9998C6.6021 11.8438 6.66535 11.6941 6.77794 11.5838C6.89052 11.4735 7.04323 11.4115 7.20245 11.4115H13.2059C13.3652 11.4115 13.5179 11.4735 13.6305 11.5838C13.743 11.6941 13.8063 11.8438 13.8063 11.9998ZM7.20245 14.9409H9.60385C9.76307 14.9409 9.91577 15.0028 10.0284 15.1131C10.1409 15.2235 10.2042 15.3731 10.2042 15.5291C10.2042 15.6851 10.1409 15.8347 10.0284 15.945C9.91577 16.0553 9.76307 16.1173 9.60385 16.1173H7.20245C7.04323 16.1173 6.89052 16.0553 6.77794 15.945C6.66535 15.8347 6.6021 15.6851 6.6021 15.5291C6.6021 15.3731 6.66535 15.2235 6.77794 15.1131C6.89052 15.0028 7.04323 14.9409 7.20245 14.9409Z" fill="#0668E1" style="fill:#0668E1;fill:color(display-p3 0.0235 0.4078 0.8824);fill-opacity:1;"/>
<circle cx="19" cy="19" r="5" fill="#E6F0FC" style="fill:#E6F0FC;fill:color(display-p3 0.9020 0.9412 0.9882);fill-opacity:1;"/>
<path d="M19.0006 19.583L20.209 20.7913C20.2854 20.8677 20.3826 20.9059 20.5006 20.9059C20.6187 20.9059 20.7159 20.8677 20.7923 20.7913C20.8687 20.715 20.9069 20.6177 20.9069 20.4997C20.9069 20.3816 20.8687 20.2844 20.7923 20.208L19.584 18.9997L20.7923 17.7913C20.8687 17.715 20.9069 17.6177 20.9069 17.4997C20.9069 17.3816 20.8687 17.2844 20.7923 17.208C20.7159 17.1316 20.6187 17.0934 20.5006 17.0934C20.3826 17.0934 20.2854 17.1316 20.209 17.208L19.0006 18.4163L17.7923 17.208C17.7159 17.1316 17.6187 17.0934 17.5006 17.0934C17.3826 17.0934 17.2854 17.1316 17.209 17.208C17.1326 17.2844 17.0944 17.3816 17.0944 17.4997C17.0944 17.6177 17.1326 17.715 17.209 17.7913L18.4173 18.9997L17.209 20.208C17.1326 20.2844 17.0944 20.3816 17.0944 20.4997C17.0944 20.6177 17.1326 20.715 17.209 20.7913C17.2854 20.8677 17.3826 20.9059 17.5006 20.9059C17.6187 20.9059 17.7159 20.8677 17.7923 20.7913L19.0006 19.583ZM19.0006 23.1663C18.4243 23.1663 17.8826 23.0569 17.3756 22.838C16.8687 22.6191 16.4277 22.3223 16.0527 21.9476C15.6777 21.5729 15.3809 21.1319 15.1623 20.6247C14.9437 20.1175 14.8343 19.5758 14.834 18.9997C14.8337 18.4236 14.9432 17.8819 15.1623 17.3747C15.3815 16.8675 15.6783 16.4265 16.0527 16.0518C16.4272 15.677 16.8682 15.3802 17.3756 15.1613C17.8831 14.9425 18.4248 14.833 19.0006 14.833C19.5765 14.833 20.1181 14.9425 20.6256 15.1613C21.1331 15.3802 21.5741 15.677 21.9486 16.0518C22.323 16.4265 22.62 16.8675 22.8394 17.3747C23.0588 17.8819 23.1681 18.4236 23.1673 18.9997C23.1665 19.5758 23.057 20.1175 22.839 20.6247C22.6209 21.1319 22.3241 21.5729 21.9486 21.9476C21.573 22.3223 21.132 22.6193 20.6256 22.8384C20.1193 23.0576 19.5776 23.1669 19.0006 23.1663Z" fill="#0668E1" style="fill:#0668E1;fill:color(display-p3 0.0235 0.4078 0.8824);fill-opacity:1;"/>
</svg>
