<svg xmlns="http://www.w3.org/2000/svg" width="228" height="228" fill="none" xmlns:v="https://vecta.io/nano"><g clip-path="url(#A)"><rect width="228" height="228" rx="12" fill="#eaf0ff"/><path fill-rule="evenodd" d="M124.571 198.239h12.076l-22.641 24.762-22.642-24.762h12.075l1.51-13.333h18.113l1.509 13.333zm17.822-29.575l21.419.052-3.019-2.858 33.208 6.667-22.642 5.714-3.018-2.857-22.674.07 4.56 9.453H77.774l4.56-9.453-22.67-.07-3.019 2.857-22.642-5.714 33.207-6.667-3.018 2.858 21.416-.052 2.732-5.663h51.32l2.732 5.663z" fill="#fff"/><g fill="#0668e1"><path d="M124.571 198.239l-.497.056.051.444h.446v-.5zm12.076 0l.369.338.766-.838h-1.135v.5zm-22.641 24.762l-.369.337.369.404.369-.404-.369-.337zm-22.642-24.762v-.5H90.23l.766.838.369-.338zm12.075 0v.5h.447l.05-.443-.497-.057zm1.51-13.333v-.5h-.446l-.051.444.497.056zm18.113 0l.497-.056-.05-.444h-.447v.5zm19.331-16.242l-.451.217.136.282.313.001.002-.5zm21.419.052l-.001.5 1.261.003-.916-.866-.344.363zm-3.019-2.858l.098-.49-1.705-.342 1.263 1.196.344-.364zm33.208 6.667l.122.485-.024-.975-.098.49zm-22.642 5.714l-.343.363.199.189.267-.067-.123-.485zm-3.018-2.857l.344-.363-.146-.138-.2.001.002.5zm-22.674.07l-.002-.5-.793.003.345.714.45-.217zm4.56 9.453v.5h.796l-.346-.717-.45.217zm-72.453 0l-.45-.217-.346.717h.796v-.5zm4.56-9.453l.45.217.345-.714-.794-.003-.001.5zm-22.67-.07l.002-.5-.2-.001-.145.138.344.363zm-3.019 2.857l-.122.485.266.067.2-.189-.344-.363zm-22.642-5.714l-.098-.49-.024.975.122-.485zm33.207-6.667l.344.364 1.263-1.196-1.705.342.098.49zm-3.018 2.858l-.344-.363-.915.866 1.26-.003-.001-.5zm21.416-.052l.001.5.313-.001.136-.282-.45-.217zm2.732-5.663v-.5h-.314l-.136.283.45.217zm51.32 0l.45-.217-.136-.283h-.314v.5zm-15.09 35.238v.5h12.076v-.5-.5h-12.076v.5zm12.076 0l-.369-.337-22.641 24.762.369.337.369.337 22.641-24.761-.369-.338zm-22.641 24.762l.369-.337-22.642-24.762-.369.337-.369.338 22.642 24.761.369-.337zm-22.642-24.762v.5h12.075v-.5-.5H91.364v.5zm12.075 0l.497.057 1.51-13.333-.497-.057-.497-.056-1.509 13.333.496.056zm1.51-13.333v.5h18.113v-.5-.5h-18.113v.5zm18.113 0l-.496.056 1.508 13.333.497-.056.497-.056-1.509-13.333-.497.056zm19.331-16.242l-.002.5 21.42.052.001-.5.002-.5-21.42-.052-.001.5zm21.419.052l.344-.363-3.019-2.858-.344.363-.344.364 3.02 2.857.343-.363zm-3.019-2.858l-.098.491 33.208 6.667.098-.491.098-.49-33.208-6.667-.098.49zm33.208 6.667l-.122-.484-22.642 5.713.122.485.123.485 22.641-5.714-.122-.485zm-22.642 5.714l.344-.363-3.018-2.857-.344.363-.344.363 3.019 2.857.343-.363zm-3.018-2.857l-.002-.5-22.674.07.002.5.002.5 22.673-.07-.001-.5zm-22.674.07l-.45.217 4.559 9.453.451-.217.45-.217-4.56-9.453-.45.217zm4.56 9.453v-.5H77.774v.5.5h72.453v-.5zm-72.453 0l.45.217 4.56-9.453-.45-.217-.45-.217-4.559 9.453.45.217zm4.56-9.453l.001-.5-22.67-.07-.002.5-.002.5 22.67.07.002-.5zm-22.67-.07l-.344-.363-3.019 2.857.344.363.344.363 3.019-2.857-.344-.363zm-3.019 2.857l.122-.485-22.642-5.713-.122.484-.122.485 22.642 5.714.122-.485zm-22.642-5.714l.098.491 33.207-6.667-.099-.491-.098-.49-33.207 6.667.098.49zm33.207-6.667l-.344-.363-3.018 2.858.344.363.344.363 3.019-2.857-.344-.364zm-3.018 2.858l.001.5 21.416-.052-.001-.5-.001-.5-21.416.052.001.5zm21.416-.052l.45.217 2.732-5.663-.45-.217-.45-.217-2.732 5.663.45.217zm2.732-5.663v.5h51.32v-.5-.5h-51.32v.5zm51.32 0l-.45.217 2.731 5.663.451-.217.45-.217-2.732-5.663-.45.217z"/><path opacity=".4" d="M135.996 166h-44l-7 15h57l-6-15z"/></g><path d="M114.523 158.237c2.738.389 3.135.002 4.685-.387.389 2.386-.103 5.266.244 6.578.068.255.785.671.483 1.48s2.234 5.806 2.234 5.806-4.954 1.188-5.66.481-1.345-3.143-1.113-4.25c.341-1.619-.201-2.15-.302-3.061s-.165-.266.038-2.087.504-2.132-.609-4.56z" fill="#f7cdaf"/><path d="M124.48 175.258c-1.043 1.269-3.463 1.748-4.474 1.644-1.101-.112-3.487-.151-3.893-.86a1.48 1.48 0 0 1-.138-.396c-.142.457-.239.929-.065 1.003.354.152 3.135 1.062 4.399.911s4.498-.911 4.347-1.62a7.4 7.4 0 0 0-.176-.682z" fill="#bfbfbf"/><path d="M120 176.903c1.011.104 3.431-.375 4.474-1.645.006-.009.018-.016.024-.025.599-.75-1.313-3.806-1.313-3.806s-3.438-2.264-4.65-2.569-1.516.102-2.731 1.213 0 2.833 0 2.833l.203.556s-.216 1.344-.036 2.184c.032.152.077.287.138.396.404.711 2.79.75 3.891.863z" fill="#061728"/><path d="M111.398 158.237c-2.737.389-3.134.002-4.684-.387-.389 2.386.103 5.266-.244 6.578-.068.255-.786.671-.483 1.48s-2.235 5.806-2.235 5.806 4.955 1.188 5.661.481 1.345-3.143 1.113-4.25c-.341-1.619.201-2.15.302-3.061s.165-.266-.038-2.087-.504-2.132.608-4.56z" fill="#f7cdaf"/><path d="M101.438 175.258c1.043 1.269 3.463 1.748 4.474 1.644 1.101-.112 3.487-.151 3.893-.86a1.48 1.48 0 0 0 .138-.396c.142.457.239.929.065 1.003-.354.152-3.135 1.062-4.399.911s-4.498-.911-4.347-1.62a7.4 7.4 0 0 1 .176-.682z" fill="#bfbfbf"/><path d="M105.91 176.903c-1.011.104-3.431-.375-4.473-1.645-.007-.009-.019-.016-.025-.025-.598-.75 1.313-3.806 1.313-3.806s3.438-2.264 4.65-2.569 1.517.102 2.731 1.213 0 2.833 0 2.833l-.203.556s.216 1.344.036 2.184c-.032.152-.077.287-.138.396-.404.711-2.79.75-3.891.863z" fill="#061728"/><path d="M95.983 91.455l.726-5.139.335-3.177c.018-.171.162-.3.333-.3h28.759c.14 0 .264.086.313.216s.487 1.293.487 1.843v1.593c.121.699 2.249 13.26.888 20.394-.483 2.532-1.226 5.324-2.013 8.279-1.457 5.471-3.108 11.672-3.289 17.284-.17 5.237.117 7.377.326 8.94.136 1.011.243 1.809.176 3.036-.166 3.05-1.331 13.726-1.343 13.833-.007.063-.031.124-.071.173s-.044 2.54-.825 3.321c-3.122.781-6.635.391-7.025 0s-.846-5.321-.849-5.422l-.077-2.616-.076 3.508c-.003.123-.059 4.084-.169 4.139-.656.332-2.375.493-3.903.391-1.402-.093-2.899.593-3.903-.391-.393-.384-.282-1.023-.39-1.562-.043-.213-.004-.415-.027-.556-.096-.586-2.351-14.396-2.239-16.698.022-.46.065-1.019.112-1.649.183-2.432.46-6.107-.109-8.837-.249-1.199-1.087-4.472-2.057-8.264-1.899-7.418-4.261-16.65-4.482-19.011-.332-3.54.271-12.357.392-13.328z" fill="#3c475b"/><g fill="#c6dbe8"><path d="M124.778 92.423a3.07 3.07 0 0 0 .861-.111c1.321-.387 1.821-.725 1.842-.739.153-.105.191-.314.087-.467s-.314-.191-.466-.087c-.003.002-.454.297-1.651.648-1.042.304-2.702-.279-3.5-.56l-.268-.093c-.258-.102-.742-1.383-1.016-2.688-.038-.181-.216-.298-.397-.26s-.297.216-.259.397c.182.873.69 2.93 1.46 3.187l.258.09c.679.239 1.936.681 3.049.681zm-24.782.627c.922 0 2.019-.07 2.499-.371.689-.431 1.221-2.538 1.368-3.173.041-.181-.071-.361-.251-.403s-.361.071-.402.251c-.271 1.172-.757 2.559-1.07 2.755-.441.276-2.065.312-3.388.229-.84-.053-2.356-.566-2.371-.571-.175-.06-.366.034-.425.21s.034.366.21.425c.066.022 1.617.547 2.544.605l1.287.041zm10.966 8.235c.024 0 .049-.003.073-.008.18-.04.294-.219.254-.4-.617-2.782.19-9.942.282-10.724.147-.253.696-1.211 1.043-2.081.478-1.193-.627-2.11-.674-2.148-.144-.117-.355-.095-.472.049s-.095.355.048.471c.037.03.768.649.475 1.379-.376.941-1.027 2.038-1.033 2.049-.024.04-.04.085-.045.131-.039.325-.954 7.978-.278 11.019.035.157.173.263.327.263zm-6.814-10.361c-.042-.046-.063-.108-.057-.171.001-.012.108-1.268.001-1.96a6.54 6.54 0 0 1 .231-2.897c.037-.117.161-.182.279-.147l.73.222c.117.036.183.159.149.277-.003.012-.364 1.258-.221 2.108l.085.479c.159.88.296 1.64.127 2.026-.036.081-.116.134-.205.134h-.953c-.064 0-.123-.026-.166-.072zm.757-2.009l-.086-.484c-.124-.734.073-1.677.176-2.094l-.307-.094c-.297 1.079-.226 2.008-.154 2.482.086.558.047 1.409.02 1.824h.541c.042-.348-.086-1.053-.19-1.634z"/><path d="M118.8 90.41c-.057-.05-.085-.125-.075-.2.083-.603.161-1.684.017-2.019-.235-.543-.402-2.136-.409-2.204s.014-.126.057-.173.102-.074.166-.074h.687c.097 0 .183.063.213.156.066.208.649 2.048.57 2.681-.071.569.006 1.383.007 1.391.011.107-.057.207-.16.236l-.864.251a.23.23 0 0 1-.062.009.23.23 0 0 1-.147-.054zm.782-1.889c.052-.415-.309-1.706-.503-2.333h-.273c.065.546.2 1.487.346 1.826.182.421.112 1.391.057 1.918l.364-.106a7.53 7.53 0 0 1 .009-1.305zm-8.031 19.267l.948 26.064c.007.181.155.323.335.323.197-.007.342-.162.335-.348l-.948-26.063a.34.34 0 0 0-.347-.323s-.318.015-.323.347z"/></g><g fill="#0374ff"><path d="M119.047 36.884l9.856 4.098-3.286 14.269s-.865 8.194-.461 12.746 1.752 6.125 2.732 10.157c.753 3.097.705 6.641.705 6.641s-2.463 2.384-5.855 3.516c-3.512 1.172-12.099 1.172-12.099 1.172l-.338-26.289 6.52-18.518c.407-1.972 2.226-7.792 2.226-7.792z"/><path d="M103.97 36.884l-9.857 4.098L97.4 55.251s1.621 8.194 1.217 12.746-2.87 8.576-3.122 10.548l-.857 6.641s2.86 2.619 5.854 3.125c3.607.609 10.928 1.172 10.928 1.172l1.296-26.289s-6.117-16.546-6.521-18.518-2.225-7.792-2.225-7.792z"/></g><g fill="#2b082a"><path d="M111.946 63.698c0 .42-.338.759-.758.759a.76.76 0 0 1-.758-.759.76.76 0 0 1 .758-.759.76.76 0 0 1 .758.759zm.079 7.857a.76.76 0 0 1-.759.759.76.76 0 0 1-.758-.759c0-.42.338-.759.758-.759a.76.76 0 0 1 .759.759z"/></g><g fill="#fff"><path d="M111.466 40.347a109.73 109.73 0 0 1-5.028-.12c.968 4.188 3.333 12.712 4.872 18.175l.156-.549V40.347z"/><path d="M116.189 40.241l-4.724.104v17.504l4.724-17.608z"/></g><path d="M111.455 57.853l-.154.549.154.549v-1.098z" fill="#432342"/><g fill="#0668e1"><path d="M118.69 41.386l2.275-.201-.19-1.238-.196-1.285-.219-1.426s-3.034-2.024-3.234-2.833-1.215.102-1.215.102.903-.235.887 1.855c-.004.479-.056 1.082-.178 1.839l-.431 2.047c-.977 4.173-3.212 12.233-4.724 17.608v1.098l.478 1.69.111.391c1.282-1.441 2.882-3.475 4.011-5.731 2.173-4.351 4.904-12.346 4.904-12.346l-.322-.224-1.957-1.344z"/><path d="M112.06 61.034l-.111-.391-.479-1.69-.155-.549-4.873-18.175-.382-1.828c-.122-.745-.171-1.337-.178-1.814-.023-2.112.885-1.88.885-1.88s-1.011-.91-1.215-.102-3.234 2.833-3.234 2.833l-.203 1.328-.178 1.159-.226 1.459 2.275.203-1.688 1.166-.587.404s2.731 7.995 4.905 12.346c1.101 2.205 2.656 4.2 3.922 5.634l.709.777 1.485 1.482-.672-2.365z"/></g><g fill="#f7caab"><path d="M117.152 22.466l1.718 3.138c.808.303.91-2.935 1.011-4.959s-2.729 1.821-2.729 1.821zm-14.102-1.821c.101 2.024.203 5.262 1.011 4.959l1.72-3.138s-2.833-3.845-2.731-1.821z"/></g><path d="M114.79 11.55s-6.735-2.537-10.342 2.928-1.99 12.739-1.586 15.224-2.224 3.014-1.82 4.367 1.537 3.994 10.435 3.581 9.888-2.935 10.089-4.25-1.824-2.126-1.67-4.048 3.893-11.621-5.106-17.802z" fill="#1b1c17"/><g fill="#f4b990"><path d="M116.191 40.245l.431-2.047c.122-.757.174-1.36.178-1.839-.248-.244-.451-.492-.582-.741-1.011-1.922-.709-8.501-.709-8.501l-4.044 1.012v12.217l4.726-.102zm-9.768-.016l5.029.12v-12.22l-4.045-1.012s.303 6.579-.709 8.501c-.173.33-.469.655-.835.969.005.477.057 1.069.179 1.814l.381 1.828z"/></g><path d="M118.95 19.53c0 4.136-1.415 11.944-7.177 11.942-6.983-.005-7.785-7.805-7.785-11.942s3.35-7.489 7.482-7.489 7.48 3.353 7.48 7.489z" fill="#f7caab"/><path d="M114.747 12.511s.445.852-1.476 2.166-1.56-.809-6.067 4.554c-1.585 1.886-3.336 10.828-1.921 12.954s1.488-.506 1.488-.506-.779 4.211-2.903 3.947-4.692-.847-3.539-10.006 5.819-13.573 10.468-13.977 3.95.868 3.95.868z" fill="#1b1c17"/><path d="M100.718 72.794l-3.185 1.669-5.46.759-2.882-.38s.379-1.062 1.214-1.139l2.198-.151 1.896-.759-2.957-.151-2.124.836-.686 1.364s1.885 1.207 1.278 1.358-1.128 0-1.128 0-1.221-.544-1.604-1.172c-.436-.715-.39-1.574-.39-1.953s.781-1.563.781-1.563l.687-.997s.077-.228.53-.682l.454-.456 3.715-1.29 8.265.608-.602 4.098z" fill="#f3cfc1"/><g fill="#0668e1"><path d="M128.835 40.983c1.194-.099 4.028 6.974 4.103 10.997.331 4.425.018 14.845.799 17.97 0 3.516-3.513 5.469-6.245 5.86-3.474 1.172-26.558-2.344-26.558-2.344v-5.469l19.533-.782h3.89v-8.144c.005 0 2.354-17.91 4.478-18.089zm-35.77.326c-1.194-.099-1.886 4.42-2.667 8.326-.39 3.907-.091 5.742-1.561 8.985-1.949 4.297-1.171 7.032-1.171 7.032l1.567 3.516s.934 1.096 1.558 1.172c.607.074.781.391 2.342.391 1.171 0 3.903-1.563 3.903-1.563l1.56-10.938s3.903-20.705-5.53-16.921z"/></g><path d="M102.36 35.068l1.544-3.584.046-.041.428-.367c.239-.207.415-.324.528-.388.057-.032.099-.052.125-.062l.029-.011.006-.002.025-.007.017-.023.413-.564.027-.016.118-.066.428-.236 1.321-.713 1.39-.707.511-.227.169-.059c.047-.014.073-.017.082-.017.065.005.119.041.165.104a.76.76 0 0 1 .107.245 1.74 1.74 0 0 1 .047.253l.006.084.002.023v.007l.003.116.107-.047.933-.416.017.161a1.97 1.97 0 0 1-.106.689c-.042.129-.16.28-.326.437a4.85 4.85 0 0 1-.566.444l-.534.339-.17.098-.048.026-.016.009h0l-.009.005-.007.006-1.306 1.198-.01.01-.007.013-.988 2.059-.007.015v.017l-.066 2.962.147.036.895-1.837.006-.012.002-.013.001-.015.006-.045.022-.165.075-.556.206-1.4c.064-.381.347-.647.628-.822.14-.086.275-.148.376-.188l.073-.026.16 2.794-1.151 5.374-1.867 3.009-4.006.294-.001-8.196zm1.494-3.643c.017 0 .026.008.03.023l-.03-.023z" fill="#f3cfc1" stroke="#f4b990" stroke-width=".155"/><path d="M101.429 40.125L87.655 64.633c-.364 2.923.756 4.59 2.725 6.019 1.427 1.035 6.19.666 7.206-1.915 2.1-5.33 9.944-26.485 9.944-26.485l-6.101-2.127z" fill="#0668e1"/><path d="M89.109 61.754l12.325-21.631 6.101 2.127-7.88 21.008" stroke="#000" stroke-width=".134"/><path d="M113.825 13.062s-1.169 1.213-.361 2.632 3.329 7.591 3.334 8.905l-.199 9.31s4.092 3.542 5.205-1.114-.535-22.262-7.672-19.734h-.307z" fill="#1b1c17"/><path d="M111.241 27.43c-.832 0-1.507.754-1.507.754h1.582 1.582s-.753-.754-1.657-.754z" fill="#fff"/><g stroke="#000" stroke-linecap="round"><path d="M110.944 23.584s-.678 1.206-.678 1.659c-.001.313.527.603.527.603" stroke-width=".155"/><g stroke-width=".387"><path d="M109.281 22.655s-.515.38-.895.401c-.524.029-1.214-.602-1.214-.602m6.332.201s.515.38.895.401c.524.029 1.214-.602 1.214-.602"/></g></g><g fill="#000"><path d="M112.664 20.786c.01.145.191.333.191.333s.543-.273.954-.333c.381-.055.683 0 1.081 0 .381 0 .802.166.89-.055.078-.198-.573-.277-.89-.333-.488-.085-1.209-.056-1.209-.056s-1.04.094-1.017.444zm-2.348 0c-.01.145-.191.333-.191.333s-.542-.273-.953-.333c-.381-.055-.683 0-1.081 0-.381 0-.802.166-.89-.055-.079-.198.572-.277.89-.333.487-.085 1.208-.056 1.208-.056s1.041.094 1.017.444z"/></g></g><defs><clipPath id="A"><rect width="228" height="228" rx="12" fill="#fff"/></clipPath></defs></svg>