<svg xmlns="http://www.w3.org/2000/svg" width="400" height="400" fill="none" xmlns:v="https://vecta.io/nano"><g clip-path="url(#P)"><use href="#Q" fill="url(#A)"/><use href="#Q" fill="url(#B)"/><path d="M342.341 40.365l-73.825 133.744.817.073 74.087-134.22-1.079.404z" fill="#d5e5ff"/><path d="M360.164 159.774l8.818-3.301 27.077 21.357-10.706 1.546-25.189-19.602z" fill="url(#C)"/><path d="M396.067 177.83l-27.078-21.357-1.079.404 26.81 21.148 1.347-.195z" fill="#d5e5ff"/><path d="M160.008 342.521c102.894-9.59 138.851-123.997 138.683-183.638-8.436 3.773-29.358 15.298-29.358 15.298l74.088-134.22 52.638 137.867-26.108-20.336c-44.924 199.987-209.943 185.029-209.943 185.029z" fill="url(#D)"/><path d="M298.691 158.885l-8.817 4.326c-2.646 57.929-38.477 165.492-129.866 179.312 102.894-9.59 138.851-123.996 138.683-183.638z" fill="url(#E)"/><path d="M160.008 342.523c102.894-9.59 138.851-123.996 138.683-183.638-4.06 61.5-35.84 172.268-138.683 183.638z" fill="#d5e5ff"/><path d="M239.453 347.434H45.27v10.787h194.184v-10.787z" fill="url(#F)"/><path d="M45.264 347.434H-2.203v10.787h47.467v-10.787z" fill="url(#G)"/><path d="M117.744 293.488l-66.279 8.092v10.787l173.427 16.722 26.69-.54v-10.787l-133.838-24.274z" fill="url(#H)"/><path d="M251.573 328.549l-133.839-24.273v-10.788l133.839 24.274v10.787z" fill="url(#I)"/><path d="M117.744 304.276l-66.279 8.091V301.58l66.279-8.092v10.788z" fill="url(#J)"/><path d="M51.465 311.326v1.043l66.277-8.092 133.839 24.274v-1.043l-133.839-24.274-66.277 8.092z" fill="#81b9ff"/><path d="M199.26 235.777l-81.33 8.091v10.788l113.274 36.679 26.429-.54v-10.787l-58.373-44.231z" fill="url(#K)"/><path d="M257.631 290.795l-58.373-44.23v-10.788l58.373 44.231v10.787z" fill="url(#L)"/><path d="M199.26 246.565l-81.33 8.091v-10.788l81.33-8.091v10.788z" fill="url(#M)"/><path d="M117.93 253.615v1.043l81.33-8.092 58.373 44.231v-1.043l-58.373-44.231-81.33 8.092z" fill="#003c85"/><path d="M299.716 195.323l-102.368-10.788v10.788l39.915 58.254 26.431-.538 36.022-57.716z" fill="url(#N)"/><path d="M197.348 184.535v.068l101.718 10.72-36.022 57.715-25.79.526.009.013 26.431-.539 36.022-57.715-102.368-10.788z" fill="#035980"/><path d="M299.715 184.535H197.348v10.788h102.367v-10.788z" fill="url(#O)"/><path d="M299.715 194.279H197.348v1.043h102.367v-1.043z" fill="#013d86"/></g><defs><linearGradient id="A" x1="242.854" y1="130.852" x2="360.903" y2="86.658" href="#R"><stop stop-color="#06f"/><stop offset="1" stop-color="#025"/></linearGradient><linearGradient id="B" x1="242.854" y1="130.852" x2="360.903" y2="86.658" href="#R"><stop stop-color="#06f"/><stop offset="1" stop-color="#0040a1"/></linearGradient><linearGradient id="C" x1="365.335" y1="173.585" x2="390.888" y2="164.019" href="#R"><stop stop-color="#003380"/><stop offset="1" stop-color="#04a"/></linearGradient><linearGradient id="D" x1="291.608" y1="318.969" x2="233.073" y2="65.437" href="#R"><stop stop-color="#0055d4"/><stop offset=".576" stop-color="#80b3ff"/><stop offset=".581" stop-color="#59f"/><stop offset="1" stop-color="#acf"/></linearGradient><linearGradient id="E" x1="139.22" y1="286.996" x2="321.153" y2="218.885" href="#R"><stop stop-color="#2a7fff"/><stop offset="1" stop-color="#001172"/></linearGradient><linearGradient id="F" x1="45.27" y1="352.828" x2="239.453" y2="352.828" href="#R"><stop stop-color="#5ca5ff"/><stop offset="1" stop-color="#b2d4ff"/></linearGradient><linearGradient id="G" x1="-2.203" y1="352.828" x2="45.264" y2="352.828" href="#R"><stop stop-color="#0048a0"/><stop offset="1" stop-color="#044da8"/></linearGradient><linearGradient id="H" x1="51.466" y1="311.288" x2="251.582" y2="311.288" href="#R"><stop stop-color="#add2ff"/><stop offset="1" stop-color="#d7e9ff"/></linearGradient><linearGradient id="I" x1="117.735" y1="311.019" x2="251.573" y2="311.019" href="#R"><stop stop-color="#0060d7"/><stop offset="1" stop-color="#89beff"/></linearGradient><linearGradient id="J" x1="51.466" y1="302.928" x2="117.744" y2="302.928" href="#R"><stop stop-color="#024da9"/><stop offset="1" stop-color="#0654b4"/></linearGradient><linearGradient id="K" x1="117.93" y1="263.556" x2="257.634" y2="263.556" href="#R"><stop stop-color="#0475ff"/><stop offset="1" stop-color="#8abeff"/></linearGradient><linearGradient id="L" x1="199.258" y1="263.286" x2="257.632" y2="263.286" href="#R"><stop stop-color="#0754b3"/><stop offset="1" stop-color="#2e8bff"/></linearGradient><linearGradient id="M" x1="117.93" y1="245.217" x2="199.261" y2="245.217" href="#R"><stop stop-color="#014caa"/><stop offset="1" stop-color="#0b57b4"/></linearGradient><linearGradient id="N" x1="197.348" y1="219.056" x2="299.715" y2="219.056" href="#R"><stop stop-color="#137dff"/><stop offset="1" stop-color="#0d67d7"/></linearGradient><linearGradient id="O" x1="197.348" y1="189.929" x2="299.715" y2="189.929" href="#R"><stop stop-color="#235ea8"/><stop offset="1" stop-color="#307bd8"/></linearGradient><clipPath id="P"><path fill="#fff" d="M0 0h400v400H0z"/></clipPath><path id="Q" d="M343.421 39.961l-11.697 4.379-73.005 128.891 10.615.95 74.087-134.22z"/><linearGradient id="R" gradientUnits="userSpaceOnUse"/></defs></svg>