<svg width="269" height="313" viewBox="0 0 269 313" fill="none" xmlns="http://www.w3.org/2000/svg">
<path d="M206.761 274.498L176.194 257.164L164.234 219.831H107.09L95.1289 257.164L63.2344 274.498L134.997 70.4961L206.761 274.498ZM120.379 175.832H149.615L134.997 130.498L120.379 175.832Z" fill="url(#paint0_linear_23238_69883)"/>
<path d="M135.002 70.5003L105.766 50.5001L135.002 34.5L164.239 50.5001L135.002 70.5003Z" fill="#0171FC"/>
<path d="M105.763 50.498L34 254.5L63.2368 274.5L135 70.4982L105.763 50.498Z" fill="url(#paint1_linear_23238_69883)"/>
<path d="M164.237 50.498L236 254.5L206.763 274.5L135 70.4982L164.237 50.498Z" fill="#4B9CFF"/>
<rect x="0.266083" y="291.266" width="69.4678" height="21.4678" rx="10.7339" fill="#E8F2FF"/>
<rect x="0.266083" y="291.266" width="69.4678" height="21.4678" rx="10.7339" stroke="#0668E1" stroke-width="0.532165"/>
<path d="M13.116 305V299.416H15.22C15.716 299.416 16.148 299.52 16.516 299.728C16.884 299.936 17.1693 300.248 17.372 300.664C17.5747 301.075 17.676 301.589 17.676 302.208C17.676 302.827 17.5747 303.344 17.372 303.76C17.1693 304.171 16.884 304.48 16.516 304.688C16.148 304.896 15.716 305 15.22 305H13.116ZM14.332 303.92H15.22C15.46 303.92 15.668 303.875 15.844 303.784C16.02 303.693 16.1533 303.555 16.244 303.368C16.34 303.176 16.388 302.933 16.388 302.64V301.776C16.388 301.477 16.34 301.235 16.244 301.048C16.1533 300.861 16.02 300.723 15.844 300.632C15.668 300.541 15.46 300.496 15.22 300.496H14.332V303.92ZM21.1341 305H18.4781V304.032H19.1981V300.384H18.4781V299.416H21.1341V300.384H20.4141V304.032H21.1341V305ZM23.3633 302.952V305H22.1473V299.416H24.7953C25.1419 299.416 25.4406 299.491 25.6913 299.64C25.9419 299.789 26.1366 299.997 26.2753 300.264C26.4139 300.531 26.4833 300.843 26.4833 301.2C26.4833 301.573 26.3979 301.904 26.2273 302.192C26.0619 302.475 25.8086 302.68 25.4673 302.808L26.5633 305H25.2113L24.2353 302.952H23.3633ZM23.3633 301.928H24.6433C24.7659 301.928 24.8699 301.907 24.9553 301.864C25.0406 301.821 25.1073 301.76 25.1553 301.68C25.2033 301.595 25.2273 301.493 25.2273 301.376V301.024C25.2273 300.901 25.2033 300.8 25.1553 300.72C25.1073 300.64 25.0406 300.579 24.9553 300.536C24.8699 300.493 24.7659 300.472 24.6433 300.472H23.3633V301.928ZM31.3379 305H27.5379V299.416H31.3379V300.496H28.7539V301.64H30.9699V302.712H28.7539V303.92H31.3379V305ZM34.6533 305.096C34.1519 305.096 33.7146 304.989 33.3413 304.776C32.9733 304.563 32.6879 304.245 32.4853 303.824C32.2826 303.403 32.1813 302.877 32.1813 302.248C32.1813 301.619 32.2826 301.088 32.4853 300.656C32.6879 300.219 32.9733 299.888 33.3413 299.664C33.7146 299.435 34.1519 299.32 34.6533 299.32C35.1653 299.32 35.5893 299.427 35.9253 299.64C36.2666 299.853 36.5386 300.184 36.7413 300.632L35.6933 301.176C35.6239 300.941 35.5066 300.755 35.3413 300.616C35.1813 300.472 34.9519 300.4 34.6533 300.4C34.2959 300.4 34.0079 300.517 33.7893 300.752C33.5759 300.981 33.4693 301.317 33.4693 301.76V302.656C33.4693 303.093 33.5759 303.429 33.7893 303.664C34.0079 303.899 34.2959 304.016 34.6533 304.016C34.9519 304.016 35.1893 303.936 35.3653 303.776C35.5466 303.611 35.6799 303.413 35.7653 303.184L36.7573 303.76C36.5493 304.181 36.2746 304.509 35.9333 304.744C35.5919 304.979 35.1653 305.096 34.6533 305.096ZM41.4482 300.496H39.9362V305H38.7202V300.496H37.2082V299.416H41.4482V300.496ZM44.6888 305H42.0328V304.032H42.7528V300.384H42.0328V299.416H44.6888V300.384H43.9688V304.032H44.6888V305ZM47.9419 305.096C47.4513 305.096 47.0193 304.987 46.6459 304.768C46.2779 304.549 45.9926 304.227 45.7899 303.8C45.5873 303.368 45.4859 302.837 45.4859 302.208C45.4859 301.573 45.5873 301.043 45.7899 300.616C45.9926 300.189 46.2779 299.867 46.6459 299.648C47.0193 299.429 47.4513 299.32 47.9419 299.32C48.4379 299.32 48.8699 299.429 49.2379 299.648C49.6059 299.867 49.8913 300.189 50.0939 300.616C50.2966 301.043 50.3979 301.573 50.3979 302.208C50.3979 302.837 50.2966 303.368 50.0939 303.8C49.8913 304.227 49.6059 304.549 49.2379 304.768C48.8699 304.987 48.4379 305.096 47.9419 305.096ZM47.9419 304.016C48.1873 304.016 48.3953 303.963 48.5659 303.856C48.7419 303.744 48.8753 303.584 48.9659 303.376C49.0619 303.168 49.1099 302.917 49.1099 302.624V301.792C49.1099 301.493 49.0619 301.243 48.9659 301.04C48.8753 300.832 48.7419 300.675 48.5659 300.568C48.3953 300.456 48.1873 300.4 47.9419 300.4C47.7019 300.4 47.4939 300.456 47.3179 300.568C47.1419 300.675 47.0059 300.832 46.9099 301.04C46.8193 301.243 46.7739 301.493 46.7739 301.792V302.624C46.7739 302.917 46.8193 303.168 46.9099 303.376C47.0059 303.584 47.1419 303.744 47.3179 303.856C47.4939 303.963 47.7019 304.016 47.9419 304.016ZM54.6449 305L53.1169 302.36L52.5809 301.24H52.5569V302.408V305H51.4129V299.416H52.7409L54.2689 302.056L54.8049 303.176H54.8289V302.008V299.416H55.9729V305H54.6449Z" fill="#0668E1"/>
<rect x="199.266" y="291.266" width="69.4678" height="21.4678" rx="10.7339" fill="#E8F2FF"/>
<rect x="199.266" y="291.266" width="69.4678" height="21.4678" rx="10.7339" stroke="#0668E1" stroke-width="0.532165"/>
<path d="M210.916 305H207.116V299.416H210.916V300.496H208.332V301.64H210.548V302.712H208.332V303.92H210.916V305ZM211.487 305L213.279 302.112L211.575 299.416H212.991L214.079 301.304H214.103L215.207 299.416H216.519L214.799 302.136L216.615 305H215.207L213.999 302.944H213.975L212.799 305H211.487ZM218.574 305H217.358V299.416H219.998C220.345 299.416 220.644 299.491 220.894 299.64C221.15 299.789 221.348 300 221.486 300.272C221.625 300.539 221.694 300.848 221.694 301.2C221.694 301.552 221.625 301.861 221.486 302.128C221.348 302.395 221.15 302.605 220.894 302.76C220.644 302.909 220.345 302.984 219.998 302.984H218.574V305ZM218.574 300.472V301.928H219.854C219.977 301.928 220.081 301.907 220.166 301.864C220.252 301.821 220.318 301.76 220.366 301.68C220.414 301.595 220.438 301.493 220.438 301.376V301.024C220.438 300.901 220.414 300.8 220.366 300.72C220.318 300.64 220.252 300.579 220.166 300.536C220.081 300.493 219.977 300.472 219.854 300.472H218.574ZM226.408 305H222.608V299.416H226.408V300.496H223.824V301.64H226.04V302.712H223.824V303.92H226.408V305ZM229.724 305.096C229.222 305.096 228.785 304.989 228.412 304.776C228.044 304.563 227.758 304.245 227.556 303.824C227.353 303.403 227.252 302.877 227.252 302.248C227.252 301.619 227.353 301.088 227.556 300.656C227.758 300.219 228.044 299.888 228.412 299.664C228.785 299.435 229.222 299.32 229.724 299.32C230.236 299.32 230.66 299.427 230.996 299.64C231.337 299.853 231.609 300.184 231.812 300.632L230.764 301.176C230.694 300.941 230.577 300.755 230.412 300.616C230.252 300.472 230.022 300.4 229.724 300.4C229.366 300.4 229.078 300.517 228.86 300.752C228.646 300.981 228.54 301.317 228.54 301.76V302.656C228.54 303.093 228.646 303.429 228.86 303.664C229.078 303.899 229.366 304.016 229.724 304.016C230.022 304.016 230.26 303.936 230.436 303.776C230.617 303.611 230.75 303.413 230.836 303.184L231.828 303.76C231.62 304.181 231.345 304.509 231.004 304.744C230.662 304.979 230.236 305.096 229.724 305.096ZM236.519 300.496H235.007V305H233.791V300.496H232.279V299.416H236.519V300.496ZM241.531 305H240.267L239.867 303.672H238.003L237.603 305H236.371L238.211 299.416H239.715L241.531 305ZM239.571 302.64L239.227 301.48L238.947 300.52H238.907L238.635 301.48L238.291 302.64H239.571ZM245.62 300.496H244.108V305H242.892V300.496H241.38V299.416H245.62V300.496ZM248.861 305H246.205V304.032H246.925V300.384H246.205V299.416H248.861V300.384H248.141V304.032H248.861V305ZM252.114 305.096C251.623 305.096 251.191 304.987 250.818 304.768C250.45 304.549 250.164 304.227 249.962 303.8C249.759 303.368 249.658 302.837 249.658 302.208C249.658 301.573 249.759 301.043 249.962 300.616C250.164 300.189 250.45 299.867 250.818 299.648C251.191 299.429 251.623 299.32 252.114 299.32C252.61 299.32 253.042 299.429 253.41 299.648C253.778 299.867 254.063 300.189 254.266 300.616C254.468 301.043 254.57 301.573 254.57 302.208C254.57 302.837 254.468 303.368 254.266 303.8C254.063 304.227 253.778 304.549 253.41 304.768C253.042 304.987 252.61 305.096 252.114 305.096ZM252.114 304.016C252.359 304.016 252.567 303.963 252.738 303.856C252.914 303.744 253.047 303.584 253.138 303.376C253.234 303.168 253.282 302.917 253.282 302.624V301.792C253.282 301.493 253.234 301.243 253.138 301.04C253.047 300.832 252.914 300.675 252.738 300.568C252.567 300.456 252.359 300.4 252.114 300.4C251.874 300.4 251.666 300.456 251.49 300.568C251.314 300.675 251.178 300.832 251.082 301.04C250.991 301.243 250.946 301.493 250.946 301.792V302.624C250.946 302.917 250.991 303.168 251.082 303.376C251.178 303.584 251.314 303.744 251.49 303.856C251.666 303.963 251.874 304.016 252.114 304.016ZM258.817 305L257.289 302.36L256.753 301.24H256.729V302.408V305H255.585V299.416H256.913L258.441 302.056L258.977 303.176H259.001V302.008V299.416H260.145V305H258.817Z" fill="#0668E1"/>
<rect x="100.266" y="0.266083" width="69.4678" height="21.4678" rx="10.7339" fill="#E8F2FF"/>
<rect x="100.266" y="0.266083" width="69.4678" height="21.4678" rx="10.7339" stroke="#0668E1" stroke-width="0.532165"/>
<path d="M116.416 14H112.616V8.416H116.416V9.496H113.832V10.64H116.048V11.712H113.832V12.92H116.416V14ZM116.987 14L118.779 11.112L117.075 8.416H118.491L119.579 10.304H119.603L120.707 8.416H122.019L120.299 11.136L122.115 14H120.707L119.499 11.944H119.475L118.299 14H116.987ZM126.658 14H122.858V8.416H126.658V9.496H124.074V10.64H126.29V11.712H124.074V12.92H126.658V14ZM129.974 14.096C129.472 14.096 129.035 13.9893 128.662 13.776C128.294 13.5627 128.008 13.2453 127.806 12.824C127.603 12.4027 127.502 11.8773 127.502 11.248C127.502 10.6187 127.603 10.088 127.806 9.656C128.008 9.21867 128.294 8.888 128.662 8.664C129.035 8.43467 129.472 8.32 129.974 8.32C130.486 8.32 130.91 8.42667 131.246 8.64C131.587 8.85333 131.859 9.184 132.062 9.632L131.014 10.176C130.944 9.94133 130.827 9.75467 130.662 9.616C130.502 9.472 130.272 9.4 129.974 9.4C129.616 9.4 129.328 9.51733 129.11 9.752C128.896 9.98133 128.79 10.3173 128.79 10.76V11.656C128.79 12.0933 128.896 12.4293 129.11 12.664C129.328 12.8987 129.616 13.016 129.974 13.016C130.272 13.016 130.51 12.936 130.686 12.776C130.867 12.6107 131 12.4133 131.086 12.184L132.078 12.76C131.87 13.1813 131.595 13.5093 131.254 13.744C130.912 13.9787 130.486 14.096 129.974 14.096ZM132.897 8.416H134.081V11.84C134.081 12.1013 134.113 12.32 134.177 12.496C134.246 12.6667 134.355 12.7973 134.505 12.888C134.654 12.9733 134.849 13.016 135.089 13.016C135.329 13.016 135.521 12.9733 135.665 12.888C135.814 12.7973 135.923 12.6667 135.993 12.496C136.062 12.32 136.097 12.1013 136.097 11.84V8.416H137.281V11.712C137.281 12.2613 137.209 12.712 137.065 13.064C136.921 13.416 136.689 13.6773 136.369 13.848C136.049 14.0133 135.622 14.096 135.089 14.096C134.555 14.096 134.129 14.0133 133.809 13.848C133.489 13.6773 133.257 13.416 133.113 13.064C132.969 12.712 132.897 12.2613 132.897 11.712V8.416ZM142.323 9.496H140.811V14H139.595V9.496H138.083V8.416H142.323V9.496ZM145.564 14H142.908V13.032H143.628V9.384H142.908V8.416H145.564V9.384H144.844V13.032H145.564V14ZM148.817 14.096C148.326 14.096 147.894 13.9867 147.521 13.768C147.153 13.5493 146.868 13.2267 146.665 12.8C146.462 12.368 146.361 11.8373 146.361 11.208C146.361 10.5733 146.462 10.0427 146.665 9.616C146.868 9.18933 147.153 8.86667 147.521 8.648C147.894 8.42933 148.326 8.32 148.817 8.32C149.313 8.32 149.745 8.42933 150.113 8.648C150.481 8.86667 150.766 9.18933 150.969 9.616C151.172 10.0427 151.273 10.5733 151.273 11.208C151.273 11.8373 151.172 12.368 150.969 12.8C150.766 13.2267 150.481 13.5493 150.113 13.768C149.745 13.9867 149.313 14.096 148.817 14.096ZM148.817 13.016C149.062 13.016 149.27 12.9627 149.441 12.856C149.617 12.744 149.75 12.584 149.841 12.376C149.937 12.168 149.985 11.9173 149.985 11.624V10.792C149.985 10.4933 149.937 10.2427 149.841 10.04C149.75 9.832 149.617 9.67467 149.441 9.568C149.27 9.456 149.062 9.4 148.817 9.4C148.577 9.4 148.369 9.456 148.193 9.568C148.017 9.67467 147.881 9.832 147.785 10.04C147.694 10.2427 147.649 10.4933 147.649 10.792V11.624C147.649 11.9173 147.694 12.168 147.785 12.376C147.881 12.584 148.017 12.744 148.193 12.856C148.369 12.9627 148.577 13.016 148.817 13.016ZM155.52 14L153.992 11.36L153.456 10.24H153.432V11.408V14H152.288V8.416H153.616L155.144 11.056L155.68 12.176H155.704V11.008V8.416H156.848V14H155.52Z" fill="#0668E1"/>
<path d="M13.4297 281.294L19.4827 276.096L11.9544 273.453L13.4297 281.294ZM104.639 21.4863L98.5859 26.6846L106.114 29.3275L104.639 21.4863ZM14.9587 279.025C15.0851 278.665 14.8957 278.271 14.5356 278.144C14.1755 278.018 13.7811 278.207 13.6547 278.567L14.3067 278.796L14.9587 279.025ZM15.4088 273.571C15.2823 273.931 15.4718 274.326 15.8318 274.452C16.1919 274.578 16.5863 274.389 16.7127 274.029L16.0607 273.8L15.4088 273.571ZM18.4667 269.033C18.5931 268.672 18.4037 268.278 18.0436 268.152C17.6836 268.025 17.2892 268.215 17.1628 268.575L17.8147 268.804L18.4667 269.033ZM18.9168 263.578C18.7904 263.939 18.9798 264.333 19.3399 264.459C19.7 264.586 20.0943 264.396 20.2207 264.036L19.5688 263.807L18.9168 263.578ZM21.9748 259.04C22.1012 258.68 21.9117 258.285 21.5517 258.159C21.1916 258.033 20.7972 258.222 20.6708 258.582L21.3228 258.811L21.9748 259.04ZM22.4248 253.586C22.2984 253.946 22.4879 254.34 22.8479 254.467C23.208 254.593 23.6024 254.404 23.7288 254.044L23.0768 253.815L22.4248 253.586ZM25.4828 249.047C25.6092 248.687 25.4198 248.293 25.0597 248.166C24.6997 248.04 24.3053 248.229 24.1789 248.59L24.8308 248.818L25.4828 249.047ZM25.9329 243.593C25.8065 243.953 25.9959 244.348 26.356 244.474C26.7161 244.6 27.1104 244.411 27.2368 244.051L26.5849 243.822L25.9329 243.593ZM28.9909 239.055C29.1173 238.695 28.9278 238.3 28.5678 238.174C28.2077 238.047 27.8133 238.237 27.6869 238.597L28.3389 238.826L28.9909 239.055ZM29.4409 233.601C29.3145 233.961 29.504 234.355 29.864 234.481C30.2241 234.608 30.6185 234.418 30.7449 234.058L30.0929 233.829L29.4409 233.601ZM32.4989 229.062C32.6253 228.702 32.4359 228.308 32.0758 228.181C31.7157 228.055 31.3214 228.244 31.195 228.604L31.8469 228.833L32.4989 229.062ZM32.949 223.608C32.8226 223.968 33.012 224.362 33.3721 224.489C33.7321 224.615 34.1265 224.426 34.2529 224.066L33.601 223.837L32.949 223.608ZM36.007 219.069C36.1334 218.709 35.9439 218.315 35.5839 218.189C35.2238 218.062 34.8294 218.252 34.703 218.612L35.355 218.841L36.007 219.069ZM36.457 213.615C36.3306 213.975 36.52 214.37 36.8801 214.496C37.2402 214.623 37.6346 214.433 37.761 214.073L37.109 213.844L36.457 213.615ZM39.515 209.077C39.6414 208.717 39.452 208.322 39.0919 208.196C38.7318 208.07 38.3375 208.259 38.2111 208.619L38.863 208.848L39.515 209.077ZM39.9651 203.623C39.8387 203.983 40.0281 204.377 40.3882 204.504C40.7482 204.63 41.1426 204.441 41.269 204.081L40.617 203.852L39.9651 203.623ZM43.023 199.084C43.1495 198.724 42.96 198.33 42.6 198.203C42.2399 198.077 41.8455 198.266 41.7191 198.626L42.3711 198.855L43.023 199.084ZM43.4731 193.63C43.3467 193.99 43.5361 194.385 43.8962 194.511C44.2563 194.637 44.6507 194.448 44.7771 194.088L44.1251 193.859L43.4731 193.63ZM46.5311 189.092C46.6575 188.732 46.4681 188.337 46.108 188.211C45.7479 188.084 45.3536 188.274 45.2271 188.634L45.8791 188.863L46.5311 189.092ZM46.9812 183.638C46.8548 183.998 47.0442 184.392 47.4043 184.518C47.7643 184.645 48.1587 184.455 48.2851 184.095L47.6331 183.866L46.9812 183.638ZM50.0391 179.099C50.1655 178.739 49.9761 178.345 49.616 178.218C49.256 178.092 48.8616 178.281 48.7352 178.641L49.3872 178.87L50.0391 179.099ZM50.4892 173.645C50.3628 174.005 50.5522 174.399 50.9123 174.526C51.2724 174.652 51.6667 174.463 51.7932 174.103L51.1412 173.874L50.4892 173.645ZM53.5472 169.106C53.6736 168.746 53.4842 168.352 53.1241 168.225C52.764 168.099 52.3696 168.289 52.2432 168.649L52.8952 168.877L53.5472 169.106ZM53.9973 163.652C53.8708 164.012 54.0603 164.407 54.4203 164.533C54.7804 164.66 55.1748 164.47 55.3012 164.11L54.6492 163.881L53.9973 163.652ZM57.0552 159.114C57.1816 158.754 56.9922 158.359 56.6321 158.233C56.2721 158.106 55.8777 158.296 55.7513 158.656L56.4033 158.885L57.0552 159.114ZM57.5053 153.66C57.3789 154.02 57.5683 154.414 57.9284 154.541C58.2885 154.667 58.6828 154.477 58.8092 154.117L58.1573 153.889L57.5053 153.66ZM60.5633 149.121C60.6897 148.761 60.5003 148.367 60.1402 148.24C59.7801 148.114 59.3857 148.303 59.2593 148.663L59.9113 148.892L60.5633 149.121ZM61.0134 143.667C60.887 144.027 61.0764 144.421 61.4364 144.548C61.7965 144.674 62.1909 144.485 62.3173 144.125L61.6653 143.896L61.0134 143.667ZM64.0713 139.128C64.1977 138.768 64.0083 138.374 63.6482 138.248C63.2882 138.121 62.8938 138.311 62.7674 138.671L63.4194 138.9L64.0713 139.128ZM64.5214 133.674C64.395 134.034 64.5844 134.429 64.9445 134.555C65.3046 134.682 65.6989 134.492 65.8253 134.132L65.1734 133.903L64.5214 133.674ZM67.5794 129.136C67.7058 128.776 67.5164 128.381 67.1563 128.255C66.7962 128.129 66.4018 128.318 66.2754 128.678L66.9274 128.907L67.5794 129.136ZM68.0295 123.682C67.903 124.042 68.0925 124.436 68.4525 124.563C68.8126 124.689 69.207 124.5 69.3334 124.14L68.6814 123.911L68.0295 123.682ZM71.0874 119.143C71.2138 118.783 71.0244 118.389 70.6643 118.262C70.3043 118.136 69.9099 118.325 69.7835 118.685L70.4355 118.914L71.0874 119.143ZM71.5375 113.689C71.4111 114.049 71.6005 114.444 71.9606 114.57C72.3207 114.696 72.715 114.507 72.8414 114.147L72.1895 113.918L71.5375 113.689ZM74.5955 109.151C74.7219 108.791 74.5325 108.396 74.1724 108.27C73.8123 108.143 73.4179 108.333 73.2915 108.693L73.9435 108.922L74.5955 109.151ZM75.0456 103.697C74.9191 104.057 75.1086 104.451 75.4686 104.577C75.8287 104.704 76.2231 104.514 76.3495 104.154L75.6975 103.925L75.0456 103.697ZM78.1035 99.158C78.2299 98.7979 78.0405 98.4035 77.6804 98.2771C77.3204 98.1507 76.926 98.3401 76.7996 98.7002L77.4515 98.9291L78.1035 99.158ZM78.5536 93.7039C78.4272 94.064 78.6166 94.4583 78.9767 94.5847C79.3368 94.7112 79.7311 94.5217 79.8575 94.1617L79.2056 93.9328L78.5536 93.7039ZM81.6116 89.1654C81.738 88.8053 81.5486 88.4109 81.1885 88.2845C80.8284 88.1581 80.434 88.3475 80.3076 88.7076L80.9596 88.9365L81.6116 89.1654ZM82.0617 83.7113C81.9352 84.0713 82.1247 84.4657 82.4847 84.5921C82.8448 84.7185 83.2392 84.5291 83.3656 84.169L82.7136 83.9402L82.0617 83.7113ZM85.1196 79.1727C85.246 78.8126 85.0566 78.4183 84.6965 78.2919C84.3365 78.1655 83.9421 78.3549 83.8157 78.715L84.4676 78.9438L85.1196 79.1727ZM85.5697 73.7186C85.4433 74.0787 85.6327 74.4731 85.9928 74.5995C86.3529 74.7259 86.7472 74.5365 86.8736 74.1764L86.2217 73.9475L85.5697 73.7186ZM88.6277 69.1801C88.7541 68.82 88.5647 68.4257 88.2046 68.2992C87.8445 68.1728 87.4501 68.3623 87.3237 68.7223L87.9757 68.9512L88.6277 69.1801ZM89.0778 63.726C88.9513 64.0861 89.1408 64.4804 89.5008 64.6069C89.8609 64.7333 90.2553 64.5438 90.3817 64.1838L89.7297 63.9549L89.0778 63.726ZM92.1357 59.1875C92.2621 58.8274 92.0727 58.433 91.7126 58.3066C91.3526 58.1802 90.9582 58.3696 90.8318 58.7297L91.4837 58.9586L92.1357 59.1875ZM92.5858 53.7334C92.4594 54.0935 92.6488 54.4878 93.0089 54.6142C93.369 54.7406 93.7633 54.5512 93.8897 54.1911L93.2378 53.9623L92.5858 53.7334ZM95.6438 49.1948C95.7702 48.8348 95.5808 48.4404 95.2207 48.314C94.8606 48.1876 94.4662 48.377 94.3398 48.7371L94.9918 48.9659L95.6438 49.1948ZM96.0939 43.7408C95.9674 44.1008 96.1569 44.4952 96.5169 44.6216C96.877 44.748 97.2714 44.5586 97.3978 44.1985L96.7458 43.9696L96.0939 43.7408ZM99.1518 39.2022C99.2782 38.8421 99.0888 38.4478 98.7287 38.3214C98.3687 38.1949 97.9743 38.3844 97.8479 38.7444L98.4998 38.9733L99.1518 39.2022ZM99.6019 33.7481C99.4755 34.1082 99.6649 34.5026 100.025 34.629C100.385 34.7554 100.779 34.566 100.906 34.2059L100.254 33.977L99.6019 33.7481ZM102.66 29.2096C102.786 28.8495 102.597 28.4551 102.237 28.3287C101.877 28.2023 101.482 28.3917 101.356 28.7518L102.008 28.9807L102.66 29.2096ZM103.11 23.7555C102.984 24.1156 103.173 24.5099 103.533 24.6364C103.893 24.7628 104.287 24.5733 104.414 24.2133L103.762 23.9844L103.11 23.7555ZM16.0607 273.8L16.7127 274.029L18.4667 269.033L17.8147 268.804L17.1628 268.575L15.4088 273.571L16.0607 273.8ZM19.5688 263.807L20.2207 264.036L21.9748 259.04L21.3228 258.811L20.6708 258.582L18.9168 263.578L19.5688 263.807ZM23.0768 253.815L23.7288 254.044L25.4828 249.047L24.8308 248.818L24.1789 248.59L22.4248 253.586L23.0768 253.815ZM26.5849 243.822L27.2368 244.051L28.9909 239.055L28.3389 238.826L27.6869 238.597L25.9329 243.593L26.5849 243.822ZM30.0929 233.829L30.7449 234.058L32.4989 229.062L31.8469 228.833L31.195 228.604L29.4409 233.601L30.0929 233.829ZM33.601 223.837L34.2529 224.066L36.007 219.069L35.355 218.841L34.703 218.612L32.949 223.608L33.601 223.837ZM37.109 213.844L37.761 214.073L39.515 209.077L38.863 208.848L38.2111 208.619L36.457 213.615L37.109 213.844ZM40.617 203.852L41.269 204.081L43.023 199.084L42.3711 198.855L41.7191 198.626L39.9651 203.623L40.617 203.852ZM44.1251 193.859L44.7771 194.088L46.5311 189.092L45.8791 188.863L45.2271 188.634L43.4731 193.63L44.1251 193.859ZM47.6331 183.866L48.2851 184.095L50.0391 179.099L49.3872 178.87L48.7352 178.641L46.9812 183.638L47.6331 183.866ZM51.1412 173.874L51.7932 174.103L53.5472 169.106L52.8952 168.877L52.2432 168.649L50.4892 173.645L51.1412 173.874ZM54.6492 163.881L55.3012 164.11L57.0552 159.114L56.4033 158.885L55.7513 158.656L53.9973 163.652L54.6492 163.881ZM58.1573 153.889L58.8092 154.117L60.5633 149.121L59.9113 148.892L59.2593 148.663L57.5053 153.66L58.1573 153.889ZM61.6653 143.896L62.3173 144.125L64.0713 139.128L63.4194 138.9L62.7674 138.671L61.0134 143.667L61.6653 143.896ZM65.1734 133.903L65.8253 134.132L67.5794 129.136L66.9274 128.907L66.2754 128.678L64.5214 133.674L65.1734 133.903ZM68.6814 123.911L69.3334 124.14L71.0874 119.143L70.4355 118.914L69.7835 118.685L68.0295 123.682L68.6814 123.911ZM72.1895 113.918L72.8414 114.147L74.5955 109.151L73.9435 108.922L73.2915 108.693L71.5375 113.689L72.1895 113.918ZM75.6975 103.925L76.3495 104.154L78.1035 99.158L77.4515 98.9291L76.7996 98.7002L75.0456 103.697L75.6975 103.925ZM79.2056 93.9328L79.8575 94.1617L81.6116 89.1654L80.9596 88.9365L80.3076 88.7076L78.5536 93.7039L79.2056 93.9328ZM82.7136 83.9402L83.3656 84.169L85.1196 79.1727L84.4676 78.9438L83.8157 78.715L82.0617 83.7113L82.7136 83.9402ZM86.2217 73.9475L86.8736 74.1764L88.6277 69.1801L87.9757 68.9512L87.3237 68.7223L85.5697 73.7186L86.2217 73.9475ZM89.7297 63.9549L90.3817 64.1838L92.1357 59.1875L91.4837 58.9586L90.8318 58.7297L89.0778 63.726L89.7297 63.9549ZM93.2378 53.9623L93.8897 54.1911L95.6438 49.1948L94.9918 48.9659L94.3398 48.7371L92.5858 53.7334L93.2378 53.9623ZM96.7458 43.9696L97.3978 44.1985L99.1518 39.2022L98.4998 38.9733L97.8479 38.7444L96.0939 43.7408L96.7458 43.9696ZM100.254 33.977L100.906 34.2059L102.66 29.2096L102.008 28.9807L101.356 28.7518L99.6019 33.7481L100.254 33.977Z" fill="#589AEB"/>
<path d="M255.273 281.294L249.22 276.096L256.749 273.453L255.273 281.294ZM164.064 21.4863L170.117 26.6846L162.589 29.3275L164.064 21.4863ZM253.744 279.025C253.618 278.665 253.807 278.271 254.168 278.144C254.528 278.018 254.922 278.207 255.048 278.567L254.396 278.796L253.744 279.025ZM253.294 273.571C253.421 273.931 253.231 274.326 252.871 274.452C252.511 274.578 252.117 274.389 251.99 274.029L252.642 273.8L253.294 273.571ZM250.236 269.033C250.11 268.672 250.299 268.278 250.659 268.152C251.02 268.025 251.414 268.215 251.54 268.575L250.888 268.804L250.236 269.033ZM249.786 263.578C249.913 263.939 249.723 264.333 249.363 264.459C249.003 264.586 248.609 264.396 248.482 264.036L249.134 263.807L249.786 263.578ZM246.728 259.04C246.602 258.68 246.791 258.285 247.151 258.159C247.512 258.033 247.906 258.222 248.032 258.582L247.38 258.811L246.728 259.04ZM246.278 253.586C246.405 253.946 246.215 254.34 245.855 254.467C245.495 254.593 245.101 254.404 244.974 254.044L245.626 253.815L246.278 253.586ZM243.22 249.047C243.094 248.687 243.283 248.293 243.643 248.166C244.003 248.04 244.398 248.229 244.524 248.59L243.872 248.818L243.22 249.047ZM242.77 243.593C242.897 243.953 242.707 244.348 242.347 244.474C241.987 244.6 241.593 244.411 241.466 244.051L242.118 243.822L242.77 243.593ZM239.712 239.055C239.586 238.695 239.775 238.3 240.135 238.174C240.495 238.047 240.89 238.237 241.016 238.597L240.364 238.826L239.712 239.055ZM239.262 233.601C239.389 233.961 239.199 234.355 238.839 234.481C238.479 234.608 238.085 234.418 237.958 234.058L238.61 233.829L239.262 233.601ZM236.204 229.062C236.078 228.702 236.267 228.308 236.627 228.181C236.987 228.055 237.382 228.244 237.508 228.604L236.856 228.833L236.204 229.062ZM235.754 223.608C235.881 223.968 235.691 224.362 235.331 224.489C234.971 224.615 234.577 224.426 234.45 224.066L235.102 223.837L235.754 223.608ZM232.696 219.069C232.57 218.709 232.759 218.315 233.119 218.189C233.479 218.062 233.874 218.252 234 218.612L233.348 218.841L232.696 219.069ZM232.246 213.615C232.372 213.975 232.183 214.37 231.823 214.496C231.463 214.623 231.069 214.433 230.942 214.073L231.594 213.844L232.246 213.615ZM229.188 209.077C229.062 208.717 229.251 208.322 229.611 208.196C229.971 208.07 230.366 208.259 230.492 208.619L229.84 208.848L229.188 209.077ZM228.738 203.623C228.864 203.983 228.675 204.377 228.315 204.504C227.955 204.63 227.561 204.441 227.434 204.081L228.086 203.852L228.738 203.623ZM225.68 199.084C225.554 198.724 225.743 198.33 226.103 198.203C226.463 198.077 226.858 198.266 226.984 198.626L226.332 198.855L225.68 199.084ZM225.23 193.63C225.356 193.99 225.167 194.385 224.807 194.511C224.447 194.637 224.052 194.448 223.926 194.088L224.578 193.859L225.23 193.63ZM222.172 189.092C222.046 188.732 222.235 188.337 222.595 188.211C222.955 188.084 223.35 188.274 223.476 188.634L222.824 188.863L222.172 189.092ZM221.722 183.638C221.848 183.998 221.659 184.392 221.299 184.518C220.939 184.645 220.544 184.455 220.418 184.095L221.07 183.866L221.722 183.638ZM218.664 179.099C218.538 178.739 218.727 178.345 219.087 178.218C219.447 178.092 219.842 178.281 219.968 178.641L219.316 178.87L218.664 179.099ZM218.214 173.645C218.34 174.005 218.151 174.399 217.791 174.526C217.431 174.652 217.036 174.463 216.91 174.103L217.562 173.874L218.214 173.645ZM215.156 169.106C215.03 168.746 215.219 168.352 215.579 168.225C215.939 168.099 216.333 168.289 216.46 168.649L215.808 168.877L215.156 169.106ZM214.706 163.652C214.832 164.012 214.643 164.407 214.283 164.533C213.923 164.66 213.528 164.47 213.402 164.11L214.054 163.881L214.706 163.652ZM211.648 159.114C211.521 158.754 211.711 158.359 212.071 158.233C212.431 158.106 212.825 158.296 212.952 158.656L212.3 158.885L211.648 159.114ZM211.198 153.66C211.324 154.02 211.135 154.414 210.775 154.541C210.415 154.667 210.02 154.477 209.894 154.117L210.546 153.889L211.198 153.66ZM208.14 149.121C208.013 148.761 208.203 148.367 208.563 148.24C208.923 148.114 209.317 148.303 209.444 148.663L208.792 148.892L208.14 149.121ZM207.69 143.667C207.816 144.027 207.627 144.421 207.267 144.548C206.907 144.674 206.512 144.485 206.386 144.125L207.038 143.896L207.69 143.667ZM204.632 139.128C204.505 138.768 204.695 138.374 205.055 138.248C205.415 138.121 205.809 138.311 205.936 138.671L205.284 138.9L204.632 139.128ZM204.182 133.674C204.308 134.034 204.119 134.429 203.759 134.555C203.399 134.682 203.004 134.492 202.878 134.132L203.53 133.903L204.182 133.674ZM201.124 129.136C200.997 128.776 201.187 128.381 201.547 128.255C201.907 128.129 202.301 128.318 202.428 128.678L201.776 128.907L201.124 129.136ZM200.674 123.682C200.8 124.042 200.611 124.436 200.251 124.563C199.891 124.689 199.496 124.5 199.37 124.14L200.022 123.911L200.674 123.682ZM197.616 119.143C197.489 118.783 197.679 118.389 198.039 118.262C198.399 118.136 198.793 118.325 198.92 118.685L198.268 118.914L197.616 119.143ZM197.166 113.689C197.292 114.049 197.103 114.444 196.743 114.57C196.382 114.696 195.988 114.507 195.862 114.147L196.514 113.918L197.166 113.689ZM194.108 109.151C193.981 108.791 194.171 108.396 194.531 108.27C194.891 108.143 195.285 108.333 195.412 108.693L194.76 108.922L194.108 109.151ZM193.658 103.697C193.784 104.057 193.595 104.451 193.234 104.577C192.874 104.704 192.48 104.514 192.354 104.154L193.006 103.925L193.658 103.697ZM190.6 99.158C190.473 98.7979 190.663 98.4035 191.023 98.2771C191.383 98.1507 191.777 98.3401 191.904 98.7002L191.252 98.9291L190.6 99.158ZM190.15 93.7039C190.276 94.064 190.087 94.4583 189.726 94.5847C189.366 94.7112 188.972 94.5217 188.846 94.1617L189.498 93.9328L190.15 93.7039ZM187.092 89.1654C186.965 88.8053 187.155 88.4109 187.515 88.2845C187.875 88.1581 188.269 88.3475 188.395 88.7076L187.744 88.9365L187.092 89.1654ZM186.641 83.7113C186.768 84.0713 186.578 84.4657 186.218 84.5921C185.858 84.7185 185.464 84.5291 185.338 84.169L185.99 83.9402L186.641 83.7113ZM183.584 79.1727C183.457 78.8126 183.647 78.4183 184.007 78.2919C184.367 78.1655 184.761 78.3549 184.887 78.715L184.235 78.9438L183.584 79.1727ZM183.133 73.7186C183.26 74.0787 183.07 74.4731 182.71 74.5995C182.35 74.7259 181.956 74.5365 181.829 74.1764L182.481 73.9475L183.133 73.7186ZM180.075 69.1801C179.949 68.82 180.138 68.4257 180.499 68.2992C180.859 68.1728 181.253 68.3623 181.379 68.7223L180.727 68.9512L180.075 69.1801ZM179.625 63.726C179.752 64.0861 179.562 64.4804 179.202 64.6069C178.842 64.7333 178.448 64.5438 178.321 64.1838L178.973 63.9549L179.625 63.726ZM176.567 59.1875C176.441 58.8274 176.63 58.433 176.99 58.3066C177.351 58.1802 177.745 58.3696 177.871 58.7297L177.219 58.9586L176.567 59.1875ZM176.117 53.7334C176.244 54.0935 176.054 54.4878 175.694 54.6142C175.334 54.7406 174.94 54.5512 174.813 54.1911L175.465 53.9623L176.117 53.7334ZM173.059 49.1948C172.933 48.8348 173.122 48.4404 173.482 48.314C173.843 48.1876 174.237 48.377 174.363 48.7371L173.711 48.9659L173.059 49.1948ZM172.609 43.7408C172.736 44.1008 172.546 44.4952 172.186 44.6216C171.826 44.748 171.432 44.5586 171.305 44.1985L171.957 43.9696L172.609 43.7408ZM169.551 39.2022C169.425 38.8421 169.614 38.4478 169.974 38.3214C170.334 38.1949 170.729 38.3844 170.855 38.7444L170.203 38.9733L169.551 39.2022ZM169.101 33.7481C169.228 34.1082 169.038 34.5026 168.678 34.629C168.318 34.7554 167.924 34.566 167.797 34.2059L168.449 33.977L169.101 33.7481ZM166.043 29.2096C165.917 28.8495 166.106 28.4551 166.466 28.3287C166.826 28.2023 167.221 28.3917 167.347 28.7518L166.695 28.9807L166.043 29.2096ZM165.593 23.7555C165.72 24.1156 165.53 24.5099 165.17 24.6364C164.81 24.7628 164.416 24.5733 164.289 24.2133L164.941 23.9844L165.593 23.7555ZM252.642 273.8L251.99 274.029L250.236 269.033L250.888 268.804L251.54 268.575L253.294 273.571L252.642 273.8ZM249.134 263.807L248.482 264.036L246.728 259.04L247.38 258.811L248.032 258.582L249.786 263.578L249.134 263.807ZM245.626 253.815L244.974 254.044L243.22 249.047L243.872 248.818L244.524 248.59L246.278 253.586L245.626 253.815ZM242.118 243.822L241.466 244.051L239.712 239.055L240.364 238.826L241.016 238.597L242.77 243.593L242.118 243.822ZM238.61 233.829L237.958 234.058L236.204 229.062L236.856 228.833L237.508 228.604L239.262 233.601L238.61 233.829ZM235.102 223.837L234.45 224.066L232.696 219.069L233.348 218.841L234 218.612L235.754 223.608L235.102 223.837ZM231.594 213.844L230.942 214.073L229.188 209.077L229.84 208.848L230.492 208.619L232.246 213.615L231.594 213.844ZM228.086 203.852L227.434 204.081L225.68 199.084L226.332 198.855L226.984 198.626L228.738 203.623L228.086 203.852ZM224.578 193.859L223.926 194.088L222.172 189.092L222.824 188.863L223.476 188.634L225.23 193.63L224.578 193.859ZM221.07 183.866L220.418 184.095L218.664 179.099L219.316 178.87L219.968 178.641L221.722 183.638L221.07 183.866ZM217.562 173.874L216.91 174.103L215.156 169.106L215.808 168.877L216.46 168.649L218.214 173.645L217.562 173.874ZM214.054 163.881L213.402 164.11L211.648 159.114L212.3 158.885L212.952 158.656L214.706 163.652L214.054 163.881ZM210.546 153.889L209.894 154.117L208.14 149.121L208.792 148.892L209.444 148.663L211.198 153.66L210.546 153.889ZM207.038 143.896L206.386 144.125L204.632 139.128L205.284 138.9L205.936 138.671L207.69 143.667L207.038 143.896ZM203.53 133.903L202.878 134.132L201.124 129.136L201.776 128.907L202.428 128.678L204.182 133.674L203.53 133.903ZM200.022 123.911L199.37 124.14L197.616 119.143L198.268 118.914L198.92 118.685L200.674 123.682L200.022 123.911ZM196.514 113.918L195.862 114.147L194.108 109.151L194.76 108.922L195.412 108.693L197.166 113.689L196.514 113.918ZM193.006 103.925L192.354 104.154L190.6 99.158L191.252 98.9291L191.904 98.7002L193.658 103.697L193.006 103.925ZM189.498 93.9328L188.846 94.1617L187.092 89.1654L187.744 88.9365L188.395 88.7076L190.15 93.7039L189.498 93.9328ZM185.99 83.9402L185.338 84.169L183.584 79.1727L184.235 78.9438L184.887 78.715L186.641 83.7113L185.99 83.9402ZM182.481 73.9475L181.829 74.1764L180.075 69.1801L180.727 68.9512L181.379 68.7223L183.133 73.7186L182.481 73.9475ZM178.973 63.9549L178.321 64.1838L176.567 59.1875L177.219 58.9586L177.871 58.7297L179.625 63.726L178.973 63.9549ZM175.465 53.9623L174.813 54.1911L173.059 49.1948L173.711 48.9659L174.363 48.7371L176.117 53.7334L175.465 53.9623ZM171.957 43.9696L171.305 44.1985L169.551 39.2022L170.203 38.9733L170.855 38.7444L172.609 43.7408L171.957 43.9696ZM168.449 33.977L167.797 34.2059L166.043 29.2096L166.695 28.9807L167.347 28.7518L169.101 33.7481L168.449 33.977Z" fill="#589AEB"/>
<path d="M72.1602 303.408L79.0699 307.398L79.0699 299.419L72.1602 303.408ZM195.845 303.408L188.936 299.419L188.936 307.398L195.845 303.408ZM74.7369 304.099C75.1185 304.099 75.4279 303.79 75.4279 303.408C75.4279 303.027 75.1185 302.717 74.7369 302.717L74.7369 303.408L74.7369 304.099ZM79.8905 302.717C79.5089 302.717 79.1995 303.027 79.1995 303.408C79.1995 303.79 79.5089 304.099 79.8905 304.099L79.8905 303.408L79.8905 302.717ZM85.044 304.099C85.4257 304.099 85.735 303.79 85.735 303.408C85.735 303.027 85.4257 302.717 85.044 302.717L85.044 303.408L85.044 304.099ZM90.1976 302.717C89.816 302.717 89.5066 303.027 89.5066 303.408C89.5066 303.79 89.816 304.099 90.1976 304.099L90.1976 303.408L90.1976 302.717ZM95.3511 304.099C95.7328 304.099 96.0421 303.79 96.0421 303.408C96.0421 303.027 95.7328 302.717 95.3511 302.717L95.3511 303.408L95.3511 304.099ZM100.505 302.717C100.123 302.717 99.8137 303.027 99.8137 303.408C99.8137 303.79 100.123 304.099 100.505 304.099L100.505 303.408L100.505 302.717ZM105.658 304.099C106.04 304.099 106.349 303.79 106.349 303.408C106.349 303.027 106.04 302.717 105.658 302.717L105.658 303.408L105.658 304.099ZM110.812 302.717C110.43 302.717 110.121 303.027 110.121 303.408C110.121 303.79 110.43 304.099 110.812 304.099L110.812 303.408L110.812 302.717ZM115.965 304.099C116.347 304.099 116.656 303.79 116.656 303.408C116.656 303.027 116.347 302.717 115.965 302.717L115.965 303.408L115.965 304.099ZM121.119 302.717C120.737 302.717 120.428 303.027 120.428 303.408C120.428 303.79 120.737 304.099 121.119 304.099L121.119 303.408L121.119 302.717ZM126.272 304.099C126.654 304.099 126.963 303.79 126.963 303.408C126.963 303.027 126.654 302.717 126.272 302.717L126.272 303.408L126.272 304.099ZM131.426 302.717C131.044 302.717 130.735 303.027 130.735 303.408C130.735 303.79 131.044 304.099 131.426 304.099L131.426 303.408L131.426 302.717ZM136.58 304.099C136.961 304.099 137.271 303.79 137.271 303.408C137.271 303.027 136.961 302.717 136.58 302.717L136.58 303.408L136.58 304.099ZM141.733 302.717C141.351 302.717 141.042 303.027 141.042 303.408C141.042 303.79 141.351 304.099 141.733 304.099L141.733 303.408L141.733 302.717ZM146.887 304.099C147.268 304.099 147.578 303.79 147.578 303.408C147.578 303.027 147.268 302.717 146.887 302.717L146.887 303.408L146.887 304.099ZM152.04 302.717C151.659 302.717 151.349 303.027 151.349 303.408C151.349 303.79 151.659 304.099 152.04 304.099L152.04 303.408L152.04 302.717ZM157.194 304.099C157.575 304.099 157.885 303.79 157.885 303.408C157.885 303.027 157.575 302.717 157.194 302.717L157.194 303.408L157.194 304.099ZM162.347 302.717C161.966 302.717 161.656 303.027 161.656 303.408C161.656 303.79 161.966 304.099 162.347 304.099L162.347 303.408L162.347 302.717ZM167.501 304.099C167.882 304.099 168.192 303.79 168.192 303.408C168.192 303.027 167.882 302.717 167.501 302.717L167.501 303.408L167.501 304.099ZM172.654 302.717C172.273 302.717 171.963 303.027 171.963 303.408C171.963 303.79 172.273 304.099 172.654 304.099L172.654 303.408L172.654 302.717ZM177.808 304.099C178.19 304.099 178.499 303.79 178.499 303.408C178.499 303.027 178.19 302.717 177.808 302.717L177.808 303.408L177.808 304.099ZM182.961 302.717C182.58 302.717 182.271 303.027 182.271 303.408C182.271 303.79 182.58 304.099 182.961 304.099L182.961 303.408L182.961 302.717ZM188.115 304.099C188.497 304.099 188.806 303.79 188.806 303.408C188.806 303.027 188.497 302.717 188.115 302.717L188.115 303.408L188.115 304.099ZM193.269 302.717C192.887 302.717 192.578 303.027 192.578 303.408C192.578 303.79 192.887 304.099 193.269 304.099L193.269 303.408L193.269 302.717ZM79.8905 303.408L79.8905 304.099L85.044 304.099L85.044 303.408L85.044 302.717L79.8905 302.717L79.8905 303.408ZM90.1976 303.408L90.1976 304.099L95.3511 304.099L95.3511 303.408L95.3511 302.717L90.1976 302.717L90.1976 303.408ZM100.505 303.408L100.505 304.099L105.658 304.099L105.658 303.408L105.658 302.717L100.505 302.717L100.505 303.408ZM110.812 303.408L110.812 304.099L115.965 304.099L115.965 303.408L115.965 302.717L110.812 302.717L110.812 303.408ZM121.119 303.408L121.119 304.099L126.272 304.099L126.272 303.408L126.272 302.717L121.119 302.717L121.119 303.408ZM131.426 303.408L131.426 304.099L136.58 304.099L136.58 303.408L136.58 302.717L131.426 302.717L131.426 303.408ZM141.733 303.408L141.733 304.099L146.887 304.099L146.887 303.408L146.887 302.717L141.733 302.717L141.733 303.408ZM152.04 303.408L152.04 304.099L157.194 304.099L157.194 303.408L157.194 302.717L152.04 302.717L152.04 303.408ZM162.347 303.408L162.347 304.099L167.501 304.099L167.501 303.408L167.501 302.717L162.347 302.717L162.347 303.408ZM172.654 303.408L172.654 304.099L177.808 304.099L177.808 303.408L177.808 302.717L172.654 302.717L172.654 303.408ZM182.961 303.408L182.961 304.099L188.115 304.099L188.115 303.408L188.115 302.717L182.961 302.717L182.961 303.408Z" fill="#589AEB"/>
<defs>
<linearGradient id="paint0_linear_23238_69883" x1="134.998" y1="70.4961" x2="134.998" y2="274.498" gradientUnits="userSpaceOnUse">
<stop stop-color="#0072FF"/>
<stop offset="1" stop-color="#004294"/>
</linearGradient>
<linearGradient id="paint1_linear_23238_69883" x1="84.4999" y1="50.498" x2="84.4999" y2="274.5" gradientUnits="userSpaceOnUse">
<stop stop-color="#0171FC"/>
<stop offset="1" stop-color="#4B9CFF"/>
</linearGradient>
</defs>
</svg>
