<svg xmlns="http://www.w3.org/2000/svg" width="382" height="460" fill="none" xmlns:v="https://vecta.io/nano"><rect width="382" height="460" rx="16" fill="#fff"/><path d="M284.479 383.185l-39.147-22.127-15.318-47.659h-73.19l-15.318 47.659-40.85 22.127 91.912-260.417 91.911 260.417zM173.844 257.231h37.445l-18.723-57.87-18.722 57.87z" fill="url(#A)"/><path d="M192.571 122.77l-37.446-25.531 37.446-20.425 37.445 20.425-37.445 25.531z" fill="#0171fc"/><path d="M155.123 97.238L63.211 357.655l37.445 25.531 91.912-260.417-37.445-25.531z" fill="url(#B)"/><path d="M230.014 97.238l91.912 260.417-37.446 25.531-91.911-260.417 37.445-25.531z" fill="#4b9cff"/><rect x="20.34" y="405.34" width="87.32" height="29.32" rx="14.66" fill="#e8f2ff"/><rect x="20.34" y="405.34" width="87.32" height="29.32" rx="14.66" stroke="#0668e1" stroke-width=".68"/><path d="M36.77 417.02h2.63c.46 0 .88.073 1.26.22a2.52 2.52 0 0 1 .97.66c.267.287.473.65.62 1.09.147.433.22.94.22 1.52s-.073 1.09-.22 1.53c-.147.433-.353.797-.62 1.09-.267.287-.59.503-.97.65s-.8.22-1.26.22h-2.63v-6.98zm2.63 5.63c.453 0 .81-.127 1.07-.38s.39-.66.39-1.22v-1.08c0-.56-.13-.967-.39-1.22s-.617-.38-1.07-.38h-1.11v4.28h1.11zm4.073 1.35v-1.21h.9v-4.56h-.9v-1.21h3.32v1.21h-.9v4.56h.9V424h-3.32zm6.106 0h-1.52v-6.98h3.31c.32 0 .61.053.87.16a1.79 1.79 0 0 1 .66.46c.187.193.33.427.43.7s.15.577.15.91c0 .473-.107.887-.32 1.24-.207.353-.523.61-.95.77l1.37 2.74h-1.69l-1.22-2.56h-1.09V424zm1.6-3.84c.227 0 .403-.057.53-.17.133-.12.2-.293.2-.52v-.44c0-.227-.067-.397-.2-.51-.127-.12-.303-.18-.53-.18h-1.6v1.82h1.6zm3.618 3.84v-6.98h4.75v1.35h-3.23v1.43h2.77v1.34h-2.77v1.51h3.23V424h-4.75zm8.894.12c-.473 0-.9-.073-1.28-.22-.38-.153-.703-.377-.97-.67a3.14 3.14 0 0 1-.62-1.11c-.147-.447-.22-.967-.22-1.56 0-.587.073-1.107.22-1.56.147-.46.353-.843.62-1.15.267-.313.59-.55.97-.71s.807-.24 1.28-.24c.647 0 1.18.133 1.6.4.42.26.757.673 1.01 1.24l-1.31.68c-.093-.293-.24-.527-.44-.7-.193-.18-.48-.27-.86-.27-.447 0-.807.147-1.08.44-.267.287-.4.707-.4 1.26v1.12c0 .553.133.977.4 1.27.273.287.633.43 1.08.43.373 0 .67-.1.89-.3a1.87 1.87 0 0 0 .5-.74l1.24.72c-.26.533-.603.947-1.03 1.24-.42.287-.953.43-1.6.43zm6.604-5.75V424h-1.52v-5.63h-1.89v-1.35h5.3v1.35h-1.89zm2.621 5.63v-1.21h.9v-4.56h-.9v-1.21h3.32v1.21h-.9v4.56h.9V424h-3.32zm7.386.12c-.46 0-.88-.077-1.26-.23s-.703-.38-.97-.68c-.267-.307-.473-.683-.62-1.13-.147-.453-.22-.977-.22-1.57s.073-1.113.22-1.56c.147-.453.353-.83.62-1.13.267-.307.59-.537.97-.69s.8-.23 1.26-.23.88.077 1.26.23.703.383.97.69c.267.3.473.677.62 1.13.147.447.22.967.22 1.56s-.073 1.117-.22 1.57c-.147.447-.353.823-.62 1.13-.267.3-.59.527-.97.68s-.8.23-1.26.23zm0-1.35c.46 0 .817-.15 1.07-.45.26-.3.39-.73.39-1.29v-1.04c0-.56-.13-.99-.39-1.29-.253-.3-.61-.45-1.07-.45s-.82.15-1.08.45c-.253.3-.38.73-.38 1.29v1.04c0 .56.127.99.38 1.29.26.3.62.45 1.08.45zm6.469-2.07l-.67-1.4h-.03v4.7h-1.43v-6.98h1.66l1.91 3.3.67 1.4h.03v-4.7h1.43V424h-1.66l-1.91-3.3z" fill="#0668e1"/><rect x="276.34" y="405.34" width="85.32" height="29.32" rx="14.66" fill="#e8f2ff"/><rect x="276.34" y="405.34" width="85.32" height="29.32" rx="14.66" stroke="#0668e1" stroke-width=".68"/><path d="M295.03 424.12c-.613 0-1.133-.103-1.56-.31a3.63 3.63 0 0 1-1.09-.82l1-1.01c.473.533 1.057.8 1.75.8.373 0 .65-.077.83-.23a.76.76 0 0 0 .27-.61c0-.193-.053-.353-.16-.48-.107-.133-.323-.223-.65-.27l-.69-.09c-.74-.093-1.283-.317-1.63-.67-.34-.353-.51-.823-.51-1.41a2.03 2.03 0 0 1 .18-.86 1.93 1.93 0 0 1 .51-.67c.227-.187.5-.33.82-.43.327-.107.697-.16 1.11-.16.527 0 .99.083 1.39.25a2.83 2.83 0 0 1 1.03.73l-1.01 1.02a1.95 1.95 0 0 0-.61-.47c-.233-.127-.53-.19-.89-.19-.34 0-.593.06-.76.18a.58.58 0 0 0-.25.5c0 .24.063.413.19.52.133.107.347.183.64.23l.69.11c.72.113 1.253.337 1.6.67.347.327.52.793.52 1.4 0 .333-.06.64-.18.92a1.95 1.95 0 0 1-.53.72c-.227.2-.51.357-.85.47-.34.107-.727.16-1.16.16zm3.71-.12v-1.21h.9v-4.56h-.9v-1.21h3.32v1.21h-.9v4.56h.9V424h-3.32zm7.458-5.63V424h-1.52v-5.63h-1.89v-1.35h5.3v1.35h-1.89zm4.369-1.35v4.28c0 .493.097.863.29 1.11.194.24.517.36.97.36s.777-.12.97-.36c.194-.247.29-.617.29-1.11v-4.28h1.48v4.12c0 .513-.05.96-.15 1.34-.093.373-.25.683-.47.93-.22.24-.503.42-.85.54-.346.113-.77.17-1.27.17s-.923-.057-1.27-.17c-.346-.12-.63-.3-.85-.54-.22-.247-.38-.557-.48-.93-.093-.38-.14-.827-.14-1.34v-4.12h1.48zm9.55 6.98l-.5-1.66h-2.33l-.5 1.66h-1.54l2.3-6.98h1.88l2.27 6.98h-1.58zm-1.65-5.6h-.05l-.77 2.65h1.6l-.78-2.65zm6.451-.03V424h-1.52v-5.63h-1.89v-1.35h5.3v1.35h-1.89zm2.621 5.63v-1.21h.9v-4.56h-.9v-1.21h3.32v1.21h-.9v4.56h.9V424h-3.32zm7.386.12c-.46 0-.88-.077-1.26-.23a2.56 2.56 0 0 1-.97-.68c-.266-.307-.473-.683-.62-1.13-.146-.453-.22-.977-.22-1.57s.074-1.113.22-1.56c.147-.453.354-.83.62-1.13a2.51 2.51 0 0 1 .97-.69c.38-.153.8-.23 1.26-.23s.88.077 1.26.23a2.5 2.5 0 0 1 .97.69c.267.3.474.677.62 1.13.147.447.22.967.22 1.56s-.073 1.117-.22 1.57c-.146.447-.353.823-.62 1.13a2.55 2.55 0 0 1-.97.68c-.38.153-.8.23-1.26.23zm0-1.35c.46 0 .817-.15 1.07-.45.26-.3.39-.73.39-1.29v-1.04c0-.56-.13-.99-.39-1.29-.253-.3-.61-.45-1.07-.45s-.82.15-1.08.45c-.253.3-.38.73-.38 1.29v1.04c0 .56.127.99.38 1.29.26.3.62.45 1.08.45zm6.469-2.07l-.67-1.4h-.03v4.7h-1.43v-6.98h1.66l1.91 3.3.67 1.4h.03v-4.7h1.43V424h-1.66l-1.91-3.3z" fill="#0668e1"/><rect x="148.844" y="31.34" width="89.32" height="29.32" rx="14.66" fill="#e8f2ff"/><rect x="148.844" y="31.34" width="89.32" height="29.32" rx="14.66" stroke="#0668e1" stroke-width=".68"/><path d="M165.774 50v-6.98h4.75v1.35h-3.23v1.43h2.77v1.34h-2.77v1.51h3.23V50h-4.75zm11.874 0h-1.76l-1.51-2.57h-.03l-1.47 2.57h-1.64l2.24-3.61-2.13-3.37h1.77l1.36 2.36h.03l1.38-2.36h1.64l-2.15 3.4 2.27 3.58zm.929 0v-6.98h4.75v1.35h-3.23v1.43h2.77v1.34h-2.77v1.51h3.23V50h-4.75zm8.894.12c-.473 0-.9-.073-1.28-.22-.38-.153-.703-.377-.97-.67-.267-.3-.473-.67-.62-1.11-.147-.447-.22-.967-.22-1.56 0-.587.073-1.107.22-1.56.147-.46.353-.843.62-1.15.267-.313.59-.55.97-.71a3.27 3.27 0 0 1 1.28-.24c.647 0 1.18.133 1.6.4.42.26.757.673 1.01 1.24l-1.31.68c-.093-.293-.24-.527-.44-.7-.193-.18-.48-.27-.86-.27-.447 0-.807.147-1.08.44-.267.287-.4.707-.4 1.26v1.12c0 .553.133.977.4 1.27.273.287.633.43 1.08.43.373 0 .67-.1.89-.3a1.87 1.87 0 0 0 .5-.74l1.24.72c-.26.533-.603.947-1.03 1.24-.42.287-.953.43-1.6.43zm5.134-7.1v4.28c0 .493.096.863.29 1.11.193.24.516.36.97.36s.776-.12.97-.36c.193-.247.29-.617.29-1.11v-4.28h1.48v4.12c0 .513-.05.96-.15 1.34-.094.373-.25.683-.47.93-.22.24-.504.42-.85.54-.347.113-.77.17-1.27.17s-.924-.057-1.27-.17c-.347-.12-.63-.3-.85-.54-.22-.247-.38-.557-.48-.93-.094-.38-.14-.827-.14-1.34v-4.12h1.48zm8.413 1.35V50h-1.52v-5.63h-1.89v-1.35h5.3v1.35h-1.89zm2.621 5.63v-1.21h.9v-4.56h-.9v-1.21h3.32v1.21h-.9v4.56h.9V50h-3.32zm7.386.12c-.46 0-.88-.077-1.26-.23s-.703-.38-.97-.68c-.267-.307-.473-.683-.62-1.13-.147-.453-.22-.977-.22-1.57s.073-1.113.22-1.56c.147-.453.353-.83.62-1.13.267-.307.59-.537.97-.69s.8-.23 1.26-.23.88.077 1.26.23.703.383.97.69c.267.3.473.677.62 1.13.147.447.22.967.22 1.56s-.073 1.117-.22 1.57c-.147.447-.353.823-.62 1.13-.267.3-.59.527-.97.68s-.8.23-1.26.23zm0-1.35c.46 0 .817-.15 1.07-.45.26-.3.39-.73.39-1.29v-1.04c0-.56-.13-.99-.39-1.29-.253-.3-.61-.45-1.07-.45s-.82.15-1.08.45c-.253.3-.38.73-.38 1.29v1.04c0 .56.127.99.38 1.29.26.3.62.45 1.08.45zm6.469-2.07l-.67-1.4h-.03V50h-1.43v-6.98h1.66l1.91 3.3.67 1.4h.03v-4.7h1.43V50h-1.66l-1.91-3.3z" fill="#0668e1"/><g fill="#589aeb"><path d="M37.606 392.016l7.734-6.642-9.619-3.377 1.885 10.019zM154.151 60.039l-7.735 6.642 9.62 3.377-1.885-10.019zM39.559 389.116c.162-.46-.081-.964-.541-1.125s-.964.08-1.126.54l.833.293.833.292zm.575-6.969c-.162.46.08.964.541 1.126s.964-.081 1.126-.541l-.833-.292-.833-.293zm3.907-5.799a.88.88 0 0 0-.541-1.125c-.46-.162-.964.08-1.126.54l.833.293.833.292zm.575-6.969a.88.88 0 0 0 1.666.585l-.833-.293-.833-.292zm3.907-5.799c.161-.46-.081-.964-.541-1.126s-.964.081-1.126.541l.833.292.833.293zm.575-6.969a.88.88 0 1 0 1.666.585l-.833-.293-.833-.292zm3.907-5.8a.88.88 0 0 0-.541-1.125c-.46-.162-.964.08-1.126.54l.833.293.833.292zm.575-6.969c-.162.46.081.964.541 1.126s.964-.081 1.126-.541l-.833-.292-.833-.293zm3.907-5.799a.88.88 0 0 0-.541-1.125c-.46-.162-.964.08-1.126.54l.833.293.833.292zm.575-6.969a.88.88 0 0 0 1.666.585l-.833-.293-.833-.292zm3.907-5.799c.162-.46-.081-.964-.541-1.126s-.964.081-1.126.541l.833.292.833.293zm.575-6.969a.88.88 0 0 0 1.666.585l-.833-.293-.833-.292zm3.907-5.8a.88.88 0 0 0-.541-1.125c-.46-.162-.964.08-1.126.54l.833.293.833.292zm.575-6.969c-.162.46.081.964.541 1.126s.964-.081 1.126-.541l-.833-.292-.833-.293zm3.907-5.799c.162-.46-.081-.964-.541-1.126s-.964.081-1.126.541l.833.293.833.292zm.575-6.969a.88.88 0 0 0 .541 1.125c.46.162.964-.08 1.126-.54l-.833-.293-.833-.292zm3.907-5.799c.161-.46-.081-.964-.541-1.126s-.964.081-1.126.541l.833.292.833.293zm.575-6.969a.88.88 0 0 0 1.666.584l-.833-.292-.833-.292zm3.907-5.8a.88.88 0 1 0-1.666-.585l.833.293.833.292zm.575-6.969c-.162.46.081.964.541 1.126s.964-.081 1.126-.541l-.833-.292-.833-.293zm3.907-5.799c.161-.46-.081-.964-.541-1.126s-.964.081-1.125.541l.833.292.833.293zm.575-6.969a.88.88 0 0 0 .541 1.125c.46.162.964-.08 1.126-.54l-.833-.293-.833-.292zm3.907-5.799c.162-.461-.081-.964-.541-1.126s-.964.081-1.126.541l.833.292.833.293zm.575-6.97c-.162.461.081.965.541 1.126a.88.88 0 0 0 1.126-.541l-.833-.292-.833-.293zm3.907-5.799a.88.88 0 0 0-1.666-.585l.833.293.833.292zm.575-6.969c-.162.46.081.964.541 1.126s.964-.081 1.126-.541l-.833-.292-.833-.293zm3.907-5.799c.162-.46-.081-.964-.541-1.126s-.964.081-1.126.541l.833.292.833.293zm.575-6.969c-.162.46.081.964.541 1.125s.964-.08 1.125-.54l-.833-.293-.833-.292zm3.907-5.799c.162-.461-.08-.964-.54-1.126s-.964.081-1.126.541l.833.292.833.293zm.575-6.97c-.161.461.081.964.541 1.126s.964-.081 1.125-.541l-.833-.292-.833-.293zm3.908-5.799c.161-.46-.081-.964-.541-1.125a.88.88 0 0 0-1.125.54l.833.293.833.292zm.575-6.969c-.162.46.08.964.54 1.126s.964-.081 1.126-.541l-.833-.292-.833-.293zm3.907-5.799c.162-.46-.08-.964-.54-1.126s-.964.081-1.126.541l.833.292.833.293zm.575-6.969c-.161.46.081.964.541 1.125s.964-.08 1.126-.54l-.834-.293-.833-.292zm3.908-5.8c.161-.46-.081-.964-.541-1.125a.88.88 0 0 0-1.125.541l.833.292.833.292zm.575-6.969c-.162.46.08.964.54 1.126s.964-.081 1.126-.541l-.833-.292-.833-.293zm3.907-5.799a.88.88 0 0 0-.54-1.125c-.46-.162-.964.08-1.126.54l.833.293.833.292zm.575-6.969c-.161.46.081.964.541 1.126s.964-.081 1.126-.541l-.834-.293-.833-.292zm3.908-5.799c.161-.46-.081-.964-.541-1.126s-.964.081-1.125.541l.833.292.833.293zm.575-6.969a.88.88 0 0 0 .54 1.125c.461.162.964-.08 1.126-.54l-.833-.293-.833-.292zm3.907-5.8a.88.88 0 0 0-.54-1.125c-.46-.162-.964.08-1.126.541l.833.292.833.292zm.575-6.969c-.161.46.081.964.541 1.126s.964-.081 1.126-.541l-.834-.292-.833-.293zm3.908-5.799c.161-.46-.081-.964-.541-1.125a.88.88 0 0 0-1.125.54l.833.293.833.292zm.575-6.969c-.162.46.08.964.54 1.126s.964-.081 1.126-.541l-.833-.292-.833-.293zm3.907-5.799c.162-.46-.08-.964-.54-1.126s-.964.081-1.126.541l.833.292.833.293zm.575-6.969c-.161.46.081.964.541 1.125s.964-.08 1.126-.54l-.834-.293-.833-.292zm3.908-5.799c.161-.46-.081-.964-.541-1.126a.88.88 0 0 0-1.125.541l.833.292.833.293zm.575-6.969c-.162.46.08.964.54 1.126s.964-.081 1.126-.541l-.833-.293-.833-.293zm3.907-5.799a.88.88 0 0 0-.54-1.125c-.46-.162-.964.081-1.126.541l.833.292.833.292zm.575-6.969c-.161.46.081.964.541 1.126a.88.88 0 0 0 1.125-.541l-.833-.292-.833-.293zm3.908-5.799c.161-.46-.081-.964-.541-1.126a.88.88 0 0 0-1.125.541l.833.292.833.293zm.575-6.969a.88.88 0 0 0 .54 1.126c.461.162.964-.081 1.126-.541l-.833-.292-.833-.292zM40.967 382.44l.833.292 2.241-6.384-.833-.292-.833-.293-2.241 6.384.833.293zm4.483-12.769l.833.293 2.241-6.384-.833-.293-.833-.292-2.241 6.384.833.292zm4.483-12.768l.833.293 2.241-6.385-.833-.292-.833-.293-2.241 6.385.833.292zm4.483-12.768l.833.292 2.241-6.384-.833-.292-.833-.293-2.241 6.384.833.293zm4.482-12.769l.833.293 2.241-6.384-.833-.293-.833-.292-2.241 6.384.833.292zm4.483-12.768l.833.293 2.241-6.385-.833-.292-.833-.293-2.241 6.385.833.292zm4.482-12.768l.833.292 2.241-6.384-.833-.292-.833-.293-2.241 6.384.833.293zm4.483-12.769l.833.293 2.241-6.384-.833-.293-.833-.292-2.241 6.384.833.292zm4.483-12.768l.833.292 2.241-6.384-.833-.292-.833-.293-2.241 6.385.833.292zm4.483-12.768l.833.292 2.241-6.384-.833-.293-.833-.292-2.241 6.384.833.293zm4.483-12.769l.833.293 2.241-6.384-.833-.293-.833-.292-2.241 6.384.833.292zm4.483-12.768l.833.292 2.241-6.384-.833-.292-.833-.293-2.241 6.384.833.293zm4.483-12.768l.833.292 2.241-6.384-.833-.293-.833-.292-2.241 6.384.833.293zm4.483-12.769l.833.293 2.241-6.384-.833-.293-.833-.292-2.241 6.384.833.292zm4.482-12.768l.833.292 2.242-6.384-.833-.292-.833-.293-2.242 6.384.833.293zm4.483-12.768l.833.292 2.241-6.384-.833-.293-.833-.292-2.241 6.384.833.293zm4.482-12.769l.834.293 2.241-6.385-.833-.292-.833-.292-2.242 6.384.833.292zm4.483-12.768l.833.292 2.241-6.384-.833-.292-.833-.293-2.241 6.384.833.293zm4.482-12.769l.834.293 2.241-6.384-.833-.293-.833-.292-2.242 6.384.833.292zm4.483-12.768l.833.293 2.241-6.385-.833-.292-.833-.292-2.241 6.384.833.292zm4.482-12.768l.834.292 2.241-6.384-.833-.292-.833-.293-2.242 6.384.833.293zm4.483-12.768l.833.292 2.241-6.384-.833-.293-.833-.292-2.241 6.384.833.293zm4.482-12.769l.834.293 2.241-6.384-.833-.293-.833-.292-2.242 6.384.833.292zm4.483-12.768l.833.293 2.241-6.384-.833-.292-.833-.292-2.241 6.384.833.293zM148.547 76l.833.292 2.242-6.384-.833-.293-.833-.292-2.242 6.384.833.293z"/><path d="M346.629 392.016l-7.734-6.642 9.619-3.377-1.885 10.019zM230.084 60.039l7.734 6.642-9.619 3.377 1.885-10.019zm114.591 329.077c-.161-.46.081-.964.541-1.125a.88.88 0 0 1 1.125.54l-.833.293-.833.292zm-.575-6.969c.162.46-.08.964-.541 1.126a.88.88 0 0 1-1.125-.541l.833-.292.833-.293zm-3.907-5.799a.88.88 0 0 1 .54-1.125c.46-.162.964.08 1.126.54l-.833.293-.833.292zm-.575-6.969c.161.46-.081.964-.541 1.125s-.964-.08-1.126-.54l.834-.293.833-.292zm-3.908-5.799c-.161-.46.081-.964.541-1.126a.88.88 0 0 1 1.125.541l-.833.292-.833.293zm-.575-6.969a.883.883 0 1 1-1.666.585l.833-.293.833-.292zm-3.907-5.8a.88.88 0 0 1 .54-1.125c.46-.162.964.08 1.126.54l-.833.293-.833.292zm-.575-6.969c.161.46-.081.964-.541 1.126s-.964-.081-1.126-.541l.834-.292.833-.293zm-3.908-5.799c-.161-.46.081-.964.541-1.125a.88.88 0 0 1 1.125.54l-.833.293-.833.292zm-.575-6.969a.883.883 0 1 1-1.666.585l.833-.293.833-.292zm-3.907-5.799c-.162-.46.08-.964.54-1.126s.964.081 1.126.541l-.833.292-.833.293zm-.575-6.969c.161.46-.081.964-.541 1.125s-.964-.08-1.126-.54l.834-.293.833-.292zm-3.908-5.8c-.161-.46.081-.964.541-1.125a.88.88 0 0 1 1.125.54l-.833.293-.833.292zm-.575-6.969c.162.46-.08.964-.541 1.126a.88.88 0 0 1-1.125-.541l.833-.292.833-.293zm-3.907-5.799c-.162-.46.08-.964.54-1.126s.964.081 1.126.541l-.833.293-.833.292zm-.575-6.969c.161.46-.081.964-.541 1.125s-.964-.08-1.126-.54l.833-.293.834-.292zm-3.908-5.799c-.161-.46.081-.964.541-1.126a.88.88 0 0 1 1.125.541l-.833.292-.833.293zm-.575-6.969a.883.883 0 0 1-1.666.584l.833-.292.833-.292zm-3.907-5.8a.88.88 0 0 1 .54-1.125c.46-.162.964.08 1.126.54l-.833.293-.833.292zm-.575-6.969c.161.46-.081.964-.541 1.126s-.964-.081-1.126-.541l.833-.292.834-.293zm-3.908-5.799c-.161-.46.081-.964.541-1.126a.88.88 0 0 1 1.125.541l-.833.292-.833.293zm-.575-6.969a.883.883 0 0 1-1.666.585l.833-.293.833-.292zm-3.907-5.799c-.162-.461.08-.964.54-1.126s.964.081 1.126.541l-.833.292-.833.293zm-.575-6.97c.161.461-.081.965-.541 1.126s-.964-.08-1.126-.541l.833-.292.834-.293zm-3.908-5.799c-.161-.46.081-.964.541-1.125a.88.88 0 0 1 1.125.54l-.833.293-.833.292zm-.575-6.969c.162.46-.08.964-.541 1.126a.88.88 0 0 1-1.125-.541l.833-.292.833-.293zm-3.907-5.799c-.162-.46.08-.964.54-1.126s.964.081 1.126.541l-.833.292-.833.293zm-.575-6.969c.161.46-.081.964-.541 1.125s-.964-.08-1.126-.54l.833-.293.834-.292zm-3.908-5.799c-.161-.461.081-.964.541-1.126a.88.88 0 0 1 1.125.541l-.833.292-.833.293zm-.575-6.97c.162.461-.08.964-.541 1.126a.88.88 0 0 1-1.125-.541l.833-.292.833-.293zm-3.907-5.799a.88.88 0 0 1 .54-1.125c.46-.162.964.08 1.126.54l-.833.293-.833.292zm-.575-6.969c.161.46-.081.964-.541 1.126s-.964-.081-1.126-.541l.833-.292.834-.293zm-3.908-5.799c-.161-.46.081-.964.541-1.126a.88.88 0 0 1 1.125.541l-.833.292-.833.293zm-.575-6.969a.883.883 0 1 1-1.666.585l.833-.293.833-.292zm-3.907-5.8a.88.88 0 0 1 .54-1.125c.46-.162.964.08 1.126.541l-.833.292-.833.292zm-.575-6.969c.161.46-.081.964-.541 1.126s-.964-.081-1.126-.541l.833-.292.834-.293zm-3.908-5.799c-.161-.46.081-.964.541-1.125a.88.88 0 0 1 1.125.54l-.833.293-.833.292zm-.575-6.969c.162.46-.081.964-.541 1.126a.88.88 0 0 1-1.125-.541l.833-.293.833-.292zm-3.907-5.799c-.162-.46.08-.964.54-1.126s.964.081 1.126.541l-.833.292-.833.293zm-.575-6.969c.161.46-.081.964-.541 1.125s-.964-.08-1.126-.54l.833-.293.834-.292zm-3.908-5.8c-.161-.46.081-.964.541-1.125a.88.88 0 0 1 1.125.541l-.833.292-.833.292zm-.575-6.969c.162.46-.081.964-.541 1.126a.88.88 0 0 1-1.125-.541l.833-.292.833-.293zm-3.907-5.799a.88.88 0 0 1 .54-1.125c.46-.162.964.08 1.126.54l-.833.293-.833.292zm-.575-6.969c.161.46-.081.964-.541 1.126s-.964-.081-1.126-.541l.833-.292.834-.293zm-3.908-5.799c-.161-.46.081-.964.541-1.126a.88.88 0 0 1 1.125.541l-.833.292-.833.293zm-.575-6.969a.883.883 0 0 1-1.666.585l.833-.293.833-.292zm-3.907-5.799a.88.88 0 0 1 .54-1.126c.46-.162.964.081 1.126.541l-.833.292-.833.293zm-.575-6.969c.161.46-.081.964-.541 1.126s-.964-.081-1.126-.541l.833-.293.834-.293zm-3.908-5.799c-.161-.46.081-.964.541-1.125a.88.88 0 0 1 1.125.541l-.833.292-.833.292zm-.575-6.969a.883.883 0 1 1-1.666.585l.833-.292.833-.293zm-3.907-5.799c-.162-.46.08-.964.54-1.126s.964.08 1.126.541l-.833.292-.833.293zm-.575-6.969c.161.46-.081.964-.541 1.126s-.964-.081-1.126-.541l.833-.292.834-.292zm111.229 319.5l-.833.292-2.241-6.384.833-.292.833-.293 2.241 6.384-.833.293zm-4.482-12.769l-.834.293-2.241-6.384.833-.293.833-.292 2.242 6.384-.833.292zm-4.483-12.768l-.833.293-2.241-6.385.833-.292.833-.293 2.241 6.385-.833.292zm-4.482-12.768l-.834.292-2.241-6.384.833-.292.833-.293 2.242 6.384-.833.293zm-4.483-12.769l-.833.293-2.241-6.384.833-.293.833-.292 2.241 6.384-.833.292zm-4.482-12.768l-.834.293-2.241-6.385.833-.292.833-.293 2.242 6.385-.833.292zm-4.483-12.768l-.833.292-2.241-6.384.833-.292.833-.293 2.241 6.384-.833.293zm-4.483-12.769l-.833.293-2.241-6.384.833-.293.833-.292 2.242 6.384-.834.292zm-4.482-12.768l-.833.292-2.241-6.384.833-.292.833-.293 2.241 6.385-.833.292zm-4.483-12.768l-.833.292-2.241-6.384.833-.293.833-.292 2.242 6.384-.834.293zm-4.482-12.769l-.833.293-2.241-6.384.833-.293.833-.292 2.241 6.384-.833.292zm-4.483-12.768l-.833.292-2.241-6.384.833-.292.833-.293 2.242 6.384-.834.293zm-4.482-12.768l-.833.292-2.241-6.384.833-.293.833-.292 2.241 6.384-.833.293zm-4.483-12.769l-.833.293-2.241-6.384.833-.293.833-.292 2.242 6.384-.834.292zm-4.482-12.768l-.833.292-2.241-6.384.833-.292.833-.293 2.241 6.384-.833.293zm-4.483-12.768l-.833.292-2.241-6.384.833-.293.833-.292 2.242 6.384-.834.293zm-4.482-12.769l-.833.293-2.241-6.385.833-.292.833-.292 2.241 6.384-.833.292zm-4.483-12.768l-.833.292-2.241-6.384.833-.292.833-.293 2.242 6.384-.834.293zm-4.482-12.769l-.833.293-2.241-6.384.833-.293.833-.292 2.241 6.384-.833.292zm-4.483-12.768l-.833.293-2.241-6.385.833-.292.833-.292 2.242 6.384-.834.292zm-4.482-12.768l-.833.292-2.241-6.384.833-.292.833-.293 2.241 6.384-.833.293zm-4.483-12.768l-.833.292-2.241-6.384.833-.293.833-.292 2.242 6.384-.834.293zm-4.482-12.769l-.833.293-2.241-6.384.833-.293.833-.292 2.241 6.384-.833.292zm-4.483-12.768l-.833.293-2.241-6.384.833-.292.833-.292 2.242 6.384-.834.293zM235.687 76l-.833.292-2.241-6.384.833-.293.833-.292 2.241 6.384-.833.293zM112.656 420.27l8.829 5.097v-10.195l-8.829 5.098zm158.042 0l-8.829-5.098v10.195l8.829-5.097zm-154.749.882c.487 0 .883-.395.883-.882s-.396-.883-.883-.883v.883.882zm6.585-1.765c-.488 0-.883.395-.883.883a.88.88 0 0 0 .883.882v-.882-.883zm6.585 1.765c.488 0 .883-.395.883-.882s-.395-.883-.883-.883v.883.882zm6.585-1.765c-.488 0-.883.395-.883.883a.88.88 0 0 0 .883.882v-.882-.883zm6.585 1.765c.488 0 .883-.395.883-.882s-.395-.883-.883-.883v.883.882zm6.585-1.765c-.487 0-.883.395-.883.883s.396.882.883.882v-.882-.883zm6.585 1.765c.488 0 .883-.395.883-.882s-.395-.883-.883-.883v.883.882zm6.585-1.765c-.487 0-.882.395-.882.883a.88.88 0 0 0 .882.882v-.882-.883zm6.586 1.765a.88.88 0 0 0 .882-.882c0-.488-.395-.883-.882-.883v.883.882zm6.585-1.765c-.488 0-.883.395-.883.883a.88.88 0 0 0 .883.882v-.882-.883zm6.585 1.765c.487 0 .883-.395.883-.882s-.396-.883-.883-.883v.883.882zm6.585-1.765c-.488 0-.883.395-.883.883a.88.88 0 0 0 .883.882v-.882-.883zm6.585 1.765c.488 0 .883-.395.883-.882s-.395-.883-.883-.883v.883.882zm6.585-1.765c-.488 0-.883.395-.883.883a.88.88 0 0 0 .883.882v-.882-.883zm6.585 1.765c.488 0 .883-.395.883-.882s-.395-.883-.883-.883v.883.882zm6.585-1.765c-.487 0-.883.395-.883.883s.396.882.883.882v-.882-.883zm6.585 1.765c.488 0 .883-.395.883-.882s-.395-.883-.883-.883v.883.882zm6.585-1.765c-.487 0-.883.395-.883.883s.396.882.883.882v-.882-.883zm6.585 1.765c.488 0 .883-.395.883-.882s-.395-.883-.883-.883v.883.882zm6.586-1.765c-.488 0-.883.395-.883.883a.88.88 0 0 0 .883.882v-.882-.883zm6.585 1.765c.487 0 .883-.395.883-.882s-.396-.883-.883-.883v.883.882zm6.585-1.765c-.488 0-.883.395-.883.883a.88.88 0 0 0 .883.882v-.882-.883zm6.585 1.765c.487 0 .883-.395.883-.882s-.396-.883-.883-.883v.883.882zm6.585-1.765c-.488 0-.883.395-.883.883a.88.88 0 0 0 .883.882v-.882-.883zm-144.872.883v.882h6.585v-.882-.883h-6.585v.883zm13.17 0v.882h6.585v-.882-.883h-6.585v.883zm13.17 0v.882h6.585v-.882-.883h-6.585v.883zm13.17 0v.882h6.586v-.882-.883h-6.586v.883zm13.171 0v.882h6.585v-.882-.883h-6.585v.883zm13.17 0v.882h6.585v-.882-.883h-6.585v.883zm13.17 0v.882h6.585v-.882-.883h-6.585v.883zm13.17 0v.882h6.585v-.882-.883h-6.585v.883zm13.17 0v.882h6.585v-.882-.883h-6.585v.883zm13.171 0v.882h6.585v-.882-.883h-6.585v.883zm13.17 0v.882h6.585v-.882-.883h-6.585v.883z"/></g><defs><linearGradient id="A" x1="192.568" y1="122.768" x2="192.568" y2="383.185" gradientUnits="userSpaceOnUse"><stop stop-color="#0072ff"/><stop offset="1" stop-color="#004294"/></linearGradient><linearGradient id="B" x1="127.89" y1="97.238" x2="127.89" y2="383.186" gradientUnits="userSpaceOnUse"><stop stop-color="#0171fc"/><stop offset="1" stop-color="#4b9cff"/></linearGradient></defs></svg>