<svg xmlns="http://www.w3.org/2000/svg" width="360" height="386" fill="none" xmlns:v="https://vecta.io/nano"><style><![CDATA[.B{fill:#fff}.C{fill:#ffa98f}.D{stroke:#0668e1}.E{fill:#0668e1}.F{fill:#ced8f2}.G{fill:#061728}.H{fill:#1b1c17}.I{fill:#ffb27d}.J{stroke-width:.168}.K{stroke-miterlimit:10}.L{fill:#3886e8}.M{stroke-width:.833}.N{stroke-width:.8}.O{fill:#0374ff}.P{fill:#071a22}]]></style><path d="M14.566 386c-13.082 0-17.352-5.216-12.81-15.649L135.303 65.205C140.935 52.402 149.475 46 160.922 46h38.156c11.447 0 19.987 6.402 25.619 19.205l133.547 305.146c4.542 10.433.272 15.649-12.81 15.649H302.1c-11.992 0-20.35-5.453-25.074-16.36l-27.8-63.779H110.774l-27.8 63.779C78.25 380.547 69.892 386 57.9 386H14.566zM136.12 247.06h87.76l-33.523-75.398c-3.998-8.851-6.451-15.253-7.359-19.205C181.139 149 181.139 149 180 146c-1.139 3-1.139 3-3.271 6.457-.726 3.952-3.088 10.354-7.086 19.205L136.12 247.06z" fill="#044aa0"/><path d="M50.41 386c-10.248 0-13.592-3.989-10.034-11.967l104.611-233.347c4.412-9.791 11.102-14.686 20.068-14.686h29.89c8.966 0 15.656 4.895 20.068 14.686l104.611 233.347c3.559 7.978.214 11.967-10.034 11.967h-33.945c-9.394 0-15.941-4.17-19.641-12.51l-21.777-48.773H125.773l-21.776 48.773C100.296 381.83 93.749 386 84.355 386H50.41zm95.218-106.248h68.744l-26.259-57.657c-3.131-6.769-5.053-11.665-5.765-14.686-1.456-2.644-1.456-2.644-2.348-4.938-.892 2.294-.892 2.294-2.562 4.938-.569 3.021-2.42 7.917-5.551 14.686l-26.259 57.657z" class="E"/><path d="M80.739 386c-7.849 0-10.411-3.068-7.686-9.205l80.128-179.498c3.379-7.531 8.503-11.297 15.371-11.297h22.894c6.868 0 11.992 3.766 15.371 11.297l80.128 179.498c2.726 6.137.164 9.205-7.685 9.205H253.26c-7.195 0-12.21-3.208-15.045-9.623l-16.679-37.518h-83.072l-16.679 37.518c-2.835 6.415-7.85 9.623-15.045 9.623H80.739zm72.933-81.729h52.656l-20.114-44.352c-2.398-5.207-3.87-8.972-4.415-11.297-1.115-2.034-1.115-2.034-1.799-3.798-.684 1.764-.684 1.764-1.962 3.798-.436 2.325-1.854 6.09-4.252 11.297l-20.114 44.352z" fill="#589aeb"/><g clip-path="url(#D)"><use href="#F" class="B"/><circle cx="179" cy="201" r="21" class="F"/><mask id="A" maskUnits="userSpaceOnUse" x="158" y="180" width="42" height="42" mask-type="alpha"><path d="M179 222c11.598 0 21-9.402 21-21s-9.402-21-21-21-21 9.402-21 21 9.402 21 21 21z" class="B"/></mask><g mask="url(#A)"><path d="M199.704 221.982c-2.033-5.752-5.922-13.754-7.426-14.593l-3.418 8.774c-.412-.756 1.419 2.729 2.94 5.819h7.904z" class="C"/><path d="M168.59 221.984h19.412l.647-2.612.008-.033.387-1.268 3.251-10.706c-2.168-2.284-10.08-4.24-10.08-4.24l-1.554-.16c-2.344-.243-4.2-.243-6.981.546-2.73.772-6.233 1.872-7.736 3.233-3.755 3.417 1.848 10.529 1.848 10.529.109.571.563 2.024.798 4.711z" fill="#0568e0"/><path d="M166.031 221.983l1.689-4.568-2.05-10.655c-1.554.873-5.443 9.32-7.291 15.223h7.652z" class="C"/><path d="M166.35 221.981l.319-1.133a5.22 5.22 0 0 0-.042 1.142h23.343l.538-2.049h.017l.756 2.057h7.711l.21-.076c.622-.21.941-.848.706-1.419-2.142-5.281-6.107-12.36-6.788-13.174-1.881-2.217-7.98-3.518-8.282-3.602-.882-.227-1.764-.437-2.663-.622-.638 1.386-2.049 3.493-2.864 5.341-1.437-1.94-3.486-4.106-4.049-5.341-.89.185-1.781.387-2.663.622-.302.075-6.401 1.377-8.282 3.602-.983 1.15-3.478 5.609-5.368 10.974-.126.395-.386 1.596-.949 3.678h8.35z" class="L"/><path d="M166.68 220.852c.016.008.033.008 0 0h0z" class="L"/><path d="M175.722 221.981c.462-6.415 2.142-13.493 2.167-13.594l-.143-.033c-.025.1-1.714 7.195-2.176 13.627h.152z" class="B"/><path d="M178.554 221.981c-.446-4.568-.042-13.619-.034-13.728l-.151-.009c-.017.445-.412 9.211.033 13.729h.152v.008z" class="B"/><path d="M178.328 208.799c3.206 0 5.804-1.647 5.804-3.678s-2.598-3.678-5.804-3.678-5.805 1.647-5.805 3.678 2.599 3.678 5.805 3.678z" class="L"/><path d="M183.95 204.098c.277 1.007.109 2.158-.58 2.938-.067.11-.185.185-.269.278-.101.084-.176.184-.294.251-.218.135-.42.303-.663.404-.236.109-.462.235-.723.293l-.369.118-.185.059-.193.033-.765.151-.781.084-.386.042c-.126.009-.261 0-.387 0l-.386-.008-.387-.034c-.52-.058-1.033-.159-1.537-.319a5.35 5.35 0 0 1-1.428-.655c.857.63 1.899.941 2.94 1.084l.395.042.395.008h.395l.394-.034.79-.075.781-.151.193-.042.194-.059.378-.118c.26-.067.495-.193.73-.31.252-.101.454-.277.681-.42.117-.067.201-.176.302-.26.093-.101.202-.177.277-.294.353-.412.546-.932.63-1.453a3.47 3.47 0 0 0-.142-1.553zm-10.911-.461c-.218.21-.386.462-.52.739a2.03 2.03 0 0 0-.21.89c0 .159.033.31.067.461.059.143.109.294.21.412.084.134.201.235.302.344.118.101.244.177.37.26-.219-.209-.437-.411-.58-.663a1.48 1.48 0 0 1-.227-.814c-.008-.286.068-.571.168-.848a3.55 3.55 0 0 1 .42-.781z" fill="#226cbc"/><path d="M181.62 198.74l-4.587-5.281-2.091 5.013.361 1.033-.42 3.669c1.629 2.905 6.056 2.544 6.753.781l-.016-5.215z" class="C"/><path d="M183.555 190.535c1.234 1.906 1.73 6.289-.076 9.438-.773 1.343-4.805 1.276-6.065.176-1.1-.957-2.923-6.65-1.495-8.296 1.411-1.654 6.325-4.089 7.636-1.318z" class="C"/><path d="M177.703 192.434c-.268-.126-.512-.277-.756-.436-.89-.597-1.73-1.344-2.259-2.242l-.151-.277-.32.159c-.932.537-1.596 1.461-1.755 2.469-.135.831-.244 2.208.63 3.073.411.411.831.865 1.008 1.402l.924 2.141 1.125-1.016c.395-.386.496-.831.782-1.276.739-1.125 1.117-2.653 1.318-3.745l-.546-.252z" class="G"/><path d="M177.66 195.812c-.277-.336-.63-.705-1.058-.688-.219.008-.412.134-.546.293-.689.815-.53 2.184.428 2.771.403.244.916.319 1.176-.142l.101-1.99c.025-.076-.042-.168-.101-.244z" class="C"/><path d="M181.692 200.977c-.034 0-2.982.294-4.477-1.202l.101-.084c1.453 1.445 4.334 1.168 4.359 1.16l.017.126zm-.262-3.989l-.008-.126.445-.033c.176-.017.336-.101.437-.244a.48.48 0 0 0 .067-.462l-.63-1.788.126-.042.63 1.788a.63.63 0 0 1-.084.571c-.126.168-.319.278-.538.294l-.445.042zm-1.251-2.689c.059.126.059.311.067.411.026.194-.193.303-.386.261-.361-.084-.336-.857.101-.832.109.009.176.076.218.16zm3.27-.067c.059.126.059.311.067.412.025.193-.193.302-.386.26-.362-.084-.336-.856.1-.831.118.008.177.067.219.159z" class="G"/><path d="M182.653 197.809l-2.688-.311s.269 1.504 1.31 1.596c1.21.118 1.378-1.285 1.378-1.285z" class="B"/><path d="M182.754 190.469l1.646 1.973s-.646-2.393-1.251-2.712-.395.739-.395.739zm-5.482 7.884c-.672.092-1.235-.462-1.26-.496l.101-.084c.008.009.697.689 1.394.378l.059.11a.85.85 0 0 1-.294.092z" class="G"/><path d="M175.521 188.211c-.941.252-1.352.394-1.781.697-.361.252-1.201 1.074-1.201 1.755-.008 1.2 2.528 2.25 4.796 2.241.429 0 1.269-.184 2.47-.545 2.646-.79 5.578-2.293 4.889-5.433 0 0-.378.647-.849.747 0 0 .622-2.04-1.831-3.081.135.059-.857 1.209-.924 1.259-.941.832-1.865 1.394-2.747 1.705-.848.294-.848.134-2.822.655z" class="G"/><path d="M178.859 193.361c.059-.143.177-.26.311-.353a1.11 1.11 0 0 1 .462-.176c.336-.059.706.05.907.294-.168 0-.31-.008-.453 0a2.96 2.96 0 0 0-.395.034l-.832.201zm3.688-.363c.017-.134.101-.244.201-.328.11-.084.252-.142.395-.151a.88.88 0 0 1 .42.076c.067.025.118.075.168.109a.66.66 0 0 1 .126.151c-.075.009-.134 0-.201 0-.059 0-.118-.008-.177-.008-.109-.009-.21 0-.302.008-.185.009-.361.059-.63.143z" class="G"/></g></g><use href="#G" class="D M"/><rect x="215.4" y="182.4" width="79.2" height="39.2" rx="19.6" class="B"/><rect x="215.4" y="182.4" width="79.2" height="39.2" rx="19.6" class="D N"/><path d="M236.586 198.34c.177 0 .331.051.462.154.14.093.233.229.28.406l2.8 9.1h-2.184l-1.974-7.112-.112-.462-.098-.476h-.378l-.098.476a3.62 3.62 0 0 1-.112.462L233.198 208h-2.184l2.8-9.1c.047-.177.135-.313.266-.406.14-.103.299-.154.476-.154h2.03zm1.484 5.502v1.596h-5.012v-1.596h5.012zm6.234-5.684c.476 0 .994.028 1.554.084.56.047 1.106.145 1.638.294l-.14 1.428-1.442-.042-1.624-.014-.672.028c-.177.019-.322.056-.434.112s-.191.149-.238.28c-.046.121-.07.289-.07.504 0 .327.075.565.224.714.159.149.425.285.798.406l1.862.602c.775.261 1.312.616 1.61 1.064s.448 1.036.448 1.764c0 .551-.065 1.008-.196 1.372a1.76 1.76 0 0 1-.616.854c-.28.205-.648.35-1.106.434-.457.093-1.017.14-1.68.14-.317 0-.77-.023-1.358-.07-.588-.037-1.255-.14-2.002-.308l.126-1.512 1.442.042 1.036.028h.756c.383 0 .677-.023.882-.07.215-.047.364-.14.448-.28s.126-.341.126-.602c0-.233-.032-.415-.098-.546-.056-.131-.154-.238-.294-.322s-.322-.159-.546-.224l-1.96-.672c-.746-.261-1.274-.611-1.582-1.05-.298-.439-.448-1.022-.448-1.75 0-.551.066-1.003.196-1.358.14-.355.35-.625.63-.812.28-.196.644-.331 1.092-.406.458-.075 1.004-.112 1.638-.112zm8.722.042c.905 0 1.614.093 2.128.28s.877.509 1.092.966c.224.448.336 1.087.336 1.918 0 .821-.108 1.461-.322 1.918-.206.448-.546.765-1.022.952-.476.177-1.12.266-1.932.266-.43 0-.85-.014-1.26-.042l-1.148-.14-.91-.182c-.243-.065-.416-.121-.518-.168l.042-1.064h1.708 1.764c.373-.009.667-.056.882-.14a.76.76 0 0 0 .448-.462c.084-.224.126-.537.126-.938 0-.42-.042-.742-.126-.966a.76.76 0 0 0-.448-.462c-.215-.084-.509-.126-.882-.126l-2.212.014-1.246.042-.196-1.526 1.092-.098 1.12-.028 1.484-.014zm-1.568.14V208h-2.128v-9.66h2.128zm8.654 0V208h-2.128v-9.66h2.128zm5.67-.14c.849 0 1.535.089 2.058.266.532.168.919.457 1.162.868.252.411.378.989.378 1.736 0 .448-.061.845-.182 1.19a1.65 1.65 0 0 1-.574.812c-.271.205-.64.336-1.106.392v.07c.168.028.34.093.518.196a1.72 1.72 0 0 1 .518.462c.158.196.275.462.35.798l.84 3.01h-2.24l-.742-2.954c-.094-.317-.22-.532-.378-.644-.159-.121-.388-.182-.686-.182l-1.596-.014a36.88 36.88 0 0 1-1.092-.014l-.798-.028.042-1.554h3.486c.382 0 .681-.037.896-.112.214-.084.368-.229.462-.434s.14-.495.14-.868-.047-.658-.14-.854-.248-.331-.462-.406c-.215-.084-.514-.126-.896-.126l-2.226.014-1.232.028-.21-1.512 1.092-.098 1.134-.028 1.484-.014zm-1.61.14V208h-2.1v-9.66h2.1zm8.952-.042l1.568.014 1.568.028 1.442.098-.098 1.554h-3.71c-.233 0-.41.061-.532.182-.112.112-.168.289-.168.532v4.928c0 .233.056.411.168.532.122.121.299.182.532.182h3.71l.098 1.554-1.442.084-1.568.028-1.568.014c-.616 0-1.115-.177-1.498-.532-.373-.355-.564-.821-.574-1.4v-5.852c.01-.588.201-1.059.574-1.414.383-.355.882-.532 1.498-.532zm-1.82 3.92h5.782v1.512h-5.782v-1.512z" class="E"/><g clip-path="url(#E)"><path d="M162.678 53.033c-9.763-9.763-9.763-25.592 0-35.355s25.592-9.763 35.355 0 9.763 25.592 0 35.355l-17.678 17.678-17.677-17.678z" class="B"/><circle cx="180" cy="35" r="21" class="F"/><mask id="B" maskUnits="userSpaceOnUse" x="159" y="14" width="42" height="42" mask-type="alpha"><circle cx="180" cy="35" r="21" class="F"/></mask><g mask="url(#B)"><path d="M184.452 26.094c.541-2.225-.244-3.262-.951-3.814-.336-.819-.719-1.409-1.11-1.632-.715-.406-1.571-.45-2.169-.415.154-.159.457-.217.457-.217-.371-.055-1.2.313-1.2.313-5.164-1.99-5.976 5.614-5.867 7.381s.093 3.847-2.594 5.239c-5.126 2.656 1.704 12.664 1.704 12.664-.131-1.428 6.457-8.961 9.893-11.218.837-1.232 1.134-3.407 1.156-3.579-.144 1.725-.439 2.693-.703 3.238 1.566-1.441 1.798-4.903 1.384-7.961z" class="H"/><path d="M182.41 34.508c.017.008-1.659.878-2.92.533-1.186-.324-1.962-1.861-1.945-1.865.502-.1.647-.79.636-3.757l.227.045 3.819.756-.09 2.334c-.002.951.055 1.852.273 1.953z" class="I"/><path d="M182.227 30.221l-.09 2.334c-2.137-.06-3.266-2.009-3.729-3.09l3.819.756z" fill="#ed975d"/><path d="M197.764 98.194a.94.94 0 0 1-.849 1.221l-1.492.07-1.578.048a1.27 1.27 0 0 1-1.022-.466c-1.26-1.545-5.138-6.697-7.49-14.181l-.21-.638c-1.553-4.53-4.774-10.215-6.471-15.362l-.73-2.322-.202-.69c-1.251-4.346-1.613-7.199-1.947-10.247l12.255.098s2.58 20.053 9.736 42.469z" fill="#2a4e96"/><path d="M186.31 48.685c-.031 5.832.855 8.334.855 8.334s-5.247 2.666-11.483.703c-.074-.023-5.164-1.185-5.164-1.185.104-.236 1.033-4.166 1.134-4.383 1.317-2.828 2.317-4.067 2.473-4.937.29-1.623.296-3.302.151-4.886-.38-4.192-1.512-7.673-1.512-7.673 1.699-.387 3.291-1.066 5.059-1.729.407.507 1.651 1.037 2.729 1.012 1.243-.027 1.645-.559 1.581-1.14l2.38 1.432c1.125 1.954 3.407 3.852 3.572 6.85.041.737-1.775 7.436-1.775 7.599z" class="B"/><path d="M175.772 49.334c-.536.758-1.563 5.367-4.118 5.946l2.473-5.734c.289-1.885.296-3.836.151-5.675l1.494-2.527c.067-.243 1.359-4.238 1.774-.667s-1.175 7.809-1.774 8.657z" fill="#5f9aa8"/><path d="M182.941 31.292s-5.055.083-5.059-3.066-.658-5.259 2.57-5.445 3.856 1.015 4.113 2.065-.309 6.343-1.624 6.446z" class="I"/><path d="M182.754 22.705s-1.384 3.694-3.508 4.241-3.046-.023-3.046-.023 1.629-1.294 1.967-3.554c0 0 3.543-2.422 4.587-.664z" class="H"/><path d="M182.413 23.005s1.034.825 1.286 1.627.365 2.453.846 2.396c0 0 1.043-2.511-.129-3.932-1.243-1.506-2.003-.092-2.003-.092z" class="H"/><path d="M190.894 52.732l2.387 7.28-1.362.546-3.948-6.432 2.923-1.394z" class="I"/><path d="M184.457 33.805s2.816 1.117 3.63 2.859 2.049 13.425 2.54 14.625l.861 2.15s-1.419 1.196-2.847 1.284-4.184-20.918-4.184-20.918z" class="O"/><path d="M182.133 32.803s2.925 7.226 3.011 8.688.344 23.913.344 23.913-.172 1.032 1.807.602 2.494-.86 2.494-.86-1.892-13.849-1.376-18.666-3.957-12.673-3.957-12.673l-2.323-1.004zm-4.556 32.172s-.746 2.695-3.326 2.351-6.25-1.892-6.25-1.892l2.473-8.062c1.661-5.542 3.716-12.687 4.684-17.193.272-1.263.458-2.317.526-3.073l2.141-4.154s3.193 7.164 3.365 8.971-3.613 23.053-3.613 23.053z" class="O"/><path d="M174.998 41.651l2.826-8.702c-.008.004-3.569 1.06-5.36 1.965 0 0-1.12 1.443-1.812 4.774 0 0-.732 7.996.902 10.92 0 0 5.161 1.032 13.419-1.806v-1.892l-10.882.688.907-5.946z" class="I"/><path d="M177.463 45.705c-.116 2.925-.804 8.602-6.94 11.641-.016.008-.032.016-.048.023 1.66-5.542 3.715-12.687 4.683-17.193 1.127 1.684 2.367 3.919 2.305 5.529z" class="E"/><path d="M177.826 32.949s-5.238.369-6.499 3.179-1.663 12.157-.058 14.91c0 0 2.211.63 6.121-.101l.144-.028s1.248-3.054.129-3.656c0 0-3.297.172-2.953-.918s3.116-13.386 3.116-13.386z" class="O"/><path d="M190.957 48.08l-.154.496-8.595-2.674s-.115-.131-.058-.304c.062-.192.212-.192.212-.192l8.595 2.674z" fill="#263238"/><path d="M191.578 48.551l-.621-.469-.155.496.776-.027z" fill="#263238"/><path d="M184.971 46.909s1.95-1.201 2.768-1.016 2.903 1.695 1.9 2.021-1.815-.016-2.2.221-.671.672-2.468.666 0-1.892 0-1.892z" class="I"/></g></g><path d="M162.973 17.973c9.6-9.6 25.165-9.6 34.765 0s9.601 25.165 0 34.766l-17.383 17.383-17.382-17.383c-9.601-9.6-9.601-25.165 0-34.766z" class="D M"/><rect x="216.4" y="16.4" width="88.2" height="39.2" rx="19.6" class="B"/><rect x="216.4" y="16.4" width="88.2" height="39.2" rx="19.6" class="D N"/><path d="M237.586 32.34c.177 0 .331.051.462.154.14.093.233.229.28.406l2.8 9.1h-2.184l-1.974-7.112-.112-.462-.098-.476h-.378l-.098.476c-.028.159-.065.313-.112.462L234.198 42h-2.184l2.8-9.1c.047-.177.135-.313.266-.406.14-.103.299-.154.476-.154h2.03zm1.484 5.502v1.596h-5.012v-1.596h5.012zm6.74-5.67l1.162.042a7.95 7.95 0 0 1 .896.098l.84.182-.168 1.582-.854-.042-.826-.028-1.05-.014c-.476 0-.849.098-1.12.294-.261.187-.448.509-.56.966s-.168 1.097-.168 1.918c0 .812.056 1.451.168 1.918.112.457.299.779.56.966.271.187.644.28 1.12.28l1.624-.028 1.302-.098.182 1.568c-.448.14-.905.238-1.372.294-.466.065-1.045.098-1.736.098-.998 0-1.796-.159-2.394-.476-.597-.327-1.031-.854-1.302-1.582-.261-.728-.392-1.708-.392-2.94s.131-2.212.392-2.94c.271-.728.705-1.251 1.302-1.568.598-.327 1.396-.49 2.394-.49zm6.607.168V42h-2.142v-9.66h2.142zm3.598 3.71v1.596h-3.71V36.05h3.71zm1.974-3.71V42h-2.128v-9.66h2.128zm4.094 0V42h-2.128v-9.66h2.128zm3.948-.042l1.568.014 1.568.028 1.442.098-.098 1.554h-3.71c-.234 0-.411.061-.532.182-.112.112-.168.289-.168.532v4.928c0 .233.056.411.168.532.121.121.298.182.532.182h3.71l.098 1.554-1.442.084-1.568.028-1.568.014c-.616 0-1.116-.177-1.498-.532-.374-.355-.565-.821-.574-1.4v-5.852c.009-.588.2-1.059.574-1.414.382-.355.882-.532 1.498-.532zm-1.82 3.92h5.782v1.512h-5.782v-1.512zm15.793-3.878l-2.632 9.072c-.046.168-.14.308-.28.42-.13.112-.289.168-.476.168h-1.96c-.186 0-.35-.056-.49-.168a.84.84 0 0 1-.266-.42l-2.632-9.072h2.198l1.764 6.972.112.546a5.3 5.3 0 0 1 .112.532h.364l.098-.546.14-.546 1.75-6.958h2.198zm3.075-.042l1.568.014 1.568.028 1.442.098-.098 1.554h-3.71c-.233 0-.41.061-.532.182-.112.112-.168.289-.168.532v4.928c0 .233.056.411.168.532.122.121.299.182.532.182h3.71l.098 1.554-1.442.084-1.568.028-1.568.014c-.616 0-1.115-.177-1.498-.532-.373-.355-.564-.821-.574-1.4v-5.852c.01-.588.201-1.059.574-1.414.383-.355.882-.532 1.498-.532zm-1.82 3.92h5.782v1.512h-5.782v-1.512z" class="E"/><use href="#G" x="2" y="-83" class="B"/><use href="#G" x="2" y="-83" class="D M"/><rect x="68.4" y="98.4" width="71.2" height="39.2" rx="19.6" class="B"/><rect x="68.4" y="98.4" width="71.2" height="39.2" rx="19.6" class="D N"/><path d="M85.586 114.34c.177 0 .331.051.462.154.14.093.233.229.28.406l2.8 9.1h-2.184l-1.974-7.112-.112-.462-.098-.476h-.378l-.098.476c-.028.159-.065.313-.112.462L82.198 124h-2.184l2.8-9.1c.047-.177.135-.313.266-.406.14-.103.299-.154.476-.154h2.03zm1.484 5.502v1.596h-5.012v-1.596h5.012zm5.157-5.502v7.224c0 .233.065.411.196.532s.317.182.56.182h3.374l.098 1.61-2.086.112-2.142.028c-.709 0-1.241-.187-1.596-.56s-.532-.854-.532-1.442v-7.686h2.128zm7.534 0V124h-2.128v-9.66h2.128zm5.936-.196l1.148.042a7.9 7.9 0 0 1 .98.112 7.38 7.38 0 0 1 .924.196l-.168 1.554-.952-.042-.924-.014-.966-.014c-.401 0-.737.042-1.008.126-.261.084-.471.243-.63.476s-.275.56-.35.98c-.065.42-.098.966-.098 1.638 0 .803.052 1.433.154 1.89s.276.784.518.98c.243.187.57.28.98.28.28 0 .537-.028.77-.084s.448-.131.644-.224l.546-.294.238 1.008c-.14.196-.35.406-.63.63-.27.224-.602.415-.994.574-.392.149-.84.224-1.344.224-.728 0-1.325-.173-1.792-.518s-.807-.887-1.022-1.624-.322-1.699-.322-2.884c0-1.26.136-2.254.406-2.982.28-.728.733-1.246 1.358-1.554.635-.317 1.48-.476 2.534-.476zm3.388 4.284V124h-1.568l-.294-1.47-.196-.392v-3.71h2.058zm9.876-4.088v8.89c0 .513-.256.77-.77.77h-1.176c-.233 0-.41-.051-.532-.154-.112-.112-.224-.275-.336-.49l-2.674-5.082-.336-.7-.266-.756h-.154l.07.756.028.756V124h-2.016v-8.89c0-.513.257-.77.77-.77h1.162c.224 0 .392.056.504.168.122.103.238.257.35.462l2.59 4.928.364.714.336.812h.168l-.056-.812-.028-.798v-5.474h2.002z" class="E"/><circle cx="181" cy="118" r="21" class="F"/><mask id="C" maskUnits="userSpaceOnUse" x="160" y="97" width="42" height="42" mask-type="alpha"><circle cx="181" cy="118" r="21" class="F"/></mask><g mask="url(#C)"><path d="M185.584 107.908s.98 2.048.085 4.263l-1.345-.223.141-3.223 1.119-.817z" class="P"/><path d="M192.173 123.067l-2.799 10.044-.333 1.192-.006.017c-.469 1.802-1.048 4.532-1.22 7.563-.116 2.068.265 10.377.265 10.377s-4.237 1.582-10.576 1.181c0 0-6.82-.158-6.263-4.339 1.472-11.067.031-15.627-.161-16.74l-1.588-9.877c1.918-.715 10.116-3.469 10.116-3.469l4.246.316c.003.003 6.455 1.593 8.319 3.735z" class="B"/><path d="M181.741 104.528s3.921.438 3.635 6.958c-.076 1.772-.036 2.992-.616 4.001-1.178 2.054-3.658 2.48-4.183 2.421-.509-.056-2.74-.63-3.294-2.059-.729-1.888-1.17-3.006-1.048-6.193.003 0 .429-5.753 5.506-5.128z" class="C"/><path d="M183.558 116.032s-.144 2.67.11 3.252-3.328 2.421-5.551.325c0 0 .449-3.207.311-4.238s5.13.661 5.13.661z" class="C"/><path d="M177.691 119.665s1.111 1.935 3.218 2.116c1.336.116 2.494-1.579 3.037-2.41 0 0-2.995-1.283-6.255.294z" class="C"/><path d="M180.911 121.057l1.212 1.398s-1.401.622-2.342.014l1.13-1.412z" fill="#05387d"/><path d="M183.95 119.371s-1.214 9.083-1.048 16.918 6.085 22.065 6.085 22.065 2.588-2.501 3.712-3.919c0 0-4.025-11.62-3.952-13.716s4.545-17.924 4.545-17.924-2.488-1.621-9.342-3.424zm-6.531.381l-.158 16.536c-.167 7.834-1.198 22.421-1.198 22.421s-5.791-.918-6.918-2.334c0 0 2.344-13.561 2.271-15.657s-3.771-17.516-3.771-17.516 2.152-1.416 9.774-3.45z" fill="#0745b4"/><path d="M180.46 122.15s-1.427 4.871-1.551 14.545.175 12.448.175 12.448l1.113 2.203 1.483-2.299-.2-26.727-1.02-.17z" fill="#05387d"/><path d="M187.094 152.971a12.85 12.85 0 0 0 3.977 2.241s7.831-12.621 7.927-13.528c.09-.836-3.952-17.81-5.715-18.889l-3.203 9.38c.212-.062 3.101 7.204 3.116 8.128.019 1.24-6.102 12.668-6.102 12.668zm-19.862 6.749s-1.729.322-4.232.181l.404-17.056c-.09-.836 2.477-18.565 4.24-19.644l3.144 9.476c-.212-.062-1.788 9.739-1.802 10.662-.017 1.244-1.754 16.381-1.754 16.381z" fill="#0745b4"/><path d="M176.833 142.939l-1.231-9.366 1.121-1.345-1.457-.113 1.68-11.439m7.066 21.59l.899-8.694-1.122-.615 1.065-.786-.672-12.171" stroke="#0a1726" class="J K"/><path d="M178.2 119.018s1.08 1.35 2.712 2.039l-1.867 2.385-2.393-3.515 1.548-.909z" fill="#6aa8e5"/><path d="M183.563 118.758s-.848 1.11-2.653 2.297l1.769 2.031 2.44-3.458-1.556-.87z" fill="#6aa8e5"/><path d="M177.325 108.109l.373-.142c.375-.101.771-.203 1.147-.118.319.07.613.271.94.24.399-.037.701-.41.839-.791.116-.319.238-.735.568-.769.449-.045.582.676 1.011.808.145.046.3.014.45.003.333-.025.686.023.974.198.235.141.39.387.455.655.093.387.274.571.641.786.63.367 1.263.053 1.707-.492l.073-.099c.412-.596.362-1.486-.155-1.972l-.534-.477c-.489-.472-.548-1.252-.949-1.803-.746-1.025-2.173-.562-3.235-.751l-1.525-.305c-.797-.13-1.636-.13-2.402.155-1.296.48-1.734 1.413-2.11 2.752s-2.226 2.458.571 6.311l.76-.081c.003 0-.76-3.687.401-4.108z" class="P"/><path d="M176.191 110.952s-1.305-.127-1.079 1.457 1.78 1.164 1.78 1.164l-.701-2.621zm9.283-.672s1.305-.127 1.079 1.458-1.78 1.164-1.78 1.164l.701-2.622z" class="C"/><path d="M185.066 108.935s.294 1.808-.043 2.735l.464.084.265-1.695c.017-.333-.141-1.33-.141-1.33l-.545.206z" class="P"/><path d="M178.023 109.015a4.91 4.91 0 0 1 2.152-.071l.034-.172a5.12 5.12 0 0 0-2.229.071l.043.172zm4.101.185a4.91 4.91 0 0 1 2.144.195l.054-.166a5.07 5.07 0 0 0-2.22-.201l.022.172z" class="H"/><path d="M179.766 114.446l2.762-.008s-.014 1.197-1.443 1.147c-.398-.015-1.221-.342-1.319-1.139z" fill="#e5f4f6"/><path d="M181.032 113.398c-.13.003-.249-.003-.342-.079-.153-.121-.144-.347-.125-.506l.046-.381.245-1.76.127.034c-.079.305-.177 1.169-.242 1.743l-.046.384c-.017.127-.025.305.077.387.056.045.135.054.237.048.311-.011.619-.065.915-.164l.043.125a3.31 3.31 0 0 1-.935.169zm-1.617-2.182c.014.24-.121.446-.302.463s-.336-.164-.35-.404.121-.446.302-.463.336.164.35.404zm3.942 0c.014.24-.122.446-.303.463s-.336-.164-.35-.404.122-.446.302-.463.339.164.351.404z" class="H"/><path d="M179.114 113.003c.692 0 1.254-.678 1.254-1.514s-.562-1.514-1.254-1.514-1.255.678-1.255 1.514.562 1.514 1.255 1.514zm3.949-.037c.693 0 1.254-.678 1.254-1.514s-.561-1.514-1.254-1.514-1.254.677-1.254 1.514.561 1.514 1.254 1.514z" stroke="#183862" class="J K"/><path d="M180.391 111.172l1.384-.02m-3.95.116l-1.231-.375m7.687.338l1.003-.526" stroke="#183862" class="J K"/><path d="M179.305 117.363s1.514 1.142 3.494.037" stroke="#1b1c17" class="J K"/></g><defs><clipPath id="D"><path d="M161.678 219.033c-9.763-9.763-9.763-25.592 0-35.355s25.592-9.763 35.355 0 9.763 25.592 0 35.355l-17.678 17.678-17.677-17.678z" class="B"/></clipPath><clipPath id="E"><path d="M162.678 53.033c-9.763-9.763-9.763-25.592 0-35.355s25.592-9.763 35.355 0 9.763 25.592 0 35.355l-17.678 17.678-17.677-17.678z" class="B"/></clipPath><path id="F" d="M161.678 219.033c-9.763-9.763-9.763-25.592 0-35.355s25.592-9.763 35.355 0 9.763 25.592 0 35.355l-17.678 17.678-17.677-17.678z"/><path id="G" d="M161.973 183.973c9.6-9.601 25.165-9.601 34.765 0s9.601 25.165 0 34.765l-17.383 17.383-17.382-17.383c-9.601-9.6-9.601-25.165 0-34.765z"/></defs></svg>