<svg xmlns="http://www.w3.org/2000/svg" width="328" height="180" fill="none" xmlns:v="https://vecta.io/nano"><rect x=".5" y=".5" width="327" height="179" rx="15.5" fill="url(#A)"/><rect x=".5" y=".5" width="327" height="179" rx="15.5" stroke="#0668e1"/><g fill="#8cb4f4"><path d="M244.157 178.097l-.078-.002c-.636-.011-1.127-.531-1.067-1.129l4.241-42.37 3.7.33-6.089 42.598c-.047.333-.352.579-.707.573z"/><use href="#E"/><use href="#F"/><use href="#G"/><use href="#G" x="-4.551"/><path d="M281.629 135.215h-57.435c-1.154 0-2.098-.944-2.098-2.099v-2.584c0-1.155.944-2.099 2.098-2.099h59.533v4.683c0 1.155-.945 2.099-2.098 2.099z"/><path d="M254.673 135.215H218.06c-.93 0-1.69-.76-1.69-1.69v-3.401c0-.93.76-1.691 1.69-1.691h36.613c.93 0 1.69.76 1.69 1.691v3.401c0 .93-.76 1.69-1.69 1.69z"/></g><path d="M233.691 120.65c3.107 5.411 7.015 7.499 7.015 7.499h16.259s-25.644-11.626-23.274-7.499z" fill="#233862"/><path d="M213.64 174.402c.176 1.706-2.197 2.147-4.949 2.314s-1.913.722-5.679 1.446-5.289-.292-5.568-.8c-.248-.449 1.499-1.176 3.36-1.996l.703-.313c2.094-.948 3.254-2.849 4.876-4.617 1.536-1.674 2.955-6.998 2.955-6.998l5.115-1.151-1.866 6.838c-.281 1.203.167 2.539.563 3.556.213.553.429 1.119.49 1.721z" fill="#ffb27d"/><path d="M208.691 176.716c-2.752.166-1.914.722-5.68 1.446s-5.289-.293-5.567-.8c-.248-.45 1.498-1.176 3.359-1.996l.03.031a10.74 10.74 0 0 0 5.716.007c2.488-.705 4.886-2.223 6.6-2.723.213.553.429 1.119.49 1.72.176 1.707-2.197 2.148-4.948 2.315z" fill="#0f2549"/><path d="M221.387 115.107c2.753-1.933 20.961-5.381 30.253-6.378l10.271-8.919s8.742 12.954 8.811 22.864c.033 4.621-2.095 5.08-2.095 5.081l-34.368.393c-2.362.244-5.478 6.132-6.257 11.494s-14.508 27.174-14.508 27.174-2.863.917-4.187.84c-1.424-.084-2.083-.561-2.083-.561s7.955-47.626 14.163-51.988z" fill="#233862"/><path d="M222.155 174.402c.176 1.706-2.196 2.147-4.948 2.314s-1.914.722-5.679 1.446-5.289-.292-5.568-.8c-.248-.449 1.499-1.176 3.36-1.996l.703-.313c2.094-.948 3.254-2.849 4.876-4.617 1.536-1.674 2.954-6.998 2.954-6.998l5.116-1.151-1.867 6.838c-.281 1.203.167 2.539.563 3.556.214.553.429 1.119.49 1.721z" fill="#ffb27d"/><path d="M217.206 176.716c-2.752.166-1.913.722-5.679 1.446s-5.289-.293-5.567-.8c-.249-.45 1.498-1.176 3.359-1.996l.029.031s2.663.873 5.716.007c2.489-.705 4.886-2.223 6.601-2.723.213.553.429 1.119.49 1.72.176 1.707-2.197 2.148-4.949 2.315z" fill="#233862"/><path d="M229.981 115.107c2.391-1.679 9.584-2.982 17.523-3.949 2.195-.267 3.998-1.864 4.534-4.01l18.467-7.338s8.742 12.954 8.811 22.864c.032 4.621-2.095 5.08-2.096 5.081l-34.367.393c-2.362.244-5.478 6.132-6.257 11.494s-14.508 27.174-14.508 27.174-2.863.917-4.187.84c-1.424-.084-2.084-.561-2.084-.561s7.956-47.626 14.164-51.988z" fill="#2b478b"/><path d="M274.897 55.917s-1.671 2.785-1.906 4.924 6.178 8.194.954 12.419-24.872 2.635-25.537-3.347 5.504-9.264 5.595-13.618c.183-8.735 2.38-7.568 3.535-9.333s6.326-.758 6.515-.442 10.844 9.396 10.844 9.396v.002z" fill="#000"/><path d="M260.759 46.407c6.613-2.743 14.293 4.02 11.732 10.302-1.45 3.56-4.062 5.66-6.855 6.704l.919 4.364s-1.484 3.317-5.294 3.744c-3.321.372-4.434-1.874-4.434-1.874l1.946-5.601c-1.476-.276-2.708-.823-3.47-1.547-3.062-2.909 2.096-14.7 5.454-16.094l.002.002z" fill="url(#B)"/><g fill="#000"><path d="M261.691 47.72s-.815 2.611.601 5.471c2.428 4.903 10.34 6.176 10.34 6.176s4.709-4.121 2.018-10.427-11.375-8.073-12.961-4.205c0 0-3.512-2.039-4.149 2.229 0 0 1.439 2.334 4.149.758l.002-.002z"/><path d="M266.701 54.815c1.934 3.594-1.611 6.027-1.07 8.6l1.362.577c.171 0 3.45-1.681 3.45-1.681l1.092-1.517.379-3.36-.925-2.419"/></g><path d="M268.47 57.684s1.214-1.355 2.316-.316c.898.848.16 3.002-1.818 3.566-.676.193-1.24-.171-.955-.854.24-.577.422-1.587.457-2.397z" fill="url(#C)"/><path d="M258.772 64.047s3.099.239 5.263-1.318c0 0-1.892 3.614-6.022 3.498l.759-2.182v.002z" fill="url(#D)" style="mix-blend-mode:multiply"/><g fill="#0374ff"><path d="M248.436 87.565c.297 19.88.081 15.726 2.255 17.612.524.454 1.996.725 3.934.853 6.093.404 16.803-.6 17.211-1.726 1.405-3.898.413-5.109 1.585-11.077a52.21 52.21 0 0 1 .451-2.07c.978-4.099 1.929-5.493-1.539-12.078-3.145-5.965-6.844-10.81-7.138-10.635-8.298 4.928-8.583.797-8.583.797s-8.322 8.627-8.176 18.324z"/><path d="M256.613 69.241s-8.493 1.44-9.495 5.118l-6.904 25.301s4.341.78 6.347-1.226 6.977-18.614 6.977-18.614l3.075-10.58z"/></g><path d="M254.625 106.03c6.093.404 16.804-.6 17.211-1.726 1.405-3.898.413-5.109 1.586-11.077l-2.939-8.279s.486 9.219-2.232 11.644-11.126 4.681-12.447 6.707c-.637.973-1.056 1.948-1.179 2.731z" fill="#fff" fill-opacity=".1"/><path d="M261.605 102.152s-6.011-1.339-6.98-.806-3.341 2.478-3.638 3.154 2.16-.513 2.959-.728c.517-.139 1.879.335 2.553.56 2.837.946 4.575.459 4.575.459l.531-2.639z" fill="#ffb27d"/><path d="M265.193 68.443s8.508.497 11.302 4.396c3.933 5.488 11.735 28.877 7.264 31.997-5.036 3.513-22.919.919-22.919.919s-.595-2.783.233-4.129 14.283-3.521 14.904-4.142-7.762-12.116-7.762-13.979-3.022-15.062-3.022-15.062z" fill="#0374ff"/><path d="M254.332 103.021s-1.259 1.625-1.672 1.819-.68.145-.68.145l.849-1.528 1.503-.436zm.293-1.674l-3.662 1.779s.156.255.607.234 1.588-.437 1.588-.437l1.467-1.576z" fill="#ffb27d"/><g fill="#9cbdff"><path d="M241.134 105.564h17.007c0-.749-.607-1.356-1.356-1.356h-15.651v1.356z"/><path d="M241.183 87.033h-26.294l6.307 18.531h26.464l-6.477-18.531z"/></g><path d="M214.502 87.033l6.307 18.531h26.464l-6.477-18.531h-26.294z" fill="#bed4ff"/><path d="M228.681 96.128c.163.708.869 1.282 1.577 1.282s1.149-.574.985-1.282-.869-1.282-1.577-1.282-1.149.574-.985 1.282z" fill="#fff"/><g fill="#182d4f"><path d="M256.74 109H91.26c-.696 0-1.26-.377-1.26-.842v-2.316c0-.465.564-.842 1.26-.842h165.48c.696 0 1.26.377 1.26.842v2.316c0 .465-.564.842-1.26.842z"/><path d="M115.971 178.407l-.049-.006a1.06 1.06 0 0 1-.934-1.177l10.268-69.538 3.76.107-12.082 69.915c-.077.448-.502.756-.963.699zm121.908 0l.05-.006c.59-.073 1.008-.6.933-1.177l-10.268-69.538-3.759.107 12.081 69.915c.078.448.503.756.963.699zm-23.773 0l.049-.006c.591-.073 1.009-.6.934-1.177l-10.268-69.538-3.759.107 12.081 69.915c.077.448.502.756.963.699z"/></g><path d="M20.393 179h287.214c.216 0 .393-.16.393-.355v-.29c0-.195-.177-.355-.393-.355H20.393c-.216 0-.393.16-.393.355v.29c0 .195.177.355.393.355z" fill="#2e3552"/><g fill="#233862"><use href="#H"/><path d="M67.929 112.111c.736 0 34.903 6.418 40.555 13.418 2.823 3.496 3.243 43.877 3.243 43.877s-3.493 4.333-11.037 1.817c0 0-5.531-27.628-5.123-36.008.113-2.317-23.345-.335-27.638-1.447s-14.784-10.456-12.472-15.008 12.472-6.649 12.472-6.649z"/></g><path d="M108.337 102.223s6.892.093 8.522.792 4.936 2.303 4.052 2.549-5.107-.102-6.019.038-2.038-.038-2.597-.038h-3.165l-.793-3.341zm8.058-16.547s2.35-1.68 4.632-2.006c1.301-.186 2.567-.418 3.332-.688 2.105-.742 6.318-4.532 5.999-4.977-1.022-1.425-5.94 1.59-6.798 1.267s1.65-2.108.777-2.736c-.456-.328-1.522 1.315-2.393 1.48-1.179.223-2.101 1.889-2.455 1.976-.691.169-3.717 2.421-3.717 2.421l.623 3.263z" fill="#ffa9a9"/><path d="M71.335 66.058s5.246 1.627 10.415 15.868 7.132 15.01 9.011 15.569 18.371 3.843 18.371 3.843v4.227H83.721s-9.529-9.069-12.385-15.174 0-24.333 0-24.333z" fill="#2b6af0"/><use href="#H" x="9.008" fill="#1b3051"/><path d="M77.999 112.111c.736 0 34.903 6.418 40.555 13.418 2.823 3.496 3.243 43.877 3.243 43.877s-3.493 4.333-11.037 1.817c0 0-5.531-27.628-5.122-36.008.113-2.317-23.345-.335-27.639-1.447s-14.784-10.456-12.472-15.008 12.472-6.649 12.472-6.649z" fill="#2b478b"/><path d="M75.862 70.571c-2.458-.203-5.035-.858-7.262-1.582-2.784-.904-5.029-2.225-3.582-4.771 1.333-2.346 3.49-7.588 3.344-11.93l5.181 4.177 3.519 2.837s-.015 1.673-.399 4.604l-.25 1.728c-.078.498.15.995.579 1.261l.079.05c1.749 1.099.849 3.797-1.209 3.627z" fill="#ffa9a9"/><path d="M77.061 58.612s.18.607-.129 2.85c-3.137-.512-6.071-3.016-6.071-3.016 1.597-.439 2.178-2.166 3.368-2.005l2.832 2.17z" fill="#fe8c8c"/><path d="M79.962 59.123s-12.069 2.006-13.202-5.533-3.454-12.357 4.204-13.956 9.591 1.051 10.581 3.476 1.527 15.297-1.583 16.013z" fill="#ffa9a9"/><path d="M83.321 39.774c.518 1.815-.869 4.027-3.197 4.754-3.456 1.081-2.692 5.322-4.248 5.264s-2.183-2.438-3.572-.536c-1.185 1.622.986 3.545.837 4.435-.257 1.527-2.648 4.652-4.802 4.495s-6.187-10.402-5.38-13.572 4.032-6.512 7.085-6.973 7.293.858 8.272.858 4.725.294 5.005 1.275z" fill="#211a35"/><g fill="#5188ff"><path d="M55.297 76.52c1.744-7.024 6.566-14.395 9.826-14.388 5.555.011 13.54 1.477 16.765 9.435 2.375 5.861 5.542 39.574 1.962 41.971-8.183 5.481-27.152 16.67-30.521 5.26-3.088-10.455-1.059-30.086 1.969-42.277z"/><path d="M68.787 69.531c1.585-4.124 6.696-5.55 10.182-2.837 1.885 1.467 4.194 3.557 6.983 6.528 10.367 11.045 12.473 10.976 14.42 10.748s18.397-3.721 18.397-3.721.842.622 1.338 1.627c.662 1.342.329 2.257.329 2.257.644-.417-5.831 4.049-9.054 5.83-4.257 2.351-10.671 4.556-13.225 5.393a3.41 3.41 0 0 1-2.222-.033c-3.791-1.367-16.524-6.35-26.89-14.995-2.731-2.278-1.728-6.972-.258-10.796z"/></g><path d="M64.561 62.2l1.258-2.835s11.257.919 13.15 7.329c0 0-8.726-4.357-14.407-4.494z" fill="#fff"/><g fill="#8cb4f4"><use href="#F" x="-177.008"/><path d="M59.059 178.097l-.078-.002c-.636-.011-1.127-.531-1.067-1.129l4.24-42.37 3.7.33-6.089 42.598c-.048.333-.352.579-.707.573z"/></g><use href="#E" x="-184.953" fill="#73a2e5"/><path d="M38.432 128.594l-4.025-35.388c-.528-5.1 1.178-10.093 8.534-10.48l12.941-.789c7.67-.317 11.133 6.07 12.104 10.986l7.682 38.901-37.236-3.23z" fill="#8cb4f4"/><path d="M40.592 135.215h57.435c1.154 0 2.098-.944 2.098-2.099v-2.584c0-1.155-.944-2.099-2.098-2.099H38.494v4.683c0 1.155.944 2.099 2.098 2.099z" fill="#73a2e5"/><path d="M40.126 135.215h33.913c.896 0 1.629-.733 1.629-1.63v-3.522c0-.897-.733-1.63-1.629-1.63H38.496v5.152c0 .897.733 1.63 1.63 1.63z" fill="#8cb4f4"/><path d="M1 150h326v13c0 8.837-7.163 16-16 16H17c-8.837 0-16-7.163-16-16v-13z" fill="#fff"/><path d="M70.148 170.692c-.981 0-1.835-.213-2.56-.64-.715-.427-1.269-1.061-1.664-1.904-.395-.853-.592-1.904-.592-3.152 0-1.259.197-2.32.592-3.184.395-.875.949-1.536 1.664-1.984.725-.459 1.579-.688 2.56-.688.992 0 1.819.213 2.48.64.672.427 1.205 1.072 1.6 1.936l-1.808.96c-.16-.501-.421-.901-.784-1.2-.363-.309-.859-.464-1.488-.464-.789 0-1.419.267-1.888.8-.459.533-.688 1.28-.688 2.24v1.76c0 .949.229 1.691.688 2.224.469.523 1.099.784 1.888.784.629 0 1.141-.171 1.536-.512s.688-.763.88-1.264l1.712 1.008c-.395.832-.933 1.483-1.616 1.952-.683.459-1.52.688-2.512.688zm13.082-.192h-1.136c-.309 0-.587-.069-.832-.208-.235-.149-.421-.363-.56-.64-.128-.277-.192-.603-.192-.976v-.176l.512.56h-.576c-.139.533-.427.939-.864 1.216-.427.277-.949.416-1.568.416-.853 0-1.509-.224-1.968-.672-.459-.459-.688-1.056-.688-1.792 0-.576.139-1.051.416-1.424.288-.373.699-.656 1.232-.848s1.173-.288 1.92-.288h1.424v-.608c0-.459-.123-.816-.368-1.072-.245-.267-.64-.4-1.184-.4-.48 0-.869.107-1.168.32a3.02 3.02 0 0 0-.736.736l-1.216-1.088c.309-.48.72-.864 1.232-1.152.512-.299 1.189-.448 2.032-.448 1.12 0 1.973.261 2.56.784.597.512.896 1.243.896 2.192v3.936h.832v1.632zm-2.88-3.6h-1.312c-.533 0-.933.091-1.2.272-.267.171-.4.421-.4.752v.272c0 .331.112.581.336.752s.533.256.928.256c.309 0 .587-.043.832-.128a1.42 1.42 0 0 0 .592-.416c.149-.181.224-.4.224-.656V166.9zm6.586 3.6h-2.048v-8.352h2.048v1.392h.08c.171-.448.437-.821.8-1.12.373-.309.885-.464 1.536-.464.853 0 1.509.288 1.968.864.469.565.704 1.365.704 2.4v5.28h-2.048v-5.072c0-.587-.107-1.029-.32-1.328-.213-.309-.565-.464-1.056-.464-.277 0-.544.053-.8.16-.256.096-.464.245-.624.448-.16.192-.24.437-.24.736v5.52zm12.542 0v-1.392h-.08c-.149.48-.432.864-.848 1.152s-.901.432-1.456.432c-.693 0-1.285-.171-1.776-.512-.48-.341-.848-.837-1.104-1.488-.256-.661-.384-1.456-.384-2.384s.128-1.712.384-2.352c.256-.651.624-1.147 1.104-1.488.491-.341 1.083-.512 1.776-.512.555 0 1.04.144 1.456.432.427.277.709.656.848 1.136h.08v-4.864h2.048v11.84h-2.048zm-1.728-1.504c.331 0 .624-.053.88-.16.267-.107.475-.261.624-.464s.224-.448.224-.736v-2.656c0-.267-.075-.501-.224-.704s-.357-.357-.624-.464c-.256-.117-.549-.176-.88-.176-.523 0-.949.181-1.28.544-.331.352-.496.827-.496 1.424v1.44c0 .587.165 1.061.496 1.424.331.352.757.528 1.28.528zm7.162-8.064c-.416 0-.72-.096-.912-.288a1.03 1.03 0 0 1-.288-.736v-.32c0-.299.096-.544.288-.736s.496-.288.912-.288.72.096.912.288.288.437.288.736v.32a1.03 1.03 0 0 1-.288.736c-.192.192-.496.288-.912.288zm-1.024 9.568v-8.352h2.048v8.352h-2.048zm9.59 0v-1.392h-.08c-.149.48-.432.864-.848 1.152s-.901.432-1.456.432c-.693 0-1.285-.171-1.776-.512-.48-.341-.848-.837-1.104-1.488-.256-.661-.384-1.456-.384-2.384s.128-1.712.384-2.352c.256-.651.624-1.147 1.104-1.488.491-.341 1.083-.512 1.776-.512.555 0 1.04.144 1.456.432.427.277.71.656.848 1.136h.08v-4.864h2.048v11.84h-2.048zm-1.728-1.504c.331 0 .624-.053.88-.16.267-.107.475-.261.624-.464s.224-.448.224-.736v-2.656a1.15 1.15 0 0 0-.224-.704c-.149-.203-.357-.357-.624-.464-.256-.117-.549-.176-.88-.176-.522 0-.949.181-1.28.544-.33.352-.496.827-.496 1.424v1.44c0 .587.166 1.061.496 1.424.331.352.758.528 1.28.528zm13.418 1.504h-1.136c-.309 0-.587-.069-.832-.208-.235-.149-.421-.363-.56-.64-.128-.277-.192-.603-.192-.976v-.176l.512.56h-.576c-.139.533-.427.939-.864 1.216-.427.277-.949.416-1.568.416-.853 0-1.509-.224-1.968-.672-.459-.459-.688-1.056-.688-1.792 0-.576.139-1.051.416-1.424.288-.373.699-.656 1.232-.848s1.173-.288 1.92-.288h1.424v-.608c0-.459-.123-.816-.368-1.072-.245-.267-.64-.4-1.184-.4-.48 0-.869.107-1.168.32-.288.203-.533.448-.736.736l-1.216-1.088c.309-.48.72-.864 1.232-1.152.512-.299 1.189-.448 2.032-.448 1.12 0 1.973.261 2.56.784.597.512.896 1.243.896 2.192v3.936h.832v1.632zm-2.88-3.6h-1.312c-.533 0-.933.091-1.2.272-.267.171-.4.421-.4.752v.272c0 .331.112.581.336.752s.533.256.928.256c.309 0 .587-.043.832-.128a1.42 1.42 0 0 0 .592-.416 1 1 0 0 0 .224-.656V166.9zm8.555 3.6h-1.472c-.704 0-1.243-.181-1.616-.544-.363-.373-.544-.901-.544-1.584v-4.608h-1.232v-1.616h.64c.309 0 .517-.069.624-.208.117-.149.176-.368.176-.656v-1.424h1.84v2.288h1.712v1.616h-1.712v5.104h1.584v1.632zm5.218.192c-.821 0-1.525-.176-2.112-.528-.587-.363-1.04-.869-1.36-1.52-.309-.661-.464-1.44-.464-2.336 0-.875.155-1.637.464-2.288.309-.661.752-1.168 1.328-1.52.576-.363 1.269-.544 2.08-.544.875 0 1.589.192 2.144.576.565.384.981.896 1.248 1.536.277.629.416 1.328.416 2.096v.672h-5.552v.208c0 .597.171 1.083.512 1.456s.848.56 1.52.56c.501 0 .917-.107 1.248-.32.331-.224.624-.496.88-.816l1.104 1.232c-.341.459-.811.832-1.408 1.12-.587.277-1.269.416-2.048.416zm-.032-7.2a1.71 1.71 0 0 0-.944.256c-.267.16-.475.389-.624.688-.139.288-.208.624-.208 1.008v.128h3.424v-.144c0-.395-.064-.731-.192-1.008-.128-.288-.315-.512-.56-.672-.245-.171-.544-.256-.896-.256z" fill="#2c2c2c"/><path d="M169.501 164h9.722m-3.612-3l3.889 3-3.889 3m-10.112-3h-9.722m3.612-3l-3.889 3 3.889 3" stroke="#0668e1" stroke-width="1.25" stroke-linecap="round" stroke-linejoin="round"/><path d="M201.172 170.5h-7.36v-11.168h7.36v1.872h-5.248v2.72h4.64v1.856h-4.64v2.848h5.248v1.872zm4.154 0h-2.048v-8.352h2.048v1.392h.08c.16-.437.416-.811.768-1.12.362-.309.853-.464 1.472-.464.576 0 1.072.139 1.488.416.426.277.736.699.928 1.264h.032c.149-.459.448-.853.896-1.184s1.002-.496 1.664-.496c.81 0 1.44.288 1.888.864.448.565.672 1.365.672 2.4v5.28h-2.048v-5.072c0-.597-.112-1.045-.336-1.344-.214-.299-.55-.448-1.008-.448a1.9 1.9 0 0 0-.768.16 1.32 1.32 0 0 0-.576.448c-.139.192-.208.437-.208.736v5.52h-2.048v-5.072c0-.597-.112-1.045-.336-1.344s-.56-.448-1.008-.448a1.86 1.86 0 0 0-.752.16 1.32 1.32 0 0 0-.576.448c-.15.192-.224.437-.224.736v5.52zm12.155 3.2v-11.552h2.048v1.376h.064a2.06 2.06 0 0 1 .848-1.136c.427-.288.912-.432 1.456-.432.715 0 1.312.171 1.792.512s.848.837 1.104 1.488c.256.64.384 1.424.384 2.352s-.128 1.723-.384 2.384c-.256.651-.624 1.147-1.104 1.488s-1.077.512-1.792.512c-.544 0-1.024-.144-1.44-.432a2.22 2.22 0 0 1-.864-1.152h-.064v4.592h-2.048zm3.76-4.704c.533 0 .965-.176 1.296-.528.331-.363.496-.837.496-1.424v-1.44c0-.597-.165-1.072-.496-1.424-.331-.363-.763-.544-1.296-.544-.32 0-.613.059-.88.176-.256.107-.459.261-.608.464s-.224.437-.224.704v2.656c0 .288.075.533.224.736s.352.357.608.464c.267.107.56.16.88.16zm8.986 1.504h-1.104c-.694 0-1.211-.176-1.552-.528-.331-.352-.496-.848-.496-1.488v-9.824h2.048v10.208h1.104v1.632zm4.863.192c-.79 0-1.478-.176-2.064-.528-.576-.363-1.024-.869-1.344-1.52-.31-.661-.464-1.44-.464-2.336s.154-1.664.464-2.304c.32-.651.768-1.152 1.344-1.504.586-.363 1.274-.544 2.064-.544.8 0 1.488.181 2.064.544.586.352 1.034.853 1.344 1.504.32.64.48 1.408.48 2.304s-.16 1.675-.48 2.336c-.31.651-.758 1.157-1.344 1.52-.576.352-1.264.528-2.064.528zm0-1.648c.544 0 .97-.165 1.28-.496.309-.341.464-.827.464-1.456v-1.552c0-.629-.155-1.109-.464-1.44s-.736-.496-1.28-.496c-.523 0-.944.165-1.264.496-.31.331-.464.811-.464 1.44v1.552c0 .629.154 1.115.464 1.456.32.331.741.496 1.264.496zm9.227-2.48l1.456-4.416h1.92l-3.36 9.84c-.139.395-.304.72-.496.976a1.65 1.65 0 0 1-.752.56c-.299.117-.678.176-1.136.176h-1.232v-1.632h1.504l.384-1.168-2.992-8.752h2.032l1.456 4.416.544 2.112h.096l.576-2.112zm7.993 4.128c-.821 0-1.525-.176-2.112-.528-.587-.363-1.04-.869-1.36-1.52-.309-.661-.464-1.44-.464-2.336 0-.875.155-1.637.464-2.288.309-.661.752-1.168 1.328-1.52.576-.363 1.269-.544 2.08-.544.875 0 1.589.192 2.144.576.565.384.981.896 1.248 1.536.277.629.416 1.328.416 2.096v.672h-5.552v.208c0 .597.171 1.083.512 1.456s.848.56 1.52.56c.501 0 .917-.107 1.248-.32.331-.224.624-.496.88-.816l1.104 1.232c-.341.459-.811.832-1.408 1.12-.587.277-1.269.416-2.048.416zm-.032-7.2a1.71 1.71 0 0 0-.944.256c-.267.16-.475.389-.624.688-.139.288-.208.624-.208 1.008v.128h3.424v-.144c0-.395-.064-.731-.192-1.008-.128-.288-.315-.512-.56-.672-.245-.171-.544-.256-.896-.256zm7.626 7.008h-2.048v-8.352h2.048v1.728h.08a2.64 2.64 0 0 1 .368-.832c.181-.267.421-.48.72-.64.309-.171.683-.256 1.12-.256h.448v1.936H262c-.459 0-.848.048-1.168.144-.309.085-.544.224-.704.416-.149.181-.224.427-.224.736v5.12z" fill="#0668e1"/><rect x="135.25" y="25.25" width="59.5" height="25.5" rx="12.75" fill="#e8f2ff"/><rect x="135.25" y="25.25" width="59.5" height="25.5" rx="12.75" stroke="#0668e1" stroke-width=".5"/><path d="M150.63 43.168c-.812 0-1.507-.149-2.086-.448a4.9 4.9 0 0 1-1.484-1.204l1.106-1.022c.336.42.709.737 1.12.952.42.215.896.322 1.428.322.625 0 1.097-.14 1.414-.42.317-.289.476-.667.476-1.134a1.46 1.46 0 0 0-.14-.658c-.093-.187-.252-.341-.476-.462s-.523-.219-.896-.294l-.868-.154c-.635-.121-1.167-.299-1.596-.532-.42-.233-.737-.537-.952-.91-.215-.383-.322-.831-.322-1.344 0-.579.14-1.078.42-1.498s.677-.742 1.19-.966c.523-.224 1.129-.336 1.82-.336.737 0 1.377.131 1.918.392a3.66 3.66 0 0 1 1.372 1.106l-1.106.98a2.87 2.87 0 0 0-.924-.784c-.364-.196-.817-.294-1.358-.294-.56 0-.994.112-1.302.336-.299.224-.448.551-.448.98 0 .271.056.495.168.672s.28.322.504.434a3.54 3.54 0 0 0 .868.266l.868.182c.653.121 1.19.303 1.61.546s.728.551.924.924c.205.364.308.807.308 1.33 0 .607-.14 1.139-.42 1.596-.28.448-.686.803-1.218 1.064-.532.252-1.171.378-1.918.378zm8.213 0c-.691 0-1.288-.154-1.792-.462a3.2 3.2 0 0 1-1.176-1.33c-.271-.569-.406-1.241-.406-2.016s.135-1.442.406-2.002a3.14 3.14 0 0 1 1.148-1.33c.495-.317 1.087-.476 1.778-.476.719 0 1.316.163 1.792.49a2.93 2.93 0 0 1 1.092 1.302c.243.551.364 1.162.364 1.834v.574h-4.984v.238c0 .56.163 1.022.49 1.386.336.355.812.532 1.428.532.448 0 .826-.098 1.134-.294s.565-.462.77-.798l.91.882c-.28.439-.677.793-1.19 1.064-.504.271-1.092.406-1.764.406zm-.014-6.426c-.355 0-.667.084-.938.252-.261.159-.467.383-.616.672-.14.28-.21.607-.21.98v.098h3.388v-.14c0-.373-.065-.7-.196-.98s-.317-.495-.56-.644c-.243-.159-.532-.238-.868-.238zM169.926 43h-.854a1.41 1.41 0 0 1-.728-.182 1.24 1.24 0 0 1-.448-.546 2.05 2.05 0 0 1-.154-.826v-.126l.434.462h-.49c-.14.448-.396.793-.77 1.036-.373.233-.826.35-1.358.35-.746 0-1.325-.196-1.736-.588s-.616-.919-.616-1.582c0-.485.117-.887.35-1.204.243-.327.593-.569 1.05-.728.458-.168 1.027-.252 1.708-.252h1.316v-.616c0-.439-.121-.779-.364-1.022-.242-.252-.62-.378-1.134-.378-.42 0-.77.098-1.05.294-.27.187-.499.42-.686.7l-.91-.826c.243-.411.584-.747 1.022-1.008.448-.271 1.022-.406 1.722-.406.934 0 1.652.224 2.156.672.514.439.77 1.064.77 1.876v3.654h.77V43zm-2.296-3.206h-1.288c-.532 0-.928.084-1.19.252a.81.81 0 0 0-.392.728v.252c0 .317.112.56.336.728s.523.252.896.252c.318 0 .598-.047.84-.14s.434-.229.574-.406c.15-.177.224-.383.224-.616v-1.05zM172.948 43h-1.526v-7.28h1.526v1.204h.07a2.43 2.43 0 0 1 .672-.966c.308-.271.737-.406 1.288-.406a2.38 2.38 0 0 1 1.302.364c.383.233.663.607.84 1.12h.042c.131-.401.383-.747.756-1.036.373-.299.859-.448 1.456-.448.728 0 1.288.247 1.68.742.401.495.602 1.19.602 2.086V43h-1.526v-4.438c0-.569-.107-.994-.322-1.274-.215-.289-.551-.434-1.008-.434a1.94 1.94 0 0 0-.728.14 1.18 1.18 0 0 0-.56.406c-.14.187-.21.42-.21.7V43h-1.526v-4.438c0-.569-.107-.994-.322-1.274-.215-.289-.546-.434-.994-.434a1.94 1.94 0 0 0-.728.14 1.27 1.27 0 0 0-.574.406c-.14.187-.21.42-.21.7V43zm-81.44 7.909a.5.5 0 0 0 .401.583l4.425.817a.5.5 0 1 0 .182-.983l-3.934-.726.726-3.934a.5.5 0 1 0-.983-.182l-.817 4.425zm42.533-14.411a.5.5 0 0 0-.082-.997L134 36l.041.498zm-22.306 3.64l.169.471h0l-.169-.471zM92 51l.284.412.05-.034.149-.101.574-.386-.278-.416-.278-.416-.58.391-.152.103-.039.027c-.014.009-.014.009.27.421zm2.35-1.559l.272.42 1.579-1.01-.267-.423-.267-.423-1.589 1.016.272.42zm3.181-2.008l.262.426 1.604-.971-.256-.429-.256-.429-1.614.978.262.426zm3.231-1.928l.251.433 1.629-.926-.243-.437-.244-.437-1.643.934.25.433zm3.288-1.832l.236.441 1.659-.866-.226-.446-.227-.446-1.677.875.235.441zm3.357-1.702l.215.451 1.697-.777-.201-.458-.201-.458-1.725.79.215.451zm3.448-1.504l.182.466.867-.325-.169-.471-.169-.471-.892.334.181.466zm.88-.329l.169.471.88-.302-.156-.475-.156-.475-.906.311.169.471zm2.702-.858l.136.481 1.813-.48-.12-.485-.121-.485-1.844.488.136.481zm3.671-.916l.108.488 1.841-.386-.097-.49-.098-.49-1.862.39.108.488zm3.711-.74l.088.492 1.858-.319-.081-.494-.081-.493-1.873.322.089.492zm3.734-.612l.074.495 1.866-.266-.067-.495-.067-.495-1.879.268.073.495zm3.749-.51l.061.496 1.871-.219-.055-.497-.055-.497-1.883.221.061.496zm3.757-.416l.048.498.693-.065.18-.016.046-.004c.015-.001.015-.001-.026-.5l-.041-.498-.064.005-.184.016-.701.065.049.498zm105.433 14.823a.5.5 0 0 1-.401.583l-4.425.817a.5.5 0 1 1-.182-.983l3.934-.726-.727-3.934a.5.5 0 0 1 .401-.582.5.5 0 0 1 .582.401l.818 4.425zm-42.533-14.411a.5.5 0 0 1 .082-.997L196 36l-.041.498zm22.306 3.64l-.169.471h0l.169-.471zM238 51l-.283.412-.05-.034-.149-.101-.575-.386.278-.416.278-.416.58.391.152.103.039.027c.013.009.013.009-.27.421zm-2.35-1.559l-.272.42-1.578-1.01.267-.423.266-.423 1.589 1.016-.272.42zm-3.181-2.008l-.262.426-1.603-.971.256-.429.256-.429 1.615.978-.262.426zm-3.231-1.928l-.251.433-1.629-.926.243-.437.244-.437 1.643.934-.25.433zm-3.288-1.832l-.236.441-1.659-.866.226-.446.227-.446 1.677.875-.235.441zm-3.357-1.702l-.215.451-1.697-.777.201-.458.201-.458 1.725.79-.215.451zm-3.448-1.504l-.182.466-.867-.325.169-.471.169-.471.892.334-.181.466zm-.88-.329l-.169.471-.88-.302.156-.475.156-.475.906.311-.169.471zm-2.702-.858l-.136.481-1.813-.48.12-.485.121-.485 1.844.488-.136.481zm-3.671-.916l-.108.488-1.841-.386.097-.49.098-.49 1.862.39-.108.488zm-3.711-.74l-.088.492-1.858-.319.081-.494.081-.493 1.873.322-.089.492zm-3.734-.612l-.074.495-1.866-.266.067-.495.067-.495 1.879.268-.073.495zm-3.749-.51l-.061.496-1.871-.219.055-.497.055-.497 1.883.221-.061.496zm-3.757-.416l-.048.498-.693-.065-.18-.016-.046-.004c-.015-.001-.015-.001.026-.5l.041-.498.064.005.184.016.701.065-.049.498z" fill="#0668e1"/><defs><linearGradient id="A" x1="164" y1="0" x2="164" y2="150" href="#I"><stop stop-color="#eaf0ff"/><stop offset="1" stop-color="#f6f9ff"/></linearGradient><linearGradient id="B" x1="263.683" y1="50.602" x2="263.683" y2="77.741" href="#I"><stop stop-color="#ffd2b6"/><stop offset="1" stop-color="#ffb793"/></linearGradient><linearGradient id="C" x1="271.165" y1="58.981" x2="267.939" y2="58.981" href="#I"><stop stop-color="#ffd2b6"/><stop offset="1" stop-color="#ffb793"/></linearGradient><linearGradient id="D" x1="261.023" y1="63.383" x2="261.023" y2="67.07" href="#I"><stop stop-color="#ffd2b6"/><stop offset="1" stop-color="#ffb793"/></linearGradient><path id="E" d="M284.987 178.097l.078-.002c.636-.011 1.127-.531 1.067-1.129l-4.241-42.37-3.7.33 6.089 42.598c.048.333.352.579.707.573z"/><path id="F" d="M214.239 178.097l-.078-.002c-.636-.011-1.127-.531-1.067-1.129l4.241-42.37 3.7.33-6.089 42.598c-.048.333-.352.579-.707.573z"/><path id="G" d="M283.724 128.432l7.527-37.189c.966-5.035-3.204-9.639-8.619-9.516l-14.517.332a11.47 11.47 0 0 0-10.754 8.282l-11.013 38.091h37.376z"/><path id="H" d="M123.527 178.35h-20.376c-.98-1.196-.619-5.611-.47-7.053l.051-.46s6.958-5.568 7.914-1.304l.103.393c1.204 3.988 6.605 5.801 9.724 6.305 2.028.329 2.777 1.384 3.054 2.119z"/><linearGradient id="I" gradientUnits="userSpaceOnUse"/></defs></svg>