<svg width="328" height="180" viewBox="0 0 328 180" fill="none" xmlns="http://www.w3.org/2000/svg">
<rect x="0.5" y="0.5" width="327" height="179" rx="15.5" fill="url(#paint0_linear_23238_64550)"/>
<rect x="0.5" y="0.5" width="327" height="179" rx="15.5" stroke="#0668E1"/>
<path d="M244.157 178.097L244.079 178.095C243.443 178.084 242.952 177.564 243.012 176.966L247.253 134.596L250.953 134.926L244.864 177.524C244.817 177.857 244.512 178.103 244.157 178.097Z" fill="#8CB4F4"/>
<path d="M284.987 178.097L285.065 178.095C285.701 178.084 286.192 177.564 286.132 176.966L281.891 134.596L278.191 134.926L284.28 177.524C284.328 177.857 284.632 178.103 284.987 178.097Z" fill="#8CB4F4"/>
<path d="M214.239 178.097L214.161 178.095C213.525 178.084 213.034 177.564 213.094 176.966L217.335 134.596L221.035 134.926L214.946 177.524C214.898 177.857 214.594 178.103 214.239 178.097Z" fill="#8CB4F4"/>
<path d="M283.724 128.432L291.251 91.2426C292.217 86.2074 288.047 81.6032 282.632 81.7271L268.115 82.0587C263.107 82.1732 258.752 85.5265 257.361 90.3407L246.348 128.432H283.724Z" fill="#8CB4F4"/>
<path d="M279.173 128.432L286.7 91.2426C287.666 86.2074 283.496 81.6032 278.081 81.7271L263.564 82.0587C258.556 82.1732 254.202 85.5265 252.81 90.3407L241.797 128.432H279.173Z" fill="#8CB4F4"/>
<path d="M281.629 135.215H224.194C223.04 135.215 222.096 134.271 222.096 133.116V130.532C222.096 129.377 223.04 128.433 224.194 128.433H283.727V133.116C283.727 134.271 282.782 135.215 281.629 135.215Z" fill="#8CB4F4"/>
<path d="M254.673 135.215H218.06C217.13 135.215 216.37 134.455 216.37 133.525V130.124C216.37 129.194 217.13 128.433 218.06 128.433H254.673C255.603 128.433 256.363 129.193 256.363 130.124V133.525C256.363 134.455 255.603 135.215 254.673 135.215Z" fill="#8CB4F4"/>
<path d="M233.691 120.65C236.798 126.061 240.706 128.149 240.706 128.149H256.965C256.965 128.149 231.321 116.523 233.691 120.65Z" fill="#233862"/>
<path d="M213.64 174.402C213.816 176.108 211.443 176.549 208.691 176.716C205.939 176.883 206.778 177.438 203.012 178.162C199.246 178.886 197.723 177.87 197.444 177.362C197.196 176.913 198.943 176.186 200.804 175.366C201.038 175.264 201.272 175.158 201.507 175.053C203.601 174.105 204.761 172.204 206.383 170.436C207.919 168.762 209.338 163.438 209.338 163.438L214.453 162.287C214.453 162.287 213.065 167.08 212.587 169.125C212.306 170.328 212.754 171.664 213.15 172.681C213.363 173.234 213.579 173.8 213.64 174.402Z" fill="#FFB27D"/>
<path d="M208.691 176.716C205.939 176.882 206.777 177.438 203.011 178.162C199.245 178.886 197.722 177.869 197.444 177.362C197.196 176.912 198.942 176.186 200.803 175.366L200.833 175.397C200.833 175.397 203.495 176.27 206.549 175.404C209.037 174.699 211.435 173.181 213.149 172.681C213.362 173.234 213.578 173.8 213.639 174.401C213.815 176.108 211.442 176.549 208.691 176.716Z" fill="#0F2549"/>
<path d="M221.387 115.107C224.14 113.174 242.348 109.726 251.64 108.729L261.911 99.8096C261.911 99.8096 270.653 112.764 270.722 122.674C270.755 127.295 268.627 127.754 268.627 127.755C268.627 127.755 235.703 127.999 234.259 128.148C231.897 128.392 228.781 134.28 228.002 139.642C227.223 145.005 213.494 166.816 213.494 166.816C213.494 166.816 210.631 167.733 209.307 167.656C207.883 167.572 207.224 167.095 207.224 167.095C207.224 167.095 215.179 119.469 221.387 115.107Z" fill="#233862"/>
<path d="M222.155 174.402C222.331 176.108 219.959 176.549 217.207 176.716C214.455 176.883 215.293 177.438 211.528 178.162C207.762 178.886 206.239 177.87 205.96 177.362C205.712 176.913 207.459 176.186 209.32 175.366C209.554 175.264 209.788 175.158 210.023 175.053C212.117 174.105 213.277 172.204 214.899 170.436C216.435 168.762 217.853 163.438 217.853 163.438L222.969 162.287C222.969 162.287 221.58 167.08 221.102 169.125C220.821 170.328 221.269 171.664 221.665 172.681C221.879 173.234 222.094 173.8 222.155 174.402Z" fill="#FFB27D"/>
<path d="M217.206 176.716C214.454 176.882 215.293 177.438 211.527 178.162C207.761 178.886 206.238 177.869 205.96 177.362C205.711 176.912 207.458 176.186 209.319 175.366L209.348 175.397C209.348 175.397 212.011 176.27 215.064 175.404C217.553 174.699 219.95 173.181 221.665 172.681C221.878 173.234 222.094 173.8 222.155 174.401C222.331 176.108 219.958 176.549 217.206 176.716Z" fill="#233862"/>
<path d="M229.981 115.107C232.372 113.428 239.565 112.125 247.504 111.158C249.699 110.891 251.502 109.294 252.038 107.148L270.505 99.8096C270.505 99.8096 279.247 112.764 279.316 122.674C279.348 127.295 277.221 127.754 277.22 127.755C277.22 127.755 244.296 127.999 242.853 128.148C240.491 128.392 237.375 134.28 236.596 139.642C235.817 145.005 222.088 166.816 222.088 166.816C222.088 166.816 219.225 167.733 217.901 167.656C216.477 167.572 215.817 167.095 215.817 167.095C215.817 167.095 223.773 119.469 229.981 115.107Z" fill="#2B478B"/>
<path d="M274.897 55.9174C274.897 55.9174 273.226 58.7024 272.991 60.841C272.756 62.9797 279.169 69.0346 273.945 73.2604C268.719 77.4861 249.073 75.8954 248.408 69.913C247.741 63.9322 253.912 60.6492 254.003 56.2945C254.186 47.5594 256.383 48.7262 257.538 46.9615C258.693 45.1951 263.864 46.204 264.053 46.5199C264.241 46.8358 274.897 55.9158 274.897 55.9158V55.9174Z" fill="black"/>
<path d="M260.759 46.407C267.372 43.664 275.052 50.4265 272.491 56.7087C271.041 60.2688 268.429 62.3688 265.636 63.4131L266.555 67.7775C266.555 67.7775 265.071 71.0943 261.261 71.5213C257.94 71.8936 256.827 69.647 256.827 69.647L258.773 64.0465C257.297 63.7709 256.065 63.223 255.303 62.4993C252.241 59.5903 257.399 47.7995 260.757 46.4054L260.759 46.407Z" fill="url(#paint1_linear_23238_64550)"/>
<path d="M261.691 47.7202C261.691 47.7202 260.876 50.3311 262.292 53.1917C264.72 58.0944 272.632 59.3676 272.632 59.3676C272.632 59.3676 277.341 55.2466 274.65 48.9402C271.959 42.6338 263.275 40.8674 261.689 44.7354C261.689 44.7354 258.177 42.6967 257.54 46.9643C257.54 46.9643 258.979 49.298 261.689 47.7218L261.691 47.7202Z" fill="black"/>
<path d="M266.701 54.8145C268.635 58.4084 265.09 60.842 265.631 63.4142C265.631 63.4142 266.822 63.9912 266.993 63.9912C267.164 63.9912 270.443 62.3102 270.443 62.3102L271.535 60.7937L271.914 57.4334L270.989 55.0143" fill="black"/>
<path d="M268.47 57.6837C268.47 57.6837 269.684 56.3283 270.786 57.3679C271.684 58.2156 270.946 60.3704 268.968 60.9344C268.292 61.1278 267.728 60.7636 268.013 60.0803C268.253 59.5033 268.435 58.4928 268.47 57.6837Z" fill="url(#paint2_linear_23238_64550)"/>
<path d="M258.772 64.0466C258.772 64.0466 261.871 64.2851 264.035 62.7285C264.035 62.7285 262.143 66.3428 258.013 66.2268L258.772 64.045V64.0466Z" fill="url(#paint3_linear_23238_64550)" style="mix-blend-mode:multiply"/>
<path d="M248.436 87.5652C248.733 107.445 248.517 103.291 250.691 105.177C251.215 105.631 252.687 105.902 254.625 106.03C260.718 106.434 271.428 105.43 271.836 104.304C273.241 100.406 272.249 99.1947 273.421 93.2271C273.544 92.5925 273.695 91.9055 273.872 91.1574C274.85 87.0586 275.801 85.6643 272.333 79.0795C269.188 73.1149 265.489 68.2694 265.195 68.444C256.897 73.3723 256.612 69.2412 256.612 69.2412C256.612 69.2412 248.29 77.8685 248.436 87.5652Z" fill="#0374FF"/>
<path d="M256.613 69.2412C256.613 69.2412 248.12 70.6815 247.118 74.3597C246.115 78.0378 240.214 99.6607 240.214 99.6607C240.214 99.6607 244.555 100.441 246.561 98.4346C248.566 96.4283 253.538 79.8211 253.538 79.8211L256.613 69.2412Z" fill="#0374FF"/>
<path d="M254.625 106.03C260.718 106.434 271.429 105.43 271.836 104.304C273.241 100.406 272.249 99.1947 273.422 93.2271L270.483 84.9482C270.483 84.9482 270.969 94.1674 268.251 96.5923C265.537 99.0171 257.125 101.273 255.804 103.299C255.167 104.272 254.748 105.247 254.625 106.03Z" fill="white" fill-opacity="0.1"/>
<path d="M261.605 102.152C261.605 102.152 255.594 100.813 254.625 101.346C253.655 101.88 251.284 103.824 250.987 104.5C250.691 105.176 253.147 103.987 253.946 103.772C254.463 103.633 255.825 104.107 256.499 104.332C259.336 105.278 261.074 104.791 261.074 104.791L261.605 102.152Z" fill="#FFB27D"/>
<path d="M265.193 68.4434C265.193 68.4434 273.701 68.9408 276.495 72.8396C280.428 78.3277 288.23 101.717 283.759 104.837C278.723 108.35 260.84 105.756 260.84 105.756C260.84 105.756 260.245 102.973 261.073 101.627C261.901 100.281 275.356 98.106 275.977 97.4848C276.598 96.8635 268.215 85.3693 268.215 83.5054C268.215 81.6414 265.193 68.4434 265.193 68.4434Z" fill="#0374FF"/>
<path d="M254.332 103.021C254.332 103.021 253.073 104.646 252.66 104.84C252.247 105.034 251.98 104.985 251.98 104.985L252.829 103.457L254.332 103.021Z" fill="#FFB27D"/>
<path d="M254.625 101.347L250.963 103.126C250.963 103.126 251.119 103.381 251.57 103.36C252.021 103.34 253.158 102.923 253.158 102.923L254.625 101.347Z" fill="#FFB27D"/>
<path d="M241.134 105.564H258.141C258.141 104.815 257.534 104.208 256.785 104.208H241.134V105.564Z" fill="#9CBDFF"/>
<path d="M241.183 87.0332H214.889L221.196 105.564H247.66L241.183 87.0332Z" fill="#9CBDFF"/>
<path d="M214.502 87.0332L220.809 105.564H247.273L240.796 87.0332H214.502Z" fill="#BED4FF"/>
<path d="M228.681 96.1276C228.844 96.8357 229.55 97.4097 230.258 97.4097C230.965 97.4097 231.407 96.8357 231.243 96.1276C231.08 95.4197 230.374 94.8457 229.666 94.8457C228.959 94.8457 228.517 95.4197 228.681 96.1276Z" fill="white"/>
<path d="M256.74 109H91.2601C90.5643 109 90 108.623 90 108.158V105.842C90 105.377 90.5641 105 91.2601 105H256.74C257.436 105 258 105.377 258 105.842V108.158C258 108.623 257.436 109 256.74 109Z" fill="#182D4F"/>
<path d="M115.971 178.407L115.922 178.401C115.332 178.328 114.914 177.801 114.988 177.224L125.256 107.686L129.016 107.793L116.934 177.708C116.857 178.156 116.432 178.464 115.971 178.407Z" fill="#182D4F"/>
<path d="M237.879 178.407L237.929 178.401C238.519 178.328 238.937 177.801 238.862 177.224L228.594 107.686L224.835 107.793L236.916 177.708C236.994 178.156 237.419 178.464 237.879 178.407Z" fill="#182D4F"/>
<path d="M214.106 178.407L214.155 178.401C214.746 178.328 215.164 177.801 215.089 177.224L204.821 107.686L201.062 107.793L213.143 177.708C213.22 178.156 213.645 178.464 214.106 178.407Z" fill="#182D4F"/>
<path d="M20.3927 179H307.607C307.823 179 308 178.84 308 178.645V178.355C308 178.16 307.823 178 307.607 178H20.3927C20.1767 178 20 178.16 20 178.355V178.645C20 178.84 20.1767 179 20.3927 179Z" fill="#2E3552"/>
<path d="M123.527 178.35H103.151C102.171 177.154 102.532 172.739 102.681 171.297C102.711 171.007 102.732 170.837 102.732 170.837C102.732 170.837 109.69 165.269 110.646 169.533C110.675 169.667 110.711 169.797 110.749 169.926C111.953 173.914 117.354 175.727 120.473 176.231C122.501 176.56 123.25 177.615 123.527 178.35Z" fill="#233862"/>
<path d="M67.929 112.111C68.6646 112.111 102.832 118.529 108.484 125.529C111.307 129.025 111.727 169.406 111.727 169.406C111.727 169.406 108.234 173.739 100.69 171.223C100.69 171.223 95.1589 143.595 95.5673 135.215C95.6804 132.898 72.2226 134.88 67.9291 133.768C63.6357 132.656 53.1453 123.312 55.4568 118.76C57.7682 114.208 67.929 112.111 67.929 112.111Z" fill="#233862"/>
<path d="M108.337 102.223C108.337 102.223 115.229 102.316 116.859 103.015C118.489 103.714 121.795 105.318 120.911 105.564C120.026 105.81 115.804 105.462 114.892 105.602C113.979 105.742 112.854 105.564 112.295 105.564C111.737 105.564 109.13 105.564 109.13 105.564L108.337 102.223Z" fill="#FFA9A9"/>
<path d="M116.395 85.6755C116.395 85.6755 118.745 83.9956 121.027 83.6695C122.328 83.4834 123.594 83.2515 124.359 82.9819C126.464 82.2396 130.677 78.4501 130.358 78.0054C129.336 76.5808 124.418 79.5956 123.56 79.272C122.701 78.9483 125.21 77.1639 124.337 76.5363C123.881 76.2086 122.815 77.8514 121.944 78.0164C120.765 78.2396 119.843 79.9052 119.489 79.9921C118.798 80.1613 115.772 82.4127 115.772 82.4127L116.395 85.6755Z" fill="#FFA9A9"/>
<path d="M71.3353 66.0576C71.3353 66.0576 76.5816 67.6843 81.7506 81.9251C86.9197 96.1658 88.8826 96.9346 90.7616 97.4936C92.6406 98.0527 109.133 101.337 109.133 101.337V105.564H83.7208C83.7208 105.564 74.192 96.4952 71.3353 90.3903C68.4786 84.2854 71.3353 66.0576 71.3353 66.0576Z" fill="#2B6AF0"/>
<path d="M132.535 178.35H112.159C111.179 177.154 111.54 172.739 111.689 171.297C111.719 171.007 111.74 170.837 111.74 170.837C111.74 170.837 118.698 165.269 119.654 169.533C119.683 169.667 119.718 169.797 119.757 169.926C120.961 173.914 126.362 175.727 129.481 176.231C131.509 176.56 132.258 177.615 132.535 178.35Z" fill="#1B3051"/>
<path d="M77.9992 112.111C78.735 112.111 112.902 118.529 118.554 125.529C121.377 129.025 121.797 169.406 121.797 169.406C121.797 169.406 118.304 173.739 110.76 171.223C110.76 171.223 105.229 143.595 105.638 135.215C105.751 132.898 82.2928 134.88 77.9993 133.768C73.706 132.656 63.2155 123.312 65.5271 118.76C67.8385 114.208 77.9992 112.111 77.9992 112.111Z" fill="#2B478B"/>
<path d="M75.8617 70.5711C73.4038 70.3681 70.8267 69.7127 68.5993 68.9896C65.8152 68.0857 63.5708 66.7647 65.017 64.2186C66.3499 61.8722 68.507 56.6304 68.3613 52.2881L73.5423 56.4653L77.0616 59.3023C77.0616 59.3023 77.047 60.9749 76.6625 63.9063C76.5921 64.4406 76.5098 65.0174 76.4128 65.6339C76.3346 66.1319 76.5632 66.6292 76.9915 66.8949C77.018 66.9114 77.0446 66.9279 77.0709 66.9445C78.8199 68.0439 77.9203 70.7411 75.8617 70.5711Z" fill="#FFA9A9"/>
<path d="M77.0612 58.6117C77.0612 58.6117 77.2413 59.219 76.9318 61.4616C73.7943 60.9495 70.8612 58.4458 70.8612 58.4458C72.4585 58.0071 73.0397 56.2802 74.2295 56.4412L77.0612 58.6117Z" fill="#FE8C8C"/>
<path d="M79.9616 59.1232C79.9616 59.1232 67.8928 61.1291 66.7598 53.5906C65.6269 46.052 63.3062 41.2338 70.9639 39.6343C78.6216 38.0348 80.5545 40.6857 81.5445 43.11C82.5343 45.5341 83.0717 58.4071 79.9616 59.1232Z" fill="#FFA9A9"/>
<path d="M83.3214 39.7741C83.8397 41.5894 82.4527 43.8006 80.1244 44.5284C76.6683 45.609 77.432 49.8503 75.8767 49.7927C74.3215 49.7351 73.694 47.3547 72.305 49.2565C71.12 50.8786 73.2911 52.8019 73.1418 53.6914C72.8853 55.2186 70.4942 58.3432 68.3395 58.1865C66.1846 58.0297 62.1525 47.7844 62.959 44.6148C63.7654 41.4452 66.9912 38.1027 70.0441 37.6417C73.0969 37.1807 77.3368 38.4995 78.3159 38.4995C79.2951 38.4995 83.0413 38.7935 83.3214 39.7741Z" fill="#211A35"/>
<path d="M55.2972 76.5202C57.0415 69.496 61.8629 62.1256 65.1228 62.1318C70.6778 62.1425 78.6632 63.6089 81.8875 71.5663C84.2621 77.427 87.4297 111.14 83.8498 113.537C75.6666 119.018 56.698 130.207 53.3286 118.797C50.241 108.342 52.2698 88.7114 55.2972 76.5202Z" fill="#5188FF"/>
<path d="M68.7873 69.531C70.3719 65.4068 75.4834 63.9811 78.969 66.6942C80.8542 68.1616 83.1631 70.2513 85.9518 73.2223C96.3184 84.2668 98.4252 84.1981 100.372 83.97C102.319 83.7419 118.769 80.2491 118.769 80.2491C118.769 80.2491 119.611 80.8707 120.107 81.8756C120.769 83.2178 120.436 84.1325 120.436 84.1325C121.08 83.7158 114.605 88.1813 111.382 89.962C107.125 92.3133 100.711 94.5178 98.1571 95.3548C97.4329 95.5922 96.6521 95.5802 95.9352 95.3217C92.1438 93.9544 79.4107 88.9722 69.0455 80.3271C66.3145 78.0491 67.3179 73.355 68.7873 69.531Z" fill="#5188FF"/>
<path d="M64.5614 62.1998L65.8192 59.3652C65.8192 59.3652 77.0766 60.2837 78.9688 66.6939C78.9688 66.6939 70.2424 62.3373 64.5614 62.1998Z" fill="white"/>
<path d="M37.2308 178.097L37.1531 178.095C36.5175 178.084 36.0265 177.564 36.0864 176.966L40.327 134.596L44.0273 134.926L37.9382 177.524C37.8905 177.857 37.5864 178.103 37.2308 178.097Z" fill="#8CB4F4"/>
<path d="M59.059 178.097L58.9814 178.095C58.3456 178.084 57.8547 177.564 57.9146 176.966L62.1551 134.596L65.8555 134.926L59.7664 177.524C59.7188 177.857 59.4145 178.103 59.059 178.097Z" fill="#8CB4F4"/>
<path d="M100.034 178.097L100.112 178.095C100.748 178.084 101.239 177.564 101.179 176.966L96.938 134.596L93.2377 134.926L99.3267 177.524C99.3746 177.857 99.6788 178.103 100.034 178.097Z" fill="#73A2E5"/>
<path d="M38.4321 128.594L34.4073 93.2055C33.8795 88.1056 35.5854 83.1122 42.9411 82.7257L55.8818 81.9371C63.5518 81.6205 67.0146 88.0069 67.9856 92.9235L75.668 131.824L38.4321 128.594Z" fill="#8CB4F4"/>
<path d="M40.5921 135.215H98.0269C99.1809 135.215 100.125 134.271 100.125 133.116V130.532C100.125 129.377 99.1809 128.433 98.0269 128.433H38.4941V133.116C38.4941 134.271 39.4381 135.215 40.5921 135.215Z" fill="#73A2E5"/>
<path d="M40.1258 135.215H74.0386C74.9347 135.215 75.668 134.482 75.668 133.585V130.063C75.668 129.166 74.9347 128.433 74.0386 128.433H38.4963V133.585C38.4963 134.482 39.2295 135.215 40.1258 135.215Z" fill="#8CB4F4"/>
<path d="M1 150H327V163C327 171.837 319.837 179 311 179H17C8.16345 179 1 171.837 1 163V150Z" fill="white"/>
<path d="M70.148 170.692C69.1667 170.692 68.3133 170.479 67.588 170.052C66.8733 169.625 66.3187 168.991 65.924 168.148C65.5293 167.295 65.332 166.244 65.332 164.996C65.332 163.737 65.5293 162.676 65.924 161.812C66.3187 160.937 66.8733 160.276 67.588 159.828C68.3133 159.369 69.1667 159.14 70.148 159.14C71.14 159.14 71.9667 159.353 72.628 159.78C73.3 160.207 73.8333 160.852 74.228 161.716L72.42 162.676C72.26 162.175 71.9987 161.775 71.636 161.476C71.2733 161.167 70.7773 161.012 70.148 161.012C69.3587 161.012 68.7293 161.279 68.26 161.812C67.8013 162.345 67.572 163.092 67.572 164.052V165.812C67.572 166.761 67.8013 167.503 68.26 168.036C68.7293 168.559 69.3587 168.82 70.148 168.82C70.7773 168.82 71.2893 168.649 71.684 168.308C72.0787 167.967 72.372 167.545 72.564 167.044L74.276 168.052C73.8813 168.884 73.3427 169.535 72.66 170.004C71.9773 170.463 71.14 170.692 70.148 170.692ZM83.2296 170.5H82.0936C81.7843 170.5 81.507 170.431 81.2616 170.292C81.027 170.143 80.8403 169.929 80.7016 169.652C80.5736 169.375 80.5096 169.049 80.5096 168.676V168.5L81.0216 169.06H80.4456C80.307 169.593 80.019 169.999 79.5816 170.276C79.155 170.553 78.6323 170.692 78.0136 170.692C77.1603 170.692 76.5043 170.468 76.0456 170.02C75.587 169.561 75.3576 168.964 75.3576 168.228C75.3576 167.652 75.4963 167.177 75.7736 166.804C76.0616 166.431 76.4723 166.148 77.0056 165.956C77.539 165.764 78.179 165.668 78.9256 165.668H80.3496V165.06C80.3496 164.601 80.227 164.244 79.9816 163.988C79.7363 163.721 79.3416 163.588 78.7976 163.588C78.3176 163.588 77.9283 163.695 77.6296 163.908C77.3416 164.111 77.0963 164.356 76.8936 164.644L75.6776 163.556C75.987 163.076 76.3976 162.692 76.9096 162.404C77.4216 162.105 78.099 161.956 78.9416 161.956C80.0616 161.956 80.915 162.217 81.5016 162.74C82.099 163.252 82.3976 163.983 82.3976 164.932V168.868H83.2296V170.5ZM80.3496 166.9H79.0376C78.5043 166.9 78.1043 166.991 77.8376 167.172C77.571 167.343 77.4376 167.593 77.4376 167.924V168.196C77.4376 168.527 77.5496 168.777 77.7736 168.948C77.9976 169.119 78.307 169.204 78.7016 169.204C79.011 169.204 79.2883 169.161 79.5336 169.076C79.779 168.98 79.9763 168.841 80.1256 168.66C80.275 168.479 80.3496 168.26 80.3496 168.004V166.9ZM86.9351 170.5H84.8871V162.148H86.9351V163.54H87.0151C87.1858 163.092 87.4525 162.719 87.8151 162.42C88.1885 162.111 88.7005 161.956 89.3511 161.956C90.2045 161.956 90.8605 162.244 91.3191 162.82C91.7885 163.385 92.0231 164.185 92.0231 165.22V170.5H89.9751V165.428C89.9751 164.841 89.8685 164.399 89.6551 164.1C89.4418 163.791 89.0898 163.636 88.5991 163.636C88.3218 163.636 88.0551 163.689 87.7991 163.796C87.5431 163.892 87.3351 164.041 87.1751 164.244C87.0151 164.436 86.9351 164.681 86.9351 164.98V170.5ZM99.4774 170.5V169.108H99.3974C99.248 169.588 98.9654 169.972 98.5494 170.26C98.1334 170.548 97.648 170.692 97.0934 170.692C96.4 170.692 95.808 170.521 95.3174 170.18C94.8374 169.839 94.4694 169.343 94.2134 168.692C93.9574 168.031 93.8294 167.236 93.8294 166.308C93.8294 165.38 93.9574 164.596 94.2134 163.956C94.4694 163.305 94.8374 162.809 95.3174 162.468C95.808 162.127 96.4 161.956 97.0934 161.956C97.648 161.956 98.1334 162.1 98.5494 162.388C98.976 162.665 99.2587 163.044 99.3974 163.524H99.4774V158.66H101.525V170.5H99.4774ZM97.7494 168.996C98.08 168.996 98.3734 168.943 98.6294 168.836C98.896 168.729 99.104 168.575 99.2534 168.372C99.4027 168.169 99.4774 167.924 99.4774 167.636V164.98C99.4774 164.713 99.4027 164.479 99.2534 164.276C99.104 164.073 98.896 163.919 98.6294 163.812C98.3734 163.695 98.08 163.636 97.7494 163.636C97.2267 163.636 96.8 163.817 96.4694 164.18C96.1387 164.532 95.9734 165.007 95.9734 165.604V167.044C95.9734 167.631 96.1387 168.105 96.4694 168.468C96.8 168.82 97.2267 168.996 97.7494 168.996ZM104.911 160.932C104.495 160.932 104.191 160.836 103.999 160.644C103.807 160.441 103.711 160.196 103.711 159.908V159.588C103.711 159.289 103.807 159.044 103.999 158.852C104.191 158.66 104.495 158.564 104.911 158.564C105.327 158.564 105.631 158.66 105.823 158.852C106.015 159.044 106.111 159.289 106.111 159.588V159.908C106.111 160.196 106.015 160.441 105.823 160.644C105.631 160.836 105.327 160.932 104.911 160.932ZM103.887 170.5V162.148H105.935V170.5H103.887ZM113.477 170.5V169.108H113.397C113.248 169.588 112.965 169.972 112.549 170.26C112.133 170.548 111.648 170.692 111.093 170.692C110.4 170.692 109.808 170.521 109.317 170.18C108.837 169.839 108.469 169.343 108.213 168.692C107.957 168.031 107.829 167.236 107.829 166.308C107.829 165.38 107.957 164.596 108.213 163.956C108.469 163.305 108.837 162.809 109.317 162.468C109.808 162.127 110.4 161.956 111.093 161.956C111.648 161.956 112.133 162.1 112.549 162.388C112.976 162.665 113.259 163.044 113.397 163.524H113.477V158.66H115.525V170.5H113.477ZM111.749 168.996C112.08 168.996 112.373 168.943 112.629 168.836C112.896 168.729 113.104 168.575 113.253 168.372C113.403 168.169 113.477 167.924 113.477 167.636V164.98C113.477 164.713 113.403 164.479 113.253 164.276C113.104 164.073 112.896 163.919 112.629 163.812C112.373 163.695 112.08 163.636 111.749 163.636C111.227 163.636 110.8 163.817 110.469 164.18C110.139 164.532 109.973 165.007 109.973 165.604V167.044C109.973 167.631 110.139 168.105 110.469 168.468C110.8 168.82 111.227 168.996 111.749 168.996ZM125.167 170.5H124.031C123.722 170.5 123.444 170.431 123.199 170.292C122.964 170.143 122.778 169.929 122.639 169.652C122.511 169.375 122.447 169.049 122.447 168.676V168.5L122.959 169.06H122.383C122.244 169.593 121.956 169.999 121.519 170.276C121.092 170.553 120.57 170.692 119.951 170.692C119.098 170.692 118.442 170.468 117.983 170.02C117.524 169.561 117.295 168.964 117.295 168.228C117.295 167.652 117.434 167.177 117.711 166.804C117.999 166.431 118.41 166.148 118.943 165.956C119.476 165.764 120.116 165.668 120.863 165.668H122.287V165.06C122.287 164.601 122.164 164.244 121.919 163.988C121.674 163.721 121.279 163.588 120.735 163.588C120.255 163.588 119.866 163.695 119.567 163.908C119.279 164.111 119.034 164.356 118.831 164.644L117.615 163.556C117.924 163.076 118.335 162.692 118.847 162.404C119.359 162.105 120.036 161.956 120.879 161.956C121.999 161.956 122.852 162.217 123.439 162.74C124.036 163.252 124.335 163.983 124.335 164.932V168.868H125.167V170.5ZM122.287 166.9H120.975C120.442 166.9 120.042 166.991 119.775 167.172C119.508 167.343 119.375 167.593 119.375 167.924V168.196C119.375 168.527 119.487 168.777 119.711 168.948C119.935 169.119 120.244 169.204 120.639 169.204C120.948 169.204 121.226 169.161 121.471 169.076C121.716 168.98 121.914 168.841 122.063 168.66C122.212 168.479 122.287 168.26 122.287 168.004V166.9ZM130.842 170.5H129.37C128.666 170.5 128.127 170.319 127.754 169.956C127.391 169.583 127.21 169.055 127.21 168.372V163.764H125.978V162.148H126.618C126.927 162.148 127.135 162.079 127.242 161.94C127.359 161.791 127.418 161.572 127.418 161.284V159.86H129.258V162.148H130.97V163.764H129.258V168.868H130.842V170.5ZM136.06 170.692C135.239 170.692 134.535 170.516 133.948 170.164C133.361 169.801 132.908 169.295 132.588 168.644C132.279 167.983 132.124 167.204 132.124 166.308C132.124 165.433 132.279 164.671 132.588 164.02C132.897 163.359 133.34 162.852 133.916 162.5C134.492 162.137 135.185 161.956 135.996 161.956C136.871 161.956 137.585 162.148 138.14 162.532C138.705 162.916 139.121 163.428 139.388 164.068C139.665 164.697 139.804 165.396 139.804 166.164V166.836H134.252V167.044C134.252 167.641 134.423 168.127 134.764 168.5C135.105 168.873 135.612 169.06 136.284 169.06C136.785 169.06 137.201 168.953 137.532 168.74C137.863 168.516 138.156 168.244 138.412 167.924L139.516 169.156C139.175 169.615 138.705 169.988 138.108 170.276C137.521 170.553 136.839 170.692 136.06 170.692ZM136.028 163.492C135.665 163.492 135.351 163.577 135.084 163.748C134.817 163.908 134.609 164.137 134.46 164.436C134.321 164.724 134.252 165.06 134.252 165.444V165.572H137.676V165.428C137.676 165.033 137.612 164.697 137.484 164.42C137.356 164.132 137.169 163.908 136.924 163.748C136.679 163.577 136.38 163.492 136.028 163.492Z" fill="#2C2C2C"/>
<path d="M169.501 164H179.223" stroke="#0668E1" stroke-width="1.24993" stroke-linecap="round" stroke-linejoin="round"/>
<path d="M175.611 161L179.5 164L175.611 167" stroke="#0668E1" stroke-width="1.24993" stroke-linecap="round" stroke-linejoin="round"/>
<path d="M165.499 164H155.777" stroke="#0668E1" stroke-width="1.24993" stroke-linecap="round" stroke-linejoin="round"/>
<path d="M159.389 161L155.5 164L159.389 167" stroke="#0668E1" stroke-width="1.24993" stroke-linecap="round" stroke-linejoin="round"/>
<path d="M201.172 170.5H193.812V159.332H201.172V161.204H195.924V163.924H200.564V165.78H195.924V168.628H201.172V170.5ZM205.326 170.5H203.278V162.148H205.326V163.54H205.406C205.566 163.103 205.822 162.729 206.174 162.42C206.536 162.111 207.027 161.956 207.646 161.956C208.222 161.956 208.718 162.095 209.134 162.372C209.56 162.649 209.87 163.071 210.062 163.636H210.094C210.243 163.177 210.542 162.783 210.99 162.452C211.438 162.121 211.992 161.956 212.654 161.956C213.464 161.956 214.094 162.244 214.542 162.82C214.99 163.385 215.214 164.185 215.214 165.22V170.5H213.166V165.428C213.166 164.831 213.054 164.383 212.83 164.084C212.616 163.785 212.28 163.636 211.822 163.636C211.555 163.636 211.299 163.689 211.054 163.796C210.819 163.892 210.627 164.041 210.478 164.244C210.339 164.436 210.27 164.681 210.27 164.98V170.5H208.222V165.428C208.222 164.831 208.11 164.383 207.886 164.084C207.662 163.785 207.326 163.636 206.878 163.636C206.622 163.636 206.371 163.689 206.126 163.796C205.891 163.892 205.699 164.041 205.55 164.244C205.4 164.436 205.326 164.681 205.326 164.98V170.5ZM217.481 173.7V162.148H219.529V163.524H219.593C219.742 163.044 220.025 162.665 220.441 162.388C220.868 162.1 221.353 161.956 221.897 161.956C222.612 161.956 223.209 162.127 223.689 162.468C224.169 162.809 224.537 163.305 224.793 163.956C225.049 164.596 225.177 165.38 225.177 166.308C225.177 167.236 225.049 168.031 224.793 168.692C224.537 169.343 224.169 169.839 223.689 170.18C223.209 170.521 222.612 170.692 221.897 170.692C221.353 170.692 220.873 170.548 220.457 170.26C220.041 169.972 219.753 169.588 219.593 169.108H219.529V173.7H217.481ZM221.241 168.996C221.774 168.996 222.206 168.82 222.537 168.468C222.868 168.105 223.033 167.631 223.033 167.044V165.604C223.033 165.007 222.868 164.532 222.537 164.18C222.206 163.817 221.774 163.636 221.241 163.636C220.921 163.636 220.628 163.695 220.361 163.812C220.105 163.919 219.902 164.073 219.753 164.276C219.604 164.479 219.529 164.713 219.529 164.98V167.636C219.529 167.924 219.604 168.169 219.753 168.372C219.902 168.575 220.105 168.729 220.361 168.836C220.628 168.943 220.921 168.996 221.241 168.996ZM230.227 170.5H229.123C228.429 170.5 227.912 170.324 227.571 169.972C227.24 169.62 227.075 169.124 227.075 168.484V158.66H229.123V168.868H230.227V170.5ZM235.09 170.692C234.3 170.692 233.612 170.516 233.026 170.164C232.45 169.801 232.002 169.295 231.682 168.644C231.372 167.983 231.218 167.204 231.218 166.308C231.218 165.412 231.372 164.644 231.682 164.004C232.002 163.353 232.45 162.852 233.026 162.5C233.612 162.137 234.3 161.956 235.09 161.956C235.89 161.956 236.578 162.137 237.154 162.5C237.74 162.852 238.188 163.353 238.498 164.004C238.818 164.644 238.978 165.412 238.978 166.308C238.978 167.204 238.818 167.983 238.498 168.644C238.188 169.295 237.74 169.801 237.154 170.164C236.578 170.516 235.89 170.692 235.09 170.692ZM235.09 169.044C235.634 169.044 236.06 168.879 236.37 168.548C236.679 168.207 236.834 167.721 236.834 167.092V165.54C236.834 164.911 236.679 164.431 236.37 164.1C236.06 163.769 235.634 163.604 235.09 163.604C234.567 163.604 234.146 163.769 233.826 164.1C233.516 164.431 233.362 164.911 233.362 165.54V167.092C233.362 167.721 233.516 168.207 233.826 168.548C234.146 168.879 234.567 169.044 235.09 169.044ZM244.317 166.564L245.773 162.148H247.693L244.333 171.988C244.194 172.383 244.029 172.708 243.837 172.964C243.645 173.22 243.394 173.407 243.085 173.524C242.786 173.641 242.407 173.7 241.949 173.7H240.717V172.068H242.221L242.605 170.9L239.613 162.148H241.645L243.101 166.564L243.645 168.676H243.741L244.317 166.564ZM252.31 170.692C251.489 170.692 250.785 170.516 250.198 170.164C249.611 169.801 249.158 169.295 248.838 168.644C248.529 167.983 248.374 167.204 248.374 166.308C248.374 165.433 248.529 164.671 248.838 164.02C249.147 163.359 249.59 162.852 250.166 162.5C250.742 162.137 251.435 161.956 252.246 161.956C253.121 161.956 253.835 162.148 254.39 162.532C254.955 162.916 255.371 163.428 255.638 164.068C255.915 164.697 256.054 165.396 256.054 166.164V166.836H250.502V167.044C250.502 167.641 250.673 168.127 251.014 168.5C251.355 168.873 251.862 169.06 252.534 169.06C253.035 169.06 253.451 168.953 253.782 168.74C254.113 168.516 254.406 168.244 254.662 167.924L255.766 169.156C255.425 169.615 254.955 169.988 254.358 170.276C253.771 170.553 253.089 170.692 252.31 170.692ZM252.278 163.492C251.915 163.492 251.601 163.577 251.334 163.748C251.067 163.908 250.859 164.137 250.71 164.436C250.571 164.724 250.502 165.06 250.502 165.444V165.572H253.926V165.428C253.926 165.033 253.862 164.697 253.734 164.42C253.606 164.132 253.419 163.908 253.174 163.748C252.929 163.577 252.63 163.492 252.278 163.492ZM259.904 170.5H257.856V162.148H259.904V163.876H259.984C260.059 163.577 260.181 163.3 260.352 163.044C260.533 162.777 260.773 162.564 261.072 162.404C261.381 162.233 261.755 162.148 262.192 162.148H262.64V164.084H262C261.541 164.084 261.152 164.132 260.832 164.228C260.523 164.313 260.288 164.452 260.128 164.644C259.979 164.825 259.904 165.071 259.904 165.38V170.5Z" fill="#0668E1"/>
<defs>
<linearGradient id="paint0_linear_23238_64550" x1="164" y1="0" x2="164" y2="150" gradientUnits="userSpaceOnUse">
<stop stop-color="#EAF0FF"/>
<stop offset="1" stop-color="#F6F9FF"/>
</linearGradient>
<linearGradient id="paint1_linear_23238_64550" x1="263.683" y1="50.6021" x2="263.683" y2="77.7407" gradientUnits="userSpaceOnUse">
<stop stop-color="#FFD2B6"/>
<stop offset="1" stop-color="#FFB793"/>
</linearGradient>
<linearGradient id="paint2_linear_23238_64550" x1="271.165" y1="58.9811" x2="267.939" y2="58.9811" gradientUnits="userSpaceOnUse">
<stop stop-color="#FFD2B6"/>
<stop offset="1" stop-color="#FFB793"/>
</linearGradient>
<linearGradient id="paint3_linear_23238_64550" x1="261.023" y1="63.3827" x2="261.023" y2="67.0696" gradientUnits="userSpaceOnUse">
<stop stop-color="#FFD2B6"/>
<stop offset="1" stop-color="#FFB793"/>
</linearGradient>
</defs>
</svg>
