<svg width="328" height="180" viewBox="0 0 328 180" fill="none" xmlns="http://www.w3.org/2000/svg">
<rect x="0.5" y="0.5" width="327" height="179" rx="15.5" fill="url(#paint0_linear_23238_64778)"/>
<rect x="0.5" y="0.5" width="327" height="179" rx="15.5" stroke="#0668E1"/>
<path d="M93.4471 109.737C93.4471 109.737 97.3083 121.083 99.253 128.732C101.198 136.381 104.724 149.999 104.724 149.999H83.6094V124.842L93.4454 109.737H93.4471Z" fill="#2B478B"/>
<path d="M126.405 61.5485V61.5534C126.384 62.4994 125.797 62.8556 125.038 62.516C124.745 62.3835 124.641 62.1847 124.629 62.1615V62.1581C124.011 63.1224 123.057 62.0206 123.057 62.0206C122.867 62.5259 122.423 62.8739 122.017 62.9451L120.702 65.793C119.315 70.0823 114.2 85.5579 111.063 90.5646C109.994 92.2694 96.7461 90.3973 96.7461 90.3973L101.013 79.708L105.027 80.1967L114.956 62.9965L115.979 60.4202C115.979 60.4202 117.914 54.9149 118.187 53.6061C118.461 52.2989 120.899 49.3499 122.753 46.671C123.834 45.1086 125.048 46.4672 124.142 48.7667C123.622 50.0888 122.348 53.2731 122.348 53.2731C122.348 53.2731 125.968 56.1011 126.327 56.7588C126.587 57.2343 126.523 59.8702 126.405 61.5501V61.5485Z" fill="url(#paint1_linear_23238_64778)"/>
<path d="M117.027 58.831C117.027 58.831 117.644 56.7237 119.004 55.7843C120.363 54.8449 121.419 54.6328 122.083 54.1955C122.747 53.7581 123.461 54.2286 123.168 55.2011C122.888 56.1339 121.223 57.7939 121.223 57.7939C121.223 57.7939 121.957 59.6909 120.251 61.1819" stroke="black" stroke-width="0.216715" stroke-linecap="round" stroke-linejoin="round"/>
<path d="M124.625 61.9098L124.82 58.1182" stroke="black" stroke-width="0.216715" stroke-linecap="round" stroke-linejoin="round"/>
<path d="M121.272 59.6091C121.272 59.6091 121.151 60.762 121.615 61.2888C121.996 61.7211 123.008 61.847 123.054 61.0519L123.237 57.6064" stroke="black" stroke-width="0.216715" stroke-linecap="round" stroke-linejoin="round"/>
<path d="M65.0279 63.7745C65.0279 63.7745 66.7456 66.6373 66.9875 68.8358C67.2293 71.0343 60.6366 77.2587 66.0069 81.6027C71.3788 85.9466 91.5744 84.3114 92.2585 78.1616C92.9442 72.0135 86.6 68.6387 86.5072 64.1622C86.3184 55.1827 84.0606 56.3821 82.873 54.568C81.6853 52.7522 76.3697 53.7893 76.1759 54.1141C75.9821 54.4388 65.0279 63.7728 65.0279 63.7728V63.7745Z" fill="black"/>
<path d="M91.2556 150H83.6094V124.842L83.997 124.247C86.7053 126.103 91.6813 122.479 91.6813 122.479C91.4892 125.588 91.0022 127.922 89.8526 130.611L91.2556 149.998V150Z" fill="black"/>
<path d="M71.263 111.867C71.263 111.867 70.0108 116.192 67.2544 120.891C64.4981 125.591 62.242 128.974 62.994 134.05C63.746 139.127 67.0556 149.967 67.0556 149.967H87.3655L88.5532 130.417C88.5532 130.417 93.6584 121.269 93.4431 109.736C93.4431 109.736 87.7399 106.411 71.263 111.865V111.867Z" fill="#2B478B"/>
<path d="M75.5674 118.982C75.5674 118.982 81.8802 119.43 83.2468 112.011H84.5007C84.5007 112.011 84.2191 116.177 81.539 118.944C78.8605 121.711 74.668 121.214 74.668 121.214L75.5658 118.984L75.5674 118.982Z" fill="black"/>
<path d="M77.2572 111.035C77.2572 111.035 76.5449 116.999 74.6648 121.213C72.7847 125.426 70.84 128.02 70.1278 131.196C69.4155 134.372 72.0078 149.967 72.0078 149.967" stroke="black" stroke-width="0.216715" stroke-linecap="round" stroke-linejoin="round"/>
<path d="M55.7898 86.4258L47.0022 93.2714L26.6559 89.7939L25.1055 94.4941C25.1055 94.4941 44.7478 103.235 47.9895 103.283C51.2312 103.329 62.2748 94.8553 62.2748 94.8553L55.7898 86.4274V86.4258Z" fill="url(#paint2_linear_23238_64778)"/>
<path d="M99.5744 94.0707C104.116 86.3006 101.84 79.4549 101.84 79.4549L86.5065 77.3873L75.7114 76.1646C75.7114 76.1646 70.5432 75.5086 67.9127 76.1646C65.2806 76.8224 54.5352 86.8042 54.5352 86.8042C54.5352 86.8042 59.1699 97.2052 65.1249 98.8338L69.0093 96.2658C69.0093 96.2658 71.5172 107.858 71.2638 111.867C71.2638 111.867 75.7843 113.088 84.7722 112.398C92.4085 111.809 93.4421 109.74 93.4421 109.74C93.4421 109.74 93.3792 101.155 93.2268 98.2075C93.5283 97.6028 94.3085 95.5385 94.9164 93.6449L99.5727 94.074L99.5744 94.0707Z" fill="#0374FF"/>
<path d="M79.5641 53.9968C72.766 51.1771 64.8713 58.1287 67.5034 64.5867C68.9942 68.2464 71.6794 70.4052 74.55 71.4787L73.6058 75.9652C73.6058 75.9652 75.1314 79.3747 79.0473 79.8138C82.4613 80.1965 83.6059 77.887 83.6059 77.887L81.6049 72.1298C83.1222 71.8465 84.3894 71.2832 85.1729 70.5394C88.3202 67.549 83.0179 55.4283 79.5658 53.9952L79.5641 53.9968Z" fill="url(#paint3_linear_23238_64778)"/>
<path d="M78.6088 55.347C78.6088 55.347 79.4469 58.031 77.9909 60.9717C75.4946 66.0115 67.3614 67.3203 67.3614 67.3203C67.3614 67.3203 62.5212 63.084 65.2875 56.6012C68.0538 50.1184 76.9805 48.3026 78.6104 52.2788C78.6104 52.2788 82.2215 50.183 82.8758 54.57C82.8758 54.57 81.3966 56.969 78.6104 55.3487L78.6088 55.347Z" fill="black"/>
<path d="M73.4563 62.6396C71.4686 66.3342 75.1128 68.8359 74.5562 71.48C74.5562 71.48 73.3321 72.0731 73.1565 72.0731C72.9809 72.0731 69.61 70.3451 69.61 70.3451L68.4869 68.7861L68.0977 65.3318L69.0485 62.8451" fill="black"/>
<path d="M71.6361 65.5893C71.6361 65.5893 70.3888 64.196 69.2558 65.2646C68.3331 66.136 69.0918 68.3511 71.1243 68.9309C71.82 69.1297 72.3998 68.7553 72.1066 68.0529C71.8598 67.4598 71.6726 66.421 71.6361 65.5893Z" fill="url(#paint4_linear_23238_64778)"/>
<path d="M72.805 93.5947L69.9377 100.919C69.4474 98.2783 69.0117 96.2637 69.0117 96.2637L72.805 93.5947Z" fill="black"/>
<path d="M96.5318 93.7892L94.9201 93.6418C95.3193 92.3943 95.6456 91.2196 95.7102 90.5851C95.8924 88.8124 94.8836 87.0761 93.7539 85.542C93.8897 85.6696 96.0763 87.7388 96.7455 89.7915C97.0784 90.8137 96.8532 92.4125 96.5318 93.7892Z" fill="black"/>
<path d="M81.6053 72.1304C81.6053 72.1304 78.4199 72.3755 76.1953 70.7754C76.1953 70.7754 78.14 74.4908 82.3855 74.3716L81.6053 72.1287V72.1304Z" fill="url(#paint5_linear_23238_64778)" style="mix-blend-mode:multiply"/>
<path d="M26.1304 100.918H9.78281C9.13514 100.918 8.56532 100.487 8.38807 99.8646L3.03273 80.9777C2.87868 80.4343 3.28783 79.8926 3.85268 79.8926H20.2003C20.848 79.8926 21.4178 80.3233 21.595 80.9463L26.952 99.8331C27.1061 100.376 26.6969 100.918 26.1321 100.918H26.1304Z" fill="#0668E1"/>
<path d="M26.9602 100.918H10.6109C9.96326 100.918 9.39344 100.487 9.2162 99.8646L3.86086 80.9777C3.70681 80.4343 4.11595 79.8926 4.68081 79.8926H21.0284C21.6761 79.8926 22.2459 80.3233 22.4232 80.9463L27.7802 99.8331C27.9342 100.376 27.5251 100.918 26.9602 100.918Z" fill="#AAD0FF"/>
<path d="M21.6163 88.5802H9.32369C8.72902 88.5802 8.11447 88.0981 7.95048 87.5035C7.78649 86.9088 8.13766 86.4268 8.73233 86.4268H21.0249C21.6196 86.4268 22.2342 86.9088 22.3981 87.5035C22.5621 88.0981 22.211 88.5802 21.6163 88.5802Z" fill="white"/>
<path d="M22.9054 93.085H10.6127C10.0181 93.085 9.40353 92.603 9.23954 92.0083C9.07555 91.4137 9.42672 90.9316 10.0214 90.9316H22.314C22.9087 90.9316 23.5232 91.4137 23.6872 92.0083C23.8512 92.603 23.5 93.085 22.9054 93.085Z" fill="white"/>
<path d="M28.3377 90.0822C28.3377 90.0822 26.6299 87.0769 26.0468 86.5915C25.4637 86.1061 21.4684 84.2936 21.2249 84.2621C20.6882 84.1909 20.5126 85.7631 21.1271 86.7422C21.7433 87.7214 24.7879 89.2969 24.7879 89.2969L25.7271 92.6071L28.3377 90.0839V90.0822Z" fill="url(#paint6_linear_23238_64778)"/>
<path d="M233.411 115.699C234.144 117.427 235.732 121.301 236.517 123.568C237.302 125.836 240.347 149.583 240.347 149.583H279.821C279.821 149.583 280.33 128.963 278.596 118.939L276.862 108.915L263.422 97.5361L249.223 101.332L240.347 100.846L233.411 115.699Z" fill="white"/>
<path d="M231.789 121.723L216.978 126.465" stroke="black" stroke-width="0.77565" stroke-miterlimit="10" stroke-linecap="round"/>
<path d="M227.394 138.722L236.369 120.872C238.655 116.32 241.29 106.234 236.779 103.924C232.268 101.613 225.323 104.235 223.038 108.787L211.057 130.354C208.771 134.906 210.572 140.47 215.089 142.774C219.588 145.085 225.102 143.268 227.394 138.722Z" fill="#0745B4"/>
<path d="M246.603 109.543L244.981 102.681L253.547 99.3105L250.64 109.543L251.692 138.094L247.06 143.566L243.351 138.589L246.603 109.543Z" fill="#0745B4"/>
<path d="M250.645 109.542H246.607" stroke="black" stroke-width="0.77565" stroke-miterlimit="10"/>
<path d="M255.926 149.577C256.297 139.562 259.92 107.736 263.431 97.5293L269.702 98.4413L279.32 149.577H255.926Z" fill="#0745B4"/>
<path d="M263.426 97.5293L253.825 108.361L248.675 101.273L244.517 107.901L240.35 100.847" stroke="black" stroke-width="0.77565" stroke-miterlimit="10" stroke-linecap="round"/>
<path d="M248.675 101.276L259.923 93.7881L263.426 97.5318L253.825 108.363L248.675 101.276Z" fill="white"/>
<path d="M242.488 97.3291L248.664 101.273L244.506 107.9L240.34 100.847L242.488 97.3291Z" fill="white"/>
<path d="M240.77 100.122C240.77 100.122 240.078 114.024 240.475 125.263C240.872 136.495 242.105 149.585 242.105 149.585C242.105 149.585 237.119 149.793 237.042 149.585C236.964 149.376 234.023 127.947 233.626 125.333C233.229 122.718 230.779 117.455 230.779 117.455L232.047 103.065L240.77 100.122Z" fill="#0745B4"/>
<path d="M237.031 149.577C236.954 149.36 234.012 127.94 233.615 125.326C233.218 122.711 230.769 117.447 230.769 117.447" stroke="black" stroke-width="0.387825" stroke-miterlimit="10"/>
<path d="M240.711 134.714C240.711 134.714 234.862 117.967 235.302 102.358" stroke="black" stroke-width="0.387825" stroke-miterlimit="10"/>
<path d="M249.892 135.942C245.958 136.49 241.964 137.046 238.324 138.722C234.994 140.251 233.26 141.441 231.069 144.49C230.758 144.915 229.482 146.505 229.913 147.017C230.258 147.443 230.983 147.391 231.414 147.286C232.087 147.938 232.699 147.851 233.622 147.391C233.872 147.886 235.089 147.886 236.245 147.512C236.641 147.912 237.401 148.225 238.574 148.146L246.639 147.391L255.016 147.286" fill="#FFA9A9"/>
<path d="M268.334 98.4189C268.334 98.4189 276.883 98.4797 279.833 99.4352C283.543 100.634 285.76 107.531 287.511 116.999C289.961 130.193 289.598 133.876 289.857 136.534C290.383 141.876 289.935 150.075 279.98 150.075C265.117 150.075 251.599 149.954 251.599 149.954L248.088 135.613L270.5 132.634L268.386 114.61" fill="#0745B4"/>
<path d="M236.244 147.514C236.244 147.514 238.28 145.672 240.221 145.342C242.161 145.012 244.715 144.726 244.715 144.726" stroke="black" stroke-width="0.387825" stroke-miterlimit="10"/>
<path d="M242.105 142.347C242.105 142.347 238.163 143.25 236.654 144.11C235.144 144.97 233.626 147.393 233.626 147.393" stroke="black" stroke-width="0.387825" stroke-miterlimit="10"/>
<path d="M239.41 140.342C239.41 140.342 235.209 141.61 233.63 143.373C232.638 144.511 231.888 145.849 231.422 147.282" stroke="black" stroke-width="0.387825" stroke-miterlimit="10"/>
<path d="M268.598 99.2822C268.598 99.2822 264.996 121.055 259.425 133.756" stroke="black" stroke-width="0.387825" stroke-miterlimit="10"/>
<path d="M248.097 135.622L270.5 132.652L268.395 114.619" stroke="black" stroke-width="0.387825" stroke-miterlimit="10"/>
<path d="M270.509 132.65C270.509 132.65 275.09 131.747 279.895 134.014" stroke="black" stroke-width="0.387825" stroke-miterlimit="10"/>
<path d="M250.521 144.841H256.258" stroke="black" stroke-width="0.77565" stroke-miterlimit="10"/>
<path d="M252.388 141.656L252.805 142.917" stroke="black" stroke-width="0.77565" stroke-miterlimit="10"/>
<path d="M255.001 141.656L255.418 142.917" stroke="black" stroke-width="0.77565" stroke-miterlimit="10"/>
<path d="M256.921 85.7261L260.906 97.0963C260.906 97.0963 252.642 101.926 248.674 101.274C244.706 100.623 243.515 99.6066 243.515 99.6066L242.489 89.7825L255.92 84.2234L257.801 83.5459L256.921 85.7261Z" fill="#FFA9A9"/>
<path d="M243.567 99.4992C243.567 99.4992 253.629 93.7401 252.813 92.6444C251.453 90.1751 243.023 94.2913 243.023 94.2913L243.567 99.4992Z" fill="url(#paint7_linear_23238_64778)"/>
<path d="M240.917 92.9587C238.795 89.684 238.726 83.9686 239.046 79.9295C239.253 77.2715 239.917 75.0045 241.892 73.2846C245.11 70.479 251.217 68.6723 254.763 72.2249C257.73 75.1956 258.438 79.5386 257.808 83.5256C257.316 86.6439 256.497 88.772 254.461 91.1259C252.416 93.4799 248.095 95.6427 245.067 95.304C243.186 95.0781 241.927 94.5135 240.917 92.9587Z" fill="#FFA9A9"/>
<path d="M233.339 76.4236C233.296 76.328 233.253 76.2412 233.209 76.1369C232.528 74.4692 233.115 72.3063 234.624 71.3943C235.314 70.9774 236.134 70.8123 236.815 70.3954C238.247 69.5007 238.799 67.6245 240.067 66.4953C242.414 64.3846 245.64 66.2695 248.314 66.3824C249.599 66.4345 250.885 66.3824 252.179 66.4519C254.18 66.5561 256.216 66.9991 257.924 68.1023C260.822 69.9698 262.401 73.5224 262.608 77.0055C262.815 80.4887 262.341 84.6493 258.45 90.1129C257.182 88.0369 256.923 82.8687 255.655 80.7927C255.517 80.5669 256.457 80.4279 256.268 80.2455C256.018 80.0196 255.741 79.8372 255.44 79.6982C254.577 79.2552 253.68 78.7949 252.722 78.7949C251.911 78.7949 251.092 79.125 250.315 78.8818C249.367 78.5777 248.832 77.5093 248.694 76.5017C248.582 75.6679 248.504 74.5734 247.719 74.3215C246.649 73.9741 245.951 75.6592 244.838 75.7634C244.467 75.7982 244.104 75.6418 243.751 75.5289C242.957 75.2857 242.069 75.2249 241.284 75.4942C240.645 75.7374 240.119 76.2238 239.834 76.8579C239.403 77.7526 238.868 78.1087 237.868 78.4387C236.134 78.986 234.124 77.9958 233.339 76.4236Z" fill="#1B140F"/>
<path d="M254.066 81.7981C254.412 80.3823 255.697 79.4007 256.741 79.4355C258.285 79.4876 259.225 80.9382 259.484 82.3019C259.734 83.4919 259.553 84.734 258.984 85.8024C258.423 86.8795 257.137 88.139 255.895 88.0608C255.05 88 254.463 87.0619 254.291 86.3149" fill="#FFA9A9"/>
<path d="M256.086 84.9893C256.086 84.9893 256.299 84.2143 256.642 83.8682C256.985 83.522 257.754 83.3076 257.754 83.3076" stroke="#1B1C17" stroke-width="0.387825" stroke-miterlimit="10" stroke-linecap="round"/>
<path d="M254.286 86.6462C254.502 87.0284 255.149 88.3227 256.477 88.0447C257.081 87.9231 258.878 86.3972 259.836 84.1475" stroke="black" stroke-width="0.387825" stroke-miterlimit="10"/>
<path d="M242.011 81.5479C241.847 82.3817 241.709 85.1873 241.649 86.0473C241.623 86.3773 241.64 86.7769 241.908 86.968C242.089 87.0722 242.296 87.107 242.503 87.0722C243.159 87.0114 243.805 86.8638 244.418 86.6206" stroke="black" stroke-width="0.387825" stroke-miterlimit="10" stroke-linecap="round"/>
<path d="M249.023 78.6273C247.695 77.8542 246.211 77.3765 244.676 77.2549" stroke="black" stroke-width="0.77565" stroke-miterlimit="10" stroke-linecap="round"/>
<path d="M241.055 77.9004C239.968 78.2652 238.838 78.6648 238.096 79.6376" stroke="black" stroke-width="0.77565" stroke-miterlimit="10" stroke-linecap="round"/>
<path d="M244.863 81.4079C244.863 81.9117 245.104 82.3373 245.415 82.346C245.725 82.3634 245.976 81.9551 245.984 81.4513C245.993 80.9475 245.743 80.5219 245.432 80.5132C245.122 80.4959 244.871 80.8954 244.863 81.4079Z" fill="black"/>
<path d="M239.394 82.5466C239.394 83.0504 239.636 83.476 239.946 83.4847C240.257 83.5021 240.507 83.0938 240.515 82.59C240.524 82.0862 240.274 81.6606 239.963 81.6519C239.653 81.6345 239.403 82.0341 239.394 82.5466Z" fill="black"/>
<path d="M242.211 89.9375C242.211 89.9375 244.001 89.8923 244.93 89.6632C245.951 89.4116 246.834 88.8407 246.834 88.8407C246.834 88.8407 247.587 90.7551 245.264 91.4335C242.939 92.1117 242.211 89.9375 242.211 89.9375Z" fill="white"/>
<path d="M239.145 86.2295C238.117 86.1776 237.354 84.7218 237.441 82.9778C237.528 81.2338 238.432 79.8621 239.46 79.9139C240.487 79.9658 241.25 81.4216 241.163 83.1656C241.076 84.9096 240.172 86.2813 239.145 86.2295Z" stroke="#F17D52" stroke-width="0.5" stroke-miterlimit="10"/>
<path d="M248.133 80.8225C248.237 82.551 247.219 84.2275 245.865 84.5749C244.51 84.9224 243.328 83.8018 243.234 82.0733C243.139 80.3448 244.148 78.6683 245.502 78.3209C246.857 77.9648 248.038 79.0853 248.133 80.8225Z" stroke="#F17D52" stroke-width="0.5" stroke-miterlimit="10"/>
<path d="M240.957 81.4351L243.355 80.8184" stroke="#F17D52" stroke-width="0.5" stroke-miterlimit="10"/>
<path d="M248.083 79.8359L254.656 80.6698" stroke="#F17D52" stroke-width="0.5" stroke-miterlimit="10"/>
<path d="M191.306 122.789C190.579 122.789 190.012 123.652 190.348 124.478V124.479L200.715 150.25H262.224C263.242 150.25 264.118 149.398 264.229 148.248H242.309L242.246 148.092L232.455 123.753L232.451 123.744C232.266 123.225 231.795 122.859 231.252 122.797L231.142 122.789H191.306Z" fill="#C4D8FF" stroke="#0668E1" stroke-width="0.5"/>
<path d="M232.961 144.013C232.961 146.165 234.372 147.61 236.475 147.61H237.329C237.363 148.934 238.443 150 239.777 150H246.848C248.201 150 249.298 148.903 249.298 147.549V138.026H237.326V139.964H236.049C234.854 139.964 233.798 140.655 233.353 141.726C233.092 142.353 232.961 143.125 232.961 144.016V144.013ZM234.224 144.013C234.224 143.288 234.324 142.682 234.521 142.207C234.764 141.621 235.377 141.227 236.049 141.227H237.326V146.35H236.475C235.085 146.35 234.224 145.454 234.224 144.016V144.013Z" fill="white"/>
<path d="M114.551 141.723C114.108 140.652 113.049 139.961 111.855 139.961H110.577V138.023H98.6055V147.546C98.6055 148.9 99.7029 149.997 101.056 149.997H108.127C109.46 149.997 110.541 148.934 110.575 147.607H111.429C113.531 147.607 114.943 146.162 114.943 144.01C114.943 143.12 114.811 142.348 114.551 141.72V141.723ZM111.429 146.347H110.577V141.224H111.855C112.526 141.224 113.14 141.618 113.383 142.205C113.58 142.679 113.68 143.285 113.68 144.01C113.68 145.451 112.816 146.344 111.429 146.344V146.347Z" fill="white"/>
<path d="M1 149H327V163C327 171.837 319.837 179 311 179H17C8.16345 179 1 171.837 1 163V149Z" fill="white"/>
<path d="M76.672 170H69.312V158.832H76.672V160.704H71.424V163.424H76.064V165.28H71.424V168.128H76.672V170ZM80.8258 170H78.7778V161.648H80.8258V163.04H80.9058C81.0658 162.603 81.3218 162.229 81.6738 161.92C82.0364 161.611 82.5271 161.456 83.1458 161.456C83.7218 161.456 84.2178 161.595 84.6338 161.872C85.0604 162.149 85.3698 162.571 85.5618 163.136H85.5938C85.7431 162.677 86.0418 162.283 86.4898 161.952C86.9378 161.621 87.4924 161.456 88.1538 161.456C88.9644 161.456 89.5938 161.744 90.0418 162.32C90.4898 162.885 90.7138 163.685 90.7138 164.72V170H88.6658V164.928C88.6658 164.331 88.5538 163.883 88.3298 163.584C88.1164 163.285 87.7804 163.136 87.3218 163.136C87.0551 163.136 86.7991 163.189 86.5538 163.296C86.3191 163.392 86.1271 163.541 85.9778 163.744C85.8391 163.936 85.7698 164.181 85.7698 164.48V170H83.7218V164.928C83.7218 164.331 83.6098 163.883 83.3858 163.584C83.1618 163.285 82.8258 163.136 82.3778 163.136C82.1218 163.136 81.8711 163.189 81.6258 163.296C81.3911 163.392 81.1991 163.541 81.0498 163.744C80.9004 163.936 80.8258 164.181 80.8258 164.48V170ZM92.9809 173.2V161.648H95.0289V163.024H95.0929C95.2422 162.544 95.5249 162.165 95.9409 161.888C96.3675 161.6 96.8529 161.456 97.3969 161.456C98.1115 161.456 98.7089 161.627 99.1889 161.968C99.6689 162.309 100.037 162.805 100.293 163.456C100.549 164.096 100.677 164.88 100.677 165.808C100.677 166.736 100.549 167.531 100.293 168.192C100.037 168.843 99.6689 169.339 99.1889 169.68C98.7089 170.021 98.1115 170.192 97.3969 170.192C96.8529 170.192 96.3729 170.048 95.9569 169.76C95.5409 169.472 95.2529 169.088 95.0929 168.608H95.0289V173.2H92.9809ZM96.7409 168.496C97.2742 168.496 97.7062 168.32 98.0369 167.968C98.3675 167.605 98.5329 167.131 98.5329 166.544V165.104C98.5329 164.507 98.3675 164.032 98.0369 163.68C97.7062 163.317 97.2742 163.136 96.7409 163.136C96.4209 163.136 96.1275 163.195 95.8609 163.312C95.6049 163.419 95.4022 163.573 95.2529 163.776C95.1035 163.979 95.0289 164.213 95.0289 164.48V167.136C95.0289 167.424 95.1035 167.669 95.2529 167.872C95.4022 168.075 95.6049 168.229 95.8609 168.336C96.1275 168.443 96.4209 168.496 96.7409 168.496ZM105.727 170H104.623C103.929 170 103.412 169.824 103.071 169.472C102.74 169.12 102.575 168.624 102.575 167.984V158.16H104.623V168.368H105.727V170ZM110.59 170.192C109.8 170.192 109.112 170.016 108.526 169.664C107.95 169.301 107.502 168.795 107.182 168.144C106.872 167.483 106.718 166.704 106.718 165.808C106.718 164.912 106.872 164.144 107.182 163.504C107.502 162.853 107.95 162.352 108.526 162C109.112 161.637 109.8 161.456 110.59 161.456C111.39 161.456 112.078 161.637 112.654 162C113.24 162.352 113.688 162.853 113.998 163.504C114.318 164.144 114.478 164.912 114.478 165.808C114.478 166.704 114.318 167.483 113.998 168.144C113.688 168.795 113.24 169.301 112.654 169.664C112.078 170.016 111.39 170.192 110.59 170.192ZM110.59 168.544C111.134 168.544 111.56 168.379 111.87 168.048C112.179 167.707 112.334 167.221 112.334 166.592V165.04C112.334 164.411 112.179 163.931 111.87 163.6C111.56 163.269 111.134 163.104 110.59 163.104C110.067 163.104 109.646 163.269 109.326 163.6C109.016 163.931 108.862 164.411 108.862 165.04V166.592C108.862 167.221 109.016 167.707 109.326 168.048C109.646 168.379 110.067 168.544 110.59 168.544ZM119.817 166.064L121.273 161.648H123.193L119.833 171.488C119.694 171.883 119.529 172.208 119.337 172.464C119.145 172.72 118.894 172.907 118.585 173.024C118.286 173.141 117.907 173.2 117.449 173.2H116.217V171.568H117.721L118.105 170.4L115.113 161.648H117.145L118.601 166.064L119.145 168.176H119.241L119.817 166.064ZM127.81 170.192C126.989 170.192 126.285 170.016 125.698 169.664C125.111 169.301 124.658 168.795 124.338 168.144C124.029 167.483 123.874 166.704 123.874 165.808C123.874 164.933 124.029 164.171 124.338 163.52C124.647 162.859 125.09 162.352 125.666 162C126.242 161.637 126.935 161.456 127.746 161.456C128.621 161.456 129.335 161.648 129.89 162.032C130.455 162.416 130.871 162.928 131.138 163.568C131.415 164.197 131.554 164.896 131.554 165.664V166.336H126.002V166.544C126.002 167.141 126.173 167.627 126.514 168C126.855 168.373 127.362 168.56 128.034 168.56C128.535 168.56 128.951 168.453 129.282 168.24C129.613 168.016 129.906 167.744 130.162 167.424L131.266 168.656C130.925 169.115 130.455 169.488 129.858 169.776C129.271 170.053 128.589 170.192 127.81 170.192ZM127.778 162.992C127.415 162.992 127.101 163.077 126.834 163.248C126.567 163.408 126.359 163.637 126.21 163.936C126.071 164.224 126.002 164.56 126.002 164.944V165.072H129.426V164.928C129.426 164.533 129.362 164.197 129.234 163.92C129.106 163.632 128.919 163.408 128.674 163.248C128.429 163.077 128.13 162.992 127.778 162.992ZM135.404 170H133.356V161.648H135.404V163.376H135.484C135.559 163.077 135.681 162.8 135.852 162.544C136.033 162.277 136.273 162.064 136.572 161.904C136.881 161.733 137.255 161.648 137.692 161.648H138.14V163.584H137.5C137.041 163.584 136.652 163.632 136.332 163.728C136.023 163.813 135.788 163.952 135.628 164.144C135.479 164.325 135.404 164.571 135.404 164.88V170Z" fill="#2C2C2C"/>
<path d="M167.001 164H176.723" stroke="#0668E1" stroke-width="1.24993" stroke-linecap="round" stroke-linejoin="round"/>
<path d="M173.111 161L177 164L173.111 167" stroke="#0668E1" stroke-width="1.24993" stroke-linecap="round" stroke-linejoin="round"/>
<path d="M162.999 164H153.277" stroke="#0668E1" stroke-width="1.24993" stroke-linecap="round" stroke-linejoin="round"/>
<path d="M156.889 161L153 164L156.889 167" stroke="#0668E1" stroke-width="1.24993" stroke-linecap="round" stroke-linejoin="round"/>
<path d="M194.424 165.696V170H192.312V158.832H197.352C198.035 158.832 198.621 158.976 199.112 159.264C199.603 159.541 199.981 159.941 200.248 160.464C200.515 160.976 200.648 161.584 200.648 162.288C200.648 163.045 200.472 163.707 200.12 164.272C199.779 164.827 199.261 165.221 198.568 165.456L200.856 170H198.504L196.424 165.696H194.424ZM194.424 163.92H197.144C197.421 163.92 197.656 163.872 197.848 163.776C198.04 163.669 198.189 163.525 198.296 163.344C198.403 163.152 198.456 162.923 198.456 162.656V161.92C198.456 161.643 198.403 161.413 198.296 161.232C198.189 161.051 198.04 160.912 197.848 160.816C197.656 160.72 197.421 160.672 197.144 160.672H194.424V163.92ZM205.951 170.192C205.129 170.192 204.425 170.016 203.839 169.664C203.252 169.301 202.799 168.795 202.479 168.144C202.169 167.483 202.015 166.704 202.015 165.808C202.015 164.933 202.169 164.171 202.479 163.52C202.788 162.859 203.231 162.352 203.807 162C204.383 161.637 205.076 161.456 205.887 161.456C206.761 161.456 207.476 161.648 208.031 162.032C208.596 162.416 209.012 162.928 209.279 163.568C209.556 164.197 209.695 164.896 209.695 165.664V166.336H204.143V166.544C204.143 167.141 204.313 167.627 204.655 168C204.996 168.373 205.503 168.56 206.175 168.56C206.676 168.56 207.092 168.453 207.423 168.24C207.753 168.016 208.047 167.744 208.303 167.424L209.407 168.656C209.065 169.115 208.596 169.488 207.999 169.776C207.412 170.053 206.729 170.192 205.951 170.192ZM205.919 162.992C205.556 162.992 205.241 163.077 204.975 163.248C204.708 163.408 204.5 163.637 204.351 163.936C204.212 164.224 204.143 164.56 204.143 164.944V165.072H207.567V164.928C207.567 164.533 207.503 164.197 207.375 163.92C207.247 163.632 207.06 163.408 206.815 163.248C206.569 163.077 206.271 162.992 205.919 162.992ZM214.793 170.192C213.555 170.192 212.601 169.797 211.929 169.008C211.267 168.219 210.937 167.152 210.937 165.808C210.937 164.475 211.267 163.419 211.929 162.64C212.601 161.851 213.555 161.456 214.793 161.456C215.635 161.456 216.329 161.643 216.873 162.016C217.427 162.389 217.827 162.907 218.073 163.568L216.393 164.32C216.297 163.968 216.115 163.68 215.849 163.456C215.582 163.221 215.23 163.104 214.793 163.104C214.227 163.104 213.801 163.285 213.513 163.648C213.225 164 213.081 164.475 213.081 165.072V166.592C213.081 167.168 213.225 167.637 213.513 168C213.801 168.363 214.227 168.544 214.793 168.544C215.273 168.544 215.646 168.421 215.913 168.176C216.19 167.92 216.403 167.605 216.553 167.232L218.121 167.984C217.854 168.72 217.433 169.275 216.857 169.648C216.291 170.011 215.603 170.192 214.793 170.192ZM221.748 170H219.7V161.648H221.748V163.376H221.828C221.902 163.077 222.025 162.8 222.196 162.544C222.377 162.277 222.617 162.064 222.916 161.904C223.225 161.733 223.598 161.648 224.036 161.648H224.484V163.584H223.844C223.385 163.584 222.996 163.632 222.676 163.728C222.366 163.813 222.132 163.952 221.972 164.144C221.822 164.325 221.748 164.571 221.748 164.88V170ZM230.973 170V168.608H230.893C230.754 169.024 230.504 169.392 230.141 169.712C229.778 170.032 229.25 170.192 228.557 170.192C227.704 170.192 227.042 169.909 226.573 169.344C226.114 168.768 225.885 167.963 225.885 166.928V161.648H227.933V166.72C227.933 167.296 228.045 167.739 228.269 168.048C228.493 168.347 228.85 168.496 229.341 168.496C229.608 168.496 229.864 168.448 230.109 168.352C230.365 168.256 230.573 168.112 230.733 167.92C230.893 167.717 230.973 167.467 230.973 167.168V161.648H233.021V170H230.973ZM236.411 160.432C235.995 160.432 235.691 160.336 235.499 160.144C235.307 159.941 235.211 159.696 235.211 159.408V159.088C235.211 158.789 235.307 158.544 235.499 158.352C235.691 158.16 235.995 158.064 236.411 158.064C236.827 158.064 237.131 158.16 237.323 158.352C237.515 158.544 237.611 158.789 237.611 159.088V159.408C237.611 159.696 237.515 159.941 237.323 160.144C237.131 160.336 236.827 160.432 236.411 160.432ZM235.387 170V161.648H237.435V170H235.387ZM243.873 170H242.401C241.697 170 241.159 169.819 240.785 169.456C240.423 169.083 240.241 168.555 240.241 167.872V163.264H239.009V161.648H239.649C239.959 161.648 240.167 161.579 240.273 161.44C240.391 161.291 240.449 161.072 240.449 160.784V159.36H242.289V161.648H244.001V163.264H242.289V168.368H243.873V170ZM249.091 170.192C248.27 170.192 247.566 170.016 246.979 169.664C246.393 169.301 245.939 168.795 245.619 168.144C245.31 167.483 245.155 166.704 245.155 165.808C245.155 164.933 245.31 164.171 245.619 163.52C245.929 162.859 246.371 162.352 246.947 162C247.523 161.637 248.217 161.456 249.027 161.456C249.902 161.456 250.617 161.648 251.171 162.032C251.737 162.416 252.153 162.928 252.419 163.568C252.697 164.197 252.835 164.896 252.835 165.664V166.336H247.283V166.544C247.283 167.141 247.454 167.627 247.795 168C248.137 168.373 248.643 168.56 249.315 168.56C249.817 168.56 250.233 168.453 250.563 168.24C250.894 168.016 251.187 167.744 251.443 167.424L252.547 168.656C252.206 169.115 251.737 169.488 251.139 169.776C250.553 170.053 249.87 170.192 249.091 170.192ZM249.059 162.992C248.697 162.992 248.382 163.077 248.115 163.248C247.849 163.408 247.641 163.637 247.491 163.936C247.353 164.224 247.283 164.56 247.283 164.944V165.072H250.707V164.928C250.707 164.533 250.643 164.197 250.515 163.92C250.387 163.632 250.201 163.408 249.955 163.248C249.71 163.077 249.411 162.992 249.059 162.992ZM256.685 170H254.637V161.648H256.685V163.376H256.765C256.84 163.077 256.962 162.8 257.133 162.544C257.314 162.277 257.554 162.064 257.853 161.904C258.162 161.733 258.536 161.648 258.973 161.648H259.421V163.584H258.781C258.322 163.584 257.933 163.632 257.613 163.728C257.304 163.813 257.069 163.952 256.909 164.144C256.76 164.325 256.685 164.571 256.685 164.88V170Z" fill="#0668E1"/>
<defs>
<linearGradient id="paint0_linear_23238_64778" x1="164" y1="0" x2="164" y2="150" gradientUnits="userSpaceOnUse">
<stop stop-color="#EAF0FF"/>
<stop offset="1" stop-color="#F4F8FF"/>
</linearGradient>
<linearGradient id="paint1_linear_23238_64778" x1="125.315" y1="47.9417" x2="107.681" y2="82.6877" gradientUnits="userSpaceOnUse">
<stop stop-color="#FFD2B6"/>
<stop offset="1" stop-color="#FFB793"/>
</linearGradient>
<linearGradient id="paint2_linear_23238_64778" x1="29.3808" y1="93.5166" x2="53.3647" y2="94.9426" gradientUnits="userSpaceOnUse">
<stop stop-color="#FFD2B6"/>
<stop offset="1" stop-color="#FFB793"/>
</linearGradient>
<linearGradient id="paint3_linear_23238_64778" x1="76.5576" y1="58.3093" x2="76.5576" y2="86.2071" gradientUnits="userSpaceOnUse">
<stop stop-color="#FFD2B6"/>
<stop offset="1" stop-color="#FFB793"/>
</linearGradient>
<linearGradient id="paint4_linear_23238_64778" x1="68.8665" y1="66.923" x2="72.1828" y2="66.923" gradientUnits="userSpaceOnUse">
<stop stop-color="#FFD2B6"/>
<stop offset="1" stop-color="#FFB793"/>
</linearGradient>
<linearGradient id="paint5_linear_23238_64778" x1="79.2912" y1="71.4479" x2="79.2912" y2="75.2379" gradientUnits="userSpaceOnUse">
<stop stop-color="#FFD2B6"/>
<stop offset="1" stop-color="#FFB793"/>
</linearGradient>
<linearGradient id="paint6_linear_23238_64778" x1="29.6612" y1="88.7999" x2="53.6435" y2="90.2259" gradientUnits="userSpaceOnUse">
<stop stop-color="#FFD2B6"/>
<stop offset="1" stop-color="#FFB793"/>
</linearGradient>
<linearGradient id="paint7_linear_23238_64778" x1="244.166" y1="99.6663" x2="250.833" y2="92.1663" gradientUnits="userSpaceOnUse">
<stop stop-color="#FFA9A9"/>
<stop offset="1" stop-color="#FF9494"/>
</linearGradient>
</defs>
</svg>
