<svg xmlns="http://www.w3.org/2000/svg" width="328" height="180" fill="none" xmlns:v="https://vecta.io/nano"><style><![CDATA[.B{stroke:#000}.C{stroke-linecap:round}.D{stroke-miterlimit:10}.E{stroke-width:.776}.F{stroke:#0668e1}.G{fill:#0745b4}.H{fill:#ffa9a9}.I{stroke-linejoin:round}.J{fill:#0668e1}.K{stroke-width:.388}.L{stroke-width:.5}.M{stroke-width:.217}]]></style><rect x=".5" y=".5" width="327" height="179" rx="15.5" fill="url(#A)"/><rect x=".5" y=".5" width="327" height="179" rx="15.5" class="F"/><path d="M93.447 109.737s3.861 11.346 5.806 18.995l5.471 21.267H83.609v-25.157l9.836-15.105h.002z" fill="#2b478b"/><path d="M126.405 61.549v.005c-.021.946-.608 1.302-1.367.963-.293-.133-.397-.331-.409-.355v-.003c-.618.964-1.572-.137-1.572-.137-.19.505-.634.853-1.04.924l-1.315 2.848c-1.387 4.289-6.502 19.765-9.639 24.772-1.069 1.705-14.317-.167-14.317-.167l4.267-10.689 4.014.489 9.929-17.2 1.023-2.576s1.935-5.505 2.208-6.814 2.712-4.256 4.566-6.935c1.081-1.562 2.295-.204 1.389 2.096l-1.794 4.506s3.62 2.828 3.979 3.486c.26.475.196 3.111.078 4.791v-.002z" fill="url(#B)"/><path d="M117.027 58.831s.617-2.107 1.977-3.047 2.415-1.151 3.079-1.589 1.378.033 1.085 1.006c-.28.933-1.945 2.593-1.945 2.593s.734 1.897-.972 3.388m4.374.728l.195-3.792m-3.548 1.491s-.121 1.153.343 1.68c.381.432 1.393.558 1.439-.237l.183-3.446" class="B C I M"/><path d="M65.028 63.775s1.718 2.863 1.96 5.061-6.351 8.423-.981 12.767 25.567 2.709 26.252-3.441-5.659-9.523-5.751-13.999c-.189-8.98-2.447-7.78-3.634-9.594s-6.503-.779-6.697-.454-11.148 9.659-11.148 9.659v.002zM91.256 150H83.61v-25.158l.388-.595c2.708 1.856 7.684-1.768 7.684-1.768-.192 3.109-.679 5.443-1.829 8.132l1.403 19.387V150z" fill="#000"/><path d="M71.263 111.867s-1.252 4.325-4.009 9.024-5.012 8.083-4.26 13.159 4.062 15.917 4.062 15.917h20.31l1.188-19.55s5.105-9.148 4.89-20.681c0 0-5.703-3.325-22.18 2.129v.002z" fill="#2b478b"/><path d="M75.567 118.982s6.313.448 7.679-6.971h1.254s-.282 4.166-2.962 6.933-6.871 2.27-6.871 2.27l.898-2.23.002-.002z" fill="#000"/><path d="M77.257 111.035s-.712 5.964-2.592 10.178-3.825 6.807-4.537 9.983 1.88 18.771 1.88 18.771" class="B C I M"/><path d="M55.79 86.426l-8.788 6.846-20.346-3.478-1.55 4.7s19.642 8.741 22.884 8.789 14.285-8.428 14.285-8.428l-6.485-8.428v-.002z" fill="url(#C)"/><path d="M99.574 94.071c4.542-7.77 2.266-14.616 2.266-14.616l-15.333-2.068-10.795-1.223s-5.168-.656-7.799 0-13.377 10.64-13.377 10.64 4.635 10.401 10.59 12.03l3.884-2.568s2.508 11.592 2.255 15.601c0 0 4.52 1.221 13.508.531 7.636-.589 8.67-2.658 8.67-2.658l-.215-11.532c.302-.605 1.082-2.669 1.69-4.563l4.656.429.002-.003z" fill="#0374ff"/><path d="M79.564 53.997c-6.798-2.82-14.693 4.132-12.061 10.59 1.491 3.66 4.176 5.819 7.047 6.892l-.944 4.486s1.526 3.41 5.442 3.849c3.414.383 4.559-1.927 4.559-1.927l-2.001-5.757c1.517-.283 2.784-.847 3.568-1.59 3.147-2.99-2.155-15.111-5.607-16.544l-.002.002z" fill="url(#D)"/><g fill="#000"><path d="M78.609 55.347s.838 2.684-.618 5.625c-2.496 5.04-10.629 6.349-10.629 6.349s-4.84-4.236-2.074-10.719 11.693-8.299 13.323-4.322c0 0 3.611-2.096 4.265 2.291 0 0-1.479 2.399-4.265.779l-.002-.002z"/><path d="M73.456 62.64c-1.988 3.695 1.656 6.196 1.1 8.84 0 0-1.224.593-1.4.593s-3.546-1.728-3.546-1.728l-1.123-1.559-.389-3.454.951-2.487"/></g><path d="M71.636 65.589s-1.247-1.393-2.38-.325c-.923.871-.164 3.087 1.869 3.666.696.199 1.275-.176.982-.878-.247-.593-.434-1.632-.471-2.464z" fill="url(#E)"/><path d="M72.805 93.595l-2.867 7.324-.926-4.655 3.793-2.669zm23.727.194l-1.612-.147c.399-1.248.725-2.422.79-3.057.182-1.773-.827-3.509-1.956-5.043.136.128 2.322 2.197 2.992 4.249.333 1.022.108 2.621-.214 3.998z" fill="#000"/><path d="M81.605 72.13s-3.185.245-5.41-1.355c0 0 1.945 3.715 6.19 3.596l-.78-2.243v.002z" fill="url(#F)" style="mix-blend-mode:multiply"/><path d="M26.13 100.918H9.783a1.45 1.45 0 0 1-1.395-1.053L3.033 80.978c-.154-.543.255-1.085.82-1.085H20.2a1.45 1.45 0 0 1 1.395 1.054l5.357 18.887c.154.543-.255 1.085-.82 1.085h-.002z" class="J"/><path d="M26.96 100.918H10.611a1.45 1.45 0 0 1-1.395-1.053L3.861 80.978c-.154-.543.255-1.085.82-1.085h16.348a1.45 1.45 0 0 1 1.395 1.054l5.357 18.887c.154.543-.255 1.085-.82 1.085z" fill="#aad0ff"/><path d="M21.616 88.58H9.324c-.595 0-1.209-.482-1.373-1.077s.187-1.077.782-1.077h12.293c.595 0 1.209.482 1.373 1.077s-.187 1.077-.782 1.077zm1.289 4.505H10.613c-.595 0-1.209-.482-1.373-1.077s.187-1.077.782-1.077h12.293c.595 0 1.209.482 1.373 1.077s-.187 1.077-.782 1.077z" fill="#fff"/><path d="M28.338 90.082s-1.708-3.005-2.291-3.491-4.578-2.298-4.822-2.329c-.537-.071-.712 1.501-.098 2.48s3.661 2.555 3.661 2.555l.939 3.31 2.611-2.523v-.002z" fill="url(#G)"/><path d="M233.411 115.699l3.106 7.869c.785 2.268 3.83 26.015 3.83 26.015h39.474s.509-20.62-1.225-30.644l-1.734-10.024-13.44-11.379-14.199 3.796-8.876-.486-6.936 14.853z" fill="#fff"/><path d="M231.789 121.723l-14.811 4.742" class="B C D E"/><path d="M227.394 138.722l8.975-17.85c2.286-4.552 4.921-14.638.41-16.948s-11.456.311-13.741 4.863l-11.981 21.567c-2.286 4.552-.485 10.116 4.032 12.42 4.499 2.311 10.013.494 12.305-4.052zm19.209-29.179l-1.622-6.862 8.566-3.37-2.907 10.233 1.052 28.551-4.632 5.472-3.709-4.977 3.252-29.046z" class="G"/><path d="M250.645 109.542h-4.038" class="B D E"/><path d="M255.926 149.577c.371-10.015 3.994-41.841 7.505-52.048l6.271.912 9.618 51.136h-23.394z" class="G"/><path d="M263.426 97.529l-9.601 10.832-5.15-7.088-4.158 6.628-4.167-7.054" class="B C D E"/><path d="M248.675 101.276l11.248-7.488 3.503 3.744-9.601 10.831-5.15-7.087zm-6.187-3.947l6.176 3.944-4.158 6.627-4.166-7.053 2.148-3.518z" fill="#fff"/><path d="M240.77 100.122s-.692 13.902-.295 25.141c.397 11.232 1.63 24.322 1.63 24.322s-4.986.208-5.063 0-3.019-21.638-3.416-24.252-2.847-7.878-2.847-7.878l1.268-14.39 8.723-2.943z" class="G"/><path d="M237.031 149.577c-.077-.217-3.019-21.637-3.416-24.251s-2.846-7.879-2.846-7.879m9.942 17.267s-5.849-16.747-5.409-32.356" class="B D K"/><path d="M249.892 135.942c-3.934.548-7.928 1.104-11.568 2.78-3.33 1.529-5.064 2.719-7.255 5.768-.311.425-1.587 2.015-1.156 2.527.345.426 1.07.374 1.501.269.673.652 1.285.565 2.208.105.25.495 1.467.495 2.623.121.396.4 1.156.713 2.329.634l8.065-.755 8.377-.105" class="H"/><path d="M268.334 98.419s8.549.061 11.499 1.016c3.71 1.199 5.927 8.096 7.678 17.564 2.45 13.194 2.087 16.877 2.346 19.535.526 5.342.078 13.541-9.877 13.541-14.863 0-28.381-.121-28.381-.121l-3.511-14.341 22.412-2.979-2.114-18.024" class="G"/><g class="B D"><path d="M236.244 147.514s2.036-1.842 3.977-2.172l4.494-.616m-2.61-2.379s-3.942.903-5.451 1.763-3.028 3.283-3.028 3.283m5.784-7.051s-4.201 1.268-5.78 3.031c-.992 1.138-1.742 2.476-2.208 3.909m37.176-48s-3.602 21.773-9.173 34.474m-11.328 1.866l22.403-2.97-2.105-18.033m2.114 18.031s4.581-.903 9.386 1.364" class="K"/><g class="E"><path d="M250.521 144.841h5.737m-3.87-3.185l.417 1.261"/><path d="M255.001 141.656l.417 1.261"/></g></g><path d="M256.921 85.726l3.985 11.37s-8.264 4.83-12.232 4.178-5.159-1.667-5.159-1.667l-1.026-9.824 13.431-5.559 1.881-.677-.88 2.18z" class="H"/><path d="M243.567 99.499s10.062-5.759 9.246-6.855c-1.36-2.469-9.79 1.647-9.79 1.647l.544 5.208z" fill="url(#H)"/><path d="M240.917 92.959c-2.122-3.275-2.191-8.99-1.871-13.029.207-2.658.871-4.925 2.846-6.645 3.218-2.806 9.325-4.612 12.871-1.06 2.967 2.971 3.675 7.314 3.045 11.301-.492 3.118-1.311 5.246-3.347 7.6-2.045 2.354-6.366 4.517-9.394 4.178-1.881-.226-3.14-.791-4.15-2.345z" class="H"/><path d="M233.339 76.424l-.13-.287c-.681-1.668-.094-3.831 1.415-4.743.69-.417 1.51-.582 2.191-.999 1.432-.895 1.984-2.771 3.252-3.9 2.347-2.111 5.573-.226 8.247-.113l3.865.069c2.001.104 4.037.547 5.745 1.65 2.898 1.868 4.477 5.42 4.684 8.903s-.267 7.644-4.158 13.107c-1.268-2.076-1.527-7.244-2.795-9.32-.138-.226.802-.365.613-.547a3.28 3.28 0 0 0-.828-.547c-.863-.443-1.76-.903-2.718-.903-.811 0-1.63.33-2.407.087-.948-.304-1.483-1.373-1.621-2.38-.112-.834-.19-1.928-.975-2.18-1.07-.347-1.768 1.338-2.881 1.442-.371.035-.734-.122-1.087-.235-.794-.243-1.682-.304-2.467-.035-.639.243-1.165.73-1.45 1.364-.431.895-.966 1.251-1.966 1.581-1.734.547-3.744-.443-4.529-2.015z" fill="#1b140f"/><path d="M254.066 81.798c.346-1.416 1.631-2.397 2.675-2.363 1.544.052 2.484 1.503 2.743 2.866a5.19 5.19 0 0 1-.5 3.501c-.561 1.077-1.847 2.337-3.089 2.258-.845-.061-1.432-.999-1.604-1.746" class="H"/><g class="D"><g class="K"><path d="M256.086 84.989s.213-.775.556-1.121 1.112-.561 1.112-.561" stroke="#1b1c17" class="C"/><g class="B"><path d="M254.286 86.646c.216.382.863 1.677 2.191 1.399.604-.122 2.401-1.648 3.359-3.897"/><path d="M242.011 81.548c-.164.834-.302 3.639-.362 4.499-.026.33-.009.73.259.921.181.104.388.139.595.104a6.92 6.92 0 0 0 1.915-.452" class="C"/></g></g><path d="M249.023 78.627a10.26 10.26 0 0 0-4.347-1.372m-3.621.645c-1.087.365-2.217.764-2.959 1.737" class="E B C"/></g><path d="M244.863 81.408c0 .504.241.929.552.938.31.017.561-.391.569-.895s-.241-.929-.552-.938c-.31-.017-.561.382-.569.895zm-5.469 1.139c0 .504.242.929.552.938.311.017.561-.391.569-.895s-.241-.929-.552-.938c-.31-.017-.56.382-.569.895z" fill="#000"/><path d="M242.211 89.938s1.79-.045 2.719-.274c1.021-.252 1.904-.823 1.904-.823s.753 1.914-1.57 2.593-3.053-1.496-3.053-1.496z" fill="#fff"/><g stroke="#f17d52" class="D L"><path d="M239.145 86.23c-1.028-.052-1.791-1.508-1.704-3.252s.991-3.116 2.019-3.064 1.79 1.508 1.703 3.252-.991 3.116-2.018 3.064zm8.988-5.407c.104 1.728-.914 3.405-2.268 3.752s-2.537-.773-2.631-2.502.914-3.405 2.268-3.752c1.355-.356 2.536.764 2.631 2.502z"/><path d="M240.957 81.435l2.398-.617m4.728-.982l6.573.834"/></g><path d="M191.306 122.789c-.727 0-1.294.863-.958 1.689v.001l10.367 25.771h61.509c1.018 0 1.894-.852 2.005-2.002h-21.92l-.063-.156-9.791-24.339-.004-.009a1.45 1.45 0 0 0-1.199-.947l-.11-.008h-39.836z" fill="#c4d8ff" class="F L"/><g fill="#fff"><path d="M232.961 144.013c0 2.152 1.411 3.597 3.514 3.597h.854a2.45 2.45 0 0 0 2.448 2.39h7.071a2.45 2.45 0 0 0 2.45-2.451v-9.523h-11.972v1.938h-1.277c-1.195 0-2.251.691-2.696 1.762-.261.627-.392 1.399-.392 2.29v-.003zm1.263 0c0-.725.1-1.331.297-1.806.243-.586.856-.98 1.528-.98h1.277v5.123h-.851c-1.39 0-2.251-.896-2.251-2.334v-.003zm-119.673-2.29c-.443-1.071-1.502-1.762-2.696-1.762h-1.278v-1.938H98.606v9.523a2.45 2.45 0 0 0 2.45 2.451h7.071a2.45 2.45 0 0 0 2.448-2.39h.854c2.102 0 3.514-1.445 3.514-3.597 0-.89-.132-1.662-.392-2.29v.003zm-3.122 4.624h-.852v-5.123h1.278c.671 0 1.285.394 1.528.981.197.474.297 1.08.297 1.805 0 1.441-.864 2.334-2.251 2.334v.003z"/><path d="M1 149h326v14c0 8.837-7.163 16-16 16H17c-8.837 0-16-7.163-16-16v-14z"/></g><path d="M76.672 170h-7.36v-11.168h7.36v1.872h-5.248v2.72h4.64v1.856h-4.64v2.848h5.248V170zm4.154 0h-2.048v-8.352h2.048v1.392h.08c.16-.437.416-.811.768-1.12.363-.309.853-.464 1.472-.464.576 0 1.072.139 1.488.416.427.277.736.699.928 1.264h.032c.149-.459.448-.853.896-1.184s1.003-.496 1.664-.496c.811 0 1.44.288 1.888.864.448.565.672 1.365.672 2.4V170h-2.048v-5.072c0-.597-.112-1.045-.336-1.344-.213-.299-.549-.448-1.008-.448a1.9 1.9 0 0 0-.768.16 1.32 1.32 0 0 0-.576.448c-.139.192-.208.437-.208.736V170h-2.048v-5.072c0-.597-.112-1.045-.336-1.344s-.56-.448-1.008-.448c-.256 0-.507.053-.752.16a1.32 1.32 0 0 0-.576.448c-.149.192-.224.437-.224.736V170zm12.155 3.2v-11.552h2.048v1.376h.064a2.06 2.06 0 0 1 .848-1.136 2.54 2.54 0 0 1 1.456-.432c.715 0 1.312.171 1.792.512s.848.837 1.104 1.488c.256.64.384 1.424.384 2.352s-.128 1.723-.384 2.384c-.256.651-.624 1.147-1.104 1.488s-1.077.512-1.792.512c-.544 0-1.024-.144-1.44-.432a2.22 2.22 0 0 1-.864-1.152h-.064v4.592h-2.048zm3.76-4.704c.533 0 .965-.176 1.296-.528.331-.363.496-.837.496-1.424v-1.44c0-.597-.165-1.072-.496-1.424-.331-.363-.763-.544-1.296-.544-.32 0-.613.059-.88.176-.256.107-.459.261-.608.464s-.224.437-.224.704v2.656c0 .288.075.533.224.736s.352.357.608.464c.267.107.56.16.88.16zm8.986 1.504h-1.104c-.694 0-1.211-.176-1.552-.528-.331-.352-.496-.848-.496-1.488v-9.824h2.048v10.208h1.104V170zm4.863.192c-.79 0-1.478-.176-2.064-.528-.576-.363-1.024-.869-1.344-1.52-.31-.661-.464-1.44-.464-2.336s.154-1.664.464-2.304c.32-.651.768-1.152 1.344-1.504.586-.363 1.274-.544 2.064-.544.8 0 1.488.181 2.064.544.586.352 1.034.853 1.344 1.504.32.64.48 1.408.48 2.304s-.16 1.675-.48 2.336c-.31.651-.758 1.157-1.344 1.52-.576.352-1.264.528-2.064.528zm0-1.648c.544 0 .97-.165 1.28-.496.309-.341.464-.827.464-1.456v-1.552c0-.629-.155-1.109-.464-1.44s-.736-.496-1.28-.496c-.523 0-.944.165-1.264.496-.31.331-.464.811-.464 1.44v1.552c0 .629.154 1.115.464 1.456.32.331.741.496 1.264.496zm9.227-2.48l1.456-4.416h1.92l-3.36 9.84c-.139.395-.304.72-.496.976a1.65 1.65 0 0 1-.752.56c-.299.117-.678.176-1.136.176h-1.232v-1.632h1.504l.384-1.168-2.992-8.752h2.032l1.456 4.416.544 2.112h.096l.576-2.112zm7.993 4.128c-.821 0-1.525-.176-2.112-.528-.587-.363-1.04-.869-1.36-1.52-.309-.661-.464-1.44-.464-2.336 0-.875.155-1.637.464-2.288.309-.661.752-1.168 1.328-1.52.576-.363 1.269-.544 2.08-.544.875 0 1.589.192 2.144.576.565.384.981.896 1.248 1.536.277.629.416 1.328.416 2.096v.672h-5.552v.208c0 .597.171 1.083.512 1.456s.848.56 1.52.56c.501 0 .917-.107 1.248-.32.331-.224.624-.496.88-.816l1.104 1.232c-.341.459-.811.832-1.408 1.12-.587.277-1.269.416-2.048.416zm-.032-7.2a1.71 1.71 0 0 0-.944.256c-.267.16-.475.389-.624.688-.139.288-.208.624-.208 1.008v.128h3.424v-.144c0-.395-.064-.731-.192-1.008-.128-.288-.315-.512-.56-.672-.245-.171-.544-.256-.896-.256zm7.626 7.008h-2.048v-8.352h2.048v1.728h.08a2.64 2.64 0 0 1 .368-.832c.181-.267.421-.48.72-.64.309-.171.683-.256 1.12-.256h.448v1.936h-.64c-.459 0-.848.048-1.168.144-.309.085-.544.224-.704.416-.149.181-.224.427-.224.736V170z" fill="#2c2c2c"/><path d="M167.001 164h9.722m-3.612-3l3.889 3-3.889 3m-10.112-3h-9.722m3.612-3L153 164l3.889 3" stroke-width="1.25" class="C F I"/><path d="M194.424 165.696V170h-2.112v-11.168h5.04c.683 0 1.269.144 1.76.432.491.277.869.677 1.136 1.2.267.512.4 1.12.4 1.824 0 .757-.176 1.419-.528 1.984-.341.555-.859.949-1.552 1.184l2.288 4.544h-2.352l-2.08-4.304h-2zm0-1.776h2.72c.277 0 .512-.048.704-.144a1.17 1.17 0 0 0 .448-.432c.107-.192.16-.421.16-.688v-.736c0-.277-.053-.507-.16-.688a1.06 1.06 0 0 0-.448-.416c-.192-.096-.427-.144-.704-.144h-2.72v3.248zm11.527 6.272c-.822 0-1.526-.176-2.112-.528-.587-.363-1.04-.869-1.36-1.52-.31-.661-.464-1.44-.464-2.336 0-.875.154-1.637.464-2.288.309-.661.752-1.168 1.328-1.52.576-.363 1.269-.544 2.08-.544.874 0 1.589.192 2.144.576.565.384.981.896 1.248 1.536.277.629.416 1.328.416 2.096v.672h-5.552v.208c0 .597.17 1.083.512 1.456s.848.56 1.52.56c.501 0 .917-.107 1.248-.32a4 4 0 0 0 .88-.816l1.104 1.232c-.342.459-.811.832-1.408 1.12-.587.277-1.27.416-2.048.416zm-.032-7.2c-.363 0-.678.085-.944.256-.267.16-.475.389-.624.688-.139.288-.208.624-.208 1.008v.128h3.424v-.144c0-.395-.064-.731-.192-1.008-.128-.288-.315-.512-.56-.672-.246-.171-.544-.256-.896-.256zm8.874 7.2c-1.238 0-2.192-.395-2.864-1.184-.662-.789-.992-1.856-.992-3.2 0-1.333.33-2.389.992-3.168.672-.789 1.626-1.184 2.864-1.184.842 0 1.536.187 2.08.56.554.373.954.891 1.2 1.552l-1.68.752c-.096-.352-.278-.64-.544-.864-.267-.235-.619-.352-1.056-.352-.566 0-.992.181-1.28.544-.288.352-.432.827-.432 1.424v1.52c0 .576.144 1.045.432 1.408s.714.544 1.28.544c.48 0 .853-.123 1.12-.368a2.57 2.57 0 0 0 .64-.944l1.568.752c-.267.736-.688 1.291-1.264 1.664-.566.363-1.254.544-2.064.544zm6.955-.192H219.7v-8.352h2.048v1.728h.08a2.62 2.62 0 0 1 .368-.832c.181-.267.421-.48.72-.64.309-.171.682-.256 1.12-.256h.448v1.936h-.64c-.459 0-.848.048-1.168.144-.31.085-.544.224-.704.416-.15.181-.224.427-.224.736V170zm9.225 0v-1.392h-.08a2.53 2.53 0 0 1-.752 1.104c-.363.32-.891.48-1.584.48-.853 0-1.515-.283-1.984-.848-.459-.576-.688-1.381-.688-2.416v-5.28h2.048v5.072c0 .576.112 1.019.336 1.328.224.299.581.448 1.072.448.267 0 .523-.048.768-.144a1.46 1.46 0 0 0 .624-.432c.16-.203.24-.453.24-.752v-5.52h2.048V170h-2.048zm5.438-9.568c-.416 0-.72-.096-.912-.288a1.03 1.03 0 0 1-.288-.736v-.32c0-.299.096-.544.288-.736s.496-.288.912-.288.72.096.912.288.288.437.288.736v.32a1.03 1.03 0 0 1-.288.736c-.192.192-.496.288-.912.288zM235.387 170v-8.352h2.048V170h-2.048zm8.486 0h-1.472c-.704 0-1.242-.181-1.616-.544-.362-.373-.544-.901-.544-1.584v-4.608h-1.232v-1.616h.64c.31 0 .518-.069.624-.208.118-.149.176-.368.176-.656v-1.424h1.84v2.288h1.712v1.616h-1.712v5.104h1.584V170zm5.218.192c-.821 0-1.525-.176-2.112-.528-.586-.363-1.04-.869-1.36-1.52-.309-.661-.464-1.44-.464-2.336 0-.875.155-1.637.464-2.288.31-.661.752-1.168 1.328-1.52.576-.363 1.27-.544 2.08-.544.875 0 1.59.192 2.144.576.566.384.982.896 1.248 1.536.278.629.416 1.328.416 2.096v.672h-5.552v.208c0 .597.171 1.083.512 1.456s.848.56 1.52.56c.502 0 .918-.107 1.248-.32.331-.224.624-.496.88-.816l1.104 1.232c-.341.459-.81.832-1.408 1.12-.586.277-1.269.416-2.048.416zm-.032-7.2c-.362 0-.677.085-.944.256-.266.16-.474.389-.624.688-.138.288-.208.624-.208 1.008v.128h3.424v-.144c0-.395-.064-.731-.192-1.008a1.51 1.51 0 0 0-.56-.672c-.245-.171-.544-.256-.896-.256zm7.626 7.008h-2.048v-8.352h2.048v1.728h.08a2.64 2.64 0 0 1 .368-.832c.181-.267.421-.48.72-.64.309-.171.683-.256 1.12-.256h.448v1.936h-.64c-.459 0-.848.048-1.168.144-.309.085-.544.224-.704.416-.149.181-.224.427-.224.736V170z" class="J"/><rect x="135.25" y="25.25" width="59.5" height="25.5" rx="12.75" fill="#e8f2ff"/><rect x="135.25" y="25.25" width="59.5" height="25.5" rx="12.75" class="F L"/><path d="M150.63 43.168c-.812 0-1.507-.149-2.086-.448a4.9 4.9 0 0 1-1.484-1.204l1.106-1.022c.336.42.709.737 1.12.952.42.215.896.322 1.428.322.625 0 1.097-.14 1.414-.42.317-.289.476-.667.476-1.134a1.46 1.46 0 0 0-.14-.658c-.093-.187-.252-.341-.476-.462s-.523-.219-.896-.294l-.868-.154c-.635-.121-1.167-.299-1.596-.532-.42-.233-.737-.537-.952-.91-.215-.383-.322-.831-.322-1.344 0-.579.14-1.078.42-1.498s.677-.742 1.19-.966c.523-.224 1.129-.336 1.82-.336.737 0 1.377.131 1.918.392a3.66 3.66 0 0 1 1.372 1.106l-1.106.98a2.87 2.87 0 0 0-.924-.784c-.364-.196-.817-.294-1.358-.294-.56 0-.994.112-1.302.336-.299.224-.448.551-.448.98 0 .271.056.495.168.672s.28.322.504.434a3.54 3.54 0 0 0 .868.266l.868.182c.653.121 1.19.303 1.61.546s.728.551.924.924c.205.364.308.807.308 1.33 0 .607-.14 1.139-.42 1.596-.28.448-.686.803-1.218 1.064-.532.252-1.171.378-1.918.378zm8.213 0c-.691 0-1.288-.154-1.792-.462a3.2 3.2 0 0 1-1.176-1.33c-.271-.569-.406-1.241-.406-2.016s.135-1.442.406-2.002a3.14 3.14 0 0 1 1.148-1.33c.495-.317 1.087-.476 1.778-.476.719 0 1.316.163 1.792.49a2.93 2.93 0 0 1 1.092 1.302c.243.551.364 1.162.364 1.834v.574h-4.984v.238c0 .56.163 1.022.49 1.386.336.355.812.532 1.428.532.448 0 .826-.098 1.134-.294s.565-.462.77-.798l.91.882c-.28.439-.677.793-1.19 1.064-.504.271-1.092.406-1.764.406zm-.014-6.426c-.355 0-.667.084-.938.252-.261.159-.467.383-.616.672-.14.28-.21.607-.21.98v.098h3.388v-.14c0-.373-.065-.7-.196-.98s-.317-.495-.56-.644c-.243-.159-.532-.238-.868-.238zM169.926 43h-.854a1.41 1.41 0 0 1-.728-.182 1.24 1.24 0 0 1-.448-.546 2.05 2.05 0 0 1-.154-.826v-.126l.434.462h-.49c-.14.448-.396.793-.77 1.036-.373.233-.826.35-1.358.35-.746 0-1.325-.196-1.736-.588s-.616-.919-.616-1.582c0-.485.117-.887.35-1.204.243-.327.593-.569 1.05-.728.458-.168 1.027-.252 1.708-.252h1.316v-.616c0-.439-.121-.779-.364-1.022-.242-.252-.62-.378-1.134-.378-.42 0-.77.098-1.05.294-.27.187-.499.42-.686.7l-.91-.826c.243-.411.584-.747 1.022-1.008.448-.271 1.022-.406 1.722-.406.934 0 1.652.224 2.156.672.514.439.77 1.064.77 1.876v3.654h.77V43zm-2.296-3.206h-1.288c-.532 0-.928.084-1.19.252a.81.81 0 0 0-.392.728v.252c0 .317.112.56.336.728s.523.252.896.252c.318 0 .598-.047.84-.14s.434-.229.574-.406c.15-.177.224-.383.224-.616v-1.05zM172.948 43h-1.526v-7.28h1.526v1.204h.07a2.43 2.43 0 0 1 .672-.966c.308-.271.737-.406 1.288-.406a2.38 2.38 0 0 1 1.302.364c.383.233.663.607.84 1.12h.042c.131-.401.383-.747.756-1.036.373-.299.859-.448 1.456-.448.728 0 1.288.247 1.68.742.401.495.602 1.19.602 2.086V43h-1.526v-4.438c0-.569-.107-.994-.322-1.274-.215-.289-.551-.434-1.008-.434a1.94 1.94 0 0 0-.728.14 1.18 1.18 0 0 0-.56.406c-.14.187-.21.42-.21.7V43h-1.526v-4.438c0-.569-.107-.994-.322-1.274-.215-.289-.546-.434-.994-.434a1.94 1.94 0 0 0-.728.14 1.27 1.27 0 0 0-.574.406c-.14.187-.21.42-.21.7V43zm-81.44 7.909a.5.5 0 0 0 .401.583l4.425.817a.5.5 0 1 0 .182-.983l-3.934-.726.726-3.934a.5.5 0 1 0-.983-.182l-.817 4.425zm42.533-14.411a.5.5 0 0 0-.082-.997L134 36l.041.498zm-22.306 3.64l.169.471h0l-.169-.471zM92 51l.284.412.05-.034.149-.101.574-.386-.278-.416-.278-.416-.58.391-.152.103-.039.027c-.014.009-.014.009.27.421zm2.35-1.559l.272.42 1.579-1.01-.267-.423-.267-.423-1.589 1.016.272.42zm3.181-2.008l.262.426 1.604-.971-.256-.429-.256-.429-1.614.978.262.426zm3.231-1.928l.251.433 1.629-.926-.243-.437-.244-.437-1.643.934.25.433zm3.288-1.832l.236.441 1.659-.866-.226-.446-.227-.446-1.677.875.235.441zm3.357-1.702l.215.451 1.697-.777-.201-.458-.201-.458-1.725.79.215.451zm3.448-1.504l.182.466.867-.325-.169-.471-.169-.471-.892.334.181.466zm.88-.329l.169.471.88-.302-.156-.475-.156-.475-.906.311.169.471zm2.702-.858l.136.481 1.813-.48-.12-.485-.121-.485-1.844.488.136.481zm3.671-.916l.108.488 1.841-.386-.097-.49-.098-.49-1.862.39.108.488zm3.711-.74l.088.492 1.858-.319-.081-.494-.081-.493-1.873.322.089.492zm3.734-.612l.074.495 1.866-.266-.067-.495-.067-.495-1.879.268.073.495zm3.749-.51l.061.496 1.871-.219-.055-.497-.055-.497-1.883.221.061.496zm3.757-.416l.048.498.693-.065.18-.016.046-.004c.015-.001.015-.001-.026-.5l-.041-.498-.064.005-.184.016-.701.065.049.498zm105.433 14.823a.5.5 0 0 1-.401.583l-4.425.817a.5.5 0 1 1-.182-.983l3.934-.726-.727-3.934a.5.5 0 0 1 .401-.582.5.5 0 0 1 .582.401l.818 4.425zm-42.533-14.411a.5.5 0 0 1 .082-.997L196 36l-.041.498zm22.306 3.64l-.169.471h0l.169-.471zM238 51l-.283.412-.05-.034-.149-.101-.575-.386.278-.416.278-.416.58.391.152.103.039.027c.013.009.013.009-.27.421zm-2.35-1.559l-.272.42-1.578-1.01.267-.423.266-.423 1.589 1.016-.272.42zm-3.181-2.008l-.262.426-1.603-.971.256-.429.256-.429 1.615.978-.262.426zm-3.231-1.928l-.251.433-1.629-.926.243-.437.244-.437 1.643.934-.25.433zm-3.288-1.832l-.236.441-1.659-.866.226-.446.227-.446 1.677.875-.235.441zm-3.357-1.702l-.215.451-1.697-.777.201-.458.201-.458 1.725.79-.215.451zm-3.448-1.504l-.182.466-.867-.325.169-.471.169-.471.892.334-.181.466zm-.88-.329l-.169.471-.88-.302.156-.475.156-.475.906.311-.169.471zm-2.702-.858l-.136.481-1.813-.48.12-.485.121-.485 1.844.488-.136.481zm-3.671-.916l-.108.488-1.841-.386.097-.49.098-.49 1.862.39-.108.488zm-3.711-.74l-.088.492-1.858-.319.081-.494.081-.493 1.873.322-.089.492zm-3.734-.612l-.074.495-1.866-.266.067-.495.067-.495 1.879.268-.073.495zm-3.749-.51l-.061.496-1.871-.219.055-.497.055-.497 1.883.221-.061.496zm-3.757-.416l-.048.498-.693-.065-.18-.016-.046-.004c-.015-.001-.015-.001.026-.5l.041-.498.064.005.184.016.701.065-.049.498z" class="J"/><defs><linearGradient id="A" x1="164" y1="0" x2="164" y2="150" href="#I"><stop stop-color="#eaf0ff"/><stop offset="1" stop-color="#f4f8ff"/></linearGradient><linearGradient id="B" x1="125.315" y1="47.942" x2="107.681" y2="82.688" href="#I"><stop stop-color="#ffd2b6"/><stop offset="1" stop-color="#ffb793"/></linearGradient><linearGradient id="C" x1="29.381" y1="93.517" x2="53.365" y2="94.943" href="#I"><stop stop-color="#ffd2b6"/><stop offset="1" stop-color="#ffb793"/></linearGradient><linearGradient id="D" x1="76.558" y1="58.309" x2="76.558" y2="86.207" href="#I"><stop stop-color="#ffd2b6"/><stop offset="1" stop-color="#ffb793"/></linearGradient><linearGradient id="E" x1="68.867" y1="66.923" x2="72.183" y2="66.923" href="#I"><stop stop-color="#ffd2b6"/><stop offset="1" stop-color="#ffb793"/></linearGradient><linearGradient id="F" x1="79.291" y1="71.448" x2="79.291" y2="75.238" href="#I"><stop stop-color="#ffd2b6"/><stop offset="1" stop-color="#ffb793"/></linearGradient><linearGradient id="G" x1="29.661" y1="88.8" x2="53.644" y2="90.226" href="#I"><stop stop-color="#ffd2b6"/><stop offset="1" stop-color="#ffb793"/></linearGradient><linearGradient id="H" x1="244.166" y1="99.666" x2="250.833" y2="92.166" href="#I"><stop stop-color="#ffa9a9"/><stop offset="1" stop-color="#ff9494"/></linearGradient><linearGradient id="I" gradientUnits="userSpaceOnUse"/></defs></svg>