<svg width="252" height="164" viewBox="0 0 252 164" fill="none" xmlns="http://www.w3.org/2000/svg">
<rect width="252" height="164" rx="8" fill="#E6F0FC" style="fill:#E6F0FC;fill:color(display-p3 0.9020 0.9412 0.9882);fill-opacity:1;"/>
<path d="M41.924 133.624H45.08C45.632 133.624 46.136 133.712 46.592 133.888C47.048 134.064 47.436 134.328 47.756 134.68C48.076 135.024 48.324 135.46 48.5 135.988C48.676 136.508 48.764 137.116 48.764 137.812C48.764 138.508 48.676 139.12 48.5 139.648C48.324 140.168 48.076 140.604 47.756 140.956C47.436 141.3 47.048 141.56 46.592 141.736C46.136 141.912 45.632 142 45.08 142H41.924V133.624ZM45.08 140.38C45.624 140.38 46.052 140.228 46.364 139.924C46.676 139.62 46.832 139.132 46.832 138.46V137.164C46.832 136.492 46.676 136.004 46.364 135.7C46.052 135.396 45.624 135.244 45.08 135.244H43.748V140.38H45.08Z" fill="#0668E1" style="fill:#0668E1;fill:color(display-p3 0.0235 0.4078 0.8824);fill-opacity:1;"/>
<path d="M122.924 15V6.624H128.624V8.244H124.748V9.96H128.072V11.568H124.748V13.38H128.624V15H122.924Z" fill="#0668E1" style="fill:#0668E1;fill:color(display-p3 0.0235 0.4078 0.8824);fill-opacity:1;"/>
<path d="M205.636 142.144C204.9 142.144 204.276 142.02 203.764 141.772C203.252 141.516 202.816 141.188 202.456 140.788L203.656 139.576C204.224 140.216 204.924 140.536 205.756 140.536C206.204 140.536 206.536 140.444 206.752 140.26C206.968 140.076 207.076 139.832 207.076 139.528C207.076 139.296 207.012 139.104 206.884 138.952C206.756 138.792 206.496 138.684 206.104 138.628L205.276 138.52C204.388 138.408 203.736 138.14 203.32 137.716C202.912 137.292 202.708 136.728 202.708 136.024C202.708 135.648 202.78 135.304 202.924 134.992C203.068 134.68 203.272 134.412 203.536 134.188C203.808 133.964 204.136 133.792 204.52 133.672C204.912 133.544 205.356 133.48 205.852 133.48C206.484 133.48 207.04 133.58 207.52 133.78C208 133.98 208.412 134.272 208.756 134.656L207.544 135.88C207.344 135.648 207.1 135.46 206.812 135.316C206.532 135.164 206.176 135.088 205.744 135.088C205.336 135.088 205.032 135.16 204.832 135.304C204.632 135.448 204.532 135.648 204.532 135.904C204.532 136.192 204.608 136.4 204.76 136.528C204.92 136.656 205.176 136.748 205.528 136.804L206.356 136.936C207.22 137.072 207.86 137.34 208.276 137.74C208.692 138.132 208.9 138.692 208.9 139.42C208.9 139.82 208.828 140.188 208.684 140.524C208.54 140.86 208.328 141.148 208.048 141.388C207.776 141.628 207.436 141.816 207.028 141.952C206.62 142.08 206.156 142.144 205.636 142.144Z" fill="#0668E1" style="fill:#0668E1;fill:color(display-p3 0.0235 0.4078 0.8824);fill-opacity:1;"/>
<path d="M198 142H54L126 104L198 142Z" fill="#0668E1" style="fill:#0668E1;fill:color(display-p3 0.0235 0.4078 0.8824);fill-opacity:1;"/>
<path d="M115.952 152L114.128 146.416H115.208L116.064 149.136L116.56 150.992H116.584L117.072 149.136L117.928 146.416H118.976L117.152 152H115.952ZM120.206 147.216C119.992 147.216 119.838 147.168 119.742 147.072C119.651 146.976 119.606 146.853 119.606 146.704V146.544C119.606 146.395 119.651 146.272 119.742 146.176C119.838 146.08 119.992 146.032 120.206 146.032C120.414 146.032 120.566 146.08 120.662 146.176C120.758 146.272 120.806 146.395 120.806 146.544V146.704C120.806 146.853 120.758 146.976 120.662 147.072C120.566 147.168 120.414 147.216 120.206 147.216ZM119.694 147.824H120.718V152H119.694V147.824ZM123.273 152.096C122.873 152.096 122.537 152.029 122.265 151.896C121.993 151.757 121.753 151.568 121.545 151.328L122.169 150.72C122.323 150.896 122.491 151.035 122.673 151.136C122.859 151.237 123.073 151.288 123.312 151.288C123.558 151.288 123.734 151.245 123.841 151.16C123.953 151.075 124.009 150.957 124.009 150.808C124.009 150.685 123.969 150.589 123.889 150.52C123.814 150.445 123.683 150.395 123.497 150.368L123.081 150.312C122.627 150.253 122.281 150.125 122.041 149.928C121.806 149.725 121.689 149.432 121.689 149.048C121.689 148.845 121.726 148.664 121.801 148.504C121.875 148.339 121.982 148.2 122.121 148.088C122.259 147.971 122.425 147.883 122.617 147.824C122.814 147.76 123.033 147.728 123.273 147.728C123.475 147.728 123.654 147.744 123.809 147.776C123.969 147.803 124.113 147.845 124.241 147.904C124.369 147.957 124.486 148.027 124.593 148.112C124.699 148.192 124.803 148.283 124.905 148.384L124.305 148.984C124.182 148.856 124.035 148.749 123.865 148.664C123.694 148.579 123.507 148.536 123.305 148.536C123.081 148.536 122.918 148.576 122.817 148.656C122.721 148.736 122.673 148.84 122.673 148.968C122.673 149.107 122.713 149.213 122.793 149.288C122.878 149.357 123.019 149.408 123.217 149.44L123.641 149.496C124.542 149.624 124.993 150.035 124.993 150.728C124.993 150.931 124.95 151.117 124.865 151.288C124.785 151.453 124.67 151.597 124.521 151.72C124.371 151.837 124.19 151.931 123.977 152C123.769 152.064 123.534 152.096 123.273 152.096ZM126.409 147.216C126.195 147.216 126.041 147.168 125.945 147.072C125.854 146.976 125.809 146.853 125.809 146.704V146.544C125.809 146.395 125.854 146.272 125.945 146.176C126.041 146.08 126.195 146.032 126.409 146.032C126.617 146.032 126.769 146.08 126.865 146.176C126.961 146.272 127.009 146.395 127.009 146.544V146.704C127.009 146.853 126.961 146.976 126.865 147.072C126.769 147.168 126.617 147.216 126.409 147.216ZM125.897 147.824H126.921V152H125.897V147.824ZM129.764 152.096C129.465 152.096 129.196 152.045 128.956 151.944C128.721 151.843 128.518 151.696 128.348 151.504C128.182 151.312 128.054 151.083 127.964 150.816C127.873 150.544 127.828 150.24 127.828 149.904C127.828 149.568 127.873 149.267 127.964 149C128.054 148.733 128.182 148.507 128.348 148.32C128.518 148.128 128.721 147.981 128.956 147.88C129.196 147.779 129.465 147.728 129.764 147.728C130.062 147.728 130.332 147.779 130.572 147.88C130.812 147.981 131.014 148.128 131.18 148.32C131.35 148.507 131.481 148.733 131.572 149C131.662 149.267 131.708 149.568 131.708 149.904C131.708 150.24 131.662 150.544 131.572 150.816C131.481 151.083 131.35 151.312 131.18 151.504C131.014 151.696 130.812 151.843 130.572 151.944C130.332 152.045 130.062 152.096 129.764 152.096ZM129.764 151.272C130.036 151.272 130.249 151.189 130.404 151.024C130.558 150.859 130.636 150.616 130.636 150.296V149.52C130.636 149.205 130.558 148.965 130.404 148.8C130.249 148.635 130.036 148.552 129.764 148.552C129.497 148.552 129.286 148.635 129.132 148.8C128.977 148.965 128.9 149.205 128.9 149.52V150.296C128.9 150.616 128.977 150.859 129.132 151.024C129.286 151.189 129.497 151.272 129.764 151.272ZM132.615 152V147.824H133.639V148.52H133.679C133.765 148.296 133.898 148.109 134.079 147.96C134.266 147.805 134.522 147.728 134.847 147.728C135.279 147.728 135.61 147.869 135.839 148.152C136.069 148.435 136.183 148.837 136.183 149.36V152H135.159V149.464C135.159 149.165 135.106 148.941 134.999 148.792C134.893 148.643 134.717 148.568 134.471 148.568C134.365 148.568 134.261 148.584 134.159 148.616C134.063 148.643 133.975 148.685 133.895 148.744C133.821 148.797 133.759 148.867 133.711 148.952C133.663 149.032 133.639 149.128 133.639 149.24V152H132.615Z" fill="#0668E1" style="fill:#0668E1;fill:color(display-p3 0.0235 0.4078 0.8824);fill-opacity:1;"/>
<path d="M125.682 103.808L54.8291 141.202L125.682 19.1797V103.808Z" fill="#0668E1" stroke="#0668E1" style="fill:#0668E1;fill:color(display-p3 0.0235 0.4078 0.8824);fill-opacity:1;stroke:#0668E1;stroke:color(display-p3 0.0235 0.4078 0.8824);stroke-opacity:1;" stroke-width="0.635419" stroke-linecap="round"/>
<path d="M78.1951 85.9295C77.9559 86.3457 77.6788 86.6566 77.3637 86.8623C77.0514 87.0634 76.7154 87.1984 76.3559 87.2673L76.1156 86.3048C76.405 86.2507 76.6589 86.1514 76.8773 86.0068C77.0984 85.8576 77.2807 85.6581 77.4242 85.4084C77.5863 85.1264 77.6486 84.8789 77.611 84.6659C77.5688 84.4503 77.4439 84.2823 77.2363 84.1619C77.0749 84.0683 76.9168 84.0382 76.7622 84.0719C76.6075 84.1055 76.4341 84.2361 76.2418 84.4636L75.9095 84.8813C75.2018 85.7594 74.4559 85.971 73.6716 85.5161C73.4547 85.3903 73.2813 85.2373 73.1511 85.057C73.0236 84.8721 72.9415 84.6672 72.9046 84.4424C72.8677 84.2175 72.8781 83.98 72.9358 83.7298C72.9915 83.4724 73.0977 83.2072 73.2545 82.9344C73.4644 82.5691 73.7078 82.2848 73.9845 82.0816C74.2613 81.8783 74.5731 81.7478 74.92 81.6901L75.1494 82.6555C74.9327 82.6901 74.7291 82.7662 74.5385 82.8838C74.3479 83.0014 74.1782 83.1896 74.0293 83.4486C73.8779 83.7121 73.8144 83.9404 73.8388 84.1334C73.8613 84.3191 73.9625 84.4641 74.1424 84.5684C74.3269 84.6755 74.4936 84.7012 74.6424 84.6457C74.7911 84.5902 74.954 84.4566 75.1311 84.2448L75.4732 83.8421C75.8426 83.4028 76.2067 83.1331 76.5656 83.033C76.9226 82.9257 77.3018 82.9884 77.7032 83.2212C77.9338 83.355 78.1198 83.5183 78.2611 83.7113C78.4005 83.8969 78.4942 84.1085 78.5423 84.346C78.5884 84.5762 78.5832 84.826 78.5268 85.0954C78.4731 85.3602 78.3625 85.6382 78.1951 85.9295ZM80.2862 82.0982C80.1108 82.4034 79.8981 82.5914 79.6483 82.6623C79.3964 82.7259 79.1229 82.672 78.8276 82.5008L76.8416 81.3488L76.5346 81.8829L75.8288 81.4734L75.9882 81.196C76.0653 81.0619 76.0871 80.9543 76.0537 80.8733C76.0184 80.785 75.9384 80.7047 75.8138 80.6324L75.1979 80.2752L75.6563 79.4775L76.6459 80.0515L77.0724 79.3094L77.7783 79.7188L77.3518 80.4609L79.5524 81.7374L79.947 81.0507L80.6529 81.4601L80.2862 82.0982ZM81.1273 80.6345L77.515 78.5393L78.0252 77.6514L78.7726 78.0849L78.7925 78.0503C78.7089 77.9709 78.6366 77.8827 78.5755 77.7857C78.5125 77.6813 78.4689 77.5697 78.4449 77.451C78.4209 77.3322 78.4187 77.2076 78.4383 77.0772C78.4605 76.9421 78.5129 76.8029 78.5952 76.6596L78.7069 76.4654L79.5442 76.951L79.3847 77.2285C79.212 77.529 79.1256 77.7811 79.1256 77.9845C79.1255 78.1879 79.2247 78.3472 79.4231 78.4622L81.6376 79.7467L81.1273 80.6345ZM84.1801 75.3225C84.0684 75.5167 83.9241 75.6395 83.7469 75.6909C83.5678 75.735 83.3757 75.7161 83.1706 75.6341L83.1467 75.6757C83.3474 75.8723 83.4546 76.0979 83.4683 76.3524C83.4773 76.6043 83.4034 76.8666 83.2466 77.1394C83.034 77.5094 82.7737 77.7375 82.4657 77.824C82.1577 77.9104 81.8422 77.86 81.5192 77.6727C81.1455 77.456 80.9458 77.1613 80.92 76.7887C80.8896 76.4135 81.0166 75.9785 81.3009 75.4837L81.6557 74.8664L81.3927 74.7139C81.1897 74.5961 81.0023 74.5583 80.8305 74.6005C80.6586 74.6426 80.5049 74.7816 80.3694 75.0174C80.2498 75.2255 80.1989 75.421 80.2168 75.604C80.2327 75.7797 80.2777 75.9476 80.3518 76.1077L79.5783 76.3619C79.4477 76.1074 79.3839 75.833 79.3869 75.5388C79.3853 75.242 79.4895 74.9109 79.6994 74.5456C79.9811 74.0554 80.3057 73.7474 80.6733 73.6215C81.041 73.4956 81.4324 73.5531 81.8476 73.7939L83.5499 74.7813L83.7572 74.4207L84.4631 74.8301L84.1801 75.3225ZM82.7745 76.4679C82.8887 76.269 82.9419 76.0748 82.934 75.8853C82.926 75.6957 82.8367 75.5514 82.666 75.4524L82.1885 75.1755L81.8617 75.7442C81.5959 76.2066 81.6107 76.5235 81.9059 76.6947L82.0236 76.763C82.1712 76.8486 82.3085 76.8666 82.4355 76.8169C82.5605 76.7599 82.6735 76.6436 82.7745 76.4679ZM85.5102 73.008C85.3348 73.3132 85.1222 73.5012 84.8723 73.5721C84.6205 73.6357 84.3469 73.5818 84.0517 73.4106L82.0656 72.2586L81.7586 72.7927L81.0528 72.3832L81.2122 72.1058C81.2893 71.9717 81.3111 71.8641 81.2777 71.7831C81.2424 71.6948 81.1624 71.6145 81.0379 71.5422L80.422 71.185L80.8804 70.3873L81.8699 70.9613L82.2965 70.2192L83.0023 70.6286L82.5758 71.3707L84.7764 72.6472L85.171 71.9605L85.8769 72.3699L85.5102 73.008ZM87.2599 70.156C87.1058 70.4242 86.9237 70.6393 86.7139 70.8011C86.502 70.9557 86.2728 71.0602 86.0263 71.1145C85.7778 71.1615 85.5157 71.1574 85.2398 71.1022C84.9594 71.0443 84.6738 70.9311 84.3832 70.7625C84.0971 70.5966 83.86 70.4098 83.6719 70.202C83.4864 69.9896 83.3541 69.7649 83.275 69.5279C83.1913 69.2882 83.1654 69.0389 83.1974 68.78C83.2247 68.5184 83.3141 68.2558 83.4655 67.9922C83.6276 67.7101 83.8169 67.4932 84.0334 67.3413C84.2499 67.1894 84.4797 67.0945 84.7228 67.0568C84.966 67.019 85.2169 67.032 85.4755 67.0957C85.7322 67.1521 85.9851 67.2525 86.2342 67.397L86.5249 67.5656L85.1417 69.9725L85.2317 70.0247C85.4946 70.1772 85.7494 70.2263 85.9959 70.172C86.2378 70.115 86.4424 69.9408 86.6098 69.6495C86.7374 69.4276 86.7949 69.2205 86.7824 69.0282C86.7725 68.8314 86.7279 68.636 86.6487 68.442L87.4566 68.2725C87.5791 68.5409 87.626 68.8393 87.5971 69.1679C87.5663 69.4891 87.4539 69.8185 87.2599 70.156ZM84.1378 68.3637C84.0023 68.5995 83.9731 68.8323 84.0503 69.062C84.1274 69.2917 84.2905 69.4788 84.5396 69.6233L84.595 69.6554L85.448 68.171L85.3858 68.1349C85.1366 67.9904 84.9001 67.9364 84.6761 67.973C84.4501 68.0022 84.2707 68.1325 84.1378 68.3637ZM90.7405 64.6133C90.9296 64.7231 91.0758 64.8541 91.1789 65.0064C91.2894 65.1568 91.3492 65.3363 91.3584 65.5451C91.3675 65.7539 91.3284 65.9933 91.241 66.2631C91.1535 66.533 91.0102 66.8414 90.8109 67.1882C90.6355 67.4934 90.4659 67.7403 90.3021 67.9289C90.143 68.1202 89.9866 68.2638 89.8331 68.3597C89.6868 68.4537 89.5434 68.5 89.4027 68.4985C89.2621 68.4971 89.1248 68.4576 88.991 68.38C88.7881 68.2622 88.6608 68.1144 88.6092 67.9366C88.5649 67.7567 88.5851 67.5557 88.6697 67.3335L88.5936 67.2894C88.4717 67.4159 88.3337 67.4901 88.1798 67.5117C88.0239 67.5261 87.8721 67.4905 87.7245 67.4049C87.6322 67.3514 87.5621 67.286 87.5142 67.2089C87.4616 67.1291 87.4272 67.0444 87.411 66.9549C87.3975 66.8607 87.3972 66.7649 87.41 66.6676C87.4183 66.5676 87.4385 66.4683 87.4705 66.3697L87.4428 66.3537C87.2138 66.5168 86.9774 66.6016 86.7337 66.6082C86.4927 66.6102 86.2522 66.5417 86.0123 66.4025C85.6432 66.1884 85.421 65.89 85.3457 65.5072C85.2658 65.1218 85.3667 64.684 85.6484 64.1938C85.7122 64.0829 85.7816 63.9782 85.8565 63.8799C85.9341 63.7769 86.0157 63.6886 86.1011 63.6148L85.9835 63.5466C85.6328 63.3432 85.5559 63.0704 85.7525 62.7283L86.0754 62.1664L86.7536 62.5598L86.3111 63.3297L86.408 63.3859C86.6231 63.2579 86.8425 63.1971 87.0664 63.2036C87.2902 63.2101 87.5128 63.2776 87.7343 63.4061C88.0988 63.6175 88.3186 63.9146 88.3939 64.2973C88.4719 64.6755 88.3687 65.1119 88.0843 65.6067C87.9621 65.8194 87.835 65.9924 87.7031 66.1255C87.6956 66.2136 87.7049 66.2991 87.731 66.3821C87.7525 66.4624 87.8025 66.5253 87.8809 66.5708C88.0608 66.6751 88.2411 66.5701 88.4218 66.2557L88.9799 65.2846C89.235 64.8407 89.512 64.5728 89.8108 64.481C90.1076 64.3819 90.4175 64.426 90.7405 64.6133ZM90.3659 65.5059C90.2506 65.439 90.1341 65.4331 90.0163 65.4881C89.8986 65.5431 89.7746 65.6839 89.6444 65.9105L88.9349 67.1451C88.9554 67.3235 89.0441 67.4582 89.2009 67.5491C89.3393 67.6294 89.481 67.6345 89.6258 67.5644C89.7707 67.4943 89.9229 67.3205 90.0823 67.0431L90.3374 66.5991C90.5048 66.3078 90.5888 66.076 90.5894 65.9037C90.5927 65.7268 90.5182 65.5942 90.3659 65.5059ZM87.4823 65.2575C87.7321 64.8228 87.6724 64.4985 87.3033 64.2844L87.1857 64.2162C86.8166 64.0021 86.5072 64.1124 86.2574 64.5471C86.0076 64.9817 86.0672 65.3061 86.4363 65.5202L86.5539 65.5884C86.923 65.8025 87.2325 65.6922 87.4823 65.2575ZM88.4133 59.5753L88.8917 58.743L92.3105 62.6681C92.4131 62.7893 92.4933 62.9067 92.551 63.0203C92.616 63.132 92.6559 63.2445 92.6707 63.3579C92.6855 63.4713 92.6748 63.5915 92.6387 63.7186C92.6026 63.8456 92.5421 63.9831 92.457 64.1311L92.1501 64.6652L91.4442 64.2557L91.8189 63.6037L91.4094 63.1443L86.8787 62.2457L87.3849 61.3648L89.6576 61.8415L90.7066 62.1355L90.7305 62.0939L89.9606 61.3143L88.4133 59.5753Z" fill="#0668E1" style="fill:#0668E1;fill:color(display-p3 0.0235 0.4078 0.8824);fill-opacity:1;"/>
<path d="M126 18L126.014 23.7735L131.007 20.8744L126 18ZM198 142L197.986 136.227L192.993 139.126L198 142ZM126.068 19.1122C126.206 19.351 126.512 19.4322 126.751 19.2935C126.99 19.1548 127.071 18.8488 126.932 18.61L126.5 18.8611L126.068 19.1122ZM127.932 20.3323C127.794 20.0935 127.488 20.0123 127.249 20.1509C127.01 20.2896 126.929 20.5956 127.068 20.8344L127.5 20.5833L127.932 20.3323ZM128.068 22.5566C128.206 22.7954 128.512 22.8766 128.751 22.738C128.99 22.5993 129.071 22.2933 128.932 22.0545L128.5 22.3056L128.068 22.5566ZM129.932 23.7767C129.794 23.5379 129.488 23.4567 129.249 23.5954C129.01 23.734 128.929 24.04 129.068 24.2788L129.5 24.0278L129.932 23.7767ZM130.068 26.0011C130.206 26.2399 130.512 26.3211 130.751 26.1824C130.99 26.0437 131.071 25.7377 130.932 25.4989L130.5 25.75L130.068 26.0011ZM131.932 27.2212C131.794 26.9823 131.488 26.9012 131.249 27.0398C131.01 27.1785 130.929 27.4845 131.068 27.7233L131.5 27.4722L131.932 27.2212ZM132.068 29.4455C132.206 29.6843 132.512 29.7655 132.751 29.6268C132.99 29.4882 133.071 29.1822 132.932 28.9434L132.5 29.1944L132.068 29.4455ZM133.932 30.6656C133.794 30.4268 133.488 30.3456 133.249 30.4843C133.01 30.6229 132.929 30.9289 133.068 31.1677L133.5 30.9167L133.932 30.6656ZM134.068 32.89C134.206 33.1288 134.512 33.2099 134.751 33.0713C134.99 32.9326 135.071 32.6266 134.932 32.3878L134.5 32.6389L134.068 32.89ZM135.932 34.11C135.794 33.8712 135.488 33.7901 135.249 33.9287C135.01 34.0674 134.929 34.3734 135.068 34.6122L135.5 34.3611L135.932 34.11ZM136.068 36.3344C136.206 36.5732 136.512 36.6544 136.751 36.5157C136.99 36.3771 137.071 36.0711 136.932 35.8323L136.5 36.0833L136.068 36.3344ZM137.932 37.5545C137.794 37.3157 137.488 37.2345 137.249 37.3732C137.01 37.5118 136.929 37.8178 137.068 38.0566L137.5 37.8056L137.932 37.5545ZM138.068 39.7788C138.206 40.0177 138.512 40.0988 138.751 39.9602C138.99 39.8215 139.071 39.5155 138.932 39.2767L138.5 39.5278L138.068 39.7788ZM139.932 40.9989C139.794 40.7601 139.488 40.6789 139.249 40.8176C139.01 40.9563 138.929 41.2623 139.068 41.5011L139.5 41.25L139.932 40.9989ZM140.068 43.2233C140.206 43.4621 140.512 43.5433 140.751 43.4046C140.99 43.266 141.071 42.96 140.932 42.7212L140.5 42.9722L140.068 43.2233ZM141.932 44.4434C141.794 44.2046 141.488 44.1234 141.249 44.2621C141.01 44.4007 140.929 44.7067 141.068 44.9455L141.5 44.6945L141.932 44.4434ZM142.068 46.6677C142.206 46.9065 142.512 46.9877 142.751 46.8491C142.99 46.7104 143.071 46.4044 142.932 46.1656L142.5 46.4167L142.068 46.6677ZM143.932 47.8878C143.794 47.649 143.488 47.5678 143.249 47.7065C143.01 47.8452 142.929 48.1512 143.068 48.39L143.5 48.1389L143.932 47.8878ZM144.068 50.1122C144.206 50.351 144.512 50.4322 144.751 50.2935C144.99 50.1549 145.071 49.8489 144.932 49.61L144.5 49.8611L144.068 50.1122ZM145.932 51.3323C145.794 51.0935 145.488 51.0123 145.249 51.1509C145.01 51.2896 144.929 51.5956 145.068 51.8344L145.5 51.5833L145.932 51.3323ZM146.068 53.5566C146.206 53.7954 146.512 53.8766 146.751 53.738C146.99 53.5993 147.071 53.2933 146.932 53.0545L146.5 53.3056L146.068 53.5566ZM147.932 54.7767C147.794 54.5379 147.488 54.4567 147.249 54.5954C147.01 54.734 146.929 55.04 147.068 55.2788L147.5 55.0278L147.932 54.7767ZM148.068 57.0011C148.206 57.2399 148.512 57.3211 148.751 57.1824C148.99 57.0437 149.071 56.7377 148.932 56.4989L148.5 56.75L148.068 57.0011ZM149.932 58.2212C149.794 57.9823 149.488 57.9012 149.249 58.0398C149.01 58.1785 148.929 58.4845 149.068 58.7233L149.5 58.4722L149.932 58.2212ZM150.068 60.4455C150.206 60.6843 150.512 60.7655 150.751 60.6268C150.99 60.4882 151.071 60.1822 150.932 59.9434L150.5 60.1944L150.068 60.4455ZM151.932 61.6656C151.794 61.4268 151.488 61.3456 151.249 61.4843C151.01 61.6229 150.929 61.9289 151.068 62.1677L151.5 61.9167L151.932 61.6656ZM152.068 63.89C152.206 64.1288 152.512 64.2099 152.751 64.0713C152.99 63.9326 153.071 63.6266 152.932 63.3878L152.5 63.6389L152.068 63.89ZM153.932 65.11C153.794 64.8712 153.488 64.7901 153.249 64.9287C153.01 65.0674 152.929 65.3734 153.068 65.6122L153.5 65.3611L153.932 65.11ZM154.068 67.3344C154.206 67.5732 154.512 67.6544 154.751 67.5157C154.99 67.3771 155.071 67.0711 154.932 66.8323L154.5 67.0833L154.068 67.3344ZM155.932 68.5545C155.794 68.3157 155.488 68.2345 155.249 68.3732C155.01 68.5118 154.929 68.8178 155.068 69.0566L155.5 68.8055L155.932 68.5545ZM156.068 70.7788C156.206 71.0176 156.512 71.0988 156.751 70.9602C156.99 70.8215 157.071 70.5155 156.932 70.2767L156.5 70.5278L156.068 70.7788ZM157.932 71.9989C157.794 71.7601 157.488 71.6789 157.249 71.8176C157.01 71.9563 156.929 72.2623 157.068 72.5011L157.5 72.25L157.932 71.9989ZM158.068 74.2233C158.206 74.4621 158.512 74.5433 158.751 74.4046C158.99 74.2659 159.071 73.96 158.932 73.7211L158.5 73.9722L158.068 74.2233ZM159.932 75.4434C159.794 75.2046 159.488 75.1234 159.249 75.262C159.01 75.4007 158.929 75.7067 159.068 75.9455L159.5 75.6944L159.932 75.4434ZM160.068 77.6677C160.206 77.9065 160.512 77.9877 160.751 77.8491C160.99 77.7104 161.071 77.4044 160.932 77.1656L160.5 77.4167L160.068 77.6677ZM161.932 78.8878C161.794 78.649 161.488 78.5678 161.249 78.7065C161.01 78.8451 160.929 79.1511 161.068 79.3899L161.5 79.1389L161.932 78.8878ZM162.068 81.1122C162.206 81.351 162.512 81.4322 162.751 81.2935C162.99 81.1548 163.071 80.8488 162.932 80.61L162.5 80.8611L162.068 81.1122ZM163.932 82.3323C163.794 82.0935 163.488 82.0123 163.249 82.1509C163.01 82.2896 162.929 82.5956 163.068 82.8344L163.5 82.5833L163.932 82.3323ZM164.068 84.5566C164.206 84.7954 164.512 84.8766 164.751 84.7379C164.99 84.5993 165.071 84.2933 164.932 84.0545L164.5 84.3055L164.068 84.5566ZM165.932 85.7767C165.794 85.5379 165.488 85.4567 165.249 85.5954C165.01 85.734 164.929 86.04 165.068 86.2788L165.5 86.0278L165.932 85.7767ZM166.068 88.0011C166.206 88.2399 166.512 88.321 166.751 88.1824C166.99 88.0437 167.071 87.7377 166.932 87.4989L166.5 87.75L166.068 88.0011ZM167.932 89.2211C167.794 88.9823 167.488 88.9012 167.249 89.0398C167.01 89.1785 166.929 89.4845 167.068 89.7233L167.5 89.4722L167.932 89.2211ZM168.068 91.4455C168.206 91.6843 168.512 91.7655 168.751 91.6268C168.99 91.4882 169.071 91.1822 168.932 90.9434L168.5 91.1944L168.068 91.4455ZM169.932 92.6656C169.794 92.4268 169.488 92.3456 169.249 92.4843C169.01 92.6229 168.929 92.9289 169.068 93.1677L169.5 92.9166L169.932 92.6656ZM170.068 94.8899C170.206 95.1287 170.512 95.2099 170.751 95.0713C170.99 94.9326 171.071 94.6266 170.932 94.3878L170.5 94.6389L170.068 94.8899ZM171.932 96.11C171.794 95.8712 171.488 95.79 171.249 95.9287C171.01 96.0674 170.929 96.3734 171.068 96.6122L171.5 96.3611L171.932 96.11ZM172.068 98.3344C172.206 98.5732 172.512 98.6544 172.751 98.5157C172.99 98.3771 173.071 98.0711 172.932 97.8322L172.5 98.0833L172.068 98.3344ZM173.932 99.5545C173.794 99.3157 173.488 99.2345 173.249 99.3731C173.01 99.5118 172.929 99.8178 173.068 100.057L173.5 99.8055L173.932 99.5545ZM174.068 101.779C174.206 102.018 174.512 102.099 174.751 101.96C174.99 101.821 175.071 101.515 174.932 101.277L174.5 101.528L174.068 101.779ZM175.932 102.999C175.794 102.76 175.488 102.679 175.249 102.818C175.01 102.956 174.929 103.262 175.068 103.501L175.5 103.25L175.932 102.999ZM176.068 105.223C176.206 105.462 176.512 105.543 176.751 105.405C176.99 105.266 177.071 104.96 176.932 104.721L176.5 104.972L176.068 105.223ZM177.932 106.443C177.794 106.205 177.488 106.123 177.249 106.262C177.01 106.401 176.929 106.707 177.068 106.945L177.5 106.694L177.932 106.443ZM178.068 108.668C178.206 108.907 178.512 108.988 178.751 108.849C178.99 108.71 179.071 108.404 178.932 108.166L178.5 108.417L178.068 108.668ZM179.932 109.888C179.794 109.649 179.488 109.568 179.249 109.706C179.01 109.845 178.929 110.151 179.068 110.39L179.5 110.139L179.932 109.888ZM180.068 112.112C180.206 112.351 180.512 112.432 180.751 112.293C180.99 112.155 181.071 111.849 180.932 111.61L180.5 111.861L180.068 112.112ZM181.932 113.332C181.794 113.093 181.488 113.012 181.249 113.151C181.01 113.29 180.929 113.596 181.068 113.834L181.5 113.583L181.932 113.332ZM182.068 115.557C182.206 115.795 182.512 115.877 182.751 115.738C182.99 115.599 183.071 115.293 182.932 115.054L182.5 115.306L182.068 115.557ZM183.932 116.777C183.794 116.538 183.488 116.457 183.249 116.595C183.01 116.734 182.929 117.04 183.068 117.279L183.5 117.028L183.932 116.777ZM184.068 119.001C184.206 119.24 184.512 119.321 184.751 119.182C184.99 119.044 185.071 118.738 184.932 118.499L184.5 118.75L184.068 119.001ZM185.932 120.221C185.794 119.982 185.488 119.901 185.249 120.04C185.01 120.178 184.929 120.484 185.068 120.723L185.5 120.472L185.932 120.221ZM186.068 122.445C186.206 122.684 186.512 122.765 186.751 122.627C186.99 122.488 187.071 122.182 186.932 121.943L186.5 122.194L186.068 122.445ZM187.932 123.666C187.794 123.427 187.488 123.346 187.249 123.484C187.01 123.623 186.929 123.929 187.068 124.168L187.5 123.917L187.932 123.666ZM188.068 125.89C188.206 126.129 188.512 126.21 188.751 126.071C188.99 125.933 189.071 125.627 188.932 125.388L188.5 125.639L188.068 125.89ZM189.932 127.11C189.794 126.871 189.488 126.79 189.249 126.929C189.01 127.067 188.929 127.373 189.068 127.612L189.5 127.361L189.932 127.11ZM190.068 129.334C190.206 129.573 190.512 129.654 190.751 129.516C190.99 129.377 191.071 129.071 190.932 128.832L190.5 129.083L190.068 129.334ZM191.932 130.554C191.794 130.316 191.488 130.234 191.249 130.373C191.01 130.512 190.929 130.818 191.068 131.057L191.5 130.806L191.932 130.554ZM192.068 132.779C192.206 133.018 192.512 133.099 192.751 132.96C192.99 132.821 193.071 132.515 192.932 132.277L192.5 132.528L192.068 132.779ZM193.932 133.999C193.794 133.76 193.488 133.679 193.249 133.818C193.01 133.956 192.929 134.262 193.068 134.501L193.5 134.25L193.932 133.999ZM194.068 136.223C194.206 136.462 194.512 136.543 194.751 136.405C194.99 136.266 195.071 135.96 194.932 135.721L194.5 135.972L194.068 136.223ZM195.932 137.443C195.794 137.205 195.488 137.123 195.249 137.262C195.01 137.401 194.929 137.707 195.068 137.946L195.5 137.694L195.932 137.443ZM196.068 139.668C196.206 139.907 196.512 139.988 196.751 139.849C196.99 139.71 197.071 139.404 196.932 139.166L196.5 139.417L196.068 139.668ZM197.932 140.888C197.794 140.649 197.488 140.568 197.249 140.706C197.01 140.845 196.929 141.151 197.068 141.39L197.5 141.139L197.932 140.888ZM127.5 20.5833L127.068 20.8344L128.068 22.5566L128.5 22.3056L128.932 22.0545L127.932 20.3323L127.5 20.5833ZM129.5 24.0278L129.068 24.2788L130.068 26.0011L130.5 25.75L130.932 25.4989L129.932 23.7767L129.5 24.0278ZM131.5 27.4722L131.068 27.7233L132.068 29.4455L132.5 29.1944L132.932 28.9434L131.932 27.2212L131.5 27.4722ZM133.5 30.9167L133.068 31.1677L134.068 32.89L134.5 32.6389L134.932 32.3878L133.932 30.6656L133.5 30.9167ZM135.5 34.3611L135.068 34.6122L136.068 36.3344L136.5 36.0833L136.932 35.8323L135.932 34.11L135.5 34.3611ZM137.5 37.8056L137.068 38.0566L138.068 39.7788L138.5 39.5278L138.932 39.2767L137.932 37.5545L137.5 37.8056ZM139.5 41.25L139.068 41.5011L140.068 43.2233L140.5 42.9722L140.932 42.7212L139.932 40.9989L139.5 41.25ZM141.5 44.6945L141.068 44.9455L142.068 46.6677L142.5 46.4167L142.932 46.1656L141.932 44.4434L141.5 44.6945ZM143.5 48.1389L143.068 48.39L144.068 50.1122L144.5 49.8611L144.932 49.61L143.932 47.8878L143.5 48.1389ZM145.5 51.5833L145.068 51.8344L146.068 53.5566L146.5 53.3056L146.932 53.0545L145.932 51.3323L145.5 51.5833ZM147.5 55.0278L147.068 55.2788L148.068 57.0011L148.5 56.75L148.932 56.4989L147.932 54.7767L147.5 55.0278ZM149.5 58.4722L149.068 58.7233L150.068 60.4455L150.5 60.1944L150.932 59.9434L149.932 58.2212L149.5 58.4722ZM151.5 61.9167L151.068 62.1677L152.068 63.89L152.5 63.6389L152.932 63.3878L151.932 61.6656L151.5 61.9167ZM153.5 65.3611L153.068 65.6122L154.068 67.3344L154.5 67.0833L154.932 66.8323L153.932 65.11L153.5 65.3611ZM155.5 68.8055L155.068 69.0566L156.068 70.7788L156.5 70.5278L156.932 70.2767L155.932 68.5545L155.5 68.8055ZM157.5 72.25L157.068 72.5011L158.068 74.2233L158.5 73.9722L158.932 73.7211L157.932 71.9989L157.5 72.25ZM159.5 75.6944L159.068 75.9455L160.068 77.6677L160.5 77.4167L160.932 77.1656L159.932 75.4434L159.5 75.6944ZM161.5 79.1389L161.068 79.3899L162.068 81.1122L162.5 80.8611L162.932 80.61L161.932 78.8878L161.5 79.1389ZM163.5 82.5833L163.068 82.8344L164.068 84.5566L164.5 84.3055L164.932 84.0545L163.932 82.3323L163.5 82.5833ZM165.5 86.0278L165.068 86.2788L166.068 88.0011L166.5 87.75L166.932 87.4989L165.932 85.7767L165.5 86.0278ZM167.5 89.4722L167.068 89.7233L168.068 91.4455L168.5 91.1944L168.932 90.9434L167.932 89.2211L167.5 89.4722ZM169.5 92.9166L169.068 93.1677L170.068 94.8899L170.5 94.6389L170.932 94.3878L169.932 92.6656L169.5 92.9166ZM171.5 96.3611L171.068 96.6122L172.068 98.3344L172.5 98.0833L172.932 97.8322L171.932 96.11L171.5 96.3611ZM173.5 99.8055L173.068 100.057L174.068 101.779L174.5 101.528L174.932 101.277L173.932 99.5545L173.5 99.8055ZM175.5 103.25L175.068 103.501L176.068 105.223L176.5 104.972L176.932 104.721L175.932 102.999L175.5 103.25ZM177.5 106.694L177.068 106.945L178.068 108.668L178.5 108.417L178.932 108.166L177.932 106.443L177.5 106.694ZM179.5 110.139L179.068 110.39L180.068 112.112L180.5 111.861L180.932 111.61L179.932 109.888L179.5 110.139ZM181.5 113.583L181.068 113.834L182.068 115.557L182.5 115.306L182.932 115.054L181.932 113.332L181.5 113.583ZM183.5 117.028L183.068 117.279L184.068 119.001L184.5 118.75L184.932 118.499L183.932 116.777L183.5 117.028ZM185.5 120.472L185.068 120.723L186.068 122.445L186.5 122.194L186.932 121.943L185.932 120.221L185.5 120.472ZM187.5 123.917L187.068 124.168L188.068 125.89L188.5 125.639L188.932 125.388L187.932 123.666L187.5 123.917ZM189.5 127.361L189.068 127.612L190.068 129.334L190.5 129.083L190.932 128.832L189.932 127.11L189.5 127.361ZM191.5 130.806L191.068 131.057L192.068 132.779L192.5 132.528L192.932 132.277L191.932 130.554L191.5 130.806ZM193.5 134.25L193.068 134.501L194.068 136.223L194.5 135.972L194.932 135.721L193.932 133.999L193.5 134.25ZM195.5 137.694L195.068 137.946L196.068 139.668L196.5 139.417L196.932 139.166L195.932 137.443L195.5 137.694Z" fill="#0668E1" style="fill:#0668E1;fill:color(display-p3 0.0235 0.4078 0.8824);fill-opacity:1;"/>
<path d="M159.085 57.3757L166.33 53.1732L169.081 57.9591L167.866 58.6636L165.905 55.251L164.151 56.2685L165.885 59.2857L164.67 59.9902L162.936 56.9729L161.089 58.0446L163.05 61.4572L161.835 62.1617L159.085 57.3757ZM162.293 62.9587L166.108 63.2152L167.736 59.8575L168.609 61.3765L167.459 63.5418L167.483 63.5834L169.918 63.655L170.731 65.07L166.985 64.7879L165.319 68.2233L164.446 66.7043L165.657 64.4761L165.633 64.4344L163.107 64.3737L162.293 62.9587ZM166.924 71.3055C166.693 70.9032 166.551 70.5044 166.499 70.109C166.458 69.7166 166.495 69.3392 166.61 68.9768C166.735 68.6172 166.937 68.2782 167.216 67.9596C167.501 67.6369 167.861 67.3492 168.297 67.0963C168.726 66.8475 169.146 66.6782 169.556 66.5885C169.969 66.5057 170.359 66.5016 170.725 66.5761C171.098 66.6466 171.439 66.7998 171.75 67.0357C172.068 67.2675 172.341 67.5811 172.568 67.9765C172.811 68.3996 172.95 68.8094 172.984 69.2058C173.018 69.6022 172.968 69.9732 172.834 70.3189C172.701 70.6645 172.496 70.9822 172.22 71.272C171.954 71.5647 171.634 71.8194 171.261 72.0362L170.825 72.2891L168.75 68.6788L168.615 68.757C168.221 68.9858 167.966 69.2815 167.851 69.6439C167.744 70.0023 167.815 70.4 168.067 70.837C168.258 71.1699 168.483 71.4003 168.741 71.5281C169.002 71.6629 169.289 71.7513 169.599 71.7933L169.212 72.9748C168.773 72.9335 168.352 72.7708 167.949 72.4867C167.557 72.2056 167.215 71.8118 166.924 71.3055ZM171.583 68.5753C171.38 68.2216 171.101 68.0089 170.746 67.9373C170.391 67.8656 170.027 67.9382 169.653 68.155L169.57 68.2031L170.85 70.4296L170.943 70.3755C171.317 70.1587 171.564 69.8905 171.685 69.5707C171.816 69.2539 171.783 68.9221 171.583 68.5753ZM170.228 77.0551C169.997 76.6528 169.858 76.2574 169.81 75.869C169.762 75.4806 169.801 75.1067 169.926 74.7472C170.056 74.3946 170.262 74.0624 170.544 73.7508C170.833 73.4351 171.195 73.1508 171.631 72.8979C172.067 72.6451 172.49 72.4738 172.9 72.384C173.31 72.2943 173.696 72.2833 174.057 72.3509C174.43 72.4214 174.772 72.5746 175.083 72.8104C175.394 73.0463 175.665 73.3654 175.896 73.7677C176.211 74.3157 176.349 74.8367 176.31 75.331C176.275 75.8321 176.089 76.2869 175.751 76.6953L174.636 75.8858C174.828 75.691 174.947 75.4647 174.993 75.207C175.05 74.9522 174.994 74.6792 174.827 74.3878C174.611 74.0133 174.332 73.8006 173.989 73.7498C173.651 73.7059 173.291 73.7944 172.91 74.0151L171.924 74.5871C171.543 74.8079 171.287 75.0767 171.156 75.3935C171.035 75.7132 171.082 76.0604 171.297 76.4349C171.481 76.754 171.702 76.9541 171.961 77.0351C172.226 77.1122 172.508 77.1291 172.806 77.0857L172.904 78.3883C172.323 78.4849 171.806 78.4196 171.353 78.1925C170.906 77.9614 170.531 77.5822 170.228 77.0551ZM174.955 82.8961L174.925 82.8441C174.759 82.8758 174.59 82.8862 174.417 82.8752C174.256 82.8671 174.091 82.8287 173.922 82.7601C173.757 82.6984 173.598 82.5969 173.443 82.4556C173.292 82.3212 173.152 82.1431 173.025 81.9211C172.702 81.3593 172.638 80.8228 172.833 80.3119C173.029 79.8009 173.466 79.3487 174.144 78.9553L177.569 76.9685L178.335 78.3002L175.044 80.2088C174.67 80.4256 174.425 80.665 174.308 80.927C174.198 81.1851 174.235 81.4736 174.418 81.7927C174.494 81.9245 174.585 82.0428 174.691 82.1475C174.801 82.2593 174.919 82.3436 175.044 82.4006C175.176 82.4535 175.312 82.4811 175.452 82.4833C175.598 82.4815 175.744 82.4385 175.889 82.3542L179.471 80.277L180.236 81.6088L174.817 84.7516L174.052 83.4199L174.955 82.8961ZM176.676 87.9862C176.413 87.5284 176.33 87.1099 176.425 86.7307C176.532 86.3544 176.807 86.0378 177.25 85.7809L180.229 84.0529L179.768 83.2518L180.827 82.6377L181.066 83.0538C181.182 83.255 181.305 83.3641 181.435 83.3813C181.575 83.4014 181.739 83.3573 181.926 83.2489L182.85 82.7131L183.537 83.9096L182.053 84.7705L182.693 85.8838L181.634 86.4979L180.994 85.3847L177.693 87.2993L178.285 88.3293L177.226 88.9434L176.676 87.9862ZM184.528 87.2472C184.369 86.9698 184.315 86.7325 184.368 86.5354C184.425 86.3452 184.55 86.1939 184.744 86.0816L184.952 85.9611C185.145 85.8487 185.338 85.8154 185.531 85.861C185.727 85.9137 185.905 86.0787 186.064 86.3561C186.22 86.6266 186.271 86.8604 186.218 87.0575C186.166 87.2546 186.042 87.4094 185.849 87.5218L185.641 87.6422C185.447 87.7546 185.252 87.7845 185.056 87.7319C184.86 87.6793 184.684 87.5177 184.528 87.2472ZM183.357 87.0389L184.122 88.3707L178.703 91.5135L177.938 90.1818L183.357 87.0389ZM180.704 95.2831C180.48 94.8947 180.345 94.5063 180.297 94.1179C180.253 93.7364 180.292 93.3625 180.414 92.996C180.539 92.6365 180.741 92.2974 181.019 91.9788C181.304 91.6562 181.665 91.3684 182.101 91.1156C182.537 90.8627 182.962 90.6949 183.376 90.6121C183.789 90.5293 184.179 90.5252 184.545 90.5997C184.922 90.6772 185.263 90.8304 185.57 91.0593C185.881 91.2952 186.148 91.6073 186.371 91.9957C186.595 92.3842 186.73 92.7726 186.778 93.161C186.826 93.5494 186.787 93.9233 186.661 94.2828C186.547 94.6453 186.35 94.9858 186.072 95.3044C185.794 95.623 185.437 95.9088 185.001 96.1617C184.565 96.4145 184.137 96.5844 183.716 96.6712C183.302 96.7539 182.907 96.7566 182.53 96.6791C182.157 96.6086 181.816 96.4554 181.505 96.2196C181.194 95.9837 180.927 95.6715 180.704 95.2831ZM181.773 94.663C181.976 95.0167 182.243 95.2319 182.573 95.3087C182.903 95.3854 183.276 95.3033 183.691 95.0625L184.698 94.4785C185.106 94.2417 185.36 93.9605 185.459 93.6349C185.558 93.3093 185.505 92.9696 185.302 92.6159C185.103 92.2691 184.838 92.0573 184.508 91.9806C184.178 91.9039 183.809 91.9839 183.4 92.2207L182.393 92.8048C181.978 93.0456 181.721 93.3288 181.622 93.6544C181.523 93.98 181.574 94.3162 181.773 94.663ZM182.96 98.9197L188.378 95.7769L189.144 97.1086L188.24 97.6324L188.27 97.6845C188.625 97.6269 188.967 97.6598 189.296 97.7832C189.636 97.9096 189.928 98.1843 190.171 98.6074C190.494 99.1693 190.558 99.7057 190.362 100.217C190.167 100.728 189.73 101.18 189.052 101.573L185.626 103.56L184.861 102.228L188.152 100.32C188.539 100.095 188.79 99.857 188.904 99.6059C189.018 99.3548 188.983 99.0697 188.8 98.7506C188.72 98.6119 188.622 98.4887 188.505 98.381C188.398 98.2762 188.277 98.1939 188.141 98.134C188.016 98.077 187.88 98.0494 187.734 98.0512C187.594 98.049 187.452 98.09 187.306 98.1743L183.725 100.251L182.96 98.9197Z" fill="#0668E1" style="fill:#0668E1;fill:color(display-p3 0.0235 0.4078 0.8824);fill-opacity:1;"/>
<path d="M147.867 81.3554L147.843 81.3137C147.454 81.456 147.043 81.4309 146.609 81.2385C146.187 81.049 145.818 80.6802 145.503 80.1323C145.256 79.7022 145.106 79.2572 145.054 78.7973C145.006 78.3443 145.06 77.8922 145.216 77.4411C145.383 76.9929 145.654 76.558 146.03 76.1365C146.406 75.7149 146.898 75.3276 147.507 74.9743C148.116 74.6211 148.697 74.3863 149.248 74.27C149.81 74.1566 150.332 74.1498 150.814 74.2495C151.296 74.3493 151.733 74.5487 152.127 74.8477C152.52 75.1467 152.856 75.539 153.135 76.0245C153.51 76.6765 153.687 77.3137 153.666 77.9361C153.645 78.5584 153.444 79.1559 153.063 79.7286L151.769 78.9946C152.005 78.6822 152.151 78.334 152.207 77.95C152.267 77.573 152.172 77.1659 151.921 76.729C151.61 76.1879 151.194 75.8508 150.675 75.7174C150.166 75.587 149.59 75.7084 148.947 76.0817L147.784 76.7561C147.147 77.1253 146.757 77.5693 146.612 78.088C146.467 78.6067 146.552 79.14 146.867 79.6879C146.99 79.9029 147.13 80.09 147.286 80.2492C147.449 80.4044 147.623 80.5212 147.806 80.5998C147.99 80.6783 148.181 80.715 148.382 80.7099C148.582 80.7048 148.785 80.6421 148.993 80.5217L149.46 80.2507L148.641 78.8254L149.793 78.1571L151.372 80.9038L147.427 83.1917L146.746 82.0056L147.867 81.3554ZM150.59 88.6947C150.422 88.4033 150.372 88.1228 150.438 87.8531C150.516 87.5863 150.684 87.3498 150.944 87.1436L150.908 87.0811C150.503 87.1957 150.131 87.1664 149.792 86.9933C149.459 86.8162 149.176 86.5231 148.94 86.1138C148.622 85.5589 148.522 85.0481 148.641 84.5812C148.76 84.1144 149.062 83.7405 149.546 83.4595C150.107 83.1344 150.638 83.0947 151.139 83.3405C151.647 83.5822 152.114 84.0742 152.541 84.8163L153.073 85.7423L153.467 85.5135C153.772 85.3369 153.961 85.1207 154.036 84.8648C154.11 84.6089 154.046 84.3041 153.842 83.9504C153.663 83.6383 153.448 83.4252 153.198 83.3113C152.959 83.2003 152.708 83.1331 152.446 83.1097L152.697 81.9095C153.124 81.93 153.527 82.0526 153.905 82.2771C154.29 82.4977 154.64 82.8819 154.955 83.4299C155.377 84.1651 155.532 84.8198 155.419 85.394C155.306 85.9681 154.938 86.4359 154.316 86.7971L151.762 88.2782L152.073 88.8192L151.014 89.4334L150.59 88.6947ZM150.163 86.0013C150.334 86.2995 150.546 86.5146 150.797 86.6464C151.048 86.7782 151.301 86.7699 151.557 86.6213L152.274 86.2059L151.783 85.3528C151.385 84.6591 150.964 84.4408 150.521 84.6977L150.345 84.8C150.123 84.9285 149.997 85.0942 149.966 85.2971C149.946 85.503 150.011 85.7377 150.163 86.0013ZM157.052 87.3683L157.817 88.7001L156.925 89.2179L156.949 89.2595C157.316 89.176 157.667 89.2173 158.003 89.3834C158.345 89.5456 158.62 89.807 158.827 90.1677C159.226 90.8613 159.283 91.5309 158.999 92.1766C158.726 92.8252 158.136 93.4124 157.229 93.9382C156.316 94.468 155.508 94.6916 154.805 94.609C154.107 94.5333 153.558 94.1486 153.159 93.455C152.952 93.0943 152.864 92.7246 152.896 92.3457C152.931 91.9737 153.074 91.6454 153.326 91.3607L153.302 91.3191L150.323 93.0471L149.558 91.7153L157.052 87.3683ZM154.015 92.3902C154.214 92.737 154.489 92.9517 154.841 93.0343C155.193 93.1169 155.563 93.0458 155.951 92.821L156.885 92.2791C157.272 92.0543 157.518 91.7682 157.623 91.4207C157.735 91.0692 157.691 90.7201 157.492 90.3733C157.309 90.0542 157.075 89.8333 156.793 89.7106C156.514 89.5948 156.243 89.6132 155.98 89.7658L154.257 90.7652C153.973 90.9298 153.815 91.1603 153.782 91.4566C153.754 91.76 153.831 92.0712 154.015 92.3902Z" fill="#0668E1" style="fill:#0668E1;fill:color(display-p3 0.0235 0.4078 0.8824);fill-opacity:1;"/>
</svg>
