<svg xmlns="http://www.w3.org/2000/svg" width="320" height="160" fill="none" xmlns:v="https://vecta.io/nano"><style><![CDATA[.B{stroke-miterlimit:10}.C{fill:#fff}.D{stroke:#fff}.E{stroke-linejoin:round}.F{fill:#0668e1}.G{stroke-width:.945}.H{stroke-linecap:round}.I{fill:#282828}.J{fill:#f3978e}.K{stroke-width:.676}.L{stroke:#282828}.M{fill:#ffa98f}.N{fill:#ffb1a5}.O{stroke:#e3ecff}.P{stroke-width:.953}.Q{fill:#e3ecff}.R{fill:#1b1c17}.S{fill:#071a22}.T{stroke-width:.242}.U{fill:#5188ff}.V{fill-rule:evenodd}]]></style><g clip-path="url(#B)"><rect width="320" height="160" rx="16" class="C"/><g class="B O P"><path d="M38.832 73.02h241.846"/><path d="M277.52 207.125H41.99c-1.745 0-3.158-1.417-3.158-3.166V60.295c0-1.749 1.414-3.166 3.158-3.166h235.53c1.745 0 3.158 1.418 3.158 3.166v143.664c0 1.749-1.414 3.166-3.158 3.166z"/></g><use href="#D" class="C"/><use href="#D" class="B O P"/><path d="M268.998 111.33h29.542a2.92 2.92 0 0 0 2.917-2.924v-24.27a2.92 2.92 0 0 0-2.917-2.924h-29.542a2.92 2.92 0 0 0-2.916 2.924v24.27a2.92 2.92 0 0 0 2.916 2.924z" class="Q"/><g stroke="#0668e1" stroke-width=".797" class="B E"><path d="M291.841 101.279h-13.828-2.497V90.305h16.325v2.743 8.231z"/><path d="M275.516 90.305l8.162 6.448 8.163-6.448" class="H"/></g><use href="#E" class="C"/><use href="#E" class="B O P"/><path d="M48.786 160.479H20.672a3.22 3.22 0 0 1-3.215-3.223V130.04a3.22 3.22 0 0 1 3.215-3.224h28.113a3.22 3.22 0 0 1 3.215 3.224v27.216a3.22 3.22 0 0 1-3.215 3.223z" class="Q"/><g clip-path="url(#C)" class="F"><path d="M34.488 140.39c.301 0 .59-.12.804-.333s.333-.502.333-.803-.12-.591-.333-.804-.502-.333-.804-.333-.59.12-.804.333-.333.502-.333.804.12.59.333.803.502.333.804.333z"/><path d="M34.489 140.389c.543 0 1.027.347 1.2.862l.079.237a.2.2 0 0 1 .009.094c-.005.032-.017.062-.036.087s-.043.047-.072.062-.06.022-.092.021h-2.173c-.032 0-.063-.007-.091-.022s-.053-.035-.071-.061-.031-.056-.036-.087-.002-.064.008-.094l.079-.237c.084-.251.245-.47.461-.625a1.26 1.26 0 0 1 .739-.237h-.004zm-2.727 3.636c0-.12.048-.236.133-.321s.201-.133.321-.133h4.546c.12 0 .236.048.321.133s.133.201.133.321-.048.237-.133.322-.201.133-.321.133h-4.546c-.121 0-.236-.048-.321-.133s-.133-.201-.133-.322zm0 1.819c0-.121.048-.236.133-.322s.201-.133.321-.133h4.546c.12 0 .236.048.321.133s.133.201.133.322-.048.236-.133.321-.201.133-.321.133h-4.546c-.121 0-.236-.048-.321-.133s-.133-.201-.133-.321zm.455 1.363a.45.45 0 0 0-.455.455.45.45 0 0 0 .455.455h1.818c.121 0 .236-.048.322-.134s.133-.2.133-.321-.048-.236-.133-.321-.201-.134-.322-.134h-1.818z"/><path d="M29.333 137.789c-.297.584-.297 1.346-.297 2.873v5.819c0 1.527 0 2.291.297 2.873a2.75 2.75 0 0 0 1.191 1.191c.584.297 1.346.297 2.873.297h2.182c1.527 0 2.291 0 2.873-.297.513-.262.93-.679 1.191-1.191.297-.584.297-1.346.297-2.873v-5.819c0-1.527 0-2.291-.297-2.873-.261-.513-.678-.93-1.191-1.191-.584-.297-1.346-.297-2.873-.297h-2.182c-1.528 0-2.291 0-2.873.297a2.75 2.75 0 0 0-1.191 1.191zm6.246-.58h-2.182l-1.718.035c-.398.031-.603.091-.745.163-.342.175-.62.453-.795.795-.073.142-.132.345-.164.744-.034.41-.035.937-.035 1.719v5.819l.035 1.718c.033.398.092.603.164.744a1.82 1.82 0 0 0 .795.795c.142.073.346.132.745.164.409.032.937.033 1.718.033h2.182l1.718-.033c.398-.033.603-.092.745-.164a1.82 1.82 0 0 0 .795-.795c.073-.141.132-.346.164-.745.034-.409.035-.937.035-1.718v-5.819L39 138.946c-.033-.398-.092-.602-.164-.744-.174-.342-.453-.62-.795-.795-.142-.072-.346-.132-.745-.163-.409-.034-.936-.035-1.718-.035z" class="V"/></g><path d="M244.242 41.385h-48.471a1.46 1.46 0 0 1-1.459-1.462V28.06a1.46 1.46 0 0 1 1.459-1.462h48.471a1.46 1.46 0 0 1 1.459 1.462v11.863a1.46 1.46 0 0 1-1.459 1.462z" class="F"/><g stroke-width=".572" class="B D"><path d="M201.312 31.865h34.472m-34.472 3.547h14.041"/></g><path d="M199.91 39.709v5.763l7.23-5.763h-7.23z" class="F"/><path d="M125.153 42.265h-23.464c-2.279 0-4.126-1.852-4.126-4.137V16.261c0-1.732 1.401-3.136 3.129-3.136h24.462c1.728 0 3.128 1.404 3.128 3.136v22.868c0 1.732-1.4 3.136-3.128 3.136z" class="Q"/><g class="F"><path d="M107.491 25.724h10.91v-.909a.91.91 0 0 0-.909-.909H108.4a.91.91 0 0 0-.909.909v.909zm0 .909v4.546a.91.91 0 0 0 .909.909h9.092a.91.91 0 0 0 .909-.909v-4.546h-10.91zm.909-3.637h9.092a1.82 1.82 0 0 1 1.818 1.818v6.364a1.82 1.82 0 0 1-1.818 1.818H108.4c-.482 0-.944-.192-1.285-.533a1.82 1.82 0 0 1-.533-1.286v-6.364a1.82 1.82 0 0 1 .533-1.286c.341-.341.803-.533 1.285-.533z"/><path d="M111.128 22.087v.909h3.637v-.909h-3.637zm0-.909h3.637c.241 0 .472.096.642.266a.91.91 0 0 1 .267.643v.909a.91.91 0 0 1-.267.643c-.17.171-.401.266-.642.266h-3.637a.91.91 0 0 1-.909-.909v-.909a.91.91 0 0 1 .909-.909z"/></g><mask id="A" maskUnits="userSpaceOnUse" x="61" y="43" width="223" height="164"><path d="M283.537 43.563H61.109v163.17h222.428V43.563z" class="C"/></mask><g mask="url(#A)"><path d="M78.55 171.579l1.016-7.192.469-4.447a.47.47 0 0 1 .466-.42h40.251a.47.47 0 0 1 .438.302c.07.183.681 1.81.681 2.579v2.229c.169.979 3.147 18.559 1.243 28.543-.675 3.545-1.716 7.452-2.817 11.588-2.039 7.658-4.35 16.336-4.604 24.19-.238 7.33.164 10.325.457 12.512.19 1.415.34 2.532.246 4.25-.233 4.269-1.862 19.21-1.879 19.36a.47.47 0 0 1-.1.242c-.058.072-.062 3.555-1.154 4.648-4.37 1.094-9.287.547-9.833 0s-1.184-7.447-1.188-7.589l-.107-3.661-.107 4.91c-.004.173-.082 5.715-.237 5.793-.918.465-3.323.689-5.462.547-1.962-.131-4.057.83-5.462-.547-.55-.538-.395-1.432-.546-2.187-.06-.298-.005-.58-.037-.777-.134-.821-3.291-20.149-3.133-23.371.031-.643.09-1.426.157-2.308.256-3.404.644-8.547-.153-12.368-.349-1.677-1.522-6.259-2.879-11.566-2.657-10.381-5.963-23.302-6.273-26.608-.465-4.954.379-17.294.548-18.652z" fill="#3c475b"/><path d="M110.835 95.201l13.678 5.31-4.483 20.396s-1.21 11.468-.645 17.839 2.452 8.571 3.824 14.215c1.053 4.335.986 9.295.986 9.295s-3.447 3.337-8.194 4.921c-4.916 1.64-16.934 1.64-16.934 1.64l-.474-36.793 9.126-25.918c.568-2.76 3.115-10.905 3.115-10.905z" fill="#357eff"/><path d="M89.734 95.201L76 100.5l4.538 20.407s2.269 11.468 1.704 17.839-4.016 12.002-4.37 14.762l-1.199 9.295s4.002 3.666 8.194 4.374c5.048.853 15.295 1.64 15.295 1.64l1.813-36.793s-8.561-23.157-9.126-25.918-3.115-10.905-3.115-10.905z" fill="#357eff"/><path d="M100.9 132.73a1.06 1.06 0 0 1-1.061 1.063c-.584 0-1.061-.475-1.061-1.063a1.062 1.062 0 1 1 2.123 0zm.106 10.993a1.062 1.062 0 1 1-2.123 0 1.06 1.06 0 0 1 1.061-1.063c.585.003 1.062.478 1.062 1.063zm-.78-43.675a153.64 153.64 0 0 1-7.038-.167c1.355 5.862 4.666 17.792 6.82 25.437l.218-.768v-24.502z" class="C"/><path d="M106.834 99.898l-6.611.146v24.498l6.611-24.644z" class="C"/><path d="M100.212 124.549l-.216.768.216.768v-1.536z" fill="#432342"/><path d="M110.334 101.502l3.185-.282-.266-1.732-.275-1.799-.306-1.995s-4.246-2.833-4.527-3.965-1.699.142-1.699.142 1.263-.329 1.241 2.596c-.006.67-.079 1.514-.249 2.574l-.604 2.865c-1.367 5.84-4.495 17.121-6.611 24.643v1.537l.669 2.365.155.547c1.794-2.017 4.034-4.863 5.614-8.022 3.042-6.089 6.864-17.279 6.864-17.279l-.452-.313-2.739-1.881z" class="F"/><path d="M101.054 128.999l-.155-.547-.67-2.365-.217-.769-6.821-25.436-.534-2.558c-.171-1.043-.24-1.872-.25-2.539-.032-2.956 1.238-2.631 1.238-2.631s-1.415-1.274-1.7-.142-4.527 3.965-4.527 3.965l-.284 1.859-.249 1.622-.316 2.042 3.184.285-2.363 1.631-.821.566s3.822 11.19 6.864 17.28c1.541 3.086 3.718 5.878 5.49 7.885l.992 1.088 2.078 2.074-.941-3.31z" class="F"/><path d="M108.184 75.023l2.403 4.392c1.131.424 1.274-4.107 1.416-6.94s-3.819 2.548-3.819 2.548zm-19.739-2.549c.142 2.833.284 7.364 1.415 6.94l2.407-4.392s-3.964-5.381-3.822-2.548z" fill="#f7caab"/><path d="M104.882 59.745s-9.426-3.551-14.474 4.098-2.786 17.83-2.221 21.308-3.111 4.218-2.546 6.112 2.151 5.59 14.604 5.011 13.839-4.107 14.12-5.947-2.552-2.975-2.337-5.666 5.449-16.264-7.146-24.915z" class="R"/><path d="M106.841 99.907l.604-2.865c.17-1.059.243-1.903.249-2.574-.347-.341-.632-.689-.815-1.037-1.415-2.691-.992-11.898-.992-11.898L100 83v17c2.205.003 4.636.002 6.841-.093z" fill="#f4b990"/><path d="M93.17 99.885l7.038.168V82.95l-5.661-1.417s.423 9.207-.992 11.898c-.243.462-.657.917-1.169 1.356.006.667.079 1.496.25 2.539l.534 2.558z" fill="#f4b990"/><path d="M110.702 70.913c0 5.789-1.98 16.717-10.045 16.713-9.774-.006-10.895-10.924-10.895-16.713a10.48 10.48 0 0 1 10.472-10.481c5.78 0 10.468 4.692 10.468 10.481z" fill="#f7caab"/><path d="M104.134 60.248s2.688 3.135 0 4.975-8.339 1.791-10.557 4.431-1.981 14.018 0 16.993-.606.429-.606.429-1.09 5.894-4.062 5.524-6.567-1.186-4.953-14.004S92.099 59.6 98.606 59.034s5.528 1.214 5.528 1.214z" class="R"/><path d="M75.97 100.512c-1.465-.122-4.026 6.153-4.118 11.086s-1.676 23.919-2.887 27.828.177 18.25.082 20.949-.63 5.041-.63 5.041l7.557-1.891s.994-13.957 1.833-17.121 1.317-9.974 1.317-9.974l2.511-12.604s-3.059-23.098-5.666-23.314zm48.536.001c1.466-.121 4.027 6.154 4.118 11.087s1.676 23.919 2.887 27.828-.177 18.25-.083 20.949a29.79 29.79 0 0 0 .631 5.041l-7.557-1.891s-.994-13.958-1.834-17.121-1.317-9.974-1.317-9.974l-2.511-12.604s3.06-23.098 5.666-23.315z" class="F"/><path d="M103.529 61.861s-1.637 1.698-.506 3.683 3.054 3 4.388 5.349c2.863 5.041 0 20.145 0 20.145s5.727 4.958 7.285-1.559-.749-31.157-10.738-27.619h-.429z" class="R"/><path d="M99.324 78L99 79.799a.56.56 0 0 0 .04.207c.101.251.392.371.655.302l.565-.15" stroke-width=".63" class="B E H L"/><path d="M101.016 72.189l4.799 1.139s-.218-1.236-2.181-1.685-2.618.547-2.618.547zm-2.518 0l-4.861 1.139s.221-1.236 2.21-1.685 2.651.547 2.651.547zm-1.74 3.985c0 .416-.339.754-.756.754s-.756-.337-.756-.754.339-.754.756-.754.756.338.756.754zm7.164 0c0 .416-.338.754-.756.754s-.756-.337-.756-.754.339-.754.756-.754.756.338.756.754z" class="I"/><path d="M97 82.015s1.504.488 2.5.485 2.5-.5 2.5-.5-.026 2.086-2.612 1.997c-.721-.025-2.209-.595-2.388-1.983z" class="C"/><path d="M95.932 79.208c1.596 0 2.889-1.297 2.889-2.896s-1.293-2.896-2.889-2.896-2.889 1.297-2.889 2.896 1.293 2.896 2.889 2.896zm7.098 0c1.595 0 2.889-1.297 2.889-2.896s-1.294-2.896-2.889-2.896-2.889 1.297-2.889 2.896 1.293 2.896 2.889 2.896z" class="B D G"/><path d="M98.82 76.311s.684-.638 1.32 0m-7.097.003l-.969-.025m13.844.024h2.818" class="B D G"/><path d="M234.085 65.762s2.295 4.806.199 10.002l-3.147-.524.33-7.563 2.618-1.916z" class="S"/><path d="M249.51 101.322l-6.552 23.564-.78 2.797-.013.04c-.007.006-.007.019-.007.026-1.091 4.202-2.446 10.606-2.849 17.718-.271 4.852.621 24.346.621 24.346s-9.917 3.712-24.754 2.771c0 0-15.96-.371-14.658-10.182 3.445-25.963.073-36.661-.376-39.273l-3.716-23.173c4.489-1.677 23.676-8.14 23.676-8.14l9.937.742c.007.007 15.108 3.738 19.471 8.763z" class="C"/><path d="M225.093 57.832s9.177 1.027 8.509 16.326c-.178 4.156-.086 7.019-1.441 9.386-2.757 4.819-8.562 5.82-9.792 5.681-1.19-.133-6.413-1.478-7.709-4.832-1.706-4.428-2.737-7.053-2.453-14.529.007 0 1.005-13.495 12.886-12.031z" class="M"/><path d="M229.343 84.816s-.337 6.264.258 7.629c.589 1.365-7.788 5.681-12.992.762 0 0 1.052-7.523.728-9.943-.331-2.413 12.006 1.551 12.006 1.551z" class="M"/><path d="M215.621 93.34s2.598 4.54 7.531 4.965c3.127.272 5.838-3.705 7.107-5.654 0 0-7.008-3.009-14.638.689z" class="M"/><path d="M223.149 96.609l2.836 3.281s-3.279 1.459-5.481.033l2.645-3.314z" fill="#05387d"/><path d="M230.255 92.65s-2.843 21.311-2.453 39.691 14.242 51.768 14.242 51.768 6.056-5.866 8.687-9.193c0 0-9.421-27.263-9.249-32.181s10.638-42.051 10.638-42.051-5.825-3.805-21.865-8.034zm-15.277.897l-.37 38.796c-.391 18.381-2.804 52.603-2.804 52.603s-13.554-2.154-16.192-5.475c0 0 5.488-31.816 5.316-36.735s-8.826-41.096-8.826-41.096 5.038-3.321 22.876-8.093z" fill="#0745b4"/><path d="M222.091 99.174s-3.339 11.427-3.63 34.123.41 29.205.41 29.205l2.605 5.17 3.471-5.396-.469-62.705-2.387-.398z" fill="#05387d"/><path d="M237.621 171.484s3.875 3.427 9.309 5.256c0 0 18.328-29.609 18.552-31.737.212-1.962-9.249-41.785-13.375-44.317l-7.497 22.006c.495-.146 7.259 16.902 7.292 19.07.046 2.91-14.281 29.722-14.281 29.722zm-46.486 15.834s-4.047.755-9.905.424l.946-40.016c-.212-1.962 5.798-43.555 9.924-46.087l7.359 22.231c-.496-.145-4.185 22.849-4.219 25.016-.039 2.917-4.105 38.432-4.105 38.432z" fill="#0745b4"/><path d="M213.611 147.947l-2.883-21.973 2.625-3.156-3.412-.265 3.934-26.838m16.534 50.654l2.103-20.395-2.625-1.445 2.492-1.843-1.573-28.555" stroke="#0a1726" class="B T"/><path d="M216.803 91.822s2.525 3.168 6.347 4.786l-4.37 5.594-5.6-8.245 3.623-2.134z" fill="#6aa8e5"/><path d="M229.361 91.213s-1.984 2.605-6.209 5.389l4.139 4.766 5.713-8.114-3.643-2.041z" fill="#6aa8e5"/><path d="M214.754 66.239l.872-.331c.88-.239 1.805-.477 2.685-.278.747.166 1.434.636 2.201.563.933-.086 1.64-.961 1.964-1.856.271-.749.555-1.723 1.329-1.803 1.051-.106 1.362 1.584 2.367 1.896.337.106.701.033 1.051.007.78-.06 1.607.053 2.281.464.549.331.913.908 1.065 1.538.218.908.641 1.339 1.5 1.843 1.475.862 2.956.126 3.994-1.153l.172-.232c.965-1.399.846-3.487-.364-4.627l-1.249-1.12c-1.144-1.107-1.283-2.936-2.222-4.229-1.745-2.406-5.084-1.319-7.57-1.763l-3.571-.716c-1.864-.305-3.828-.305-5.619.365-3.035 1.127-4.06 3.314-4.939 6.456-.886 3.142-5.21 5.767 1.335 14.808l1.779-.192c.006 0-1.779-8.65.939-9.638z" class="S"/><path d="M212.099 72.898s-3.055-.298-2.526 3.42c.523 3.719 4.166 2.731 4.166 2.731l-1.64-6.151zm21.728-1.578s3.055-.298 2.526 3.42c-.522 3.719-4.165 2.731-4.165 2.731l1.639-6.151z" class="M"/><path d="M232.873 68.168s.687 4.242-.1 6.416l1.085.199.621-3.977c.04-.782-.33-3.122-.33-3.122l-1.276.484z" class="S"/><path d="M216.388 68.367a11.46 11.46 0 0 1 5.038-.166l.08-.404c-1.7-.331-3.505-.272-5.217.166l.099.404zm9.598.421c1.693-.219 3.425-.066 5.019.458l.125-.391c-1.646-.537-3.444-.703-5.196-.471l.052.404z" fill="#000"/><path d="M220.469 81.106l6.466-.02s-.033 2.811-3.379 2.691c-.932-.033-2.856-.802-3.087-2.671z" fill="#e5f4f6"/><path d="M223.432 78.641h-.039c-.265.007-.542-.007-.761-.186-.357-.285-.337-.815-.291-1.186l.106-.895.575-4.129.298.08c-.185.716-.417 2.744-.569 4.09l-.105.901c-.04.298-.06.716.178.908.132.106.317.126.555.113a7.65 7.65 0 0 0 2.143-.385l.099.292a7.69 7.69 0 0 1-2.189.398zm-4.789-5.118c.033.563-.284 1.047-.708 1.087s-.786-.385-.819-.948.284-1.047.707-1.087.787.385.82.948zm9.23-.002c.033.563-.284 1.047-.707 1.087s-.787-.384-.82-.948.284-1.047.708-1.087.793.384.819.948z" fill="#000"/><path d="M231.035 73.556l2.347-1.233" stroke="#183862" class="B T"/><path d="M219.391 87.945s3.543 2.679 8.178.086" stroke="#000" class="B T"/><use href="#F" class="B D G"/><path d="M227.457 76.586a3.29 3.29 0 1 0 0-6.586 3.29 3.29 0 1 0 0 6.586z" class="B D G"/><path d="M222 73h2m-8.897.293L213 73m17.742.294L233.5 72" class="B D G"/><path d="M203.868 137.912c1.61 17.834-.088 30.828.381 63.643l-15.501.651-2.31-61.424 17.43-2.87z" class="N"/><path d="M188.349 151.829s9.6-.881 16.163-5.221l-.173-3.819-15.995 2.184.005 6.856z" class="J"/><path d="M182.446 105.784s20.99-1.245 26.515 37.552c0 0-14.924 6.486-29.879 3.696l3.364-12.976v-28.272z" class="U"/><path d="M114.593 137.912c-1.61 17.834.088 30.828-.381 63.643l15.501.651 2.31-61.424-17.43-2.87z" class="N"/><path d="M130.112 151.829s-9.6-.881-16.163-5.221l.173-3.819 15.995 2.184-.005 6.856z" class="J"/><path d="M136.011 104.795s-20.986-.255-26.511 38.542c0 0 14.924 6.485 29.879 3.696l-3.365-12.976-.003-29.262z" class="U"/><path d="M143.405 103.097C133 105.5 128.5 107 128.5 107l1.668 87.777h58.275V107s-5.443-1.5-15.496-3.144c-6.761-2.985-22.968-4.139-29.542-.759z" class="U"/><path d="M170.98 142.377c-4.476 0-8.105-3.637-8.105-8.125v-8.125h16.211v8.125c0 4.488-3.629 8.125-8.106 8.125z" stroke="#5a36a8" class="B E K"/><path d="M188.352 154.332l.756-26.373m-59.868 21.978l-1.26-22.861" stroke="#5a36a8" class="B E H K"/><path d="M144.084 73.651l-2.429-12.047c-.137-.981-.517-2.496-.052-3.918.77-2.354 3.598-6.875 8.431-4.805l1.044 4.77s-5.019 1.016-7.032 7.598l.038 8.403z" class="I"/><path d="M149.684 55.365c-.089 1.583-1.482 8.509-6.382 11.032 0 0-4.292-9.227 6.382-11.032z" class="I"/><path d="M166.873 100.879V80.422h-18.812v20.457l-5.6 2.559s1.313 8.478 15.203 8.666 15.286-8.249 15.286-8.249l-6.077-2.976z" class="N"/><path d="M150.035 52.88s3.453-9.13 14.099-4.276c6.444 2.938 8.249 6.877 9.017 9.667.255.927.357 2.388.288 3.255l-2.576 12.124-10.054-16.774-9.729.773-1.045-4.769z" class="I"/><path d="M170.863 73.65s1.268-2.022 3.884-1.028 1.433 7.363-2.491 8.174c0 0-1.407.307-2.51-.658l1.117-6.489z" class="J"/><path d="M174.227 74.868s-2.191-.733-3.747 2.502" class="B E H K L"/><path d="M144.086 73.65s-1.268-2.022-3.884-1.028-1.432 7.363 2.491 8.174c0 0 1.407.307 2.51-.658l-1.117-6.489z" class="J"/><path d="M140.719 74.868s2.191-.733 3.746 2.502" class="B E H K L"/><path d="M171.127 67.608c.001 3.839-.375 11.871-2.729 16.638-2.211 4.476-5.867 6.885-10.66 7.028s-8.365-1.708-11.227-7.518-2.725-16.078-2.725-16.078 0-13.714 13.522-13.714c14.241 0 13.819 13.643 13.819 13.643z" class="N"/><path d="M148.195 86.619s1.576 8.013 8.533 8.934c8.006 1.059 10.139-8.73 10.139-8.73s-3.538 4.444-9.133 4.451c-6.241.007-9.539-4.655-9.539-4.655z" class="J"/><path d="M156.492 73.297v3.174c0 .136.026.267.074.386.188.47.728.695 1.216.565l1.049-.28" class="B E H K L"/><path d="M152.497 71.785c0 .682-.551 1.234-1.231 1.234s-1.231-.553-1.231-1.234.551-1.234 1.231-1.234 1.231.553 1.231 1.234zm11.543 0c0 .682-.551 1.234-1.231 1.234s-1.231-.553-1.231-1.234.551-1.234 1.231-1.234a1.23 1.23 0 0 1 1.231 1.234zm-4.38-6.14l8.276 2.143s-.376-2.327-3.762-3.173-4.514 1.03-4.514 1.03zm-5.142 0l-8.276 2.143s.376-2.327 3.762-3.173 4.514 1.03 4.514 1.03z" class="I"/><path d="M153.148 80.972s2.767.948 4.601.942 4.601-.971 4.601-.971-.047 4.05-4.808 3.879c-1.326-.048-4.064-1.156-4.394-3.85z" fill="#e5f4f6"/><path d="M150.938 77.387c2.888 0 5.23-2.347 5.23-5.243s-2.342-5.243-5.23-5.243a5.24 5.24 0 0 0-5.231 5.243c0 2.896 2.342 5.243 5.231 5.243zm12.847 0c2.889 0 5.231-2.347 5.231-5.243s-2.342-5.243-5.231-5.243-5.23 2.347-5.23 5.243 2.341 5.243 5.23 5.243z" class="B D G"/><path d="M156.168 72.143s1.239-1.156 2.389 0m-12.854.003l-1.754-.044m25.071.045l1.957-.032" class="B D G"/><path d="M143.346 74.972c1.113 1.511 1.154-9.004.855-11.933-.154-1.505-.417-1.853-.106-1.545.479.473 2.003 2.259 4.934 1.916.053-.006-2.404-.293-4.567-4.365 2.332 2.289 4.054 1.867 5.922 2.107.484.063-3.562-1.239-3.895-3.655a46.67 46.67 0 0 0 1.11.495c2.117 2.258 3.766 2.968 6.297 3.637 3.091.819 4.465.877 4.465.877s-1.872-.794-3.899-1.98c1.581.469 3.195.85 4.635 1.004 4.851.519 9.324-.596 10.761-2.531 7.758-10.439-24.493-23.995-28.062-6.595-.35-5.376-1.191-5.166-1.979 1.39-.123 1.025-6.783-.492-.339 1.762.429.15-.372.179-.889.322-1.121.309-1.508 4.22-1.062 6.686.905 4.993 4.344 10.405 5.819 12.409z" class="I V"/></g></g><rect x="1" y="1" width="318" height="158" rx="15" stroke="#7cb7ff" stroke-width="2"/><defs><clipPath id="B"><rect width="320" height="160" rx="16" class="C"/></clipPath><clipPath id="C"><path transform="translate(27.215 136.297)" d="M0 0h14.547v14.547H0z" class="C"/></clipPath><path id="D" d="M312.096 126.549h-56.839c-1.603 0-2.902-1.302-2.902-2.909V70.946c0-1.606 1.299-2.909 2.902-2.909h56.839c1.602 0 2.901 1.302 2.901 2.909v52.695c0 1.606-1.299 2.908-2.901 2.908z"/><path id="E" d="M61.973 166.922H7.767A2.77 2.77 0 0 1 5 164.149v-47.375A2.77 2.77 0 0 1 7.767 114h54.206a2.77 2.77 0 0 1 2.767 2.774v47.375a2.77 2.77 0 0 1-2.767 2.773z"/><path id="F" d="M218.386 76.586a3.29 3.29 0 1 0 0-6.586 3.29 3.29 0 1 0 0 6.586z"/></defs></svg>