<svg width="268" height="164" viewBox="0 0 268 164" fill="none" xmlns="http://www.w3.org/2000/svg">
<rect width="268" height="164" rx="8" fill="#E6F0FC" style="fill:#E6F0FC;fill:color(display-p3 0.9020 0.9412 0.9882);fill-opacity:1;"/>
<path d="M48.924 142V133.624H52.08C52.824 133.624 53.472 133.78 54.024 134.092C54.576 134.404 55.004 134.872 55.308 135.496C55.612 136.112 55.764 136.884 55.764 137.812C55.764 138.74 55.612 139.516 55.308 140.14C55.004 140.756 54.576 141.22 54.024 141.532C53.472 141.844 52.824 142 52.08 142H48.924ZM50.748 140.38H52.08C52.44 140.38 52.752 140.312 53.016 140.176C53.28 140.04 53.48 139.832 53.616 139.552C53.76 139.264 53.832 138.9 53.832 138.46V137.164C53.832 136.716 53.76 136.352 53.616 136.072C53.48 135.792 53.28 135.584 53.016 135.448C52.752 135.312 52.44 135.244 52.08 135.244H50.748V140.38Z" fill="#0668E1" style="fill:#0668E1;fill:color(display-p3 0.0235 0.4078 0.8824);fill-opacity:1;"/>
<path d="M130.924 18V9.624H136.624V11.244H132.748V12.96H136.072V14.568H132.748V16.38H136.624V18H130.924Z" fill="#0668E1" style="fill:#0668E1;fill:color(display-p3 0.0235 0.4078 0.8824);fill-opacity:1;"/>
<path d="M213.636 146.144C212.908 146.144 212.284 146.016 211.764 145.76C211.252 145.504 210.816 145.18 210.456 144.788L211.656 143.576C211.936 143.896 212.252 144.136 212.604 144.296C212.964 144.456 213.348 144.536 213.756 144.536C214.204 144.536 214.536 144.444 214.752 144.26C214.968 144.076 215.076 143.832 215.076 143.528C215.076 143.376 215.048 143.24 214.992 143.12C214.944 142.992 214.848 142.888 214.704 142.808C214.568 142.72 214.368 142.66 214.104 142.628L213.276 142.52C212.692 142.44 212.208 142.296 211.824 142.088C211.448 141.872 211.168 141.592 210.984 141.248C210.8 140.896 210.708 140.488 210.708 140.024C210.708 139.52 210.832 139.08 211.08 138.704C211.336 138.32 211.696 138.02 212.16 137.804C212.632 137.588 213.196 137.48 213.852 137.48C214.484 137.48 215.04 137.584 215.52 137.792C216 137.992 216.412 138.28 216.756 138.656L215.544 139.88C215.344 139.648 215.1 139.46 214.812 139.316C214.532 139.164 214.176 139.088 213.744 139.088C213.336 139.088 213.032 139.16 212.832 139.304C212.632 139.448 212.532 139.648 212.532 139.904C212.532 140.096 212.564 140.252 212.628 140.372C212.7 140.492 212.808 140.584 212.952 140.648C213.104 140.712 213.296 140.764 213.528 140.804L214.356 140.936C214.932 141.024 215.408 141.172 215.784 141.38C216.16 141.588 216.44 141.86 216.624 142.196C216.808 142.532 216.9 142.94 216.9 143.42C216.9 143.956 216.772 144.428 216.516 144.836C216.268 145.244 215.9 145.564 215.412 145.796C214.924 146.028 214.332 146.144 213.636 146.144Z" fill="#0668E1" style="fill:#0668E1;fill:color(display-p3 0.0235 0.4078 0.8824);fill-opacity:1;"/>
<path d="M133.682 105.892L62.8213 144.194L133.682 19.2031V105.892Z" fill="#0668E1" stroke="#0668E1" style="fill:#0668E1;fill:color(display-p3 0.0235 0.4078 0.8824);fill-opacity:1;stroke:#0668E1;stroke:color(display-p3 0.0235 0.4078 0.8824);stroke-opacity:1;" stroke-width="0.635419" stroke-linecap="round"/>
<path d="M86.1972 85.4261C85.9605 85.8376 85.6833 86.1484 85.3654 86.3588C85.0502 86.5644 84.7142 86.6995 84.3572 86.7638L84.117 85.8016C84.4065 85.7475 84.6605 85.6482 84.879 85.5036C85.1002 85.3544 85.2826 85.1549 85.4262 84.9053C85.5884 84.6233 85.6484 84.3745 85.6062 84.159C85.5641 83.9434 85.4415 83.7768 85.2384 83.6592C85.1277 83.595 85.0211 83.561 84.9188 83.5571C84.8144 83.5459 84.7067 83.5729 84.5954 83.6379C84.4842 83.7029 84.3669 83.8106 84.2435 83.9609L83.9111 84.3785C83.6742 84.6727 83.4333 84.8937 83.1883 85.0415C82.946 85.1846 82.6974 85.2532 82.4424 85.2472C82.1875 85.2412 81.9308 85.1633 81.6724 85.0136C81.3817 84.8451 81.1714 84.6277 81.0416 84.3613C80.9118 84.095 80.8636 83.7989 80.8972 83.4732C80.9287 83.1401 81.0482 82.7933 81.2556 82.4327C81.4657 82.0674 81.7115 81.7845 81.9929 81.584C82.2698 81.3807 82.5794 81.2489 82.9218 81.1884L83.1512 82.1536C82.9344 82.1882 82.7306 82.2643 82.54 82.3819C82.3493 82.4994 82.1795 82.6877 82.0306 82.9466C81.8817 83.2055 81.8195 83.4314 81.8439 83.6243C81.8637 83.8145 81.9635 83.9618 82.1435 84.0661C82.2681 84.1383 82.3829 84.174 82.4879 84.1732C82.593 84.1725 82.6978 84.1346 82.8024 84.0596C82.9025 83.982 83.0125 83.8762 83.1326 83.7424L83.4749 83.3398C83.719 83.0436 83.9622 82.824 84.2045 82.6808C84.4468 82.5377 84.6918 82.4701 84.9395 82.478C85.1826 82.4833 85.4379 82.5635 85.7056 82.7186C86.0101 82.8951 86.2365 83.1219 86.3848 83.3989C86.5358 83.6713 86.5974 83.9814 86.5697 84.329C86.542 84.6767 86.4178 85.0424 86.1972 85.4261ZM88.6564 80.9575L88.2895 81.5955C88.114 81.9007 87.9013 82.0887 87.6513 82.1596C87.3994 82.2232 87.1258 82.1694 86.8305 81.9982L84.8371 80.8429L84.53 81.3769L83.8309 80.9717L83.9904 80.6943C84.0675 80.5602 84.0894 80.4527 84.056 80.3717C84.0207 80.2834 83.9407 80.2032 83.8161 80.1309L83.2001 79.7739L83.6588 78.9764L84.6485 79.5501L85.0753 78.808L85.7744 79.2132L85.3476 79.9552L87.5556 81.2349L87.9504 80.5484L88.6564 80.9575ZM89.6417 79.2445L89.1312 80.1321L85.5181 78.0381L86.0286 77.1504L86.7762 77.5837L86.7961 77.549C86.6855 77.4418 86.5961 77.3191 86.5279 77.1809C86.4578 77.0355 86.4253 76.878 86.4305 76.7084C86.4338 76.5315 86.49 76.3483 86.599 76.1588L86.7107 75.9646L87.5482 76.45L87.3886 76.7274C87.2743 76.9262 87.198 77.107 87.1598 77.2697C87.1196 77.4252 87.1211 77.5617 87.1642 77.6792C87.2055 77.7893 87.293 77.8832 87.4268 77.9608L89.6417 79.2445ZM92.4689 74.3288L92.1857 74.8212C92.1086 74.9553 92.0094 75.0581 91.8883 75.1296C91.7652 75.1939 91.6264 75.2213 91.4718 75.2119C91.32 75.1978 91.1633 75.144 91.0018 75.0504L90.9256 75.0063L91.2955 74.9248L91.1519 75.1744C91.3481 75.3682 91.4516 75.5947 91.4626 75.8538C91.4762 76.1082 91.4059 76.3696 91.2517 76.6377C91.039 77.0076 90.7785 77.2357 90.4704 77.3222C90.1576 77.406 89.8421 77.3556 89.5237 77.1711C89.2745 77.0267 89.1037 76.8476 89.0114 76.6338C88.9217 76.4153 88.9017 76.1665 88.9516 75.8872C89.0015 75.6079 89.1195 75.3064 89.3057 74.9828L89.6606 74.3656L89.3976 74.2132C89.1992 74.0982 89.014 74.0617 88.8421 74.1039C88.6656 74.1434 88.5096 74.281 88.374 74.5168C88.2543 74.7248 88.2034 74.9203 88.2212 75.1032C88.2371 75.2789 88.2821 75.4467 88.3561 75.6068L87.5824 75.861C87.4518 75.6066 87.3881 75.3324 87.3911 75.0382C87.3895 74.7414 87.4938 74.4104 87.7039 74.0452C87.983 73.5597 88.3088 73.2554 88.6812 73.1322C89.0516 73.0016 89.4421 73.0554 89.8528 73.2934L91.5555 74.2802L91.7629 73.9196L92.4689 74.3288ZM90.1936 74.6745L89.8665 75.2431C89.7336 75.4743 89.6731 75.6704 89.6851 75.8314C89.6924 75.9898 89.7676 76.1105 89.9107 76.1934L90.0283 76.2616C90.1714 76.3445 90.3077 76.3588 90.4374 76.3045C90.5671 76.2502 90.6811 76.1375 90.7795 75.9664C90.8566 75.8324 90.9073 75.7015 90.9315 75.5737C90.9511 75.4433 90.9403 75.323 90.8991 75.2128C90.8579 75.1026 90.7819 75.0155 90.6712 74.9513L90.1936 74.6745ZM93.8835 71.8691L93.5166 72.5071C93.3411 72.8122 93.1284 73.0002 92.8784 73.0711C92.6265 73.1347 92.3529 73.0809 92.0576 72.9098L90.0642 71.7545L89.7571 72.2884L89.058 71.8833L89.2175 71.6059C89.2946 71.4718 89.3165 71.3643 89.2831 71.2833C89.2478 71.195 89.1678 71.1147 89.0432 71.0425L88.4272 70.6855L88.8859 69.888L89.8756 70.4616L90.3024 69.7196L91.0015 70.1248L90.5747 70.8668L92.7827 72.1465L93.1775 71.4599L93.8835 71.8691ZM95.2673 69.6557C95.0626 70.0117 94.8109 70.2727 94.5124 70.4387C94.2093 70.602 93.8771 70.6715 93.5158 70.6471C93.1526 70.6153 92.7772 70.4871 92.3896 70.2625C92.0113 70.0432 91.7199 69.7849 91.5155 69.4877C91.3065 69.1878 91.1977 68.8689 91.189 68.531C91.1757 68.1905 91.2701 67.8445 91.4722 67.4931C91.6902 67.114 91.9514 66.8524 92.2558 66.7083C92.5629 66.5595 92.8881 66.5076 93.2314 66.5525C93.5728 66.59 93.9096 66.7051 94.2418 66.8977L94.5325 67.0661L93.1485 69.4725L93.2385 69.5247C93.4969 69.6744 93.7494 69.7222 93.996 69.6678C94.2426 69.6135 94.4496 69.4407 94.6171 69.1494C94.7421 68.9321 94.7997 68.7251 94.7898 68.5283C94.7753 68.3288 94.7308 68.1334 94.6562 67.9423L95.4644 67.7726C95.5777 68.0356 95.6222 68.3326 95.5979 68.6637C95.5716 68.9875 95.4614 69.3182 95.2673 69.6557ZM92.1446 67.8644C92.0542 68.0215 92.0127 68.1793 92.0201 68.3377C92.0228 68.4934 92.0702 68.641 92.1621 68.7806C92.2522 68.913 92.3802 69.0272 92.5463 69.1235L92.6017 69.1556L93.4553 67.6716L93.393 67.6355C93.2222 67.5365 93.0609 67.48 92.909 67.466C92.7525 67.4492 92.6091 67.474 92.4787 67.5402C92.3438 67.6037 92.2324 67.7118 92.1446 67.8644ZM98.7498 64.114C98.999 64.2584 99.1731 64.4425 99.272 64.6663C99.3756 64.8927 99.3914 65.1701 99.3195 65.4983C99.2523 65.8292 99.0857 66.2258 98.8198 66.6881C98.5858 67.0949 98.3624 67.4031 98.1496 67.6127C97.9441 67.8202 97.7448 67.9421 97.5518 67.9782C97.3588 68.0142 97.1746 67.9815 96.9993 67.8798C96.7962 67.7622 96.6703 67.6121 96.6214 67.4297C96.5771 67.2499 96.596 67.0513 96.678 66.8337L96.6019 66.7896C96.4753 66.9135 96.335 66.9863 96.181 67.008C96.0297 67.0251 95.8802 66.9908 95.7325 66.9052C95.5479 66.7983 95.4434 66.6483 95.419 66.4554C95.3946 66.2625 95.4145 66.0675 95.4786 65.8704L95.4509 65.8544C95.2244 66.0128 94.9893 66.0954 94.7455 66.1021C94.5018 66.1087 94.2599 66.0425 94.02 65.9034C93.7754 65.7617 93.5927 65.5819 93.472 65.3639C93.3539 65.1414 93.3079 64.8897 93.334 64.609C93.3628 64.3236 93.4702 64.0191 93.6564 63.6955C93.7255 63.5753 93.7976 63.466 93.8726 63.3677C93.9476 63.2694 94.0265 63.1857 94.1093 63.1166L93.9916 63.0484C93.8163 62.9467 93.71 62.8266 93.6729 62.6879C93.6357 62.5493 93.665 62.3967 93.7607 62.2303L94.0838 61.6686L94.7621 62.0617L94.3194 62.8315L94.4163 62.8876C94.6314 62.7596 94.8533 62.7002 95.0818 62.7093C95.3057 62.7158 95.5261 62.7819 95.743 62.9076C95.9829 63.0467 96.1619 63.2275 96.28 63.45C96.4008 63.668 96.4481 63.9173 96.422 64.198C96.3913 64.4761 96.2815 64.7793 96.0927 65.1075C96.0342 65.2092 95.9725 65.306 95.9074 65.3977C95.8404 65.4822 95.775 65.5583 95.7114 65.6262C95.7038 65.7143 95.713 65.7998 95.7392 65.8827C95.7607 65.963 95.8107 66.0259 95.8891 66.0714C95.9814 66.1248 96.0732 66.1257 96.1646 66.0738C96.2513 66.0193 96.3399 65.9134 96.4303 65.7562L96.9886 64.7854C97.2439 64.3415 97.5187 64.0724 97.813 63.9779C98.1099 63.8787 98.4222 63.9241 98.7498 64.114ZM98.3751 65.0063C98.2597 64.9395 98.1431 64.9336 98.0253 64.9886C97.9076 65.0436 97.7835 65.1844 97.6532 65.4109L96.9433 66.6453C96.9568 66.7395 96.9866 66.8215 97.0326 66.8913C97.0812 66.9564 97.1401 67.0091 97.2094 67.0492C97.3478 67.1294 97.4895 67.1345 97.6344 67.0644C97.7793 66.9943 97.9315 66.8205 98.0911 66.5431L98.3463 66.0993C98.5112 65.8126 98.5953 65.5809 98.5985 65.404C98.6018 65.2272 98.5273 65.0946 98.3751 65.0063ZM95.4906 64.7585C95.6129 64.5459 95.6598 64.3573 95.6313 64.1929C95.5982 64.0257 95.4917 63.89 95.3118 63.7857L95.1941 63.7175C95.0095 63.6106 94.8392 63.5858 94.6831 63.6433C94.527 63.7008 94.3878 63.8358 94.2655 64.0485C94.1458 64.2565 94.0989 64.4451 94.1247 64.6142C94.1532 64.7786 94.2597 64.9143 94.4443 65.0213L94.5619 65.0895C94.7419 65.1938 94.9122 65.2185 95.0729 65.1637C95.2317 65.1016 95.3709 64.9666 95.4906 64.7585ZM97.9703 60.8161L96.4229 59.0778L96.9015 58.2456L100.321 62.1691C100.457 62.3281 100.556 62.4813 100.619 62.6287C100.682 62.7761 100.7 62.9316 100.674 63.0951C100.65 63.2539 100.581 63.4328 100.467 63.6316L100.16 64.1656L99.4539 63.7564L99.8288 63.1045L99.4192 62.6452L94.8873 61.7477L95.3939 60.867L97.6672 61.3431L98.7164 61.6369L98.7403 61.5953L97.9703 60.8161Z" fill="#0668E1" style="fill:#0668E1;fill:color(display-p3 0.0235 0.4078 0.8824);fill-opacity:1;"/>
<path d="M205.354 144.366L134.25 105.932V18.9473L205.354 144.366Z" fill="#0668E1" stroke="#0668E1" style="fill:#0668E1;fill:color(display-p3 0.0235 0.4078 0.8824);fill-opacity:1;stroke:#0668E1;stroke:color(display-p3 0.0235 0.4078 0.8824);stroke-opacity:1;" stroke-width="0.5" stroke-linecap="round"/>
<path d="M170.889 69.2858L169.054 66.0958L173.885 63.2958L175.72 66.4858L174.91 66.9551L173.602 64.6805L172.425 65.3625L173.582 67.3736L172.779 67.8389L171.622 65.8278L170.39 66.5419L171.698 68.8165L170.889 69.2858ZM171.194 69.8171L173.738 69.9885L174.823 67.7508L175.406 68.7633L174.639 70.2063L174.651 70.2271L176.275 70.2751L176.821 71.2252L174.323 71.0367L173.212 73.3261L172.63 72.3136L173.437 70.8287L173.421 70.801L171.733 70.7533L171.194 69.8171ZM174.283 75.3805C174.078 75.0245 173.979 74.6753 173.985 74.3327C173.996 73.9875 174.102 73.664 174.304 73.3622C174.513 73.0623 174.811 72.8 175.199 72.5754C175.577 72.3561 175.945 72.2319 176.304 72.2028C176.667 72.1711 176.997 72.2359 177.293 72.3973C177.593 72.5561 177.844 72.8111 178.046 73.1625C178.264 73.5416 178.36 73.8995 178.332 74.2362C178.306 74.5775 178.189 74.8861 177.978 75.1622C177.775 75.4402 177.508 75.6754 177.175 75.868L176.885 76.0365L175.501 73.6301L175.411 73.6822C175.152 73.832 174.985 74.0277 174.908 74.2692C174.832 74.5107 174.878 74.7772 175.045 75.0684C175.17 75.2857 175.32 75.4393 175.495 75.5291C175.674 75.6163 175.865 75.6752 176.067 75.7059L175.809 76.4933C175.526 76.4604 175.247 76.3506 174.974 76.1639C174.707 75.9791 174.477 75.718 174.283 75.3805ZM177.39 73.5614C177.299 73.4043 177.184 73.2893 177.044 73.2165C176.908 73.141 176.757 73.1084 176.591 73.1185C176.432 73.1306 176.269 73.1848 176.103 73.2811L176.047 73.3132L176.901 74.7972L176.963 74.7611C177.134 74.6622 177.263 74.5502 177.351 74.4252C177.444 74.2975 177.494 74.1604 177.503 74.014C177.515 73.8649 177.478 73.714 177.39 73.5614ZM176.487 79.2128C176.179 78.6765 176.112 78.1638 176.286 77.6746C176.462 77.1901 176.841 76.7793 177.423 76.4424C177.999 76.1081 178.539 75.9866 179.04 76.078C179.549 76.1714 179.958 76.4862 180.266 77.0225C180.477 77.3878 180.569 77.7351 180.543 78.0645C180.519 78.3985 180.395 78.7015 180.17 78.9737L179.426 78.4341C179.555 78.3042 179.634 78.1534 179.664 77.9817C179.7 77.8072 179.663 77.6253 179.554 77.4357C179.413 77.1907 179.228 77.0512 178.999 77.0173C178.775 76.9807 178.534 77.0373 178.275 77.1871L177.618 77.5682C177.369 77.7126 177.202 77.8927 177.116 78.1084C177.031 78.3242 177.059 78.5546 177.2 78.7996C177.32 79.0077 177.466 79.1387 177.639 79.1928C177.818 79.2488 178.008 79.2624 178.207 79.2335L178.272 80.1017C177.887 80.1706 177.542 80.1271 177.237 79.971C176.939 79.8169 176.689 79.5642 176.487 79.2128ZM179.038 83.4552L179.64 83.1062L179.62 83.0715C179.406 83.1157 179.184 83.0994 178.955 83.0224C178.726 82.9454 178.526 82.7567 178.353 82.4562C178.14 82.0863 178.097 81.7288 178.225 81.3837C178.36 81.0405 178.651 80.7391 179.099 80.4797L181.383 79.1559L181.893 80.0436L179.699 81.3152C179.45 81.4597 179.286 81.6192 179.208 81.7938C179.135 81.9658 179.159 82.1581 179.282 82.3708C179.348 82.4864 179.433 82.5853 179.536 82.6676C179.641 82.7544 179.755 82.8085 179.878 82.8297C180.006 82.8482 180.134 82.8201 180.263 82.7452L182.651 81.3612L183.162 82.2489L179.549 84.3429L179.038 83.4552ZM181.155 87.1369L180.789 86.4989C180.613 86.1937 180.557 85.9148 180.621 85.6621C180.692 85.4113 180.875 85.2003 181.171 85.0291L183.164 83.8738L182.857 83.3398L183.556 82.9347L183.716 83.2121C183.793 83.3461 183.874 83.4189 183.961 83.4304C184.055 83.4438 184.164 83.4144 184.289 83.3422L184.905 82.9851L185.363 83.7827L184.374 84.3563L184.8 85.0983L184.101 85.5035L183.675 84.7615L181.467 86.0411L181.861 86.7277L181.155 87.1369ZM186.025 86.0072C185.921 85.8269 185.887 85.6711 185.922 85.5397C185.962 85.4057 186.044 85.3026 186.168 85.2304L186.307 85.1501C186.436 85.0752 186.566 85.0553 186.697 85.0904C186.828 85.1255 186.945 85.2332 187.049 85.4135C187.153 85.5938 187.187 85.7496 187.152 85.881C187.116 86.0124 187.034 86.1155 186.905 86.1904L186.767 86.2706C186.642 86.3428 186.512 86.3627 186.376 86.3303C186.246 86.2952 186.128 86.1875 186.025 86.0072ZM181.63 87.9623L185.243 85.8683L185.754 86.7559L182.141 88.8499L181.63 87.9623ZM183.471 91.3557C183.274 91.0136 183.179 90.6713 183.185 90.3287C183.198 89.9882 183.306 89.667 183.508 89.3651C183.717 89.0652 184.015 88.803 184.402 88.5783C184.79 88.3537 185.161 88.2282 185.515 88.2018C185.876 88.1773 186.205 88.2458 186.5 88.4072C186.804 88.5706 187.054 88.8233 187.25 89.1654C187.45 89.5122 187.543 89.8558 187.529 90.1964C187.523 90.5389 187.418 90.8588 187.214 91.156C187.017 91.4552 186.724 91.7171 186.337 91.9417C185.949 92.1664 185.572 92.2922 185.207 92.3194C184.848 92.3484 184.517 92.2813 184.214 92.1179C183.918 91.9565 183.671 91.7025 183.471 91.3557ZM184.184 90.9425C184.32 91.1783 184.498 91.3218 184.718 91.373C184.942 91.4215 185.191 91.3668 185.463 91.209L186.135 90.8199C186.407 90.6621 186.576 90.4747 186.642 90.2578C186.708 90.0408 186.673 89.8144 186.537 89.5786C186.407 89.3521 186.231 89.2109 186.008 89.1551C185.788 89.1039 185.541 89.1573 185.269 89.315L184.598 89.7042C184.325 89.8619 184.154 90.0507 184.084 90.2703C184.02 90.4919 184.054 90.716 184.184 90.9425ZM185.487 94.6673L184.976 93.7797L188.589 91.6857L189.1 92.5733L188.497 92.9223L188.517 92.957C188.754 92.9187 188.982 92.9406 189.201 93.0229C189.428 93.1072 189.623 93.2903 189.785 93.5723C189.998 93.9422 190.037 94.2987 189.902 94.642C189.774 94.9871 189.487 95.2894 189.039 95.5488L186.755 96.8726L186.244 95.985L188.438 94.7133C188.692 94.5662 188.857 94.409 188.933 94.2417C189.014 94.0716 188.993 93.8803 188.871 93.6676C188.802 93.5474 188.712 93.4452 188.602 93.361C188.497 93.2741 188.38 93.2214 188.253 93.2029C188.13 93.1816 188.004 93.2085 187.874 93.2834L185.487 94.6673Z" fill="#0668E1" style="fill:#0668E1;fill:color(display-p3 0.0235 0.4078 0.8824);fill-opacity:1;"/>
<path d="M63 146L68 148.887V143.113L63 146ZM207 146L202 143.113V148.887L207 146ZM64 146.5C64.2761 146.5 64.5 146.276 64.5 146C64.5 145.724 64.2761 145.5 64 145.5V146V146.5ZM66 145.5C65.7239 145.5 65.5 145.724 65.5 146C65.5 146.276 65.7239 146.5 66 146.5V146V145.5ZM68 146.5C68.2761 146.5 68.5 146.276 68.5 146C68.5 145.724 68.2761 145.5 68 145.5V146V146.5ZM70 145.5C69.7239 145.5 69.5 145.724 69.5 146C69.5 146.276 69.7239 146.5 70 146.5V146V145.5ZM72 146.5C72.2761 146.5 72.5 146.276 72.5 146C72.5 145.724 72.2761 145.5 72 145.5V146V146.5ZM74 145.5C73.7239 145.5 73.5 145.724 73.5 146C73.5 146.276 73.7239 146.5 74 146.5V146V145.5ZM76 146.5C76.2761 146.5 76.5 146.276 76.5 146C76.5 145.724 76.2761 145.5 76 145.5V146V146.5ZM78 145.5C77.7239 145.5 77.5 145.724 77.5 146C77.5 146.276 77.7239 146.5 78 146.5V146V145.5ZM80 146.5C80.2761 146.5 80.5 146.276 80.5 146C80.5 145.724 80.2761 145.5 80 145.5V146V146.5ZM82 145.5C81.7239 145.5 81.5 145.724 81.5 146C81.5 146.276 81.7239 146.5 82 146.5V146V145.5ZM84 146.5C84.2761 146.5 84.5 146.276 84.5 146C84.5 145.724 84.2761 145.5 84 145.5V146V146.5ZM86 145.5C85.7239 145.5 85.5 145.724 85.5 146C85.5 146.276 85.7239 146.5 86 146.5V146V145.5ZM88 146.5C88.2761 146.5 88.5 146.276 88.5 146C88.5 145.724 88.2761 145.5 88 145.5V146V146.5ZM90 145.5C89.7239 145.5 89.5 145.724 89.5 146C89.5 146.276 89.7239 146.5 90 146.5V146V145.5ZM92 146.5C92.2761 146.5 92.5 146.276 92.5 146C92.5 145.724 92.2761 145.5 92 145.5V146V146.5ZM94 145.5C93.7239 145.5 93.5 145.724 93.5 146C93.5 146.276 93.7239 146.5 94 146.5V146V145.5ZM96 146.5C96.2761 146.5 96.5 146.276 96.5 146C96.5 145.724 96.2761 145.5 96 145.5V146V146.5ZM98 145.5C97.7239 145.5 97.5 145.724 97.5 146C97.5 146.276 97.7239 146.5 98 146.5V146V145.5ZM100 146.5C100.276 146.5 100.5 146.276 100.5 146C100.5 145.724 100.276 145.5 100 145.5V146V146.5ZM102 145.5C101.724 145.5 101.5 145.724 101.5 146C101.5 146.276 101.724 146.5 102 146.5V146V145.5ZM104 146.5C104.276 146.5 104.5 146.276 104.5 146C104.5 145.724 104.276 145.5 104 145.5V146V146.5ZM106 145.5C105.724 145.5 105.5 145.724 105.5 146C105.5 146.276 105.724 146.5 106 146.5V146V145.5ZM108 146.5C108.276 146.5 108.5 146.276 108.5 146C108.5 145.724 108.276 145.5 108 145.5V146V146.5ZM110 145.5C109.724 145.5 109.5 145.724 109.5 146C109.5 146.276 109.724 146.5 110 146.5V146V145.5ZM112 146.5C112.276 146.5 112.5 146.276 112.5 146C112.5 145.724 112.276 145.5 112 145.5V146V146.5ZM114 145.5C113.724 145.5 113.5 145.724 113.5 146C113.5 146.276 113.724 146.5 114 146.5V146V145.5ZM116 146.5C116.276 146.5 116.5 146.276 116.5 146C116.5 145.724 116.276 145.5 116 145.5V146V146.5ZM118 145.5C117.724 145.5 117.5 145.724 117.5 146C117.5 146.276 117.724 146.5 118 146.5V146V145.5ZM120 146.5C120.276 146.5 120.5 146.276 120.5 146C120.5 145.724 120.276 145.5 120 145.5V146V146.5ZM122 145.5C121.724 145.5 121.5 145.724 121.5 146C121.5 146.276 121.724 146.5 122 146.5V146V145.5ZM124 146.5C124.276 146.5 124.5 146.276 124.5 146C124.5 145.724 124.276 145.5 124 145.5V146V146.5ZM126 145.5C125.724 145.5 125.5 145.724 125.5 146C125.5 146.276 125.724 146.5 126 146.5V146V145.5ZM128 146.5C128.276 146.5 128.5 146.276 128.5 146C128.5 145.724 128.276 145.5 128 145.5V146V146.5ZM130 145.5C129.724 145.5 129.5 145.724 129.5 146C129.5 146.276 129.724 146.5 130 146.5V146V145.5ZM132 146.5C132.276 146.5 132.5 146.276 132.5 146C132.5 145.724 132.276 145.5 132 145.5V146V146.5ZM134 145.5C133.724 145.5 133.5 145.724 133.5 146C133.5 146.276 133.724 146.5 134 146.5V146V145.5ZM136 146.5C136.276 146.5 136.5 146.276 136.5 146C136.5 145.724 136.276 145.5 136 145.5V146V146.5ZM138 145.5C137.724 145.5 137.5 145.724 137.5 146C137.5 146.276 137.724 146.5 138 146.5V146V145.5ZM140 146.5C140.276 146.5 140.5 146.276 140.5 146C140.5 145.724 140.276 145.5 140 145.5V146V146.5ZM142 145.5C141.724 145.5 141.5 145.724 141.5 146C141.5 146.276 141.724 146.5 142 146.5V146V145.5ZM144 146.5C144.276 146.5 144.5 146.276 144.5 146C144.5 145.724 144.276 145.5 144 145.5V146V146.5ZM146 145.5C145.724 145.5 145.5 145.724 145.5 146C145.5 146.276 145.724 146.5 146 146.5V146V145.5ZM148 146.5C148.276 146.5 148.5 146.276 148.5 146C148.5 145.724 148.276 145.5 148 145.5V146V146.5ZM150 145.5C149.724 145.5 149.5 145.724 149.5 146C149.5 146.276 149.724 146.5 150 146.5V146V145.5ZM152 146.5C152.276 146.5 152.5 146.276 152.5 146C152.5 145.724 152.276 145.5 152 145.5V146V146.5ZM154 145.5C153.724 145.5 153.5 145.724 153.5 146C153.5 146.276 153.724 146.5 154 146.5V146V145.5ZM156 146.5C156.276 146.5 156.5 146.276 156.5 146C156.5 145.724 156.276 145.5 156 145.5V146V146.5ZM158 145.5C157.724 145.5 157.5 145.724 157.5 146C157.5 146.276 157.724 146.5 158 146.5V146V145.5ZM160 146.5C160.276 146.5 160.5 146.276 160.5 146C160.5 145.724 160.276 145.5 160 145.5V146V146.5ZM162 145.5C161.724 145.5 161.5 145.724 161.5 146C161.5 146.276 161.724 146.5 162 146.5V146V145.5ZM164 146.5C164.276 146.5 164.5 146.276 164.5 146C164.5 145.724 164.276 145.5 164 145.5V146V146.5ZM166 145.5C165.724 145.5 165.5 145.724 165.5 146C165.5 146.276 165.724 146.5 166 146.5V146V145.5ZM168 146.5C168.276 146.5 168.5 146.276 168.5 146C168.5 145.724 168.276 145.5 168 145.5V146V146.5ZM170 145.5C169.724 145.5 169.5 145.724 169.5 146C169.5 146.276 169.724 146.5 170 146.5V146V145.5ZM172 146.5C172.276 146.5 172.5 146.276 172.5 146C172.5 145.724 172.276 145.5 172 145.5V146V146.5ZM174 145.5C173.724 145.5 173.5 145.724 173.5 146C173.5 146.276 173.724 146.5 174 146.5V146V145.5ZM176 146.5C176.276 146.5 176.5 146.276 176.5 146C176.5 145.724 176.276 145.5 176 145.5V146V146.5ZM178 145.5C177.724 145.5 177.5 145.724 177.5 146C177.5 146.276 177.724 146.5 178 146.5V146V145.5ZM180 146.5C180.276 146.5 180.5 146.276 180.5 146C180.5 145.724 180.276 145.5 180 145.5V146V146.5ZM182 145.5C181.724 145.5 181.5 145.724 181.5 146C181.5 146.276 181.724 146.5 182 146.5V146V145.5ZM184 146.5C184.276 146.5 184.5 146.276 184.5 146C184.5 145.724 184.276 145.5 184 145.5V146V146.5ZM186 145.5C185.724 145.5 185.5 145.724 185.5 146C185.5 146.276 185.724 146.5 186 146.5V146V145.5ZM188 146.5C188.276 146.5 188.5 146.276 188.5 146C188.5 145.724 188.276 145.5 188 145.5V146V146.5ZM190 145.5C189.724 145.5 189.5 145.724 189.5 146C189.5 146.276 189.724 146.5 190 146.5V146V145.5ZM192 146.5C192.276 146.5 192.5 146.276 192.5 146C192.5 145.724 192.276 145.5 192 145.5V146V146.5ZM194 145.5C193.724 145.5 193.5 145.724 193.5 146C193.5 146.276 193.724 146.5 194 146.5V146V145.5ZM196 146.5C196.276 146.5 196.5 146.276 196.5 146C196.5 145.724 196.276 145.5 196 145.5V146V146.5ZM198 145.5C197.724 145.5 197.5 145.724 197.5 146C197.5 146.276 197.724 146.5 198 146.5V146V145.5ZM200 146.5C200.276 146.5 200.5 146.276 200.5 146C200.5 145.724 200.276 145.5 200 145.5V146V146.5ZM202 145.5C201.724 145.5 201.5 145.724 201.5 146C201.5 146.276 201.724 146.5 202 146.5V146V145.5ZM204 146.5C204.276 146.5 204.5 146.276 204.5 146C204.5 145.724 204.276 145.5 204 145.5V146V146.5ZM206 145.5C205.724 145.5 205.5 145.724 205.5 146C205.5 146.276 205.724 146.5 206 146.5V146V145.5ZM66 146V146.5H68V146V145.5H66V146ZM70 146V146.5H72V146V145.5H70V146ZM74 146V146.5H76V146V145.5H74V146ZM78 146V146.5H80V146V145.5H78V146ZM82 146V146.5H84V146V145.5H82V146ZM86 146V146.5H88V146V145.5H86V146ZM90 146V146.5H92V146V145.5H90V146ZM94 146V146.5H96V146V145.5H94V146ZM98 146V146.5H100V146V145.5H98V146ZM102 146V146.5H104V146V145.5H102V146ZM106 146V146.5H108V146V145.5H106V146ZM110 146V146.5H112V146V145.5H110V146ZM114 146V146.5H116V146V145.5H114V146ZM118 146V146.5H120V146V145.5H118V146ZM122 146V146.5H124V146V145.5H122V146ZM126 146V146.5H128V146V145.5H126V146ZM130 146V146.5H132V146V145.5H130V146ZM134 146V146.5H136V146V145.5H134V146ZM138 146V146.5H140V146V145.5H138V146ZM142 146V146.5H144V146V145.5H142V146ZM146 146V146.5H148V146V145.5H146V146ZM150 146V146.5H152V146V145.5H150V146ZM154 146V146.5H156V146V145.5H154V146ZM158 146V146.5H160V146V145.5H158V146ZM162 146V146.5H164V146V145.5H162V146ZM166 146V146.5H168V146V145.5H166V146ZM170 146V146.5H172V146V145.5H170V146ZM174 146V146.5H176V146V145.5H174V146ZM178 146V146.5H180V146V145.5H178V146ZM182 146V146.5H184V146V145.5H182V146ZM186 146V146.5H188V146V145.5H186V146ZM190 146V146.5H192V146V145.5H190V146ZM194 146V146.5H196V146V145.5H194V146ZM198 146V146.5H200V146V145.5H198V146ZM202 146V146.5H204V146V145.5H202V146Z" fill="#0668E1" style="fill:#0668E1;fill:color(display-p3 0.0235 0.4078 0.8824);fill-opacity:1;"/>
<path d="M118.928 161L116.192 152.624H117.812L119.096 156.704L119.84 159.488H119.876L120.608 156.704L121.892 152.624H123.464L120.728 161H118.928ZM125.308 153.824C124.988 153.824 124.756 153.752 124.612 153.608C124.476 153.464 124.408 153.28 124.408 153.056V152.816C124.408 152.592 124.476 152.408 124.612 152.264C124.756 152.12 124.988 152.048 125.308 152.048C125.62 152.048 125.848 152.12 125.992 152.264C126.136 152.408 126.208 152.592 126.208 152.816V153.056C126.208 153.28 126.136 153.464 125.992 153.608C125.848 153.752 125.62 153.824 125.308 153.824ZM124.54 154.736H126.076V161H124.54V154.736ZM129.909 161.144C129.309 161.144 128.805 161.044 128.397 160.844C127.989 160.636 127.629 160.352 127.317 159.992L128.253 159.08C128.485 159.344 128.737 159.552 129.009 159.704C129.289 159.856 129.609 159.932 129.969 159.932C130.337 159.932 130.601 159.868 130.761 159.74C130.929 159.612 131.013 159.436 131.013 159.212C131.013 159.028 130.953 158.884 130.833 158.78C130.721 158.668 130.525 158.592 130.245 158.552L129.621 158.468C128.941 158.38 128.421 158.188 128.061 157.892C127.709 157.588 127.533 157.148 127.533 156.572C127.533 156.268 127.589 155.996 127.701 155.756C127.813 155.508 127.973 155.3 128.181 155.132C128.389 154.956 128.637 154.824 128.925 154.736C129.221 154.64 129.549 154.592 129.909 154.592C130.213 154.592 130.481 154.616 130.713 154.664C130.953 154.704 131.169 154.768 131.361 154.856C131.553 154.936 131.729 155.04 131.889 155.168C132.049 155.288 132.205 155.424 132.357 155.576L131.457 156.476C131.273 156.284 131.053 156.124 130.797 155.996C130.541 155.868 130.261 155.804 129.957 155.804C129.621 155.804 129.377 155.864 129.225 155.984C129.081 156.104 129.009 156.26 129.009 156.452C129.009 156.66 129.069 156.82 129.189 156.932C129.317 157.036 129.529 157.112 129.825 157.16L130.461 157.244C131.813 157.436 132.489 158.052 132.489 159.092C132.489 159.396 132.425 159.676 132.297 159.932C132.177 160.18 132.005 160.396 131.781 160.58C131.557 160.756 131.285 160.896 130.965 161C130.653 161.096 130.301 161.144 129.909 161.144ZM134.613 153.824C134.293 153.824 134.061 153.752 133.917 153.608C133.781 153.464 133.713 153.28 133.713 153.056V152.816C133.713 152.592 133.781 152.408 133.917 152.264C134.061 152.12 134.293 152.048 134.613 152.048C134.925 152.048 135.153 152.12 135.297 152.264C135.441 152.408 135.513 152.592 135.513 152.816V153.056C135.513 153.28 135.441 153.464 135.297 153.608C135.153 153.752 134.925 153.824 134.613 153.824ZM133.845 154.736H135.381V161H133.845V154.736ZM139.645 161.144C139.197 161.144 138.793 161.068 138.433 160.916C138.081 160.764 137.777 160.544 137.521 160.256C137.273 159.968 137.081 159.624 136.945 159.224C136.809 158.816 136.741 158.36 136.741 157.856C136.741 157.352 136.809 156.9 136.945 156.5C137.081 156.1 137.273 155.76 137.521 155.48C137.777 155.192 138.081 154.972 138.433 154.82C138.793 154.668 139.197 154.592 139.645 154.592C140.093 154.592 140.497 154.668 140.857 154.82C141.217 154.972 141.521 155.192 141.769 155.48C142.025 155.76 142.221 156.1 142.357 156.5C142.493 156.9 142.561 157.352 142.561 157.856C142.561 158.36 142.493 158.816 142.357 159.224C142.221 159.624 142.025 159.968 141.769 160.256C141.521 160.544 141.217 160.764 140.857 160.916C140.497 161.068 140.093 161.144 139.645 161.144ZM139.645 159.908C140.053 159.908 140.373 159.784 140.605 159.536C140.837 159.288 140.953 158.924 140.953 158.444V157.28C140.953 156.808 140.837 156.448 140.605 156.2C140.373 155.952 140.053 155.828 139.645 155.828C139.245 155.828 138.929 155.952 138.697 156.2C138.465 156.448 138.349 156.808 138.349 157.28V158.444C138.349 158.924 138.465 159.288 138.697 159.536C138.929 159.784 139.245 159.908 139.645 159.908ZM143.923 161V154.736H145.459V155.78H145.519C145.647 155.444 145.847 155.164 146.119 154.94C146.399 154.708 146.783 154.592 147.271 154.592C147.919 154.592 148.415 154.804 148.759 155.228C149.103 155.652 149.275 156.256 149.275 157.04V161H147.739V157.196C147.739 156.748 147.659 156.412 147.499 156.188C147.339 155.964 147.075 155.852 146.707 155.852C146.547 155.852 146.391 155.876 146.239 155.924C146.095 155.964 145.963 156.028 145.843 156.116C145.731 156.196 145.639 156.3 145.567 156.428C145.495 156.548 145.459 156.692 145.459 156.86V161H143.923Z" fill="#0668E1" style="fill:#0668E1;fill:color(display-p3 0.0235 0.4078 0.8824);fill-opacity:1;"/>
<path d="M129.324 132.704H129.276C129.204 133.112 128.976 133.456 128.592 133.736C128.216 134.008 127.712 134.144 127.08 134.144C126.584 134.144 126.124 134.052 125.7 133.868C125.284 133.684 124.92 133.412 124.608 133.052C124.304 132.684 124.064 132.232 123.888 131.696C123.712 131.16 123.624 130.54 123.624 129.836C123.624 129.132 123.712 128.512 123.888 127.976C124.072 127.432 124.328 126.976 124.656 126.608C124.984 126.24 125.376 125.96 125.832 125.768C126.288 125.576 126.796 125.48 127.356 125.48C128.108 125.48 128.748 125.644 129.276 125.972C129.804 126.3 130.22 126.772 130.524 127.388L129.24 128.144C129.088 127.784 128.86 127.484 128.556 127.244C128.26 127.004 127.86 126.884 127.356 126.884C126.732 126.884 126.232 127.076 125.856 127.46C125.488 127.836 125.304 128.396 125.304 129.14V130.484C125.304 131.22 125.492 131.78 125.868 132.164C126.244 132.548 126.748 132.74 127.38 132.74C127.628 132.74 127.86 132.712 128.076 132.656C128.292 132.592 128.48 132.5 128.64 132.38C128.8 132.26 128.928 132.112 129.024 131.936C129.12 131.76 129.168 131.552 129.168 131.312V130.772H127.524V129.44H130.692V134H129.324V132.704ZM137.039 134C136.703 134 136.435 133.904 136.235 133.712C136.043 133.512 135.923 133.248 135.875 132.92H135.803C135.699 133.328 135.487 133.636 135.167 133.844C134.847 134.044 134.451 134.144 133.979 134.144C133.339 134.144 132.847 133.976 132.503 133.64C132.159 133.304 131.987 132.856 131.987 132.296C131.987 131.648 132.219 131.168 132.683 130.856C133.147 130.536 133.807 130.376 134.663 130.376H135.731V129.92C135.731 129.568 135.639 129.296 135.455 129.104C135.271 128.912 134.975 128.816 134.567 128.816C134.207 128.816 133.915 128.896 133.691 129.056C133.475 129.208 133.291 129.392 133.139 129.608L132.227 128.792C132.459 128.432 132.767 128.144 133.151 127.928C133.535 127.704 134.043 127.592 134.675 127.592C135.523 127.592 136.167 127.784 136.607 128.168C137.047 128.552 137.267 129.104 137.267 129.824V132.776H137.891V134H137.039ZM134.495 133.028C134.839 133.028 135.131 132.952 135.371 132.8C135.611 132.648 135.731 132.424 135.731 132.128V131.3H134.747C133.947 131.3 133.547 131.556 133.547 132.068V132.272C133.547 132.528 133.627 132.72 133.787 132.848C133.955 132.968 134.191 133.028 134.495 133.028ZM139.134 127.736H140.67V128.768H140.718C140.83 128.408 141.042 128.124 141.354 127.916C141.666 127.7 142.03 127.592 142.446 127.592C143.246 127.592 143.854 127.876 144.27 128.444C144.694 129.004 144.906 129.808 144.906 130.856C144.906 131.912 144.694 132.724 144.27 133.292C143.854 133.86 143.246 134.144 142.446 134.144C142.03 134.144 141.666 134.036 141.354 133.82C141.05 133.604 140.838 133.316 140.718 132.956H140.67V136.4H139.134V127.736ZM141.954 132.872C142.354 132.872 142.678 132.74 142.926 132.476C143.174 132.212 143.298 131.856 143.298 131.408V130.328C143.298 129.88 143.174 129.524 142.926 129.26C142.678 128.988 142.354 128.852 141.954 128.852C141.586 128.852 141.278 128.944 141.03 129.128C140.79 129.312 140.67 129.556 140.67 129.86V131.852C140.67 132.18 140.79 132.432 141.03 132.608C141.278 132.784 141.586 132.872 141.954 132.872Z" fill="#0668E1" style="fill:#0668E1;fill:color(display-p3 0.0235 0.4078 0.8824);fill-opacity:1;"/>
</svg>
