<svg width="32" height="32" viewBox="0 0 32 32" fill="none" xmlns="http://www.w3.org/2000/svg">
<path d="M14.668 6.66634H10.668L16.0013 1.33301L21.3346 6.66634H17.3346V12.573C16.3346 13.1863 15.4413 13.9463 14.668 14.8263V6.66634ZM29.3346 14.6663L24.0013 9.33301V13.333C21.6854 13.2378 19.4221 14.0401 17.6832 15.5728C15.9444 17.1054 14.8642 19.2501 14.668 21.5597C13.6682 21.9146 12.85 22.6515 12.3926 23.6087C11.9352 24.566 11.876 25.6655 12.228 26.6663C12.5829 27.6661 13.3198 28.4843 14.277 28.9417C15.2343 29.3991 16.3338 29.4583 17.3346 29.1063C18.3335 28.7502 19.1508 28.0132 19.608 27.0563C20.0652 26.0995 20.1251 25.0006 19.7746 23.9997C19.3746 22.853 18.468 21.9597 17.3346 21.5597C17.9613 16.2263 23.2946 15.9597 23.9346 15.9597V19.9597L29.3346 14.6663ZM14.1746 15.453C12.4056 14.0875 10.2361 13.3424 8.0013 13.333V9.33301L2.66797 14.6663L8.0013 19.9997V15.9997C9.78797 16.0397 11.508 16.6663 12.8546 17.8663C13.188 17.013 13.628 16.1997 14.1746 15.453Z" fill="#0668E1" style="fill:#0668E1;fill:color(display-p3 0.0235 0.4078 0.8824);fill-opacity:1;"/>
</svg>
