<svg width="60" height="60" viewBox="0 0 60 60" fill="none" xmlns="http://www.w3.org/2000/svg">
<rect width="60" height="60" rx="12" fill="#E6F0FC" style="fill:#E6F0FC;fill:color(display-p3 0.9020 0.9412 0.9882);fill-opacity:1;"/>
<path d="M43.5 24C41.325 24 40.11 26.16 40.605 27.765L35.28 33.105C34.83 32.97 34.17 32.97 33.72 33.105L29.895 29.28C30.405 27.675 29.19 25.5 27 25.5C24.825 25.5 23.595 27.66 24.105 29.28L17.265 36.105C15.66 35.61 13.5 36.825 13.5 39C13.5 40.65 14.85 42 16.5 42C18.675 42 19.89 39.84 19.395 38.235L26.22 31.395C26.67 31.53 27.33 31.53 27.78 31.395L31.605 35.22C31.095 36.825 32.31 39 34.5 39C36.675 39 37.905 36.84 37.395 35.22L42.735 29.895C44.34 30.39 46.5 29.175 46.5 27C46.5 25.35 45.15 24 43.5 24Z" fill="#0668E1" style="fill:#0668E1;fill:color(display-p3 0.0235 0.4078 0.8824);fill-opacity:1;"/>
<path d="M34.5 25.5L35.91 22.395L39 21L35.91 19.605L34.5 16.5L33.12 19.605L30 21L33.12 22.395L34.5 25.5ZM17.25 28.5L18 25.5L21 24.75L18 24L17.25 21L16.5 24L13.5 24.75L16.5 25.5L17.25 28.5Z" fill="#0668E1" style="fill:#0668E1;fill:color(display-p3 0.0235 0.4078 0.8824);fill-opacity:1;"/>
</svg>
