<svg width="60" height="60" viewBox="0 0 60 60" fill="none" xmlns="http://www.w3.org/2000/svg">
<rect width="60" height="60" rx="12" fill="#E6F0FC" style="fill:#E6F0FC;fill:color(display-p3 0.9020 0.9412 0.9882);fill-opacity:1;"/>
<path d="M45.9963 29.9972C45.9963 25.7542 44.3108 21.685 41.3106 18.6848C38.3103 15.6845 34.2411 13.999 29.9982 13.999C25.7552 13.999 21.686 15.6845 18.6858 18.6848C15.6855 21.685 14 25.7542 14 29.9972L14.014 30.6891L14.066 31.453C14.2491 33.4649 14.8116 35.4238 15.7238 37.2263L15.8498 37.4663L14.03 44.7535L14.002 44.9195V45.0834C14.0147 45.2275 14.0585 45.3671 14.1304 45.4927C14.2023 45.6182 14.3006 45.7266 14.4185 45.8104C14.5363 45.8943 14.671 45.9515 14.8132 45.9783C14.9553 46.005 15.1016 46.0006 15.2419 45.9653L22.531 44.1455L22.771 44.2735C25.2103 45.5087 27.9254 46.0981 30.6573 45.9854C33.3892 45.8728 36.0466 45.0619 38.3759 43.6301C40.7052 42.1983 42.6287 40.1934 43.9627 37.8067C45.2968 35.4201 45.9969 32.7314 45.9963 29.9972ZM21.9991 25.9976C21.9991 25.4673 22.2098 24.9586 22.5848 24.5836C22.9598 24.2086 23.4685 23.9979 23.9988 23.9979H29.9982C30.5285 23.9979 31.0372 24.2086 31.4122 24.5836C31.7872 24.9586 31.9979 25.4673 31.9979 25.9976V33.9967C31.9979 34.5271 31.7872 35.0357 31.4122 35.4108C31.0372 35.7858 30.5285 35.9965 29.9982 35.9965H23.9988C23.4685 35.9965 22.9598 35.7858 22.5848 35.4108C22.2098 35.0357 21.9991 34.5271 21.9991 33.9967V25.9976ZM36.2894 25.7057C36.4292 25.5656 36.6073 25.4701 36.8013 25.4313C36.9953 25.3925 37.1965 25.4122 37.3793 25.4877C37.5622 25.5633 37.7185 25.6915 37.8285 25.8559C37.9385 26.0204 37.9972 26.2137 37.9972 26.4116V33.5828C37.9972 33.7806 37.9385 33.974 37.8285 34.1385C37.7185 34.3029 37.5622 34.431 37.3793 34.5066C37.1965 34.5822 36.9953 34.6018 36.8013 34.563C36.6073 34.5242 36.4292 34.4288 36.2894 34.2887L33.9977 31.9969V27.9974L36.2894 25.7057Z" fill="#0668E1" style="fill:#0668E1;fill:color(display-p3 0.0235 0.4078 0.8824);fill-opacity:1;"/>
</svg>
