<svg width="60" height="60" viewBox="0 0 60 60" fill="none" xmlns="http://www.w3.org/2000/svg">
<rect width="60" height="60" rx="12" fill="#E6F0FC" style="fill:#E6F0FC;fill:color(display-p3 0.9020 0.9412 0.9882);fill-opacity:1;"/>
<path d="M19.0775 20.1302C19.2823 19.4904 20.1743 19.4904 20.3791 20.1302L20.6721 21.0452C20.7637 21.3313 21.0265 21.5251 21.3229 21.5251H22.271C22.9339 21.5251 23.2095 22.3859 22.6732 22.7813L21.9062 23.3468C21.6664 23.5237 21.566 23.8371 21.6576 24.1232L21.9506 25.0382C22.1554 25.678 21.4338 26.21 20.8975 25.8146L20.1305 25.2491C19.8907 25.0723 19.5659 25.0723 19.3261 25.2491L18.5591 25.8146C18.0228 26.21 17.3012 25.678 17.506 25.0382L17.799 24.1232C17.8906 23.8371 17.7902 23.5236 17.5504 23.3468L16.7834 22.7813C16.2471 22.3859 16.5227 21.5251 17.1856 21.5251H18.1337C18.4301 21.5251 18.6929 21.3313 18.7845 21.0452L19.0775 20.1302Z" fill="#0668E1" style="fill:#0668E1;fill:color(display-p3 0.0235 0.4078 0.8824);fill-opacity:1;"/>
<rect x="25.8906" y="20.8477" width="17.6089" height="3.4" rx="0.782619" fill="#0668E1" style="fill:#0668E1;fill:color(display-p3 0.0235 0.4078 0.8824);fill-opacity:1;"/>
<rect x="25.8906" y="24.6484" width="13.6958" height="0.6" rx="0.3" fill="#0668E1" style="fill:#0668E1;fill:color(display-p3 0.0235 0.4078 0.8824);fill-opacity:1;"/>
<rect x="40.5625" y="24.6484" width="1.95655" height="0.6" rx="0.3" fill="#0668E1" style="fill:#0668E1;fill:color(display-p3 0.0235 0.4078 0.8824);fill-opacity:1;"/>
<path d="M18.562 29.5109C18.7259 28.9625 19.4394 28.9625 19.6033 29.5109L19.8377 30.2952C19.911 30.5404 20.1212 30.7065 20.3583 30.7065H21.1168C21.6471 30.7065 21.8676 31.4443 21.4386 31.7833L20.825 32.268C20.6331 32.4195 20.5528 32.6882 20.6261 32.9335L20.8605 33.7177C21.0244 34.2661 20.4471 34.7222 20.018 34.3832L19.4044 33.8985C19.2126 33.747 18.9527 33.747 18.7609 33.8985L18.1473 34.3832C17.7182 34.7222 17.1409 34.2661 17.3048 33.7177L17.5392 32.9335C17.6125 32.6882 17.5322 32.4195 17.3403 32.268L16.7267 31.7833C16.2977 31.4443 16.5182 30.7065 17.0485 30.7065H17.8069C18.0441 30.7065 18.2543 30.5404 18.3276 30.2952L18.562 29.5109Z" fill="#0668E1" style="fill:#0668E1;fill:color(display-p3 0.0235 0.4078 0.8824);fill-opacity:1;"/>
<rect x="24.0156" y="30.1289" width="14.0871" height="2.91429" rx="0.626095" fill="#0668E1" style="fill:#0668E1;fill:color(display-p3 0.0235 0.4078 0.8824);fill-opacity:1;"/>
<rect x="24.0156" y="33.3857" width="10.9567" height="0.514286" rx="0.257143" fill="#0668E1" style="fill:#0668E1;fill:color(display-p3 0.0235 0.4078 0.8824);fill-opacity:1;"/>
<rect x="35.7539" y="33.3857" width="1.56524" height="0.514286" rx="0.257143" fill="#0668E1" style="fill:#0668E1;fill:color(display-p3 0.0235 0.4078 0.8824);fill-opacity:1;"/>
<path d="M17.7887 37.4411C17.8912 37.1212 18.3371 37.1212 18.4396 37.4411L18.586 37.8986C18.6319 38.0416 18.7632 38.1385 18.9115 38.1385H19.3855C19.7169 38.1385 19.8548 38.5689 19.5866 38.7666L19.2031 39.0494C19.0832 39.1378 19.033 39.2945 19.0788 39.4376L19.2253 39.8951C19.3277 40.215 18.9669 40.481 18.6988 40.2833L18.3153 40.0005C18.1953 39.9121 18.033 39.9121 17.913 40.0005L17.5295 40.2833C17.2614 40.481 16.9006 40.215 17.003 39.8951L17.1495 39.4376C17.1953 39.2945 17.1451 39.1378 17.0252 39.0494L16.6417 38.7666C16.3735 38.5689 16.5114 38.1385 16.8428 38.1385H17.3168C17.4651 38.1385 17.5964 38.0416 17.6423 37.8986L17.7887 37.4411Z" fill="#0668E1" style="fill:#0668E1;fill:color(display-p3 0.0235 0.4078 0.8824);fill-opacity:1;"/>
<rect x="21.1914" y="37.8008" width="8.80447" height="1.7" rx="0.39131" fill="#0668E1" style="fill:#0668E1;fill:color(display-p3 0.0235 0.4078 0.8824);fill-opacity:1;"/>
<rect x="21.1914" y="39.7002" width="6.84792" height="0.3" rx="0.15" fill="#0668E1" style="fill:#0668E1;fill:color(display-p3 0.0235 0.4078 0.8824);fill-opacity:1;"/>
<rect x="28.5312" y="39.7002" width="0.978274" height="0.3" rx="0.15" fill="#0668E1" style="fill:#0668E1;fill:color(display-p3 0.0235 0.4078 0.8824);fill-opacity:1;"/>
</svg>
