<svg width="32" height="32" viewBox="0 0 32 32" fill="none" xmlns="http://www.w3.org/2000/svg">
<path d="M6.40712 18.6359C6.43528 18.8251 6.43784 18.9346 6.466 19.0366C6.99846 20.9405 7.55139 22.8395 8.05569 24.7509C8.18113 25.2312 8.46783 25.3606 8.90046 25.4552C11.3912 25.9978 13.8794 26.5503 16.3625 27.1227C17.0358 27.277 17.6195 27.2098 18.2159 26.8365C20.1102 25.6518 22.0301 24.502 23.9398 23.3397C25.3938 22.4562 26.8479 21.5727 28.2968 20.6842C28.7831 20.3855 28.9342 20.0172 28.6603 19.6538C27.9409 18.6907 27.045 18.0685 25.5782 18.611C24.7488 18.9171 23.9577 19.3203 23.1386 19.6538C22.6522 19.8504 22.3373 20.0446 22.3373 20.6817C22.3399 21.5378 21.5898 22.1551 20.5684 22.3467C18.4105 22.7474 16.2345 22.5732 14.0638 22.4886C13.7694 22.4761 13.5339 22.3218 13.5492 21.9958C13.5646 21.6623 13.8001 21.5627 14.1124 21.5777C14.714 21.6026 15.3181 21.6573 15.9197 21.6399C17.3916 21.5976 18.8636 21.5329 20.3355 21.4507C20.7681 21.4259 21.1214 21.2093 21.3031 20.7987C21.577 20.1715 21.1623 19.4547 20.4277 19.4298C18.9071 19.3776 17.3814 19.4099 15.8582 19.3825C15.3872 19.3751 14.9008 19.3427 14.4529 19.2183C13.4007 18.9271 12.3768 18.5438 11.3247 18.2526C10.7845 18.1033 10.1932 17.939 9.65307 18.0038C8.57535 18.1282 7.51811 18.4094 6.40712 18.6359ZM5.02478 18.4542C4.41552 18.6135 3.91634 18.7081 3.44788 18.8898C3.30965 18.942 3.19189 19.2357 3.19957 19.4124C3.20981 19.6986 3.33013 19.9799 3.40949 20.2636C3.97778 22.2845 4.54352 24.3029 5.11949 26.3213C5.26029 26.8116 5.45996 26.9112 5.9617 26.7942C6.26889 26.722 6.57607 26.6473 6.88326 26.5652C7.37988 26.4333 7.51299 26.2491 7.37476 25.7514C6.74503 23.4766 6.10761 21.2043 5.44716 18.9371C5.39084 18.7429 5.15533 18.5986 5.02478 18.4542Z" fill="#0668E1" style="fill:#0668E1;fill:color(display-p3 0.0235 0.4078 0.8824);fill-opacity:1;"/>
<path d="M6.41016 18.636C7.51859 18.4095 8.57839 18.1283 9.65866 17.9989C10.1988 17.9342 10.7901 18.0984 11.3303 18.2478C12.3824 18.5389 13.4063 18.9222 14.4585 19.2134C14.9064 19.3378 15.3928 19.3677 15.8638 19.3777C17.387 19.405 18.9101 19.3752 20.4333 19.425C21.1679 19.4498 21.5852 20.1691 21.3087 20.7938C21.127 21.2069 20.7737 21.4235 20.3411 21.4459C18.8717 21.528 17.3998 21.5927 15.9253 21.635C15.3237 21.6524 14.7196 21.5977 14.118 21.5728C13.8057 21.5603 13.5702 21.6599 13.5548 21.9909C13.5395 22.3169 13.775 22.4737 14.0694 22.4837C16.2401 22.5683 18.4161 22.7425 20.574 22.3418C21.5954 22.1527 22.3455 21.5355 22.3429 20.6768C22.3429 20.0397 22.6578 19.8456 23.1442 19.6489C23.9633 19.3154 24.7544 18.9123 25.5838 18.6061C27.0506 18.0636 27.9465 18.6858 28.6659 19.6489C28.9372 20.0123 28.7887 20.3806 28.3024 20.6793C26.8509 21.5678 25.3969 22.4488 23.9454 23.3349C22.0357 24.4971 20.1158 25.6469 18.2215 26.8316C17.625 27.2049 17.0414 27.2721 16.3681 27.1178C13.885 26.5454 11.3968 25.9929 8.90605 25.4503C8.47343 25.3558 8.18672 25.2263 8.06129 24.746C7.55699 22.8346 7.00405 20.9357 6.47159 19.0317C6.44088 18.9371 6.43832 18.8276 6.41016 18.636Z" fill="#0668E1" style="fill:#0668E1;fill:color(display-p3 0.0235 0.4078 0.8824);fill-opacity:1;"/>
<path d="M5.02478 18.4541C5.15533 18.5985 5.3934 18.7428 5.44972 18.9344C6.11017 21.2017 6.74759 23.474 7.37732 25.7488C7.51555 26.244 7.38244 26.4307 6.88582 26.5626C6.58119 26.6422 6.27401 26.7169 5.96426 26.7916C5.45996 26.911 5.26029 26.809 5.12205 26.3187C4.54608 24.3003 3.98034 22.2819 3.41205 20.261C3.33013 19.9772 3.21237 19.696 3.19957 19.4098C3.19189 19.2331 3.30965 18.9394 3.44788 18.8872C3.91378 18.708 4.41552 18.6134 5.02478 18.4541Z" fill="#0668E1" style="fill:#0668E1;fill:color(display-p3 0.0235 0.4078 0.8824);fill-opacity:1;"/>
<path d="M16.979 9.98561C17.062 9.98561 17.1262 9.98561 17.1931 9.98561C18.4031 9.98561 19.6158 9.98304 20.8257 9.98561C21.0586 9.98561 21.2728 9.93937 21.4628 9.81092C21.5565 9.7467 21.6689 9.69789 21.7573 9.7801C21.8269 9.84175 21.8831 9.95221 21.8831 10.0396C21.8911 11.1134 21.8884 12.1872 21.8884 13.261C21.8884 13.3277 21.8804 13.3971 21.8644 13.4639C21.7733 13.8955 21.4093 14.196 20.9515 14.2217C20.906 14.2243 20.8605 14.2243 20.8123 14.2243C17.6027 14.2243 14.3931 14.2243 11.1835 14.2243C10.7445 14.2243 10.4045 14.065 10.2118 13.6823C10.1502 13.559 10.1154 13.41 10.1154 13.2712C10.1074 12.1923 10.1074 11.1134 10.1154 10.0344C10.1154 9.94708 10.177 9.83661 10.2439 9.77496C10.3322 9.69532 10.442 9.7467 10.5383 9.81092C10.7257 9.9368 10.9319 9.98561 11.1594 9.98561C12.3854 9.98304 13.6114 9.98561 14.8401 9.98304C14.974 9.98304 15.0329 10.0087 15.0222 10.1526C15.0088 10.317 15.0168 10.4865 15.0195 10.6535C15.0222 10.8333 15.1052 10.9233 15.2872 10.9258C15.7637 10.931 16.2375 10.931 16.714 10.9258C16.8907 10.9233 16.9736 10.8359 16.979 10.6664C16.9817 10.4429 16.979 10.2245 16.979 9.98561Z" fill="#0668E1" style="fill:#0668E1;fill:color(display-p3 0.0235 0.4078 0.8824);fill-opacity:1;"/>
<path d="M13.5465 6.21398C13.5465 6.05471 13.5465 5.91342 13.5465 5.77213C13.5519 5.20954 13.9668 4.80623 14.553 4.80366C15.5194 4.79852 16.4858 4.79852 17.4495 4.80366C18.033 4.80623 18.4453 5.21211 18.4506 5.77727C18.4533 5.91342 18.4506 6.04957 18.4506 6.20371C18.5202 6.20885 18.5791 6.21398 18.638 6.21398C19.3635 6.21398 20.0889 6.21398 20.8143 6.21398C21.4782 6.21398 21.8851 6.60446 21.8878 7.23898C21.8878 7.67055 21.8905 8.10213 21.8878 8.5337C21.8851 9.10657 21.4729 9.50988 20.8759 9.51245C19.6178 9.51759 18.3623 9.51502 17.1041 9.51245C17.0693 9.51245 17.0345 9.50731 16.9783 9.50218C16.9783 9.42768 16.981 9.35575 16.9783 9.28382C16.9703 9.13226 16.8846 9.04491 16.7267 9.04234C16.2422 9.03721 15.755 9.03721 15.2705 9.04234C15.1152 9.04491 15.0295 9.13482 15.0215 9.28639C15.0188 9.35318 15.0215 9.42254 15.0215 9.51245C14.9546 9.51245 14.901 9.51245 14.8448 9.51245C13.6242 9.51245 12.4035 9.51245 11.1801 9.51245C10.5136 9.51245 10.1121 9.12455 10.1094 8.48489C10.1094 8.05846 10.1094 7.63202 10.1094 7.20558C10.1121 6.6173 10.5243 6.21655 11.14 6.21398C11.8761 6.21142 12.6123 6.21398 13.3484 6.21398C13.4073 6.21398 13.4662 6.21398 13.5465 6.21398ZM14.5343 6.20114C15.5167 6.20114 16.4885 6.20114 17.4548 6.20114C17.4548 6.04444 17.4548 5.90058 17.4548 5.75929C16.4751 5.75929 15.5087 5.75929 14.5343 5.75929C14.5343 5.90829 14.5343 6.04957 14.5343 6.20114Z" fill="#0668E1" style="fill:#0668E1;fill:color(display-p3 0.0235 0.4078 0.8824);fill-opacity:1;"/>
</svg>
