<svg width="32" height="32" viewBox="0 0 32 32" fill="none" xmlns="http://www.w3.org/2000/svg">
<g clip-path="url(#clip0_19271_75725)">
<path d="M28.7963 26.6194C28.6728 26.7984 28.5773 26.9969 28.3568 27.0933C27.8718 27.3059 27.3353 26.9768 27.3028 26.4309C27.2893 26.2069 27.2868 25.9809 27.3028 25.7578C27.3148 25.5864 27.2498 25.5569 27.0943 25.5578C26.1213 25.5648 25.1483 25.5614 24.1758 25.5614C21.5648 25.5614 18.9538 25.5594 16.3428 25.5659C16.1608 25.5659 16.0848 25.5104 16.0293 25.3408C15.5123 23.7644 14.5603 22.5108 13.1968 21.5678C13.1073 21.5058 12.9938 21.4718 13.1158 21.3153C14.1523 19.9858 14.4558 18.4934 14.0843 16.8564C14.0808 16.8409 14.0843 16.8234 14.0843 16.7844H14.3763C18.8498 16.7844 23.3238 16.7888 27.7973 16.7773C28.2603 16.7763 28.5983 16.9049 28.7968 17.3334V26.6194H28.7963Z" fill="#0668E1" style="fill:#0668E1;fill:color(display-p3 0.0235 0.4078 0.8824);fill-opacity:1;"/>
<path d="M13.6269 3.2476C14.7239 3.3576 15.7374 4.3451 15.9174 5.4701C15.9664 5.7766 15.9634 6.0831 15.9634 6.3906C15.9639 7.4391 15.9664 8.4871 15.9604 9.5356C15.9594 9.6856 15.9999 9.8056 16.0814 9.9266C16.5229 10.5806 16.9629 11.2356 17.3964 11.8951C17.6644 12.3031 17.6034 12.7196 17.2529 12.9796C17.0914 13.0996 16.9029 13.1276 16.7099 13.1276C13.1489 13.1286 9.58838 13.1361 6.02737 13.1246C4.63538 13.1201 3.59888 12.2556 3.28588 10.8946C3.27688 10.8556 3.28488 10.8101 3.23438 10.7931V5.5501C3.31438 4.6936 3.77187 4.0716 4.45788 3.5951C4.79287 3.3621 5.16238 3.2256 5.57588 3.2296C5.66038 3.2176 5.75038 3.2561 5.83088 3.2041H13.3694C13.4474 3.2636 13.5469 3.2006 13.6269 3.2476Z" fill="#0668E1" style="fill:#0668E1;fill:color(display-p3 0.0235 0.4078 0.8824);fill-opacity:1;"/>
<path d="M9.67887 21.821C12.2279 22.096 14.2814 23.9665 14.7934 26.4835C14.8664 26.842 14.8914 27.207 14.9069 27.572C14.9354 28.243 14.7694 28.507 14.1679 28.7665H3.93337C3.53487 28.699 3.30187 28.466 3.23438 28.0675V27.019C3.32737 26.8755 3.30987 26.7075 3.34187 26.55C3.83337 24.1095 5.76837 22.2325 8.15237 21.869C8.25887 21.8525 8.36587 21.836 8.47237 21.8195C8.54187 21.788 8.61237 21.7605 8.68987 21.7565C8.75137 21.744 8.81287 21.733 8.87587 21.74C8.98287 21.765 9.09137 21.768 9.20037 21.755C9.26187 21.7415 9.32337 21.732 9.38637 21.7405C9.48587 21.759 9.58837 21.7685 9.67887 21.8205V21.821Z" fill="#0668E1" style="fill:#0668E1;fill:color(display-p3 0.0235 0.4078 0.8824);fill-opacity:1;"/>
<path d="M5.57422 3.2466C5.57872 3.2326 5.58122 3.2186 5.58272 3.2041H5.83222C5.75422 3.2681 5.66522 3.2631 5.57422 3.2466Z" fill="#0668E1" style="fill:#0668E1;fill:color(display-p3 0.0235 0.4078 0.8824);fill-opacity:1;"/>
<path d="M13.6286 3.2476C13.5376 3.2626 13.4476 3.2736 13.3711 3.2041H13.6206C13.6181 3.2196 13.6206 3.2341 13.6286 3.2476Z" fill="#0668E1" style="fill:#0668E1;fill:color(display-p3 0.0235 0.4078 0.8824);fill-opacity:1;"/>
<path d="M9.36998 21.7751L9.22248 21.8256C9.11398 21.7596 8.98498 21.8406 8.87598 21.7766C8.82498 21.7931 8.77398 21.8091 8.72298 21.8256C8.66748 21.7666 8.57598 21.7906 8.51898 21.7361C6.96998 21.5476 5.62448 20.1886 5.43248 18.6186C5.14748 16.2886 6.91898 14.3576 9.26448 14.4411C11.2265 14.5111 12.839 16.2746 12.7345 18.2361C12.638 20.0431 11.319 21.5291 9.62998 21.7336C9.54748 21.7751 9.46598 21.8201 9.36998 21.7751Z" fill="#0668E1" style="fill:#0668E1;fill:color(display-p3 0.0235 0.4078 0.8824);fill-opacity:1;"/>
<path d="M22.4382 11.0014C21.1587 10.9034 19.9652 9.76992 19.7632 8.46042C19.4787 6.61492 20.7187 5.00992 22.5782 4.81842C24.1547 4.65592 25.6852 5.85992 25.9032 7.43442C26.1357 9.10992 25.1432 10.5714 23.5062 10.9624C23.4262 10.9814 23.3427 10.9859 23.2607 10.9974C23.1817 11.0719 23.0807 11.0529 22.9862 11.0629C22.9062 11.0719 22.8267 11.0904 22.7447 11.0804C22.6437 11.0489 22.5272 11.0774 22.4377 11.0014H22.4382Z" fill="#0668E1" style="fill:#0668E1;fill:color(display-p3 0.0235 0.4078 0.8824);fill-opacity:1;"/>
<path d="M22.7496 11.0426C22.8191 11.0266 22.8891 11.0111 22.9586 10.9951C23.1001 11.0656 23.2621 11.0381 23.4076 11.0886C25.0831 11.3076 26.2931 12.1931 27.0826 13.6696C27.3146 14.1041 27.4511 14.5746 27.5316 15.0606C27.5496 15.1701 27.5661 15.2406 27.4026 15.2401C24.3241 15.2346 21.2461 15.2356 18.1676 15.2341C18.1521 15.2341 18.1366 15.2236 18.1211 15.2181C18.2811 13.1406 20.2161 11.2231 22.2921 11.0846C22.4431 11.0556 22.5946 11.0321 22.7496 11.0421V11.0426Z" fill="#0668E1" style="fill:#0668E1;fill:color(display-p3 0.0235 0.4078 0.8824);fill-opacity:1;"/>
<path d="M22.7505 11.0419C22.603 11.1094 22.4485 11.1044 22.293 11.0844C22.3415 11.0569 22.3895 11.0294 22.438 11.0014C22.5455 10.9894 22.6555 10.9574 22.7505 11.0414V11.0419Z" fill="#0668E1" style="fill:#0668E1;fill:color(display-p3 0.0235 0.4078 0.8824);fill-opacity:1;"/>
<path d="M23.406 11.0886C23.249 11.0921 23.084 11.1356 22.957 10.9951C23.0575 10.9961 23.158 10.9971 23.2585 10.9981C23.285 11.0656 23.366 11.0436 23.406 11.0881V11.0886Z" fill="#0668E1" style="fill:#0668E1;fill:color(display-p3 0.0235 0.4078 0.8824);fill-opacity:1;"/>
<path d="M9.37109 21.7752C9.45809 21.7622 9.53759 21.7047 9.63109 21.7337C9.64709 21.7622 9.66309 21.7912 9.67909 21.8197C9.57409 21.8212 9.46209 21.8717 9.37109 21.7752Z" fill="#0668E1" style="fill:#0668E1;fill:color(display-p3 0.0235 0.4078 0.8824);fill-opacity:1;"/>
<path d="M8.52016 21.7359C8.60516 21.7269 8.69166 21.7154 8.72416 21.8254C8.64016 21.8229 8.55666 21.8209 8.47266 21.8184C8.48866 21.7909 8.50416 21.7629 8.52016 21.7354V21.7359Z" fill="#0668E1" style="fill:#0668E1;fill:color(display-p3 0.0235 0.4078 0.8824);fill-opacity:1;"/>
<path d="M9.5912 7.50237C8.7852 7.50237 7.9787 7.50737 7.1727 7.49987C6.8472 7.49687 6.5707 7.27987 6.4772 6.98837C6.3802 6.68737 6.4847 6.35737 6.7382 6.16487C6.8757 6.06037 7.0342 6.01037 7.2032 6.00987C8.7907 6.00737 10.3782 6.00387 11.9657 6.01137C12.3882 6.01337 12.6887 6.29037 12.7417 6.67887C12.7882 7.02137 12.5712 7.35287 12.2307 7.46987C12.1167 7.50887 12.0017 7.50437 11.8862 7.50437C11.1217 7.50587 10.3567 7.50537 9.5922 7.50537C9.5922 7.50437 9.5922 7.50387 9.5922 7.50287L9.5912 7.50237Z" fill="#FEFEFE" style="fill:#FEFEFE;fill:color(display-p3 0.9961 0.9961 0.9961);fill-opacity:1;"/>
<path d="M8.39406 10.3046C7.97056 10.3046 7.54556 10.3271 7.12406 10.2986C6.64306 10.2666 6.34256 9.80257 6.48456 9.34907C6.57706 9.05407 6.78206 8.85307 7.09356 8.83907C7.96456 8.79957 8.83756 8.79407 9.70806 8.84107C10.0891 8.86157 10.3461 9.19307 10.3436 9.57557C10.3411 9.94707 10.0681 10.2746 9.68956 10.2966C9.25906 10.3216 8.82656 10.3026 8.39456 10.3026C8.39456 10.3031 8.39456 10.3036 8.39456 10.3046H8.39406Z" fill="#FEFEFE" style="fill:#FEFEFE;fill:color(display-p3 0.9961 0.9961 0.9961);fill-opacity:1;"/>
<path d="M8.875 21.7776C8.989 21.8026 9.1165 21.7341 9.2215 21.8266C9.1075 21.8001 8.9795 21.8716 8.875 21.7776Z" fill="#0668E1" style="fill:#0668E1;fill:color(display-p3 0.0235 0.4078 0.8824);fill-opacity:1;"/>
</g>
<defs>
<clipPath id="clip0_19271_75725">
<rect width="25.6" height="25.6" fill="white" style="fill:white;fill-opacity:1;" transform="translate(3.19922 3.2002)"/>
</clipPath>
</defs>
</svg>
