<svg width="32" height="32" viewBox="0 0 32 32" fill="none" xmlns="http://www.w3.org/2000/svg">
<path d="M10.0007 3.53065C11.3747 4.51571 12.4446 5.86026 13.3582 7.14687L13.8895 7.90843L14.3908 8.6357C14.6415 8.99606 14.7487 9.43456 14.692 9.86767C14.6352 10.3008 14.4185 10.6982 14.083 10.9842L11.7377 12.6977C11.6244 12.7782 11.5447 12.8964 11.5133 13.0304C11.4819 13.1644 11.501 13.305 11.567 13.4262C12.0984 14.3758 13.0432 15.7901 14.1251 16.8544C15.207 17.9187 16.7132 18.9097 17.7458 19.4915C17.8753 19.563 18.0277 19.5829 18.1717 19.5473C18.3157 19.5117 18.4403 19.4231 18.52 19.2999L20.0467 17.014C20.3273 16.6473 20.7414 16.4016 21.2021 16.3284C21.6628 16.2552 22.1344 16.3602 22.5182 16.6214L23.3152 17.1642C24.8046 18.1812 26.4046 19.3366 27.6283 20.8774C27.8224 21.1231 27.9459 21.4156 27.9858 21.7243C28.0258 22.033 27.9808 22.3466 27.8555 22.6323C26.8494 24.9418 24.3033 26.9084 21.6551 26.8126L21.2945 26.7925L21.0144 26.7689L20.7042 26.7334L20.3664 26.6884L19.9998 26.6293L19.8074 26.5938L19.4035 26.5087L19.192 26.4614L18.752 26.3502L18.2892 26.2201L17.8059 26.0664C15.5869 25.3261 12.7703 23.8716 9.88047 21.0288C6.99061 18.1859 5.51322 15.4164 4.76071 13.2334L4.60443 12.7581L4.4722 12.3028L4.3592 11.87L4.26544 11.4608C4.23839 11.3326 4.21314 11.2041 4.18971 11.0753L4.1296 10.7146L4.08152 10.3823L4.04666 10.0772L4.02261 9.80169L4.00338 9.44693C3.90601 6.85006 5.92675 4.32769 8.26364 3.34263C8.5449 3.22315 8.85291 3.17766 9.15744 3.21062C9.46197 3.24359 9.75255 3.35387 10.0007 3.53065ZM19.7798 7.7819L19.9192 7.79727C20.7943 7.94911 21.598 8.36956 22.2151 8.99836C22.8323 9.62716 23.2313 10.432 23.3549 11.2976C23.3989 11.597 23.3247 11.9016 23.1474 12.1488C22.9701 12.396 22.7032 12.5669 22.4017 12.6265C22.1002 12.686 21.787 12.6296 21.5265 12.4689C21.2659 12.3081 21.0779 12.0553 21.0011 11.7623L20.9735 11.6264C20.9251 11.2871 20.7779 10.9688 20.5497 10.7101C20.3214 10.4514 20.0219 10.2632 19.6872 10.1683L19.5009 10.1269C19.1991 10.0743 18.9291 9.91017 18.7461 9.66819C18.5632 9.4262 18.4811 9.1246 18.5167 8.82508C18.5524 8.52555 18.703 8.25073 18.9378 8.05682C19.1725 7.86291 19.4738 7.76457 19.7798 7.7819ZM19.7894 4.18696C21.7023 4.18696 23.5369 4.9345 24.8895 6.26512C26.2421 7.59574 27.002 9.40045 27.002 11.2822C27.0017 11.5836 26.8844 11.8735 26.6741 12.0927C26.4637 12.3119 26.1763 12.4438 25.8704 12.4614C25.5645 12.4791 25.2633 12.3812 25.0284 12.1878C24.7934 11.9943 24.6424 11.7199 24.6062 11.4206L24.5978 11.2822C24.5977 10.0814 24.1333 8.92562 23.2989 8.0492C22.4645 7.17277 21.3224 6.64135 20.1044 6.5627L19.7894 6.55205C19.4706 6.55205 19.1648 6.42746 18.9394 6.20569C18.714 5.98392 18.5873 5.68314 18.5873 5.36951C18.5873 5.05588 18.714 4.75509 18.9394 4.53332C19.1648 4.31155 19.4706 4.18696 19.7894 4.18696Z" fill="#0668E1" style="fill:#0668E1;fill:color(display-p3 0.0235 0.4078 0.8824);fill-opacity:1;"/>
</svg>
