<svg width="60" height="60" viewBox="0 0 60 60" fill="none" xmlns="http://www.w3.org/2000/svg">
<rect width="60" height="60" rx="12" fill="#E6F0FC" style="fill:#E6F0FC;fill:color(display-p3 0.9020 0.9412 0.9882);fill-opacity:1;"/>
<path d="M23.2388 43.4958C21.392 43.4958 19.548 43.4985 17.7012 43.4958C16.8426 43.4958 16.4943 43.1557 16.5024 42.2971C16.5159 41.174 16.4538 40.0401 16.5942 38.9332C16.8129 37.1838 18.3843 35.8285 20.1528 35.7934C22.2074 35.7529 24.2621 35.7529 26.3168 35.7907C28.3201 35.8285 29.9482 37.5051 29.9914 39.5218C30.013 40.4694 29.9995 41.417 29.9941 42.3619C29.9887 43.126 29.6323 43.4877 28.8709 43.4904C26.9945 43.4985 25.1153 43.4958 23.2388 43.4958Z" fill="#0668E1" style="fill:#0668E1;fill:color(display-p3 0.0235 0.4078 0.8824);fill-opacity:1;"/>
<path d="M27.1017 30.9551C27.1017 33.0771 25.3656 34.8157 23.2462 34.8157C21.1267 34.8157 19.3906 33.0771 19.3906 30.9551C19.3906 28.825 21.1105 27.1025 23.2462 27.1025C25.3764 27.1052 27.1017 28.8277 27.1017 30.9551Z" fill="#0668E1" style="fill:#0668E1;fill:color(display-p3 0.0235 0.4078 0.8824);fill-opacity:1;"/>
<path d="M38.6737 43.4957C37.4533 43.4957 36.2356 43.4984 35.0153 43.4957C34.1918 43.493 33.8462 43.1474 33.8516 42.3132C33.857 41.5599 33.8138 40.7959 33.9245 40.0589C34.1243 38.7252 35.2528 37.756 36.5947 37.7236C37.9744 37.6885 39.3541 37.6885 40.7338 37.7236C42.2349 37.7614 43.4202 38.9709 43.4823 40.4773C43.5093 41.1334 43.4985 41.7921 43.4877 42.4509C43.4769 43.115 43.1016 43.4768 42.4293 43.4984C42.4131 43.4984 42.3969 43.4984 42.3807 43.4984C41.1442 43.4957 39.9103 43.4957 38.6737 43.4957Z" fill="#0668E1" style="fill:#0668E1;fill:color(display-p3 0.0235 0.4078 0.8824);fill-opacity:1;"/>
<path d="M38.6787 30.961C40.2717 30.9664 41.5515 32.2487 41.5569 33.8362C41.5623 35.4399 40.2528 36.7519 38.6517 36.7438C37.0534 36.7357 35.7574 35.4156 35.7736 33.8119C35.7925 32.2244 37.0858 30.9556 38.6787 30.961Z" fill="#0668E1" style="fill:#0668E1;fill:color(display-p3 0.0235 0.4078 0.8824);fill-opacity:1;"/>
<path d="M32.9915 27.2998C32.9915 26.4864 32.9915 25.8109 32.9915 25.0399C32.6236 25.0399 32.3103 25.047 31.9971 25.0399C31.1155 25.0151 30.5691 24.5448 30.5582 23.7066C30.5327 21.7543 30.5327 19.8021 30.5582 17.8533C30.5691 16.9833 31.1192 16.5059 32.0371 16.5059C35.3483 16.4988 38.6595 16.4988 41.9708 16.5023C42.9652 16.5023 43.4898 17.0222 43.4934 17.9948C43.5007 19.848 43.5007 21.7013 43.4934 23.558C43.4898 24.5235 42.9616 25.0364 41.9598 25.0399C40.1822 25.047 38.4082 25.0293 36.6306 25.054C36.3355 25.0576 35.9967 25.1707 35.7527 25.3334C34.8493 25.9382 33.9787 26.589 32.9915 27.2998ZM36.0477 21.4855C35.7017 21.1036 35.4613 20.7428 35.1261 20.5094C34.9404 20.3785 34.5287 20.3609 34.3357 20.474C34.0187 20.665 34.0588 21.0187 34.3211 21.2839C34.7546 21.7225 35.199 22.1469 35.647 22.5677C35.9202 22.8259 36.2335 22.8507 36.5067 22.589C37.5012 21.6447 38.4993 20.7039 39.4464 19.7207C39.4791 19.6853 39.4974 19.6358 39.5046 19.5792C39.5484 19.2291 39.2314 18.9285 38.8672 18.9497C38.787 18.9532 38.7105 18.9639 38.634 18.9815C38.5029 19.0098 38.4009 19.1831 38.288 19.2963C37.5813 19.986 36.871 20.6792 36.0477 21.4855Z" fill="#0668E1" style="fill:#0668E1;fill:color(display-p3 0.0235 0.4078 0.8824);fill-opacity:1;"/>
</svg>
