<svg width="40" height="40" viewBox="0 0 40 40" fill="none" xmlns="http://www.w3.org/2000/svg">
<rect width="40" height="40" rx="8" fill="#0668E1" style="fill:#0668E1;fill:color(display-p3 0.0235 0.4078 0.8824);fill-opacity:1;"/>
<path d="M30.0383 12.7742L25.3508 8.08672C25.2637 7.99969 25.1602 7.93067 25.0464 7.88362C24.9326 7.83657 24.8107 7.8124 24.6875 7.8125H15.3125C14.8152 7.8125 14.3383 8.01004 13.9867 8.36167C13.635 8.71331 13.4375 9.19022 13.4375 9.6875V11.5625H11.5625C11.0652 11.5625 10.5883 11.76 10.2367 12.1117C9.88504 12.4633 9.6875 12.9402 9.6875 13.4375V30.3125C9.6875 30.8098 9.88504 31.2867 10.2367 31.6383C10.5883 31.99 11.0652 32.1875 11.5625 32.1875H24.6875C25.1848 32.1875 25.6617 31.99 26.0133 31.6383C26.365 31.2867 26.5625 30.8098 26.5625 30.3125V28.4375H28.4375C28.9348 28.4375 29.4117 28.24 29.7633 27.8883C30.115 27.5367 30.3125 27.0598 30.3125 26.5625V13.4375C30.3126 13.3143 30.2884 13.1924 30.2414 13.0786C30.1943 12.9648 30.1253 12.8613 30.0383 12.7742ZM20.9375 27.5H15.3125C15.0639 27.5 14.8254 27.4012 14.6496 27.2254C14.4738 27.0496 14.375 26.8111 14.375 26.5625C14.375 26.3139 14.4738 26.0754 14.6496 25.8996C14.8254 25.7238 15.0639 25.625 15.3125 25.625H20.9375C21.1861 25.625 21.4246 25.7238 21.6004 25.8996C21.7762 26.0754 21.875 26.3139 21.875 26.5625C21.875 26.8111 21.7762 27.0496 21.6004 27.2254C21.4246 27.4012 21.1861 27.5 20.9375 27.5ZM20.9375 23.75H15.3125C15.0639 23.75 14.8254 23.6512 14.6496 23.4754C14.4738 23.2996 14.375 23.0611 14.375 22.8125C14.375 22.5639 14.4738 22.3254 14.6496 22.1496C14.8254 21.9738 15.0639 21.875 15.3125 21.875H20.9375C21.1861 21.875 21.4246 21.9738 21.6004 22.1496C21.7762 22.3254 21.875 22.5639 21.875 22.8125C21.875 23.0611 21.7762 23.2996 21.6004 23.4754C21.4246 23.6512 21.1861 23.75 20.9375 23.75ZM28.4375 26.5625H26.5625V17.1875C26.5626 17.0643 26.5384 16.9424 26.4914 16.8286C26.4443 16.7148 26.3753 16.6113 26.2883 16.5242L21.6008 11.8367C21.5137 11.7497 21.4102 11.6807 21.2964 11.6336C21.1826 11.5866 21.0607 11.5624 20.9375 11.5625H15.3125V9.6875H24.2996L28.4375 13.8254V26.5625Z" fill="white" style="fill:white;fill-opacity:1;"/>
</svg>
