<svg width="24" height="24" viewBox="0 0 24 24" fill="none" xmlns="http://www.w3.org/2000/svg">
<path d="M0.646145 24C0.152147 23.7933 -0.0261329 23.4307 0.00304022 22.9166C0.0354548 22.3405 0.00887483 21.7606 0.0108197 21.1826C0.0127646 20.6077 0.342745 20.2808 0.941118 20.2776C2.11388 20.272 3.28664 20.2758 4.45875 20.2758C4.9333 20.2758 5.14205 20.1518 5.14723 19.8675C5.15242 19.5813 4.93978 19.4491 4.47236 19.4485C3.5103 19.4485 2.54758 19.4485 1.58552 19.4485H1.30157C1.29638 19.3552 1.2886 19.28 1.2886 19.2043C1.28731 18.6338 1.28666 18.0639 1.2886 17.4934C1.29055 16.8803 1.63155 16.5496 2.26104 16.5496C3.48242 16.549 4.70315 16.5509 5.92453 16.5484C6.26748 16.5484 6.46975 16.3455 6.42177 16.0631C6.38482 15.8451 6.21367 15.7249 5.91675 15.7236C5.05128 15.7205 4.18646 15.7224 3.321 15.7224C3.22634 15.7224 3.13234 15.7224 3.02667 15.7224C3.02667 15.0943 3.00657 14.495 3.0351 13.8969C3.05001 13.5813 3.36249 13.3164 3.69376 13.2619C3.8124 13.2425 3.93493 13.2387 4.05616 13.2387C4.94561 13.2368 5.83507 13.2387 6.72452 13.2375C7.08822 13.2375 7.28594 13.0928 7.29048 12.8317C7.29437 12.5705 7.09081 12.4171 6.73619 12.4152C6.68757 12.4152 6.63895 12.4152 6.59033 12.4152C6.05679 12.4152 5.52259 12.4152 4.98905 12.4152H4.73297C4.73297 11.9368 4.7038 11.4765 4.74205 11.0212C4.77511 10.6286 5.14399 10.3555 5.5777 10.3499C6.23247 10.3417 6.88789 10.3468 7.54267 10.3461C7.61528 10.3461 7.68918 10.3493 7.76049 10.3392C7.99193 10.306 8.14493 10.137 8.14234 9.92467C8.13974 9.70173 7.97249 9.52888 7.72613 9.51949C7.44542 9.50884 7.16471 9.51698 6.86391 9.51698C6.86391 9.07235 6.85094 8.65215 6.86909 8.23382C6.87947 7.99272 7.06942 7.86685 7.36763 7.86622C8.31349 7.86434 9.25999 7.86559 10.2058 7.86559C10.6493 7.86559 11.0921 7.86559 11.5524 7.86559V4.96611C11.4629 4.96611 11.3689 4.96611 11.2755 4.96611C9.41558 4.96611 7.55563 4.96611 5.69569 4.96611C5.63929 4.96611 5.58224 4.96423 5.52583 4.96611C5.37349 4.97112 5.1978 4.96298 5.17705 4.79452C5.16409 4.69056 5.24448 4.54089 5.33264 4.467C5.83248 4.04616 6.34722 3.64224 6.85613 3.23268C6.89956 3.19761 6.9443 3.16442 6.98643 3.12747C7.18092 2.95776 7.18481 2.8275 6.98449 2.66406C6.45354 2.2307 5.9174 1.80235 5.38386 1.3715C5.26133 1.27255 5.1012 1.18613 5.16733 0.993253C5.2354 0.795361 5.41951 0.831057 5.5777 0.831057C7.47006 0.829804 9.36242 0.830431 11.2548 0.830431C11.3501 0.830431 11.4454 0.830431 11.5699 0.830431C11.5699 0.700173 11.5679 0.593086 11.5699 0.486626C11.5763 0.185405 11.7462 -0.00309278 12.0062 3.84156e-05C12.2648 0.00316961 12.4262 0.191667 12.4327 0.496645C12.434 0.559269 12.4327 0.621893 12.4327 0.683891C12.4327 2.97279 12.4327 5.26169 12.4327 7.5506V7.86497H12.729C14.0146 7.86497 15.3008 7.86497 16.5863 7.86497C17.0006 7.86497 17.1413 8.00023 17.1426 8.39664C17.1439 8.7561 17.1426 9.11494 17.1426 9.51573C16.8489 9.51573 16.5617 9.50696 16.2752 9.51824C16.0282 9.52826 15.8622 9.70173 15.8602 9.92467C15.8583 10.1376 16.0106 10.306 16.2427 10.3392C16.3141 10.3493 16.388 10.3461 16.4606 10.3461C17.0751 10.3461 17.6897 10.3449 18.3043 10.3467C18.9617 10.3486 19.28 10.6611 19.2813 11.3011C19.2813 11.66 19.2813 12.0188 19.2813 12.4146H19.0135C18.4476 12.4146 17.8816 12.4146 17.315 12.4146C16.9157 12.4146 16.7082 12.5586 16.7121 12.831C16.716 13.1022 16.9196 13.2375 17.3267 13.2375C18.2084 13.2375 19.0894 13.2368 19.9711 13.2375C20.679 13.2387 20.9908 13.5406 20.9921 14.2238C20.9928 14.7135 20.9921 15.2039 20.9921 15.7218C20.8774 15.7218 20.7911 15.7218 20.7049 15.7218C19.8719 15.7218 19.0388 15.7218 18.2058 15.7218C18.1247 15.7218 18.0437 15.7192 17.9633 15.7286C17.7157 15.7587 17.5646 15.9272 17.575 16.1557C17.5847 16.3699 17.7448 16.5283 17.9802 16.5446C18.1007 16.5534 18.2226 16.5484 18.3438 16.5484C19.4842 16.5484 20.6245 16.5478 21.7649 16.5484C22.3516 16.549 22.7069 16.8828 22.7114 17.4458C22.7166 18.1008 22.7127 18.7559 22.7127 19.4353C22.6103 19.4397 22.5247 19.4466 22.4391 19.4466C21.42 19.4472 20.4009 19.4416 19.3824 19.4535C19.2424 19.4554 19.0693 19.5055 18.9701 19.5944C18.7361 19.8048 18.8651 20.1812 19.1795 20.2532C19.2722 20.2745 19.372 20.2733 19.4686 20.2739C20.6414 20.2751 21.8142 20.2739 22.9863 20.2751C23.676 20.2764 23.9892 20.5826 23.9898 21.2514C23.9898 21.8063 23.9652 22.3618 23.997 22.9147C24.0261 23.4282 23.8485 23.7921 23.3538 23.9981H18.3555C18.3439 23.9693 18.327 23.9411 18.3205 23.9111C17.3448 19.5512 16.3698 15.1907 15.3948 10.8302C15.2638 10.2434 15.1355 9.65538 15.0006 9.06922C14.9364 8.78804 14.7316 8.64839 14.48 8.70162C14.2272 8.75485 14.106 8.96151 14.163 9.24144C14.1799 9.32473 14.1948 9.40864 14.2129 9.50446H9.78641C9.80132 9.41616 9.81234 9.33976 9.8279 9.26336C9.89078 8.96214 9.77733 8.75673 9.51607 8.70225C9.25416 8.64777 9.05902 8.79055 8.9916 9.09239C8.06973 13.2087 7.14916 17.3249 6.22599 21.4406C6.03474 22.2935 5.83637 23.1452 5.64123 23.9975H0.646145V24Z" fill="#0668E1" style="fill:#0668E1;fill:color(display-p3 0.0235 0.4078 0.8824);fill-opacity:1;"/>
<path d="M6.51562 23.9995C6.69326 23.2318 6.87219 22.464 7.04787 21.6962C7.13863 21.3004 7.23458 20.9053 7.30913 20.5064C7.34284 20.3254 7.41805 20.2697 7.60994 20.2715C8.75806 20.2809 9.90554 20.2759 11.0537 20.2759C12.8241 20.2759 14.5946 20.2797 16.3645 20.2715C16.5732 20.2703 16.6536 20.3285 16.6964 20.5289C16.9337 21.6436 17.1871 22.7558 17.4361 23.868C17.4465 23.9131 17.4666 23.9557 17.4821 23.9995H6.51562Z" fill="#0668E1" style="fill:#0668E1;fill:color(display-p3 0.0235 0.4078 0.8824);fill-opacity:1;"/>
<path d="M7.55859 19.4389C7.65065 19.0205 7.73817 18.6179 7.82828 18.2158C7.9372 17.728 8.05583 17.242 8.15372 16.7523C8.18419 16.602 8.23541 16.5463 8.40072 16.5469C10.8013 16.5519 13.202 16.5506 15.6026 16.55C15.7109 16.55 15.8029 16.5425 15.834 16.6865C16.022 17.5564 16.2198 18.4243 16.4123 19.2936C16.422 19.3368 16.4136 19.3844 16.4136 19.4389H7.55859Z" fill="#0668E1" style="fill:#0668E1;fill:color(display-p3 0.0235 0.4078 0.8824);fill-opacity:1;"/>
<path d="M8.39062 15.7074C8.57733 14.8739 8.75885 14.0623 8.94297 13.2394H9.20423C11.07 13.2394 12.9358 13.2431 14.8016 13.2344C15.0051 13.2338 15.0758 13.2914 15.1147 13.4811C15.2515 14.1537 15.4097 14.8225 15.5594 15.4926C15.5743 15.5584 15.5828 15.6254 15.5977 15.7074H8.39062Z" fill="#0668E1" style="fill:#0668E1;fill:color(display-p3 0.0235 0.4078 0.8824);fill-opacity:1;"/>
<path d="M9.58401 10.3555H14.4073C14.559 11.0306 14.7107 11.7044 14.8669 12.3983H9.12891C9.27996 11.7207 9.42971 11.0481 9.58401 10.3555Z" fill="#0668E1" style="fill:#0668E1;fill:color(display-p3 0.0235 0.4078 0.8824);fill-opacity:1;"/>
</svg>
