<svg width="24" height="24" viewBox="0 0 24 24" fill="none" xmlns="http://www.w3.org/2000/svg">
<path d="M8.83203 3.00953C8.83203 1.34955 10.2558 -0.0012384 12.004 8.52016e-07C13.7508 0.0012401 15.1648 1.35326 15.1615 3.0213C15.1583 4.67384 13.7476 6.01409 12.0046 6.02091C10.263 6.02711 8.83203 4.66889 8.83203 3.01015V3.00953Z" fill="#0668E1" style="fill:#0668E1;fill:color(display-p3 0.0235 0.4078 0.8824);fill-opacity:1;"/>
<path d="M11.9824 7.84389C10.7594 7.84389 9.53707 7.84265 8.31407 7.84389C7.56588 7.84513 7.15255 8.29931 7.26242 9.00197C7.39322 9.83537 7.5286 10.6688 7.66268 11.5015C7.7078 11.7822 7.54103 11.9687 7.2428 11.9687C6.89225 11.9687 6.5417 11.9687 6.19116 11.9687C6.10352 11.9687 6.00869 11.9886 6.0113 11.8498C6.03092 10.9061 5.9544 9.95991 6.04662 9.01932C6.14341 8.03473 6.73202 7.31906 7.55542 6.76264C8.20027 6.32704 8.92622 6.0575 9.68814 5.86852C9.79867 5.84125 9.885 5.85737 9.98506 5.91561C11.3271 6.69448 12.673 6.70006 14.017 5.91747C14.0949 5.87224 14.1661 5.83134 14.2662 5.85613C15.4356 6.15169 16.5153 6.59658 17.2995 7.52044C17.7429 8.04279 17.9797 8.64754 17.9921 9.31736C18.0071 10.1371 17.9914 10.9581 17.9999 11.7785C18.0019 11.9347 17.9529 11.9774 17.7939 11.9725C17.4604 11.9625 17.1255 11.9694 16.7913 11.9694C16.448 11.9694 16.2884 11.7946 16.3414 11.4625C16.4754 10.6297 16.6148 9.79757 16.7501 8.96479C16.8522 8.33773 16.4179 7.84761 15.7475 7.84513C14.4925 7.84079 13.2368 7.84389 11.9818 7.84389H11.9824Z" fill="#0668E1" style="fill:#0668E1;fill:color(display-p3 0.0235 0.4078 0.8824);fill-opacity:1;"/>
<path d="M11.9802 8.32001C13.1954 8.32001 14.4105 8.32001 15.6257 8.32001C16.1404 8.32001 16.3078 8.4935 16.2346 8.98053C16.1162 9.76126 15.9782 10.5395 15.8611 11.3209C15.8395 11.4665 15.7794 11.4894 15.6433 11.4894C13.2215 11.4863 10.7991 11.4851 8.37729 11.4906C8.2079 11.4906 8.16016 11.4373 8.13727 11.2874C8.01693 10.4912 7.8822 9.69682 7.75663 8.90122C7.69712 8.5251 7.89071 8.32186 8.31058 8.32062C9.53358 8.31815 10.7572 8.32001 11.9802 8.32001Z" fill="#0668E1" style="fill:#0668E1;fill:color(display-p3 0.0235 0.4078 0.8824);fill-opacity:1;"/>
<path d="M12.0094 12.9978C10.787 12.9978 9.56469 12.9978 8.343 12.9978C8.01992 12.9978 7.97021 12.9513 7.97087 12.6525C7.97283 11.9155 7.88258 11.9682 8.69355 11.9688C10.9996 11.9694 13.3056 11.9688 15.611 11.9688C16.006 11.9688 16.0322 11.9948 16.0348 12.3587C16.0394 13.0487 16.0708 12.9997 15.3579 12.9984C14.2415 12.9972 13.1251 12.9984 12.0094 12.9984V12.9978Z" fill="#0668E1" style="fill:#0668E1;fill:color(display-p3 0.0235 0.4078 0.8824);fill-opacity:1;"/>
<path d="M13.5859 20.2861H15.3975L12.001 24L8.60449 20.2861H10.416L10.6426 18.2861H6.56543L7.24902 16.8672L3.84863 16.8574L3.39551 17.2861L0 16.4287L4.98047 15.4287L4.52832 15.8574L7.74023 15.8496L8.15039 15H15.8486L16.2578 15.8496L19.4707 15.8574L19.0176 15.4287L23.999 16.4287L20.6025 17.2861L20.1494 16.8574L16.749 16.8672L17.4336 18.2861H13.3594L13.5859 20.2861Z" fill="#0668E1" style="fill:#0668E1;fill:color(display-p3 0.0235 0.4078 0.8824);fill-opacity:1;"/>
</svg>
