<svg width="24" height="24" viewBox="0 0 24 24" fill="none" xmlns="http://www.w3.org/2000/svg">
<path d="M19.09 5.85378C19.0792 5.95943 19.0728 6.07996 19.07 6.21065L17.5364 6.92713C17.3216 6.8927 16.2564 6.95335 14.6676 6.18639C14.2648 5.99191 13.8712 5.88861 13.4932 5.88861C13.1511 5.88893 12.814 5.96873 12.5096 6.12143C12.1084 6.03652 11.5304 5.81896 11.1924 5.81974C10.4276 5.82365 8.6888 6.43291 8.2072 6.48496C7.736 6.53543 7.2508 6.66222 6.7624 6.86413C5.8748 6.61135 4.762 6.19852 4.166 5.97039L0 3V12.5517L3.0616 13.9769C3.106 13.926 3.1568 13.8477 3.212 13.7507L3.3068 13.7937C3.3532 13.9111 3.4044 14.028 3.4604 14.1443C3.1244 14.6977 3.0844 15.321 3.3528 15.863C3.5828 16.3267 4.0112 16.6522 4.4884 16.7434C4.5144 17.0322 4.6136 17.3116 4.7808 17.5538C5.0808 17.987 5.5576 18.2456 6.0572 18.2456C6.10253 18.2456 6.1476 18.2433 6.1924 18.2386C6.2636 18.4268 6.368 18.6021 6.5036 18.7539C6.8052 19.0932 7.2276 19.2877 7.662 19.2877C7.694 19.2877 7.7256 19.2866 7.7568 19.2845C7.812 19.4896 7.906 19.6837 8.0372 19.8566C8.3392 20.2557 8.8052 20.4933 9.2844 20.4933C9.582 20.4933 9.8664 20.404 10.1172 20.237C10.602 20.5414 11.0236 20.7554 11.3976 20.8869C11.5852 20.9617 11.7804 21 11.9796 21C12.4508 21 12.908 20.7848 13.2344 20.4083C13.3556 20.2683 13.454 20.1117 13.526 19.9443C13.667 19.9859 13.8135 20.0072 13.9608 20.0077C14.4616 20.0077 14.9364 19.7678 15.2648 19.3483C15.4209 19.1496 15.5339 18.9218 15.5968 18.6788C15.6312 18.6811 15.6653 18.6823 15.6992 18.6823C16.278 18.6823 16.832 18.3501 17.1436 17.8152C17.3069 17.5369 17.3936 17.2219 17.3952 16.9011C17.9672 16.8177 18.4708 16.4198 18.716 15.8395C18.9576 15.2678 18.892 14.637 18.5548 14.1111L20.1128 13.2522C20.1528 13.386 20.192 13.5093 20.23 13.6094L24 11.647V3.64252L19.09 5.85378ZM19.0896 7.04217C19.1144 7.46557 19.1596 7.94413 19.218 8.44383C18.898 7.91791 18.494 7.67804 17.9924 7.5587L19.0896 7.04217ZM16.9984 16.338C16.1392 16.0488 14.3508 13.9921 14.3508 13.9921H14.386C14.568 13.9796 14.9612 13.7922 15.4024 13.8818C14.7096 13.2995 13.9476 13.7922 13.4288 13.4905C13.5492 13.8681 14.128 13.987 14.2764 13.9917L15.99 15.9412C16.766 16.8236 16.2256 17.9153 15.4476 18.0891C14.9256 17.8406 13.4516 16.1255 13.4516 16.1255C13.502 16.1165 13.8008 16.025 14.1052 16.0641C13.4024 15.5499 12.6056 15.996 12.1328 15.6732C12.4008 16.3208 13.2836 16.1549 13.376 16.1392L14.2928 17.2842C15.0264 18.1998 14.45 19.2575 13.6708 19.4007C12.98 19.1632 12.5316 18.318 12.5316 18.318C12.6012 18.307 12.834 18.2057 13.1652 18.2527C12.576 17.7475 11.89 18.2057 11.4776 17.9181C11.7324 18.4612 12.3676 18.3376 12.4032 18.3337C13.0384 19.3123 12.3796 20.3328 11.5924 20.3633H11.5916L11.5908 20.3637C11.118 20.2835 10.6228 19.9137 10.0636 19.5342C10.2556 19.326 10.4252 18.9601 10.4252 18.9601C10.9868 17.9654 10.258 17.0858 9.5056 17.1613C10.116 17.3245 10.5736 18.0867 10.0972 18.9331L9.888 19.2775C9.6608 19.6825 9.306 19.927 9.0452 19.8969C8.6436 19.8492 8.0776 19.2755 8.3156 18.4663C8.4076 18.3841 9.2948 17.0564 9.2948 17.0564C9.9048 16.0954 9.22 15.1754 8.4656 15.2067C9.0664 15.4051 9.4876 16.1932 8.9696 17.011L8.2484 18.111C8.0024 18.5 7.684 18.7203 7.3804 18.6796C6.9092 18.617 6.5788 18.0547 6.6544 17.4743C6.6504 17.4779 7.1736 16.9054 7.1736 16.9054C7.8688 16.0167 7.2736 15.0244 6.5204 14.9723C7.0992 15.2361 7.444 16.0672 6.8532 16.8236L6.598 17.1296C6.318 17.4888 5.9808 17.6716 5.6856 17.5996C5.1704 17.4732 4.9024 16.5301 5.146 16.273C5.3376 16.0707 5.8756 15.4302 5.8756 15.4302C6.5704 14.5411 5.976 13.5492 5.222 13.4963C5.8012 13.7609 6.146 14.592 5.5552 15.3488L5.3 15.654C5.0184 16.0163 4.68 16.1983 4.3828 16.1243C3.7636 15.971 3.4544 15.0357 4.0468 14.2766C4.0468 14.2766 3.8456 13.6513 3.7548 13.384L3.4564 13.2487C4.156 11.6541 5.2128 8.1347 5.2616 6.96548C5.7768 7.14509 7.1368 7.52778 7.2812 7.52856L7.2804 7.52935C8.7444 7.07935 10.2788 7.12904 10.9788 6.86452C11.2056 6.78 11.6568 6.77452 12.1352 7.04217C11.8364 7.29848 11.554 7.6037 11.2608 7.88817C10.56 8.56865 7.9544 9.62987 8.4568 10.7459C8.8904 11.7089 10.1116 12.6942 12.16 11.1473L13.312 10.9924L15.1036 11.8572L17.3996 14.1639C18.2184 14.9849 17.7548 16.0993 16.9984 16.338ZM17.5744 13.7965C17.3112 13.3152 16.4908 12.5259 15.7164 11.8807L15.7116 11.876C16.0688 11.89 16.4436 11.3273 16.928 11.2839C16.5896 11.0311 16.0288 11.323 15.854 11.3692C14.8904 11.6228 13.3928 10.4367 13.3928 10.4367L11.96 10.6387C11.96 10.6387 10.256 12.673 8.8204 10.9971C8.0408 10.0869 10.866 8.89813 11.562 8.22157C12.4536 7.35483 13.248 6.29439 14.7148 7.01674C15.9332 7.61778 16.4132 7.58061 18.0476 7.85883C18.5348 7.94217 18.8724 8.16052 19.2344 8.58665C19.4048 9.98909 19.6804 11.5445 19.9448 12.6269C19.8084 12.7392 18.6392 13.5085 17.5744 13.7965Z" fill="#0668E1" style="fill:#0668E1;fill:color(display-p3 0.0235 0.4078 0.8824);fill-opacity:1;"/>
<circle cx="19" cy="19" r="5" fill="#E6F0FC" style="fill:#E6F0FC;fill:color(display-p3 0.9020 0.9412 0.9882);fill-opacity:1;"/>
<path d="M18.9987 19.583L20.207 20.7913C20.2834 20.8677 20.3806 20.9059 20.4987 20.9059C20.6167 20.9059 20.714 20.8677 20.7904 20.7913C20.8667 20.715 20.9049 20.6177 20.9049 20.4997C20.9049 20.3816 20.8667 20.2844 20.7904 20.208L19.582 18.9997L20.7904 17.7913C20.8667 17.715 20.9049 17.6177 20.9049 17.4997C20.9049 17.3816 20.8667 17.2844 20.7904 17.208C20.714 17.1316 20.6167 17.0934 20.4987 17.0934C20.3806 17.0934 20.2834 17.1316 20.207 17.208L18.9987 18.4163L17.7904 17.208C17.714 17.1316 17.6168 17.0934 17.4987 17.0934C17.3806 17.0934 17.2834 17.1316 17.207 17.208C17.1306 17.2844 17.0924 17.3816 17.0924 17.4997C17.0924 17.6177 17.1306 17.715 17.207 17.7913L18.4154 18.9997L17.207 20.208C17.1306 20.2844 17.0924 20.3816 17.0924 20.4997C17.0924 20.6177 17.1306 20.715 17.207 20.7913C17.2834 20.8677 17.3806 20.9059 17.4987 20.9059C17.6168 20.9059 17.714 20.8677 17.7904 20.7913L18.9987 19.583ZM18.9987 23.1663C18.4223 23.1663 17.8806 23.0569 17.3737 22.838C16.8668 22.6191 16.4258 22.3223 16.0508 21.9476C15.6758 21.5729 15.379 21.1319 15.1604 20.6247C14.9418 20.1175 14.8323 19.5758 14.832 18.9997C14.8318 18.4236 14.9412 17.8819 15.1604 17.3747C15.3795 16.8675 15.6763 16.4265 16.0508 16.0518C16.4252 15.677 16.8662 15.3802 17.3737 15.1613C17.8812 14.9425 18.4229 14.833 18.9987 14.833C19.5745 14.833 20.1162 14.9425 20.6237 15.1613C21.1312 15.3802 21.5722 15.677 21.9466 16.0518C22.3211 16.4265 22.618 16.8675 22.8374 17.3747C23.0569 17.8819 23.1662 18.4236 23.1654 18.9997C23.1645 19.5758 23.0551 20.1175 22.837 20.6247C22.619 21.1319 22.3222 21.5729 21.9466 21.9476C21.5711 22.3223 21.1301 22.6193 20.6237 22.8384C20.1173 23.0576 19.5756 23.1669 18.9987 23.1663Z" fill="#0668E1" style="fill:#0668E1;fill:color(display-p3 0.0235 0.4078 0.8824);fill-opacity:1;"/>
</svg>
