<svg width="24" height="24" viewBox="0 0 24 24" fill="none" xmlns="http://www.w3.org/2000/svg">
<path d="M19.0711 4.9286C20.9464 6.80374 22 9.34699 22 11.9988C22.0004 13.7077 21.5628 15.3882 20.7289 16.8798C19.895 18.3715 18.6927 19.6245 17.2367 20.5194C15.7807 21.4143 14.1196 21.9211 12.412 21.9915C10.7044 22.0619 9.00723 21.6936 7.4825 20.9216L7.3325 20.8416L2.77625 21.9789C2.68856 22.001 2.59714 22.0038 2.50828 21.987C2.41942 21.9703 2.33525 21.9345 2.26157 21.8821C2.18789 21.8297 2.12646 21.762 2.08152 21.6835C2.03658 21.6051 2.00919 21.5178 2.00125 21.4278V21.3253L2.01875 21.2215L3.15625 16.6671L3.0775 16.5171C2.50733 15.3905 2.15572 14.1662 2.04125 12.9087L2.00875 12.4313L2 11.9988C2 9.34699 3.05357 6.80374 4.92893 4.9286C6.8043 3.05345 9.34784 2 12 2C14.6522 2 17.1957 3.05345 19.0711 4.9286Z" fill="#0668E1" style="fill:#0668E1;fill:color(display-p3 0.0235 0.4078 0.8824);fill-opacity:1;"/>
<path d="M7 9.38728C7.00016 9.01935 7.14577 8.66653 7.40483 8.4064C7.66389 8.14626 8.01519 8.00008 8.38152 8H12.2848C12.6513 8 13.0027 8.14618 13.2618 8.4064C13.521 8.66661 13.6666 9.01954 13.6667 9.38758V13.6124C13.6666 13.9804 13.521 14.3333 13.2619 14.5935C13.0029 14.8537 12.6515 14.9999 12.2852 15H8.38182C8.01544 15 7.66406 14.8539 7.40494 14.5937C7.14582 14.3336 7.00016 13.9807 7 13.6127V9.38728ZM14.2727 12.5819L16.1333 14.1161C16.4794 14.4016 17 14.1542 17 13.7046V9.29597C17 8.84612 16.4794 8.59898 16.1333 8.88417L14.2727 10.4181V12.5819Z" fill="white" style="fill:white;fill-opacity:1;"/>
<circle cx="19" cy="19" r="5" fill="#E6F0FC" style="fill:#E6F0FC;fill:color(display-p3 0.9020 0.9412 0.9882);fill-opacity:1;"/>
<path d="M18.9987 19.583L20.207 20.7913C20.2834 20.8677 20.3806 20.9059 20.4987 20.9059C20.6167 20.9059 20.714 20.8677 20.7904 20.7913C20.8667 20.715 20.9049 20.6177 20.9049 20.4997C20.9049 20.3816 20.8667 20.2844 20.7904 20.208L19.582 18.9997L20.7904 17.7913C20.8667 17.715 20.9049 17.6177 20.9049 17.4997C20.9049 17.3816 20.8667 17.2844 20.7904 17.208C20.714 17.1316 20.6167 17.0934 20.4987 17.0934C20.3806 17.0934 20.2834 17.1316 20.207 17.208L18.9987 18.4163L17.7904 17.208C17.714 17.1316 17.6168 17.0934 17.4987 17.0934C17.3806 17.0934 17.2834 17.1316 17.207 17.208C17.1306 17.2844 17.0924 17.3816 17.0924 17.4997C17.0924 17.6177 17.1306 17.715 17.207 17.7913L18.4154 18.9997L17.207 20.208C17.1306 20.2844 17.0924 20.3816 17.0924 20.4997C17.0924 20.6177 17.1306 20.715 17.207 20.7913C17.2834 20.8677 17.3806 20.9059 17.4987 20.9059C17.6168 20.9059 17.714 20.8677 17.7904 20.7913L18.9987 19.583ZM18.9987 23.1663C18.4223 23.1663 17.8806 23.0569 17.3737 22.838C16.8668 22.6191 16.4258 22.3223 16.0508 21.9476C15.6758 21.5729 15.379 21.1319 15.1604 20.6247C14.9418 20.1175 14.8323 19.5758 14.832 18.9997C14.8318 18.4236 14.9412 17.8819 15.1604 17.3747C15.3795 16.8675 15.6763 16.4265 16.0508 16.0518C16.4252 15.677 16.8662 15.3802 17.3737 15.1613C17.8812 14.9425 18.4229 14.833 18.9987 14.833C19.5745 14.833 20.1162 14.9425 20.6237 15.1613C21.1312 15.3802 21.5722 15.677 21.9466 16.0518C22.3211 16.4265 22.618 16.8675 22.8374 17.3747C23.0569 17.8819 23.1662 18.4236 23.1654 18.9997C23.1645 19.5758 23.0551 20.1175 22.837 20.6247C22.619 21.1319 22.3222 21.5729 21.9466 21.9476C21.5711 22.3223 21.1301 22.6193 20.6237 22.8384C20.1173 23.0576 19.5756 23.1669 18.9987 23.1663Z" fill="#0668E1" style="fill:#0668E1;fill:color(display-p3 0.0235 0.4078 0.8824);fill-opacity:1;"/>
</svg>
