<svg width="24" height="24" viewBox="0 0 24 24" fill="none" xmlns="http://www.w3.org/2000/svg">
<path d="M6.67 3.75H16.33C16.865 3.75 17.31 3.75 17.675 3.78C19.084 3.895 20.043 4.9 20.155 6.324C20.22 7.135 20.24 8.272 20.247 8.942C20.249 9.12733 20.25 9.313 20.25 9.499C20.2501 9.69791 20.1712 9.88873 20.0307 10.0295C19.8901 10.1702 19.6994 10.2494 19.5005 10.2495C19.3016 10.2496 19.1108 10.1707 18.97 10.0302C18.8293 9.88963 18.7501 9.69891 18.75 9.5C18.749 9.0833 18.7443 8.66662 18.736 8.25H4.25V16.3C4.25 16.872 4.25 17.257 4.275 17.552C4.298 17.84 4.34 17.977 4.386 18.067C4.506 18.303 4.697 18.494 4.933 18.614C5.023 18.66 5.16 18.702 5.447 18.725C5.743 18.749 6.127 18.75 6.7 18.75H16.3C16.872 18.75 17.257 18.75 17.552 18.725C17.84 18.702 17.977 18.66 18.067 18.614C18.155 18.5664 18.2516 18.5369 18.3512 18.5272C18.4507 18.5175 18.5512 18.5278 18.6467 18.5576C18.7423 18.5873 18.8309 18.6358 18.9073 18.7003C18.9838 18.7648 19.0466 18.844 19.092 18.9331C19.1375 19.0222 19.1646 19.1195 19.1719 19.2193C19.1791 19.3191 19.1663 19.4193 19.1343 19.514C19.1022 19.6088 19.0515 19.6962 18.9852 19.771C18.9189 19.8459 18.8382 19.9068 18.748 19.95C18.411 20.122 18.055 20.19 17.675 20.22C17.311 20.25 16.865 20.25 16.331 20.25H6.669C6.135 20.25 5.689 20.25 5.325 20.22C4.945 20.19 4.589 20.122 4.252 19.95C3.73475 19.6869 3.31401 19.2668 3.05 18.75C2.878 18.412 2.81 18.056 2.78 17.676C2.75 17.311 2.75 16.866 2.75 16.332V7.67C2.75 7.137 2.75 6.69 2.78 6.325C2.893 4.944 3.914 3.895 5.325 3.78C5.69 3.75 6.135 3.75 6.67 3.75Z" fill="#0668E1" style="fill:#0668E1;fill:color(display-p3 0.0235 0.4078 0.8824);fill-opacity:1;"/>
<path d="M5.75 10C5.75 9.80109 5.82902 9.61032 5.96967 9.46967C6.11032 9.32902 6.30109 9.25 6.5 9.25H12.5C12.6989 9.25 12.8897 9.32902 13.0303 9.46967C13.171 9.61032 13.25 9.80109 13.25 10C13.25 10.1989 13.171 10.3897 13.0303 10.5303C12.8897 10.671 12.6989 10.75 12.5 10.75H6.5C6.30109 10.75 6.11032 10.671 5.96967 10.5303C5.82902 10.3897 5.75 10.1989 5.75 10Z" fill="#0668E1" style="fill:#0668E1;fill:color(display-p3 0.0235 0.4078 0.8824);fill-opacity:1;"/>
<path fill-rule="evenodd" clip-rule="evenodd" d="M16.9988 10.25C16.4964 10.2502 16.0009 10.3668 15.5512 10.5908C15.1015 10.8148 14.7098 11.1399 14.407 11.5407C14.1041 11.9416 13.8983 12.4071 13.8057 12.9009C13.7131 13.3947 13.7362 13.9032 13.8732 14.3865C14.0103 14.8699 14.2575 15.3148 14.5955 15.6865C14.9335 16.0582 15.353 16.3465 15.8212 16.5287C16.2894 16.7109 16.7934 16.7821 17.2937 16.7367C17.7941 16.6913 18.277 16.5305 18.7048 16.267L19.9688 17.53C20.0374 17.6037 20.1202 17.6628 20.2122 17.7038C20.3042 17.7448 20.4035 17.7668 20.5042 17.7686C20.6049 17.7704 20.705 17.7518 20.7984 17.7141C20.8917 17.6764 20.9766 17.6203 21.0478 17.549C21.119 17.4778 21.1752 17.393 21.2129 17.2996C21.2506 17.2062 21.2691 17.1062 21.2674 17.0055C21.2656 16.9048 21.2435 16.8055 21.2025 16.7135C21.1616 16.6215 21.1024 16.5387 21.0288 16.47L19.7658 15.206C20.0695 14.7136 20.2362 14.149 20.2488 13.5706C20.2613 12.9921 20.1192 12.4208 19.8372 11.9157C19.5552 11.4105 19.1434 10.9898 18.6444 10.697C18.1454 10.4042 17.5773 10.2499 16.9988 10.25ZM15.2488 13.5C15.2488 13.0359 15.4331 12.5908 15.7613 12.2626C16.0895 11.9344 16.5346 11.75 16.9988 11.75C17.4629 11.75 17.908 11.9344 18.2362 12.2626C18.5644 12.5908 18.7488 13.0359 18.7488 13.5C18.7488 13.9641 18.5644 14.4092 18.2362 14.7374C17.908 15.0656 17.4629 15.25 16.9988 15.25C16.5346 15.25 16.0895 15.0656 15.7613 14.7374C15.4331 14.4092 15.2488 13.9641 15.2488 13.5Z" fill="#0668E1" style="fill:#0668E1;fill:color(display-p3 0.0235 0.4078 0.8824);fill-opacity:1;"/>
<path d="M5.75 12C5.75 11.8011 5.82902 11.6103 5.96967 11.4697C6.11032 11.329 6.30109 11.25 6.5 11.25H9.5C9.69891 11.25 9.88968 11.329 10.0303 11.4697C10.171 11.6103 10.25 11.8011 10.25 12C10.25 12.1989 10.171 12.3897 10.0303 12.5303C9.88968 12.671 9.69891 12.75 9.5 12.75H6.5C6.30109 12.75 6.11032 12.671 5.96967 12.5303C5.82902 12.3897 5.75 12.1989 5.75 12ZM6.5 14.25C6.30109 14.25 6.11032 14.329 5.96967 14.4697C5.82902 14.6103 5.75 14.8011 5.75 15C5.75 15.1989 5.82902 15.3897 5.96967 15.5303C6.11032 15.671 6.30109 15.75 6.5 15.75H11.5C11.6989 15.75 11.8897 15.671 12.0303 15.5303C12.171 15.3897 12.25 15.1989 12.25 15C12.25 14.8011 12.171 14.6103 12.0303 14.4697C11.8897 14.329 11.6989 14.25 11.5 14.25H6.5ZM5.75 17C5.75 16.8011 5.82902 16.6103 5.96967 16.4697C6.11032 16.329 6.30109 16.25 6.5 16.25H9.5C9.69891 16.25 9.88968 16.329 10.0303 16.4697C10.171 16.6103 10.25 16.8011 10.25 17C10.25 17.1989 10.171 17.3897 10.0303 17.5303C9.88968 17.671 9.69891 17.75 9.5 17.75H6.5C6.30109 17.75 6.11032 17.671 5.96967 17.5303C5.82902 17.3897 5.75 17.1989 5.75 17Z" fill="#0668E1" style="fill:#0668E1;fill:color(display-p3 0.0235 0.4078 0.8824);fill-opacity:1;"/>
</svg>
