<svg width="24" height="24" viewBox="0 0 24 24" fill="none" xmlns="http://www.w3.org/2000/svg">
<g clip-path="url(#clip0_22171_12586)">
<path d="M5.35 13.95C5.55 14.05 5.75 14.1 5.95 14.2C6.5 14.4 7.05 14.4 7.6 14.2C7.8 14.1 7.95 14.15 8.15 14.3C8.9 14.8 9.75 14.9 10.65 14.6C10.75 14.55 10.85 14.55 10.9 14.55C11.45 14.8 12 14.75 12.6 14.75C12.65 14.75 12.7 14.75 12.75 14.75C12.7 14.95 12.7 15.15 12.65 15.35C12.65 15.5 12.6 15.6 12.6 15.75C12.6 16.15 12.9 16.4 13.25 16.4C13.6 16.4 13.85 16.15 13.9 15.75C13.95 15.5 13.95 15.2 14 14.95C14.15 14.35 14.5 13.9 15.05 13.6C15.15 13.55 15.2 13.5 15.3 13.4C15.2 13.4 15.1 13.4 15 13.4C14 13.4 13 13.4 12 13.4C11.1 13.4 10.45 12.8 10.45 11.95C10.45 11.1 11.1 10.5 12 10.5C13.55 10.5 15.1 10.5 16.65 10.5C17.8 10.5 18.65 11.3 18.65 12.5C18.65 13.95 18.65 15.4 18.65 16.9C18.65 18.15 18.1 19.15 17.1 19.9C16.95 20 16.9 20.1 16.9 20.3C16.9 20.95 16.9 21.6 16.9 22.3C16.9 22.75 16.65 23 16.2 23C13.35 23 10.55 23 7.7 23C7.25 23 7 22.75 7 22.3C7 21.65 7 21 7 20.3C7 20.15 6.95 20.05 6.8 19.9C5.8 19.15 5.25 18.15 5.25 16.9C5.25 16 5.25 15.1 5.25 14.2C5.3 14.1 5.3 14.05 5.35 13.95Z" fill="#0668E1" style="fill:#0668E1;fill:color(display-p3 0.0235 0.4078 0.8824);fill-opacity:1;"/>
<path d="M16.9516 9.24963C16.8016 9.24963 16.7016 9.24963 16.6016 9.24963C15.1016 9.24963 13.5516 9.24963 12.0516 9.24963C10.5516 9.24963 9.40156 10.2496 9.25156 11.7496C9.20156 12.1996 9.40156 12.6496 9.45156 13.0996C9.45156 13.1996 9.55156 13.2996 9.60156 13.3996C8.95156 13.4996 8.50156 12.9996 8.20156 11.9996C8.00156 12.4996 7.65156 12.8996 7.10156 12.9996C6.20156 13.1996 5.35156 12.5496 5.35156 11.6496C5.35156 10.5996 5.35156 9.54963 5.35156 8.54963C5.35156 7.79963 5.80156 7.24963 6.50156 7.09963C7.20156 6.94963 7.85156 7.29963 8.15156 7.94963C8.15156 7.99963 8.20156 8.04963 8.25156 8.09963C8.25156 7.09963 8.55156 6.34963 9.65156 6.24963C10.3516 6.14963 10.9016 6.59963 11.2016 7.29963C11.2016 7.14963 11.2016 6.99963 11.2016 6.84963C11.2016 6.04963 11.8016 5.39963 12.6016 5.39963C13.4016 5.34963 14.0016 5.89963 14.1016 6.74963C14.1016 6.89963 14.1016 7.09963 14.1516 7.34963C14.2016 7.24963 14.2516 7.14963 14.2516 7.09963C14.5516 6.49963 15.2016 6.14963 15.9016 6.29963C16.5516 6.44963 17.0016 6.99963 17.0516 7.69963C16.9516 8.14963 16.9516 8.69963 16.9516 9.24963Z" fill="#0668E1" style="fill:#0668E1;fill:color(display-p3 0.0235 0.4078 0.8824);fill-opacity:1;"/>
<path d="M21.5008 12.5998C21.2008 12.5998 20.9508 12.5998 20.6508 12.5998C20.3008 12.5998 20.0508 12.3498 20.0508 11.9498C20.0508 11.5998 20.3008 11.2998 20.6508 11.2998C21.2508 11.2998 21.8508 11.2998 22.4508 11.2998C22.8008 11.2998 23.0508 11.5998 23.0508 11.9498C23.0508 12.2998 22.8008 12.5498 22.4008 12.5998C22.0508 12.5998 21.7508 12.5998 21.5008 12.5998Z" fill="#0668E1" style="fill:#0668E1;fill:color(display-p3 0.0235 0.4078 0.8824);fill-opacity:1;"/>
<path d="M19.5508 8.29977C19.2008 8.29977 18.9508 8.09977 18.8508 7.84977C18.7508 7.59977 18.8508 7.24977 19.1008 7.09977C19.6008 6.79977 20.1508 6.49977 20.6508 6.19977C20.9508 6.04977 21.3508 6.14977 21.5008 6.44977C21.6508 6.74977 21.6008 7.14977 21.3008 7.29977C20.7508 7.64977 20.2508 7.94977 19.7008 8.24977C19.6508 8.29977 19.5508 8.29977 19.5508 8.29977Z" fill="#0668E1" style="fill:#0668E1;fill:color(display-p3 0.0235 0.4078 0.8824);fill-opacity:1;"/>
<path d="M2.5 12.5998C2.2 12.5998 1.95 12.5998 1.65 12.5998C1.25 12.5998 1 12.3498 1 11.9498C1 11.5998 1.25 11.2998 1.65 11.2998C2.2 11.2998 2.8 11.2998 3.35 11.2998C3.75 11.2998 4 11.5998 4 11.9498C4 12.2998 3.75 12.5498 3.35 12.5998C3.05 12.5998 2.8 12.5998 2.5 12.5998Z" fill="#0668E1" style="fill:#0668E1;fill:color(display-p3 0.0235 0.4078 0.8824);fill-opacity:1;"/>
<path d="M15.6992 4.45031C15.6992 4.40031 15.7492 4.25031 15.7992 4.15031C16.0492 3.70031 16.3492 3.20031 16.5992 2.75031C16.7992 2.40031 17.1992 2.30031 17.5492 2.45031C17.8492 2.65031 17.9492 3.00031 17.7492 3.35031C17.4992 3.85031 17.1992 4.35031 16.8992 4.80031C16.7492 5.10031 16.4492 5.20031 16.1492 5.10031C15.8492 5.05031 15.6992 4.80031 15.6992 4.45031Z" fill="#0668E1" style="fill:#0668E1;fill:color(display-p3 0.0235 0.4078 0.8824);fill-opacity:1;"/>
<path d="M8.29947 4.45007C8.29947 4.80007 8.14947 5.05007 7.84947 5.15007C7.59947 5.25007 7.29947 5.15007 7.14947 4.90007C6.79947 4.35007 6.49947 3.85007 6.19947 3.30007C6.04947 3.00007 6.19947 2.65007 6.49947 2.45007C6.79947 2.30007 7.19947 2.35007 7.34947 2.65007C7.64947 3.15007 7.94947 3.70007 8.24947 4.25007C8.29947 4.30007 8.29947 4.40007 8.29947 4.45007Z" fill="#0668E1" style="fill:#0668E1;fill:color(display-p3 0.0235 0.4078 0.8824);fill-opacity:1;"/>
<path d="M5.1991 7.64977C5.1491 8.14977 4.6491 8.44977 4.2491 8.24977C3.6991 7.94977 3.1491 7.64977 2.6491 7.29977C2.3491 7.09977 2.2991 6.74977 2.4491 6.44977C2.5991 6.14977 2.9491 6.04977 3.2991 6.19977C3.8491 6.49977 4.3991 6.79977 4.8991 7.14977C5.0491 7.24977 5.0991 7.44977 5.1991 7.64977Z" fill="#0668E1" style="fill:#0668E1;fill:color(display-p3 0.0235 0.4078 0.8824);fill-opacity:1;"/>
<path d="M11.3516 2.45C11.3516 2.15 11.3516 1.9 11.3516 1.6C11.3516 1.25 11.6516 1 12.0016 1C12.3516 1 12.6516 1.25 12.6516 1.6C12.6516 2.2 12.6516 2.8 12.6516 3.35C12.6516 3.75 12.3516 4 12.0016 4C11.6516 4 11.3516 3.75 11.3516 3.35C11.3516 3.1 11.3516 2.75 11.3516 2.45Z" fill="#0668E1" style="fill:#0668E1;fill:color(display-p3 0.0235 0.4078 0.8824);fill-opacity:1;"/>
<circle cx="18" cy="18" r="5" fill="#E6F0FC" style="fill:#E6F0FC;fill:color(display-p3 0.9020 0.9412 0.9882);fill-opacity:1;"/>
<path d="M17.9987 18.583L19.207 19.7913C19.2834 19.8677 19.3806 19.9059 19.4987 19.9059C19.6167 19.9059 19.714 19.8677 19.7904 19.7913C19.8667 19.715 19.9049 19.6177 19.9049 19.4997C19.9049 19.3816 19.8667 19.2844 19.7904 19.208L18.582 17.9997L19.7904 16.7913C19.8667 16.715 19.9049 16.6177 19.9049 16.4997C19.9049 16.3816 19.8667 16.2844 19.7904 16.208C19.714 16.1316 19.6167 16.0934 19.4987 16.0934C19.3806 16.0934 19.2834 16.1316 19.207 16.208L17.9987 17.4163L16.7904 16.208C16.714 16.1316 16.6168 16.0934 16.4987 16.0934C16.3806 16.0934 16.2834 16.1316 16.207 16.208C16.1306 16.2844 16.0924 16.3816 16.0924 16.4997C16.0924 16.6177 16.1306 16.715 16.207 16.7913L17.4154 17.9997L16.207 19.208C16.1306 19.2844 16.0924 19.3816 16.0924 19.4997C16.0924 19.6177 16.1306 19.715 16.207 19.7913C16.2834 19.8677 16.3806 19.9059 16.4987 19.9059C16.6168 19.9059 16.714 19.8677 16.7904 19.7913L17.9987 18.583ZM17.9987 22.1663C17.4223 22.1663 16.8806 22.0569 16.3737 21.838C15.8668 21.6191 15.4258 21.3223 15.0508 20.9476C14.6758 20.5729 14.379 20.1319 14.1604 19.6247C13.9418 19.1175 13.8323 18.5758 13.832 17.9997C13.8318 17.4236 13.9412 16.8819 14.1604 16.3747C14.3795 15.8675 14.6763 15.4265 15.0508 15.0518C15.4252 14.677 15.8662 14.3802 16.3737 14.1613C16.8812 13.9425 17.4229 13.833 17.9987 13.833C18.5745 13.833 19.1162 13.9425 19.6237 14.1613C20.1312 14.3802 20.5722 14.677 20.9466 15.0518C21.3211 15.4265 21.618 15.8675 21.8374 16.3747C22.0569 16.8819 22.1662 17.4236 22.1654 17.9997C22.1645 18.5758 22.0551 19.1175 21.837 19.6247C21.619 20.1319 21.3222 20.5729 20.9466 20.9476C20.5711 21.3223 20.1301 21.6193 19.6237 21.8384C19.1173 22.0576 18.5756 22.1669 17.9987 22.1663Z" fill="#0668E1" style="fill:#0668E1;fill:color(display-p3 0.0235 0.4078 0.8824);fill-opacity:1;"/>
</g>
<defs>
<clipPath id="clip0_22171_12586">
<rect width="24" height="24" fill="white" style="fill:white;fill-opacity:1;"/>
</clipPath>
</defs>
</svg>
