<svg width="24" height="24" viewBox="0 0 24 24" fill="none" xmlns="http://www.w3.org/2000/svg">
<path d="M13.5 12C13.5 12.3978 13.342 12.7794 13.0607 13.0607C12.7794 13.342 12.3978 13.5 12 13.5C11.6022 13.5 11.2206 13.342 10.9393 13.0607C10.658 12.7794 10.5 12.3978 10.5 12C10.5 11.6022 10.658 11.2206 10.9393 10.9393C11.2206 10.658 11.6022 10.5 12 10.5C12.3978 10.5 12.7794 10.658 13.0607 10.9393C13.342 11.2206 13.5 11.6022 13.5 12Z" fill="#0668E1" style="fill:#0668E1;fill:color(display-p3 0.0235 0.4078 0.8824);fill-opacity:1;"/>
<path fill-rule="evenodd" clip-rule="evenodd" d="M14.5199 7.89053C14.7308 7.67986 15.0168 7.56152 15.3149 7.56152C15.613 7.56152 15.8989 7.67986 16.1099 7.89053C17.1999 8.98058 17.8123 10.459 17.8123 12.0005C17.8123 13.5421 17.1999 15.0205 16.1099 16.1105C16.0069 16.2211 15.8827 16.3097 15.7447 16.3712C15.6067 16.4327 15.4577 16.4658 15.3067 16.4684C15.1556 16.4711 15.0056 16.4433 14.8655 16.3867C14.7254 16.3301 14.5982 16.2459 14.4913 16.1391C14.3845 16.0323 14.3003 15.905 14.2437 15.7649C14.1871 15.6248 14.1593 15.4748 14.162 15.3238C14.1647 15.1727 14.1977 15.0237 14.2592 14.8857C14.3207 14.7477 14.4094 14.6235 14.5199 14.5205C14.851 14.1897 15.1136 13.7968 15.2928 13.3645C15.472 12.9321 15.5642 12.4686 15.5642 12.0005C15.5642 11.5325 15.472 11.069 15.2928 10.6366C15.1136 10.2042 14.851 9.81138 14.5199 9.48053C14.3092 9.2696 14.1909 8.98366 14.1909 8.68553C14.1909 8.38741 14.3092 8.10147 14.5199 7.89053ZM9.47988 7.89053C9.69056 8.10147 9.80889 8.38741 9.80889 8.68553C9.80889 8.98366 9.69056 9.2696 9.47988 9.48053C9.1488 9.81138 8.88615 10.2042 8.70695 10.6366C8.52775 11.069 8.43552 11.5325 8.43552 12.0005C8.43552 12.4686 8.52775 12.9321 8.70695 13.3645C8.88615 13.7968 9.1488 14.1897 9.47988 14.5205C9.59041 14.6235 9.67907 14.7477 9.74056 14.8857C9.80204 15.0237 9.83511 15.1727 9.83777 15.3238C9.84044 15.4748 9.81265 15.6248 9.75607 15.7649C9.69949 15.905 9.61527 16.0323 9.50844 16.1391C9.40161 16.2459 9.27436 16.3301 9.13428 16.3867C8.9942 16.4433 8.84415 16.4711 8.6931 16.4684C8.54205 16.4658 8.39308 16.4327 8.25508 16.3712C8.11708 16.3097 7.99288 16.2211 7.88988 16.1105C6.79986 15.0205 6.1875 13.5421 6.1875 12.0005C6.1875 10.459 6.79986 8.98058 7.88988 7.89053C8.10082 7.67986 8.38676 7.56152 8.68488 7.56152C8.98301 7.56152 9.26895 7.67986 9.47988 7.89053Z" fill="#0668E1" style="fill:#0668E1;fill:color(display-p3 0.0235 0.4078 0.8824);fill-opacity:1;"/>
<path fill-rule="evenodd" clip-rule="evenodd" d="M17.8358 4.5751C18.0467 4.36443 18.3326 4.24609 18.6308 4.24609C18.9289 4.24609 19.2148 4.36443 19.4258 4.5751C20.4009 5.55013 21.1744 6.70769 21.7021 7.98168C22.2299 9.25567 22.5015 10.6211 22.5015 12.0001C22.5015 13.3791 22.2299 14.7445 21.7021 16.0185C21.1744 17.2925 20.4009 18.4501 19.4258 19.4251C19.3228 19.5356 19.1986 19.6243 19.0606 19.6858C18.9226 19.7473 18.7736 19.7803 18.6225 19.783C18.4715 19.7857 18.3214 19.7579 18.1814 19.7013C18.0413 19.6447 17.914 19.5605 17.8072 19.4537C17.7004 19.3468 17.6162 19.2196 17.5596 19.0795C17.503 18.9394 17.4752 18.7894 17.4779 18.6383C17.4805 18.4873 17.5136 18.3383 17.5751 18.2003C17.6366 18.0623 17.7252 17.9381 17.8358 17.8351C18.6023 17.069 19.2103 16.1593 19.6251 15.1581C20.04 14.1569 20.2535 13.0838 20.2535 12.0001C20.2535 10.9164 20.04 9.84326 19.6251 8.84207C19.2103 7.84088 18.6023 6.93124 17.8358 6.1651C17.6251 5.95417 17.5067 5.66823 17.5067 5.3701C17.5067 5.07198 17.6251 4.78604 17.8358 4.5751ZM6.16576 4.5751C6.37643 4.78604 6.49477 5.07198 6.49477 5.3701C6.49477 5.66823 6.37643 5.95417 6.16576 6.1651C5.39926 6.93124 4.79123 7.84088 4.37638 8.84207C3.96154 9.84326 3.74802 10.9164 3.74802 12.0001C3.74802 13.0838 3.96154 14.1569 4.37638 15.1581C4.79123 16.1593 5.39926 17.069 6.16576 17.8351C6.27629 17.9381 6.36494 18.0623 6.42643 18.2003C6.48792 18.3383 6.52098 18.4873 6.52365 18.6383C6.52631 18.7894 6.49852 18.9394 6.44194 19.0795C6.38536 19.2196 6.30114 19.3468 6.19431 19.4537C6.08749 19.5605 5.96024 19.6447 5.82015 19.7013C5.68007 19.7579 5.53003 19.7857 5.37897 19.783C5.22792 19.7803 5.07895 19.7473 4.94095 19.6858C4.80295 19.6243 4.67875 19.5356 4.57576 19.4251C3.60063 18.4501 2.82711 17.2925 2.29937 16.0185C1.77163 14.7445 1.5 13.3791 1.5 12.0001C1.5 10.6211 1.77163 9.25567 2.29937 7.98168C2.82711 6.70769 3.60063 5.55013 4.57576 4.5751C4.7867 4.36443 5.07263 4.24609 5.37076 4.24609C5.66888 4.24609 5.95482 4.36443 6.16576 4.5751Z" fill="#0668E1" style="fill:#0668E1;fill:color(display-p3 0.0235 0.4078 0.8824);fill-opacity:1;"/>
</svg>
