<svg width="24" height="24" viewBox="0 0 24 24" fill="none" xmlns="http://www.w3.org/2000/svg">
<circle cx="12" cy="12" r="12" fill="#CED8F2" style="fill:#CED8F2;fill:color(display-p3 0.8078 0.8471 0.9490);fill-opacity:1;"/>
<mask id="mask0_20392_80592" style="mask-type:alpha" maskUnits="userSpaceOnUse" x="0" y="0" width="24" height="24">
<path d="M12 24C18.6274 24 24 18.6274 24 12C24 5.37258 18.6274 0 12 0C5.37258 0 0 5.37258 0 12C0 18.6274 5.37258 24 12 24Z" fill="#CED8F2" style="fill:#CED8F2;fill:color(display-p3 0.8078 0.8471 0.9490);fill-opacity:1;"/>
</mask>
<g mask="url(#mask0_20392_80592)">
<path d="M15.098 7.54497C15.4587 6.08175 14.9359 5.40031 14.4642 5.03748C14.2404 4.49888 13.985 4.11073 13.7239 3.96439C13.2478 3.6974 12.6771 3.66832 12.2779 3.69158C12.3807 3.58695 12.5829 3.54881 12.5829 3.54881C12.3354 3.51252 11.7829 3.75465 11.7829 3.75465C8.33999 2.44623 7.79888 7.44615 7.87126 8.60782C7.94297 9.76928 7.93352 11.1374 6.14222 12.0526C2.72449 13.7988 7.27806 20.3796 7.27806 20.3796C7.19114 19.4409 11.5825 14.4871 13.8735 13.0036C14.4313 12.1938 14.6295 10.7632 14.6443 10.6505C14.548 11.7849 14.3513 12.4211 14.1755 12.7794C15.2197 11.8316 15.3744 9.55538 15.098 7.54497Z" fill="#1B1C17" style="fill:#1B1C17;fill:color(display-p3 0.1059 0.1098 0.0902);fill-opacity:1;"/>
<path d="M13.7382 13.0779C13.7497 13.083 12.632 13.6554 11.7914 13.4287C11.0005 13.216 10.4838 12.2047 10.4947 12.2024C10.8296 12.1369 10.9262 11.6829 10.9191 9.73242L11.0705 9.76184L13.616 10.259C13.616 10.259 13.5581 11.0492 13.5564 11.7935C13.5546 12.4185 13.5932 13.0113 13.7382 13.0779Z" fill="#FFB27D" style="fill:#FFB27D;fill:color(display-p3 1.0000 0.6980 0.4902);fill-opacity:1;"/>
<path d="M13.6172 10.2589C13.6172 10.2589 13.5593 11.049 13.5575 11.7933C12.133 11.7538 11.3801 10.4721 11.0716 9.76172L13.6172 10.2589Z" fill="#ED975D" style="fill:#ED975D;fill:color(display-p3 0.9294 0.5922 0.3647);fill-opacity:1;"/>
<path d="M16.3392 22.3991C16.3185 26.2336 16.9095 27.8788 16.9095 27.8788C16.9095 27.8788 13.4114 29.6317 9.25386 28.3413C9.20494 28.3261 5.81147 27.5623 5.81147 27.5623C5.88103 27.407 6.49976 24.8228 6.56752 24.6804C7.44534 22.8213 8.11184 22.0061 8.21593 21.4345C8.40908 20.3674 8.4133 19.2632 8.31706 18.2219C8.06346 15.4653 7.30895 13.1768 7.30895 13.1768C8.44172 12.9226 9.50257 12.476 10.6816 12.0399C10.9529 12.373 11.7819 12.7214 12.5011 12.7055C13.3292 12.6875 13.5977 12.3378 13.5548 11.9561C14.4373 12.4404 15.1416 12.8979 15.1416 12.8979C15.8916 14.1829 17.4128 15.4309 17.523 17.4021C17.5502 17.8868 16.3398 22.2917 16.3392 22.3991Z" fill="white" style="fill:white;fill-opacity:1;"/>
<path d="M9.31164 22.826C8.95449 23.3246 8.26974 26.3547 6.56624 26.7356C7.44406 24.5759 8.11058 23.629 8.21467 22.9651C8.40782 21.7256 8.41204 20.443 8.3158 19.2334C8.88607 18.2477 9.31164 17.5717 9.31164 17.5717C9.35641 17.4123 10.2178 14.7852 10.4939 17.1335C10.7693 19.4824 9.7106 22.2683 9.31164 22.826Z" fill="#5F9AA8" style="fill:#5F9AA8;fill:color(display-p3 0.3725 0.6039 0.6588);fill-opacity:1;"/>
<path d="M14.0923 10.9625C14.0923 10.9625 10.7221 11.0174 10.7198 8.94677C10.7175 6.87614 10.2809 5.48874 12.4326 5.36619C14.5844 5.24364 15.0033 6.03329 15.1746 6.72418C15.3457 7.4152 14.9689 10.895 14.0923 10.9625Z" fill="#FFB27D" style="fill:#FFB27D;fill:color(display-p3 1.0000 0.6980 0.4902);fill-opacity:1;"/>
<path d="M13.9688 5.31538C13.9688 5.31538 13.046 7.74461 11.6299 8.1038C10.2137 8.463 9.59941 8.08873 9.59941 8.08873C9.59941 8.08873 10.6857 7.23767 10.9111 5.75191C10.9111 5.75191 13.2727 4.15919 13.9688 5.31538Z" fill="#1B1C17" style="fill:#1B1C17;fill:color(display-p3 0.1059 0.1098 0.0902);fill-opacity:1;"/>
<path d="M13.7389 5.51233C13.7389 5.51233 14.428 6.05468 14.596 6.58198C14.7641 7.10927 14.8396 8.19472 15.1603 8.15777C15.1603 8.15777 15.8555 6.50662 15.0743 5.57261C14.2458 4.58214 13.7389 5.51233 13.7389 5.51233Z" fill="#1B1C17" style="fill:#1B1C17;fill:color(display-p3 0.1059 0.1098 0.0902);fill-opacity:1;"/>
<path d="M15.1055 12.6152C15.1055 12.6152 16.9825 13.3499 17.5257 14.4952C18.0689 15.6404 18.8915 23.3228 19.2191 24.1117C19.5467 24.9007 19.793 25.5253 19.793 25.5253C19.793 25.5253 18.8466 26.3117 17.8949 26.3696C16.9432 26.4275 15.1055 12.6152 15.1055 12.6152Z" fill="#0374FF" style="fill:#0374FF;fill:color(display-p3 0.0106 0.4533 1.0000);fill-opacity:1;"/>
<path d="M13.5563 11.9561C13.5563 11.9561 15.5062 16.7072 15.5635 17.6687C15.6208 18.6303 15.7929 33.3924 15.7929 33.3924C15.7929 33.3924 15.6783 34.0712 16.9972 33.7883C18.3161 33.5055 18.6602 33.2227 18.6602 33.2227C18.6602 33.2227 17.3986 24.1165 17.7427 20.9492C18.0868 17.7818 15.1048 12.616 15.1048 12.616L13.5563 11.9561Z" fill="#0374FF" style="fill:#0374FF;fill:color(display-p3 0.0106 0.4533 1.0000);fill-opacity:1;"/>
<path d="M10.5174 33.1094C10.5174 33.1094 10.0203 34.8814 8.29986 34.6551C6.57947 34.4289 4.13313 33.4108 4.13313 33.4108C4.13313 33.4108 4.86833 31.1196 5.78234 28.1095C6.88917 24.4653 8.25912 19.7674 8.90485 16.8043C9.08601 15.9739 9.20993 15.2805 9.25577 14.784L10.6831 12.0527C10.6831 12.0527 12.8112 16.7637 12.9259 17.9514C13.0406 19.1391 10.5174 33.1094 10.5174 33.1094Z" fill="#0374FF" style="fill:#0374FF;fill:color(display-p3 0.0106 0.4533 1.0000);fill-opacity:1;"/>
<path d="M8.79967 17.7734L10.6835 12.0518C10.6784 12.0541 8.30427 12.7485 7.11005 13.3436C7.11005 13.3436 6.36358 14.2927 5.90175 16.4825C5.90175 16.4825 5.41378 21.7399 6.50332 23.6629C6.50332 23.6629 9.9441 24.3417 15.4492 22.4752V21.2309C15.4492 21.2309 9.42792 21.5419 8.19502 21.6833L8.79967 17.7734Z" fill="#FFB27D" style="fill:#FFB27D;fill:color(display-p3 1.0000 0.6980 0.4902);fill-opacity:1;"/>
<path d="M10.4399 20.4394C10.3631 22.3624 9.90425 26.0953 5.81378 28.0936C5.80293 28.0987 5.79207 28.1044 5.78114 28.1089C6.88797 24.4647 8.25792 19.7668 8.90365 16.8037C9.65481 17.9111 10.4817 19.3806 10.4399 20.4394Z" fill="#0668E1" style="fill:#0668E1;fill:color(display-p3 0.0235 0.4078 0.8824);fill-opacity:1;"/>
<path d="M10.681 12.0518C10.681 12.0518 7.18897 12.2944 6.34787 14.142C5.50685 15.9896 5.23916 22.1359 6.30967 23.9457C6.30967 23.9457 7.78343 24.3597 10.39 23.879C10.422 23.8731 10.4541 23.867 10.4864 23.8609C10.4864 23.8609 11.3179 21.853 10.5724 21.4571C10.5724 21.4571 8.37414 21.5702 8.60355 20.8538C8.83282 20.1374 10.681 12.0518 10.681 12.0518Z" fill="#0374FF" style="fill:#0374FF;fill:color(display-p3 0.0106 0.4533 1.0000);fill-opacity:1;"/>
<path d="M19.4375 22.0012L19.3346 22.3273L13.6047 20.5692C13.6047 20.5692 13.5282 20.4833 13.5659 20.3693C13.6076 20.2434 13.7075 20.2432 13.7075 20.2432L19.4375 22.0012Z" fill="#263238" style="fill:#263238;fill:color(display-p3 0.1490 0.1961 0.2196);fill-opacity:1;"/>
<path d="M19.8516 22.3091L19.4372 22.001L19.3343 22.327L19.8516 22.3091Z" fill="#263238" style="fill:#263238;fill:color(display-p3 0.1490 0.1961 0.2196);fill-opacity:1;"/>
<path d="M15.4483 21.2307C15.4483 21.2307 16.7482 20.4411 17.2936 20.5625C17.839 20.684 19.2287 21.6768 18.5602 21.8917C17.8917 22.1067 17.3503 21.8812 17.0932 22.0373C16.8362 22.1934 16.6464 22.4788 15.4483 22.4749C14.2503 22.471 15.4483 21.2307 15.4483 21.2307Z" fill="#FFB27D" style="fill:#FFB27D;fill:color(display-p3 1.0000 0.6980 0.4902);fill-opacity:1;"/>
</g>
</svg>
