<svg xmlns="http://www.w3.org/2000/svg" width="228" height="228" fill="none" xmlns:v="https://vecta.io/nano"><g clip-path="url(#A)"><rect width="228" height="228" rx="12" fill="#eaf0ff"/><path fill-rule="evenodd" d="M124.563 198.238h12.077L113.998 223l-22.642-24.762h12.076l1.509-13.333h18.114l1.508 13.333zm17.826-29.575l21.42.052-3.02-2.858 33.208 6.667-22.642 5.714-3.018-2.857-22.674.07 4.56 9.453H77.771l4.56-9.453-22.67-.07-3.019 2.857L34 172.524l33.207-6.667-3.018 2.858 21.416-.052L88.337 163h51.32l2.732 5.663z" fill="#fff"/><g fill="#0668e1"><path d="M124.563 198.238l-.496.057.05.443h.446v-.5zm12.077 0l.369.338.765-.838h-1.134v.5zM113.998 223l-.369.337.369.404.369-.404-.369-.337zm-22.642-24.762v-.5h-1.135l.766.838.369-.338zm12.076 0v.5h.446l.05-.443-.496-.057zm1.509-13.333v-.5h-.446l-.05.444.496.056zm18.114 0l.497-.056-.051-.444h-.446v.5zm19.334-16.242l-.451.217.136.282.313.001.002-.5zm21.42.052l-.002.5 1.261.003-.916-.866-.343.363zm-3.02-2.858l.098-.49-1.705-.342 1.263 1.196.344-.364zm33.208 6.667l.122.485-.024-.975-.098.49zm-22.642 5.714l-.343.363.199.189.267-.067-.123-.485zm-3.018-2.857l.344-.363-.146-.138-.2.001.002.5zm-22.674.07l-.001-.5-.794.003.345.714.45-.217zm4.56 9.453v.5h.796l-.346-.717-.45.217zm-72.453 0l-.45-.217-.346.717h.796v-.5zm4.56-9.453l.45.217.345-.714-.794-.003-.001.5zm-22.67-.07l.002-.5-.2-.001-.145.138.344.363zm-3.019 2.857l-.122.485.266.067.2-.189-.344-.363zM34 172.524l-.098-.49-.024.975.122-.485zm33.207-6.667l.344.364 1.263-1.196-1.705.342.098.49zm-3.018 2.858l-.344-.363-.915.866 1.26-.003-.001-.5zm21.416-.052l.001.5.313-.001.136-.282-.45-.217zM88.337 163v-.5h-.314l-.136.283.45.217zm51.32 0l.451-.217-.137-.283h-.314v.5zm-15.094 35.238v.5h12.077v-.5-.5h-12.077v.5zm12.077 0l-.369-.337-22.642 24.762.369.337.369.337 22.642-24.761-.369-.338zM113.998 223l.369-.337-22.642-24.762-.369.337-.369.338 22.642 24.761.369-.337zm-22.642-24.762v.5h12.076v-.5-.5H91.356v.5zm12.076 0l.496.057 1.51-13.333-.497-.057-.496-.056-1.51 13.333.497.056zm1.509-13.333v.5h18.114v-.5-.5h-18.114v.5zm18.114 0l-.497.056 1.509 13.334.496-.057.497-.056-1.508-13.333-.497.056zm19.334-16.242l-.002.5 21.42.052.002-.5.001-.5-21.42-.052-.001.5zm21.42.052l.343-.363-3.019-2.858-.344.363-.344.364 3.02 2.857.344-.363zm-3.02-2.858l-.098.491 33.208 6.667.098-.491.098-.49-33.208-6.667-.098.49zm33.208 6.667l-.122-.484-22.642 5.713.122.485.123.485 22.641-5.714-.122-.485zm-22.642 5.714l.344-.363-3.018-2.857-.344.363-.344.363 3.019 2.857.343-.363zm-3.018-2.857l-.002-.5-22.673.07.001.5.002.5 22.673-.07-.001-.5zm-22.674.07l-.45.217 4.559 9.454.451-.218.45-.217-4.56-9.453-.45.217zm4.56 9.453v-.5H77.771v.5.5h72.453v-.5zm-72.453 0l.45.218 4.56-9.454-.45-.217-.45-.217-4.559 9.453.45.217zm4.56-9.453l.001-.5-22.67-.07-.002.5-.002.5 22.67.07.002-.5zm-22.67-.07l-.344-.363-3.019 2.857.344.363.344.363 3.019-2.857-.344-.363zm-3.019 2.857l.122-.485-22.642-5.713-.122.484-.122.485 22.642 5.714.122-.485zM34 172.524l.098.491 33.207-6.667-.099-.491-.098-.49-33.207 6.667.098.49zm33.207-6.667l-.344-.363-3.019 2.858.344.363.344.363 3.019-2.857-.344-.364zm-3.018 2.858l.001.5 21.416-.052-.001-.5-.001-.5-21.416.052.001.5zm21.416-.052l.45.217 2.732-5.663-.45-.217-.45-.217-2.732 5.663.45.217zM88.337 163v.5h51.32v-.5-.5h-51.32v.5zm51.32 0l-.45.217 2.731 5.663.451-.217.45-.217-2.731-5.663-.451.217z"/><path opacity=".4" d="M136 166H92l-7 15h57l-6-15z"/></g><path d="M112.248 170.899c0-1.474-1.488-3.508-.815-11.088.084-.922-6.974-1.224-6.974-1.224.315 3.723 1.922 6.033-1.785 10.513-.811.975-4.429 3.181-5.25 3.974-.579.567-.436 3.071 3.05 3.026 3.722-.052 7.837-1.06 8.949-3.085.094-.172.372-.099.372-.099s2.453.528 2.453-2.017z" fill="#282a35"/><path d="M112.261 170.9s-1.552.017-3.762 1.664c-2.469 1.838-4.724 2.227-6.593 2.262-3.253.062-4.47-1.751-4.47-1.751-.957.646-1.199 2.334-.056 3.128 1.784 1.241 4.657.76 6.758.321 3.052-.636 3.923-1.964 5.45-2.811 1.01-.562 2.013-.473 2.072-.505.843-.45.728-1.741.6-2.308z" fill="#000"/><path d="M123.676 168.819c.576 2.547.359 3.817.359 4.949s.657 1.272 1.819 1.839c0 0 .106.743 1.307 1.912 1.853 1.802 9.701 2.081 9.701-.746s-1.563-3.498-3.596-5.197-1.745-4.526-4.072-2.827-5.518.07-5.518.07z" fill="#282a35"/><g fill="#000"><path d="M125.862 175.607c1.307 1.061 4.139 1.485 6.104 1.485s4.036-.354 4.688-1.839c0 0 .53 1.721.036 2.3-.546.634-2.106 1.448-4.143 1.448s-5.231-.779-6.033-1.977c-.799-1.204-.652-1.417-.652-1.417z"/><path d="M126.515 167.829c-.075 1.554-.367 3.04.942 4.595s4.723 3.483 4.723 5.251-5.744-.869-6.034-1.361.147-.353-.868-.918c-1.021-.569-1.095-.215-1.095-2.616s-.795-4.102-.286-4.598 2.618-.353 2.618-.353z"/></g><path d="M96.496 89.962c-.004.693.296 5.908.303 6.557.064 7.095.361 9.853.432 11.714.076 2.042 2.356 25.326 4.044 30.371 1.686 5.039 3.028 22.988 2.088 24.554s-.688 5.944-.688 5.944 10.172.196 10.5 2.224c0 0 .943-1.297.764-5.763-.324-8.167.945-16.337-1.962-28.076-.736-2.974 2.077-29.774 1.962-32.829-.081-2.278 3.518 32.416 5.778 39.479l2.798 20.86c.517 5.951.219 7.443.219 7.443s6.677-3.626 10.246-1.716c.049-2.038-.578-2.098-1.163-5.762-.385-2.386-.832-10.597-1.563-15.099-.67-4.11.709-17.796.709-17.796s1.691-16.879.854-26.031c-.844-9.15.238-16.245-.854-18.043s-34.467 1.969-34.467 1.969z" fill="#2a4fc6"/><g fill="#102b8c"><path d="M98.575 109.269c.761 10.427 4.34 27.144 5.63 31.684 1.293 4.548 2.491 5.509 3.273 8.133 3.195 10.748.329 13.825.36 14.776s5.309 1.747 4.215 2.547c-1.098.805-5.545-1.137-5.525-.565s5.96 2.831 5.96 2.831-9.132-.46-9.52-.637c-.377-.173-.322-2.34-.143-4.384s.226-16.161-1.456-21.075-4.764-38.635-4.322-41.902 1.528 8.592 1.528 8.592zm15.445-4.748c3.05 5.515 3.234 13.688 4.395 21.486 2.296 5.835 2.293 15.23 4.36 17.846 1.45 1.837 3.049 7.211 3.049 14.001s-.541 9.052 1.929 8.771 3.531 1.553 2.688 1.342c-2.257-.567-3.936-.09-3.416.425.29.281 4.867.07 5.013.778s-6.322.637-8.645 3.323c-1.274 1.472-2.472-4.1-2.038-4.95s-.394-6.783-.762-8.731c-1.307-6.897-1.307-11.601-2.178-13.579s-2.548-25.201-2.983-28.454-1.412-12.258-1.412-12.258z"/></g><path opacity=".1" d="M117.38 100.109c-.641.014-1.285-.08-1.921-.137l-1.175-.096.13 2.846.036 1.873h-.539c-.057-.623-.043-1.259-.054-1.873l-.014-2.876-.316-.022-3.871-.052c-.215.008-.212-.308 0-.322l3.941-.066c1.246.055 2.625.096 3.817.488.133.044.11.237-.034.239z" fill="#fff"/><path d="M132.07 76.472v.019l.008.851.252 23.51s-2.961 2.661-16.367 2.887-19.406-2.126-19.406-2.126l-.396-20.87-.008-.463-.003-.091s-3.139-2.642-4.56-6.669c-1.305-3.7-1.404-7.864-1.559-12.272s.079-11.55 5.611-15.123 12.861-4.407 12.861-4.407c.497-.201 4.95.091 9.473.807-.989-.793-1.834-1.262-1.834-1.262s9.196-.077 14.652 2.278 7.95 6.917 7.015 15.503c-.859 7.887-2.775 13.652-5.738 17.426z" fill="#5188ff"/><path d="M108.12 14.933s-2.845 2.204-3.663 4.56-.818 3.875-.507 5.167 6.976-7.219 7.054-8.397-2.884-1.33-2.884-1.33z" fill="#282828"/><g fill="#ffb1a5"><path d="M118.013 31.575s-.526 4.047-.234 6.896 1.812 5.699 1.812 5.699-2.046 3.819-7.833 3.704-6.196-2.679-6.196-2.679l.76-10.715 11.691-2.907z"/><path d="M109.012 16.302s-2.689 1.482-3.858 3.875-2.455 8.036-2.513 10.886.526 5.357 2.981 6.839 6.546 1.425 8.651.228 6.196-9.062 6.897-12.025 1.345-5.642-1.344-7.922-9.06-3.42-10.814-1.881z"/><path d="M119.303 53.375c0 .085-7.775 3.534-8.185 1.796s-.847-6.697-.847-6.697-.588-.129-1.28-.881l-.003-.003c-.161-.182-.331-.397-.5-.656-.876-1.339-1.695-3.845-1.695-3.845s-.531-.231-1.023-.554c-.424-.275-.817-.614-.817-.928 0-.556.385-.997.529-1.143l.053-.052s-.05-.05-.11-.182c-.045-.11-.096-.284-.121-.532-.06-.543.525-1.113.525-1.113s0-.008-.003-.022c-.005-.044-.016-.146-.008-.284l.003-.074c.025-.306.133-.752.506-1.129.641-.656 1.898-.485 1.898-.485l-4.063-2.534c-.584-.43-1.022-1.226-.35-1.512.226-.096.582-.069 1.057.061.257.072.537.165.85.289l.043.017c.853.339 1.921.862 3.164 1.515 2.602 1.369 4.209 3.363 4.209 3.363l1.492-1.994c.613-.713 1.87-1.311 2.221-.741s-.947 2.383-1.441 3.837-1.015 3.515-.458 6.25c.13.636.432 1.416.825 2.242 1.291 2.722 3.529 5.925 3.529 5.991z"/></g><g fill="#282828"><path d="M105.989 22.424a5.91 5.91 0 0 0 1.949.164c.338-.028.681-.068 1.013-.136.306-.063.79-.158.783-.55-.008-.415-.542-.36-.82-.299l-.957.181-1.903.177c-.263.017-.34.393-.065.463zm7.165.133a6.98 6.98 0 0 1 .559.645c-.024-.03.019.026.021.029l.058.079.126.183.229.355.199.359.037.076c-.021-.046.019.046.023.054l.069.193c.045.139.075.279.105.422a1.38 1.38 0 0 0 .082.258.59.59 0 0 0 .091.154l.053.066c.021.023.017.021-.013-.004.08.148.272.227.435.203.184-.027.297-.14.364-.305-.032.077.045-.083.04-.072a.7.7 0 0 0 .045-.129.85.85 0 0 0 .008-.318c-.023-.194-.073-.38-.14-.563-.117-.319-.266-.648-.477-.92-.205-.264-.424-.493-.691-.698-.14-.107-.282-.223-.44-.303l-.43-.211c-.288-.138-.595.206-.353.446zm6.459-1.733s-4.755.988-8.69-.266-4.443-5.737-4.638-7.485.546-3.04 1.442-2.546 1.13 2.166 2.065 1.672 1.285.588 3.662 1.348 3.43-.056 3.82.172 3.384.654 4.988 1.672c1.987 2.394.78 4.673.857 4.787s3.507.608 3.429 3.571-3.779 6.003-5.221 6.801-2.884 1.026-2.884 1.026-.935-2.166-.702-5.053 1.872-5.699 1.872-5.699z"/><path d="M119.912 14.679c1.52.394 2.171.62 2.859 1.093.575.394 1.933 1.686 1.938 2.756.014 1.885-4.07 3.538-7.727 3.52-.694-.005-2.042-.292-3.975-.852-4.256-1.236-8.981-3.608-7.87-8.535 0 0 .603 1.019 1.363 1.181 0 0-1.002-3.205 2.945-4.84-.214.088 1.377 1.894 1.482 1.982 1.534 1.301 3.02 2.191 4.445 2.668 1.368.458 1.358.204 4.54 1.028z"/></g><path d="M117.665 30.151s1.929-1.482 3.39-.912 1.286 3.249-.994 3.819-3.682-.399-3.682-.399l1.286-2.508z" fill="#ffb1a5"/><path d="M109.677 52.967s2.105 0 4.365-.988 3.819-2.052 3.819-2.052l4.13 5.623s-1.87 2.888-6.468 3.876-6.703.532-6.703.532l.857-6.991z" fill="#5188ff"/><g fill="#fff"><path d="M132.078 77.343c-.605.702-1.393 1.292-2.139 1.774a7.45 7.45 0 0 1-3.967 1.212c-1.393.025-2.675-.311-3.924-.89-.819-.377-1.571-.926-2.266-1.523-.353.314-.771.565-1.172.813l-1.455.826a24.72 24.72 0 0 1-2.975 1.3c-3.707 1.344-7.631 1.81-11.566 1.612-1.947-.099-3.874-.35-5.614-1.253-.28-.146-.559-.3-.839-.468l-.008-.463c.559.361 1.15.669 1.732.92 1.794.771 3.84.848 5.769.906 1.873.052 3.749-.069 5.594-.386 1.87-.32 3.71-.824 5.467-1.532a22.82 22.82 0 0 0 2.562-1.218 20.72 20.72 0 0 0 1.289-.766c.296-.193.582-.405.881-.587l-.647-.614c-1.924-1.895-3.393-4.19-4.515-6.611a35.94 35.94 0 0 1-1.121-2.716c-.37.129-.803.146-1.187.207l-1.308.229c-.87.165-1.737.344-2.596.545-1.746.413-3.489.818-5.184 1.399-.122.041-.17-.141-.051-.187l2.78-1.005c-.512-1.295-.904-2.636-1.328-3.961l-1.269-4.069c-.401-1.281-.785-2.567-1.246-3.829a32.71 32.71 0 0 0-1.652-3.713c-.071-.14.118-.242.212-.121.813 1.055 1.322 2.25 1.765 3.49.469 1.297.871 2.62 1.294 3.931l1.359 4.184c.421 1.319.873 2.633 1.204 3.978a28.73 28.73 0 0 1 2.042-.592c.882-.218 1.766-.413 2.659-.576l1.376-.229c.313-.047.644-.124.966-.124-.605-1.691-1.107-3.421-1.548-5.157-.743-2.912-1.26-5.892-1.156-8.903.009-.212.336-.212.339 0 .017 3.259.619 6.476 1.478 9.614 1.398 5.099 3.277 10.388 7.258 14.145.943.89 2.028 1.774 3.209 2.344 1.26.609 2.741.837 4.128.598 2.215-.38 3.958-1.749 5.362-3.385l.009.851zm-7.343-15.375l.878 1.679c.291.585.543 1.183.928 1.718.14.194.443.077.393-.162-.222-1.075-.844-2.095-1.355-3.062l-1.69-2.967-3.853-5.678-2.382-3.049c-.102-.124-.309.036-.224.168 2.438 3.784 5.143 7.404 7.305 11.353zm-.642-2.972c.194-.256.314-.604.447-.896.14-.311.238-.643.368-.959a21.25 21.25 0 0 1 .926-1.954l2.124-3.69c.144-.254-.229-.459-.395-.225-.857 1.212-1.654 2.469-2.333 3.786l-.883 1.932c-.123.313-.269.64-.333.97-.061.315-.149.694-.103 1.013.013.093.138.081.182.023zm-12.748-4.35a13.32 13.32 0 0 0 3.344-.605c.517-.164 1.023-.36 1.514-.585l.792-.408c.207-.118.426-.211.512-.439.031-.082-.048-.154-.124-.16-.243-.018-.443.158-.645.271l-.647.345a12.18 12.18 0 0 1-1.546.66 12.67 12.67 0 0 1-3.199.656c-.173.013-.177.274-.001.265z"/></g><g fill="#27283b"><path d="M107.382 24.862c-.067-.237-.206-.453-.433-.589-.533-.318-1.111-.057-1.376.409-.308.544-.416 1.436.261 1.827.206.119.449.169.679.116.24-.056.435-.216.579-.397.292-.369.42-.905.29-1.367zm6.195 1.177c-.067-.237-.206-.453-.433-.589-.533-.318-1.111-.057-1.375.41-.309.544-.416 1.436.261 1.827a.94.94 0 0 0 .678.116c.24-.056.435-.216.579-.397.292-.369.421-.905.29-1.367z"/></g><g fill="#282828"><path d="M109.945 23.569c-.313.473-.353 1.138-.531 1.666l-.63 1.73c-.115.289-.207.624-.366.893-.181.306-.612.303-.937.315-.563.021-1.206-.173-1.751.002-.356.114-.67.432-.633.819.042.442.508.731.849.956.454.299.903.536 1.426.702.396.126 1.08.389 1.442.107.095-.074.068-.219 0-.297-.162-.182-.366-.162-.599-.199a5.93 5.93 0 0 1-.691-.15c-.478-.135-.975-.322-1.399-.576-.197-.118-.54-.284-.604-.526-.101-.385.411-.503.687-.512.256-.008.511.038.767.037.275 0 .548-.029.821-.064.384-.05.723-.087.912-.448.222-.422.372-.896.54-1.34l.527-1.488c.173-.485.475-1.027.46-1.551-.005-.153-.207-.203-.29-.077zm-3.149 9.134c.346.128.71.126 1.075.152l1.059.088 1.057.114.427.063.182.038c.019.003.255.016.186 0 .166.037.355-.148.24-.305s-.175-.27-.372-.339c-.139-.049-.288-.068-.433-.087l-1.13-.099-1.137-.064c-.388-.017-.777-.053-1.154.058-.201.06-.181.313 0 .38z"/></g><g fill="#ed9684"><use href="#B"/><use href="#C"/><use href="#D"/><use href="#E"/></g><g fill="#f3978e"><use href="#B"/><use href="#C"/><use href="#D"/><use href="#E"/></g></g><defs><clipPath id="A"><rect width="228" height="228" rx="12" fill="#fff"/></clipPath><path id="B" d="M116.565 37.214c.278-.499.613-1.14.598-1.722-.014-.53-.52-.725-.997-.676-.699.072-1.321.516-1.774 1.01-.448.489-.891 1.052-1.204 1.645-.107-.153-.262-.283-.396-.407l-.742-.632-1.846-1.357c-1.351-.917-2.766-1.751-4.285-2.378-.574-.237-1.445-.587-2.071-.302-.158.032-.312.157-.394.277-.149.215-.16.468-.062.705.117.281.35.49.575.69l.732.63c.494.415 1.062.755 1.601 1.109l.801.524.149.097c-.396.084-.768.264-1.054.553-.161.163-.291.354-.378.564-.046.112-.084.233-.096.354-.015.144.03.158.058.282.008.039.074.04.081 0 .014-.078.069-.154.086-.237.02-.1.047-.197.088-.292.088-.205.223-.389.389-.541.385-.352.917-.483 1.434-.467.497.016 1.004.156 1.417.428a5.3 5.3 0 0 1 .563.427c.17.147.319.356.519.462.134.071.315-.047.267-.199-.079-.249-.329-.451-.533-.609-.216-.167-.459-.305-.713-.408-.481-.196-.979-.356-1.5-.372-.098-.11-.258-.196-.36-.27l-.664-.453-1.382-.874c-.462-.303-.934-.595-1.348-.96-.196-.173-.472-.389-.495-.666-.011-.145.056-.273.165-.369.088-.078.204-.091.286-.173.327-.044.629-.058.987.053.304.094.6.214.891.343.663.294 1.278.657 1.904 1.019 1.337.773 2.637 1.628 3.839 2.592l.776.673c.185.175.346.386.557.531.034.024.068.03.099.027.033.009.07-.001.094-.041.353-.585.68-1.15 1.133-1.673s1.012-1.105 1.759-1.125c.252-.007.521.023.634.263.077.164.044.313-.001.481-.094.345-.262.668-.435.98l-.826 1.483c-.763 1.607-1.074 3.39-.921 5.154a12.13 12.13 0 0 0 .325 1.91c.173.685.381 1.46.763 2.064.063.099.217.034.191-.079-.085-.361-.245-.707-.354-1.063l-.301-1.065a11.19 11.19 0 0 1-.302-1.975c-.066-1.083.047-2.16.357-3.203.294-.992.813-1.839 1.316-2.74z"/><path id="C" d="M107.724 46.317l.037.06c.147.24.278.477.465.692a2.49 2.49 0 0 0 .6.519l.147.078c.018-.039.022-.083-.002-.122-.127-.206-.318-.363-.452-.566-.137-.208-.243-.431-.348-.656l-.683-1.597-.281-.74-.299-.785c-.091-.186-.284-.236-.463-.32-.234-.11-.481-.312-.736-.358-.016-.003-.031-.001-.045.005.06-.023.264.221.303.259.104.102.223.187.342.272.085.061.175.119.247.195.221.231.279.637.372.93l.375 1.088.421 1.047z"/><path id="D" d="M108.259 41.001c-.158 0-.271-.102-.401-.176s-.26-.14-.398-.198c-.268-.113-.559-.187-.85-.231a2.62 2.62 0 0 0-1.128.069l.054-.052s-.051-.05-.11-.182c.37-.157.788-.223 1.175-.201.353.022.689.113 1.014.245a4.37 4.37 0 0 1 .447.215c.147.083.291.154.353.314.037.096-.059.198-.156.198z"/><path id="E" d="M109.201 39.152c0 .088-.068.143-.152.151-.187.017-.314-.151-.45-.259a3.57 3.57 0 0 0-.463-.328 2.72 2.72 0 0 0-1.071-.342c-.361-.036-.726.006-1.068.121a1.58 1.58 0 0 0-.169.066 1.49 1.49 0 0 1-.009-.284l.077-.028a2.81 2.81 0 0 1 1.169-.151 3.73 3.73 0 0 1 1.207.322c.2.091.401.184.579.309.152.105.356.22.35.422z"/></defs></svg>