<svg width="60" height="60" viewBox="0 0 60 60" fill="none" xmlns="http://www.w3.org/2000/svg">
<rect width="60" height="60" rx="12" fill="#E6F0FC" style="fill:#E6F0FC;fill:color(display-p3 0.9020 0.9412 0.9882);fill-opacity:1;"/>
<path d="M39.9703 21.1648C39.9551 21.3167 39.9461 21.4899 39.9422 21.6778L37.7856 22.7077C37.4835 22.6582 35.9856 22.7454 33.7513 21.6429C33.1849 21.3634 32.6314 21.2149 32.0998 21.2149C31.6188 21.2153 31.1447 21.33 30.7166 21.5496C30.1524 21.4275 29.3396 21.1147 28.8643 21.1159C27.7888 21.1215 25.3436 21.9973 24.6664 22.0721C24.0037 22.1447 23.3214 22.3269 22.6346 22.6172C21.3864 22.2538 19.8216 21.6604 18.9834 21.3324L13.125 17.0625V30.7931L17.4304 32.8417C17.4928 32.7686 17.5642 32.6561 17.6419 32.5166L17.7752 32.5785C17.8404 32.7472 17.9124 32.9152 17.9912 33.0825C17.5187 33.8779 17.4624 34.7739 17.8399 35.553C18.1633 36.2196 18.7657 36.6876 19.4368 36.8186C19.4734 37.2338 19.6129 37.6354 19.848 37.9836C20.2699 38.6063 20.9404 38.9781 21.6429 38.9781C21.7067 38.9781 21.7701 38.9747 21.8331 38.9679C21.9332 39.2385 22.08 39.4905 22.2707 39.7087C22.6948 40.1964 23.2888 40.476 23.8997 40.476C23.9447 40.476 23.9891 40.4745 24.033 40.4715C24.1106 40.7663 24.2428 41.0452 24.4273 41.2939C24.852 41.8676 25.5073 42.2091 26.1812 42.2091C26.5997 42.2091 26.9996 42.0808 27.3523 41.8406C28.0341 42.2782 28.6269 42.5859 29.1529 42.7749C29.4167 42.8824 29.6912 42.9375 29.9713 42.9375C30.6339 42.9375 31.2769 42.6281 31.7359 42.087C31.9063 41.8856 32.0447 41.6606 32.1459 41.4199C32.3443 41.4797 32.5502 41.5104 32.7574 41.511C33.4616 41.511 34.1293 41.1662 34.5911 40.5632C34.8107 40.2775 34.9696 39.95 35.058 39.6007C35.1064 39.6041 35.1544 39.6058 35.202 39.6058C36.0159 39.6058 36.795 39.1283 37.2332 38.3593C37.4628 37.9593 37.5847 37.5065 37.587 37.0453C38.3914 36.9255 39.0996 36.3534 39.4444 35.5193C39.7841 34.6974 39.6919 33.7907 39.2177 33.0347L41.4086 31.8C41.4649 31.9924 41.52 32.1696 41.5734 32.3136L46.875 29.4926V17.9861L39.9703 21.1648ZM39.9697 22.8731C40.0046 23.4818 40.0682 24.1697 40.1503 24.888C39.7003 24.132 39.1322 23.7872 38.4268 23.6156L39.9697 22.8731ZM37.029 36.2359C35.8207 35.8202 33.3058 32.8637 33.3058 32.8637H33.3553C33.6112 32.8457 34.1642 32.5762 34.7846 32.7051C33.8104 31.8681 32.7388 32.5762 32.0092 32.1426C32.1786 32.6854 32.9925 32.8564 33.2012 32.8631L35.6109 35.6655C36.7022 36.9339 35.9422 38.5033 34.8482 38.7531C34.1141 38.3959 32.0413 35.9304 32.0413 35.9304C32.1122 35.9175 32.5324 35.7859 32.9604 35.8421C31.9721 35.103 30.8516 35.7443 30.1868 35.2802C30.5636 36.2111 31.8051 35.9726 31.935 35.9501L33.2242 37.596C34.2559 38.9123 33.4453 40.4327 32.3496 40.6386C31.3781 40.2971 30.7476 39.0821 30.7476 39.0821C30.8454 39.0664 31.1728 38.9207 31.6386 38.9882C30.81 38.262 29.8453 38.9207 29.2654 38.5072C29.6237 39.288 30.5169 39.1103 30.567 39.1046C31.4602 40.5114 30.5338 41.9784 29.4268 42.0223H29.4257L29.4246 42.0229C28.7597 41.9076 28.0633 41.376 27.2769 40.8304C27.5469 40.5311 27.7854 40.0052 27.7854 40.0052C28.5752 38.5753 27.5503 37.3108 26.4923 37.4194C27.3506 37.6539 27.9941 38.7497 27.3242 39.9664L27.03 40.4614C26.7105 41.0436 26.2116 41.3951 25.8448 41.3518C25.2801 41.2832 24.4841 40.4586 24.8188 39.2953C24.9482 39.1772 26.1958 37.2686 26.1958 37.2686C27.0536 35.8871 26.0906 34.5647 25.0297 34.6097C25.8746 34.8949 26.4669 36.0278 25.7385 37.2034L24.7243 38.7846C24.3784 39.3437 23.9306 39.6604 23.5037 39.6019C22.8411 39.5119 22.3764 38.7036 22.4827 37.8694C22.4771 37.8744 23.2129 37.0515 23.2129 37.0515C24.1905 35.7741 23.3535 34.3476 22.2943 34.2728C23.1083 34.6519 23.5931 35.8466 22.7623 36.9339L22.4034 37.3738C22.0097 37.8902 21.5355 38.1529 21.1204 38.0494C20.3959 37.8677 20.019 36.5121 20.3616 36.1425C20.631 35.8517 21.3876 34.9309 21.3876 34.9309C22.3646 33.6529 21.5288 32.2269 20.4684 32.151C21.2829 32.5313 21.7678 33.726 20.937 34.8139L20.5781 35.2526C20.1821 35.7735 19.7062 36.0351 19.2883 35.9288C18.4176 35.7083 17.9827 34.3639 18.8158 33.2726C18.8158 33.2726 18.5329 32.3737 18.4052 31.9896L17.9856 31.7949C18.9694 29.5028 20.4555 24.4436 20.5241 22.7629C21.2486 23.0211 23.1611 23.5712 23.3642 23.5723L23.3631 23.5734C25.4218 22.9266 27.5796 22.998 28.5639 22.6177C28.8829 22.4962 29.5174 22.4884 30.1901 22.8731C29.7699 23.2416 29.3728 23.6803 28.9605 24.0893C27.975 25.0674 24.3109 26.5929 25.0174 28.1972C25.6271 29.5815 27.3444 30.9979 30.225 28.7743L31.845 28.5516L34.3644 29.7947L37.5932 33.1106C38.7446 34.2907 38.0927 35.8927 37.029 36.2359ZM37.839 32.5824C37.4689 31.8906 36.3152 30.756 35.2262 29.8284L35.2194 29.8217C35.7218 29.8419 36.2488 29.0331 36.93 28.9706C36.4541 28.6073 35.6655 29.0269 35.4197 29.0933C34.0646 29.4578 31.9586 27.7528 31.9586 27.7528L29.9438 28.0431C29.9438 28.0431 27.5475 30.9675 25.5287 28.5583C24.4324 27.2499 28.4053 25.5411 29.3841 24.5685C30.6379 23.3226 31.755 21.7982 33.8177 22.8366C35.5311 23.7006 36.2061 23.6471 38.5044 24.0471C39.1896 24.1669 39.6643 24.4808 40.1734 25.0933C40.413 27.1093 40.8006 29.3453 41.1724 30.9011C40.9806 31.0626 39.3364 32.1684 37.839 32.5824Z" fill="#0668E1" style="fill:#0668E1;fill:color(display-p3 0.0235 0.4078 0.8824);fill-opacity:1;"/>
</svg>
