<svg width="60" height="60" viewBox="0 0 60 60" fill="none" xmlns="http://www.w3.org/2000/svg">
<rect width="60" height="60" rx="12" fill="#E6F0FC" style="fill:#E6F0FC;fill:color(display-p3 0.9020 0.9412 0.9882);fill-opacity:1;"/>
<path d="M29.1426 18.373C29.531 17.7257 30.469 17.7257 30.8574 18.373L45.3252 42.4854C45.7251 43.1518 45.245 43.9999 44.4678 44H15.5322C14.755 43.9999 14.2749 43.1518 14.6748 42.4854L29.1426 18.373Z" fill="#ACCDF5" stroke="#0668E1" style="fill:#ACCDF5;fill:color(display-p3 0.6745 0.8039 0.9608);fill-opacity:1;stroke:#0668E1;stroke:color(display-p3 0.0235 0.4078 0.8824);stroke-opacity:1;" stroke-width="2"/>
<path d="M29.999 33C32.0396 33 33.8219 34.1956 34.7826 35.9752C35.0989 36.5611 35.6722 37 36.338 37H37C37.5523 37 38 37.4477 38 38C38 38.5523 37.5523 39 37 39H23C22.4477 39 22 38.5523 22 38C22 37.4477 22.4477 37 23 37H23.661C24.3268 37 24.9002 36.5611 25.2164 35.9752C26.1769 34.1957 27.9587 33.0001 29.999 33Z" fill="#0668E1" style="fill:#0668E1;fill:color(display-p3 0.0235 0.4078 0.8824);fill-opacity:1;"/>
</svg>
