<svg width="60" height="60" viewBox="0 0 60 60" fill="none" xmlns="http://www.w3.org/2000/svg">
<rect width="60" height="60" rx="12" fill="#E6F0FC" style="fill:#E6F0FC;fill:color(display-p3 0.9020 0.9412 0.9882);fill-opacity:1;"/>
<path d="M30 15C31.344 15 32.646 15.177 33.885 15.5085L30.696 18.696C30.4541 18.9389 30.2407 19.2086 30.06 19.5H30C27.9233 19.5 25.8932 20.1158 24.1665 21.2696C22.4398 22.4233 21.094 24.0632 20.2993 25.9818C19.5045 27.9004 19.2966 30.0116 19.7018 32.0484C20.1069 34.0852 21.1069 35.9562 22.5754 37.4246C24.0438 38.8931 25.9148 39.8931 27.9516 40.2982C29.9884 40.7034 32.0996 40.4955 34.0182 39.7007C35.9368 38.906 37.5767 37.5602 38.7304 35.8335C39.8842 34.1068 40.5 32.0767 40.5 30V29.94C40.79 29.76 41.0575 29.5475 41.3025 29.3025L44.4915 26.115C44.823 27.354 45 28.656 45 30C45 38.2845 38.2845 45 30 45C21.7155 45 15 38.2845 15 30C15 21.7155 21.7155 15 30 15ZM29.379 22.5255C29.379 23.802 29.316 25.0965 29.385 26.3715L28.575 27.1815C28.2964 27.4601 28.0753 27.7909 27.9245 28.155C27.7738 28.519 27.6961 28.9092 27.6961 29.3032C27.6961 29.6973 27.7738 30.0875 27.9245 30.4515C28.0753 30.8156 28.2964 31.1464 28.575 31.425C28.8536 31.7036 29.1844 31.9247 29.5485 32.0755C29.9125 32.2262 30.3027 32.3039 30.6968 32.3039C31.0908 32.3039 31.481 32.2262 31.845 32.0755C32.2091 31.9247 32.5399 31.7036 32.8185 31.425L33.6285 30.615C34.9035 30.684 36.1965 30.621 37.4745 30.621C37.356 32.0465 36.8323 33.4084 35.9652 34.5461C35.0981 35.6837 33.9238 36.5497 32.5807 37.0418C31.2376 37.534 29.7818 37.6318 28.3849 37.3237C26.9881 37.0156 25.7084 36.3145 24.697 35.303C23.6855 34.2916 22.9844 33.0119 22.6763 31.6151C22.3682 30.2182 22.466 28.7624 22.9582 27.4193C23.4503 26.0762 24.3163 24.9019 25.4539 24.0348C26.5916 23.1677 27.9535 22.644 29.379 22.5255ZM39.756 15.1905C40.0298 15.304 40.2638 15.4961 40.4285 15.7425C40.5933 15.9889 40.6813 16.2786 40.6815 16.575V19.32H43.425C43.7216 19.3201 44.0116 19.4081 44.2582 19.5729C44.5048 19.7377 44.697 19.972 44.8105 20.246C44.924 20.5201 44.9537 20.8216 44.8959 21.1125C44.838 21.4035 44.6952 21.6707 44.4855 21.8805L39.18 27.18C38.8988 27.4613 38.5173 27.6194 38.1195 27.6195H34.5L31.758 30.363C31.4765 30.6445 31.0948 30.8026 30.6968 30.8026C30.2987 30.8026 29.917 30.6445 29.6355 30.363C29.354 30.0815 29.1959 29.6998 29.1959 29.3018C29.1959 28.9037 29.354 28.522 29.6355 28.2405L32.379 25.5V21.879C32.3788 21.6818 32.4176 21.4865 32.493 21.3042C32.5684 21.122 32.679 20.9564 32.8185 20.817L38.121 15.5145C38.3308 15.3046 38.5981 15.1616 38.8891 15.1037C39.1802 15.0458 39.4818 15.0754 39.756 15.189" fill="#0668E1" style="fill:#0668E1;fill:color(display-p3 0.0235 0.4078 0.8824);fill-opacity:1;"/>
</svg>
