<svg width="32" height="32" viewBox="0 0 32 32" fill="none" xmlns="http://www.w3.org/2000/svg">
<g clip-path="url(#clip0_19562_73273)">
<path d="M6.88724e-08 10.0001C-0.000271469 12.3147 0.802392 14.5577 2.27111 16.3467C3.73983 18.1356 5.78364 19.3597 8.054 19.8101C8.18476 18.3774 8.55242 16.9764 9.142 15.6641C7.39 15.0721 6.264 13.7281 6 11.8201H5V10.9681H5.932V10.1001C5.93067 10.0068 5.93333 9.91675 5.94 9.83008H5V8.97608H6.022C6.472 6.48008 8.426 5.00008 11.362 5.00008C11.994 5.00008 12.542 5.06209 13 5.17008V6.63609C12.465 6.51781 11.9179 6.46277 11.37 6.47208C9.532 6.47208 8.294 7.40408 7.902 8.97608H11.736V9.83008H7.776C7.77067 9.92342 7.76867 10.0214 7.77 10.1241V10.9681H11.736V11.8221H7.86C8.096 13.0261 8.796 13.8821 9.87 14.2801C10.9231 12.536 12.3713 11.0639 14.0979 9.98238C15.8246 8.9009 17.7812 8.24038 19.81 8.05408C19.3195 5.62511 17.945 3.46462 15.9527 1.99111C13.9603 0.517605 11.4921 -0.16404 9.02592 0.0782169C6.55979 0.320473 4.27132 1.46939 2.60383 3.30241C0.936326 5.13543 0.00847401 7.52209 6.88724e-08 10.0001ZM32 21.0001C32 23.9175 30.8411 26.7154 28.7782 28.7783C26.7153 30.8412 23.9174 32.0001 21 32.0001C18.0826 32.0001 15.2847 30.8412 13.2218 28.7783C11.1589 26.7154 10 23.9175 10 21.0001C10 18.0827 11.1589 15.2848 13.2218 13.2219C15.2847 11.159 18.0826 10.0001 21 10.0001C23.9174 10.0001 26.7153 11.159 28.7782 13.2219C30.8411 15.2848 32 18.0827 32 21.0001ZM16.5 23.6441C16.638 25.3141 17.992 26.6141 20.428 26.7681V28.0001H21.508V26.7601C24.026 26.5881 25.5 25.2801 25.5 23.3801C25.5 21.6501 24.374 20.7601 22.36 20.3001L21.508 20.1001V16.7481C22.588 16.8681 23.276 17.4421 23.44 18.2381H25.336C25.196 16.6301 23.778 15.3721 21.508 15.2341V14.0001H20.428V15.2581C18.276 15.4641 16.812 16.7221 16.812 18.5021C16.812 20.0761 17.9 21.0781 19.712 21.4881L20.428 21.6581V25.2181C19.32 25.0581 18.588 24.4661 18.422 23.6441H16.5ZM20.42 19.8541C19.356 19.6141 18.78 19.1261 18.78 18.3901C18.78 17.5701 19.402 16.9521 20.428 16.7721V19.8521H20.418L20.42 19.8541ZM21.664 21.9421C22.954 22.2321 23.55 22.7021 23.55 23.5341C23.55 24.4821 22.81 25.1341 21.51 25.2541V21.9061L21.664 21.9421Z" fill="#0668E1" style="fill:#0668E1;fill:color(display-p3 0.0235 0.4078 0.8824);fill-opacity:1;"/>
</g>
<defs>
<clipPath id="clip0_19562_73273">
<rect width="32" height="32" fill="white" style="fill:white;fill-opacity:1;"/>
</clipPath>
</defs>
</svg>
