<svg width="32" height="32" viewBox="0 0 32 32" fill="none" xmlns="http://www.w3.org/2000/svg">
<path d="M5.842 15.8434C5.86986 16.0235 5.87239 16.1278 5.90025 16.225C6.42709 18.0382 6.97419 19.8466 7.47316 21.6669C7.59727 22.1244 7.88095 22.2476 8.309 22.3377C10.7735 22.8544 13.2354 23.3806 15.6923 23.9257C16.3584 24.0727 16.9359 24.0087 17.5261 23.6531C19.4004 22.5249 21.3001 21.4299 23.1896 20.323C24.6282 19.4816 26.0669 18.6402 27.5005 17.794C27.9817 17.5096 28.1312 17.1588 27.8602 16.8128C27.1484 15.8955 26.2619 15.303 24.8106 15.8197C23.99 16.1112 23.2073 16.4952 22.3968 16.8128C21.9155 17 21.604 17.1849 21.604 17.7917C21.6065 18.607 20.8644 19.1948 19.8538 19.3773C17.7186 19.7589 15.5657 19.593 13.4178 19.5124C13.1265 19.5006 12.8935 19.3536 12.9087 19.0431C12.9239 18.7255 13.1569 18.6307 13.4659 18.6449C14.0611 18.6686 14.6589 18.7208 15.2541 18.7042C16.7105 18.6639 18.1669 18.6023 19.6233 18.5241C20.0514 18.5004 20.4009 18.2941 20.5807 17.9031C20.8517 17.3058 20.4414 16.6232 19.7145 16.5995C18.21 16.5497 16.7004 16.5805 15.1933 16.5544C14.7273 16.5473 14.246 16.5165 13.8028 16.398C12.7618 16.1207 11.7486 15.7557 10.7076 15.4784C10.1732 15.3362 9.5881 15.1797 9.05367 15.2413C7.98733 15.3599 6.94126 15.6277 5.842 15.8434ZM4.47425 15.6703C3.87143 15.822 3.37752 15.9121 2.91401 16.0851C2.77723 16.1349 2.66072 16.4146 2.66832 16.5829C2.67845 16.8554 2.7975 17.1233 2.87602 17.3935C3.43831 19.3181 3.99807 21.2403 4.56797 23.1625C4.70727 23.6294 4.90484 23.7242 5.40128 23.6128C5.70522 23.5441 6.00917 23.473 6.31311 23.3948C6.80448 23.2692 6.93619 23.0938 6.79942 22.6197C6.17633 20.4534 5.54565 18.2894 4.89217 16.1302C4.83645 15.9453 4.60343 15.8078 4.47425 15.6703Z" fill="#0668E1" style="fill:#0668E1;fill:color(display-p3 0.0235 0.4078 0.8824);fill-opacity:1;"/>
<path d="M5.84375 15.8432C6.94048 15.6275 7.98908 15.3597 9.05795 15.2365C9.59239 15.1748 10.1775 15.3313 10.7119 15.4735C11.7529 15.7508 12.7661 16.1158 13.8071 16.3931C14.2503 16.5116 14.7316 16.5401 15.1976 16.5495C16.7047 16.5756 18.2117 16.5472 19.7188 16.5946C20.4457 16.6183 20.8586 17.3033 20.585 17.8982C20.4052 18.2916 20.0556 18.4978 19.6276 18.5192C18.1737 18.5974 16.7173 18.659 15.2584 18.6993C14.6632 18.7159 14.0654 18.6638 13.4702 18.64C13.1612 18.6282 12.9282 18.723 12.913 19.0382C12.8978 19.3487 13.1308 19.4981 13.4221 19.5075C15.5699 19.5881 17.7229 19.754 19.8581 19.3724C20.8687 19.1923 21.6108 18.6045 21.6083 17.7868C21.6083 17.18 21.9198 16.9951 22.4011 16.8079C23.2116 16.4903 23.9942 16.1063 24.8149 15.8148C26.2662 15.2981 27.1527 15.8906 27.8645 16.8079C28.1329 17.1539 27.986 17.5047 27.5048 17.7892C26.0687 18.6353 24.63 19.4744 23.1939 20.3181C21.3043 21.425 19.4047 22.52 17.5304 23.6483C16.9402 24.0038 16.3627 24.0678 15.6966 23.9208C13.2397 23.3757 10.7778 22.8495 8.31329 22.3328C7.88524 22.2427 7.60156 22.1195 7.47745 21.662C6.97847 19.8417 6.43137 18.0333 5.90454 16.2201C5.87414 16.13 5.87161 16.0257 5.84375 15.8432Z" fill="#0668E1" style="fill:#0668E1;fill:color(display-p3 0.0235 0.4078 0.8824);fill-opacity:1;"/>
<path d="M4.47425 15.6709C4.60343 15.8084 4.83898 15.9458 4.89471 16.1283C5.54819 18.2876 6.17887 20.4516 6.80195 22.6179C6.93873 23.0896 6.80702 23.2673 6.31564 23.393C6.01423 23.4688 5.71029 23.5399 5.40381 23.611C4.90484 23.7248 4.70727 23.6276 4.5705 23.1607C4.00061 21.2385 3.44084 19.3162 2.87855 17.3917C2.7975 17.1215 2.68099 16.8536 2.66832 16.5811C2.66072 16.4128 2.77723 16.1331 2.91401 16.0833C3.37499 15.9127 3.87143 15.8226 4.47425 15.6709Z" fill="#0668E1" style="fill:#0668E1;fill:color(display-p3 0.0235 0.4078 0.8824);fill-opacity:1;"/>
<path d="M16.282 7.7009C16.3625 7.7009 16.4249 7.7009 16.4899 7.7009C17.6645 7.7009 18.8416 7.69841 20.0162 7.7009C20.2423 7.7009 20.4502 7.65601 20.6347 7.53134C20.7256 7.469 20.8348 7.42162 20.9205 7.50141C20.9881 7.56126 21.0427 7.66848 21.0427 7.75326C21.0505 8.79557 21.0479 9.83788 21.0479 10.8802C21.0479 10.945 21.0401 11.0124 21.0245 11.0772C20.9361 11.4961 20.5827 11.7879 20.1383 11.8128C20.0942 11.8153 20.05 11.8153 20.0032 11.8153C16.8875 11.8153 13.7717 11.8153 10.656 11.8153C10.2298 11.8153 9.89978 11.6607 9.71268 11.2891C9.65291 11.1694 9.61913 11.0248 9.61913 10.8902C9.61133 9.84287 9.61133 8.79557 9.61913 7.74828C9.61913 7.6635 9.6789 7.55627 9.74386 7.49643C9.82962 7.41913 9.93616 7.469 10.0297 7.53134C10.2116 7.65352 10.4117 7.7009 10.6326 7.7009C11.8228 7.69841 13.0129 7.7009 14.2057 7.69841C14.3356 7.69841 14.3928 7.72334 14.3824 7.86298C14.3694 8.02257 14.3772 8.18714 14.3798 8.34923C14.3824 8.52378 14.463 8.61105 14.6397 8.61354C15.1022 8.61853 15.5622 8.61853 16.0247 8.61354C16.1962 8.61105 16.2768 8.52627 16.282 8.36169C16.2846 8.14475 16.282 7.9328 16.282 7.7009Z" fill="#0668E1" style="fill:#0668E1;fill:color(display-p3 0.0235 0.4078 0.8824);fill-opacity:1;"/>
<path d="M12.9499 4.0397C12.9499 3.8851 12.9499 3.74795 12.9499 3.61081C12.9551 3.06472 13.3579 2.67323 13.927 2.67073C14.8651 2.66575 15.8032 2.66575 16.7387 2.67073C17.3052 2.67323 17.7054 3.06721 17.7106 3.61579C17.7132 3.74795 17.7106 3.88011 17.7106 4.02973C17.7781 4.03471 17.8353 4.0397 17.8925 4.0397C18.5967 4.0397 19.3009 4.0397 20.0052 4.0397C20.6496 4.0397 21.0446 4.41872 21.0472 5.03463C21.0472 5.45355 21.0498 5.87247 21.0472 6.29139C21.0446 6.84746 20.6444 7.23895 20.0649 7.24144C18.8436 7.24643 17.6248 7.24393 16.4035 7.24144C16.3697 7.24144 16.3359 7.23645 16.2813 7.23146C16.2813 7.15915 16.2839 7.08933 16.2813 7.01951C16.2735 6.87239 16.1904 6.78761 16.0371 6.78512C15.5667 6.78013 15.0938 6.78013 14.6234 6.78512C14.4727 6.78761 14.3895 6.87489 14.3817 7.02201C14.3792 7.08684 14.3817 7.15416 14.3817 7.24144C14.3168 7.24144 14.2648 7.24144 14.2102 7.24144C13.0253 7.24144 11.8403 7.24144 10.6527 7.24144C10.0057 7.24144 9.61588 6.86491 9.61328 6.24401C9.61328 5.83008 9.61328 5.41615 9.61328 5.00222C9.61588 4.43119 10.0161 4.04219 10.6138 4.0397C11.3284 4.03721 12.043 4.0397 12.7576 4.0397C12.8148 4.0397 12.872 4.0397 12.9499 4.0397ZM13.9088 4.02723C14.8625 4.02723 15.8058 4.02723 16.7439 4.02723C16.7439 3.87512 16.7439 3.73549 16.7439 3.59834C15.7928 3.59834 14.8547 3.59834 13.9088 3.59834C13.9088 3.74297 13.9088 3.88011 13.9088 4.02723Z" fill="#0668E1" style="fill:#0668E1;fill:color(display-p3 0.0235 0.4078 0.8824);fill-opacity:1;"/>
<circle cx="25.3333" cy="25.3333" r="4.66667" fill="#0668E1" stroke="white" style="fill:#0668E1;fill:color(display-p3 0.0235 0.4078 0.8824);fill-opacity:1;stroke:white;stroke-opacity:1;" stroke-width="1.33333"/>
<path d="M24.3649 25.8791L23.5771 25.0912H24.1225C24.1831 23.7312 24.7019 22.667 25.3346 22.667C25.8195 22.667 26.2486 23.307 26.4377 24.2306C27.3613 24.4197 28.0013 24.8488 28.0013 25.3337C28.0013 25.7773 27.4752 26.1652 26.6922 26.3761L26.7625 25.884C27.2255 25.7506 27.5165 25.5543 27.5165 25.3337C27.5165 25.0767 27.1165 24.8488 26.5152 24.7276C26.5346 24.9191 26.5468 25.1227 26.5468 25.3337C26.5468 26.8076 26.0037 28.0003 25.3346 28.0003C24.891 28.0003 24.5031 27.4743 24.2922 26.6912L24.7843 26.7615C24.9177 27.2246 25.114 27.5155 25.3346 27.5155C25.7371 27.5155 26.0619 26.5385 26.0619 25.3337C26.0619 25.0912 26.0498 24.8609 26.0255 24.6427C25.8074 24.6185 25.5771 24.6064 25.3346 24.6064L24.8837 24.6209L24.954 24.1337L25.3346 24.1215C25.5455 24.1215 25.7492 24.1337 25.9407 24.1531C25.8195 23.5518 25.5916 23.1518 25.3346 23.1518C24.9613 23.1518 24.651 24.0003 24.6074 25.0912H25.1528L24.3649 25.8791ZM25.8801 26.3034L25.0922 27.0912V26.5458C23.7322 26.4852 22.668 25.9664 22.668 25.3337C22.668 24.89 23.194 24.5021 23.9771 24.2912L23.9068 24.7834C23.4437 24.9167 23.1528 25.1131 23.1528 25.3337C23.1528 25.707 24.0013 26.0173 25.0922 26.0609V25.5155L25.8801 26.3034Z" fill="white" style="fill:white;fill-opacity:1;"/>
</svg>
