<svg width="32" height="32" viewBox="0 0 32 32" fill="none" xmlns="http://www.w3.org/2000/svg">
<rect x="10.6185" y="5.66634" width="13.0462" height="18.2964" rx="2.33333" fill="#0668E1" stroke="white" style="fill:#0668E1;fill:color(display-p3 0.0235 0.4078 0.8824);fill-opacity:1;stroke:white;stroke-opacity:1;" stroke-width="0.666667"/>
<rect x="8.33333" y="8.03646" width="13.0462" height="18.2964" rx="2.33333" fill="#0668E1" stroke="white" style="fill:#0668E1;fill:color(display-p3 0.0235 0.4078 0.8824);fill-opacity:1;stroke:white;stroke-opacity:1;" stroke-width="0.666667"/>
<line x1="10.6185" y1="10.9255" x2="13.3801" y2="10.9255" stroke="white" style="stroke:white;stroke-opacity:1;" stroke-width="0.666667" stroke-linecap="round"/>
<line x1="10.6185" y1="13.2965" x2="13.3801" y2="13.2965" stroke="white" style="stroke:white;stroke-opacity:1;" stroke-width="0.666667" stroke-linecap="round"/>
<line x1="10.6185" y1="15.6667" x2="12.2373" y2="15.6667" stroke="white" style="stroke:white;stroke-opacity:1;" stroke-width="0.666667" stroke-linecap="round"/>
<line x1="14.0521" y1="15.6667" x2="15.6709" y2="15.6667" stroke="white" style="stroke:white;stroke-opacity:1;" stroke-width="0.666667" stroke-linecap="round"/>
<line x1="16.3333" y1="21.5924" x2="17.9522" y2="21.5924" stroke="white" style="stroke:white;stroke-opacity:1;" stroke-width="0.666667" stroke-linecap="round"/>
<line x1="10.6185" y1="23.9635" x2="12.2373" y2="23.9635" stroke="white" style="stroke:white;stroke-opacity:1;" stroke-width="0.666667" stroke-linecap="round"/>
<line x1="17.474" y1="15.6667" x2="19.0928" y2="15.6667" stroke="white" style="stroke:white;stroke-opacity:1;" stroke-width="0.666667" stroke-linecap="round"/>
<line x1="15.1927" y1="13.2965" x2="19.097" y2="13.2965" stroke="white" style="stroke:white;stroke-opacity:1;" stroke-width="0.666667" stroke-linecap="round"/>
<line x1="10.6185" y1="21.5924" x2="14.5228" y2="21.5924" stroke="white" style="stroke:white;stroke-opacity:1;" stroke-width="0.666667" stroke-linecap="round"/>
<line x1="10.6185" y1="19.2214" x2="16.8083" y2="19.2214" stroke="white" style="stroke:white;stroke-opacity:1;" stroke-width="0.666667" stroke-linecap="round"/>
<path d="M20 29.1228L24.9661 29.1228C25.7344 29.1228 26.4712 28.8381 27.0145 28.3314C27.5578 27.8246 27.863 27.1373 27.863 26.4206L28 22.667M21.6554 27.5787L20 29.1228L21.6554 30.667" stroke="#0668E1" style="stroke:#0668E1;stroke:color(display-p3 0.0235 0.4078 0.8824);stroke-opacity:1;" stroke-width="1.33333" stroke-linecap="round"/>
<path d="M12 2.87715L7.03392 2.87715C6.26561 2.87715 5.52878 3.16185 4.98551 3.66862C4.44224 4.17539 4.13703 4.86272 4.13703 5.5794L4 9.33301M10.3446 4.42129L12 2.87715L10.3446 1.33301" stroke="#0668E1" style="stroke:#0668E1;stroke:color(display-p3 0.0235 0.4078 0.8824);stroke-opacity:1;" stroke-width="1.33333" stroke-linecap="round"/>
</svg>
