<svg width="32" height="32" viewBox="0 0 32 32" fill="none" xmlns="http://www.w3.org/2000/svg">
<g clip-path="url(#clip0_19573_73774)">
<path d="M21.9985 0.000182983C20.4128 -0.0174584 18.8448 0.334893 17.419 1.02925C15.9933 1.72361 14.7491 2.74085 13.7852 4.00018C13.6645 4.13873 13.5737 4.30074 13.5185 4.47605C13.4633 4.65136 13.445 4.83618 13.4647 5.0189C13.4844 5.20163 13.5416 5.37831 13.6328 5.53787C13.724 5.69743 13.8472 5.83641 13.9947 5.94608C14.1421 6.05576 14.3107 6.13377 14.4897 6.17521C14.6688 6.21665 14.8544 6.22063 15.0351 6.18689C15.2158 6.15316 15.3875 6.08245 15.5395 5.97919C15.6915 5.87593 15.8206 5.74235 15.9185 5.58685C16.6368 4.6627 17.5598 3.91793 18.6149 3.41122C19.6699 2.90451 20.8282 2.6497 21.9985 2.66685C23.8538 2.58346 25.6666 3.23789 27.0407 4.48712C28.4149 5.73634 29.2386 7.47875 29.3319 9.33352C29.3009 10.6926 28.8552 12.0098 28.0545 13.1084C27.2537 14.2071 26.1363 15.0346 24.8519 15.4802C24.6951 15.5372 24.5503 15.6231 24.4252 15.7335C24.1585 15.9868 21.6652 18.1068 21.3319 18.4002V17.2668C21.3351 16.9433 21.2205 16.6297 21.0095 16.3843C20.7985 16.139 20.5056 15.9788 20.1852 15.9335C19.8286 15.8865 19.4763 15.8107 19.1319 15.7068C18.9629 15.6587 18.7861 15.6443 18.6116 15.6645C18.437 15.6846 18.2682 15.739 18.1147 15.8244C17.9611 15.9099 17.8259 16.0247 17.7168 16.1624C17.6077 16.3001 17.5267 16.4579 17.4785 16.6268C17.4304 16.7958 17.416 16.9726 17.4362 17.1471C17.4563 17.3217 17.5107 17.4905 17.5961 17.6441C17.6816 17.7976 17.7964 17.9328 17.9341 18.0419C18.0717 18.1511 18.2296 18.232 18.3985 18.2802L18.6652 18.3468V21.3335C18.6665 21.5967 18.7457 21.8537 18.8928 22.072C19.0399 22.2903 19.2484 22.4602 19.4919 22.5602C19.7347 22.6623 20.0023 22.6902 20.261 22.6404C20.5196 22.5905 20.7577 22.4652 20.9452 22.2802C21.2919 21.9202 25.6652 18.2002 26.0385 17.8668C27.7671 17.1972 29.2571 16.0279 30.3185 14.5081C31.38 12.9884 31.9648 11.187 31.9985 9.33352C31.9047 6.77164 30.7998 4.35128 28.9256 2.60209C27.0515 0.852909 24.5608 -0.0826402 21.9985 0.000182983Z" fill="#0668E1" style="fill:#0668E1;fill:color(display-p3 0.0235 0.4078 0.8824);fill-opacity:1;"/>
<path d="M16.16 8.66634C16.16 9.01996 16.3005 9.3591 16.5505 9.60915C16.8006 9.8592 17.1397 9.99967 17.4933 9.99967C17.847 9.99967 18.1861 9.8592 18.4361 9.60915C18.6862 9.3591 18.8267 9.01996 18.8267 8.66634C18.8267 8.31272 18.6862 7.97358 18.4361 7.72353C18.1861 7.47348 17.847 7.33301 17.4933 7.33301C17.1397 7.33301 16.8006 7.47348 16.5505 7.72353C16.3005 7.97358 16.16 8.31272 16.16 8.66634ZM20.4933 8.66634C20.4933 8.84144 20.5278 9.01482 20.5948 9.17659C20.6618 9.33835 20.76 9.48534 20.8839 9.60915C21.0077 9.73296 21.1547 9.83117 21.3164 9.89818C21.4782 9.96519 21.6516 9.99967 21.8267 9.99967C22.0018 9.99967 22.1751 9.96519 22.3369 9.89818C22.4987 9.83117 22.6457 9.73296 22.7695 9.60915C22.8933 9.48534 22.9915 9.33835 23.0585 9.17659C23.1255 9.01482 23.16 8.84144 23.16 8.66634C23.16 8.31272 23.0195 7.97358 22.7695 7.72353C22.5194 7.47348 22.1803 7.33301 21.8267 7.33301C21.473 7.33301 21.1339 7.47348 20.8839 7.72353C20.6338 7.97358 20.4933 8.31272 20.4933 8.66634ZM24.8267 8.66634C24.8267 9.01996 24.9671 9.3591 25.2172 9.60915C25.4672 9.8592 25.8064 9.99967 26.16 9.99967C26.5136 9.99967 26.8528 9.8592 27.1028 9.60915C27.3529 9.3591 27.4933 9.01996 27.4933 8.66634C27.4933 8.31272 27.3529 7.97358 27.1028 7.72353C26.8528 7.47348 26.5136 7.33301 26.16 7.33301C25.8064 7.33301 25.4672 7.47348 25.2172 7.72353C24.9671 7.97358 24.8267 8.31272 24.8267 8.66634ZM10 21.333C7.34783 21.333 4.8043 22.3866 2.92893 24.2619C1.05357 26.1373 0 28.6808 0 31.333C0 31.5098 0.0702379 31.6794 0.195262 31.8044C0.320286 31.9294 0.489856 31.9997 0.666667 31.9997H19.3333C19.5101 31.9997 19.6797 31.9294 19.8047 31.8044C19.9298 31.6794 20 31.5098 20 31.333C20 28.6808 18.9464 26.1373 17.0711 24.2619C15.1957 22.3866 12.6522 21.333 10 21.333ZM3.66667 14.333C3.66667 16.0127 4.33393 17.6236 5.52166 18.8113C6.70939 19.9991 8.3203 20.6663 10 20.6663C11.6797 20.6663 13.2906 19.9991 14.4783 18.8113C15.6661 17.6236 16.3333 16.0127 16.3333 14.333C16.3333 12.6533 15.6661 11.0424 14.4783 9.85467C13.2906 8.66693 11.6797 7.99967 10 7.99967C8.3203 7.99967 6.70939 8.66693 5.52166 9.85467C4.33393 11.0424 3.66667 12.6533 3.66667 14.333Z" fill="#0668E1" style="fill:#0668E1;fill:color(display-p3 0.0235 0.4078 0.8824);fill-opacity:1;"/>
</g>
<defs>
<clipPath id="clip0_19573_73774">
<rect width="32" height="32" fill="white" style="fill:white;fill-opacity:1;"/>
</clipPath>
</defs>
</svg>
