<svg width="32" height="32" viewBox="0 0 32 32" fill="none" xmlns="http://www.w3.org/2000/svg">
<path d="M15.9906 23.9984C14.3628 23.9984 12.7345 24.0012 11.1067 23.9966C10.7503 23.9957 10.4608 23.8412 10.2618 23.5249C10.1802 23.3954 10.1387 23.2524 10.1382 23.0989C10.1373 22.0278 10.1342 20.9562 10.1409 19.8851C10.1436 19.4896 10.3095 19.1557 10.5616 18.8667C10.7962 18.5975 11.0804 18.3945 11.3882 18.227C11.7308 18.0407 12.0877 17.8894 12.4503 17.7502C12.6203 17.685 12.7813 17.5962 12.9468 17.5185C13.2332 17.3835 13.5205 17.2498 13.8065 17.1138C13.9176 17.0611 14.03 17.0093 14.1352 16.9455C14.307 16.8414 14.4158 16.6819 14.4555 16.4812C14.4863 16.323 14.4957 16.1602 14.5198 16.0006C14.5296 15.9354 14.5113 15.8924 14.4663 15.8485C14.1683 15.5576 13.9274 15.2246 13.7583 14.8361C13.6842 14.6663 13.6374 14.4888 13.6044 14.307C13.5928 14.2427 13.5709 14.2163 13.5054 14.2117C13.2779 14.196 13.1757 14.0882 13.1427 13.8542C13.111 13.6294 13.0718 13.4061 13.0361 13.1818C13.0245 13.1096 13.0124 13.0375 13.0044 12.9649C12.9839 12.7799 13.0651 12.6513 13.2346 12.5972C13.3305 12.5662 13.3283 12.5666 13.3153 12.4644C13.2658 12.0699 13.2359 11.6759 13.2939 11.2786C13.343 10.9433 13.4719 10.6422 13.6481 10.3634C13.959 9.87173 14.3793 9.50405 14.8896 9.25153C15.2781 9.05913 15.6854 8.9967 16.1021 9.14377C16.2377 9.19141 16.3626 9.27234 16.4902 9.34264C16.5335 9.36623 16.5705 9.38704 16.6245 9.3801C16.9648 9.3357 17.2825 9.41849 17.5787 9.58822C18.0859 9.87913 18.4325 10.3134 18.6038 10.8869C18.7568 11.3984 18.7974 11.9215 18.7064 12.452C18.7037 12.4672 18.701 12.4825 18.697 12.4973C18.6823 12.5528 18.7015 12.5833 18.7555 12.5999C18.8759 12.6379 18.9491 12.7248 18.9776 12.8506C18.9852 12.8835 18.9883 12.92 18.9834 12.9533C18.933 13.2803 18.8826 13.6072 18.8277 13.9333C18.8019 14.0864 18.6819 14.1895 18.523 14.2089C18.3955 14.2247 18.3977 14.2251 18.3665 14.3556C18.2683 14.7644 18.0908 15.1353 17.8503 15.4725C17.7513 15.6117 17.6398 15.7416 17.5274 15.8693C17.4805 15.9225 17.456 15.9724 17.4667 16.0441C17.4877 16.1884 17.5006 16.3345 17.526 16.4779C17.5358 16.532 17.5671 16.5843 17.597 16.6319C17.6465 16.7124 17.6978 16.7929 17.7575 16.865C17.7901 16.9039 17.8392 16.9312 17.8851 16.9547C18.1019 17.0648 18.3192 17.1735 18.5378 17.2785C18.7564 17.3835 18.9758 17.4866 19.1971 17.5847C19.5076 17.722 19.8212 17.852 20.1312 17.9893C20.4703 18.1392 20.7995 18.308 21.0943 18.5411C21.3544 18.7464 21.5793 18.9837 21.7216 19.2949C21.8121 19.4929 21.8643 19.7001 21.8648 19.9188C21.867 20.971 21.8679 22.0227 21.8679 23.0749C21.8679 23.4287 21.6319 23.7755 21.3085 23.9083C21.1581 23.9698 21.0042 24.0003 20.8419 23.9998C19.2252 23.998 17.6081 23.9984 15.9915 23.9984H15.9906ZM15.263 21.2045C15.23 21.1749 15.2112 21.1588 15.1925 21.1412C15.1015 21.057 15.0158 20.9659 14.9186 20.8896C14.8298 20.8202 14.7281 20.768 14.6126 20.7629C14.3217 20.7495 14.1183 20.903 13.9711 21.1444C13.9109 21.2434 13.9109 21.3604 13.9702 21.4645C14.017 21.5468 14.0701 21.6273 14.1312 21.6985C14.3088 21.9061 14.4801 22.1184 14.6237 22.3538C14.6652 22.4218 14.712 22.487 14.7616 22.5495C14.8227 22.6267 14.9021 22.6692 14.9998 22.6836C15.1483 22.7058 15.2951 22.703 15.4436 22.6822C15.6261 22.6568 15.751 22.555 15.8233 22.383C15.8884 22.228 15.9482 22.0708 16.0133 21.9159C16.3095 21.2078 16.6628 20.5326 17.0906 19.8999C17.3302 19.5461 17.5876 19.2084 17.8963 18.9152C17.9427 18.8713 17.9868 18.8227 18.0221 18.7691C18.1068 18.64 18.0787 18.4569 17.9565 18.3815C17.9021 18.3482 17.8289 18.3237 17.7678 18.3306C17.5688 18.3528 17.3703 18.3834 17.1749 18.4273C17.0996 18.4444 17.0215 18.4934 16.9653 18.5499C16.819 18.6969 16.6722 18.8463 16.5468 19.0124C16.0726 19.6427 15.6743 20.323 15.3388 21.0431C15.3165 21.0912 15.2942 21.1389 15.2634 21.2041L15.263 21.2045Z" fill="#0668E1" style="fill:#0668E1;fill:color(display-p3 0.0235 0.4078 0.8824);fill-opacity:1;"/>
<path d="M10.9601 17.6303C10.9123 17.6636 10.8771 17.6899 10.8405 17.7135C10.5193 17.9188 10.2213 18.1529 9.97775 18.4553C9.70072 18.7999 9.5205 19.1921 9.45269 19.6356C9.43663 19.7415 9.43529 19.8507 9.43485 19.9584C9.43262 20.7368 9.43262 21.5152 9.43172 22.294C9.43172 22.3093 9.43217 22.325 9.43172 22.3402C9.42816 22.4198 9.41834 22.43 9.33849 22.4346C9.30905 22.4364 9.27916 22.4346 9.24927 22.4346C6.83678 22.4346 4.4243 22.4346 2.01181 22.4346C1.85523 22.4346 1.69909 22.4346 1.55054 22.3745C1.30162 22.2741 1.12095 22.1007 1.0362 21.8347C1.01211 21.7594 1.00185 21.6761 1.0014 21.5966C0.999169 20.66 1.00006 19.7235 1.00095 18.7869C1.00095 18.3596 1.18028 18.0155 1.46757 17.7241C1.72586 17.4624 2.03233 17.2732 2.35932 17.1211C2.61002 17.0045 2.86876 16.9074 3.11991 16.7913C3.55396 16.5906 3.98444 16.382 4.41627 16.1771C4.43991 16.166 4.46221 16.1517 4.48675 16.1429C4.63842 16.0879 4.74638 15.9815 4.82177 15.8376C4.84452 15.7942 4.86593 15.7475 4.87396 15.6998C4.89939 15.5481 4.91679 15.395 4.94088 15.2429C4.95158 15.1758 4.91902 15.1342 4.87708 15.0926C4.70534 14.921 4.55233 14.7328 4.42563 14.5228C4.28244 14.286 4.17225 14.0353 4.12496 13.7578C4.10623 13.6464 4.10444 13.6464 3.99069 13.6325C3.83634 13.6135 3.72972 13.5173 3.70608 13.3684C3.66147 13.0872 3.61865 12.8056 3.57761 12.5239C3.55307 12.357 3.61552 12.2497 3.76586 12.1891C3.86891 12.1475 3.86489 12.1479 3.85017 12.0332C3.79887 11.6267 3.77121 11.2202 3.87024 10.8159C3.92511 10.593 4.02013 10.3881 4.13924 10.1976C4.44972 9.70181 4.87084 9.33876 5.39946 9.11861C5.77775 8.9609 6.15961 8.95397 6.53388 9.14544C6.5437 9.15052 6.55574 9.1533 6.56377 9.1607C6.69314 9.27817 6.84481 9.28187 7.00898 9.28233C7.37567 9.28372 7.69552 9.43542 7.97567 9.6736C8.24154 9.89976 8.4463 10.1768 8.56764 10.5126C8.64749 10.7327 8.69834 10.9612 8.72466 11.1947C8.75812 11.4949 8.75901 11.7941 8.69388 12.091C8.68407 12.1364 8.70102 12.1609 8.74117 12.1808C8.78712 12.2034 8.83351 12.2307 8.87143 12.2658C8.93611 12.326 8.96422 12.4055 8.95083 12.4957C8.90533 12.7963 8.86206 13.0974 8.80987 13.3966C8.7889 13.5169 8.70236 13.5858 8.59217 13.6214C8.57121 13.6283 8.54845 13.6297 8.52615 13.632C8.43069 13.6418 8.43425 13.6431 8.40124 13.7407C8.33745 13.9294 8.27812 14.1204 8.19961 14.3026C8.06801 14.6079 7.8802 14.8761 7.6518 15.1115C7.59515 15.1698 7.57507 15.2249 7.59202 15.3062C7.61344 15.4075 7.61433 15.5134 7.63663 15.6143C7.68526 15.833 7.79009 16.0139 7.99529 16.1114C8.50117 16.3519 9.00749 16.5924 9.51514 16.8292C9.75871 16.9425 10.0103 17.0378 10.2503 17.1585C10.443 17.2556 10.6241 17.3773 10.8075 17.4929C10.8597 17.5257 10.9012 17.5766 10.9583 17.6298L10.9601 17.6303Z" fill="#0668E1" style="fill:#0668E1;fill:color(display-p3 0.0235 0.4078 0.8824);fill-opacity:1;"/>
<path d="M21.0434 17.6217C21.1549 17.5005 21.2897 17.4191 21.4217 17.334C21.6876 17.1624 21.9735 17.0315 22.2653 16.9187C22.69 16.754 23.0963 16.5468 23.5081 16.3521C23.6803 16.2707 23.852 16.1875 24.022 16.1015C24.1942 16.0145 24.2905 15.8614 24.3325 15.6755C24.3619 15.5446 24.3677 15.4087 24.3882 15.2755C24.4003 15.1959 24.3798 15.1381 24.3213 15.0812C24.0983 14.8629 23.9136 14.6127 23.7722 14.3297C23.6776 14.141 23.6062 13.943 23.5763 13.7312C23.5643 13.6466 23.5572 13.6396 23.4702 13.6309C23.277 13.6105 23.1789 13.5162 23.1499 13.3252C23.1102 13.0625 23.0691 12.8002 23.0294 12.538C23.0013 12.3521 23.0633 12.2448 23.2329 12.1828C23.3216 12.1504 23.3248 12.1458 23.3096 12.051C23.2578 11.7263 23.2445 11.3998 23.2766 11.0724C23.3033 10.7953 23.4001 10.5419 23.5335 10.3037C23.8422 9.75058 24.2865 9.35515 24.8562 9.11697C25.1912 8.97729 25.5356 8.95324 25.8778 9.09662C25.9737 9.13685 26.0607 9.1979 26.1539 9.24508C26.1923 9.2645 26.2369 9.28809 26.2766 9.28392C26.6789 9.2423 27.034 9.36995 27.3521 9.61275C27.6969 9.87545 27.9418 10.2182 28.0659 10.6464C28.1992 11.1066 28.243 11.5742 28.1586 12.0505C28.1404 12.1537 28.1426 12.1537 28.2305 12.1953C28.3581 12.2559 28.4241 12.3766 28.4022 12.5237C28.363 12.7901 28.3219 13.0564 28.2782 13.3224C28.2443 13.5291 28.156 13.6128 27.9521 13.6327C27.8981 13.6378 27.8745 13.6618 27.862 13.7146C27.7331 14.2543 27.4734 14.7191 27.1018 15.1178C27.0541 15.1691 27.0318 15.22 27.0456 15.293C27.063 15.3837 27.0671 15.4766 27.0809 15.5678C27.1201 15.8235 27.2433 16.0178 27.4757 16.1283C27.9414 16.3498 28.4053 16.5746 28.8728 16.7915C29.1236 16.9076 29.3832 17.0029 29.6334 17.1203C29.9631 17.2753 30.2727 17.464 30.5328 17.7313C30.8308 18.0379 30.9994 18.3963 30.9958 18.8422C30.9891 19.7399 30.9811 20.638 30.9985 21.5353C31.0083 22.0301 30.6265 22.3992 30.1986 22.4297C30.1469 22.4334 30.0947 22.4353 30.043 22.4353C27.601 22.4353 25.1595 22.4353 22.7176 22.4353C22.7029 22.4353 22.6877 22.4353 22.673 22.4353C22.5682 22.4325 22.5619 22.4265 22.5619 22.3136C22.5615 21.5353 22.5584 20.7569 22.5619 19.9785C22.5637 19.48 22.4178 19.0336 22.1439 18.6276C21.9013 18.2678 21.5836 17.9935 21.2277 17.7623C21.171 17.7257 21.1143 17.6892 21.0581 17.6517C21.0528 17.6485 21.0514 17.6388 21.043 17.6217H21.0434Z" fill="#0668E1" style="fill:#0668E1;fill:color(display-p3 0.0235 0.4078 0.8824);fill-opacity:1;"/>
<path d="M15.2595 21.2037C15.2903 21.1381 15.3126 21.0904 15.3349 21.0428C15.6703 20.3227 16.0687 19.6424 16.5429 19.012C16.6678 18.846 16.815 18.6966 16.9614 18.5495C17.0176 18.4931 17.0956 18.4441 17.171 18.4269C17.3664 18.383 17.5649 18.3525 17.7639 18.3303C17.825 18.3233 17.8982 18.3479 17.9526 18.3812C18.0748 18.4565 18.1029 18.6401 18.0182 18.7687C17.9829 18.8224 17.9387 18.8709 17.8924 18.9149C17.5837 19.2076 17.3263 19.5457 17.0867 19.8995C16.6589 20.5317 16.3056 21.2074 16.0094 21.9155C15.9447 22.0704 15.8845 22.2277 15.8193 22.3826C15.7471 22.5547 15.6226 22.6564 15.4397 22.6818C15.2912 22.7027 15.1444 22.7054 14.9959 22.6832C14.8982 22.6684 14.8188 22.6259 14.7576 22.5491C14.7081 22.4867 14.6613 22.4219 14.6198 22.3535C14.4766 22.1181 14.3049 21.9062 14.1273 21.6981C14.0662 21.6269 14.0131 21.5464 13.9663 21.4641C13.9069 21.36 13.9069 21.2426 13.9672 21.1441C14.1144 20.9026 14.3178 20.7491 14.6086 20.7625C14.7242 20.7676 14.8259 20.8199 14.9147 20.8892C15.0115 20.9651 15.0976 21.0562 15.1886 21.1408C15.2069 21.1579 15.226 21.1746 15.259 21.2042L15.2595 21.2037Z" fill="white" style="fill:white;fill-opacity:1;"/>
</svg>
