<svg width="60" height="60" viewBox="0 0 60 60" fill="none" xmlns="http://www.w3.org/2000/svg">
<rect width="60" height="60" rx="12" fill="#E6F0FC" style="fill:#E6F0FC;fill:color(display-p3 0.9020 0.9412 0.9882);fill-opacity:1;"/>
<path d="M20.0273 29.6879C20.0273 26.6454 22.5536 24.1696 25.6554 24.1719C28.7549 24.1741 31.2637 26.6522 31.2579 29.7094C31.2521 32.7383 28.7491 35.1948 25.6565 35.2072C22.5663 35.2186 20.0273 32.7292 20.0273 29.689V29.6879Z" fill="#0668E1" style="fill:#0668E1;fill:color(display-p3 0.0235 0.4078 0.8824);fill-opacity:1;"/>
<path d="M25.6147 38.5486C23.4447 38.5486 21.2759 38.5463 19.1059 38.5486C17.7784 38.5509 17.045 39.3833 17.2399 40.6712C17.472 42.1986 17.7122 43.7261 17.9501 45.2525C18.0302 45.7669 17.7343 46.1088 17.2051 46.1088C16.5831 46.1088 15.9612 46.1088 15.3392 46.1088C15.1837 46.1088 15.0154 46.1451 15.0201 45.8907C15.0549 44.1611 14.9191 42.4269 15.0827 40.703C15.2545 38.8984 16.2988 37.5867 17.7598 36.5668C18.904 35.7684 20.1921 35.2744 21.5439 34.928C21.7401 34.8781 21.8932 34.9076 22.0708 35.0144C24.452 36.4419 26.8401 36.4521 29.2248 35.0178C29.3629 34.9349 29.4894 34.8599 29.6669 34.9053C31.7417 35.4471 33.6576 36.2625 35.0489 37.9558C35.8357 38.9131 36.2558 40.0216 36.2778 41.2492C36.3045 42.7517 36.2767 44.2565 36.2917 45.7601C36.2952 46.0463 36.2082 46.1247 35.9262 46.1156C35.3344 46.0974 34.7403 46.1099 34.1473 46.1099C33.5381 46.1099 33.2549 45.7897 33.3489 45.1809C33.5868 43.6546 33.834 42.1294 34.0742 40.603C34.2552 39.4537 33.4847 38.5554 32.2953 38.5509C30.0684 38.5429 27.8404 38.5486 25.6135 38.5486H25.6147Z" fill="#0668E1" style="fill:#0668E1;fill:color(display-p3 0.0235 0.4078 0.8824);fill-opacity:1;"/>
<path d="M25.6143 39.4221C27.7703 39.4221 29.9264 39.4221 32.0825 39.4221C32.9957 39.4221 33.2928 39.7401 33.1628 40.6328C32.9528 42.0637 32.7079 43.4901 32.5002 44.9222C32.4619 45.1891 32.3552 45.2311 32.1138 45.2311C27.8167 45.2254 23.5185 45.2232 19.2215 45.2334C18.921 45.2334 18.8362 45.1357 18.7956 44.8609C18.5821 43.4015 18.3431 41.9456 18.1203 40.4874C18.0147 39.798 18.3582 39.4255 19.1031 39.4233C21.2731 39.4187 23.4443 39.4221 25.6143 39.4221Z" fill="#0668E1" style="fill:#0668E1;fill:color(display-p3 0.0235 0.4078 0.8824);fill-opacity:1;"/>
<path d="M29.4727 19.1241C29.4727 15.1935 32.7184 12.0023 36.7206 12C40.7496 11.9977 44.0104 15.1947 44.0011 19.1389C43.9918 23.0728 40.745 26.2402 36.7276 26.2334C32.7044 26.2266 29.4738 23.0604 29.4738 19.1241H29.4727Z" fill="#0668E1" style="fill:#0668E1;fill:color(display-p3 0.0235 0.4078 0.8824);fill-opacity:1;"/>
<path d="M25.6615 47.9963C23.4927 47.9963 21.3239 47.9963 19.1562 47.9963C18.583 47.9963 18.4948 47.9111 18.4959 47.3635C18.4994 46.0126 18.3393 46.1092 19.7782 46.1103C23.8699 46.1114 27.9615 46.1103 32.052 46.1103C32.7529 46.1103 32.7993 46.158 32.8039 46.8249C32.8121 48.0895 32.8678 47.9997 31.6029 47.9975C29.6221 47.9952 27.6412 47.9975 25.6615 47.9975V47.9963Z" fill="#0668E1" style="fill:#0668E1;fill:color(display-p3 0.0235 0.4078 0.8824);fill-opacity:1;"/>
<path d="M37.1768 29.8728C37.1768 31.7409 37.1768 33.6103 37.1768 35.4785C37.1768 35.6056 37.1826 35.7351 37.1652 35.86C37.1315 36.1065 36.9621 36.2439 36.723 36.2416C36.5014 36.2405 36.3459 36.1008 36.3053 35.8793C36.2832 35.7556 36.2914 35.625 36.2914 35.4978C36.2914 33.6273 36.2914 31.758 36.2914 29.8341C36.0767 29.9841 36.0175 30.1896 35.9108 30.3577C35.7622 30.5894 35.5707 30.7268 35.3004 30.5837C35.0207 30.4361 34.9894 30.1964 35.1402 29.9329C35.5359 29.2425 35.9247 28.5463 36.3366 27.8649C36.5478 27.5151 36.918 27.506 37.1327 27.8535C37.5644 28.5565 37.9705 29.2743 38.3755 29.9931C38.5066 30.226 38.4335 30.4417 38.2003 30.5757C37.9589 30.7143 37.7489 30.6314 37.6015 30.4179C37.4762 30.235 37.374 30.0352 37.2626 29.8432C37.2348 29.8534 37.2081 29.8637 37.1803 29.8739L37.1768 29.8728Z" fill="#0668E1" style="fill:#0668E1;fill:color(display-p3 0.0235 0.4078 0.8824);fill-opacity:1;"/>
<path d="M36.7285 25.0649C33.3737 25.057 30.6536 22.3847 30.6641 19.1049C30.6734 15.8319 33.4213 13.1642 36.7667 13.1778C40.1157 13.1914 42.8195 15.8739 42.7998 19.1628C42.7801 22.4335 40.0658 25.0729 36.7296 25.0649H36.7285Z" fill="white" style="fill:white;fill-opacity:1;"/>
<path d="M31.5793 19.1153C31.5816 16.3147 33.8804 14.057 36.7316 14.0547C39.5816 14.0524 41.8873 16.3045 41.9047 19.105C41.9221 21.9124 39.5978 24.1872 36.72 24.1804C33.8595 24.1736 31.5758 21.9238 31.5781 19.1164L31.5793 19.1153Z" fill="#0668E1" style="fill:#0668E1;fill:color(display-p3 0.0235 0.4078 0.8824);fill-opacity:1;"/>
<path d="M36.2963 17.9779C36.2963 17.5191 36.2951 17.1511 36.2963 16.7831C36.2974 16.4879 36.4274 16.2698 36.7465 16.2755C37.0633 16.2812 37.184 16.5015 37.1817 16.7968C37.1794 17.2068 37.2153 17.6201 37.1747 18.0267C37.1039 18.7229 37.2942 19.3271 37.7016 19.8904C37.8837 20.1425 38.0358 20.4196 38.1727 20.699C38.2841 20.9261 38.2435 21.1532 38.0009 21.2861C37.7607 21.4178 37.5449 21.3474 37.408 21.1203C37.0552 20.5366 36.6792 19.9642 36.381 19.3543C36.1582 18.8978 36.3473 18.3765 36.2951 17.979L36.2963 17.9779Z" fill="white" style="fill:white;fill-opacity:1;"/>
<path d="M35.2374 15.817C35.1736 16.0829 35.0088 16.2351 34.7454 16.2158C34.4576 16.1942 34.2974 16.0033 34.323 15.7261C34.3473 15.4682 34.5388 15.3114 34.7987 15.3319C35.0807 15.3546 35.2107 15.558 35.2374 15.817Z" fill="white" style="fill:white;fill-opacity:1;"/>
<path d="M40.6147 21.0518C40.5741 21.3165 40.436 21.4937 40.1645 21.4846C39.8941 21.4756 39.6852 21.3392 39.6957 21.0415C39.705 20.7825 39.8744 20.6098 40.1355 20.6143C40.4047 20.6189 40.5869 20.7745 40.6136 21.0518H40.6147Z" fill="white" style="fill:white;fill-opacity:1;"/>
<path d="M41.1346 19.1389C41.0905 19.4264 40.9164 19.5809 40.6321 19.5604C40.3687 19.5411 40.2028 19.3695 40.2155 19.1071C40.2283 18.8162 40.4232 18.6856 40.7134 18.6992C40.9977 18.7117 41.1125 18.8867 41.1357 19.14L41.1346 19.1389Z" fill="white" style="fill:white;fill-opacity:1;"/>
<path d="M37.1743 15.2322C37.1743 15.5287 37.0269 15.6832 36.76 15.6957C36.4664 15.7105 36.3016 15.548 36.297 15.2617C36.2923 14.997 36.4467 14.8277 36.7112 14.8152C37.0013 14.8016 37.1522 14.9754 37.1754 15.2322H37.1743Z" fill="white" style="fill:white;fill-opacity:1;"/>
<path d="M35.2351 22.4665C35.1748 22.7346 35.0448 22.9289 34.7408 22.9062C34.4739 22.8868 34.3021 22.7312 34.3219 22.463C34.3416 22.1938 34.4971 22.0074 34.8011 22.0279C35.0703 22.0461 35.2049 22.2154 35.2351 22.4665Z" fill="white" style="fill:white;fill-opacity:1;"/>
<path d="M37.1778 22.9758C37.1592 23.2735 37.0084 23.4224 36.7368 23.4235C36.4351 23.4246 36.2912 23.2428 36.297 22.9633C36.304 22.6998 36.4572 22.543 36.7334 22.543C37.0386 22.543 37.1604 22.7282 37.1766 22.977L37.1778 22.9758Z" fill="white" style="fill:white;fill-opacity:1;"/>
<path d="M33.2933 16.7461C33.5672 16.7711 33.768 16.8904 33.7703 17.1835C33.7714 17.438 33.6368 17.6243 33.3583 17.6289C33.0787 17.6334 32.886 17.4914 32.8791 17.2006C32.8733 16.9404 33.023 16.7847 33.2933 16.7461Z" fill="white" style="fill:white;fill-opacity:1;"/>
<path d="M40.172 17.6366C39.8901 17.6275 39.7183 17.4809 39.6974 17.2276C39.6731 16.9413 39.8611 16.7777 40.1396 16.7549C40.4157 16.7322 40.5805 16.9049 40.6014 17.1571C40.6258 17.4412 40.4401 17.59 40.1732 17.6366H40.172Z" fill="white" style="fill:white;fill-opacity:1;"/>
<path d="M33.2591 19.1121C33.2255 19.4166 33.056 19.5734 32.7729 19.5609C32.5083 19.5484 32.347 19.3791 32.3517 19.1178C32.3563 18.8292 32.5396 18.6906 32.8309 18.6986C33.1152 18.7054 33.2289 18.8792 33.2591 19.1133V19.1121Z" fill="white" style="fill:white;fill-opacity:1;"/>
<path d="M38.7124 22.9161C38.4234 22.8933 38.2668 22.7275 38.2656 22.4536C38.2656 22.1923 38.4281 22.031 38.695 22.0264C38.992 22.0219 39.1406 22.2162 39.1464 22.482C39.1522 22.7434 38.977 22.882 38.7124 22.9149V22.9161Z" fill="white" style="fill:white;fill-opacity:1;"/>
<path d="M38.6912 15.3184C38.943 15.3547 39.1368 15.4729 39.1484 15.7353C39.1611 16.0046 39.0196 16.2057 38.726 16.2159C38.4684 16.225 38.2792 16.0921 38.2699 15.8194C38.2606 15.5456 38.4127 15.3774 38.69 15.3195L38.6912 15.3184Z" fill="white" style="fill:white;fill-opacity:1;"/>
<path d="M33.7853 21.046C33.7517 21.3266 33.5915 21.4766 33.3269 21.4834C33.0531 21.4902 32.8837 21.3255 32.879 21.0653C32.8732 20.7767 33.0786 20.6154 33.3502 20.6143C33.6147 20.6143 33.7528 20.8029 33.7853 21.046Z" fill="white" style="fill:white;fill-opacity:1;"/>
</svg>
