<svg width="40" height="40" viewBox="0 0 40 40" fill="none" xmlns="http://www.w3.org/2000/svg">
<rect width="40" height="40" rx="8" fill="#E7F0FC" style="fill:#E7F0FC;fill:color(display-p3 0.9059 0.9412 0.9882);fill-opacity:1;"/>
<g clip-path="url(#clip0_22193_37584)">
<path d="M18.7794 9.29574C19.2052 7.60222 18.5879 6.81353 18.0311 6.39359C17.7669 5.77022 17.4654 5.32098 17.1572 5.1516C16.595 4.84259 15.9213 4.80893 15.4501 4.83586C15.5715 4.71475 15.8101 4.67061 15.8101 4.67061C15.518 4.62861 14.8657 4.90885 14.8657 4.90885C10.8012 3.3945 10.1624 9.18137 10.2479 10.5259C10.3325 11.8701 10.3214 13.4536 8.20666 14.5128C4.17189 16.5339 9.54757 24.1504 9.54757 24.1504C9.44496 23.064 14.6292 17.3306 17.3338 15.6136C17.9922 14.6762 18.2263 13.0205 18.2437 12.8901C18.13 14.2029 17.8978 14.9394 17.6903 15.354C18.923 14.257 19.1057 11.6226 18.7794 9.29574Z" fill="#1B1C17" style="fill:#1B1C17;fill:color(display-p3 0.1059 0.1098 0.0902);fill-opacity:1;"/>
<path d="M17.1718 15.6983C17.1854 15.7042 15.8658 16.3666 14.8734 16.1042C13.9398 15.858 13.3298 14.6875 13.3427 14.6849C13.7381 14.6091 13.8521 14.0837 13.8437 11.8262L14.0224 11.8602L17.0275 12.4356C17.0275 12.4356 16.9592 13.3502 16.9571 14.2116C16.9551 14.935 17.0006 15.6211 17.1718 15.6983Z" fill="#FFB27D" style="fill:#FFB27D;fill:color(display-p3 1.0000 0.6980 0.4902);fill-opacity:1;"/>
<path d="M17.0273 12.4387C17.0273 12.4387 16.959 13.3532 16.9569 14.2147C15.2753 14.1688 14.3864 12.6855 14.0222 11.8633L17.0273 12.4387Z" fill="#ED975D" style="fill:#ED975D;fill:color(display-p3 0.9294 0.5922 0.3647);fill-opacity:1;"/>
<path d="M29.2576 64.1643C29.405 64.611 29.0738 65.0712 28.5895 65.0932L27.4155 65.1462L26.1733 65.1829C25.8626 65.1922 25.5657 65.0611 25.3693 64.8282C24.3778 63.652 21.3258 59.7318 19.4744 54.0359C19.4223 53.8762 19.3674 53.7146 19.3093 53.5508C18.0866 50.1036 15.552 45.7766 14.2163 41.8599C14.0037 41.2361 13.8128 40.6489 13.6415 40.0931C13.5866 39.9151 13.5332 39.7402 13.4824 39.5681C12.498 36.2609 12.213 34.0896 11.9504 31.7695L21.5954 31.8442C21.5954 31.8442 23.626 47.1051 29.2576 64.1643Z" fill="#2A4E96" style="fill:#2A4E96;fill:color(display-p3 0.1647 0.3059 0.5882);fill-opacity:1;"/>
<path d="M20.2425 26.489C20.2182 30.9271 20.9158 32.8312 20.9158 32.8312C20.9158 32.8312 16.7862 34.86 11.8781 33.3665C11.8203 33.349 7.81417 32.4649 7.81417 32.4649C7.8963 32.2852 8.62673 29.2943 8.70671 29.1295C9.74302 26.9777 10.5299 26.0341 10.6527 25.3726C10.8808 24.1376 10.8857 22.8596 10.7721 21.6544C10.4727 18.4639 9.58201 15.8152 9.58201 15.8152C10.9193 15.521 12.1717 15.0041 13.5636 14.4994C13.8838 14.8849 14.8625 15.2882 15.7115 15.2698C16.6891 15.2489 17.0062 14.8442 16.9555 14.4023C17.9974 14.9629 18.8287 15.4925 18.8287 15.4925C19.7142 16.9797 21.51 18.4241 21.6401 20.7055C21.6722 21.2666 20.2433 26.3647 20.2425 26.489Z" fill="white" style="fill:white;fill-opacity:1;"/>
<path d="M11.9455 26.9822C11.5239 27.5593 10.7155 31.0663 8.70445 31.5072C9.74076 29.0076 10.5276 27.9117 10.6505 27.1432C10.8785 25.7087 10.8835 24.2242 10.7699 22.8242C11.4431 21.6833 11.9455 20.901 11.9455 20.901C11.9984 20.7165 13.0153 17.6759 13.3413 20.3938C13.6664 23.1124 12.4165 26.3368 11.9455 26.9822Z" fill="#5F9AA8" style="fill:#5F9AA8;fill:color(display-p3 0.3725 0.6039 0.6588);fill-opacity:1;"/>
<path d="M17.585 13.2516C17.585 13.2516 13.6063 13.3151 13.6035 10.9186C13.6008 8.52204 13.0855 6.91627 15.6257 6.77443C18.1659 6.63259 18.6604 7.54653 18.8626 8.34616C19.0647 9.14595 18.6199 13.1734 17.585 13.2516Z" fill="#FFB27D" style="fill:#FFB27D;fill:color(display-p3 1.0000 0.6980 0.4902);fill-opacity:1;"/>
<path d="M17.4414 6.7156C17.4414 6.7156 16.352 9.52717 14.6803 9.9429C13.0084 10.3586 12.2832 9.92546 12.2832 9.92546C12.2832 9.92546 13.5656 8.94045 13.8317 7.22084C13.8317 7.22084 16.6197 5.37744 17.4414 6.7156Z" fill="#1B1C17" style="fill:#1B1C17;fill:color(display-p3 0.1059 0.1098 0.0902);fill-opacity:1;"/>
<path d="M17.1691 6.94479C17.1691 6.94479 17.9826 7.57251 18.1809 8.18279C18.3793 8.79308 18.4685 10.0494 18.8472 10.0066C18.8472 10.0066 19.6679 8.09558 18.7456 7.01456C17.7675 5.8682 17.1691 6.94479 17.1691 6.94479Z" fill="#1B1C17" style="fill:#1B1C17;fill:color(display-p3 0.1059 0.1098 0.0902);fill-opacity:1;"/>
<path d="M23.8473 29.5684L25.7266 35.1084L24.6547 35.524L21.5476 30.6293L23.8473 29.5684Z" fill="#FFB27D" style="fill:#FFB27D;fill:color(display-p3 1.0000 0.6980 0.4902);fill-opacity:1;"/>
<path d="M18.7827 15.1641C18.7827 15.1641 20.9985 16.0143 21.6398 17.3399C22.2811 18.6654 23.2522 27.5569 23.6389 28.47C24.0256 29.3831 24.3164 30.1061 24.3164 30.1061C24.3164 30.1061 23.1992 31.0163 22.0757 31.0833C20.9521 31.1503 18.7827 15.1641 18.7827 15.1641Z" fill="#0374FF" style="fill:#0374FF;fill:color(display-p3 0.0106 0.4533 1.0000);fill-opacity:1;"/>
<path d="M16.959 14.4023C16.959 14.4023 19.261 19.9012 19.3287 21.0142C19.3963 22.127 19.5995 39.2126 19.5995 39.2126C19.5995 39.2126 19.4641 39.9982 21.0212 39.6708C22.5783 39.3435 22.9844 39.0162 22.9844 39.0162C22.9844 39.0162 21.495 28.4768 21.9012 24.8109C22.3075 21.145 18.7871 15.1662 18.7871 15.1662L16.959 14.4023Z" fill="#0374FF" style="fill:#0374FF;fill:color(display-p3 0.0106 0.4533 1.0000);fill-opacity:1;"/>
<path d="M27.418 65.1476L26.0693 65.1875C25.8282 65.1947 25.5973 65.0943 25.4438 64.9145C24.5372 63.853 21.3755 59.879 19.4769 54.0373C19.4248 53.8776 19.3699 53.716 19.3117 53.5522C18.0891 50.105 15.5544 45.778 14.2187 41.8613C14.0061 41.2375 13.8152 40.6503 13.6439 40.0945C13.5891 39.9165 13.5356 39.7416 13.4848 39.5695L14.9051 38.5273C14.9051 38.5273 19.1695 45.2044 20.4896 51.4882C21.6365 56.9465 26.2292 63.5143 27.418 65.1476Z" fill="#1E3D70" style="fill:#1E3D70;fill:color(display-p3 0.1176 0.2392 0.4392);fill-opacity:1;"/>
<path d="M15.0483 52.0741C15.0714 54.9649 14.9297 61.4083 14.5658 64.558C14.5325 64.8464 14.2805 65.0638 13.9805 65.0638H12.974C12.5499 65.0638 12.2326 65.0608 12.0218 65.0578C11.8393 65.0553 11.6835 64.9287 11.6484 64.7555C10.6476 59.8312 9.93128 55.74 9.40696 52.205C8.96824 49.2461 8.57835 46.7094 8.27841 44.5257C7.97649 42.3281 7.76659 40.4879 7.6915 38.9331C7.67995 38.6884 7.67116 38.4501 7.66649 38.2189C7.66166 37.9866 7.66032 37.7608 7.66238 37.5415L15.9961 36.7559C15.8912 42.1101 15.0348 50.2981 15.0483 52.0741Z" fill="#2A4E96" style="fill:#2A4E96;fill:color(display-p3 0.1647 0.3059 0.5882);fill-opacity:1;"/>
<path d="M12.9727 65.0642C12.5916 65.0642 12.2968 65.0619 12.0879 65.0592C11.8663 65.0564 11.6768 64.9029 11.634 64.6926C10.6401 59.7965 9.92775 55.7252 9.40557 52.2055C8.96685 49.2466 8.57696 46.7099 8.27702 44.5261C7.9751 42.3285 7.7652 40.4884 7.69011 38.9336L10.748 40.673C10.748 40.673 8.79627 41.3387 9.54086 46.3793C10.2857 51.42 11.9362 64.3507 12.9727 65.0642Z" fill="#1E3D70" style="fill:#1E3D70;fill:color(display-p3 0.1176 0.2392 0.4392);fill-opacity:1;"/>
<path d="M13.3671 38.8844C13.3671 38.8844 12.7801 40.9354 10.7491 40.6735C8.71815 40.4117 5.83015 39.2334 5.83015 39.2334C5.83015 39.2334 6.69808 36.5816 7.77711 33.0977C9.08377 28.8799 10.701 23.4426 11.4634 20.0131C11.6772 19.052 11.8235 18.2495 11.8776 17.6748L13.5626 14.5137C13.5626 14.5137 16.075 19.9661 16.2104 21.3407C16.3457 22.7154 13.3671 38.8844 13.3671 38.8844Z" fill="#0374FF" style="fill:#0374FF;fill:color(display-p3 0.0106 0.4533 1.0000);fill-opacity:1;"/>
<path d="M11.3335 21.1339L13.5574 14.5117C13.5514 14.5144 10.7487 15.3181 9.33887 16.0069C9.33887 16.0069 8.45763 17.1054 7.91242 19.6399C7.91242 19.6399 7.33636 25.7247 8.6226 27.9504C8.6226 27.9504 12.6846 28.736 19.1836 26.5757V25.1356C19.1836 25.1356 12.0752 25.4956 10.6197 25.6592L11.3335 21.1339Z" fill="#FFB27D" style="fill:#FFB27D;fill:color(display-p3 1.0000 0.6980 0.4902);fill-opacity:1;"/>
<path d="M13.2755 24.2196C13.1849 26.4454 12.6432 30.7658 7.81425 33.0786C7.80143 33.0845 7.78861 33.0911 7.77571 33.0963C9.08237 28.8785 10.6996 23.4412 11.462 20.0117C12.3487 21.2934 13.3249 22.9942 13.2755 24.2196Z" fill="#0668E1" style="fill:#0668E1;fill:color(display-p3 0.0235 0.4078 0.8824);fill-opacity:1;"/>
<path d="M13.5664 14.5117C13.5664 14.5117 9.44396 14.7926 8.45101 16.931C7.45814 19.0694 7.14213 26.183 8.4059 28.2777C8.4059 28.2777 10.1457 28.7569 13.2229 28.2004C13.2607 28.1936 13.2986 28.1866 13.3367 28.1796C13.3367 28.1796 14.3183 25.8556 13.4382 25.3974C13.4382 25.3974 10.8431 25.5283 11.1139 24.6991C11.3846 23.87 13.5664 14.5117 13.5664 14.5117Z" fill="#0374FF" style="fill:#0374FF;fill:color(display-p3 0.0106 0.4533 1.0000);fill-opacity:1;"/>
<path d="M23.9023 26.0269L23.7809 26.4043L17.0164 24.3695C17.0164 24.3695 16.9262 24.2701 16.9707 24.1382C17.0199 23.9925 17.1378 23.9922 17.1378 23.9922L23.9023 26.0269Z" fill="#263238" style="fill:#263238;fill:color(display-p3 0.1490 0.1961 0.2196);fill-opacity:1;"/>
<path d="M24.3906 26.3839L23.9014 26.0273L23.78 26.4047L24.3906 26.3839Z" fill="#263238" style="fill:#263238;fill:color(display-p3 0.1490 0.1961 0.2196);fill-opacity:1;"/>
<path d="M25.4653 34.959C25.4653 34.959 27.1812 35.8759 27.407 36.5745C27.6328 37.2733 27.4777 38.7361 27.2053 38.7142C26.9329 38.6924 26.5264 37.1422 26.3006 37.033C26.0748 36.9239 25.7587 36.5967 25.7587 36.8367C25.7587 37.0768 25.9845 37.5134 25.8716 37.5789C25.7587 37.6444 25.3975 36.9679 25.1491 36.8367C24.9007 36.7056 24.7964 35.626 24.555 35.3362C24.3137 35.0464 25.4653 34.959 25.4653 34.959Z" fill="#FFB27D" style="fill:#FFB27D;fill:color(display-p3 1.0000 0.6980 0.4902);fill-opacity:1;"/>
<path d="M19.1864 25.1357C19.1864 25.1357 20.721 24.2218 21.3648 24.3624C22.0086 24.503 23.6493 25.652 22.8601 25.9008C22.0708 26.1496 21.4318 25.8886 21.1283 26.0693C20.8248 26.25 20.6007 26.5803 19.1863 26.5758C17.7721 26.5713 19.1864 25.1357 19.1864 25.1357Z" fill="#FFB27D" style="fill:#FFB27D;fill:color(display-p3 1.0000 0.6980 0.4902);fill-opacity:1;"/>
</g>
<defs>
<clipPath id="clip0_22193_37584">
<rect width="34" height="40" fill="white" style="fill:white;fill-opacity:1;" transform="translate(3.00391)"/>
</clipPath>
</defs>
</svg>
