<svg width="32" height="32" viewBox="0 0 32 32" fill="none" xmlns="http://www.w3.org/2000/svg">
<path d="M17.0268 9.59972V15.0944L21.4076 17.8277C21.5847 17.9337 21.7398 18.0753 21.8637 18.2444C21.9877 18.4134 22.078 18.6064 22.1294 18.8121C22.1808 19.0178 22.1923 19.2321 22.1632 19.4425C22.1341 19.6528 22.065 19.8551 21.9599 20.0374C21.8548 20.2197 21.7158 20.3784 21.5511 20.5042C21.3863 20.63 21.1992 20.7204 21.0005 20.7701C20.8018 20.8199 20.5955 20.828 20.3938 20.7939C20.1921 20.7598 19.9989 20.6843 19.8255 20.5717L14.6972 17.3717C14.4693 17.2296 14.2807 17.0286 14.1497 16.7881C14.0187 16.5477 13.9498 16.2761 13.9498 15.9997V9.59972C13.9498 9.17537 14.1119 8.76841 14.4004 8.46835C14.6889 8.16829 15.0802 7.99972 15.4883 7.99972C15.8963 7.99972 16.2876 8.16829 16.5761 8.46835C16.8647 8.76841 17.0268 9.17537 17.0268 9.59972ZM27.7961 5.86639C27.3881 5.86639 26.9968 6.03496 26.7083 6.33502C26.4198 6.63508 26.2577 7.04204 26.2577 7.46639V8.44905C25.7179 7.82639 25.1576 7.20772 24.5538 6.57172C22.7719 4.71875 20.5044 3.45298 18.0347 2.93255C15.565 2.41213 13.0026 2.66013 10.6677 3.64558C8.33273 4.63103 6.3288 6.31021 4.90626 8.47333C3.48372 10.6364 2.70567 13.1876 2.6693 15.8079C2.63294 18.4283 3.33989 21.0017 4.70182 23.2066C6.06374 25.4115 8.02025 27.1501 10.3269 28.2052C12.6335 29.2603 15.1879 29.5851 17.6711 29.1391C20.1542 28.693 22.4558 27.4958 24.2884 25.697C24.5852 25.4057 24.7586 25.0036 24.7704 24.5792C24.7822 24.1549 24.6314 23.7431 24.3512 23.4344C24.071 23.1257 23.6844 22.9454 23.2764 22.9331C22.8684 22.9208 22.4724 23.0777 22.1756 23.369C20.783 24.7358 19.0341 25.6455 17.1473 25.9847C15.2605 26.3238 13.3195 26.0773 11.5666 25.2759C9.81378 24.4745 8.32681 23.1538 7.29146 21.4787C6.25611 19.8036 5.71828 17.8484 5.74514 15.8572C5.772 13.8661 6.36236 11.9274 7.44249 10.2831C8.52261 8.63888 10.0446 7.36205 11.8184 6.61212C13.5922 5.86218 15.5391 5.67238 17.416 6.06643C19.2929 6.46047 21.0166 7.42089 22.3717 8.82772C23.1307 9.62639 23.8217 10.3997 24.4923 11.1997H22.6679C22.2598 11.1997 21.8685 11.3683 21.58 11.6683C21.2915 11.9684 21.1294 12.3754 21.1294 12.7997C21.1294 13.2241 21.2915 13.631 21.58 13.9311C21.8685 14.2311 22.2598 14.3997 22.6679 14.3997H27.7961C28.2042 14.3997 28.5955 14.2311 28.884 13.9311C29.1725 13.631 29.3346 13.2241 29.3346 12.7997V7.46639C29.3346 7.04204 29.1725 6.63508 28.884 6.33502C28.5955 6.03496 28.2042 5.86639 27.7961 5.86639Z" fill="#0668E1" style="fill:#0668E1;fill:color(display-p3 0.0235 0.4078 0.8824);fill-opacity:1;"/>
</svg>
