<svg width="60" height="60" viewBox="0 0 60 60" fill="none" xmlns="http://www.w3.org/2000/svg">
<rect width="60" height="60" rx="12" fill="#E6F0FC" style="fill:#E6F0FC;fill:color(display-p3 0.9020 0.9412 0.9882);fill-opacity:1;"/>
<path d="M45.9963 29.9982C45.9963 25.7552 44.3108 21.686 41.3106 18.6858C38.3103 15.6855 34.2411 14 29.9982 14C25.7552 14 21.686 15.6855 18.6858 18.6858C15.6855 21.686 14 25.7552 14 29.9982L14.014 30.6901L14.066 31.454C14.2491 33.4658 14.8116 35.4248 15.7238 37.2273L15.8498 37.4673L14.03 44.7545L14.002 44.9204V45.0844C14.0147 45.2285 14.0585 45.3681 14.1304 45.4936C14.2023 45.6192 14.3006 45.7276 14.4185 45.8114C14.5363 45.8952 14.671 45.9525 14.8132 45.9793C14.9553 46.006 15.1016 46.0016 15.2419 45.9663L22.531 44.1465L22.771 44.2745C25.2103 45.5097 27.9254 46.0991 30.6573 45.9864C33.3892 45.8738 36.0466 45.0628 38.3759 43.631C40.7052 42.1992 42.6287 40.1943 43.9627 37.8077C45.2968 35.4211 45.9969 32.7323 45.9963 29.9982ZM21.9991 25.9986C21.9991 25.4682 22.2098 24.9596 22.5848 24.5846C22.9598 24.2095 23.4685 23.9988 23.9988 23.9988H29.9982C30.5285 23.9988 31.0372 24.2095 31.4122 24.5846C31.7872 24.9596 31.9979 25.4682 31.9979 25.9986V33.9977C31.9979 34.5281 31.7872 35.0367 31.4122 35.4117C31.0372 35.7868 30.5285 35.9975 29.9982 35.9975H23.9988C23.4685 35.9975 22.9598 35.7868 22.5848 35.4117C22.2098 35.0367 21.9991 34.5281 21.9991 33.9977V25.9986ZM36.2894 25.7067C36.4292 25.5666 36.6073 25.4711 36.8013 25.4323C36.9953 25.3935 37.1965 25.4131 37.3793 25.4887C37.5622 25.5643 37.7185 25.6924 37.8285 25.8569C37.9385 26.0213 37.9972 26.2147 37.9972 26.4126V33.5837C37.9972 33.7816 37.9385 33.975 37.8285 34.1394C37.7185 34.3039 37.5622 34.432 37.3793 34.5076C37.1965 34.5832 36.9953 34.6028 36.8013 34.564C36.6073 34.5252 36.4292 34.4297 36.2894 34.2897L33.9977 31.9979V27.9984L36.2894 25.7067Z" fill="#0668E1" style="fill:#0668E1;fill:color(display-p3 0.0235 0.4078 0.8824);fill-opacity:1;"/>
</svg>
