<svg width="60" height="60" viewBox="0 0 60 60" fill="none" xmlns="http://www.w3.org/2000/svg">
<rect width="60" height="60" rx="12" fill="#E6F0FC" style="fill:#E6F0FC;fill:color(display-p3 0.9020 0.9412 0.9882);fill-opacity:1;"/>
<path d="M35.4008 23.7002C35.4008 22.5067 34.9267 21.3621 34.0828 20.5182C33.2388 19.6743 32.0943 19.2002 30.9008 19.2002H20.1008C18.9073 19.2002 17.7627 19.6743 16.9188 20.5182C16.0749 21.3621 15.6008 22.5067 15.6008 23.7002V30.4628C17.2266 29.1203 19.2385 28.3319 21.3435 28.2125C23.4485 28.093 25.5367 28.6488 27.3039 29.7987C29.0711 30.9487 30.425 32.6328 31.1685 34.6058C31.9119 36.5788 32.0061 38.7376 31.4372 40.7678C32.5299 40.6366 33.5366 40.1096 34.267 39.2863C34.9973 38.4631 35.4007 37.4007 35.4008 36.3002V23.7002ZM37.2008 26.2742V33.7478L42.176 37.9778C42.3724 38.1449 42.6126 38.2523 42.8681 38.2872C43.1236 38.3221 43.3837 38.2831 43.6178 38.1747C43.8518 38.0664 44.0499 37.8934 44.1887 37.676C44.3274 37.4586 44.401 37.2061 44.4008 36.9482V23.1476C44.4003 22.8912 44.3269 22.6403 44.1891 22.4241C44.0513 22.208 43.8547 22.0355 43.6225 21.9269C43.3903 21.8184 43.1319 21.7782 42.8776 21.811C42.6234 21.8439 42.3838 21.9485 42.1868 22.1126L37.2008 26.2742ZM13.8008 38.1002C13.8008 40.2484 14.6542 42.3087 16.1732 43.8278C17.6923 45.3468 19.7525 46.2002 21.9008 46.2002C24.049 46.2002 26.1093 45.3468 27.6283 43.8278C29.1474 42.3087 30.0008 40.2484 30.0008 38.1002C30.0008 35.9519 29.1474 33.8917 27.6283 32.3726C26.1093 30.8536 24.049 30.0002 21.9008 30.0002C19.7525 30.0002 17.6923 30.8536 16.1732 32.3726C14.6542 33.8917 13.8008 35.9519 13.8008 38.1002ZM25.5008 32.7002C25.7395 32.7002 25.9684 32.795 26.1372 32.9638C26.306 33.1326 26.4008 33.3615 26.4008 33.6002V36.3002C26.4008 36.5389 26.306 36.7678 26.1372 36.9366C25.9684 37.1054 25.7395 37.2002 25.5008 37.2002H22.8008C22.5621 37.2002 22.3332 37.1054 22.1644 36.9366C21.9956 36.7678 21.9008 36.5389 21.9008 36.3002C21.9008 36.0615 21.9956 35.8326 22.1644 35.6638C22.3332 35.495 22.5621 35.4002 22.8008 35.4002H23.6432C23.1286 35.1152 22.5519 34.9607 21.9638 34.9502C21.4802 34.9417 20.9998 35.0307 20.5514 35.2119C20.103 35.3931 19.6957 35.6629 19.3538 36.005C19.1828 36.1622 18.9577 36.2471 18.7255 36.2422C18.4933 36.2372 18.272 36.1426 18.1079 35.9783C17.9438 35.814 17.8496 35.5926 17.8449 35.3604C17.8403 35.1282 17.9256 34.9032 18.083 34.7324C18.9234 33.8919 20.0177 33.3522 21.1962 33.197C22.3746 33.0417 23.5713 33.2796 24.6008 33.8738V33.6002C24.6008 33.3615 24.6956 33.1326 24.8644 32.9638C25.0332 32.795 25.2621 32.7002 25.5008 32.7002ZM23.924 42.6578C23.1633 42.965 22.3425 43.0949 21.5241 43.0375C20.7057 42.9801 19.9112 42.737 19.2008 42.3266V42.6002C19.2008 42.8389 19.106 43.0678 18.9372 43.2366C18.7684 43.4054 18.5395 43.5002 18.3008 43.5002C18.0621 43.5002 17.8332 43.4054 17.6644 43.2366C17.4956 43.0678 17.4008 42.8389 17.4008 42.6002V39.9002C17.4008 39.6615 17.4956 39.4326 17.6644 39.2638C17.8332 39.095 18.0621 39.0002 18.3008 39.0002H21.0008C21.2395 39.0002 21.4684 39.095 21.6372 39.2638C21.806 39.4326 21.9008 39.6615 21.9008 39.9002C21.9008 40.1389 21.806 40.3678 21.6372 40.5366C21.4684 40.7054 21.2395 40.8002 21.0008 40.8002H20.1584C20.673 41.0852 21.2496 41.2397 21.8378 41.2502C22.3214 41.2587 22.8017 41.1697 23.2502 40.9885C23.6986 40.8073 24.1059 40.5375 24.4478 40.1954C24.6188 40.0382 24.8439 39.9533 25.0761 39.9582C25.3083 39.9632 25.5295 40.0578 25.6937 40.2221C25.8578 40.3864 25.952 40.6078 25.9566 40.84C25.9613 41.0722 25.876 41.2972 25.7186 41.468C25.2062 41.9804 24.5958 42.3862 23.924 42.6578Z" fill="#0668E1" style="fill:#0668E1;fill:color(display-p3 0.0235 0.4078 0.8824);fill-opacity:1;"/>
</svg>
