<svg width="32" height="32" viewBox="0 0 32 32" fill="none" xmlns="http://www.w3.org/2000/svg">
<path d="M30.2185 15.9979C30.2185 12.2264 28.7203 8.60933 26.0534 5.94246C23.3865 3.27558 19.7695 1.77734 15.9979 1.77734C12.2264 1.77734 8.60933 3.27558 5.94246 5.94246C3.27558 8.60933 1.77734 12.2264 1.77734 15.9979L1.78979 16.613L1.836 17.292C1.99879 19.0803 2.4988 20.8216 3.30961 22.4239L3.4216 22.6372L1.80401 29.1146L1.77912 29.2622V29.4079C1.79041 29.536 1.82936 29.6601 1.89327 29.7717C1.95718 29.8833 2.04454 29.9796 2.14932 30.0542C2.25409 30.1287 2.37379 30.1796 2.50015 30.2034C2.62651 30.2271 2.75652 30.2232 2.88122 30.1918L9.36047 28.5743L9.57378 28.688C11.742 29.7859 14.1555 30.3098 16.5838 30.2097C19.0121 30.1096 21.3743 29.3888 23.4448 28.116C25.5153 26.8433 27.2251 25.0612 28.4109 22.9397C29.5967 20.8183 30.2191 18.4283 30.2185 15.9979ZM8.88764 12.4428C8.88764 11.9713 9.07492 11.5192 9.40828 11.1858C9.74163 10.8525 10.1938 10.6652 10.6652 10.6652H15.9979C16.4694 10.6652 16.9215 10.8525 17.2549 11.1858C17.5882 11.5192 17.7755 11.9713 17.7755 12.4428V19.5531C17.7755 20.0245 17.5882 20.4766 17.2549 20.81C16.9215 21.1434 16.4694 21.3306 15.9979 21.3306H10.6652C10.1938 21.3306 9.74163 21.1434 9.40828 20.81C9.07492 20.4766 8.88764 20.0245 8.88764 19.5531V12.4428ZM21.5902 12.1833C21.7144 12.0587 21.8727 11.9739 22.0452 11.9394C22.2176 11.9049 22.3964 11.9224 22.559 11.9895C22.7215 12.0567 22.8604 12.1706 22.9582 12.3168C23.056 12.463 23.1082 12.6349 23.1082 12.8107V19.1851C23.1082 19.361 23.056 19.5329 22.9582 19.6791C22.8604 19.8252 22.7215 19.9391 22.559 20.0063C22.3964 20.0735 22.2176 20.0909 22.0452 20.0565C21.8727 20.022 21.7144 19.9371 21.5902 19.8126L19.5531 17.7755V14.2204L21.5902 12.1833Z" fill="#0668E1" style="fill:#0668E1;fill:color(display-p3 0.0235 0.4078 0.8824);fill-opacity:1;"/>
</svg>
