<svg width="32" height="32" viewBox="0 0 32 32" fill="none" xmlns="http://www.w3.org/2000/svg">
<g clip-path="url(#clip0_19297_60063)">
<path d="M28.8659 13.3997C28.8659 13.9997 28.8659 14.533 28.8659 15.133C28.5992 15.133 28.3326 15.133 28.1326 15.133C27.5326 15.133 27.1992 15.4663 27.1326 16.133C27.1326 16.6663 27.1326 17.2663 27.1326 17.7997C27.1326 19.133 26.0659 20.1997 24.7325 20.2663C24.3992 20.2663 24.0659 20.2663 23.7325 20.2663C23.7325 20.533 23.7325 20.7997 23.7325 21.0663C23.7325 22.5997 22.6659 23.6663 21.1326 23.6663C19.8659 23.6663 18.5992 23.6663 17.3326 23.6663C17.1992 23.6663 17.0659 23.6663 16.8659 23.6663C16.8659 24.8663 16.8659 25.9997 16.8659 27.1997C17.0659 27.1997 17.2659 27.1997 17.3992 27.1997C18.1992 27.133 18.9326 27.3997 19.5326 27.933C19.5992 27.933 19.5992 27.9997 19.6659 27.9997C19.9992 28.2663 20.3326 28.5997 20.7325 28.733C21.1326 28.8663 21.5326 28.8663 21.9992 28.933C21.9992 29.4663 21.9992 29.9997 21.9992 30.533C21.1992 30.5997 20.3992 30.5997 19.7325 30.133C19.3326 29.8663 18.9326 29.533 18.5326 29.1997C18.1992 28.933 17.8659 28.8663 17.4659 28.8663C16.5326 28.8663 15.5325 28.8663 14.5992 28.8663C14.1992 28.8663 13.7992 28.9997 13.5326 29.2663C13.1992 29.533 12.8659 29.7997 12.5326 30.0663C11.7992 30.5997 10.9326 30.733 10.0659 30.5997C10.0659 30.0663 10.0659 29.533 10.0659 28.933C10.1992 28.933 10.3326 28.8663 10.5326 28.933C11.0659 28.9997 11.4659 28.7997 11.8659 28.4663C12.0659 28.333 12.2659 28.133 12.3992 27.9997C13.0659 27.4663 13.8659 27.133 14.7326 27.1997C14.8659 27.1997 14.9992 27.1997 15.1992 27.1997C15.1992 25.9997 15.1992 24.8663 15.1992 23.6663C15.0659 23.6663 14.9326 23.6663 14.7992 23.6663C13.5326 23.6663 12.3326 23.6663 11.0659 23.6663C9.46589 23.6663 8.39922 22.5997 8.39922 20.9997C8.39922 20.7997 8.39922 20.533 8.39922 20.2663C8.13255 20.2663 7.86588 20.2663 7.59922 20.2663C5.99922 20.2663 4.93255 19.1997 4.93255 17.5997C4.93255 17.133 4.93255 16.5997 4.93255 16.133C4.93255 15.4663 4.59922 15.133 3.93255 15.133C3.66589 15.133 3.46589 15.133 3.19922 15.133C3.19922 14.533 3.19922 13.9997 3.19922 13.4663C4.79922 12.933 6.53255 14.133 6.59922 15.7997C6.59922 16.3997 6.59922 16.9997 6.59922 17.5997C6.59922 18.1997 6.93255 18.533 7.53255 18.533C9.99922 18.533 12.4659 18.533 14.9326 18.533C14.9992 18.533 15.1326 18.533 15.1992 18.4663C15.1992 17.933 15.1992 17.3997 15.1992 16.7997C15.0659 16.7997 14.9326 16.7997 14.7326 16.7997C13.5326 16.7997 12.2659 16.7997 11.0659 16.7997C9.26589 16.8663 8.06589 15.1997 8.39922 13.733C8.99922 10.3997 9.53255 6.99967 10.0659 3.66634C10.2659 2.13301 11.2659 1.33301 12.7326 1.33301C14.9326 1.33301 17.0659 1.33301 19.2659 1.33301C20.7992 1.33301 21.7992 2.19967 21.9992 3.66634C22.5326 6.99967 23.1326 10.3997 23.6659 13.733C23.9326 15.3997 22.7992 16.7997 21.0659 16.7997C19.7992 16.7997 18.5992 16.7997 17.3326 16.7997C17.1992 16.7997 17.0659 16.7997 16.8659 16.7997C16.8659 17.3997 16.8659 17.933 16.8659 18.4663C16.9992 18.4663 17.1326 18.4663 17.2659 18.4663C19.6659 18.4663 21.9992 18.4663 24.3992 18.4663C25.1326 18.4663 25.4659 18.133 25.4659 17.3997C25.4659 16.8663 25.4659 16.333 25.4659 15.7997C25.4659 14.4663 26.5326 13.3997 27.8659 13.333C28.1992 13.333 28.5326 13.3997 28.8659 13.3997Z" fill="#0668E1" style="fill:#0668E1;fill:color(display-p3 0.0235 0.4078 0.8824);fill-opacity:1;"/>
</g>
<defs>
<clipPath id="clip0_19297_60063">
<rect width="32" height="32" fill="white" style="fill:white;fill-opacity:1;"/>
</clipPath>
</defs>
</svg>
