<svg width="32" height="32" viewBox="0 0 32 32" fill="none" xmlns="http://www.w3.org/2000/svg">
<path d="M9.86068 20.5961C9.86068 18.4752 9.85774 16.3543 9.86068 14.2334C9.86361 12.9309 10.6089 12.1887 11.9175 12.1858C14.6491 12.1829 17.3837 12.1829 20.1153 12.1858C21.3916 12.1887 22.1515 12.9397 22.1515 14.204C22.1545 18.5104 22.1545 22.8197 22.1515 27.1261C22.1515 28.364 21.3916 29.1267 20.1446 29.1297C17.3954 29.1385 14.6462 29.1355 11.8969 29.1297C10.6177 29.1267 9.86361 28.3728 9.86068 27.1056C9.85774 24.9348 9.86068 22.7669 9.86068 20.5961ZM11.7356 23.4534C14.6021 23.4534 17.4159 23.4534 20.2268 23.4534C20.4703 21.8634 19.4287 19.9156 18.0057 19.2937C17.8883 19.2408 17.6947 19.2702 17.5714 19.3289C16.5386 19.8275 15.5176 19.8305 14.473 19.3523C14.3058 19.2761 14.0241 19.279 13.8716 19.3699C12.3517 20.2764 11.7091 21.6581 11.7356 23.4534ZM18.3578 16.4452C18.3636 15.1222 17.3103 14.0574 15.9988 14.0632C14.7048 14.0691 13.6574 15.1193 13.6544 16.413C13.6515 17.7125 14.6843 18.7568 15.99 18.7715C17.281 18.7862 18.3519 17.733 18.3578 16.4452ZM15.9548 25.8148C17.3191 25.8148 18.6864 25.8119 20.0507 25.8177C20.3823 25.8177 20.7109 25.7943 20.708 25.3689C20.708 24.9524 20.3881 24.9025 20.0507 24.9025C17.3514 24.9025 14.655 24.9025 11.9556 24.9025C11.6211 24.9025 11.3013 24.9494 11.2984 25.366C11.2954 25.7913 11.6211 25.8207 11.9556 25.8177C13.2906 25.8119 14.6227 25.8148 15.9548 25.8148ZM14.1239 26.7799C13.3786 26.7799 12.6304 26.7829 11.8852 26.777C11.5448 26.7741 11.2984 26.8943 11.3013 27.264C11.3042 27.6101 11.5536 27.7275 11.8647 27.7275C13.3581 27.7304 14.8486 27.7304 16.3421 27.7275C16.6736 27.7275 16.9406 27.6072 16.9259 27.2346C16.9113 26.8709 16.6501 26.7682 16.3127 26.7741C15.5851 26.7858 14.8545 26.7799 14.1239 26.7799Z" fill="#0668E1" style="fill:#0668E1;fill:color(display-p3 0.0235 0.4078 0.8824);fill-opacity:1;"/>
<path d="M29.0683 26.3629C29.1093 24.8844 28.6047 23.7814 27.4633 22.9747C27.2491 22.8251 27.0848 22.8222 26.8501 22.9483C26.0315 23.3884 25.1601 23.447 24.318 23.0539C23.8867 22.8515 23.5434 22.7723 23.1444 23.2476C23.1444 20.8773 23.1444 18.6156 23.1444 16.3157C23.3087 16.3069 23.4671 16.2952 23.6256 16.2952C25.3479 16.2922 27.0731 16.2922 28.7954 16.2952C30.0336 16.2981 30.6615 16.9141 30.6615 18.1433C30.6644 21.7045 30.6644 25.2658 30.6615 28.8271C30.6615 30.0679 30.0512 30.6634 28.7983 30.6634C26.5215 30.6634 24.2446 30.6605 21.9707 30.6664C21.4602 30.6664 21.023 30.5256 20.6445 30.0855C22.6162 29.5986 23.2383 28.2492 23.0886 26.3659C25.1014 26.3629 27.0584 26.3629 29.0683 26.3629ZM27.4545 20.361C27.4487 19.2727 26.5714 18.3897 25.4799 18.378C24.3796 18.3662 23.4554 19.2844 23.4612 20.3757C23.4671 21.4552 24.362 22.347 25.4476 22.3587C26.5538 22.3734 27.4575 21.4699 27.4545 20.361Z" fill="#0668E1" style="fill:#0668E1;fill:color(display-p3 0.0235 0.4078 0.8824);fill-opacity:1;"/>
<path d="M2.932 26.3365C4.91837 26.3365 6.86366 26.3365 8.90284 26.3365C8.90284 26.6152 8.89991 26.8499 8.90284 27.0816C8.91458 28.61 9.68331 29.6044 11.165 30.0122C11.209 30.0239 11.2472 30.0562 11.3176 30.0943C11.033 30.4933 10.6369 30.6517 10.1909 30.6546C7.75269 30.6634 5.31447 30.6693 2.87332 30.6517C1.99603 30.6458 1.35347 29.9506 1.34173 29.0324C1.32413 27.8678 1.33586 26.7003 1.33586 25.5357C1.33586 23.0745 1.33293 20.6162 1.33586 18.155C1.3388 16.9229 1.96376 16.2952 3.1902 16.2922C4.93011 16.2893 6.67001 16.2893 8.40992 16.2922C8.55369 16.2922 8.69453 16.3069 8.87057 16.3186C8.87057 18.6009 8.87057 20.8568 8.87057 23.2329C8.41285 22.6433 7.98741 22.9425 7.51796 23.1214C6.72283 23.4236 5.91302 23.3649 5.16483 22.9483C4.90957 22.8075 4.73352 22.8281 4.51053 22.9894C3.37505 23.8079 2.89092 24.9167 2.932 26.3365ZM4.54574 20.3757C4.54868 21.4611 5.42597 22.347 6.51744 22.3616C7.61772 22.3763 8.54195 21.4611 8.53609 20.3639C8.53022 19.2815 7.64119 18.3897 6.55558 18.378C5.45237 18.3662 4.54281 19.2668 4.54574 20.3757Z" fill="#0668E1" style="fill:#0668E1;fill:color(display-p3 0.0235 0.4078 0.8824);fill-opacity:1;"/>
<path d="M17.0183 10.2909C17.0183 9.61619 17.0183 9.05589 17.0183 8.41639C16.722 8.41639 16.4697 8.42226 16.2173 8.41639C15.5073 8.39586 15.0672 8.0057 15.0584 7.31046C15.0378 5.69117 15.0378 4.07189 15.0584 2.45553C15.0672 1.73389 15.5102 1.33787 16.2496 1.33787C18.9167 1.332 21.5838 1.332 24.2508 1.33493C25.0518 1.33493 25.4743 1.76616 25.4773 2.57287C25.4831 4.11002 25.4831 5.64717 25.4773 7.18726C25.4743 7.9881 25.0489 8.41346 24.242 8.41639C22.8102 8.42226 21.3813 8.40759 19.9495 8.42813C19.7118 8.43106 19.4389 8.52493 19.2424 8.65987C18.5147 9.1615 17.8135 9.70126 17.0183 10.2909ZM19.48 5.46823C19.2013 5.15141 19.0076 4.8522 18.7377 4.65858C18.5881 4.55005 18.2565 4.53538 18.101 4.62925C17.8457 4.78766 17.878 5.08101 18.0893 5.30102C18.4384 5.66477 18.7964 6.01679 19.1573 6.36588C19.3773 6.58002 19.6297 6.60056 19.8497 6.38348C20.6507 5.60024 21.4547 4.81993 22.2175 4.00442C22.2439 3.97508 22.2586 3.93401 22.2645 3.88708C22.2997 3.59666 22.0444 3.34731 21.751 3.36491C21.6865 3.36785 21.6248 3.37665 21.5632 3.39131C21.4576 3.41478 21.3754 3.55852 21.2845 3.6524C20.7153 4.22443 20.1431 4.79939 19.48 5.46823Z" fill="#0668E1" style="fill:#0668E1;fill:color(display-p3 0.0235 0.4078 0.8824);fill-opacity:1;"/>
</svg>
