<svg width="60" height="60" viewBox="0 0 60 60" fill="none" xmlns="http://www.w3.org/2000/svg">
<rect width="60" height="60" rx="12" fill="#E6F0FC" style="fill:#E6F0FC;fill:color(display-p3 0.9020 0.9412 0.9882);fill-opacity:1;"/>
<path d="M23.2388 43.4978C21.392 43.4978 19.548 43.5005 17.7012 43.4978C16.8426 43.4978 16.4943 43.1576 16.5024 42.2991C16.5159 41.176 16.4538 40.0421 16.5942 38.9352C16.8129 37.1857 18.3843 35.8305 20.1528 35.7954C22.2074 35.7549 24.2621 35.7549 26.3168 35.7927C28.3201 35.8305 29.9482 37.507 29.9914 39.5237C30.013 40.4713 29.9995 41.419 29.9941 42.3639C29.9887 43.1279 29.6323 43.4897 28.8709 43.4924C26.9945 43.5005 25.1153 43.4978 23.2388 43.4978Z" fill="#0668E1" style="fill:#0668E1;fill:color(display-p3 0.0235 0.4078 0.8824);fill-opacity:1;"/>
<path d="M27.1056 30.957C27.1056 33.0791 25.3695 34.8177 23.2501 34.8177C21.1306 34.8177 19.3945 33.0791 19.3945 30.957C19.3945 28.8269 21.1144 27.1045 23.2501 27.1045C25.3803 27.1072 27.1056 28.8296 27.1056 30.957Z" fill="#0668E1" style="fill:#0668E1;fill:color(display-p3 0.0235 0.4078 0.8824);fill-opacity:1;"/>
<path d="M38.6737 43.4971C37.4533 43.4971 36.2356 43.4998 35.0153 43.4971C34.1918 43.4944 33.8462 43.1489 33.8516 42.3146C33.857 41.5614 33.8138 40.7974 33.9245 40.0603C34.1243 38.7267 35.2528 37.7575 36.5947 37.7251C37.9744 37.69 39.3541 37.69 40.7338 37.7251C42.2349 37.7628 43.4202 38.9723 43.4823 40.4788C43.5093 41.1348 43.4985 41.7936 43.4877 42.4523C43.4769 43.1165 43.1016 43.4782 42.4293 43.4998C42.4131 43.4998 42.3969 43.4998 42.3807 43.4998C41.1442 43.4971 39.9103 43.4971 38.6737 43.4971Z" fill="#0668E1" style="fill:#0668E1;fill:color(display-p3 0.0235 0.4078 0.8824);fill-opacity:1;"/>
<path d="M38.6827 30.9624C40.2756 30.9678 41.5554 32.2502 41.5608 33.8377C41.5662 35.4413 40.2567 36.7534 38.6556 36.7453C37.0573 36.7372 35.7613 35.417 35.7775 33.8134C35.7964 32.2259 37.0897 30.957 38.6827 30.9624Z" fill="#0668E1" style="fill:#0668E1;fill:color(display-p3 0.0235 0.4078 0.8824);fill-opacity:1;"/>
<path d="M32.9915 27.2998C32.9915 26.4864 32.9915 25.8109 32.9915 25.0399C32.6236 25.0399 32.3103 25.047 31.9971 25.0399C31.1155 25.0151 30.5691 24.5448 30.5582 23.7066C30.5327 21.7543 30.5327 19.8021 30.5582 17.8533C30.5691 16.9833 31.1192 16.5059 32.0371 16.5059C35.3483 16.4988 38.6595 16.4988 41.9708 16.5023C42.9652 16.5023 43.4898 17.0222 43.4934 17.9948C43.5007 19.848 43.5007 21.7013 43.4934 23.558C43.4898 24.5235 42.9616 25.0364 41.9598 25.0399C40.1822 25.047 38.4082 25.0293 36.6306 25.054C36.3355 25.0576 35.9967 25.1707 35.7527 25.3334C34.8493 25.9382 33.9787 26.589 32.9915 27.2998ZM36.0477 21.4855C35.7017 21.1036 35.4613 20.7428 35.1261 20.5094C34.9404 20.3785 34.5287 20.3609 34.3357 20.474C34.0187 20.665 34.0588 21.0187 34.3211 21.2839C34.7546 21.7225 35.199 22.1469 35.647 22.5677C35.9202 22.8259 36.2335 22.8507 36.5067 22.589C37.5012 21.6447 38.4993 20.7039 39.4464 19.7207C39.4791 19.6853 39.4974 19.6358 39.5046 19.5792C39.5484 19.2291 39.2314 18.9285 38.8672 18.9497C38.787 18.9532 38.7105 18.9639 38.634 18.9815C38.5029 19.0098 38.4009 19.1831 38.288 19.2963C37.5813 19.986 36.871 20.6792 36.0477 21.4855Z" fill="#0668E1" style="fill:#0668E1;fill:color(display-p3 0.0235 0.4078 0.8824);fill-opacity:1;"/>
</svg>
