<svg width="34" height="32" viewBox="0 0 34 32" fill="none" xmlns="http://www.w3.org/2000/svg">
<g filter="url(#filter0_ddd_21950_38387)">
<path d="M26.7163 17.6531V15.9883C26.7163 10.4726 22.2203 6.00001 16.6753 6.00001C15.1669 5.99816 13.6775 6.33556 12.3179 6.9871C10.9584 7.63864 9.76378 8.58753 8.82299 9.76313M6.66406 14.3441V16.0089C6.66406 21.5307 11.1579 26 16.705 26C18.2092 25.9978 19.6939 25.6611 21.0509 25.0143C22.408 24.3676 23.6032 23.4271 24.5496 22.2615" stroke="#0668E1" style="stroke:#0668E1;stroke:color(display-p3 0.0235 0.4078 0.8824);stroke-opacity:1;" stroke-width="1.6" stroke-linecap="round" stroke-linejoin="round"/>
<path d="M4.65625 16.25L6.65625 14.25L8.40625 16.25M28.6562 16.25L26.6562 18L24.4062 16.25" stroke="#0668E1" style="stroke:#0668E1;stroke:color(display-p3 0.0235 0.4078 0.8824);stroke-opacity:1;" stroke-width="1.31148" stroke-linecap="round" stroke-linejoin="round"/>
<path d="M18.6035 22.5309C18.6035 22.5309 18.5016 22.4251 18.42 22.297C18.2894 22.0897 18.1996 21.858 18.1017 21.6324C18.0507 21.5125 17.9894 21.4698 17.8507 21.5003C17.2324 21.6385 16.606 21.6792 15.9775 21.5857C15.8163 21.5613 15.7469 21.6161 15.7 21.7625C15.6285 21.9881 15.5449 22.2117 15.4551 22.4292C15.3429 22.7015 15.1388 22.795 14.8593 22.6974C14.4818 22.5674 14.1063 22.4312 13.7329 22.2889C13.4268 22.1731 13.3329 21.9739 13.437 21.667C13.5125 21.4434 13.59 21.2178 13.6819 20.9983C13.7329 20.8743 13.7145 20.8011 13.5962 20.7279C13.0513 20.3865 12.582 19.9596 12.1923 19.4495C12.1086 19.3397 12.0351 19.3255 11.9148 19.3885C11.7127 19.4942 11.5026 19.5877 11.2924 19.6792C10.9679 19.8235 10.7639 19.7483 10.6088 19.4251C10.4476 19.0897 10.2905 18.7503 10.1354 18.4129C9.98644 18.0877 10.0599 17.8824 10.3782 17.7279C10.5843 17.6283 10.7925 17.5288 11.0026 17.4393C11.123 17.3885 11.1659 17.3275 11.1353 17.1873C10.9965 16.5714 10.9557 15.9475 11.0496 15.3214C11.074 15.1609 11.021 15.0918 10.8741 15.045C10.6476 14.9739 10.4231 14.8905 10.2027 14.8031C9.92726 14.6914 9.83544 14.4881 9.93135 14.2117C10.0619 13.8357 10.1987 13.4617 10.3415 13.0897C10.4578 12.7828 10.6557 12.6914 10.9659 12.795C11.1904 12.8702 11.4169 12.9475 11.6372 13.0369C11.7617 13.0877 11.8352 13.0714 11.9086 12.9536C12.2494 12.4109 12.68 11.9434 13.1921 11.5552C13.3003 11.4719 13.3207 11.4007 13.2554 11.2788C13.1452 11.0694 13.0493 10.8519 12.9534 10.6345C12.8228 10.3357 12.8942 10.1324 13.1921 9.98812C13.5431 9.81739 13.8982 9.65478 14.2553 9.49422C14.5613 9.356 14.7674 9.43527 14.9205 9.74422C15.0205 9.9495 15.1204 10.1548 15.2102 10.3662C15.2612 10.4861 15.3184 10.5308 15.4612 10.5003C16.0795 10.3621 16.7059 10.3215 17.3344 10.4149C17.4936 10.4393 17.565 10.3885 17.6119 10.2401C17.6834 10.0145 17.767 9.79096 17.8568 9.57348C17.969 9.29909 18.1711 9.2056 18.4506 9.30316C18.8363 9.43527 19.2199 9.57348 19.5994 9.71983C19.8872 9.82958 19.9749 10.0328 19.8749 10.3316C19.7994 10.5552 19.7198 10.7808 19.63 11.0003C19.5811 11.1223 19.5933 11.1954 19.7137 11.2706C20.2585 11.6121 20.7258 12.041 21.1176 12.5491C21.1992 12.6568 21.2706 12.6792 21.3931 12.6141C21.6114 12.5003 21.8359 12.3987 22.0624 12.3032C22.3358 12.1873 22.5419 12.2584 22.6766 12.5267C22.8602 12.8987 23.0378 13.2747 23.2051 13.6548C23.3153 13.9068 23.2316 14.1223 22.9827 14.2483C22.7643 14.3601 22.5399 14.4637 22.3134 14.5592C22.193 14.6101 22.146 14.667 22.1787 14.8072C22.3174 15.4231 22.3583 16.047 22.2644 16.6731C22.2399 16.8316 22.293 16.9027 22.4399 16.9495C22.6664 17.0206 22.8908 17.1019 23.1112 17.1934C23.3846 17.3052 23.4785 17.5105 23.3826 17.7869C23.2479 18.171 23.1092 18.5531 22.9643 18.9312C22.8541 19.2178 22.65 19.3031 22.3501 19.2035C22.1256 19.1283 21.8991 19.0511 21.6787 18.9596C21.5543 18.9088 21.4808 18.9251 21.4074 19.043C21.0666 19.5877 20.634 20.0511 20.1239 20.4413C20.0157 20.5247 19.9953 20.5958 20.0606 20.7178C20.1769 20.9434 20.2851 21.1751 20.383 21.4088C20.4789 21.6365 20.4238 21.8479 20.2116 21.9556C19.8035 22.1629 19.3831 22.3479 18.9669 22.5389C18.922 22.5592 18.8179 22.5674 18.8179 22.5674H18.7567L18.6035 22.5309ZM16.6713 20.1324C18.9465 20.1324 20.8013 18.2788 20.8034 16.0003C20.8054 13.7279 18.9505 11.8763 16.6692 11.8723C14.3736 11.8662 12.5106 13.7178 12.5106 16.0044C12.5106 18.2909 14.3675 20.1324 16.6713 20.1324Z" fill="#0668E1" style="fill:#0668E1;fill:color(display-p3 0.0235 0.4078 0.8824);fill-opacity:1;"/>
<path d="M15.1043 14.6875C14.8258 14.1466 14.7639 13.6119 14.8918 13.132C15.1435 12.9998 15.3518 12.9185 15.5251 12.7924C15.8861 12.5322 16.2512 12.2984 16.7195 12.3289C17.1981 12.3594 17.6231 12.4773 17.7799 13.0059C17.7943 13.0547 17.8665 13.1096 17.9201 13.1178C18.1244 13.1503 18.2089 13.2845 18.2564 13.4573C18.376 13.8945 18.341 14.3113 18.079 14.6936C18.343 14.9416 18.2811 15.6085 17.9944 15.8342C17.9201 15.8932 17.8789 15.9969 17.8397 16.0884C17.7654 16.2632 17.6953 16.4422 17.6416 16.6252C17.5983 16.7736 17.555 16.9301 17.5571 17.0806C17.5571 17.2941 17.4972 17.4507 17.3136 17.5747C17.0661 17.7414 16.835 17.9325 16.5813 18.1237C16.2925 17.9041 15.9975 17.6987 15.7314 17.4629C15.653 17.3937 15.6262 17.2392 15.62 17.1213C15.6076 16.9037 15.5705 16.7146 15.4673 16.5032C15.2487 16.0579 15.1022 15.574 14.9578 15.0982C14.9227 14.9823 15.0114 14.8318 15.0424 14.6956C15.063 14.6915 15.0857 14.6875 15.1063 14.6814L15.1043 14.6875Z" fill="#0668E1" style="fill:#0668E1;fill:color(display-p3 0.0235 0.4078 0.8824);fill-opacity:1;"/>
<path d="M17.1063 19.6714C17.0237 19.2546 16.8505 18.8724 17.2713 18.5226C17.4054 18.7016 17.5436 18.8846 17.6942 19.0838C17.7808 18.5267 17.8675 17.9777 17.9644 17.3535C18.4657 17.8801 19.099 17.9798 19.7282 18.1973C19.0392 19.0432 18.1893 19.523 17.1063 19.6735V19.6714Z" fill="#0668E1" style="fill:#0668E1;fill:color(display-p3 0.0235 0.4078 0.8824);fill-opacity:1;"/>
<path d="M15.3561 17.4327C15.4407 17.9776 15.5253 18.5205 15.6119 19.0857C15.7563 18.8905 15.8925 18.7055 16.0307 18.5205C16.4557 18.8641 16.2865 19.2525 16.1999 19.6672C15.1292 19.531 14.2814 19.043 13.582 18.2033C14.1885 17.9715 14.8363 17.8963 15.2819 17.4062C15.3066 17.4144 15.3314 17.4245 15.3561 17.4327Z" fill="#0668E1" style="fill:#0668E1;fill:color(display-p3 0.0235 0.4078 0.8824);fill-opacity:1;"/>
</g>
<defs>
<filter id="filter0_ddd_21950_38387" x="-3.34375" y="-4" width="40" height="40" filterUnits="userSpaceOnUse" color-interpolation-filters="sRGB">
<feFlood flood-opacity="0" result="BackgroundImageFix"/>
<feColorMatrix in="SourceAlpha" type="matrix" values="0 0 0 0 0 0 0 0 0 0 0 0 0 0 0 0 0 0 127 0" result="hardAlpha"/>
<feMorphology radius="0.96" operator="erode" in="SourceAlpha" result="effect1_dropShadow_21950_38387"/>
<feOffset dx="0.96" dy="1.92"/>
<feGaussianBlur stdDeviation="1.44"/>
<feComposite in2="hardAlpha" operator="out"/>
<feColorMatrix type="matrix" values="0 0 0 0 0 0 0 0 0 0 0 0 0 0 0 0 0 0 0.15 0"/>
<feBlend mode="normal" in2="BackgroundImageFix" result="effect1_dropShadow_21950_38387"/>
<feColorMatrix in="SourceAlpha" type="matrix" values="0 0 0 0 0 0 0 0 0 0 0 0 0 0 0 0 0 0 127 0" result="hardAlpha"/>
<feMorphology radius="0.8" operator="dilate" in="SourceAlpha" result="effect2_dropShadow_21950_38387"/>
<feOffset dx="-0.8" dy="-0.8"/>
<feComposite in2="hardAlpha" operator="out"/>
<feColorMatrix type="matrix" values="0 0 0 0 1 0 0 0 0 1 0 0 0 0 1 0 0 0 0.2 0"/>
<feBlend mode="normal" in2="effect1_dropShadow_21950_38387" result="effect2_dropShadow_21950_38387"/>
<feColorMatrix in="SourceAlpha" type="matrix" values="0 0 0 0 0 0 0 0 0 0 0 0 0 0 0 0 0 0 127 0" result="hardAlpha"/>
<feOffset/>
<feGaussianBlur stdDeviation="2"/>
<feComposite in2="hardAlpha" operator="out"/>
<feColorMatrix type="matrix" values="0 0 0 0 0.0235294 0 0 0 0 0.407843 0 0 0 0 0.882353 0 0 0 0.15 0"/>
<feBlend mode="normal" in2="effect2_dropShadow_21950_38387" result="effect3_dropShadow_21950_38387"/>
<feBlend mode="normal" in="SourceGraphic" in2="effect3_dropShadow_21950_38387" result="shape"/>
</filter>
</defs>
</svg>
